<svg width="60" height="60" viewBox="0 0 60 60" fill="none" xmlns="http://www.w3.org/2000/svg">
<g clip-path="url(#clip0_2251_45983)">
<rect width="60" height="60" rx="30" fill="white"/>
<path d="M14.3712 33.5391C14.8147 32.84 15.6884 32.4872 16.552 32.6586C17.3479 32.8164 18.0259 33.4995 18.1591 34.2781C18.1294 34.3362 18.1513 34.3948 18.1497 34.4533C18.1611 34.4789 18.1806 34.4374 18.1575 34.4495C18.1497 34.4537 18.1454 34.4495 18.1458 34.4367C18.1462 34.4056 18.138 34.3727 18.1669 34.3483C18.2287 34.5848 18.2283 34.8213 18.1669 35.0578C18.1329 35.014 18.1419 34.9667 18.1458 34.9519C18.1517 34.9888 18.1286 35.059 18.1591 35.128C17.9774 35.9519 17.4718 36.4931 16.6614 36.7141C15.8053 36.9472 15.0617 36.7033 14.4908 36.0329C13.8945 35.3335 13.8426 34.3041 14.3294 33.6073C14.3701 33.6003 14.3716 33.5705 14.3712 33.5391Z" fill="#DD292A"/>
<path d="M39.0345 34.7064C39.0329 35.8673 38.0924 36.7986 36.9241 36.7959C35.7624 36.7932 34.8379 35.8557 34.8398 34.682C34.8422 33.5347 35.7858 32.6096 36.9483 32.6143C38.1072 32.6193 39.0364 33.5514 39.0345 34.7064Z" fill="#794A94"/>
<path d="M41.7861 34.7026C41.7861 33.5467 42.7274 32.6158 43.8954 32.6162C45.0488 32.6166 45.9878 33.5475 45.9929 34.6956C45.998 35.8475 45.0508 36.7947 43.893 36.7959C42.7313 36.797 41.7857 35.8576 41.7861 34.7026Z" fill="#3379B4"/>
<path d="M29.9942 36.7958C28.8497 36.7981 27.8967 35.8524 27.8955 34.7141C27.8939 33.5556 28.8309 32.6177 29.9938 32.6138C31.1496 32.6099 32.1077 33.5579 32.1073 34.704C32.1066 35.8493 31.1527 36.7935 29.9942 36.7958Z" fill="#29A359"/>
<path d="M23.397 32.6543C24.2821 32.771 25.0596 33.5732 25.1194 34.4308C25.1065 34.6123 25.1065 34.7933 25.1194 34.9748C25.071 35.7433 24.37 36.5226 23.6022 36.7242C22.4334 37.0313 21.2659 36.295 21.0061 35.2016C20.9912 35.14 20.9865 35.076 20.9771 35.0132C20.9904 34.8189 20.9787 34.6251 20.9756 34.4312C21.0025 33.7546 21.5805 33.0152 22.2873 32.7578C22.4202 32.7093 22.5534 32.657 22.6988 32.6562C22.7609 32.669 22.8238 32.6934 22.8801 32.6411C22.9918 32.5988 23.1036 32.5988 23.2153 32.6411C23.2708 32.7027 23.3353 32.6605 23.397 32.6543Z" fill="#EC9A29"/>
<path d="M38.9896 29.7434C38.8974 29.6538 38.992 29.5619 38.9916 29.4716C38.9849 27.8327 38.9849 26.1938 38.9916 24.5545C38.992 24.4618 38.906 24.3723 38.9818 24.2788C39.049 24.3878 39.0568 24.5095 39.0568 24.6324C39.0568 26.2244 39.0568 27.8164 39.0568 29.4084C39.0564 29.5247 39.0541 29.6399 38.9896 29.7434Z" fill="#8B8B8B"/>
<path d="M25.1204 30.2854C25.0829 30.2606 25.0767 30.223 25.0798 30.183C25.1662 29.1401 25.1001 28.0955 25.1142 27.0518C25.1189 26.7055 25.1548 26.3562 25.0825 26.0111C25.0786 25.9917 25.1025 25.9669 25.1134 25.9448C25.197 26.1468 25.1884 26.362 25.1892 26.5725C25.1939 27.6124 25.1927 28.6523 25.19 29.6918C25.1904 29.8919 25.1744 30.0911 25.1204 30.2854Z" fill="#8C8C8C"/>
<path d="M45.8274 28.8784C45.8185 28.8967 45.8002 28.9409 45.7933 28.9211C45.7665 28.8436 45.7467 28.7594 45.746 28.6776C45.7421 28.1495 45.7436 27.6214 45.744 27.093C45.744 27.0426 45.7339 26.9883 45.7828 26.9507C45.8382 27.1601 45.8053 27.3733 45.8099 27.585C45.8196 28.0161 45.8223 28.4473 45.8274 28.8784Z" fill="#8C8C8C"/>
<path d="M44.5714 25.6367C44.5058 25.6987 44.4245 25.6669 44.3499 25.6716C43.8903 25.6991 43.4211 25.5971 42.9737 25.7809C42.9404 25.7945 42.9115 25.7766 42.8916 25.7476C43.4402 25.5401 44.0037 25.5549 44.5714 25.6367Z" fill="#8F8F8F"/>
<path d="M29.1014 29.8984C29.1225 29.8864 29.1503 29.8592 29.164 29.8651C29.5527 30.0244 29.9615 29.9632 30.3631 29.974C30.4022 29.9752 30.4405 29.9767 30.4683 30.0097C30.0033 30.0888 29.5449 30.0841 29.1014 29.8984Z" fill="#919191"/>
<path d="M37.2672 25.7516C37.2406 25.7881 37.2012 25.7954 37.1632 25.7842C36.7897 25.6741 36.4165 25.6787 36.0426 25.7815C36.0254 25.7861 36 25.7609 35.9785 25.7493C36.4083 25.5927 36.8378 25.588 37.2672 25.7516Z" fill="#939393"/>
<path d="M38.1238 24.2368C38.1804 24.3772 38.0757 24.4985 38.0807 24.6393C38.0974 25.1146 38.0881 25.5907 38.0862 26.0665C38.0858 26.1277 38.1052 26.1929 38.0447 26.2918C38.0447 25.6547 38.0447 25.0584 38.0447 24.4621C38.047 24.3787 38.0707 24.3027 38.1238 24.2368Z" fill="#8C8C8C"/>
<path d="M16.9115 25.6392C16.8373 25.6997 16.7451 25.683 16.6693 25.6675C16.3739 25.6082 16.0769 25.6447 15.7807 25.633C15.6991 25.6606 15.6178 25.6675 15.5373 25.6288C15.996 25.5264 16.454 25.547 16.9115 25.6392Z" fill="#8C8C8C"/>
<path d="M23.359 25.7503C23.3332 25.7871 23.2937 25.7956 23.2558 25.7844C22.9081 25.6782 22.5615 25.6774 22.2137 25.7844C22.1762 25.796 22.1363 25.7887 22.1094 25.7526C22.5259 25.5998 22.9424 25.5971 23.359 25.7503Z" fill="#939393"/>
<path d="M18.0517 28.6846C18.0342 28.7377 18.0676 28.7998 18.009 28.8664C18.009 28.2519 18.0086 27.6556 18.0106 27.0597C18.0106 27.0372 18.0307 27.0147 18.0416 26.9922C18.0447 27.5563 18.0482 28.1205 18.0517 28.6846Z" fill="#8C8C8C"/>
<path d="M36.252 30.0109C36.3176 29.9473 36.4 29.9764 36.4743 29.976C36.733 29.9748 36.994 29.9946 37.2362 29.8736C37.2734 29.855 37.3113 29.8554 37.3421 29.8895C36.994 30.0613 36.6302 30.1024 36.252 30.0109Z" fill="#929292"/>
<path d="M21.6777 31.3752C21.7043 31.3318 21.7375 31.3403 21.7758 31.3593C22.0165 31.4795 22.2732 31.547 22.5405 31.5939C22.4846 31.5981 22.4291 31.6028 22.3733 31.607C22.1263 31.5745 21.8891 31.5124 21.6777 31.3752Z" fill="#929292"/>
<path d="M20.9399 27.6499C20.9806 27.9201 21.0783 28.1857 21.0097 28.4657C20.9217 28.1993 20.9252 27.9252 20.9399 27.6499Z" fill="#909090"/>
<path d="M42.8948 30.0092C43.1019 29.9533 43.3094 29.9533 43.5164 30.0092C43.309 30.0588 43.1019 30.0588 42.8948 30.0092Z" fill="#8A8A8A"/>
<path d="M15.0801 30.0061C15.3001 29.9553 15.5201 29.9498 15.7393 30.0092C15.5197 30.0568 15.2997 30.0568 15.0801 30.0061Z" fill="#8A8A8A"/>
<path d="M20.975 34.4307C21.042 34.6245 21.0382 34.8184 20.9765 35.0126C20.935 34.8188 20.9207 34.6249 20.975 34.4307Z" fill="#E99115"/>
<path d="M25.119 34.9746C25.0539 34.7932 25.0539 34.6121 25.119 34.4307C25.1621 34.6121 25.1621 34.7936 25.119 34.9746Z" fill="#E99115"/>
<path d="M15.1804 27.603C15.2011 27.6108 15.2355 27.6344 15.2324 27.6348C15.0628 27.6596 14.9092 27.7721 14.7275 27.731C14.867 27.6484 15.0198 27.6119 15.1804 27.603Z" fill="#939393"/>
<path d="M38.3254 30.0049C38.4665 29.956 38.6076 29.956 38.7482 30.0049C38.6076 30.0751 38.4665 30.0751 38.3254 30.0049Z" fill="#8A8A8A"/>
<path d="M16.2386 27.3726C16.2585 27.3799 16.2964 27.4016 16.2867 27.4036C16.146 27.4354 16.0135 27.5505 15.8584 27.4536C15.985 27.4265 16.112 27.3997 16.2386 27.3726Z" fill="#939393"/>
<path d="M42.0313 26.563C42.1011 26.6987 42.0678 26.8453 42.0774 26.9875C41.9697 26.8561 41.9828 26.7115 42.0313 26.563Z" fill="#8C8C8C"/>
<path d="M14.2539 26.562C14.3213 26.6783 14.3175 26.795 14.257 26.9125C14.1926 26.7958 14.2077 26.6791 14.2539 26.562Z" fill="#8A8A8A"/>
<path d="M34.958 28.7803C35.0909 28.8733 35.1276 29.0071 35.1221 29.1595C35.0385 29.0451 34.9803 28.9202 34.958 28.7803Z" fill="#929292"/>
<path d="M24.4868 25.6699C24.5036 25.6769 24.5204 25.6835 24.5372 25.6905C24.4356 25.7347 24.3848 25.8611 24.2559 25.8611C24.3 25.7583 24.3731 25.6901 24.4868 25.6699Z" fill="#929292"/>
<path d="M23.8777 31.5682C23.8593 31.5596 23.8171 31.5403 23.8324 31.5368C23.9582 31.5061 24.0758 31.4096 24.2165 31.4782C24.107 31.5228 23.9988 31.5693 23.8777 31.5682Z" fill="#939393"/>
<path d="M21.6788 30.171C21.5753 30.2261 21.4717 30.2276 21.3682 30.1698C21.4721 30.1167 21.5756 30.1187 21.6788 30.171Z" fill="#8A8A8A"/>
<path d="M35.503 26.0176C35.4819 26.1494 35.4026 26.2238 35.2725 26.2483C35.3315 26.1537 35.41 26.0788 35.503 26.0176Z" fill="#8C8C8C"/>
<path d="M21.33 31.1337C21.4612 31.1135 21.5206 31.1876 21.5507 31.2996C21.4609 31.2651 21.3925 31.2031 21.33 31.1337Z" fill="#929292"/>
<path d="M42.1523 29.6595C42.2825 29.6413 42.3422 29.7149 42.3735 29.8262C42.284 29.7913 42.2133 29.7316 42.1523 29.6595Z" fill="#929292"/>
<path d="M30.1937 25.6384C30.0522 25.6923 29.9104 25.6916 29.7686 25.6388C29.9104 25.6222 30.0522 25.6214 30.1937 25.6384Z" fill="#8A8A8A"/>
<path d="M27.8174 27.6504C27.874 27.778 27.8724 27.9059 27.8185 28.0338C27.8182 27.9063 27.8178 27.7783 27.8174 27.6504Z" fill="#8A8A8A"/>
<path d="M14.4158 29.6963C14.5346 29.6975 14.5846 29.7331 14.5983 29.8262C14.5221 29.8041 14.4694 29.7498 14.4158 29.6963Z" fill="#8F8F8F"/>
<path d="M42.1764 27.9512C42.1897 28.0605 42.1381 28.1101 42.0303 28.1074C42.0623 28.0403 42.1178 27.9946 42.1764 27.9512Z" fill="#8B8B8B"/>
<path d="M15.5371 25.6294C15.6184 25.6309 15.6997 25.6321 15.7806 25.6337C15.6774 25.6945 15.5739 25.691 15.4695 25.6368C15.4922 25.634 15.5145 25.6317 15.5371 25.6294Z" fill="#8A8A8A"/>
<path d="M23.6464 31.6085C23.5897 31.603 23.533 31.598 23.4764 31.5926C23.5694 31.5674 23.6624 31.5356 23.7495 31.5996C23.7151 31.6027 23.6807 31.6058 23.6464 31.6085Z" fill="#919191"/>
<path d="M34.8067 27.6494C34.866 27.7401 34.868 27.8309 34.8048 27.9208C34.7904 27.8301 34.7896 27.7398 34.8067 27.6494Z" fill="#8A8A8A"/>
<path d="M38.2757 24.0796C38.3086 24.199 38.2187 24.1854 38.1495 24.1944C38.1742 24.137 38.2191 24.1017 38.2757 24.0796Z" fill="#919191"/>
<path d="M18.1593 35.1279C18.0996 35.0546 18.1282 34.9755 18.1542 34.896C18.1585 34.9499 18.1628 35.0038 18.167 35.0577C18.1643 35.0809 18.162 35.1046 18.1593 35.1279Z" fill="#DC1C1D"/>
<path d="M31.5806 26.2491C31.5099 26.2402 31.42 26.2507 31.4567 26.1309C31.4978 26.17 31.5392 26.2096 31.5806 26.2491Z" fill="#8A8A8A"/>
<path d="M22.8797 32.6406C22.8261 32.7283 22.7621 32.6868 22.6984 32.6557C22.7585 32.6507 22.8191 32.6457 22.8797 32.6406Z" fill="#E99115"/>
<path d="M23.3971 32.6542C23.3338 32.6829 23.2685 32.7379 23.215 32.6406C23.2755 32.6449 23.3361 32.6495 23.3971 32.6542Z" fill="#E99115"/>
<path d="M18.1663 34.3481C18.1616 34.3896 18.1569 34.4311 18.148 34.5117C18.1205 34.4047 18.1054 34.3384 18.1589 34.2783C18.1612 34.3012 18.1635 34.3245 18.1663 34.3481Z" fill="#DC1C1D"/>
<path d="M14.3706 33.5391C14.4051 33.5584 14.4128 33.5852 14.3876 33.6158C14.3663 33.6414 14.345 33.636 14.3291 33.6073C14.331 33.5771 14.3411 33.5522 14.3706 33.5391Z" fill="#DE2829"/>
<path fill-rule="evenodd" clip-rule="evenodd" d="M24.1519 26.3287C23.912 26.0748 23.689 25.8388 23.3595 25.75C23.3143 25.761 23.2716 25.7503 23.2283 25.7395C23.2212 25.7377 23.2139 25.7359 23.2067 25.7342C22.9054 25.657 22.6034 25.6481 22.3014 25.7276C22.2986 25.7283 22.2959 25.729 22.2932 25.7297C22.233 25.7457 22.1731 25.7617 22.1099 25.7528C21.3815 26.0149 20.9107 26.7783 20.9396 27.6503C20.948 27.7677 20.9597 27.8849 20.9713 28.0021C20.9866 28.1566 21.0019 28.3111 21.0099 28.4661C21.1451 29.1295 21.4847 29.6432 22.1494 29.87C22.9125 30.1302 23.5635 29.9305 24.1003 29.2667C24.0983 29.3306 24.0969 29.3931 24.0954 29.4543C24.0884 29.7541 24.082 30.0244 24.0191 30.2903C23.9745 30.478 23.8792 30.6358 23.7155 30.7482C23.2817 31.0464 22.4545 30.9362 22.1064 30.5458C22.0763 30.5121 22.0483 30.4756 22.0202 30.4389C21.9312 30.3225 21.8409 30.2046 21.6781 30.1713C21.6263 30.1703 21.5746 30.1705 21.5228 30.1707C21.471 30.1709 21.4192 30.1711 21.3675 30.1701C21.1592 30.2248 21.0537 30.3659 21.051 30.573C21.0479 30.8025 21.1381 30.9948 21.3292 31.1336C21.4273 31.1569 21.4925 31.2228 21.55 31.2995C21.5828 31.3406 21.6238 31.3678 21.6769 31.3752C21.7598 31.3984 21.8411 31.428 21.9222 31.4575C22.106 31.5244 22.2887 31.5909 22.487 31.5826C22.4755 31.5871 22.4614 31.5861 22.4466 31.585C22.4211 31.5831 22.3933 31.581 22.3721 31.607C22.7964 31.7051 23.2208 31.7036 23.6455 31.609C23.6284 31.5947 23.6106 31.5866 23.5924 31.5832C23.5971 31.583 23.6019 31.5827 23.6067 31.5824C23.6543 31.5797 23.7027 31.5768 23.7491 31.6C23.7956 31.6039 23.8397 31.5993 23.8776 31.5682C23.8765 31.5671 23.8752 31.566 23.8739 31.5649C23.8703 31.5617 23.8666 31.5585 23.8663 31.5551C23.8659 31.55 23.8718 31.5395 23.8745 31.5395C23.9276 31.5411 23.9774 31.5239 24.0271 31.5068C24.0882 31.4857 24.1492 31.4646 24.2164 31.4783C24.7548 31.2577 25.0409 30.849 25.1202 30.2856C25.1115 30.1994 25.1239 30.1147 25.1362 30.0301C25.1461 29.9621 25.156 29.8942 25.155 29.8258C25.148 29.365 25.1523 28.9041 25.1567 28.4431C25.1645 27.6102 25.1724 26.7772 25.1135 25.9451C25.026 25.6531 24.8111 25.5585 24.4864 25.6698C24.4153 25.7407 24.3363 25.802 24.2555 25.8609C24.1476 25.992 24.1476 26.1494 24.155 26.332L24.1519 26.3287ZM23.5452 31.5839C23.5329 31.5833 23.5207 31.5818 23.5088 31.5791C23.4779 31.5795 23.5013 31.6233 23.4998 31.5977C23.4998 31.5971 23.5005 31.5969 23.5019 31.5966C23.5029 31.5964 23.5043 31.5961 23.506 31.5954C23.5192 31.5902 23.5323 31.5862 23.5452 31.5839ZM23.1372 29.088C23.1762 29.0821 23.217 29.0759 23.2477 29.1175L23.2485 29.1167C23.2675 29.106 23.2862 29.0945 23.305 29.0831C23.3452 29.0586 23.3854 29.034 23.4286 29.0163C23.7451 28.8868 23.926 28.6452 24.0292 28.3304C24.1249 28.0375 24.1131 27.7387 24.1012 27.4387C24.1009 27.4313 24.1006 27.4239 24.1003 27.4165C24.1108 27.2742 24.0698 27.1486 23.9784 27.0389C23.9306 26.9578 23.8827 26.8764 23.8349 26.795L23.8342 26.7938C23.8088 26.6876 23.7389 26.6252 23.6365 26.5938C23.5107 26.5139 23.3731 26.46 23.2328 26.4127C23.109 26.3479 22.9855 26.3479 22.862 26.4127C22.7221 26.4612 22.5838 26.5135 22.4596 26.5961C22.3521 26.6213 22.2912 26.6911 22.265 26.795C22.0407 27.1657 21.9895 27.5743 21.9961 27.9958C21.9704 28.1338 22.0012 28.2602 22.0755 28.3777C22.0801 28.3868 22.0849 28.3958 22.0896 28.4048C22.0997 28.4238 22.1097 28.4427 22.1184 28.4622C22.3087 28.8856 22.6229 29.1159 23.1043 29.0919C23.1149 29.0914 23.126 29.0897 23.1372 29.088Z" fill="#939393"/>
<path d="M23.2326 26.4134C23.1091 26.4134 22.9852 26.4134 22.8618 26.4134C22.8422 26.4061 22.7981 26.389 22.8172 26.3801C22.9684 26.3095 23.1259 26.3095 23.2771 26.3801C23.2963 26.389 23.2521 26.4061 23.2326 26.4134Z" fill="#929292"/>
<path d="M24.0995 27.4172C24.0588 27.2912 24.0182 27.1656 23.9775 27.0396C24.1096 27.1365 24.1686 27.2567 24.0995 27.4172Z" fill="#919191"/>
<path d="M21.9962 27.9966C22.0228 28.1238 22.049 28.2513 22.0756 28.3785C21.9404 28.2734 21.9177 28.1451 21.9962 27.9966Z" fill="#909090"/>
<path d="M24.1523 27.9178C24.1523 27.793 24.1523 27.6681 24.1523 27.5433C24.157 27.5429 24.162 27.5429 24.1667 27.5425C24.1667 27.6673 24.1667 27.7926 24.1667 27.9174C24.162 27.9174 24.157 27.9178 24.1523 27.9178Z" fill="#8A8A8A"/>
<path d="M22.4592 26.5967C22.3944 26.663 22.3295 26.7293 22.2646 26.7956C22.2658 26.6634 22.3197 26.6083 22.4592 26.5967Z" fill="#8F8F8F"/>
<path d="M22.8703 30.9512C22.9789 30.9512 23.0879 30.9512 23.1966 30.9512C23.0825 30.9923 22.968 30.9841 22.8703 30.9512Z" fill="#8A8A8A"/>
<path d="M23.8335 26.7949C23.7674 26.7282 23.7018 26.6615 23.6357 26.5948C23.7733 26.5921 23.8436 26.6541 23.8335 26.7949Z" fill="#8C8C8C"/>
<path d="M23.2478 29.1177C23.1368 29.1991 23.0149 29.1456 22.8965 29.1181C23.0133 29.1181 23.1305 29.1181 23.2474 29.1181C23.2474 29.1177 23.2478 29.1177 23.2478 29.1177Z" fill="#8B8B8B"/>
<path fill-rule="evenodd" clip-rule="evenodd" d="M34.8056 27.9207C34.7974 28.2177 34.8466 28.5042 34.9583 28.7802C35.0335 28.8822 35.0714 28.9996 35.1096 29.1179C35.1141 29.1319 35.1187 29.1458 35.1232 29.1598C35.3737 29.6088 35.7414 29.9046 36.2537 30.0113C36.6237 30.0291 36.9902 30.014 37.3442 29.8899C37.5769 29.7997 37.7522 29.6316 37.9369 29.4546C37.9706 29.4223 38.0046 29.3897 38.0394 29.3572C38.0401 29.3755 38.0406 29.3937 38.0412 29.4118C38.0497 29.6681 38.0572 29.8975 38.3269 30.0054C38.4676 30.0163 38.6087 30.0159 38.7497 30.0054C38.874 29.9581 38.958 29.8744 38.9904 29.7437C39.0339 29.4987 39.0306 29.2517 39.0273 29.0049C39.0264 28.9366 39.0255 28.8683 39.0256 28.8C39.0268 28.0419 39.0267 27.284 39.0266 26.526C39.0265 26.0206 39.0264 25.5151 39.0268 25.0096C39.0268 24.9819 39.027 24.9541 39.0271 24.9263C39.0282 24.7097 39.0294 24.4929 38.9826 24.2792C38.8419 24.0023 38.5594 23.9224 38.2773 24.0799C38.2671 24.1349 38.2256 24.156 38.184 24.177C38.1728 24.1827 38.1617 24.1883 38.1511 24.1946C38.1487 24.1987 38.1463 24.2028 38.1438 24.207C38.1379 24.217 38.1319 24.2271 38.1261 24.2373C38.0904 24.3463 38.0767 24.4573 38.0717 24.5692C38.0683 24.5331 38.0608 24.4974 38.046 24.4622C37.9979 24.5829 38.0046 24.7069 38.0114 24.8307C38.014 24.8799 38.0167 24.929 38.0159 24.9778C38.0109 25.2725 38.0118 25.5674 38.0128 25.8728C38.0132 25.9973 38.0136 26.1236 38.0136 26.2523C37.965 26.2125 37.9182 26.1724 37.8723 26.1331C37.68 25.9684 37.5026 25.8164 37.2676 25.7513C37.171 25.7494 37.0773 25.7297 36.9832 25.71C36.8902 25.6905 36.7969 25.6709 36.7003 25.6684C36.522 25.6639 36.3492 25.6915 36.1763 25.7192C36.1105 25.7297 36.0447 25.7402 35.9786 25.749C35.7981 25.8002 35.6367 25.8847 35.503 26.0173C35.4515 26.1189 35.3721 26.1937 35.2725 26.248C34.9271 26.6528 34.8083 27.132 34.8075 27.6492C34.8368 27.74 34.8407 27.8303 34.8056 27.9207ZM38.0691 24.7396C38.068 24.761 38.0673 24.7824 38.0675 24.8037C38.0714 25.2027 38.0702 25.6017 38.0679 26.0006C38.0678 26.0109 38.0684 26.0212 38.0692 26.0317C38.0706 25.6434 38.0706 25.2552 38.0698 24.8669C38.0698 24.8425 38.0696 24.818 38.0694 24.7935C38.0693 24.7755 38.0692 24.7575 38.0691 24.7396ZM38.0742 26.1199C38.0729 26.1428 38.0681 26.1654 38.0558 26.1871C38.0738 26.1671 38.0759 26.1437 38.0742 26.1199ZM35.8961 28.0331C35.9399 28.4929 36.0981 28.8842 36.5318 29.118C36.7944 29.2812 37.1609 29.2653 37.4177 29.08C37.5993 28.9497 37.7627 28.7981 37.8451 28.5887C38.0647 28.0323 38.0565 27.4763 37.7697 26.9467C37.5923 26.6191 37.2946 26.4279 36.9132 26.4306C36.5221 26.4334 36.238 26.6361 36.0606 26.98C35.8891 27.3123 35.8613 27.6675 35.8961 28.0331Z" fill="#939393"/>
<path d="M36.5315 29.118C36.8328 29.2378 37.1278 29.2203 37.4173 29.0796C37.4568 29.1129 37.4302 29.137 37.4013 29.1509C37.1227 29.2839 36.8371 29.2874 36.5479 29.1878C36.5167 29.1769 36.494 29.1513 36.5315 29.118Z" fill="#939393"/>
<path fill-rule="evenodd" clip-rule="evenodd" d="M14.683 25.9456C14.474 26.1022 14.2903 26.2837 14.2544 26.5621C14.2583 26.6388 14.2579 26.7156 14.2575 26.7923C14.2573 26.8322 14.2571 26.872 14.2575 26.9118C14.447 27.2549 14.855 27.2774 15.0609 26.93C15.327 26.4818 15.7123 26.3112 16.214 26.338C16.6903 26.3635 16.9154 26.5876 16.9474 27.0595C16.9537 27.1533 16.9118 27.1844 16.8345 27.2053C16.6891 27.2446 16.5444 27.2856 16.3997 27.3265C16.346 27.3417 16.2923 27.3569 16.2386 27.372C16.2396 27.3738 16.2407 27.3761 16.2418 27.3785C16.2443 27.3835 16.2468 27.3886 16.2476 27.3883C16.2726 27.3809 16.2589 27.3949 16.2335 27.3988C16.1931 27.4051 16.1533 27.416 16.1135 27.427C16.0306 27.4499 15.9476 27.4728 15.8584 27.4534C15.6286 27.4864 15.4004 27.5259 15.1805 27.6027C15.1851 27.6171 15.1949 27.6236 15.2094 27.6225C15.2089 27.6249 15.2083 27.6281 15.2078 27.6311C15.2071 27.6354 15.2065 27.6392 15.2062 27.6392C15.1088 27.6269 15.0192 27.6555 14.9296 27.6841C14.8633 27.7053 14.797 27.7264 14.7276 27.731C13.9117 28.0947 13.7457 29.1428 14.4158 29.696C14.5013 29.705 14.5518 29.7627 14.5983 29.8259C14.7413 29.9322 14.9062 29.9814 15.0804 30.0062C15.1902 30.0083 15.3001 30.0081 15.41 30.0078C15.5199 30.0075 15.6298 30.0072 15.7396 30.0093C15.7495 30.0087 15.7594 30.0084 15.7694 30.0081C15.7917 30.0074 15.8141 30.0068 15.8357 30.0027C16.246 29.926 16.6043 29.736 16.9341 29.4917C17.0322 29.4192 17.0787 29.4242 17.142 29.5293C17.208 29.6387 17.294 29.7375 17.38 29.8333C17.5542 30.0268 17.7496 30.0636 17.9739 29.9546C18.1947 29.8472 18.288 29.6627 18.2329 29.4114C18.1953 29.2399 18.1512 29.0698 18.1072 28.8998C18.0887 28.8282 18.0701 28.7566 18.052 28.6848C18.0475 28.6988 18.0382 28.7057 18.0241 28.7058C18.0241 28.7021 18.0241 28.6978 18.0243 28.693C18.0302 28.4617 18.0282 28.2303 18.0261 27.9989C18.0232 27.6631 18.0202 27.3274 18.0415 26.992C17.9844 26.115 17.6292 25.7575 16.9111 25.6393C16.8754 25.656 16.8398 25.6509 16.8036 25.6457C16.7953 25.6445 16.787 25.6433 16.7786 25.6424C16.7565 25.6399 16.7344 25.6374 16.7123 25.6348C16.4144 25.6008 16.1163 25.5668 15.8158 25.6141C15.8069 25.6155 15.798 25.6169 15.7891 25.6183C15.6831 25.6349 15.5774 25.6516 15.4696 25.6366C15.1844 25.6819 14.9148 25.7723 14.683 25.9456ZM15.3664 29.2036C15.3769 29.2135 15.3874 29.2235 15.3977 29.2335C15.438 29.2902 15.4982 29.3095 15.5588 29.3289C15.5753 29.3342 15.5918 29.3395 15.608 29.3456C15.7955 29.3929 15.9803 29.3894 16.1601 29.3103C16.1816 29.301 16.203 29.2915 16.2244 29.282C16.2672 29.2631 16.31 29.2441 16.3535 29.2265C16.9076 29.0028 17.0283 28.2902 16.913 27.8807C16.7028 27.9152 16.4946 27.9575 16.2972 28.0409C16.1665 28.091 16.0298 28.1167 15.8931 28.1424C15.8015 28.1596 15.7099 28.1768 15.6201 28.2014C15.1106 28.341 14.9629 28.8027 15.3141 29.1532C15.3312 29.1702 15.3488 29.1869 15.3664 29.2036Z" fill="#939393"/>
<path d="M16.9135 27.8805C16.7146 27.9577 16.511 28.0178 16.2977 28.0407C16.2817 28.0329 16.266 28.0252 16.25 28.0174C16.4688 27.9604 16.6736 27.836 16.9135 27.8805Z" fill="#8F8F8F"/>
<path d="M15.585 29.32C15.7777 29.3743 15.9687 29.329 16.1598 29.3096C16.179 29.3173 16.22 29.339 16.2048 29.3429C16 29.3933 15.7929 29.436 15.585 29.3538C15.571 29.3464 15.5663 29.339 15.571 29.3313C15.5757 29.3239 15.5804 29.32 15.585 29.32Z" fill="#939393"/>
<path d="M15.5851 29.3202C15.5851 29.3315 15.5851 29.3427 15.5851 29.354C15.5046 29.3412 15.4022 29.3617 15.3975 29.2334C15.4604 29.2625 15.5226 29.2912 15.5851 29.3202Z" fill="#939393"/>
<path fill-rule="evenodd" clip-rule="evenodd" d="M42.8921 25.7472C42.4755 25.8844 42.1414 26.107 42.0324 26.5629C42.0331 26.5878 42.0334 26.6126 42.0337 26.6375C42.0351 26.7556 42.0366 26.8737 42.0785 26.9871C42.3263 27.2554 42.649 27.2434 42.8385 26.9359C43.0409 26.6071 43.3015 26.3951 43.6989 26.3423C44.303 26.2621 44.625 26.4579 44.7164 26.984C44.7387 27.1131 44.7125 27.1837 44.5711 27.2197C44.1178 27.3353 43.6614 27.4357 43.2043 27.5346C43.1582 27.5445 43.112 27.5539 43.0656 27.5633C42.7436 27.6286 42.4197 27.6944 42.1758 27.9506C42.161 28.0336 42.1016 28.0762 42.0297 28.1069C41.6593 28.5531 41.7112 29.2095 42.1528 29.6589C42.2501 29.6841 42.3157 29.75 42.3739 29.8256C42.5318 29.9315 42.7045 29.9947 42.8948 30.009C43.1023 30.0106 43.3094 30.0106 43.5165 30.009C43.9295 29.9714 44.2886 29.7966 44.6172 29.56C44.7344 29.4755 44.8001 29.4348 44.8868 29.5949C44.961 29.7324 45.0912 29.8331 45.216 29.9296C45.2193 29.9322 45.2226 29.9347 45.226 29.9373C45.3815 30.0575 45.6093 30.0517 45.7906 29.9327C45.9649 29.8183 46.0344 29.6543 45.9848 29.4538C45.9512 29.3194 45.9141 29.1858 45.8769 29.0522C45.8608 28.9943 45.8447 28.9364 45.8289 28.8784C45.784 28.8494 45.7852 28.8035 45.7863 28.7618C45.7865 28.7545 45.7867 28.7473 45.7867 28.7404C45.7828 28.1441 45.7832 27.5474 45.7843 26.9511C45.7253 26.0643 45.3178 25.7421 44.5719 25.6367C44.5095 25.6525 44.4474 25.6457 44.3853 25.639C44.3514 25.6353 44.3175 25.6316 44.2835 25.6316C44.2303 25.6317 44.1771 25.6315 44.1239 25.6312C43.7097 25.6296 43.2961 25.6279 42.8921 25.7472ZM44.706 28.2801C44.7119 28.2471 44.7177 28.2142 44.7238 28.1812C44.7238 28.1812 44.7238 28.1626 44.7234 28.1626C44.7205 28.1531 44.7166 28.1434 44.7127 28.1337C44.7042 28.1127 44.6957 28.0917 44.6984 28.0723C44.7222 27.9017 44.6573 27.8811 44.5069 27.9347C44.251 28.0258 43.9829 28.0746 43.7141 28.1161C43.6348 28.1068 43.5582 28.1103 43.491 28.1611C43.4662 28.1696 43.4412 28.1775 43.4163 28.1854C43.3614 28.2028 43.3066 28.2202 43.2546 28.2437C42.9525 28.379 42.8306 28.5911 42.8963 28.8698C42.9603 29.1409 43.1733 29.2583 43.412 29.346C43.5214 29.3913 43.6308 29.3875 43.7403 29.3475C43.7552 29.3431 43.7702 29.3385 43.7851 29.334C43.813 29.3255 43.8408 29.317 43.8688 29.3091C44.281 29.1928 44.571 28.9551 44.6608 28.5205C44.6775 28.4405 44.6917 28.3603 44.706 28.2801Z" fill="#939393"/>
<path d="M44.7236 28.1814C44.7197 28.1752 44.7197 28.169 44.7236 28.1624C44.7283 28.0693 44.7329 27.9763 44.738 27.8828C44.7449 27.8832 44.7519 27.8832 44.7589 27.8836C44.7589 28.0367 44.7589 28.1895 44.7589 28.3547C44.7097 28.295 44.7411 28.2341 44.7236 28.1814Z" fill="#8A8A8A"/>
<path d="M43.4123 29.3462C43.5217 29.3466 43.6312 29.3474 43.7406 29.3477C43.7601 29.3563 43.7964 29.383 43.7843 29.3838C43.6573 29.3919 43.5292 29.4094 43.4026 29.378C43.4006 29.3776 43.3994 29.3664 43.4014 29.3613C43.403 29.3559 43.4084 29.3512 43.4123 29.3462Z" fill="#8F8F8F"/>
<path d="M43.7143 28.1162C43.6448 28.1549 43.5686 28.1604 43.4912 28.1611C43.5502 28.0704 43.6225 28.0452 43.7143 28.1162Z" fill="#919191"/>
<path d="M42.8242 28.5854C42.8669 28.6828 42.8502 28.7471 42.8436 28.8437C42.801 28.7464 42.8176 28.682 42.8242 28.5854Z" fill="#8C8C8C"/>
<path fill-rule="evenodd" clip-rule="evenodd" d="M29.7689 25.6391C28.6858 25.6678 27.8215 26.5587 27.8172 27.6506C27.8445 27.7785 27.8422 27.9061 27.8184 28.0348C27.8025 28.1285 27.8226 28.2192 27.8425 28.3089C27.8475 28.3317 27.8526 28.3544 27.857 28.3772C27.9989 29.1026 28.3896 29.6311 29.1019 29.899C29.4122 29.9684 29.7217 30.0328 30.0448 30.0172C30.0839 30.0154 30.123 30.0119 30.1622 30.0084C30.2642 29.9993 30.3667 29.9901 30.4692 30.0103C31.0346 29.925 31.4796 29.6419 31.7934 29.1736C32.1693 28.6121 32.238 27.9848 32.1294 27.3342C32.0603 26.9197 31.9102 26.5382 31.5812 26.2493C31.5206 26.23 31.4655 26.2047 31.4573 26.1311C31.1002 25.8054 30.6677 25.6701 30.1941 25.6387C30.0522 25.6627 29.9108 25.6615 29.7689 25.6391ZM30.843 28.7634C31.011 28.4772 31.0876 28.1686 31.0575 27.8305C31.0876 27.504 31.0082 27.197 30.8324 26.9143C30.612 26.5607 30.2893 26.4083 29.8755 26.4514C29.4757 26.4929 29.2026 26.7123 29.0584 27.0776C28.8502 27.6049 28.8631 28.1411 29.078 28.6602C29.2413 29.0553 29.5656 29.2488 29.9986 29.2542C30.3788 29.2589 30.655 29.0836 30.843 28.7634Z" fill="#939393"/>
<path d="M31.1055 28.1511C31.1055 27.9483 31.1055 27.7452 31.1055 27.5424C31.1109 27.5424 31.1159 27.542 31.1214 27.542C31.1214 27.7452 31.1214 27.9479 31.1214 28.1511C31.1159 28.1507 31.1109 28.1511 31.1055 28.1511Z" fill="#8A8A8A"/>
</g>
<rect x="0.5" y="0.5" width="59" height="59" rx="29.5" stroke="#E4E4E7"/>
<defs>
<clipPath id="clip0_2251_45983">
<rect width="60" height="60" rx="30" fill="white"/>
</clipPath>
</defs>
</svg>
