<svg width="88" height="104" viewBox="0 0 88 104" fill="none" xmlns="http://www.w3.org/2000/svg">
<path d="M77.7554 84.7914C77.1955 88.9575 74.3919 92.56 70.4685 94.1615C68.5459 94.9603 66.4629 95.203 64.3798 94.9603C62.3789 94.7214 60.3742 94.0793 58.2949 92.881C55.4129 91.2758 52.5273 88.797 49.1638 85.1125C54.4498 78.6244 57.6528 72.7 58.8548 67.4139C59.4148 64.9314 59.4969 62.6878 59.2543 60.6048C58.9332 58.6038 58.2128 56.7597 57.0928 55.1582C54.6103 51.5558 50.4442 49.4727 45.8003 49.4727C41.1563 49.4727 36.9902 51.6342 34.5077 55.1582C33.3877 56.7597 32.6673 58.6038 32.3462 60.6048C32.0252 62.6878 32.1073 65.0098 32.7457 67.4139C33.9477 72.7 37.2291 78.7065 42.4367 85.1909C39.1516 88.8754 36.1913 91.3579 33.3056 92.9594C31.2226 94.1615 29.2216 94.8035 27.2207 95.0425C25.1563 95.2739 23.0695 94.9977 21.1358 94.2436C17.2123 92.6421 14.4087 89.0359 13.8488 84.8735C13.6099 82.8726 13.7704 80.8717 14.5693 78.6281C14.8082 77.8255 15.2114 77.0266 15.6108 76.0672C16.1708 74.7867 16.8129 73.4242 17.4512 72.0616L17.5333 71.9011C23.0583 59.9664 28.9864 47.7928 35.1535 35.9403L35.3924 35.4587C36.0345 34.2604 36.6729 32.9762 37.315 31.7741C37.957 30.4937 38.6775 29.2916 39.5585 28.2501C41.2422 26.3276 43.482 25.286 45.9645 25.286C48.447 25.286 50.6906 26.3276 52.3705 28.2501C53.2515 29.2916 53.972 30.4937 54.6141 31.7741C55.2562 32.9762 55.8945 34.2566 56.5366 35.455L56.7793 35.9365C62.8642 47.8675 68.7923 60.0411 74.3173 71.9757V72.0541C74.9594 73.3346 75.5193 74.7793 76.1577 76.0597C76.5571 77.0229 76.9603 77.8217 77.1992 78.6206C77.8376 80.7074 78.0765 82.7084 77.7554 84.7914ZM45.8003 81.0247C41.4773 75.5782 38.6738 70.4526 37.7107 66.1297C37.3112 64.2856 37.2291 62.6841 37.4717 61.2431C37.6323 59.9627 38.1138 58.839 38.7522 57.8796C40.2753 55.7182 42.8362 54.3556 45.8003 54.3556C48.7643 54.3556 51.4073 55.6398 52.8483 57.8796C53.4904 58.8427 53.9682 59.9627 54.1288 61.2431C54.3677 62.6841 54.2893 64.3677 53.8898 66.1297C52.9304 70.3742 50.1269 75.4998 45.8003 81.0247ZM81.9216 76.8623C81.5221 75.9029 81.119 74.8614 80.7195 73.9804C80.0774 72.5394 79.4391 71.1769 78.8754 69.8964L78.797 69.818C73.272 57.8049 67.3439 45.6314 61.0984 33.6183L60.8595 33.1367C60.2174 31.9347 59.5791 30.6542 58.937 29.3738C58.1344 27.9328 57.3355 26.4097 56.055 24.9687C53.4904 21.762 49.8059 20 45.8824 20C41.8768 20 38.2744 21.762 35.6276 24.8045C34.4255 26.2455 33.5445 27.7685 32.7457 29.2095C32.1036 30.49 31.4652 31.7704 30.8231 32.9725L30.5842 33.4503C24.4171 45.4634 18.4106 57.637 12.8857 69.65L12.8073 69.8105C12.2473 71.091 11.6052 72.4536 10.9631 73.8945C10.5338 74.8427 10.1344 75.8059 9.76106 76.7765C8.71953 79.7406 8.39848 82.5441 8.79792 85.426C9.67893 91.4326 13.6845 96.4797 19.2095 98.7196C21.2926 99.6006 23.454 100 25.6976 100C26.3397 100 27.1386 99.9216 27.7807 99.8395C30.4237 99.5184 33.1451 98.6412 35.7881 97.1181C39.0732 95.2776 42.1941 92.6346 45.7181 88.7895C49.2422 92.6346 52.4451 95.2776 55.6481 97.1181C58.2912 98.6412 61.0126 99.5184 63.6556 99.8395C64.2977 99.9216 65.0966 100 65.7387 100C67.9822 100 70.2221 99.6006 72.2268 98.7196C77.8338 96.476 81.7573 91.3504 82.6383 85.426C83.2804 82.6262 82.9594 79.8264 81.9216 76.8623Z" fill="#E0565B"/>
</svg>
