<svg width="268" height="140" viewBox="0 0 268 140" fill="none" xmlns="http://www.w3.org/2000/svg">
<path d="M0.0507977 52.7619C33.6636 39.1368 65.2344 18.3451 88.8971 3.62149e-06M20.1079 140C80.5931 107.875 98.0035 59.2381 112.585 3.80457e-06M1.08431e-06 81.0649C0.0169344 81.0581 0.0338664 81.0514 0.0507972 81.0446C44.2822 63.4263 80.1228 28.3939 102.557 3.72707e-06M80.3412 140C123.356 85.8173 122.167 52.7619 123.356 3.88783e-06M237.763 140C223.361 55.1923 191.207 17.5 167.796 4.2313e-06M192.384 140C196.259 50.8173 166.57 13.4615 148.767 4.08423e-06M133.509 140C145.124 117.788 145.647 53.5096 136.826 3.99194e-06M267.2 140C247.636 38.3654 215.656 16.572 185.192 4.36576e-06M267.2 27.3745C250.588 18.3882 228.366 8.74203 206.336 4.52918e-06M267.2 3.67611C263.13 2.45223 258.862 1.22473 254.443 4.90101e-06M0.0507983 23.2381C22.5151 19.5578 47.3152 10.2348 69.3132 3.47012e-06" stroke="url(#paint0_linear_2999_2064)"/>
<defs>
<linearGradient id="paint0_linear_2999_2064" x1="8.35" y1="-1.2667e-05" x2="190.657" y2="47.1053" gradientUnits="userSpaceOnUse">
<stop stop-color="#1E87FB"/>
<stop offset="1" stop-color="#1E87FB" stop-opacity="0"/>
</linearGradient>
</defs>
</svg>
