<svg width="88" height="104" viewBox="0 0 88 104" fill="none" xmlns="http://www.w3.org/2000/svg">
<path d="M42.3406 108C35.3641 108 29.5118 106.765 24.7839 104.295C20.1136 101.768 16.5677 98.4561 14.146 94.3579C11.7821 90.2597 10.6001 85.7684 10.6001 80.8842C10.6001 76.1123 11.5226 71.986 13.3677 68.5053C15.2704 64.9684 17.9226 62.0491 21.3244 59.7474C24.7262 57.3895 28.7911 55.5368 33.519 54.1895C37.9587 53.0105 42.9172 52 48.3947 51.1579C53.9298 50.2597 59.5226 49.4456 65.1731 48.7158C69.0523 48.2147 72.7549 47.7269 76.2808 47.2523C77.272 47.1189 77.7213 48.4562 76.8497 48.9468C76.238 49.2912 75.4815 48.8386 75.475 48.1366C75.4067 40.8538 73.7313 35.4048 70.4487 31.7895C66.9893 27.9158 60.9929 25.9789 52.4596 25.9789C46.8091 25.9789 41.8505 27.2421 37.5839 29.7684C33.8568 31.9557 31.1018 35.3756 29.3187 40.028C28.9271 41.0499 27.8318 41.6467 26.7818 41.3382L15.9577 38.1577C14.9061 37.8487 14.2939 36.7481 14.6432 35.7091C17.0223 28.6319 21.1809 23.0026 27.119 18.8211C33.5767 14.2737 42.0812 12 52.6325 12C61.1082 12 68.3731 13.4877 74.4271 16.4632C80.5388 19.3825 84.9208 23.8175 87.5731 29.7684C88.8992 32.5754 89.7352 35.6351 90.0812 38.9474C90.4271 42.2035 90.6001 45.6281 90.6001 49.2211V103.474C90.6001 104.578 89.7047 105.474 88.6001 105.474H78.9352C77.8307 105.474 76.9352 104.578 76.9352 103.474V86.2032C76.9352 85.1006 78.1506 84.4307 79.0828 85.0195C79.683 85.3986 79.9063 86.1685 79.5834 86.8007C76.1092 93.6035 71.3634 98.7892 65.3461 102.358C59.0614 106.119 51.3929 108 42.3406 108ZM44.6758 95.4526C50.2109 95.4526 54.9965 94.4982 59.0325 92.5895C63.1262 90.6246 66.4127 88.0702 68.892 84.9263C71.3713 81.7263 72.9857 78.2456 73.7352 74.4842C74.6001 71.6772 75.0614 68.5614 75.119 65.1368C75.2028 62.6084 75.2561 60.5096 75.2791 58.8402C75.2901 58.0322 76.1167 57.4865 76.8607 57.802C77.9174 58.2501 77.7078 59.8046 76.5699 59.9554C72.9558 60.4342 69.3875 60.8982 65.865 61.3474C61.0217 61.9649 56.4379 62.6386 52.1136 63.3684C47.7893 64.0421 43.8974 64.8561 40.4379 65.8105C37.901 66.5965 35.5082 67.607 33.2596 68.8421C31.0686 70.0772 29.2812 71.6772 27.8974 73.6421C26.5713 75.5509 25.9082 77.9368 25.9082 80.8C25.9082 83.2702 26.5424 85.6281 27.8109 87.8737C29.137 90.1193 31.1551 91.9439 33.865 93.3474C36.6325 94.7509 40.2361 95.4526 44.6758 95.4526Z" fill="#4A87A8"/>
</svg>
