<svg width="321" height="461" viewBox="0 0 321 461" fill="none" xmlns="http://www.w3.org/2000/svg">
<path d="M0.0608212 173.361C40.3157 128.592 78.125 60.2766 106.464 3.86834e-06M-2.12657e-06 411.35C72.4373 305.798 114.744 127.843 134.832 2.62833e-06M-8.46445e-06 266.356C0.0202709 266.334 0.0405488 266.312 0.0608252 266.29C53.0326 208.401 95.9554 93.2943 122.823 3.15324e-06M70.2391 460C127.696 344.347 145.314 142.259 147.732 2.06443e-06M296.973 460C308.47 280.315 253.675 110.937 200.953 -2.6194e-07M217.146 460C241.813 303.448 211.59 122.442 178.164 7.34193e-07M146.308 460C176.166 331.265 195.095 208.226 163.864 1.3593e-06M320 194.639C295.553 122.159 258.271 54.4508 221.787 -1.17259e-06M320 89.9446C300.105 60.4182 273.493 28.7238 247.108 -2.27945e-06M320 12.0786C315.125 8.05733 310.014 4.02409 304.722 -4.79781e-06M0.0608169 76.3538C26.9642 64.2613 56.6649 33.6288 83.0098 4.89353e-06" stroke="url(#paint0_linear_2884_156760)"/>
<defs>
<linearGradient id="paint0_linear_2884_156760" x1="160" y1="-0.179722" x2="160" y2="452.017" gradientUnits="userSpaceOnUse">
<stop stop-color="#087CFC"/>
<stop offset="1" stop-color="#1E87FB" stop-opacity="0"/>
</linearGradient>
</defs>
</svg>
