<svg width="268" height="140" viewBox="0 0 268 140" fill="none" xmlns="http://www.w3.org/2000/svg">
<path d="M0.250993 52.7619C33.8638 39.1368 65.4346 18.3451 89.0973 3.62149e-06M20.3081 140C80.7933 107.875 98.2037 59.2381 112.785 3.80457e-06M0.200196 81.0649C0.21713 81.0581 0.234062 81.0514 0.250993 81.0446C44.4824 63.4263 80.323 28.3939 102.758 3.72707e-06M80.5414 140C123.557 85.8173 122.367 52.7619 123.557 3.88783e-06M237.963 140C223.561 55.1923 191.407 17.5 167.996 4.2313e-06M192.584 140C196.459 50.8173 166.77 13.4615 148.967 4.08423e-06M133.71 140C145.324 117.788 145.847 53.5096 137.026 3.99194e-06M267.4 140C247.836 38.3654 215.856 16.572 185.392 4.36576e-06M267.4 27.3745C250.788 18.3882 228.567 8.74203 206.536 4.52918e-06M267.4 3.67611C263.33 2.45223 259.062 1.22473 254.643 4.90101e-06M0.250994 23.2381C22.7153 19.5578 47.5154 10.2348 69.5134 3.47012e-06" stroke="url(#paint0_linear_2132_156074)"/>
<defs>
<linearGradient id="paint0_linear_2132_156074" x1="-181.449" y1="-126.875" x2="257.391" y2="15.6947" gradientUnits="userSpaceOnUse">
<stop stop-color="#CECECE"/>
<stop offset="1" stop-color="#CECECE" stop-opacity="0"/>
</linearGradient>
</defs>
</svg>
