<svg width="355" height="140" viewBox="0 0 355 140" fill="none" xmlns="http://www.w3.org/2000/svg">
<path d="M0.0674894 52.7619C44.7253 39.1368 86.6699 18.3451 118.108 3.65392e-06M26.7153 140C107.075 107.875 130.207 59.2381 149.579 3.84564e-06M1.37568e-06 81.0649C0.0224988 81.0581 0.0449946 81.0514 0.0674887 81.0446C58.833 63.4263 106.451 28.3939 136.257 3.76448e-06M106.741 140C163.89 85.8173 162.31 52.7619 163.89 3.93283e-06M315.89 140C296.756 55.1923 254.036 17.5 222.933 4.29252e-06M255.6 140C260.748 50.8173 221.303 13.4615 197.651 4.1385e-06M177.38 140C192.81 117.788 193.505 53.5096 181.786 4.04185e-06M355 140C329.007 38.3654 286.519 16.572 246.044 4.43331e-06M355 27.3745C332.929 18.3882 303.406 8.74203 274.136 4.60445e-06M355 3.67611C349.592 2.45223 343.922 1.22473 338.051 4.99382e-06M0.0674901 23.2381C29.9134 19.5578 62.8627 10.2348 92.089 3.49541e-06" stroke="url(#paint0_linear_3069_153388)"/>
<defs>
<linearGradient id="paint0_linear_3069_153388" x1="-241.338" y1="-126.875" x2="302.011" y2="107.651" gradientUnits="userSpaceOnUse">
<stop stop-color="white"/>
<stop offset="1" stop-color="#DEDEDE" stop-opacity="0"/>
</linearGradient>
</defs>
</svg>
