<svg width="616" height="500" viewBox="0 0 616 500" fill="none" xmlns="http://www.w3.org/2000/svg">
<path opacity="0.4" d="M333.094 363.995C375.86 319.126 489.622 220.037 615.883 166.678M333.094 363.995C368.315 299.257 480.79 151.112 615.883 98.7001C615.922 98.6839 615.961 98.6677 616 98.6515M333.094 363.995C352.375 280.796 435.705 92.4212 616 -7.41205M333.094 363.995C323.808 270.706 341.383 63.6306 480.79 -43M333.094 363.995C222.671 302.576 14.0448 136.845 44.3273 -43M333.094 363.995C256.383 289.954 135.409 107.939 197.995 -43M333.094 363.995C230.302 167.226 268.533 64.845 334.358 -43M333.094 363.995C240.012 325.8 82.2613 243.79 -2.28786e-05 151.112M333.094 363.995C324.202 363.995 109.372 289.379 -2.62263e-05 227.697M333.094 363.995C258.51 349.814 102.277 316.717 -2.8716e-05 284.657M333.094 363.995C235.028 356.976 129.642 351.177 -3.08833e-05 334.237M333.094 363.995C260.309 370.252 91.7925 382.857 -3.30245e-05 383.223M333.094 363.995C278.367 380.477 135.131 417.01 -3.51257e-05 431.294M333.094 363.995C280.374 392.99 139.947 456.473 -3.71869e-05 478.448M333.094 363.995C269.138 414.202 113.992 507.748 -3.95283e-05 532.012M333.094 363.995C302.997 411.913 226.432 516.264 151.312 543M333.094 363.995C349.547 395.432 341.521 475.244 307.813 543M333.094 363.995C370.413 394.516 447.701 473.046 458.295 543M333.094 363.995C405.743 396.334 558.257 473.992 609.819 535.217M333.094 363.995C408.457 378.34 570.524 416.552 615.883 454.642M333.094 363.995C393.61 363.69 534.89 368.482 615.883 390.091M333.094 363.995C389.998 353.008 526.222 331.582 615.883 333.78M333.094 363.995C340.317 362.625 485.749 298.07 615.883 293.492M333.094 363.995C383.578 329.354 510.813 255.585 615.883 237.639" stroke="url(#paint0_linear_4220_159569)"/>
<defs>
<linearGradient id="paint0_linear_4220_159569" x1="27.6508" y1="-5.08628" x2="518.33" y2="609.616" gradientUnits="userSpaceOnUse">
<stop stop-color="#D8D8D8"/>
<stop offset="1" stop-color="#E9E9E9" stop-opacity="0"/>
</linearGradient>
</defs>
</svg>
