<svg width="260" height="247" viewBox="0 0 260 247" fill="none" xmlns="http://www.w3.org/2000/svg">
<circle cx="141.473" cy="129" r="115.932" fill="#FAFAFA" stroke="#E4E4E7" stroke-width="4.13592"/>
<circle cx="141.473" cy="129" r="115.932" stroke="#E4E4E7" stroke-width="4.13592"/>
<path d="M127.034 57.8696C145.836 31.3744 157.509 7.36261 153.106 4.23775L148.061 0.657504C143.657 -2.46746 124.845 16.478 106.043 42.9731C87.241 69.4683 75.5685 93.4799 79.972 96.6049L85.0171 100.185C89.4205 103.31 108.232 84.3647 127.034 57.8696Z" fill="#E4E4E7"/>
<path d="M147.627 1.27163C147.909 1.47216 148.168 1.91418 148.228 2.82365C148.286 3.72081 148.137 4.93336 147.761 6.45211C147.011 9.48177 145.403 13.5496 143.053 18.3842C138.358 28.0424 130.763 40.6331 121.379 53.8577C111.994 67.0824 102.617 78.4083 95.0501 86.0286C91.2625 89.8431 87.9536 92.7036 85.3415 94.4121C84.0321 95.2685 82.9367 95.8094 82.0706 96.0505C81.1926 96.2949 80.6898 96.1962 80.4072 95.9957C80.1247 95.7952 79.8656 95.3532 79.8064 94.4437C79.748 93.5465 79.8969 92.334 80.273 90.8152C81.0233 87.7856 82.6309 83.7178 84.981 78.8832C89.6759 69.225 97.2708 56.6342 106.655 43.4096C116.04 30.1849 125.417 18.8591 132.984 11.2387C136.771 7.42421 140.08 4.56373 142.692 2.85527C144.002 1.99883 145.097 1.45797 145.963 1.21687C146.841 0.972456 147.344 1.0711 147.627 1.27163Z" fill="#FAFAFA" stroke="#A1A1AA" stroke-width="1.5"/>
<path d="M117.358 35.1233C117.773 35.418 118.039 35.9196 118.098 36.7175C118.157 37.5265 117.992 38.5622 117.611 39.7659C116.852 42.1669 115.298 45.0422 113.399 47.7175C111.501 50.3927 109.3 52.8091 107.284 54.3186C106.274 55.0754 105.351 55.5732 104.567 55.7842C103.795 55.9924 103.233 55.9063 102.818 55.6117C98.0009 52.1931 97.156 44.8191 101.228 39.0803C105.301 33.3416 112.54 31.7047 117.358 35.1233Z" fill="#E4E4E7" stroke="#71717A" stroke-width="1.5"/>
<path d="M94.5 232L81.7148 116.742H197.366L186 233" stroke="#A1A1AA" stroke-width="1.5" stroke-linecap="round"/>
<path d="M197.616 116.738C197.616 117.084 197.405 117.551 196.698 118.126C196 118.693 194.925 119.273 193.469 119.845C190.564 120.987 186.316 122.03 181.013 122.911C170.42 124.672 155.756 125.765 139.54 125.765C123.324 125.765 108.661 124.672 98.0674 122.911C92.7646 122.03 88.5169 120.987 85.6119 119.845C84.1557 119.273 83.0807 118.693 82.3828 118.126C81.6754 117.551 81.4648 117.084 81.4648 116.738C81.4648 116.391 81.6754 115.924 82.3828 115.35C83.0807 114.783 84.1557 114.202 85.6119 113.63C88.5169 112.489 92.7646 111.446 98.0674 110.564C108.661 108.804 123.324 107.711 139.54 107.711C155.756 107.711 170.42 108.804 181.013 110.564C186.316 111.446 190.564 112.489 193.469 113.63C194.925 114.202 196 114.783 196.698 115.35C197.405 115.924 197.616 116.391 197.616 116.738Z" fill="#E4E4E7" stroke="#A1A1AA" stroke-width="1.5"/>
<path d="M144 242V145.509C144 144.676 143.469 144 142.813 144H140.187C139.531 144 139 144.676 139 145.509V242" stroke="#A1A1AA" stroke-width="1.5" stroke-linecap="round"/>
<path d="M169.512 238.397L171.998 147.056C172.033 145.766 171.65 144.648 171.144 144.56L167.971 144.006C167.465 143.917 167.026 144.891 166.992 146.181L164.452 239.5M111.474 237.851L109.002 147.056C108.967 145.766 109.35 144.648 109.856 144.56L113.029 144.006C113.535 143.917 113.974 144.891 114.008 146.181L116.537 239.091" stroke="#A1A1AA" stroke-width="1.5" stroke-linecap="round" stroke-linejoin="round"/>
<path d="M154.454 66.8998C157.048 59.8673 164.882 56.2552 171.915 58.8493C178.947 61.4433 182.559 69.2777 179.965 76.3102C177.371 83.3426 169.537 86.9547 162.504 84.3607C155.472 81.7666 151.86 73.9322 154.454 66.8998ZM130.577 96.7215C133.747 88.1278 143.323 83.7127 151.917 86.8827L168.918 93.1539C177.512 96.3239 181.927 105.9 178.757 114.494C177.315 118.403 172.963 120.41 169.054 118.967L135.051 106.425C131.141 104.983 129.135 100.631 130.577 96.7215Z" fill="#E2E8F0" stroke="#94A3B8" stroke-width="1.5"/>
</svg>
