<svg width="700" height="302" viewBox="0 0 700 302" fill="none" xmlns="http://www.w3.org/2000/svg">
<path d="M0.217282 113.815C144.003 84.4237 279.053 39.5729 380.275 -4.71399e-05M-1.39614e-06 270.06C258.737 200.763 409.853 83.932 481.602 -5.15691e-05M-5.5571e-06 174.868C0.0724298 174.854 0.14486 174.839 0.217285 174.825C189.426 136.82 342.741 61.2497 438.709 -4.96942e-05M250.885 302C456.114 226.072 519.044 93.3964 527.681 -5.35833e-05M1060.75 302C1101.82 184.033 906.096 72.8323 717.78 -6.18927e-05M534.5 302C622.608 199.22 660 113.815 636.381 -5.83347e-05M422.593 302C529.244 217.483 565.617 168.5 585.301 -5.61019e-05M1143 127.785C1055.68 80.1999 922.51 35.748 792.194 -6.51455e-05M1143 59.0505C1071.94 39.6658 976.882 18.8577 882.641 -6.9099e-05M1143 7.92982C1125.59 5.28974 1107.33 2.64182 1088.43 -7.80943e-05M0.217279 50.1278C96.3127 42.1889 202.4 22.078 296.501 -4.3478e-05" stroke="url(#paint0_linear_1339_158930)"/>
<defs>
<linearGradient id="paint0_linear_1339_158930" x1="-777.039" y1="-273.688" x2="689.59" y2="671.182" gradientUnits="userSpaceOnUse">
<stop stop-color="#CECECE" stop-opacity="0.5"/>
<stop offset="1" stop-color="#CECECE" stop-opacity="0"/>
</linearGradient>
</defs>
</svg>
