<svg width="725" height="300" viewBox="0 0 725 300" fill="none" xmlns="http://www.w3.org/2000/svg">
<rect width="434" height="260" transform="translate(55 20)" fill="white"/>
<path d="M66.2306 56.21C65.5866 56.21 65.0173 56.0817 64.5226 55.825C64.0279 55.5637 63.6406 55.202 63.3606 54.74C63.0806 54.278 62.9406 53.739 62.9406 53.123C62.9406 52.521 63.0829 51.9773 63.3676 51.492C63.6569 51.0067 64.0909 50.6333 64.6696 50.372L64.6486 50.827C64.1773 50.5983 63.8156 50.2763 63.5636 49.861C63.3116 49.441 63.1856 48.9767 63.1856 48.468C63.1856 47.8987 63.3163 47.4087 63.5776 46.998C63.8389 46.5873 64.1983 46.27 64.6556 46.046C65.1129 45.822 65.6379 45.71 66.2306 45.71C66.8233 45.71 67.3483 45.822 67.8056 46.046C68.2629 46.27 68.6223 46.5873 68.8836 46.998C69.1449 47.4087 69.2756 47.8987 69.2756 48.468C69.2756 48.9767 69.1566 49.4387 68.9186 49.854C68.6806 50.2647 68.3143 50.589 67.8196 50.827L67.7916 50.379C68.3703 50.631 68.8043 51.002 69.0936 51.492C69.3876 51.9773 69.5346 52.521 69.5346 53.123C69.5346 53.739 69.3923 54.278 69.1076 54.74C68.8276 55.202 68.4379 55.5637 67.9386 55.825C67.4439 56.0817 66.8746 56.21 66.2306 56.21ZM66.2306 55.02C66.8186 55.02 67.2946 54.859 67.6586 54.537C68.0273 54.2103 68.2116 53.739 68.2116 53.123C68.2116 52.5023 68.0296 52.031 67.6656 51.709C67.3063 51.3823 66.8279 51.219 66.2306 51.219C65.6379 51.219 65.1596 51.3823 64.7956 51.709C64.4363 52.031 64.2566 52.5023 64.2566 53.123C64.2566 53.739 64.4386 54.2103 64.8026 54.537C65.1666 54.859 65.6426 55.02 66.2306 55.02ZM66.2306 50.022C66.7439 50.022 67.1593 49.8937 67.4766 49.637C67.7939 49.3757 67.9526 48.986 67.9526 48.468C67.9526 47.95 67.7939 47.5627 67.4766 47.306C67.1593 47.0447 66.7439 46.914 66.2306 46.914C65.7219 46.914 65.3066 47.0447 64.9846 47.306C64.6673 47.5627 64.5086 47.95 64.5086 48.468C64.5086 48.986 64.6673 49.3757 64.9846 49.637C65.3066 49.8937 65.7219 50.022 66.2306 50.022ZM74.7541 56.21C74.1007 56.21 73.5174 56.063 73.0041 55.769C72.4954 55.4703 72.0917 55.0667 71.7931 54.558C71.4991 54.0447 71.3521 53.4613 71.3521 52.808V49.112C71.3521 48.4587 71.4991 47.8753 71.7931 47.362C72.0917 46.8487 72.4954 46.445 73.0041 46.151C73.5174 45.857 74.1007 45.71 74.7541 45.71C75.4074 45.71 75.9907 45.857 76.5041 46.151C77.0174 46.445 77.4211 46.8487 77.7151 47.362C78.0091 47.8753 78.1561 48.4587 78.1561 49.112V52.808C78.1561 53.4613 78.0091 54.0447 77.7151 54.558C77.4211 55.0667 77.0174 55.4703 76.5041 55.769C75.9907 56.063 75.4074 56.21 74.7541 56.21ZM74.7541 55.013C75.1507 55.013 75.5101 54.9173 75.8321 54.726C76.1541 54.5347 76.4107 54.278 76.6021 53.956C76.7934 53.6293 76.8891 53.27 76.8891 52.878V49.035C76.8891 48.6383 76.7934 48.279 76.6021 47.957C76.4107 47.635 76.1541 47.3783 75.8321 47.187C75.5101 46.9957 75.1507 46.9 74.7541 46.9C74.3621 46.9 74.0027 46.9957 73.6761 47.187C73.3541 47.3783 73.0974 47.635 72.9061 47.957C72.7147 48.279 72.6191 48.6383 72.6191 49.035V52.878C72.6191 53.27 72.7147 53.6293 72.9061 53.956C73.0974 54.278 73.3541 54.5347 73.6761 54.726C74.0027 54.9173 74.3621 55.013 74.7541 55.013ZM83.5177 56.21C82.8644 56.21 82.2811 56.063 81.7677 55.769C81.2591 55.4703 80.8554 55.0667 80.5567 54.558C80.2627 54.0447 80.1157 53.4613 80.1157 52.808V49.112C80.1157 48.4587 80.2627 47.8753 80.5567 47.362C80.8554 46.8487 81.2591 46.445 81.7677 46.151C82.2811 45.857 82.8644 45.71 83.5177 45.71C84.1711 45.71 84.7544 45.857 85.2677 46.151C85.7811 46.445 86.1847 46.8487 86.4787 47.362C86.7727 47.8753 86.9197 48.4587 86.9197 49.112V52.808C86.9197 53.4613 86.7727 54.0447 86.4787 54.558C86.1847 55.0667 85.7811 55.4703 85.2677 55.769C84.7544 56.063 84.1711 56.21 83.5177 56.21ZM83.5177 55.013C83.9144 55.013 84.2737 54.9173 84.5957 54.726C84.9177 54.5347 85.1744 54.278 85.3657 53.956C85.5571 53.6293 85.6527 53.27 85.6527 52.878V49.035C85.6527 48.6383 85.5571 48.279 85.3657 47.957C85.1744 47.635 84.9177 47.3783 84.5957 47.187C84.2737 46.9957 83.9144 46.9 83.5177 46.9C83.1257 46.9 82.7664 46.9957 82.4397 47.187C82.1177 47.3783 81.8611 47.635 81.6697 47.957C81.4784 48.279 81.3827 48.6383 81.3827 49.035V52.878C81.3827 53.27 81.4784 53.6293 81.6697 53.956C81.8611 54.278 82.1177 54.5347 82.4397 54.726C82.7664 54.9173 83.1257 55.013 83.5177 55.013Z" fill="#71717A"/>
<path d="M103 51H489" stroke="#F4F4F5"/>
<path d="M66.3057 102.21C65.6663 102.21 65.0853 102.056 64.5627 101.748C64.0447 101.44 63.6317 101.02 63.3237 100.488C63.0203 99.9513 62.8687 99.347 62.8687 98.675V95.322C62.8687 94.6173 63.0203 93.9943 63.3237 93.453C63.6317 92.907 64.0517 92.4823 64.5837 92.179C65.1203 91.871 65.7317 91.717 66.4177 91.717C66.973 91.717 67.4887 91.8313 67.9647 92.06C68.4453 92.284 68.849 92.6083 69.1757 93.033L68.2447 93.859C68.044 93.565 67.7827 93.3317 67.4607 93.159C67.1387 92.9863 66.791 92.9 66.4177 92.9C65.9743 92.9 65.58 93.0073 65.2347 93.222C64.894 93.432 64.6257 93.712 64.4297 94.062C64.2337 94.4073 64.1357 94.7807 64.1357 95.182V97.205L63.8627 96.897C64.1567 96.477 64.53 96.141 64.9827 95.889C65.4353 95.637 65.9253 95.511 66.4527 95.511C67.078 95.511 67.638 95.658 68.1327 95.952C68.632 96.246 69.024 96.645 69.3087 97.149C69.598 97.6483 69.7427 98.2107 69.7427 98.836C69.7427 99.4613 69.5863 100.028 69.2737 100.537C68.961 101.046 68.5433 101.452 68.0207 101.755C67.5027 102.058 66.931 102.21 66.3057 102.21ZM66.3057 101.006C66.707 101.006 67.0733 100.91 67.4047 100.719C67.736 100.523 67.9973 100.262 68.1887 99.935C68.3847 99.6037 68.4827 99.2373 68.4827 98.836C68.4827 98.4347 68.3847 98.0683 68.1887 97.737C67.9973 97.4057 67.736 97.1443 67.4047 96.953C67.078 96.757 66.714 96.659 66.3127 96.659C65.9113 96.659 65.545 96.757 65.2137 96.953C64.887 97.1443 64.6257 97.4057 64.4297 97.737C64.2337 98.0683 64.1357 98.4347 64.1357 98.836C64.1357 99.2327 64.2313 99.5967 64.4227 99.928C64.6187 100.255 64.88 100.516 65.2067 100.712C65.538 100.908 65.9043 101.006 66.3057 101.006ZM74.966 102.21C74.3127 102.21 73.7293 102.063 73.216 101.769C72.7073 101.47 72.3037 101.067 72.005 100.558C71.711 100.045 71.564 99.4613 71.564 98.808V95.112C71.564 94.4587 71.711 93.8753 72.005 93.362C72.3037 92.8487 72.7073 92.445 73.216 92.151C73.7293 91.857 74.3127 91.71 74.966 91.71C75.6193 91.71 76.2027 91.857 76.716 92.151C77.2293 92.445 77.633 92.8487 77.927 93.362C78.221 93.8753 78.368 94.4587 78.368 95.112V98.808C78.368 99.4613 78.221 100.045 77.927 100.558C77.633 101.067 77.2293 101.47 76.716 101.769C76.2027 102.063 75.6193 102.21 74.966 102.21ZM74.966 101.013C75.3627 101.013 75.722 100.917 76.044 100.726C76.366 100.535 76.6227 100.278 76.814 99.956C77.0053 99.6293 77.101 99.27 77.101 98.878V95.035C77.101 94.6383 77.0053 94.279 76.814 93.957C76.6227 93.635 76.366 93.3783 76.044 93.187C75.722 92.9957 75.3627 92.9 74.966 92.9C74.574 92.9 74.2147 92.9957 73.888 93.187C73.566 93.3783 73.3093 93.635 73.118 93.957C72.9267 94.279 72.831 94.6383 72.831 95.035V98.878C72.831 99.27 72.9267 99.6293 73.118 99.956C73.3093 100.278 73.566 100.535 73.888 100.726C74.2147 100.917 74.574 101.013 74.966 101.013ZM83.7297 102.21C83.0763 102.21 82.493 102.063 81.9797 101.769C81.471 101.47 81.0673 101.067 80.7687 100.558C80.4747 100.045 80.3277 99.4613 80.3277 98.808V95.112C80.3277 94.4587 80.4747 93.8753 80.7687 93.362C81.0673 92.8487 81.471 92.445 81.9797 92.151C82.493 91.857 83.0763 91.71 83.7297 91.71C84.383 91.71 84.9663 91.857 85.4797 92.151C85.993 92.445 86.3967 92.8487 86.6907 93.362C86.9847 93.8753 87.1317 94.4587 87.1317 95.112V98.808C87.1317 99.4613 86.9847 100.045 86.6907 100.558C86.3967 101.067 85.993 101.47 85.4797 101.769C84.9663 102.063 84.383 102.21 83.7297 102.21ZM83.7297 101.013C84.1263 101.013 84.4857 100.917 84.8077 100.726C85.1297 100.535 85.3863 100.278 85.5777 99.956C85.769 99.6293 85.8647 99.27 85.8647 98.878V95.035C85.8647 94.6383 85.769 94.279 85.5777 93.957C85.3863 93.635 85.1297 93.3783 84.8077 93.187C84.4857 92.9957 84.1263 92.9 83.7297 92.9C83.3377 92.9 82.9783 92.9957 82.6517 93.187C82.3297 93.3783 82.073 93.635 81.8817 93.957C81.6903 94.279 81.5947 94.6383 81.5947 95.035V98.878C81.5947 99.27 81.6903 99.6293 81.8817 99.956C82.073 100.278 82.3297 100.535 82.6517 100.726C82.9783 100.917 83.3377 101.013 83.7297 101.013Z" fill="#71717A"/>
<path d="M103 97H489" stroke="#F4F4F5"/>
<path d="M67.4004 148V146.145H62.7664V144.962L66.0914 137.92H67.5054L64.1804 144.962H67.4004V142.127H68.6604V144.962H69.7104V146.145H68.6604V148H67.4004ZM74.7883 148.21C74.1349 148.21 73.5516 148.063 73.0383 147.769C72.5296 147.47 72.1259 147.067 71.8273 146.558C71.5333 146.045 71.3863 145.461 71.3863 144.808V141.112C71.3863 140.459 71.5333 139.875 71.8273 139.362C72.1259 138.849 72.5296 138.445 73.0383 138.151C73.5516 137.857 74.1349 137.71 74.7883 137.71C75.4416 137.71 76.0249 137.857 76.5383 138.151C77.0516 138.445 77.4553 138.849 77.7493 139.362C78.0433 139.875 78.1903 140.459 78.1903 141.112V144.808C78.1903 145.461 78.0433 146.045 77.7493 146.558C77.4553 147.067 77.0516 147.47 76.5383 147.769C76.0249 148.063 75.4416 148.21 74.7883 148.21ZM74.7883 147.013C75.1849 147.013 75.5443 146.917 75.8663 146.726C76.1883 146.535 76.4449 146.278 76.6363 145.956C76.8276 145.629 76.9233 145.27 76.9233 144.878V141.035C76.9233 140.638 76.8276 140.279 76.6363 139.957C76.4449 139.635 76.1883 139.378 75.8663 139.187C75.5443 138.996 75.1849 138.9 74.7883 138.9C74.3963 138.9 74.0369 138.996 73.7103 139.187C73.3883 139.378 73.1316 139.635 72.9403 139.957C72.7489 140.279 72.6533 140.638 72.6533 141.035V144.878C72.6533 145.27 72.7489 145.629 72.9403 145.956C73.1316 146.278 73.3883 146.535 73.7103 146.726C74.0369 146.917 74.3963 147.013 74.7883 147.013ZM83.5519 148.21C82.8986 148.21 82.3153 148.063 81.8019 147.769C81.2933 147.47 80.8896 147.067 80.5909 146.558C80.2969 146.045 80.1499 145.461 80.1499 144.808V141.112C80.1499 140.459 80.2969 139.875 80.5909 139.362C80.8896 138.849 81.2933 138.445 81.8019 138.151C82.3153 137.857 82.8986 137.71 83.5519 137.71C84.2053 137.71 84.7886 137.857 85.3019 138.151C85.8153 138.445 86.2189 138.849 86.5129 139.362C86.8069 139.875 86.9539 140.459 86.9539 141.112V144.808C86.9539 145.461 86.8069 146.045 86.5129 146.558C86.2189 147.067 85.8153 147.47 85.3019 147.769C84.7886 148.063 84.2053 148.21 83.5519 148.21ZM83.5519 147.013C83.9486 147.013 84.3079 146.917 84.6299 146.726C84.9519 146.535 85.2086 146.278 85.3999 145.956C85.5913 145.629 85.6869 145.27 85.6869 144.878V141.035C85.6869 140.638 85.5913 140.279 85.3999 139.957C85.2086 139.635 84.9519 139.378 84.6299 139.187C84.3079 138.996 83.9486 138.9 83.5519 138.9C83.1599 138.9 82.8006 138.996 82.4739 139.187C82.1519 139.378 81.8953 139.635 81.7039 139.957C81.5126 140.279 81.4169 140.638 81.4169 141.035V144.878C81.4169 145.27 81.5126 145.629 81.7039 145.956C81.8953 146.278 82.1519 146.535 82.4739 146.726C82.8006 146.917 83.1599 147.013 83.5519 147.013Z" fill="#71717A"/>
<path d="M103 143H489" stroke="#F4F4F5"/>
<path d="M62.8895 193.993L62.8965 192.873L67.3695 188.848C67.7428 188.512 67.9925 188.195 68.1185 187.896C68.2491 187.593 68.3145 187.282 68.3145 186.965C68.3145 186.578 68.2258 186.228 68.0485 185.915C67.8711 185.602 67.6285 185.355 67.3205 185.173C67.0171 184.991 66.6718 184.9 66.2845 184.9C65.8831 184.9 65.5261 184.996 65.2135 185.187C64.9008 185.374 64.6535 185.623 64.4715 185.936C64.2941 186.249 64.2078 186.589 64.2125 186.958H62.9385C62.9385 186.323 63.0855 185.763 63.3795 185.278C63.6735 184.788 64.0725 184.405 64.5765 184.13C65.0851 183.85 65.6615 183.71 66.3055 183.71C66.9308 183.71 67.4908 183.855 67.9855 184.144C68.4801 184.429 68.8698 184.818 69.1545 185.313C69.4438 185.803 69.5885 186.358 69.5885 186.979C69.5885 187.418 69.5325 187.798 69.4205 188.12C69.3131 188.442 69.1451 188.741 68.9165 189.016C68.6878 189.287 68.4008 189.576 68.0555 189.884L64.3385 193.223L64.1775 192.803H69.5885V193.993H62.8895ZM74.6652 194.21C74.0119 194.21 73.4285 194.063 72.9152 193.769C72.4065 193.47 72.0029 193.067 71.7042 192.558C71.4102 192.045 71.2632 191.461 71.2632 190.808V187.112C71.2632 186.459 71.4102 185.875 71.7042 185.362C72.0029 184.849 72.4065 184.445 72.9152 184.151C73.4285 183.857 74.0119 183.71 74.6652 183.71C75.3185 183.71 75.9019 183.857 76.4152 184.151C76.9285 184.445 77.3322 184.849 77.6262 185.362C77.9202 185.875 78.0672 186.459 78.0672 187.112V190.808C78.0672 191.461 77.9202 192.045 77.6262 192.558C77.3322 193.067 76.9285 193.47 76.4152 193.769C75.9019 194.063 75.3185 194.21 74.6652 194.21ZM74.6652 193.013C75.0619 193.013 75.4212 192.917 75.7432 192.726C76.0652 192.535 76.3219 192.278 76.5132 191.956C76.7045 191.629 76.8002 191.27 76.8002 190.878V187.035C76.8002 186.638 76.7045 186.279 76.5132 185.957C76.3219 185.635 76.0652 185.378 75.7432 185.187C75.4212 184.996 75.0619 184.9 74.6652 184.9C74.2732 184.9 73.9139 184.996 73.5872 185.187C73.2652 185.378 73.0085 185.635 72.8172 185.957C72.6259 186.279 72.5302 186.638 72.5302 187.035V190.878C72.5302 191.27 72.6259 191.629 72.8172 191.956C73.0085 192.278 73.2652 192.535 73.5872 192.726C73.9139 192.917 74.2732 193.013 74.6652 193.013ZM83.4289 194.21C82.7755 194.21 82.1922 194.063 81.6789 193.769C81.1702 193.47 80.7665 193.067 80.4679 192.558C80.1739 192.045 80.0269 191.461 80.0269 190.808V187.112C80.0269 186.459 80.1739 185.875 80.4679 185.362C80.7665 184.849 81.1702 184.445 81.6789 184.151C82.1922 183.857 82.7755 183.71 83.4289 183.71C84.0822 183.71 84.6655 183.857 85.1789 184.151C85.6922 184.445 86.0959 184.849 86.3899 185.362C86.6839 185.875 86.8309 186.459 86.8309 187.112V190.808C86.8309 191.461 86.6839 192.045 86.3899 192.558C86.0959 193.067 85.6922 193.47 85.1789 193.769C84.6655 194.063 84.0822 194.21 83.4289 194.21ZM83.4289 193.013C83.8255 193.013 84.1849 192.917 84.5069 192.726C84.8289 192.535 85.0855 192.278 85.2769 191.956C85.4682 191.629 85.5639 191.27 85.5639 190.878V187.035C85.5639 186.638 85.4682 186.279 85.2769 185.957C85.0855 185.635 84.8289 185.378 84.5069 185.187C84.1849 184.996 83.8255 184.9 83.4289 184.9C83.0369 184.9 82.6775 184.996 82.3509 185.187C82.0289 185.378 81.7722 185.635 81.5809 185.957C81.3895 186.279 81.2939 186.638 81.2939 187.035V190.878C81.2939 191.27 81.3895 191.629 81.5809 191.956C81.7722 192.278 82.0289 192.535 82.3509 192.726C82.6775 192.917 83.0369 193.013 83.4289 193.013Z" fill="#71717A"/>
<path d="M103 189H489" stroke="#F4F4F5"/>
<path d="M75.0002 240.21C74.3468 240.21 73.7635 240.063 73.2502 239.769C72.7415 239.47 72.3378 239.067 72.0392 238.558C71.7452 238.045 71.5982 237.461 71.5982 236.808V233.112C71.5982 232.459 71.7452 231.875 72.0392 231.362C72.3378 230.849 72.7415 230.445 73.2502 230.151C73.7635 229.857 74.3468 229.71 75.0002 229.71C75.6535 229.71 76.2368 229.857 76.7502 230.151C77.2635 230.445 77.6672 230.849 77.9612 231.362C78.2552 231.875 78.4022 232.459 78.4022 233.112V236.808C78.4022 237.461 78.2552 238.045 77.9612 238.558C77.6672 239.067 77.2635 239.47 76.7502 239.769C76.2368 240.063 75.6535 240.21 75.0002 240.21ZM75.0002 239.013C75.3968 239.013 75.7562 238.917 76.0782 238.726C76.4002 238.535 76.6568 238.278 76.8482 237.956C77.0395 237.629 77.1352 237.27 77.1352 236.878V233.035C77.1352 232.638 77.0395 232.279 76.8482 231.957C76.6568 231.635 76.4002 231.378 76.0782 231.187C75.7562 230.996 75.3968 230.9 75.0002 230.9C74.6082 230.9 74.2488 230.996 73.9222 231.187C73.6002 231.378 73.3435 231.635 73.1522 231.957C72.9608 232.279 72.8652 232.638 72.8652 233.035V236.878C72.8652 237.27 72.9608 237.629 73.1522 237.956C73.3435 238.278 73.6002 238.535 73.9222 238.726C74.2488 238.917 74.6082 239.013 75.0002 239.013Z" fill="#71717A"/>
<path d="M103 235H489" stroke="#F4F4F5"/>
<path d="M84.3605 274.21C83.7072 274.21 83.1238 274.063 82.6105 273.769C82.1018 273.47 81.6982 273.067 81.3995 272.558C81.1055 272.045 80.9585 271.461 80.9585 270.808V267.112C80.9585 266.459 81.1055 265.875 81.3995 265.362C81.6982 264.849 82.1018 264.445 82.6105 264.151C83.1238 263.857 83.7072 263.71 84.3605 263.71C85.0138 263.71 85.5972 263.857 86.1105 264.151C86.6238 264.445 87.0275 264.849 87.3215 265.362C87.6155 265.875 87.7625 266.459 87.7625 267.112V270.808C87.7625 271.461 87.6155 272.045 87.3215 272.558C87.0275 273.067 86.6238 273.47 86.1105 273.769C85.5972 274.063 85.0138 274.21 84.3605 274.21ZM84.3605 273.013C84.7572 273.013 85.1165 272.917 85.4385 272.726C85.7605 272.535 86.0172 272.278 86.2085 271.956C86.3998 271.629 86.4955 271.27 86.4955 270.878V267.035C86.4955 266.638 86.3998 266.279 86.2085 265.957C86.0172 265.635 85.7605 265.378 85.4385 265.187C85.1165 264.996 84.7572 264.9 84.3605 264.9C83.9685 264.9 83.6092 264.996 83.2825 265.187C82.9605 265.378 82.7038 265.635 82.5125 265.957C82.3212 266.279 82.2255 266.638 82.2255 267.035V270.878C82.2255 271.27 82.3212 271.629 82.5125 271.956C82.7038 272.278 82.9605 272.535 83.2825 272.726C83.6092 272.917 83.9685 273.013 84.3605 273.013ZM91.4792 274V265.299L89.5822 266.447V265.054L91.4792 263.92H92.7462V274H91.4792ZM97.9577 263.92H99.2247L96.5367 274H95.2697L97.9577 263.92ZM104.445 274.21C103.791 274.21 103.208 274.063 102.695 273.769C102.186 273.47 101.782 273.067 101.484 272.558C101.19 272.045 101.043 271.461 101.043 270.808V267.112C101.043 266.459 101.19 265.875 101.484 265.362C101.782 264.849 102.186 264.445 102.695 264.151C103.208 263.857 103.791 263.71 104.445 263.71C105.098 263.71 105.681 263.857 106.195 264.151C106.708 264.445 107.112 264.849 107.406 265.362C107.7 265.875 107.847 266.459 107.847 267.112V270.808C107.847 271.461 107.7 272.045 107.406 272.558C107.112 273.067 106.708 273.47 106.195 273.769C105.681 274.063 105.098 274.21 104.445 274.21ZM104.445 273.013C104.841 273.013 105.201 272.917 105.523 272.726C105.845 272.535 106.101 272.278 106.293 271.956C106.484 271.629 106.58 271.27 106.58 270.878V267.035C106.58 266.638 106.484 266.279 106.293 265.957C106.101 265.635 105.845 265.378 105.523 265.187C105.201 264.996 104.841 264.9 104.445 264.9C104.053 264.9 103.693 264.996 103.367 265.187C103.045 265.378 102.788 265.635 102.597 265.957C102.405 266.279 102.31 266.638 102.31 267.035V270.878C102.31 271.27 102.405 271.629 102.597 271.956C102.788 272.278 103.045 272.535 103.367 272.726C103.693 272.917 104.053 273.013 104.445 273.013ZM109.526 273.993L109.533 272.873L114.006 268.848C114.38 268.512 114.629 268.195 114.755 267.896C114.886 267.593 114.951 267.282 114.951 266.965C114.951 266.578 114.863 266.228 114.685 265.915C114.508 265.602 114.265 265.355 113.957 265.173C113.654 264.991 113.309 264.9 112.921 264.9C112.52 264.9 112.163 264.996 111.85 265.187C111.538 265.374 111.29 265.623 111.108 265.936C110.931 266.249 110.845 266.589 110.849 266.958H109.575C109.575 266.323 109.722 265.763 110.016 265.278C110.31 264.788 110.709 264.405 111.213 264.13C111.722 263.85 112.298 263.71 112.942 263.71C113.568 263.71 114.128 263.855 114.622 264.144C115.117 264.429 115.507 264.818 115.791 265.313C116.081 265.803 116.225 266.358 116.225 266.979C116.225 267.418 116.169 267.798 116.057 268.12C115.95 268.442 115.782 268.741 115.553 269.016C115.325 269.287 115.038 269.576 114.692 269.884L110.975 273.223L110.814 272.803H116.225V273.993H109.526ZM120.448 263.92H121.715L119.027 274H117.76L120.448 263.92ZM123.253 273.993L123.26 272.873L127.733 268.848C128.106 268.512 128.356 268.195 128.482 267.896C128.612 267.593 128.678 267.282 128.678 266.965C128.678 266.578 128.589 266.228 128.412 265.915C128.234 265.602 127.992 265.355 127.684 265.173C127.38 264.991 127.035 264.9 126.648 264.9C126.246 264.9 125.889 264.996 125.577 265.187C125.264 265.374 125.017 265.623 124.835 265.936C124.657 266.249 124.571 266.589 124.576 266.958H123.302C123.302 266.323 123.449 265.763 123.743 265.278C124.037 264.788 124.436 264.405 124.94 264.13C125.448 263.85 126.025 263.71 126.669 263.71C127.294 263.71 127.854 263.855 128.349 264.144C128.843 264.429 129.233 264.818 129.518 265.313C129.807 265.803 129.952 266.358 129.952 266.979C129.952 267.418 129.896 267.798 129.784 268.12C129.676 268.442 129.508 268.741 129.28 269.016C129.051 269.287 128.764 269.576 128.419 269.884L124.702 273.223L124.541 272.803H129.952V273.993H123.253ZM134.391 274.196C133.892 274.196 133.428 274.105 132.998 273.923C132.569 273.736 132.198 273.475 131.885 273.139C131.577 272.798 131.351 272.395 131.206 271.928L132.403 271.585C132.557 272.052 132.814 272.406 133.173 272.649C133.533 272.892 133.936 273.011 134.384 273.006C134.795 272.997 135.15 272.903 135.448 272.726C135.752 272.544 135.985 272.297 136.148 271.984C136.316 271.671 136.4 271.31 136.4 270.899C136.4 270.274 136.214 269.767 135.84 269.38C135.467 268.988 134.977 268.792 134.37 268.792C134.202 268.792 134.025 268.815 133.838 268.862C133.656 268.909 133.486 268.974 133.327 269.058L132.725 268.071L136.463 264.69L136.624 265.11H131.605V263.92H137.548V265.117L134.363 268.169L134.349 267.728C135.017 267.681 135.6 267.791 136.099 268.057C136.599 268.323 136.986 268.703 137.261 269.198C137.541 269.693 137.681 270.26 137.681 270.899C137.681 271.543 137.537 272.112 137.247 272.607C136.958 273.102 136.566 273.491 136.071 273.776C135.577 274.056 135.017 274.196 134.391 274.196Z" fill="#71717A"/>
<path d="M191.657 274.21C191.004 274.21 190.421 274.063 189.907 273.769C189.399 273.47 188.995 273.067 188.696 272.558C188.402 272.045 188.255 271.461 188.255 270.808V267.112C188.255 266.459 188.402 265.875 188.696 265.362C188.995 264.849 189.399 264.445 189.907 264.151C190.421 263.857 191.004 263.71 191.657 263.71C192.311 263.71 192.894 263.857 193.407 264.151C193.921 264.445 194.324 264.849 194.618 265.362C194.912 265.875 195.059 266.459 195.059 267.112V270.808C195.059 271.461 194.912 272.045 194.618 272.558C194.324 273.067 193.921 273.47 193.407 273.769C192.894 274.063 192.311 274.21 191.657 274.21ZM191.657 273.013C192.054 273.013 192.413 272.917 192.735 272.726C193.057 272.535 193.314 272.278 193.505 271.956C193.697 271.629 193.792 271.27 193.792 270.878V267.035C193.792 266.638 193.697 266.279 193.505 265.957C193.314 265.635 193.057 265.378 192.735 265.187C192.413 264.996 192.054 264.9 191.657 264.9C191.265 264.9 190.906 264.996 190.579 265.187C190.257 265.378 190.001 265.635 189.809 265.957C189.618 266.279 189.522 266.638 189.522 267.035V270.878C189.522 271.27 189.618 271.629 189.809 271.956C190.001 272.278 190.257 272.535 190.579 272.726C190.906 272.917 191.265 273.013 191.657 273.013ZM196.739 273.993L196.746 272.873L201.219 268.848C201.592 268.512 201.842 268.195 201.968 267.896C202.099 267.593 202.164 267.282 202.164 266.965C202.164 266.578 202.075 266.228 201.898 265.915C201.721 265.602 201.478 265.355 201.17 265.173C200.867 264.991 200.521 264.9 200.134 264.9C199.733 264.9 199.376 264.996 199.063 265.187C198.75 265.374 198.503 265.623 198.321 265.936C198.144 266.249 198.057 266.589 198.062 266.958H196.788C196.788 266.323 196.935 265.763 197.229 265.278C197.523 264.788 197.922 264.405 198.426 264.13C198.935 263.85 199.511 263.71 200.155 263.71C200.78 263.71 201.34 263.855 201.835 264.144C202.33 264.429 202.719 264.818 203.004 265.313C203.293 265.803 203.438 266.358 203.438 266.979C203.438 267.418 203.382 267.798 203.27 268.12C203.163 268.442 202.995 268.741 202.766 269.016C202.537 269.287 202.25 269.576 201.905 269.884L198.188 273.223L198.027 272.803H203.438V273.993H196.739ZM207.661 263.92H208.928L206.24 274H204.973L207.661 263.92ZM214.148 274.21C213.494 274.21 212.911 274.063 212.398 273.769C211.889 273.47 211.485 273.067 211.187 272.558C210.893 272.045 210.746 271.461 210.746 270.808V267.112C210.746 266.459 210.893 265.875 211.187 265.362C211.485 264.849 211.889 264.445 212.398 264.151C212.911 263.857 213.494 263.71 214.148 263.71C214.801 263.71 215.384 263.857 215.898 264.151C216.411 264.445 216.815 264.849 217.109 265.362C217.403 265.875 217.55 266.459 217.55 267.112V270.808C217.55 271.461 217.403 272.045 217.109 272.558C216.815 273.067 216.411 273.47 215.898 273.769C215.384 274.063 214.801 274.21 214.148 274.21ZM214.148 273.013C214.544 273.013 214.904 272.917 215.226 272.726C215.548 272.535 215.804 272.278 215.996 271.956C216.187 271.629 216.283 271.27 216.283 270.878V267.035C216.283 266.638 216.187 266.279 215.996 265.957C215.804 265.635 215.548 265.378 215.226 265.187C214.904 264.996 214.544 264.9 214.148 264.9C213.756 264.9 213.396 264.996 213.07 265.187C212.748 265.378 212.491 265.635 212.3 265.957C212.108 266.279 212.013 266.638 212.013 267.035V270.878C212.013 271.27 212.108 271.629 212.3 271.956C212.491 272.278 212.748 272.535 213.07 272.726C213.396 272.917 213.756 273.013 214.148 273.013ZM219.229 273.993L219.236 272.873L223.709 268.848C224.083 268.512 224.332 268.195 224.458 267.896C224.589 267.593 224.654 267.282 224.654 266.965C224.654 266.578 224.566 266.228 224.388 265.915C224.211 265.602 223.968 265.355 223.66 265.173C223.357 264.991 223.012 264.9 222.624 264.9C222.223 264.9 221.866 264.996 221.553 265.187C221.241 265.374 220.993 265.623 220.811 265.936C220.634 266.249 220.548 266.589 220.552 266.958H219.278C219.278 266.323 219.425 265.763 219.719 265.278C220.013 264.788 220.412 264.405 220.916 264.13C221.425 263.85 222.001 263.71 222.645 263.71C223.271 263.71 223.831 263.855 224.325 264.144C224.82 264.429 225.21 264.818 225.494 265.313C225.784 265.803 225.928 266.358 225.928 266.979C225.928 267.418 225.872 267.798 225.76 268.12C225.653 268.442 225.485 268.741 225.256 269.016C225.028 269.287 224.741 269.576 224.395 269.884L220.678 273.223L220.517 272.803H225.928V273.993H219.229ZM230.151 263.92H231.418L228.73 274H227.463L230.151 263.92ZM232.956 273.993L232.963 272.873L237.436 268.848C237.809 268.512 238.059 268.195 238.185 267.896C238.316 267.593 238.381 267.282 238.381 266.965C238.381 266.578 238.292 266.228 238.115 265.915C237.938 265.602 237.695 265.355 237.387 265.173C237.084 264.991 236.738 264.9 236.351 264.9C235.95 264.9 235.593 264.996 235.28 265.187C234.967 265.374 234.72 265.623 234.538 265.936C234.361 266.249 234.274 266.589 234.279 266.958H233.005C233.005 266.323 233.152 265.763 233.446 265.278C233.74 264.788 234.139 264.405 234.643 264.13C235.152 263.85 235.728 263.71 236.372 263.71C236.997 263.71 237.557 263.855 238.052 264.144C238.547 264.429 238.936 264.818 239.221 265.313C239.51 265.803 239.655 266.358 239.655 266.979C239.655 267.418 239.599 267.798 239.487 268.12C239.38 268.442 239.212 268.741 238.983 269.016C238.754 269.287 238.467 269.576 238.122 269.884L234.405 273.223L234.244 272.803H239.655V273.993H232.956ZM244.095 274.196C243.595 274.196 243.131 274.105 242.702 273.923C242.272 273.736 241.901 273.475 241.589 273.139C241.281 272.798 241.054 272.395 240.91 271.928L242.107 271.585C242.261 272.052 242.517 272.406 242.877 272.649C243.236 272.892 243.64 273.011 244.088 273.006C244.498 272.997 244.853 272.903 245.152 272.726C245.455 272.544 245.688 272.297 245.852 271.984C246.02 271.671 246.104 271.31 246.104 270.899C246.104 270.274 245.917 269.767 245.544 269.38C245.17 268.988 244.68 268.792 244.074 268.792C243.906 268.792 243.728 268.815 243.542 268.862C243.36 268.909 243.189 268.974 243.031 269.058L242.429 268.071L246.167 264.69L246.328 265.11H241.309V263.92H247.252V265.117L244.067 268.169L244.053 267.728C244.72 267.681 245.303 267.791 245.803 268.057C246.302 268.323 246.689 268.703 246.965 269.198C247.245 269.693 247.385 270.26 247.385 270.899C247.385 271.543 247.24 272.112 246.951 272.607C246.661 273.102 246.269 273.491 245.775 273.776C245.28 274.056 244.72 274.196 244.095 274.196Z" fill="#71717A"/>
<path d="M300.157 274.21C299.504 274.21 298.921 274.063 298.407 273.769C297.899 273.47 297.495 273.067 297.196 272.558C296.902 272.045 296.755 271.461 296.755 270.808V267.112C296.755 266.459 296.902 265.875 297.196 265.362C297.495 264.849 297.899 264.445 298.407 264.151C298.921 263.857 299.504 263.71 300.157 263.71C300.811 263.71 301.394 263.857 301.907 264.151C302.421 264.445 302.824 264.849 303.118 265.362C303.412 265.875 303.559 266.459 303.559 267.112V270.808C303.559 271.461 303.412 272.045 303.118 272.558C302.824 273.067 302.421 273.47 301.907 273.769C301.394 274.063 300.811 274.21 300.157 274.21ZM300.157 273.013C300.554 273.013 300.913 272.917 301.235 272.726C301.557 272.535 301.814 272.278 302.005 271.956C302.197 271.629 302.292 271.27 302.292 270.878V267.035C302.292 266.638 302.197 266.279 302.005 265.957C301.814 265.635 301.557 265.378 301.235 265.187C300.913 264.996 300.554 264.9 300.157 264.9C299.765 264.9 299.406 264.996 299.079 265.187C298.757 265.378 298.501 265.635 298.309 265.957C298.118 266.279 298.022 266.638 298.022 267.035V270.878C298.022 271.27 298.118 271.629 298.309 271.956C298.501 272.278 298.757 272.535 299.079 272.726C299.406 272.917 299.765 273.013 300.157 273.013ZM305.239 273.993L305.246 272.873L309.719 268.848C310.092 268.512 310.342 268.195 310.468 267.896C310.599 267.593 310.664 267.282 310.664 266.965C310.664 266.578 310.575 266.228 310.398 265.915C310.221 265.602 309.978 265.355 309.67 265.173C309.367 264.991 309.021 264.9 308.634 264.9C308.233 264.9 307.876 264.996 307.563 265.187C307.25 265.374 307.003 265.623 306.821 265.936C306.644 266.249 306.557 266.589 306.562 266.958H305.288C305.288 266.323 305.435 265.763 305.729 265.278C306.023 264.788 306.422 264.405 306.926 264.13C307.435 263.85 308.011 263.71 308.655 263.71C309.28 263.71 309.84 263.855 310.335 264.144C310.83 264.429 311.219 264.818 311.504 265.313C311.793 265.803 311.938 266.358 311.938 266.979C311.938 267.418 311.882 267.798 311.77 268.12C311.663 268.442 311.495 268.741 311.266 269.016C311.037 269.287 310.75 269.576 310.405 269.884L306.688 273.223L306.527 272.803H311.938V273.993H305.239ZM316.161 263.92H317.428L314.74 274H313.473L316.161 263.92ZM322.648 274.21C321.994 274.21 321.411 274.063 320.898 273.769C320.389 273.47 319.985 273.067 319.687 272.558C319.393 272.045 319.246 271.461 319.246 270.808V267.112C319.246 266.459 319.393 265.875 319.687 265.362C319.985 264.849 320.389 264.445 320.898 264.151C321.411 263.857 321.994 263.71 322.648 263.71C323.301 263.71 323.884 263.857 324.398 264.151C324.911 264.445 325.315 264.849 325.609 265.362C325.903 265.875 326.05 266.459 326.05 267.112V270.808C326.05 271.461 325.903 272.045 325.609 272.558C325.315 273.067 324.911 273.47 324.398 273.769C323.884 274.063 323.301 274.21 322.648 274.21ZM322.648 273.013C323.044 273.013 323.404 272.917 323.726 272.726C324.048 272.535 324.304 272.278 324.496 271.956C324.687 271.629 324.783 271.27 324.783 270.878V267.035C324.783 266.638 324.687 266.279 324.496 265.957C324.304 265.635 324.048 265.378 323.726 265.187C323.404 264.996 323.044 264.9 322.648 264.9C322.256 264.9 321.896 264.996 321.57 265.187C321.248 265.378 320.991 265.635 320.8 265.957C320.608 266.279 320.513 266.638 320.513 267.035V270.878C320.513 271.27 320.608 271.629 320.8 271.956C320.991 272.278 321.248 272.535 321.57 272.726C321.896 272.917 322.256 273.013 322.648 273.013ZM327.729 273.993L327.736 272.873L332.209 268.848C332.583 268.512 332.832 268.195 332.958 267.896C333.089 267.593 333.154 267.282 333.154 266.965C333.154 266.578 333.066 266.228 332.888 265.915C332.711 265.602 332.468 265.355 332.16 265.173C331.857 264.991 331.512 264.9 331.124 264.9C330.723 264.9 330.366 264.996 330.053 265.187C329.741 265.374 329.493 265.623 329.311 265.936C329.134 266.249 329.048 266.589 329.052 266.958H327.778C327.778 266.323 327.925 265.763 328.219 265.278C328.513 264.788 328.912 264.405 329.416 264.13C329.925 263.85 330.501 263.71 331.145 263.71C331.771 263.71 332.331 263.855 332.825 264.144C333.32 264.429 333.71 264.818 333.994 265.313C334.284 265.803 334.428 266.358 334.428 266.979C334.428 267.418 334.372 267.798 334.26 268.12C334.153 268.442 333.985 268.741 333.756 269.016C333.528 269.287 333.241 269.576 332.895 269.884L329.178 273.223L329.017 272.803H334.428V273.993H327.729ZM338.651 263.92H339.918L337.23 274H335.963L338.651 263.92ZM341.456 273.993L341.463 272.873L345.936 268.848C346.309 268.512 346.559 268.195 346.685 267.896C346.816 267.593 346.881 267.282 346.881 266.965C346.881 266.578 346.792 266.228 346.615 265.915C346.438 265.602 346.195 265.355 345.887 265.173C345.584 264.991 345.238 264.9 344.851 264.9C344.45 264.9 344.093 264.996 343.78 265.187C343.467 265.374 343.22 265.623 343.038 265.936C342.861 266.249 342.774 266.589 342.779 266.958H341.505C341.505 266.323 341.652 265.763 341.946 265.278C342.24 264.788 342.639 264.405 343.143 264.13C343.652 263.85 344.228 263.71 344.872 263.71C345.497 263.71 346.057 263.855 346.552 264.144C347.047 264.429 347.436 264.818 347.721 265.313C348.01 265.803 348.155 266.358 348.155 266.979C348.155 267.418 348.099 267.798 347.987 268.12C347.88 268.442 347.712 268.741 347.483 269.016C347.254 269.287 346.967 269.576 346.622 269.884L342.905 273.223L342.744 272.803H348.155V273.993H341.456ZM352.595 274.196C352.095 274.196 351.631 274.105 351.202 273.923C350.772 273.736 350.401 273.475 350.089 273.139C349.781 272.798 349.554 272.395 349.41 271.928L350.607 271.585C350.761 272.052 351.017 272.406 351.377 272.649C351.736 272.892 352.14 273.011 352.588 273.006C352.998 272.997 353.353 272.903 353.652 272.726C353.955 272.544 354.188 272.297 354.352 271.984C354.52 271.671 354.604 271.31 354.604 270.899C354.604 270.274 354.417 269.767 354.044 269.38C353.67 268.988 353.18 268.792 352.574 268.792C352.406 268.792 352.228 268.815 352.042 268.862C351.86 268.909 351.689 268.974 351.531 269.058L350.929 268.071L354.667 264.69L354.828 265.11H349.809V263.92H355.752V265.117L352.567 268.169L352.553 267.728C353.22 267.681 353.803 267.791 354.303 268.057C354.802 268.323 355.189 268.703 355.465 269.198C355.745 269.693 355.885 270.26 355.885 270.899C355.885 271.543 355.74 272.112 355.451 272.607C355.161 273.102 354.769 273.491 354.275 273.776C353.78 274.056 353.22 274.196 352.595 274.196Z" fill="#71717A"/>
<path d="M408.534 274.21C407.881 274.21 407.298 274.063 406.784 273.769C406.276 273.47 405.872 273.067 405.573 272.558C405.279 272.045 405.132 271.461 405.132 270.808V267.112C405.132 266.459 405.279 265.875 405.573 265.362C405.872 264.849 406.276 264.445 406.784 264.151C407.298 263.857 407.881 263.71 408.534 263.71C409.188 263.71 409.771 263.857 410.284 264.151C410.798 264.445 411.201 264.849 411.495 265.362C411.789 265.875 411.936 266.459 411.936 267.112V270.808C411.936 271.461 411.789 272.045 411.495 272.558C411.201 273.067 410.798 273.47 410.284 273.769C409.771 274.063 409.188 274.21 408.534 274.21ZM408.534 273.013C408.931 273.013 409.29 272.917 409.612 272.726C409.934 272.535 410.191 272.278 410.382 271.956C410.574 271.629 410.669 271.27 410.669 270.878V267.035C410.669 266.638 410.574 266.279 410.382 265.957C410.191 265.635 409.934 265.378 409.612 265.187C409.29 264.996 408.931 264.9 408.534 264.9C408.142 264.9 407.783 264.996 407.456 265.187C407.134 265.378 406.878 265.635 406.686 265.957C406.495 266.279 406.399 266.638 406.399 267.035V270.878C406.399 271.27 406.495 271.629 406.686 271.956C406.878 272.278 407.134 272.535 407.456 272.726C407.783 272.917 408.142 273.013 408.534 273.013ZM418.25 274V272.145H413.616V270.962L416.941 263.92H418.355L415.03 270.962H418.25V268.127H419.51V270.962H420.56V272.145H419.51V274H418.25ZM424.784 263.92H426.051L423.363 274H422.096L424.784 263.92ZM431.271 274.21C430.617 274.21 430.034 274.063 429.521 273.769C429.012 273.47 428.608 273.067 428.31 272.558C428.016 272.045 427.869 271.461 427.869 270.808V267.112C427.869 266.459 428.016 265.875 428.31 265.362C428.608 264.849 429.012 264.445 429.521 264.151C430.034 263.857 430.617 263.71 431.271 263.71C431.924 263.71 432.507 263.857 433.021 264.151C433.534 264.445 433.938 264.849 434.232 265.362C434.526 265.875 434.673 266.459 434.673 267.112V270.808C434.673 271.461 434.526 272.045 434.232 272.558C433.938 273.067 433.534 273.47 433.021 273.769C432.507 274.063 431.924 274.21 431.271 274.21ZM431.271 273.013C431.667 273.013 432.027 272.917 432.349 272.726C432.671 272.535 432.927 272.278 433.119 271.956C433.31 271.629 433.406 271.27 433.406 270.878V267.035C433.406 266.638 433.31 266.279 433.119 265.957C432.927 265.635 432.671 265.378 432.349 265.187C432.027 264.996 431.667 264.9 431.271 264.9C430.879 264.9 430.519 264.996 430.193 265.187C429.871 265.378 429.614 265.635 429.423 265.957C429.231 266.279 429.136 266.638 429.136 267.035V270.878C429.136 271.27 429.231 271.629 429.423 271.956C429.614 272.278 429.871 272.535 430.193 272.726C430.519 272.917 430.879 273.013 431.271 273.013ZM436.352 273.993L436.359 272.873L440.832 268.848C441.206 268.512 441.455 268.195 441.581 267.896C441.712 267.593 441.777 267.282 441.777 266.965C441.777 266.578 441.689 266.228 441.511 265.915C441.334 265.602 441.091 265.355 440.783 265.173C440.48 264.991 440.135 264.9 439.747 264.9C439.346 264.9 438.989 264.996 438.676 265.187C438.364 265.374 438.116 265.623 437.934 265.936C437.757 266.249 437.671 266.589 437.675 266.958H436.401C436.401 266.323 436.548 265.763 436.842 265.278C437.136 264.788 437.535 264.405 438.039 264.13C438.548 263.85 439.124 263.71 439.768 263.71C440.394 263.71 440.954 263.855 441.448 264.144C441.943 264.429 442.333 264.818 442.617 265.313C442.907 265.803 443.051 266.358 443.051 266.979C443.051 267.418 442.995 267.798 442.883 268.12C442.776 268.442 442.608 268.741 442.379 269.016C442.151 269.287 441.864 269.576 441.518 269.884L437.801 273.223L437.64 272.803H443.051V273.993H436.352ZM447.274 263.92H448.541L445.853 274H444.586L447.274 263.92ZM450.079 273.993L450.086 272.873L454.559 268.848C454.932 268.512 455.182 268.195 455.308 267.896C455.439 267.593 455.504 267.282 455.504 266.965C455.504 266.578 455.415 266.228 455.238 265.915C455.061 265.602 454.818 265.355 454.51 265.173C454.207 264.991 453.861 264.9 453.474 264.9C453.073 264.9 452.716 264.996 452.403 265.187C452.09 265.374 451.843 265.623 451.661 265.936C451.484 266.249 451.397 266.589 451.402 266.958H450.128C450.128 266.323 450.275 265.763 450.569 265.278C450.863 264.788 451.262 264.405 451.766 264.13C452.275 263.85 452.851 263.71 453.495 263.71C454.12 263.71 454.68 263.855 455.175 264.144C455.67 264.429 456.059 264.818 456.344 265.313C456.633 265.803 456.778 266.358 456.778 266.979C456.778 267.418 456.722 267.798 456.61 268.12C456.503 268.442 456.335 268.741 456.106 269.016C455.877 269.287 455.59 269.576 455.245 269.884L451.528 273.223L451.367 272.803H456.778V273.993H450.079ZM461.218 274.196C460.718 274.196 460.254 274.105 459.825 273.923C459.395 273.736 459.024 273.475 458.712 273.139C458.404 272.798 458.177 272.395 458.033 271.928L459.23 271.585C459.384 272.052 459.64 272.406 460 272.649C460.359 272.892 460.763 273.011 461.211 273.006C461.621 272.997 461.976 272.903 462.275 272.726C462.578 272.544 462.811 272.297 462.975 271.984C463.143 271.671 463.227 271.31 463.227 270.899C463.227 270.274 463.04 269.767 462.667 269.38C462.293 268.988 461.803 268.792 461.197 268.792C461.029 268.792 460.851 268.815 460.665 268.862C460.483 268.909 460.312 268.974 460.154 269.058L459.552 268.071L463.29 264.69L463.451 265.11H458.432V263.92H464.375V265.117L461.19 268.169L461.176 267.728C461.843 267.681 462.426 267.791 462.926 268.057C463.425 268.323 463.812 268.703 464.088 269.198C464.368 269.693 464.508 270.26 464.508 270.899C464.508 271.543 464.363 272.112 464.074 272.607C463.784 273.102 463.392 273.491 462.898 273.776C462.403 274.056 461.843 274.196 461.218 274.196Z" fill="#71717A"/>
<path d="M108.961 235.005L218 134L328 160L448 110" stroke="#196CFA" stroke-width="2.5" stroke-linecap="round" stroke-linejoin="round"/>
<path d="M108.961 235H218L328 134.5L448 179" stroke="#FAA81A" stroke-width="2.5" stroke-linecap="round" stroke-linejoin="round"/>
<path d="M108.961 235.002L218 160L328 143L448 73" stroke="#FE3F34" stroke-width="2.5" stroke-linecap="round" stroke-linejoin="round"/>
<path d="M108.961 235L218 185H328L448 42" stroke="#4ADE80" stroke-width="2.5" stroke-linecap="round" stroke-linejoin="round"/>
<rect x="529.5" y="60.5" width="155" height="179" rx="15.5" fill="white"/>
<g clip-path="url(#clip0_1164_111745)">
<rect x="553" y="86" width="20" height="20" rx="10" fill="#196CFA"/>
<path d="M551 99.9995C554.5 99.4995 566.5 96.9995 570 85.9995M551 99.9995C559 102.5 571.67 100.815 575 92.1886M551 99.9995C553.973 102.795 563 106 574.5 102.5M551 99.9995C553.5 98.4995 562.451 90.2505 561.5 84.4995" stroke="#2E33C7"/>
</g>
<path d="M582.12 102V90.48H588.84V91.904H583.544V95.528H587.88V96.952H583.544V102H582.12ZM592.42 102.24C591.774 102.24 591.233 102.123 590.796 101.888C590.364 101.648 590.036 101.333 589.812 100.944C589.593 100.555 589.484 100.128 589.484 99.664C589.484 99.2107 589.569 98.8187 589.74 98.488C589.916 98.152 590.161 97.8747 590.476 97.656C590.79 97.432 591.166 97.256 591.604 97.128C592.014 97.016 592.473 96.92 592.98 96.84C593.492 96.7547 594.009 96.6773 594.532 96.608C595.054 96.5387 595.542 96.472 595.996 96.408L595.484 96.704C595.5 95.936 595.345 95.368 595.02 95C594.7 94.632 594.145 94.448 593.356 94.448C592.833 94.448 592.374 94.568 591.98 94.808C591.59 95.0427 591.316 95.4267 591.156 95.96L589.804 95.552C590.012 94.7947 590.414 94.2 591.012 93.768C591.609 93.336 592.396 93.12 593.372 93.12C594.156 93.12 594.828 93.2613 595.388 93.544C595.953 93.8213 596.358 94.2427 596.604 94.808C596.726 95.0747 596.804 95.3653 596.836 95.68C596.868 95.9893 596.884 96.3147 596.884 96.656V102H595.62V99.928L595.916 100.12C595.59 100.819 595.134 101.347 594.548 101.704C593.966 102.061 593.257 102.24 592.42 102.24ZM592.636 101.048C593.148 101.048 593.59 100.957 593.964 100.776C594.342 100.589 594.646 100.347 594.876 100.048C595.105 99.744 595.254 99.4133 595.324 99.056C595.404 98.7893 595.446 98.4933 595.452 98.168C595.462 97.8373 595.468 97.584 595.468 97.408L595.964 97.624C595.5 97.688 595.044 97.7493 594.596 97.808C594.148 97.8667 593.724 97.9307 593.324 98C592.924 98.064 592.564 98.1413 592.244 98.232C592.009 98.3067 591.788 98.4027 591.58 98.52C591.377 98.6373 591.212 98.7893 591.084 98.976C590.961 99.1573 590.9 99.384 590.9 99.656C590.9 99.8907 590.958 100.115 591.076 100.328C591.198 100.541 591.385 100.715 591.636 100.848C591.892 100.981 592.225 101.048 592.636 101.048ZM602.604 102.24C601.729 102.24 600.985 102.045 600.372 101.656C599.764 101.261 599.3 100.72 598.98 100.032C598.66 99.344 598.494 98.56 598.484 97.68C598.494 96.7787 598.662 95.9867 598.988 95.304C599.318 94.616 599.79 94.08 600.404 93.696C601.017 93.312 601.756 93.12 602.62 93.12C603.532 93.12 604.316 93.344 604.972 93.792C605.633 94.24 606.076 94.8533 606.3 95.632L604.892 96.056C604.71 95.5547 604.414 95.1653 604.004 94.888C603.598 94.6107 603.132 94.472 602.604 94.472C602.012 94.472 601.524 94.6107 601.14 94.888C600.756 95.16 600.47 95.5387 600.284 96.024C600.097 96.504 600.001 97.056 599.996 97.68C600.006 98.64 600.228 99.416 600.66 100.008C601.097 100.595 601.745 100.888 602.604 100.888C603.169 100.888 603.638 100.76 604.012 100.504C604.385 100.243 604.668 99.8667 604.86 99.376L606.3 99.752C606.001 100.557 605.534 101.173 604.9 101.6C604.265 102.027 603.5 102.24 602.604 102.24ZM611.442 102.24C610.594 102.24 609.853 102.053 609.218 101.68C608.589 101.301 608.098 100.776 607.746 100.104C607.394 99.4267 607.218 98.6373 607.218 97.736C607.218 96.792 607.391 95.976 607.738 95.288C608.085 94.5947 608.567 94.0613 609.186 93.688C609.81 93.3093 610.541 93.12 611.378 93.12C612.247 93.12 612.986 93.32 613.594 93.72C614.207 94.12 614.666 94.6907 614.97 95.432C615.279 96.1733 615.413 97.056 615.37 98.08H613.93V97.568C613.914 96.5067 613.698 95.7147 613.282 95.192C612.866 94.664 612.247 94.4 611.426 94.4C610.546 94.4 609.877 94.6827 609.418 95.248C608.959 95.8133 608.73 96.624 608.73 97.68C608.73 98.6987 608.959 99.488 609.418 100.048C609.877 100.608 610.53 100.888 611.378 100.888C611.949 100.888 612.445 100.757 612.866 100.496C613.287 100.235 613.618 99.8587 613.858 99.368L615.226 99.84C614.89 100.603 614.383 101.195 613.706 101.616C613.034 102.032 612.279 102.24 611.442 102.24ZM608.25 98.08V96.936H614.634V98.08H608.25ZM621.119 102.24C620.309 102.24 619.626 102.04 619.071 101.64C618.517 101.235 618.095 100.688 617.807 100C617.525 99.3067 617.383 98.5307 617.383 97.672C617.383 96.8027 617.525 96.024 617.807 95.336C618.095 94.648 618.517 94.1067 619.071 93.712C619.631 93.3173 620.317 93.12 621.127 93.12C621.927 93.12 622.615 93.32 623.191 93.72C623.773 94.1147 624.218 94.656 624.527 95.344C624.837 96.032 624.991 96.808 624.991 97.672C624.991 98.536 624.837 99.312 624.527 100C624.218 100.688 623.773 101.235 623.191 101.64C622.615 102.04 621.925 102.24 621.119 102.24ZM617.143 102V90.48H618.575V95.64H618.415V102H617.143ZM620.943 100.936C621.514 100.936 621.986 100.792 622.359 100.504C622.733 100.216 623.013 99.8267 623.199 99.336C623.386 98.84 623.479 98.2853 623.479 97.672C623.479 97.064 623.386 96.5147 623.199 96.024C623.018 95.5333 622.735 95.144 622.351 94.856C621.973 94.568 621.49 94.424 620.903 94.424C620.343 94.424 619.879 94.5627 619.511 94.84C619.143 95.112 618.869 95.4933 618.687 95.984C618.506 96.4693 618.415 97.032 618.415 97.672C618.415 98.3013 618.503 98.864 618.679 99.36C618.861 99.8507 619.138 100.237 619.511 100.52C619.885 100.797 620.362 100.936 620.943 100.936ZM630.425 102.24C629.566 102.24 628.825 102.045 628.201 101.656C627.582 101.267 627.105 100.728 626.769 100.04C626.433 99.352 626.265 98.5627 626.265 97.672C626.265 96.7653 626.436 95.9707 626.777 95.288C627.118 94.6053 627.601 94.0747 628.225 93.696C628.849 93.312 629.582 93.12 630.425 93.12C631.289 93.12 632.033 93.3147 632.657 93.704C633.281 94.088 633.758 94.624 634.089 95.312C634.425 95.9947 634.593 96.7813 634.593 97.672C634.593 98.5733 634.425 99.368 634.089 100.056C633.753 100.739 633.273 101.275 632.649 101.664C632.025 102.048 631.284 102.24 630.425 102.24ZM630.425 100.888C631.321 100.888 631.988 100.589 632.425 99.992C632.862 99.3947 633.081 98.6213 633.081 97.672C633.081 96.696 632.86 95.92 632.417 95.344C631.974 94.7627 631.31 94.472 630.425 94.472C629.822 94.472 629.326 94.608 628.937 94.88C628.548 95.152 628.257 95.528 628.065 96.008C627.873 96.488 627.777 97.0427 627.777 97.672C627.777 98.6427 628.001 99.4213 628.449 100.008C628.897 100.595 629.556 100.888 630.425 100.888ZM640.034 102.24C639.176 102.24 638.434 102.045 637.81 101.656C637.192 101.267 636.714 100.728 636.378 100.04C636.042 99.352 635.874 98.5627 635.874 97.672C635.874 96.7653 636.045 95.9707 636.386 95.288C636.728 94.6053 637.21 94.0747 637.834 93.696C638.458 93.312 639.192 93.12 640.034 93.12C640.898 93.12 641.642 93.3147 642.266 93.704C642.89 94.088 643.368 94.624 643.698 95.312C644.034 95.9947 644.202 96.7813 644.202 97.672C644.202 98.5733 644.034 99.368 643.698 100.056C643.362 100.739 642.882 101.275 642.258 101.664C641.634 102.048 640.893 102.24 640.034 102.24ZM640.034 100.888C640.93 100.888 641.597 100.589 642.034 99.992C642.472 99.3947 642.69 98.6213 642.69 97.672C642.69 96.696 642.469 95.92 642.026 95.344C641.584 94.7627 640.92 94.472 640.034 94.472C639.432 94.472 638.936 94.608 638.546 94.88C638.157 95.152 637.866 95.528 637.674 96.008C637.482 96.488 637.386 97.0427 637.386 97.672C637.386 98.6427 637.61 99.4213 638.058 100.008C638.506 100.595 639.165 100.888 640.034 100.888ZM645.956 102L645.964 90.48H647.404V97.52L651.028 93.36H652.876L649.06 97.68L653.324 102H651.332L647.404 97.84V102H645.956Z" fill="#71717A"/>
<g clip-path="url(#clip1_1164_111745)">
<rect x="553" y="122" width="20" height="20" rx="10" fill="#FBC023"/>
<path d="M551 136C554.5 135.5 566.5 133 570 122M551 136C559 138.5 571.67 136.815 575 128.189M551 136C553.973 138.795 563 142 574.5 138.5M551 136C553.5 134.5 562.451 126.25 561.5 120.5" stroke="#FAA81A"/>
</g>
<path d="M586.784 138.24C585.995 138.24 585.275 138.101 584.624 137.824C583.973 137.547 583.413 137.149 582.944 136.632C582.475 136.109 582.112 135.48 581.856 134.744C581.605 134.003 581.48 133.168 581.48 132.24C581.48 131.013 581.699 129.952 582.136 129.056C582.573 128.16 583.189 127.469 583.984 126.984C584.779 126.493 585.712 126.248 586.784 126.248C588.075 126.248 589.115 126.549 589.904 127.152C590.693 127.749 591.237 128.568 591.536 129.608L590.096 129.904C589.856 129.205 589.461 128.648 588.912 128.232C588.363 127.816 587.677 127.608 586.856 127.608C585.997 127.603 585.283 127.795 584.712 128.184C584.147 128.568 583.72 129.109 583.432 129.808C583.144 130.507 582.997 131.317 582.992 132.24C582.987 133.157 583.128 133.963 583.416 134.656C583.704 135.349 584.133 135.893 584.704 136.288C585.28 136.677 585.997 136.875 586.856 136.88C587.597 136.885 588.221 136.744 588.728 136.456C589.235 136.168 589.627 135.752 589.904 135.208C590.181 134.664 590.349 134.011 590.408 133.248H587.96V132.072H591.912C591.928 132.179 591.936 132.307 591.936 132.456C591.941 132.6 591.944 132.699 591.944 132.752C591.944 133.803 591.747 134.744 591.352 135.576C590.963 136.403 590.384 137.053 589.616 137.528C588.853 138.003 587.909 138.24 586.784 138.24ZM597.222 138.24C596.363 138.24 595.622 138.045 594.998 137.656C594.379 137.267 593.902 136.728 593.566 136.04C593.23 135.352 593.062 134.563 593.062 133.672C593.062 132.765 593.233 131.971 593.574 131.288C593.915 130.605 594.398 130.075 595.022 129.696C595.646 129.312 596.379 129.12 597.222 129.12C598.086 129.12 598.83 129.315 599.454 129.704C600.078 130.088 600.555 130.624 600.886 131.312C601.222 131.995 601.39 132.781 601.39 133.672C601.39 134.573 601.222 135.368 600.886 136.056C600.55 136.739 600.07 137.275 599.446 137.664C598.822 138.048 598.081 138.24 597.222 138.24ZM597.222 136.888C598.118 136.888 598.785 136.589 599.222 135.992C599.659 135.395 599.878 134.621 599.878 133.672C599.878 132.696 599.657 131.92 599.214 131.344C598.771 130.763 598.107 130.472 597.222 130.472C596.619 130.472 596.123 130.608 595.734 130.88C595.345 131.152 595.054 131.528 594.862 132.008C594.67 132.488 594.574 133.043 594.574 133.672C594.574 134.643 594.798 135.421 595.246 136.008C595.694 136.595 596.353 136.888 597.222 136.888ZM606.831 138.24C605.973 138.24 605.231 138.045 604.607 137.656C603.989 137.267 603.511 136.728 603.175 136.04C602.839 135.352 602.671 134.563 602.671 133.672C602.671 132.765 602.842 131.971 603.183 131.288C603.525 130.605 604.007 130.075 604.631 129.696C605.255 129.312 605.989 129.12 606.831 129.12C607.695 129.12 608.439 129.315 609.063 129.704C609.687 130.088 610.165 130.624 610.495 131.312C610.831 131.995 610.999 132.781 610.999 133.672C610.999 134.573 610.831 135.368 610.495 136.056C610.159 136.739 609.679 137.275 609.055 137.664C608.431 138.048 607.69 138.24 606.831 138.24ZM606.831 136.888C607.727 136.888 608.394 136.589 608.831 135.992C609.269 135.395 609.487 134.621 609.487 133.672C609.487 132.696 609.266 131.92 608.823 131.344C608.381 130.763 607.717 130.472 606.831 130.472C606.229 130.472 605.733 130.608 605.343 130.88C604.954 131.152 604.663 131.528 604.471 132.008C604.279 132.488 604.183 133.043 604.183 133.672C604.183 134.643 604.407 135.421 604.855 136.008C605.303 136.595 605.962 136.888 606.831 136.888ZM616.257 142.08C615.803 142.08 615.361 142.011 614.929 141.872C614.497 141.733 614.099 141.523 613.737 141.24C613.379 140.963 613.081 140.611 612.841 140.184L614.145 139.496C614.358 139.917 614.659 140.224 615.049 140.416C615.443 140.608 615.849 140.704 616.265 140.704C616.814 140.704 617.27 140.603 617.633 140.4C617.995 140.203 618.262 139.907 618.433 139.512C618.609 139.117 618.694 138.627 618.689 138.04V135.68H618.857V129.36H620.121V138.056C620.121 138.291 620.113 138.517 620.097 138.736C620.086 138.955 620.059 139.171 620.017 139.384C619.905 139.997 619.683 140.501 619.353 140.896C619.022 141.296 618.595 141.592 618.073 141.784C617.55 141.981 616.945 142.08 616.257 142.08ZM616.153 138.24C615.347 138.24 614.657 138.04 614.081 137.64C613.505 137.235 613.059 136.688 612.745 136C612.435 135.312 612.281 134.536 612.281 133.672C612.281 132.808 612.435 132.032 612.745 131.344C613.059 130.656 613.505 130.115 614.081 129.72C614.657 129.32 615.345 129.12 616.145 129.12C616.961 129.12 617.646 129.317 618.201 129.712C618.755 130.107 619.174 130.648 619.457 131.336C619.745 132.024 619.889 132.803 619.889 133.672C619.889 134.531 619.745 135.307 619.457 136C619.174 136.688 618.755 137.235 618.201 137.64C617.646 138.04 616.963 138.24 616.153 138.24ZM616.329 136.936C616.91 136.936 617.387 136.797 617.761 136.52C618.134 136.237 618.409 135.851 618.585 135.36C618.766 134.864 618.857 134.301 618.857 133.672C618.857 133.032 618.766 132.469 618.585 131.984C618.409 131.493 618.137 131.112 617.769 130.84C617.401 130.563 616.934 130.424 616.369 130.424C615.782 130.424 615.297 130.568 614.913 130.856C614.534 131.144 614.251 131.533 614.065 132.024C613.883 132.515 613.793 133.064 613.793 133.672C613.793 134.285 613.886 134.84 614.073 135.336C614.259 135.827 614.539 136.216 614.913 136.504C615.291 136.792 615.763 136.936 616.329 136.936ZM622.514 138V126.24H623.938V138H622.514ZM630.083 138.24C629.235 138.24 628.493 138.053 627.859 137.68C627.229 137.301 626.739 136.776 626.387 136.104C626.035 135.427 625.859 134.637 625.859 133.736C625.859 132.792 626.032 131.976 626.379 131.288C626.725 130.595 627.208 130.061 627.827 129.688C628.451 129.309 629.181 129.12 630.019 129.12C630.888 129.12 631.627 129.32 632.235 129.72C632.848 130.12 633.307 130.691 633.611 131.432C633.92 132.173 634.053 133.056 634.011 134.08H632.571V133.568C632.555 132.507 632.339 131.715 631.923 131.192C631.507 130.664 630.888 130.4 630.067 130.4C629.187 130.4 628.517 130.683 628.059 131.248C627.6 131.813 627.371 132.624 627.371 133.68C627.371 134.699 627.6 135.488 628.059 136.048C628.517 136.608 629.171 136.888 630.019 136.888C630.589 136.888 631.085 136.757 631.507 136.496C631.928 136.235 632.259 135.859 632.499 135.368L633.867 135.84C633.531 136.603 633.024 137.195 632.347 137.616C631.675 138.032 630.92 138.24 630.083 138.24ZM626.891 134.08V132.936H633.275V134.08H626.891Z" fill="#71717A"/>
<g clip-path="url(#clip2_1164_111745)">
<rect x="553" y="158" width="20" height="20" rx="10" fill="#F95250"/>
<path d="M551 172C554.5 171.5 566.5 169 570 158M551 172C559 174.5 571.67 172.815 575 164.189M551 172C553.973 174.795 563 178 574.5 174.5M551 172C553.5 170.5 562.451 162.25 561.5 156.5" stroke="#DD2A2E"/>
</g>
<path d="M581.8 174V173.744L587.888 163.832H582.04V162.48H590.288V162.752L584.232 172.648H590.208V174H581.8ZM592.374 163.832V162.36H593.798V163.832H592.374ZM592.374 174V165.36H593.798V174H592.374ZM596.358 174V162.24H597.782V174H596.358ZM600.343 174V162.24H601.767V174H600.343ZM607.847 174.24C606.988 174.24 606.247 174.045 605.623 173.656C605.004 173.267 604.527 172.728 604.191 172.04C603.855 171.352 603.687 170.563 603.687 169.672C603.687 168.765 603.858 167.971 604.199 167.288C604.54 166.605 605.023 166.075 605.647 165.696C606.271 165.312 607.004 165.12 607.847 165.12C608.711 165.12 609.455 165.315 610.079 165.704C610.703 166.088 611.18 166.624 611.511 167.312C611.847 167.995 612.015 168.781 612.015 169.672C612.015 170.573 611.847 171.368 611.511 172.056C611.175 172.739 610.695 173.275 610.071 173.664C609.447 174.048 608.706 174.24 607.847 174.24ZM607.847 172.888C608.743 172.888 609.41 172.589 609.847 171.992C610.284 171.395 610.503 170.621 610.503 169.672C610.503 168.696 610.282 167.92 609.839 167.344C609.396 166.763 608.732 166.472 607.847 166.472C607.244 166.472 606.748 166.608 606.359 166.88C605.97 167.152 605.679 167.528 605.487 168.008C605.295 168.488 605.199 169.043 605.199 169.672C605.199 170.643 605.423 171.421 605.871 172.008C606.319 172.595 606.978 172.888 607.847 172.888ZM615.304 174L612.664 165.352L614.08 165.36L616.008 171.68L617.952 165.36H619.208L621.144 171.68L623.08 165.36H624.488L621.848 174H620.664L618.576 167.432L616.488 174H615.304Z" fill="#71717A"/>
<g clip-path="url(#clip3_1164_111745)">
<rect x="553" y="194" width="20" height="20" rx="10" fill="#22C55E"/>
<path d="M551 208C554.5 207.5 566.5 205 570 194M551 208C559 210.5 571.67 208.815 575 200.189M551 208C553.973 210.795 563 214 574.5 210.5M551 208C553.5 206.5 562.451 198.25 561.5 192.5" stroke="#16A34A"/>
</g>
<path d="M586.856 210.24C585.709 210.24 584.736 209.987 583.936 209.48C583.136 208.973 582.525 208.269 582.104 207.368C581.688 206.467 581.48 205.424 581.48 204.24C581.48 203.056 581.688 202.013 582.104 201.112C582.525 200.211 583.136 199.507 583.936 199C584.736 198.493 585.709 198.24 586.856 198.24C588.008 198.24 588.984 198.493 589.784 199C590.584 199.507 591.192 200.211 591.608 201.112C592.024 202.013 592.232 203.056 592.232 204.24C592.232 205.424 592.024 206.467 591.608 207.368C591.192 208.269 590.584 208.973 589.784 209.48C588.984 209.987 588.008 210.24 586.856 210.24ZM586.856 208.88C587.715 208.885 588.429 208.693 589 208.304C589.576 207.909 590.005 207.363 590.288 206.664C590.576 205.965 590.72 205.157 590.72 204.24C590.72 203.317 590.576 202.509 590.288 201.816C590.005 201.123 589.576 200.581 589 200.192C588.429 199.803 587.715 199.605 586.856 199.6C585.997 199.595 585.283 199.787 584.712 200.176C584.147 200.565 583.72 201.109 583.432 201.808C583.144 202.507 582.997 203.317 582.992 204.24C582.987 205.157 583.128 205.963 583.416 206.656C583.704 207.349 584.133 207.893 584.704 208.288C585.28 208.677 585.997 208.875 586.856 208.88ZM598.663 210C598.151 210.101 597.644 210.141 597.143 210.12C596.647 210.104 596.204 210.005 595.815 209.824C595.425 209.637 595.129 209.349 594.927 208.96C594.756 208.619 594.663 208.275 594.647 207.928C594.636 207.576 594.631 207.179 594.631 206.736V198.96H596.055V206.672C596.055 207.024 596.057 207.325 596.063 207.576C596.073 207.827 596.129 208.043 596.231 208.224C596.423 208.565 596.727 208.765 597.143 208.824C597.564 208.883 598.071 208.867 598.663 208.776V210ZM592.879 202.536V201.36H598.663V202.536H592.879ZM606.569 210V205.672C606.569 205.261 606.532 204.867 606.457 204.488C606.388 204.109 606.262 203.771 606.081 203.472C605.905 203.168 605.665 202.928 605.361 202.752C605.062 202.576 604.684 202.488 604.225 202.488C603.868 202.488 603.542 202.549 603.249 202.672C602.961 202.789 602.713 202.971 602.505 203.216C602.297 203.461 602.134 203.771 602.017 204.144C601.905 204.512 601.849 204.947 601.849 205.448L600.913 205.16C600.913 204.323 601.062 203.605 601.361 203.008C601.665 202.405 602.089 201.944 602.633 201.624C603.182 201.299 603.828 201.136 604.569 201.136C605.129 201.136 605.606 201.224 606.001 201.4C606.396 201.576 606.724 201.811 606.985 202.104C607.246 202.392 607.452 202.717 607.601 203.08C607.75 203.437 607.854 203.803 607.913 204.176C607.977 204.544 608.009 204.893 608.009 205.224V210H606.569ZM600.409 210V198.48H601.689V204.84H601.849V210H600.409ZM613.833 210.24C612.985 210.24 612.243 210.053 611.609 209.68C610.979 209.301 610.489 208.776 610.137 208.104C609.785 207.427 609.609 206.637 609.609 205.736C609.609 204.792 609.782 203.976 610.129 203.288C610.475 202.595 610.958 202.061 611.577 201.688C612.201 201.309 612.931 201.12 613.769 201.12C614.638 201.12 615.377 201.32 615.985 201.72C616.598 202.12 617.057 202.691 617.361 203.432C617.67 204.173 617.803 205.056 617.761 206.08H616.321V205.568C616.305 204.507 616.089 203.715 615.673 203.192C615.257 202.664 614.638 202.4 613.817 202.4C612.937 202.4 612.267 202.683 611.809 203.248C611.35 203.813 611.121 204.624 611.121 205.68C611.121 206.699 611.35 207.488 611.809 208.048C612.267 208.608 612.921 208.888 613.769 208.888C614.339 208.888 614.835 208.757 615.257 208.496C615.678 208.235 616.009 207.859 616.249 207.368L617.617 207.84C617.281 208.603 616.774 209.195 616.097 209.616C615.425 210.032 614.67 210.24 613.833 210.24ZM610.641 206.08V204.936H617.025V206.08H610.641ZM619.542 210V201.36H620.814V203.448L620.606 203.176C620.707 202.909 620.838 202.664 620.998 202.44C621.163 202.216 621.347 202.032 621.55 201.888C621.774 201.707 622.027 201.568 622.31 201.472C622.593 201.376 622.881 201.32 623.174 201.304C623.467 201.283 623.742 201.301 623.998 201.36V202.696C623.699 202.616 623.371 202.595 623.014 202.632C622.657 202.669 622.326 202.8 622.022 203.024C621.745 203.221 621.529 203.461 621.374 203.744C621.225 204.027 621.121 204.333 621.062 204.664C621.003 204.989 620.974 205.323 620.974 205.664V210H619.542ZM628.462 210.232C627.433 210.232 626.587 210.008 625.926 209.56C625.27 209.107 624.867 208.475 624.718 207.664L626.174 207.432C626.291 207.901 626.561 208.275 626.982 208.552C627.403 208.824 627.926 208.96 628.55 208.96C629.142 208.96 629.606 208.837 629.942 208.592C630.278 208.347 630.446 208.013 630.446 207.592C630.446 207.347 630.39 207.149 630.278 207C630.166 206.845 629.934 206.701 629.582 206.568C629.235 206.435 628.71 206.275 628.006 206.088C627.243 205.885 626.643 205.675 626.206 205.456C625.769 205.237 625.457 204.984 625.27 204.696C625.083 204.408 624.99 204.059 624.99 203.648C624.99 203.141 625.129 202.699 625.406 202.32C625.683 201.936 626.07 201.64 626.566 201.432C627.067 201.224 627.649 201.12 628.31 201.12C628.966 201.12 629.553 201.224 630.07 201.432C630.587 201.64 631.003 201.936 631.318 202.32C631.638 202.699 631.827 203.141 631.886 203.648L630.43 203.912C630.361 203.448 630.137 203.083 629.758 202.816C629.385 202.549 628.902 202.408 628.31 202.392C627.75 202.371 627.294 202.469 626.942 202.688C626.595 202.907 626.422 203.203 626.422 203.576C626.422 203.784 626.486 203.963 626.614 204.112C626.747 204.261 626.99 204.403 627.342 204.536C627.699 204.669 628.217 204.821 628.894 204.992C629.657 205.184 630.257 205.395 630.694 205.624C631.137 205.848 631.451 206.115 631.638 206.424C631.825 206.728 631.918 207.104 631.918 207.552C631.918 208.384 631.611 209.04 630.998 209.52C630.385 209.995 629.539 210.232 628.462 210.232Z" fill="#71717A"/>
<rect x="529.5" y="60.5" width="155" height="179" rx="15.5" stroke="#E4E4E7"/>
<defs>
<clipPath id="clip0_1164_111745">
<rect x="553" y="86" width="20" height="20" rx="10" fill="white"/>
</clipPath>
<clipPath id="clip1_1164_111745">
<rect x="553" y="122" width="20" height="20" rx="10" fill="white"/>
</clipPath>
<clipPath id="clip2_1164_111745">
<rect x="553" y="158" width="20" height="20" rx="10" fill="white"/>
</clipPath>
<clipPath id="clip3_1164_111745">
<rect x="553" y="194" width="20" height="20" rx="10" fill="white"/>
</clipPath>
</defs>
</svg>
