<svg width="88" height="104" viewBox="0 0 88 104" fill="none" xmlns="http://www.w3.org/2000/svg">
<mask id="mask0_1735_155509" style="mask-type:luminance" maskUnits="userSpaceOnUse" x="11" y="10" width="99" height="101">
<path d="M107.871 51.0073H61.1679V70.3718H88.0504C85.5444 82.674 75.0648 89.7364 61.1679 89.7364C44.7649 89.7364 31.5515 76.5229 31.5515 60.12C31.5515 43.7171 44.7649 30.5036 61.1679 30.5036C68.2302 30.5036 74.6091 33.0097 79.6211 37.1104L94.2015 22.53C85.3166 14.7842 73.9257 10 61.1679 10C33.374 10 11.0479 32.3262 11.0479 60.12C11.0479 87.9138 33.374 110.24 61.1679 110.24C86.2279 110.24 109.01 92.0145 109.01 60.12C109.01 57.1584 108.554 53.9689 107.871 51.0073Z" fill="white"/>
</mask>
<g mask="url(#mask0_1735_155509)">
<path d="M6.4917 89.7373V30.5045L45.2208 60.1209L6.4917 89.7373Z" fill="#FBBC05"/>
</g>
<mask id="mask1_1735_155509" style="mask-type:luminance" maskUnits="userSpaceOnUse" x="11" y="10" width="99" height="101">
<path d="M107.871 51.0073H61.1679V70.3718H88.0504C85.5444 82.674 75.0648 89.7364 61.1679 89.7364C44.7649 89.7364 31.5515 76.5229 31.5515 60.12C31.5515 43.7171 44.7649 30.5036 61.1679 30.5036C68.2302 30.5036 74.6091 33.0097 79.6211 37.1104L94.2015 22.53C85.3166 14.7842 73.9257 10 61.1679 10C33.374 10 11.0479 32.3262 11.0479 60.12C11.0479 87.9138 33.374 110.24 61.1679 110.24C86.2279 110.24 109.01 92.0145 109.01 60.12C109.01 57.1584 108.554 53.9689 107.871 51.0073Z" fill="white"/>
</mask>
<g mask="url(#mask1_1735_155509)">
<path d="M6.4917 30.504L45.2208 60.1203L61.1681 46.2235L115.844 37.3385V5.44397H6.4917V30.504Z" fill="#EA4335"/>
</g>
<mask id="mask2_1735_155509" style="mask-type:luminance" maskUnits="userSpaceOnUse" x="11" y="10" width="99" height="101">
<path d="M107.871 51.0073H61.1679V70.3718H88.0504C85.5444 82.674 75.0648 89.7364 61.1679 89.7364C44.7649 89.7364 31.5515 76.5229 31.5515 60.12C31.5515 43.7171 44.7649 30.5036 61.1679 30.5036C68.2302 30.5036 74.6091 33.0097 79.6211 37.1104L94.2015 22.53C85.3166 14.7842 73.9257 10 61.1679 10C33.374 10 11.0479 32.3262 11.0479 60.12C11.0479 87.9138 33.374 110.24 61.1679 110.24C86.2279 110.24 109.01 92.0145 109.01 60.12C109.01 57.1584 108.554 53.9689 107.871 51.0073Z" fill="white"/>
</mask>
<g mask="url(#mask2_1735_155509)">
<path d="M6.4917 89.7367L74.8372 37.3385L92.8348 39.6167L115.844 5.44397V114.797H6.4917V89.7367Z" fill="#34A853"/>
</g>
<mask id="mask3_1735_155509" style="mask-type:luminance" maskUnits="userSpaceOnUse" x="11" y="10" width="99" height="101">
<path d="M107.871 51.0073H61.1679V70.3718H88.0504C85.5444 82.674 75.0648 89.7364 61.1679 89.7364C44.7649 89.7364 31.5515 76.5229 31.5515 60.12C31.5515 43.7171 44.7649 30.5036 61.1679 30.5036C68.2302 30.5036 74.6091 33.0097 79.6211 37.1104L94.2015 22.53C85.3166 14.7842 73.9257 10 61.1679 10C33.374 10 11.0479 32.3262 11.0479 60.12C11.0479 87.9138 33.374 110.24 61.1679 110.24C86.2279 110.24 109.01 92.0145 109.01 60.12C109.01 57.1584 108.554 53.9689 107.871 51.0073Z" fill="white"/>
</mask>
<g mask="url(#mask3_1735_155509)">
<path d="M115.847 114.797L45.2236 60.1209L36.1108 53.2863L115.847 30.5045V114.797Z" fill="#4285F4"/>
</g>
</svg>
