<svg width="722" height="280" viewBox="0 0 722 280" fill="none" xmlns="http://www.w3.org/2000/svg">
<path d="M501.062 128.675C445.932 109.375 324.185 58.0341 258.625 1.05285M501.062 128.675C421.521 112.78 247.931 65.4689 175.103 1.05285C175.083 1.03523 175.063 1.01762 175.043 1M501.062 128.675C398.839 119.974 167.388 82.367 44.7258 1M501.062 128.675C386.441 132.866 132.014 124.934 1 62.0202M501.062 128.675C425.598 178.509 221.97 272.662 1 258.995M501.062 128.675C410.09 163.295 186.455 217.89 1 189.645M501.062 128.675C259.298 175.065 133.506 157.811 1 128.105M501.062 128.675C454.133 170.683 353.369 241.876 239.5 279M501.062 128.675C501.062 132.688 409.384 229.641 333.597 279M501.062 128.675C483.638 162.335 442.973 232.843 403.581 279M501.062 128.675C492.438 172.932 485.312 220.493 464.5 279M501.062 128.675C508.75 161.523 524.237 237.574 524.688 279M501.062 128.675C521.312 153.373 566.2 218.015 583.75 279M501.062 128.675C536.687 152.468 614.688 215.842 641.688 279M501.062 128.675C562.75 157.539 677.688 227.556 707.5 279M501.062 128.675C559.937 142.258 688.15 176.811 721 210.713M501.062 128.675C539.687 121.25 637.75 124.872 721 140.084M501.062 128.675C538.562 111.833 635.05 76.9532 721 72.1721M501.062 128.675C540.796 95.8889 636.212 27.0594 711.438 3.78933M501.062 128.675C518.688 94.6637 565.638 21.5232 612.438 1.05285M501.062 128.675C500.687 101.364 506.575 37.6048 533.125 1.05285M501.062 128.675C487.562 102.994 461.237 41.5165 463.938 1.05285M501.062 128.675C499.379 125.415 420.062 59.782 414.438 1.05285M501.062 128.675C458.5 105.892 367.863 48.4708 345.812 1.05285" stroke="url(#paint0_linear_2896_28335)"/>
<defs>
<linearGradient id="paint0_linear_2896_28335" x1="264.189" y1="16.9592" x2="726.726" y2="44.7716" gradientUnits="userSpaceOnUse">
<stop stop-color="#F77E08" stop-opacity="0.5"/>
<stop offset="0.517676" stop-color="#F77E08" stop-opacity="0"/>
<stop offset="1" stop-color="#F77E08" stop-opacity="0.5"/>
</linearGradient>
</defs>
</svg>
