<svg width="81" height="87" viewBox="0 0 81 87" fill="none" xmlns="http://www.w3.org/2000/svg">
<path d="M1.51611 85.3243V35.09L10.0001 26.7466V40.8802L33.8613 57.1653L40.7545 51.7768L47.0286 57.1653L72.2159 40.7412V28.311L79.8161 35.7853V85.3243H1.51611Z" fill="#196CFA"/>
<path d="M1.51611 35.09V85.3243M1.51611 35.09L10.0001 26.7466V40.8802M1.51611 35.09L10.0001 40.8802M1.51611 85.3243H79.8161M1.51611 85.3243L33.8613 57.1653M79.8161 85.3243V35.7853M79.8161 85.3243L47.0286 57.1653M79.8161 35.7853L72.2159 28.311V40.7412M79.8161 35.7853L72.2159 40.7412M33.8613 57.1653L40.7545 51.7768L47.0286 57.1653M33.8613 57.1653L10.0001 40.8802M47.0286 57.1653L72.2159 40.7412" stroke="#2E33C7" stroke-width="2.175"/>
<path d="M72.2114 2.675V28.3114V39.5634C72.2114 40.2984 71.8401 40.9838 71.2244 41.3853L48.3912 56.2743C47.5812 56.8025 46.5197 56.7325 45.7861 56.1024L42.1022 52.9386C41.3159 52.2633 40.1623 52.2367 39.3457 52.875L35.1093 56.1866C34.3633 56.7698 33.3258 56.8033 32.5437 56.2695L21.9262 49.0232L10.9445 41.5283C10.3508 41.1231 9.99561 40.4507 9.99561 39.7318V26.747V2.675C9.99561 1.47378 10.9694 0.5 12.1706 0.5H70.0364C71.2376 0.5 72.2114 1.47378 72.2114 2.675Z" fill="#F4F4F5"/>
<path d="M40.5456 11.1368C40.8628 10.1176 42.3053 10.1176 42.6224 11.1367L45.5471 20.5355C45.6886 20.9901 46.1094 21.2999 46.5855 21.2999H56.1466C57.1887 21.2999 57.6341 22.624 56.8039 23.2538L48.9891 29.1823C48.6243 29.459 48.4719 29.9346 48.608 30.3718L51.5737 39.9025C51.8881 40.9127 50.721 41.7315 49.878 41.092L42.2413 35.2986C41.8527 35.0038 41.3154 35.0038 40.9268 35.2986L33.29 41.092C32.4471 41.7315 31.28 40.9127 31.5944 39.9025L34.5601 30.3718C34.6961 29.9346 34.5438 29.459 34.179 29.1823L26.3642 23.2538C25.5339 22.624 25.9794 21.2999 27.0214 21.2999H36.5826C37.0587 21.2999 37.4795 20.9901 37.6209 20.5355L40.5456 11.1368Z" fill="#FAA81A"/>
</svg>
