<svg width="81" height="94" viewBox="0 0 81 94" fill="none" xmlns="http://www.w3.org/2000/svg">
<path d="M26.1155 26.2383H5.53311C3.13067 26.2383 1.18311 28.1858 1.18311 30.5883V88.325C1.18311 90.7275 3.13066 92.675 5.5331 92.675H75.1331C77.5355 92.675 79.4831 90.7275 79.4831 88.325V30.5883C79.4831 28.1858 77.5355 26.2383 75.1331 26.2383H66.6353H55.581" stroke="#18181B" stroke-width="2.175" stroke-linejoin="round"/>
<path d="M79.4831 88.325V30.5883C79.4831 28.1858 77.5355 26.2383 75.1331 26.2383H66.6353H55.581H26.1155H5.53311C3.13067 26.2383 1.18311 28.1858 1.18311 30.5883V88.325C1.18311 90.7275 3.13066 92.675 5.5331 92.675H75.1331C77.5355 92.675 79.4831 90.7275 79.4831 88.325Z" fill="#FBC023" stroke="#18181B" stroke-width="2.175" stroke-linejoin="round"/>
<line opacity="0.8" x1="6.62119" y1="41.5625" x2="28.3712" y2="41.5625" stroke="#F77E08" stroke-width="2.175" stroke-linecap="round"/>
<line opacity="0.7" x1="6.62119" y1="48.0877" x2="63.1712" y2="48.0877" stroke="#F77E08" stroke-width="2.175" stroke-linecap="round"/>
<line opacity="0.8" x1="6.62119" y1="54.6126" x2="74.0462" y2="54.6126" stroke="#F77E08" stroke-width="2.175" stroke-linecap="round"/>
<line opacity="0.6" x1="6.62119" y1="61.1376" x2="74.0462" y2="61.1376" stroke="#F77E08" stroke-width="2.175" stroke-linecap="round"/>
<line opacity="0.5" x1="6.62119" y1="67.6626" x2="74.0462" y2="67.6626" stroke="#F77E08" stroke-width="2.175" stroke-linecap="round"/>
<line opacity="0.3" x1="6.62119" y1="74.1876" x2="74.0462" y2="74.1876" stroke="#F77E08" stroke-width="2.175" stroke-linecap="round"/>
<line opacity="0.2" x1="6.62119" y1="80.7127" x2="74.0462" y2="80.7127" stroke="#F77E08" stroke-width="2.175" stroke-linecap="round"/>
<line opacity="0.1" x1="6.62119" y1="87.2376" x2="74.0462" y2="87.2376" stroke="#F77E08" stroke-width="2.175" stroke-linecap="round"/>
<ellipse cx="6.33446" cy="30.6381" rx="1.03026" ry="1.03807" fill="#196CFA"/>
<ellipse cx="10.4546" cy="30.6382" rx="1.03026" ry="1.03807" fill="#16A34A"/>
<ellipse cx="14.5757" cy="30.6381" rx="1.03026" ry="1.03807" fill="#F03534"/>
<path d="M1.18311 34.5425H20.449M79.4831 34.5425H69.7986H60.1142" stroke="#18181B" stroke-width="2.175" stroke-linecap="round" stroke-linejoin="round"/>
<path d="M47.7279 47.2786L35.0021 47.2836C34.1068 43.489 33.2113 40.1222 32.4183 37.0696L24.398 45.1507C22.6255 41.2268 21.3099 32.2049 30.2277 27.5078C28.6704 18.2273 30.2326 11.5009 40.3222 1.33472C49.9971 11.0829 54.1538 14.0345 51.852 28.9927C58.5383 31.4591 58.2518 41.4962 57.2728 46.2064L49.8963 38.6851C49.2849 41.2774 48.5628 44.1284 47.7279 47.2786Z" fill="#196CFA"/>
<path d="M46.8577 52.6258L36.0605 52.6258C35.7311 59.1352 39.8704 62.4635 41.4203 63.3125C45.6632 60.7464 47.2103 55.1189 46.8577 52.6258Z" fill="#196CFA"/>
<path d="M32.4183 37.0696C33.2113 40.1222 34.1068 43.489 35.0021 47.2836L47.7279 47.2786C48.5628 44.1284 49.2849 41.2774 49.8963 38.6851M32.4183 37.0696L24.398 45.1507C22.6255 41.2268 21.3099 32.2049 30.2277 27.5078M32.4183 37.0696C31.4953 33.5165 30.7112 30.3891 30.2277 27.5078M30.2277 27.5078C28.6704 18.2273 30.2326 11.5009 40.3222 1.33472C49.9971 11.0829 54.1538 14.0345 51.852 28.9927M49.8963 38.6851L57.2728 46.2064C58.2518 41.4962 58.5383 31.4591 51.852 28.9927M49.8963 38.6851C50.7748 34.9603 51.4247 31.7696 51.852 28.9927M36.0605 52.6258L46.8577 52.6258C47.2103 55.1189 45.6632 60.7464 41.4203 63.3125C39.8704 62.4635 35.7311 59.1352 36.0605 52.6258Z" stroke="#196CFA" stroke-width="2.175" stroke-linejoin="round"/>
<ellipse cx="41.2921" cy="19.9097" rx="4.02595" ry="4.05648" stroke="white" stroke-width="2.175"/>
</svg>
