<?xml version="1.0" encoding="utf-8"?>
<!-- Generator: Adobe Illustrator 24.0.0, SVG Export Plug-In . SVG Version: 6.00 Build 0)  -->
<svg version="1.1" id="Layer_1" xmlns="http://www.w3.org/2000/svg" xmlns:xlink="http://www.w3.org/1999/xlink" x="0px" y="0px"
	 viewBox="0 0 760 1080" style="enable-background:new 0 0 760 1080;" xml:space="preserve">
<style type="text/css">
	.st0{clip-path:url(#SVGID_2_);}
	.st1{fill:#FAA81A;}
	.st2{fill:none;stroke:#F77E08;}
	.st3{fill-rule:evenodd;clip-rule:evenodd;fill:#FFFFFF;}
	.st4{fill-rule:evenodd;clip-rule:evenodd;fill:#18181B;}
	.st5{fill-rule:evenodd;clip-rule:evenodd;fill:#196CFA;}
	.st6{fill:#18181B;}
	.st7{fill:#FFFFFF;}
	.st8{fill-rule:evenodd;clip-rule:evenodd;fill:#2E33C7;}
	.st9{fill-rule:evenodd;clip-rule:evenodd;fill:#3D61FF;fill-opacity:0.2;}
	.st10{fill-rule:evenodd;clip-rule:evenodd;fill:#F77E08;}
</style>
<g>
	<defs>
		<rect id="SVGID_1_" width="760" height="1080"/>
	</defs>
	<clipPath id="SVGID_2_">
		<use xlink:href="#SVGID_1_"  style="overflow:visible;"/>
	</clipPath>
	<g class="st0">
		<rect class="st1" width="760" height="1080"/>
		<path class="st2" d="M411.4,750.1c52.7-82.7,192.9-265.3,348.4-363.7 M411.4,750.1C454.8,630.8,584,370.4,759.9,261.2
			c0,0,0.1-0.1,0.1-0.1 M411.4,750.1C435.2,596.8,537.9,249.6,760,65.6 M411.4,750.1C400,578.2,421.6,196.5,593.4,0 M411.4,750.1
			C275.4,636.9,18.3,331.5,55.6,0 M411.4,750.1C316.9,613.6,167.8,278.2,245,0 M411.4,750.1C284.8,387.4,331.9,198.8,413,0
			 M411.4,750.1C296.7,679.7,102.4,528.6,1,357.8 M411.4,750.1c-11,0-275.7-137.5-410.4-251.2 M411.4,750.1
			C319.5,724,127,663,1,603.9 M411.4,750.1C290.6,737.2,160.7,726.5,1,695.3 M411.4,750.1C321.7,761.6,114.1,784.9,1,785.5
			 M411.4,750.1C344,780.5,167.5,847.8,1,874.1 M411.4,750.1C346.5,803.5,173.4,920.5,1,961 M411.4,750.1
			C332.6,842.6,141.5,1015,1,1059.8 M411.4,750.1c-37.1,88.3-131.4,280.6-224,329.9 M411.4,750.1c20.3,57.9,10.4,205-31.1,329.9
			 M411.4,750.1c46,56.3,141.2,201,154.3,329.9 M411.4,750.1c89.5,59.6,277.4,202.7,341,315.6 M411.4,750.1
			C504.3,776.5,704,847,759.9,917.2 M411.4,750.1c74.6-0.6,248.6,8.3,348.4,48.1 M411.4,750.1c70.1-20.3,238-59.7,348.4-55.7
			 M411.4,750.1c8.9-2.5,188.1-121.5,348.4-129.9 M411.4,750.1c62.2-63.8,219-199.8,348.4-232.9"/>
		<path class="st3" d="M174,780.6v93.3h-14.6V837c0,0-40.3-5.5-35.1-47.1h12.1c0,0-2.9,32.8,22.9,30.7v-40H174z"/>
		<path class="st4" d="M175.7,780.6c0-0.5-0.4-1-1-1h-14.6c-0.5,0-1,0.4-1,1v39.1c-4.5,0.2-8.1-0.7-10.9-2.3
			c-4.5-2.6-7-7.1-8.4-11.6c-2.4-7.7-1.7-15.8-1.7-15.8c0-0.3-0.1-0.5-0.2-0.7c-0.2-0.2-0.4-0.3-0.7-0.3h-12.1c-0.5,0-0.9,0.3-1,0.8
			c-1.6,12.8,1,22.2,5.4,29.2c9,14.3,25.8,18.2,29.7,18.9v36.1c0,0.5,0.4,1,1,1h14.6c0.5,0,1-0.4,1-1V780.6z M173.8,781.5V873h-12.7
			v-36c0-0.5-0.4-0.9-0.8-0.9c0,0-19.3-2.6-29.1-18.2c-4.1-6.5-6.5-15.3-5.2-27.1h10.3c-0.1,2.5-0.1,9,1.9,15.4
			c1.6,5,4.4,9.9,9.3,12.7c3.3,1.9,7.5,3,12.9,2.5c0.5,0,0.9-0.5,0.9-0.9v-39H173.8z"/>
		<path class="st3" d="M69.7,785.8c-0.5,4.2,0.8,8.5,3.6,11.6c2.8,3.2,6.9,5,11.1,5h138.5c7.8,0,14.3-6.1,14.8-13.9
			c1.1-18.8-1.3-49.2-29.8-44c0,0,9.2-85.6-33.5-88.1c-35.6-2.2-40.4,42.2-40.4,42.2s-25.7-8.2-36.9,13.8
			c-11.3,21.9-4.6,51.6-4.6,51.6S72.2,765.5,69.7,785.8z"/>
		<path class="st5" d="M67.1,786.3c-0.6,4.5,0.8,9,3.8,12.4c3,3.4,7.3,5.3,11.8,5.3h138.5c8.4,0,15.3-6.5,15.8-14.8
			c0.5-7.6,0.3-17.1-1.8-25.4c-2-7.7-5.7-14.3-12.2-17.8c-4.1-2.1-9.2-3.1-15.7-2.1c0.5-6,2.4-32.7-3.4-55.1
			c-4.5-17.2-13.6-31.8-31.1-32.9c-18.3-1.1-28.7,9.7-34.5,20.8c-4.7,8.9-6.3,18-6.8,21.1c-5.1-1.3-26.8-5.3-37,14.6
			c-10.1,19.8-5.9,45.8-4.9,51.2C85.4,764.4,69.4,768.1,67.1,786.3z M69,786.5c2.4-19.5,21.9-21,21.9-21c0.3,0,0.5-0.2,0.7-0.4
			c0.2-0.2,0.2-0.5,0.2-0.8c0,0-6.6-29.3,4.5-51c10.9-21.2,35.8-13.3,35.8-13.3c0.3,0.1,0.6,0,0.8-0.1c0.2-0.1,0.4-0.4,0.4-0.7
			c0,0,1.2-10.9,6.7-21.5c5.5-10.5,15.3-20.8,32.7-19.8c16.6,1,25.1,15.1,29.3,31.4c6.5,25.1,3.2,55.7,3.2,55.7
			c0,0.3,0.1,0.6,0.3,0.8c0.2,0.2,0.5,0.3,0.8,0.2c6.6-1.2,11.7-0.4,15.7,1.7c6,3.2,9.4,9.5,11.2,16.6c2.1,8.1,2.2,17.4,1.8,24.8
			c-0.4,7.3-6.5,13-13.9,13H82.8c-4,0-7.8-1.7-10.4-4.7C69.8,794.4,68.5,790.5,69,786.5z"/>
		<path class="st4" d="M124.1,745.6c-0.1,0.7-0.5,1.2-1.2,1.5c-0.6,0.3-1.3,0.2-1.9-0.2c-4.2-2.9-11.9-9.7-7-18.8
			c0.4-0.7,1.3-1.2,2.1-1C119.3,727.9,126.5,731,124.1,745.6z M168.6,712.7c-0.6,0.4-1.3,0.5-2,0.3c-0.7-0.3-1.1-0.9-1.2-1.6
			c-0.5-4-0.4-10.6,6.1-12.8c0.9-0.3,1.9,0.1,2.4,0.9C175.1,701.8,176.4,706.8,168.6,712.7z M170.3,772.9c-0.7,0.2-1.4,0.1-1.9-0.4
			c-0.5-0.4-0.8-1.1-0.7-1.8c0.7-4.6,3.3-12.9,12.1-12.7c0.9,0,1.7,0.6,1.9,1.5C182.3,762.4,182.3,769.1,170.3,772.9z"/>
		<path class="st3" d="M253.3,757.3l-22.9,17.4l-6.5,23.1l23.2,10.2l23.8-16.8L253.3,757.3z"/>
		<path class="st4" d="M254.2,756.9c-0.1-0.2-0.4-0.4-0.6-0.5c-0.3-0.1-0.6,0-0.8,0.2L229.9,774c-0.2,0.1-0.3,0.3-0.3,0.5l-6.5,23.1
			c-0.1,0.5,0.1,0.9,0.5,1.1l23.2,10.2c0.3,0.1,0.7,0.1,0.9-0.1l23.8-16.8c0.4-0.3,0.5-0.8,0.3-1.2L254.2,756.9z M253,758.8l16.6,32
			L247,806.9l-21.9-9.6l6.2-21.9L253,758.8z"/>
		<path class="st3" d="M286.9,802.4l1.3,21.4h35.3v-21.4H286.9z"/>
		<path class="st4" d="M286.9,801.4c-0.3,0-0.5,0.1-0.7,0.3c-0.2,0.2-0.3,0.5-0.3,0.7l1.3,21.4c0,0.5,0.5,0.9,1,0.9h35.3
			c0.5,0,1-0.4,1-1v-21.4c0-0.5-0.4-1-1-1H286.9z M288,803.4h34.7v19.5h-33.5L288,803.4z"/>
		<path class="st3" d="M319.4,541.9l43.1,121L249,754.8c5.7,16.8,13.7,32.1,25.6,44.5c0,0,102.8-75.7,140.9-103.7
			c8.5-6.2,12.4-17,9.9-27.2c-10.2-42.8-36.3-152-36.3-152L319.4,541.9z"/>
		<path class="st4" d="M319.1,541c-0.5,0.2-0.7,0.7-0.6,1.2l42.9,120.3l-113,91.5c-0.3,0.3-0.4,0.7-0.3,1.1
			c5.7,16.9,13.8,32.3,25.8,44.9c0.3,0.3,0.9,0.4,1.3,0.1c0,0,102.8-75.6,140.9-103.7c8.8-6.5,12.8-17.6,10.3-28.2
			c-10.2-42.8-36.3-152-36.3-152c-0.1-0.3-0.2-0.5-0.5-0.6c-0.2-0.1-0.5-0.1-0.8-0.1L319.1,541z M320.6,542.5l67.8-24.8l36,151
			c2.4,9.9-1.4,20.2-9.6,26.2c-36.3,26.7-131.2,96.6-140.2,103.2c-11.4-12.1-19-26.8-24.6-42.9c8.3-6.7,113-91.5,113-91.5
			c0.3-0.3,0.4-0.7,0.3-1.1L320.6,542.5z"/>
		<path class="st3" d="M271.9,560.8l5.9,246.9c18.7,3.4,34.5,3.3,52,0l6.1-262.4l-49.4-10L271.9,560.8z"/>
		<path class="st4" d="M271.1,560.3c-0.1,0.2-0.1,0.3-0.1,0.5l5.9,246.9c0,0.5,0.3,0.8,0.8,0.9c18.8,3.4,34.8,3.3,52.4,0
			c0.4-0.1,0.8-0.5,0.8-0.9l6.1-262.4c0-0.5-0.3-0.9-0.8-0.9l-49.4-9.9c-0.4-0.1-0.8,0.1-1,0.5L271.1,560.3z M272.9,561l14.3-24.7
			c0,0,41.6,8.4,47.9,9.7c-0.4,15.4-5.8,245.7-6.1,260.8c-16.8,3.1-32.2,3.2-50.2,0L272.9,561z M230.5,774.7c0,0-7,22.4,21.1,30.1
			c3.1,0.8,4.1,3.6,1.7,9c-2.3,5.4-4.7,26.3,5.5,44.8c0,0,5.8,2.1,7,3.6c0.8,1,0.6,5.9,0.3,9c-0.1,1.4-1.3,2.5-2.8,2.5H227
			c-0.9,0-1.8-0.5-2.3-1.2c-13.5-20.7-24.1-41.5-33.1-62.4c-1.4-3.3-0.8-7.1,1.6-9.8C202.1,790.8,223.3,768.9,230.5,774.7z"/>
		<path class="st4" d="M277.9,870.1c0.1,2.1,1.8,3.7,3.9,3.7h50.8c1.7,0,3.2-1.1,3.7-2.7c1.1-3.3,2.2-9.3,0.2-16.6
			c-3.1-11.2-6.3-7.8-7.8-23.5c-1.9-19.7-44-18.5-44.6-4.8c-0.5,9.9,1,9.7-2.5,16.7C278.3,849,277.5,859.7,277.9,870.1z"/>
		<path class="st3" d="M292,848.6c9.8-3.7,19.3-3.6,28.7,0c0.5,0.2,1.1-0.1,1.2-0.5c0.2-0.5-0.1-1-0.5-1.2c0,0,0,0,0,0
			c-9.8-3.8-19.8-3.9-30.1,0c-0.5,0.2-0.7,0.7-0.6,1.2c0,0,0,0,0,0C291,848.5,291.5,848.8,292,848.6z"/>
		<path class="st3" d="M290.6,843c10.7-3.7,21.2-3.6,31.5,0c0.5,0.2,1-0.1,1.2-0.6c0.2-0.5-0.1-1-0.6-1.2c-10.7-3.7-21.6-3.8-32.8,0
			c-0.5,0.2-0.8,0.7-0.6,1.2C289.5,842.9,290.1,843.2,290.6,843z M251.2,828.5c-1.4,0.7-4.9,2.2-10.3,1.9c-0.5,0-1,0.4-1,0.9
			c0,0.5,0.4,1,0.9,1c0,0,0,0,0,0c5.9,0.4,9.8-1.3,11.3-2.1c0.5-0.2,0.6-0.8,0.4-1.3C252.3,828.4,251.7,828.2,251.2,828.5z
			 M252.1,837.3c-1.9,0.7-4.8,1.4-8.6,1.2c-0.5,0-1,0.4-1,0.9c0,0.6,0.4,1,0.9,1c4.2,0.2,7.4-0.5,9.4-1.3c0.5-0.2,0.7-0.7,0.6-1.2
			C253.1,837.4,252.6,837.1,252.1,837.3z M253.6,845c-1.9,0.6-4.7,1.3-8.4,1.1c-0.5,0-1,0.4-1,0.9c0,0.6,0.4,1,0.9,1
			c4,0.2,7.1-0.5,9.1-1.2c0.5-0.2,0.8-0.7,0.6-1.2C254.6,845.1,254.1,844.8,253.6,845z"/>
		<path class="st4" d="M310.9,326.6c0,0-22.8-0.5-35,24.7l31.8,24.7c0,0,23.2-11.1,15.8-39.8L310.9,326.6z"/>
		<path class="st3" d="M313.6,335.3l6.1,18.5c13.7,3.3,24.7,1.7,38.4-5.2l-7.9-25.5l-18.3,1.4L313.6,335.3z"/>
		<path class="st4" d="M313.1,334.5c-0.4,0.2-0.6,0.7-0.4,1.1l6.1,18.5c0.1,0.3,0.3,0.6,0.7,0.6c14,3.4,25.1,1.8,39.1-5.3
			c0.4-0.2,0.6-0.7,0.5-1.1l-7.9-25.5c-0.1-0.4-0.6-0.7-1-0.7l-18.3,1.4c-0.1,0-0.3,0-0.4,0.1L313.1,334.5z M314.8,335.8l17.5-10.3
			l17.3-1.3l7.4,23.9c-13,6.4-23.4,7.9-36.5,4.9L314.8,335.8z M371.9,320.5c0,0,23-8.6,44.2,12.8l-7.5,11.5l-6.4-1.2l3.6,4.5
			l-13.4,21.5c0,0-27.5-3.1-30.1-34.9L371.9,320.5z"/>
		<path class="st3" d="M359.4,335.4c-1.3-0.8-1.6-2.6-0.8-3.8c2.2-3.4,6.3-9.6,8.5-13c0.8-1.3,2.5-1.6,3.8-0.8
			c1.3,0.8,1.6,2.6,0.8,3.8l-8.5,13C362.4,335.9,360.7,336.2,359.4,335.4z"/>
		<path class="st4" d="M358.9,336.2c1.7,1.1,4,0.6,5.2-1.1c2.2-3.4,6.3-9.6,8.5-13c1.1-1.7,0.6-4-1.1-5.1c-1.7-1.1-4-0.6-5.2,1.1
			c-2.8,4.3-5.7,8.6-8.5,13C356.7,332.8,357.2,335.1,358.9,336.2z M360,334.6c-0.8-0.5-1.1-1.7-0.5-2.5c0,0,0,0,0,0l8.5-13
			c0.5-0.8,1.6-1.1,2.5-0.5c0,0,0,0,0,0c0.8,0.5,1.1,1.7,0.5,2.5c0,0,0,0,0,0l-8.5,13C361.9,334.9,360.8,335.1,360,334.6z"/>
		<path class="st3" d="M352.4,284.7c0,0,5.3,1.4,11.4,5.3c6.1,3.9,5,19.4,3,22.5c-2,3.1-8,7.5-12.3,7.7c0,0-3.8,6-11.2,12.6
			c-7.4,6.7-22.2,11-36,3.1c-5.8-3.3-9-9.9-10.7-15c-1.6-5.1-8-26-8-26l11.7-27l37.3-1.2l11.6,19L352.4,284.7z"/>
		<path class="st4" d="M352.6,283.7c-0.2,0-0.3,0-0.5,0l-2.5,0.7l-11.2-18.4c-0.2-0.3-0.5-0.5-0.9-0.5l-37.3,1.2
			c-0.4,0-0.7,0.2-0.9,0.6l-11.7,27c-0.1,0.2-0.1,0.4,0,0.7c0,0,6.4,20.9,8,26c1.7,5.3,5.1,12.1,11.1,15.6
			c14.1,8.1,29.4,3.6,37.1-3.3c6.4-5.7,10.1-11,11.1-12.5c4.6-0.5,10.6-5,12.6-8.1c0.4-0.6,0.8-1.7,1.1-3c0.6-2.9,0.9-7.3,0.3-11.4
			c-0.6-4-2.1-7.7-4.7-9.4C358,285.1,352.6,283.7,352.6,283.7z M352.4,285.6c1.1,0.3,5.7,1.8,10.9,5.1c2.2,1.4,3.3,4.6,3.8,8
			c0.5,3.3,0.3,6.8,0,9.5c-0.3,1.7-0.6,3-1.1,3.6c-1.9,2.9-7.5,7-11.6,7.3c-0.3,0-0.6,0.2-0.8,0.4c0,0-3.7,5.9-11,12.5
			c-7.2,6.5-21.6,10.6-34.8,3c-5.6-3.2-8.7-9.6-10.2-14.5c-1.5-4.7-7.1-23-7.9-25.7l11.3-26.1l36.1-1.2l11.3,18.5
			c0.2,0.4,0.7,0.5,1.1,0.4L352.4,285.6z"/>
		<path class="st4" d="M360.2,294.9c0,0-4.8,2.1-9.5,7.2c-0.4,0.4-0.3,1,0.1,1.4c0.4,0.4,1,0.3,1.3-0.1c4.3-4.7,8.8-6.7,8.8-6.7
			c0.5-0.2,0.7-0.8,0.5-1.3C361.2,294.9,360.6,294.6,360.2,294.9z"/>
		<path class="st4" d="M359.7,301.6c0,0-2.7-1.9-4.9-2.7c-0.5-0.2-1.1,0.1-1.2,0.6c-0.2,0.5,0,1.1,0.5,1.2c1.9,0.7,4.4,2.5,4.4,2.5
			c0.4,0.3,1,0.2,1.3-0.2C360.3,302.5,360.2,301.9,359.7,301.6z M311.1,309.9l-0.4,7.4c0,0.5,0.4,1,0.9,1c0.5,0,1-0.4,1-0.9l0.4-7.4
			c0-0.5-0.4-1-0.9-1C311.6,309,311.2,309.4,311.1,309.9z M330,293.2c0,0-8.2-4.1-14,3.4c-0.3,0.4-0.3,1,0.2,1.3c0,0,0,0,0,0
			c0.4,0.3,1,0.2,1.4-0.2c4.8-6.2,11.6-2.8,11.6-2.8c0.5,0.2,1.1,0.1,1.3-0.4C330.6,294,330.4,293.4,330,293.2z M315.4,327.3
			c0,0,9.2,0.7,11.7-8.4c0.1-0.5-0.1-1-0.6-1.2c0,0,0,0,0,0c-0.5-0.1-1.1,0.2-1.2,0.7c-2.1,7.6-9.7,7-9.7,7c-0.5,0-1,0.4-1,0.9
			C314.5,326.8,314.9,327.3,315.4,327.3z M307.4,297.3c0,0-8.2-4.1-14,3.4c-0.3,0.4-0.3,1,0.2,1.3c0,0,0,0,0,0
			c0.4,0.3,1,0.2,1.4-0.2c4.8-6.2,11.6-2.8,11.6-2.8c0.5,0.2,1.1,0,1.3-0.4C308.1,298.1,307.9,297.5,307.4,297.3z"/>
		<path class="st6" d="M320.3,307.2c-1.3-0.3-2.1-1.5-1.9-2.8c0.3-1.3,1.5-2.1,2.8-1.9s2.1,1.5,1.9,2.8
			C322.9,306.6,321.6,307.4,320.3,307.2z M300,311c-1.3-0.3-2.1-1.5-1.9-2.8c0.3-1.3,1.5-2.1,2.8-1.9c1.3,0.3,2.1,1.5,1.9,2.8
			C302.5,310.4,301.2,311.3,300,311z"/>
		<path class="st4" d="M348.5,290.1c0,0,0.3,44.1-0.8,42.9c-1.5-1.6-6.1-43.8-6.1-43.8l-12.1-1.2l-5-13.4l-1.3,13.5
			c0,0-24.5,6.1-37.3,10.6c0,0-12.5-37.8,28.1-48.9c29.3-8,65.8,16.7,55.2,68.5l-9.6,15.1l-7-1.8l-2.2-6.4l-0.2-4.7
			c0,0,2.1-4.7,2.3-10.2c0,0,13.4-0.8,13.9-10.6C367.1,284.2,348.5,290.1,348.5,290.1z"/>
		<path class="st3" d="M364.1,351.1c0,0-2.3-9.3-5.4-9.8c-3.1-0.5-41.4,9.8-41.4,9.8s-3.6,0.5-1.9,6c0,0-9.9,2.2-14.9,4l-2.7,187
			c0,0,41.1,4.2,81.6-4.4l-3.2-190.2L364.1,351.1z"/>
		<path class="st4" d="M364.9,350.2c-0.4-1.4-1.4-4.8-2.8-7.1c-0.9-1.5-2-2.6-3.2-2.8c-0.7-0.1-2.8,0.2-5.9,0.8
			c-11.1,2.3-34.7,8.7-35.9,9c-0.4,0.1-1.8,0.4-2.6,2c-0.4,0.9-0.7,2.2-0.3,4.2c-2.6,0.6-10,2.3-14.1,3.8c-0.4,0.1-0.6,0.5-0.6,0.9
			l-2.7,187c0,0.5,0.4,0.9,0.9,1c0,0,41.3,4.2,81.9-4.5c0.5-0.1,0.8-0.5,0.8-0.9l-3.2-190.2c0-0.5-0.3-0.9-0.8-0.9L364.9,350.2z
			 M363.2,351.3c0.1,0.4,0.4,0.6,0.8,0.7l11.4,2.2c0,0,2.9,175.4,3.2,188.6c-36.6,7.7-73.6,4.9-79.7,4.4l2.7-185.4
			c5.1-1.7,14.2-3.8,14.2-3.8c0.3-0.1,0.5-0.2,0.6-0.4c0.1-0.3,0.2-0.5,0.1-0.8c-0.6-1.9-0.5-3-0.1-3.8c0.4-0.8,1.2-1,1.2-1
			c0,0,0.1,0,0.1,0c0,0,24.5-6.6,35.8-9c2.7-0.5,4.5-0.9,5.1-0.8c0.3,0.1,0.6,0.3,0.8,0.5c0.4,0.4,0.7,0.9,1,1.4
			C362.1,346.9,363.2,351.3,363.2,351.3z"/>
		<path class="st5" d="M306.4,359.3c-1,0.2-20,6.1-23.2,8.1l-22.3,92.8v108.4c16.7,1.8,33.5,2.3,50.5-1
			C308.6,502,306.6,433.7,306.4,359.3z M368.3,351.9c2.5,83.9,1.6,150.6,0,213.5c17.2,0.8,34.1-1.2,50.8-6.6l-18.8-197.4
			C390.9,356.8,379.9,353.9,368.3,351.9z"/>
		<path class="st4" d="M322.9,360.8c0,0,25.8-4.5,36-4.9c0.6,0,1-0.5,0.9-1c0-0.5-0.4-0.9-0.9-0.9c0,0,0,0-0.1,0
			c-10.3,0.4-36.3,4.9-36.3,4.9c-0.5,0.1-0.9,0.6-0.8,1.1c0,0,0,0,0,0C321.8,360.5,322.3,360.9,322.9,360.8z"/>
		<path class="st5" d="M200.7,300.8l4.7,29.7c0.1,0.5,0.6,0.9,1.1,0.8c0.5-0.1,0.9-0.6,0.8-1.1l-4.7-29.7c-0.1-0.5-0.6-0.9-1.1-0.8
			C201,299.8,200.7,300.3,200.7,300.8z M168.9,322.6l17,15.7c0.4,0.3,1,0.3,1.4-0.1c0.4-0.4,0.3-1,0-1.4l-17-15.7
			c-0.4-0.4-1-0.4-1.4,0C168.5,321.6,168.6,322.2,168.9,322.6z M233.9,312.8l-6.3,17.1c-0.2,0.5,0.1,1.1,0.6,1.2
			c0.5,0.2,1,0,1.2-0.5c0,0,0,0,0,0l6.3-17.2c0.2-0.5-0.1-1.1-0.6-1.2C234.7,312.1,234.1,312.3,233.9,312.8z"/>
		<path class="st4" d="M132.8,550.8l50.7,17.4c0.5,0.2,1.1-0.1,1.2-0.6c0.2-0.5-0.1-1.1-0.6-1.2L133.4,549c-0.5-0.2-1,0.1-1.2,0.6
			c0,0,0,0,0,0C132,550.1,132.3,550.7,132.8,550.8z"/>
		<path class="st5" d="M621.1,413.9L594,450.1c-0.3,0.4-0.2,1,0.2,1.3c0.4,0.3,1,0.2,1.3-0.2l27.1-36.2c0.3-0.4,0.2-1-0.2-1.4
			C622,413.4,621.5,413.5,621.1,413.9z M105.7,610.6c-3.8,0-6.8,3.1-6.8,6.8c0,3.8,3.1,6.8,6.8,6.8c3.8,0,6.8-3.1,6.8-6.8
			C112.5,613.7,109.4,610.6,105.7,610.6z M105.7,612.5c2.7,0,4.9,2.2,4.9,4.9c0,2.7-2.2,4.9-4.9,4.9c-2.7,0-4.9-2.2-4.9-4.9
			C100.7,614.7,102.9,612.5,105.7,612.5z M686.2,810.6c-3.7,0-6.8,3-6.8,6.8c0,3.7,3,6.8,6.8,6.8s6.8-3,6.8-6.8
			C693,813.6,690,810.6,686.2,810.6z M686.2,812.5c2.7,0,4.8,2.2,4.8,4.8c0,2.7-2.2,4.8-4.8,4.8c-2.7,0-4.8-2.2-4.8-4.8
			C681.4,814.7,683.6,812.5,686.2,812.5z"/>
		<path class="st6" d="M491.1,347.2c16.8,0,30.4-13.6,30.4-30.4c0-16.8-13.6-30.4-30.4-30.4c-16.8,0-30.4,13.6-30.4,30.4
			S474.3,347.2,491.1,347.2z"/>
		<path class="st3" d="M505.6,312.4c0-1.1-0.4-2.1-1.2-2.9c-0.8-0.8-1.8-1.2-2.9-1.2h-20.8c-1.1,0-2.1,0.4-2.9,1.2
			c-0.8,0.8-1.2,1.8-1.2,2.9v18.1c0,1.1,0.4,2.1,1.2,2.9c0.8,0.8,1.8,1.2,2.9,1.2h20.8c1.1,0,2.1-0.4,2.9-1.2
			c0.8-0.8,1.2-1.8,1.2-2.9V312.4z"/>
		<path class="st3" d="M483.7,308.3c0-4.6,3.3-8.4,7.4-8.4s7.4,3.8,7.4,8.4c0,0.5,0.4,0.9,1,0.9c0.5,0,1-0.4,1-0.9
			c0-5.7-4.2-10.4-9.3-10.4s-9.3,4.6-9.3,10.4c0,0.5,0.4,0.9,1,0.9C483.3,309.3,483.7,308.9,483.7,308.3z"/>
		<path class="st4" d="M494.2,320c0-1.7-1.4-3.1-3.1-3.1c0,0,0,0,0,0c-1.7,0-3.1,1.4-3.1,3.1c0,0,0,0,0,0v2.9c0,1.7,1.4,3.1,3.1,3.1
			c0,0,0,0,0,0c1.7,0,3.1-1.4,3.1-3.1V320z"/>
		<path class="st6" d="M112.6,483c16.8,0,30.4-13.6,30.4-30.4c0-16.8-13.6-30.4-30.4-30.4c-16.8,0-30.4,13.6-30.4,30.4
			C82.2,469.4,95.8,483,112.6,483z"/>
		<path class="st3" d="M112.6,446.1c-6.9,0-13.1,1.8-16.9,4.6c-2.7,2-4.3,4.5-4.3,7.2c0,2.7,1.6,5.2,4.3,7.2
			c3.8,2.8,10,4.6,16.9,4.6s13.1-1.8,16.9-4.6c2.7-2,4.3-4.5,4.3-7.2c0-2.7-1.6-5.2-4.3-7.2C125.7,448,119.6,446.1,112.6,446.1z
			 M112.6,448.1c6.5,0,12.2,1.7,15.8,4.3c2.2,1.6,3.5,3.5,3.5,5.6c0,2.1-1.3,4-3.5,5.6c-3.6,2.6-9.3,4.3-15.8,4.3
			c-6.5,0-12.2-1.7-15.8-4.3c-2.2-1.6-3.5-3.5-3.5-5.6c0-2.1,1.3-4.1,3.5-5.6C100.4,449.7,106.1,448.1,112.6,448.1z"/>
		<path class="st7" d="M112.6,468.7c5.9,0,10.7-4.8,10.7-10.7c0-5.9-4.8-10.7-10.7-10.7c-5.9,0-10.7,4.8-10.7,10.7
			C101.9,463.9,106.7,468.7,112.6,468.7z"/>
		<path class="st6" d="M112.6,464.2c3.4,0,6.2-2.8,6.2-6.2c0-3.4-2.8-6.2-6.2-6.2c-3.4,0-6.2,2.8-6.2,6.2S109.2,464.2,112.6,464.2z"
			/>
		<path class="st7" d="M108.7,456.9c1.6,0,2.9-1.3,2.9-2.9c0-1.6-1.3-2.9-2.9-2.9c0,0,0,0,0,0c-1.6,0-2.9,1.3-2.9,2.9
			C105.7,455.6,107,456.9,108.7,456.9z"/>
		<path class="st3" d="M112.7,442.3v-5.8c0-0.5-0.4-1-1-1s-1,0.4-1,1v5.8c0,0.5,0.4,1,1,1S112.7,442.8,112.7,442.3z M105.7,442.6
			l-1.9-4.2c-0.2-0.5-0.8-0.7-1.3-0.5c-0.5,0.2-0.7,0.8-0.5,1.3l1.8,4.2c0.2,0.5,0.8,0.7,1.3,0.5c0,0,0,0,0,0
			C105.7,443.7,105.9,443.1,105.7,442.6z M119.6,443.4l1.8-4.2c0.2-0.5,0-1-0.5-1.3c-0.5-0.2-1.1,0-1.3,0.5l-1.9,4.2
			c-0.2,0.5,0,1.1,0.5,1.3C118.8,444.1,119.4,443.9,119.6,443.4z M98.6,444.8l-2.4-2.4c-0.4-0.4-1-0.4-1.3,0c0,0,0,0,0,0
			c-0.4,0.4-0.4,1,0,1.4l2.4,2.4c0.4,0.4,1,0.4,1.4,0C98.9,445.8,98.9,445.1,98.6,444.8z M126.3,446.1l2.4-2.4c0.4-0.4,0.4-1,0-1.4
			c-0.4-0.4-1-0.4-1.3,0c0,0,0,0,0,0l-2.4,2.4c-0.4,0.4-0.4,1,0,1.4C125.3,446.5,125.9,446.5,126.3,446.1z M520.9,868.8
			c-102.2-51.1-163.7-146.2-164-307.6l164.6-63.1l164.6,63.1C685.8,722.9,624,818,521.5,869.1L520.9,868.8z"/>
		<path class="st5" d="M520.5,869.6l0.6,0.3c0.3,0.1,0.6,0.1,0.9,0c102.8-51.2,164.8-146.6,165.1-308.7c0-0.4-0.2-0.8-0.6-0.9
			l-164.6-63.1c-0.2-0.1-0.5-0.1-0.7,0l-164.6,63.1c-0.4,0.2-0.6,0.5-0.6,0.9C356.3,723,418.1,818.4,520.5,869.6z M521.4,867.9
			c-101.7-50.9-163-145.5-163.5-306l163.6-62.7c8,3.1,153,58.6,163.6,62.7c-0.5,160.6-61.8,255.3-163.6,306.1L521.4,867.9z"/>
		<path class="st8" d="M521.1,821.1c-75.8-37.9-121.5-108.5-121.8-228.4l122.2-46.8l122.2,46.8c-0.2,120.1-46.1,190.7-122.2,228.6
			L521.1,821.1z"/>
		<path class="st3" d="M458.5,682.6l43.5,36.3c6.3,5.2,15.6,4.6,21.2-1.4l62.8-68.3c5.7-6.2,5.3-16-0.9-21.7
			c-6.2-5.7-16-5.3-21.7,0.9l-52.9,57.5l-32.3-26.9c-6.5-5.4-16.2-4.5-21.7,2C451.1,667.5,452,677.2,458.5,682.6z M350.5,533.8
			c0,0-23.9,18.4-31,42.4c-0.5,1.6,0.2,3.3,1.7,4.1l0,0c0.9,0.5,1.9,0.6,2.9,0.3c1-0.3,1.8-0.9,2.3-1.8c2.9-5.3,8.6-15.3,13-19.7
			c0,0-1.6,5-2.5,9.9c-0.7,3.8,3.9,14.3,6,18.8c0.4,0.9,1.2,1.5,2.1,1.8c0.9,0.3,1.9,0.2,2.7-0.2c0.5-0.3,1-0.7,1.5-1.2
			c0,0,3.2,1.6,6-1c0,0,1.3,0.4,2.6,0.2c1.3-0.2,2.2-1.3,2.2-2.6c0-3.3,0-11.5,0-11.5v-5.8l7.1-6.1l-11.3-27.8H350.5z"/>
		<path class="st4" d="M350.5,532.8c-0.2,0-0.4,0.1-0.6,0.2c0,0-24.2,18.6-31.3,42.9v0c-0.5,1.8,0.1,3.7,1.6,4.8
			c0.1,0.3,0.5,0.4,0.5,0.4c1.1,0.6,2.4,0.8,3.6,0.4c1.2-0.3,2.2-1.2,2.9-2.2l0,0c2.2-4.1,6.3-11.3,10-16.2
			c-0.5,1.7-0.9,3.8-1.3,5.8c-0.2,1.2,0.1,3.1,0.6,5.3c1.3,4.7,4,10.9,5.5,14.1c0.5,1.1,1.5,2,2.6,2.3c1.2,0.4,2.4,0.3,3.5-0.3
			c0.4-0.2,0.9-0.6,1.3-1c1.2,0.4,3.7,0.8,6-1c0.6,0.1,1.5,0.3,2.5,0.1h0c1.7-0.3,3-1.8,3-3.5c0-3.3,0-11.5,0-11.5v-5.4l6.8-5.8
			c0.3-0.3,0.4-0.7,0.3-1.1l-11.3-27.8c-0.1-0.4-0.5-0.6-0.9-0.6H350.5z M322.1,579.6l-0.3-0.2c0,0,0,0-0.1,0
			c-1.1-0.6-1.6-1.8-1.2-3c6.6-22.3,27.8-39.7,30.4-41.7h4.3l10.8,26.6l-6.6,5.6c-0.2,0.2-0.3,0.5-0.3,0.7v5.8c0,0,0,8.2,0,11.5
			c0,0.8-0.6,1.5-1.4,1.6c-1.1,0.2-2.1-0.2-2.1-0.2c-0.3-0.1-0.7,0-1,0.2c-2.3,2.1-4.9,0.8-4.9,0.8c-0.4-0.2-0.8-0.1-1.1,0.2
			c-0.4,0.5-0.9,0.8-1.3,1.1c-1.2,0.7-2.7,0.2-3.4-1c0,0,0-0.1-0.1-0.1c-1.5-3.1-4.1-9.2-5.4-13.8c-0.5-1.9-0.8-3.4-0.6-4.5
			c0.8-4.8,2.5-9.8,2.5-9.8c0.1-0.4,0-0.9-0.4-1.1c-0.4-0.2-0.9-0.2-1.2,0.1c-4.5,4.4-10.3,14.5-13.2,19.9c-0.4,0.7-1,1.1-1.7,1.3
			C323.2,579.9,322.6,579.8,322.1,579.6z M321.7,579.5L321.7,579.5L321.7,579.5c0.1,0.1,0.2,0.1,0.3,0.2c0.2,0.2,0.3,0.5-0.1,1.1
			C322.3,580.3,322.2,579.8,321.7,579.5C321.7,579.5,321.7,579.5,321.7,579.5L321.7,579.5z"/>
		<path class="st5" d="M400.3,361.3c0,0-21.4,19.9-17.9,58.3l27.8,66.2c0,0-37.4,23.2-43.3,28c-5.9,4.8-6.8,10.4-6.8,10.4l-11,9.6
			l17.8,29.8c0,0,77.3-30.2,83.7-39.4c6.4-9.1,12.7-29.4,0-65.5C418.6,368.1,400.3,361.3,400.3,361.3z"/>
		<path class="st4" d="M381.5,419.9l27.5,65.4c-5.1,3.2-37.2,23.2-42.7,27.7c-5.3,4.4-6.8,9.3-7.1,10.6l-10.8,9.3
			c-0.4,0.3-0.4,0.8-0.2,1.2l17.8,29.8c0.3,0.5,0.9,0.6,1.3,0.3c0.5-0.3,0.6-0.9,0.3-1.3l-17.4-29.2l10.4-9c0.2-0.1,0.3-0.3,0.3-0.6
			c0,0,0.9-5.2,6.5-9.8c5.9-4.9,43.2-28,43.2-28c0.4-0.3,0.6-0.7,0.4-1.2l-27.8-66.2c-0.2-0.5-0.8-0.7-1.3-0.5
			C381.5,418.9,381.3,419.4,381.5,419.9z M344.6,567.3v5.9c0,0.1,0,0.1,0,0.2l3.7,15.1c0.1,0.5,0.6,0.9,1.2,0.7
			c0.5-0.1,0.8-0.6,0.7-1.1l-3.6-15v-5.8c0-0.5-0.4-1-1-1C345.1,566.3,344.6,566.8,344.6,567.3z M352.3,567.3v5.9c0,0,0,0.1,0,0.1
			l2,14.2c0.1,0.5,0.6,0.9,1.1,0.8c0.5-0.1,0.9-0.6,0.8-1.1l-2-14.1v-5.8c0-0.5-0.4-1-1-1C352.7,566.3,352.3,566.8,352.3,567.3z"/>
		<path class="st4" d="M362.4,528.7c0,0,7.4,12.1,13.5,25.6c0.2,0.5,0.8,0.7,1.3,0.5c0.5-0.2,0.7-0.8,0.5-1.3
			c-6.2-13.7-13.6-25.9-13.6-25.9c-0.3-0.5-0.9-0.6-1.3-0.3C362.2,527.7,362.1,528.3,362.4,528.7z M410.4,486.7
			c0,0,10.8-1.9,17.8,5.5c0.4,0.4,1,0.4,1.4,0.1c0.4-0.4,0.4-1,0-1.4c-7.6-8.2-19.5-6.1-19.5-6.1c-0.5,0.1-0.9,0.6-0.8,1.1
			C409.4,486.4,409.8,486.7,410.4,486.7z"/>
		<path class="st3" d="M187.6,380.8c0,0-3.1,1.4-3.5,11.9c-0.4,10.5,10,36.7,10,36.7s10.7,8.7,26-2.2l-2.5-21.3L187.6,380.8z"/>
		<path class="st4" d="M188.2,380.1c-0.3-0.3-0.7-0.3-1-0.1c0,0-3.6,1.4-4.1,12.7c-0.4,10.7,10.1,37.1,10.1,37.1
			c0.1,0.1,0.2,0.3,0.3,0.4c0,0,11.2,9.2,27.2-2.2c0.3-0.2,0.4-0.5,0.4-0.9l-2.5-21.3c0-0.3-0.1-0.5-0.3-0.6L188.2,380.1z
			 M187.6,382.1l29.2,24.3l2.3,20.3c-13.3,9.1-22.8,3.1-24.2,2.1c-1.1-2.7-10.3-26.2-9.9-36.1c0.2-4.6,0.9-7.4,1.6-9
			C186.9,383,187.3,382.4,187.6,382.1z"/>
		<path class="st4" d="M222.7,355.5c-0.5-2-2.5-3.3-4.6-2.8c-7.4,1.7-24.3,5.4-32,7.1c-1,0.2-1.9,0.9-2.5,1.8
			c-0.5,0.9-0.7,2-0.4,3.1l16.6,56.3c0.6,1.9,2.6,3.1,4.5,2.7c7-1.6,22.5-5.1,29.8-6.7c1-0.2,1.9-0.9,2.4-1.7c0.5-0.9,0.7-2,0.5-3
			C234.2,400.7,225.5,366.7,222.7,355.5z"/>
		<path class="st3" d="M192,394.4c0,0,12.8-11.3,25-23.6c0.7-0.7,1.6-1,2.6-1c1,0,1.9,0.5,2.5,1.2c0.9,1.1,1,2.6,0.2,3.8
			c-3.1,4.6-10.7,15.9-14.8,19.6c0,0,9.6-7.6,15.7-11.9c0.7-0.5,1.5-0.6,2.3-0.4c0.8,0.2,1.5,0.7,1.9,1.4c0,0,0.1,0.1,0.1,0.1
			c0.7,1.1,0.5,2.6-0.4,3.6c-3.5,3.8-12.1,13.1-15.6,15.9c0,0,9.2-7.4,14.1-11.4c0.7-0.6,1.7-0.8,2.6-0.6c0.9,0.2,1.6,0.8,2,1.7
			c0.4,0.9,0.3,2-0.4,2.8c-4.7,5.5-9.5,10.9-14.2,16.4c4.6-3.1,8.3-6,13-10c0.5-0.5,1.3-0.6,1.9-0.5c0.7,0.2,1.2,0.7,1.5,1.3
			c0.4,1.1,0.2,2.3-0.4,3.2c-2.2,3-7.5,10-13.5,14.4"/>
		<path class="st4" d="M221.3,371.7c0.6,0.7,0.7,1.8,0.1,2.6c-3,4.6-10.6,15.7-14.7,19.4c-0.4,0.3-0.4,0.9-0.1,1.3
			c0.3,0.4,0.9,0.5,1.3,0.1c0,0,0,0,0,0c0,0,9.5-7.6,15.7-11.8c0.5-0.3,1-0.4,1.6-0.3c0.5,0.1,1,0.5,1.3,0.9l0.1,0.2
			c0.5,0.8,0.4,1.8-0.2,2.4c-3.5,3.8-12,13-15.5,15.8c-0.4,0.3-0.5,1-0.1,1.4c0.3,0.4,0.9,0.5,1.3,0.1c0,0,9.2-7.4,14.1-11.4
			c0.5-0.4,1.1-0.5,1.7-0.4c0.6,0.1,1.1,0.6,1.4,1.1c0.3,0.6,0.2,1.3-0.3,1.8l-14.2,16.4c-0.3,0.4-0.3,0.9,0,1.3
			c0.3,0.4,0.9,0.4,1.3,0.2c4.6-3.2,8.4-6,13.1-10.1c0.3-0.3,0.7-0.4,1.1-0.3c0.4,0.1,0.7,0.4,0.8,0.7l0,0c0.3,0.8,0.2,1.7-0.3,2.3
			c-2.2,3-7.4,9.9-13.3,14.2c-0.4,0.3-0.5,0.9-0.2,1.3c0.3,0.4,0.9,0.5,1.3,0.2c0,0,0,0,0,0c6.1-4.5,11.5-11.5,13.7-14.6l0,0
			c0.8-1.2,1.1-2.7,0.5-4.1l0-0.1c-0.4-0.9-1.2-1.6-2.1-1.9c-1-0.3-2,0-2.8,0.7c-2,1.8-4.1,3.5-6.2,5.1l8.7-10.1
			c0.9-1.1,1.2-2.6,0.6-3.9c-0.5-1.1-1.5-1.9-2.7-2.2c-1.2-0.3-2.4,0-3.4,0.7l-0.4,0.3c1.2-1.3,2.3-2.5,3.2-3.4
			c1.2-1.3,1.4-3.2,0.5-4.8c0-0.1-0.1-0.1-0.1-0.2c-0.6-0.9-1.5-1.6-2.5-1.8c-1-0.2-2.1-0.1-3,0.5h0c-2.5,1.7-5.6,4-8.4,6.2
			c3.4-4.5,7-9.8,8.8-12.5c1-1.5,0.9-3.6-0.3-5h0c-0.8-0.9-1.9-1.5-3.2-1.5c-1.2-0.1-2.4,0.4-3.3,1.3
			c-12.2,12.3-24.9,23.5-24.9,23.5c-0.4,0.3-0.4,0.9-0.1,1.3l0,0c0.4,0.4,1,0.4,1.4,0.1c0,0,12.8-11.3,25-23.6h0
			c0.5-0.5,1.2-0.7,1.8-0.7S220.9,371.1,221.3,371.7L221.3,371.7z M231.8,403.8c0.1,0,0.2,0.1,0.4,0
			C232,403.9,231.9,403.9,231.8,403.8z M231.6,403.8L231.6,403.8L231.6,403.8L231.6,403.8z M231.1,403.3c0,0.1,0.1,0.2,0.2,0.3
			C231.3,403.5,231.2,403.4,231.1,403.3z M221.7,371.9c0.1,0,0.2,0.1,0.4,0.1C222,372,221.8,372,221.7,371.9z M221.4,371.7
			c0.1,0.1,0.2,0.1,0.3,0.2C221.5,371.9,221.4,371.8,221.4,371.7z"/>
		<path class="st5" d="M284.5,366.8c0,0-7,0.7-19.2,24c-12.2,23.3-27.3,52.9-27.3,52.9l19.3,70c0,0,23.3-41.7,31.2-60.7
			C296.5,434.1,284.5,366.8,284.5,366.8z"/>
		<path class="st4" d="M237.1,444l19.3,70c0.1,0.4,0.4,0.6,0.8,0.7c0.4,0.1,0.8-0.1,1-0.5c0,0,23.3-41.8,31.3-60.8
			c0.2-0.5,0-1.1-0.5-1.3c-0.5-0.2-1.1,0-1.3,0.5c-6.9,16.4-25.3,49.9-30,58.5L239,443.5c-0.1-0.5-0.7-0.8-1.2-0.7
			C237.3,442.9,237,443.5,237.1,444z"/>
		<path class="st5" d="M193.1,426.8c0,0-2.2,0.5-1.8,4.3c0.3,3.9,3.2,11,3.2,11s-1.5,2-0.8,6.9c0.6,4.9,24,56.9,36.2,67.3
			c12.2,10.4,25.2,5.1,30.3-8.2c5.1-13.3-19.8-67.1-28-73.6c-3.5-2.8-5.8-1-5.8-1s-4.3-11.7-8.4-10.3L193.1,426.8z"/>
		<path class="st4" d="M193,425.9C193,425.9,193,425.9,193,425.9c-0.1,0-0.9,0.1-1.6,1c-0.6,0.7-1.2,2-1,4.3
			c0.3,3.4,2.5,9.2,3.1,10.9c-0.5,0.9-1.2,3.1-0.7,7.1c0.3,2.5,6.4,16.8,13.9,31.9c7.5,15.1,16.5,30.8,22.7,36
			c6.4,5.5,13,6.8,18.7,5c5.7-1.8,10.4-6.6,13.1-13.6c0.9-2.2,0.9-5.6,0.4-9.6c-0.8-5.8-2.9-13.2-5.7-20.8
			c-4.8-13.3-11.6-27.7-17-36.4c-2.4-3.9-4.4-6.6-6-7.8c-2.1-1.7-3.7-1.9-4.9-1.8c-0.4,0.1-0.7,0.1-0.9,0.2c-0.7-1.8-2.5-5.7-4.5-8
			c-1.4-1.6-3-2.4-4.6-1.9L193,425.9z M193.3,427.8l24.9-3.6c0.1,0,0.1,0,0.2,0c0.4-0.1,0.8-0.1,1.1,0.1c0.5,0.3,1,0.7,1.5,1.2
			c2.6,2.9,4.6,8.4,4.6,8.4c0.1,0.3,0.4,0.5,0.6,0.6c0.3,0.1,0.6,0,0.9-0.2c0,0,1.7-1.3,4.6,1c1.4,1.1,3.3,3.8,5.5,7.4
			c5.3,8.6,12,22.8,16.8,36c2.7,7.5,4.8,14.7,5.6,20.4c0.5,3.6,0.5,6.6-0.3,8.7c-2.4,6.4-6.7,10.8-11.9,12.4
			c-5.1,1.6-11.1,0.3-16.9-4.6c-6-5.2-14.8-20.7-22.2-35.4c-7.4-14.8-13.4-28.8-13.7-31.3c-0.6-4.4,0.6-6.2,0.6-6.2
			c0.2-0.3,0.2-0.6,0.1-0.9c0,0-2.8-7-3.1-10.8C192.1,428.6,193.2,427.9,193.3,427.8z"/>
		<path class="st7" d="M189.9,367.9c1.3,0,2.3-1,2.3-2.3c0-1.3-1-2.3-2.3-2.3c-1.3,0-2.3,1-2.3,2.3
			C187.5,366.9,188.6,367.9,189.9,367.9z"/>
		<path class="st3" d="M192.7,395.1c-0.2,0.1-0.3,0.2-0.4,0.2l-0.3,0.2l5.2,28.2l5.3,0.5l14.5-2.8c0,0,0.1-0.3,0-0.7
			c-0.1-0.4,0.1-0.7,0.3-1c0.1-0.1,0.1-0.1,0.1-0.2c0.5-0.7-3.4-4.6-3.4-4.6L192.7,395.1z"/>
		<path class="st4" d="M199.3,442c0,0,12.9-0.2,22.9-4.2c0.5-0.2,0.7-0.7,0.6-1.2c-0.2-0.5-0.8-0.7-1.3-0.6
			c-9.7,3.8-22.3,4.1-22.3,4.1c-0.5,0-0.9,0.4-0.9,0.9c0,0,0,0,0,0.1C198.3,441.6,198.8,442.1,199.3,442z"/>
		<path class="st9" d="M50.1,177v8.9c0,0.5,0.4,1,0.9,1c0.5,0,0.9-0.5,0.9-1V177c0-0.6-0.4-1-0.9-1C50.5,176,50.1,176.4,50.1,177
			C50.1,177,50.1,177,50.1,177z M50.1,196.1v8.9c0,0.5,0.4,1,0.9,1c0.5,0,0.9-0.5,0.9-1v-8.9c0-0.6-0.4-1-0.9-1
			C50.5,195,50.1,195.5,50.1,196.1C50.1,196.1,50.1,196.1,50.1,196.1z M64.1,190h-8.3c-0.5,0-0.9,0.5-0.9,1c0,0.6,0.4,1,0.9,1h8.3
			c0.5,0,0.9-0.4,0.9-1C65,190.4,64.6,190,64.1,190C64.1,190,64.1,190,64.1,190z M46.3,190h-8.3c-0.5,0-0.9,0.5-0.9,1
			c0,0.6,0.4,1,0.9,1h8.3c0.5,0,0.9-0.4,0.9-1C47.2,190.4,46.8,190,46.3,190C46.3,190,46.3,190,46.3,190z"/>
		<path class="st9" d="M488.1,368v8.9c0,0.5,0.4,1,0.9,1c0.5,0,0.9-0.5,0.9-1V368c0-0.6-0.4-1-0.9-1
			C488.5,367,488.1,367.4,488.1,368C488.1,368,488.1,368,488.1,368z M488.1,387.1v8.9c0,0.5,0.4,1,0.9,1c0.5,0,0.9-0.5,0.9-1v-8.9
			c0-0.6-0.4-1-0.9-1C488.5,386,488.1,386.5,488.1,387.1C488.1,387.1,488.1,387.1,488.1,387.1z M502.1,381h-8.3
			c-0.5,0-0.9,0.5-0.9,1c0,0.6,0.4,1,0.9,1h8.3c0.5,0,0.9-0.4,0.9-1C503,381.4,502.6,381,502.1,381C502.1,381,502.1,381,502.1,381z
			 M484.3,381h-8.3c-0.5,0-0.9,0.5-0.9,1c0,0.6,0.4,1,0.9,1h8.3c0.5,0,0.9-0.4,0.9-1C485.2,381.4,484.8,381,484.3,381
			C484.3,381,484.3,381,484.3,381z"/>
		<path class="st9" d="M453.1,83v8.9c0,0.5,0.4,1,0.9,1c0.5,0,0.9-0.5,0.9-1V83c0-0.6-0.4-1-0.9-1C453.5,82,453.1,82.4,453.1,83
			C453.1,83,453.1,83,453.1,83z M453.1,102.1v8.9c0,0.5,0.4,1,0.9,1c0.5,0,0.9-0.5,0.9-1v-8.9c0-0.6-0.4-1-0.9-1
			C453.5,101,453.1,101.5,453.1,102.1C453.1,102.1,453.1,102.1,453.1,102.1z M467.1,96h-8.3c-0.5,0-0.9,0.5-0.9,1c0,0.6,0.4,1,0.9,1
			h8.3c0.5,0,0.9-0.4,0.9-1C468,96.4,467.6,96,467.1,96C467.1,96,467.1,96,467.1,96z M449.3,96h-8.3c-0.5,0-0.9,0.5-0.9,1
			c0,0.6,0.4,1,0.9,1h8.3c0.5,0,0.9-0.4,0.9-1C450.2,96.4,449.8,96,449.3,96C449.3,96,449.3,96,449.3,96z"/>
		<path class="st10" d="M40.9,877.7h678.1c0.7,0,1.3-0.6,1.3-1.4c0-0.8-0.5-1.4-1.3-1.4H40.9c-0.7,0-1.3,0.6-1.3,1.4
			C39.7,877.1,40.2,877.7,40.9,877.7z"/>
		<path class="st9" d="M657.1,192v8.9c0,0.5,0.4,1,0.9,1c0.5,0,0.9-0.5,0.9-1V192c0-0.6-0.4-1-0.9-1
			C657.5,191,657.1,191.4,657.1,192C657.1,192,657.1,192,657.1,192z M657.1,211.1v8.9c0,0.5,0.4,1,0.9,1c0.5,0,0.9-0.5,0.9-1v-8.9
			c0-0.6-0.4-1-0.9-1C657.5,210,657.1,210.5,657.1,211.1C657.1,211.1,657.1,211.1,657.1,211.1z M671.1,205h-8.3
			c-0.5,0-0.9,0.5-0.9,1c0,0.6,0.4,1,0.9,1h8.3c0.5,0,0.9-0.4,0.9-1C672,205.4,671.6,205,671.1,205C671.1,205,671.1,205,671.1,205z
			 M653.3,205h-8.3c-0.5,0-0.9,0.5-0.9,1c0,0.6,0.4,1,0.9,1h8.3c0.5,0,0.9-0.4,0.9-1C654.2,205.4,653.8,205,653.3,205
			C653.3,205,653.3,205,653.3,205z"/>
		<path class="st4" d="M706.7,480.6c-0.2-0.1-0.4-0.1-0.6-0.2c-3.3-1.4-7.6-5-12.8-12.5c-0.1-0.2-0.2-0.4-0.1-0.6
			c0-0.2,0.1-0.4,0.3-0.5c0.2-0.1,0.4-0.2,0.6-0.1c0.2,0,0.4,0.1,0.5,0.3c4.5,6.4,8.2,9.9,11.2,11.5c-0.3-1.2-0.3-2.5,0.2-4
			c0.4-1.3,1.6-2.2,3-2.6c2-0.5,4.4,0.3,5.4,2.5c0.9,2.1,0,4.9-2.4,6.1c-0.7,0.4-1.6,0.6-2.7,0.5c0.5,0.5,1.2,1,1.8,1.4
			c4.4,2.8,10.7,3.9,10.7,3.9c0.2,0,0.4,0.2,0.5,0.3c0.1,0.2,0.2,0.4,0.1,0.6c0,0.2-0.1,0.4-0.3,0.5s-0.4,0.2-0.5,0.1
			c0,0-6.6-1.1-11.2-4.1C708.8,482.9,707.5,481.9,706.7,480.6z M707.7,479.4c-0.7-1.2-0.9-2.7-0.4-4.4c0.3-0.8,1-1.3,1.9-1.5
			c1.3-0.3,3,0.1,3.6,1.7c0.6,1.4,0,3.4-1.7,4.2C710.3,479.7,709.1,479.8,707.7,479.4z"/>
	</g>
</g>
</svg>
