<svg width="911" height="418" viewBox="0 0 911 418" fill="none" xmlns="http://www.w3.org/2000/svg">
<path fill-rule="evenodd" clip-rule="evenodd" d="M250.115 281.466C248.083 280.525 245.884 279.996 243.647 279.911C241.409 279.825 239.176 280.184 237.078 280.966C234.98 281.749 233.058 282.94 231.423 284.471C229.788 286.001 228.473 287.841 227.554 289.883C220.395 305.743 208.018 318.672 192.485 326.517C176.952 334.361 159.2 336.647 142.186 332.993C125.173 329.339 109.924 319.967 98.9813 306.437C88.0382 292.907 82.0609 276.036 82.045 258.635C82.2299 257.616 82.3236 256.582 82.3251 255.547V251.016C83.6356 234.252 90.4624 218.393 101.739 205.919C113.016 193.445 128.107 185.057 144.655 182.067C161.202 179.077 178.274 181.652 193.204 189.391C208.133 197.129 220.078 209.595 227.174 224.841C228.117 226.872 229.455 228.695 231.108 230.206C232.761 231.717 234.697 232.885 236.804 233.643C238.912 234.4 241.149 234.733 243.385 234.621C245.622 234.508 247.814 233.954 249.835 232.989C253.922 231.01 257.061 227.497 258.571 223.215C260.08 218.933 259.838 214.228 257.895 210.124C248.992 191.191 234.907 175.168 217.271 163.911C199.635 152.654 179.171 146.624 158.25 146.52C156.709 146.52 155.189 146.56 153.649 146.624L203.812 76.1758C206.442 72.4725 207.507 67.8826 206.777 63.3998C206.047 58.917 203.58 54.9021 199.912 52.2243C198.1 50.9103 196.045 49.969 193.867 49.455C191.688 48.9409 189.429 48.8644 187.221 49.2297C185.012 49.5951 182.899 50.3952 181.002 51.5836C179.105 52.7719 177.463 54.3249 176.171 56.1526L125.788 126.931L138.008 82.8742C139.228 78.5046 138.673 73.8301 136.463 69.8683C134.252 65.9064 130.567 62.9781 126.208 61.7209C124.05 61.1202 121.794 60.9518 119.571 61.2255C117.347 61.4993 115.2 62.2097 113.252 63.316C111.304 64.4223 109.594 65.9026 108.22 67.6718C106.846 69.4411 105.836 71.4645 105.246 73.6256L82.3251 156.259V108.056C82.3251 103.544 80.5328 99.2173 77.3426 96.0271C74.1524 92.8369 69.8256 91.0447 65.314 91.0447C60.8024 91.0447 56.4757 92.8369 53.2855 96.0271C50.0953 99.2173 48.303 103.544 48.303 108.056V249.386C48.103 252.15 48.0029 254.942 48.0029 257.761C48.0029 319.102 97.4659 369.005 158.25 369.005C179.399 368.923 200.082 362.775 217.843 351.292C235.605 339.809 249.699 323.472 258.456 304.219C260.338 300.092 260.518 295.39 258.957 291.131C257.395 286.871 254.219 283.399 250.115 281.466Z" fill="#196CFA"/>
<path d="M143.848 159.643L153.496 146.696C167.01 146.009 185.011 148.009 203.496 156.469C161.415 143.2 143.848 159.643 143.848 159.643Z" fill="black" fill-opacity="0.05"/>
<path d="M103.006 82.0049L82.0439 214.215L82.0049 157.009L103.006 82.0049Z" fill="black" fill-opacity="0.05"/>
<path d="M111.407 169.535L125.46 127.008L175.01 57.7422L111.407 169.535Z" fill="black" fill-opacity="0.05"/>
<path fill-rule="evenodd" clip-rule="evenodd" d="M118.967 221.525C120.572 220.857 122.322 220.616 124.048 220.825L144.189 223.425C145.647 223.621 147.13 223.505 148.54 223.086C149.95 222.667 151.255 221.954 152.37 220.994L167.31 207.822C168.685 206.651 170.338 205.852 172.11 205.502C173.882 205.152 175.714 205.262 177.431 205.822C179.134 206.397 180.659 207.406 181.855 208.749C183.051 210.092 183.877 211.723 184.251 213.482L188.112 232.945C188.416 234.38 189.022 235.734 189.892 236.915C190.761 238.096 191.872 239.079 193.152 239.796L210.773 249.824C212.279 250.701 213.528 251.96 214.394 253.472C215.26 254.985 215.713 256.699 215.707 258.442C215.701 260.185 215.236 261.896 214.36 263.403C213.483 264.909 212.225 266.159 210.713 267.025L193.072 276.448C191.746 277.132 190.59 278.105 189.69 279.295C188.79 280.485 188.169 281.862 187.872 283.324L183.811 302.637C183.409 304.427 182.524 306.072 181.251 307.394C179.368 309.379 176.776 310.54 174.041 310.622C171.306 310.704 168.649 309.701 166.65 307.832L151.869 294.277C150.793 293.277 149.515 292.518 148.121 292.052C146.728 291.586 145.251 291.422 143.789 291.573L123.748 293.483C122.402 293.63 121.041 293.511 119.742 293.132C118.443 292.753 117.231 292.121 116.176 291.274C115.121 290.426 114.243 289.379 113.593 288.192C112.943 287.005 112.533 285.702 112.387 284.356C112.189 282.537 112.486 280.698 113.247 279.034L121.808 261.233C122.47 259.898 122.819 258.43 122.83 256.94C122.84 255.449 122.511 253.976 121.868 252.632L113.567 234.527C112.561 232.087 112.564 229.346 113.577 226.909C114.589 224.471 116.528 222.534 118.967 221.525Z" fill="#FAA81A"/>
<path d="M330.682 217.566C325.828 217.566 321.269 216.717 317.005 215.018C312.776 213.285 309.049 210.754 305.825 207.426C302.635 204.098 300.139 200.024 298.336 195.205C296.533 190.351 295.632 184.804 295.632 178.564C295.632 170.382 297.157 163.396 300.208 157.607C303.259 151.782 307.437 147.327 312.741 144.242C318.045 141.122 324.026 139.562 330.682 139.562C339.904 139.562 347.202 141.711 352.575 146.01C357.984 150.274 361.641 156.272 363.548 164.003L350.755 166.031C349.334 161.594 347.011 158.057 343.787 155.423C340.563 152.753 336.454 151.418 331.462 151.418C326.435 151.349 322.258 152.441 318.929 154.695C315.601 156.948 313.088 160.12 311.389 164.211C309.725 168.302 308.893 173.086 308.893 178.564C308.893 184.042 309.725 188.809 311.389 192.865C313.053 196.886 315.549 200.024 318.877 202.277C322.24 204.531 326.435 205.692 331.462 205.762C335.241 205.796 338.552 205.12 341.395 203.734C344.237 202.312 346.56 200.18 348.363 197.337C350.166 194.46 351.379 190.871 352.003 186.573H338.795V176.744H365.316C365.385 177.299 365.437 178.113 365.472 179.188C365.507 180.263 365.524 180.904 365.524 181.112C365.524 188.185 364.12 194.477 361.312 199.989C358.538 205.467 354.551 209.766 349.351 212.886C344.151 216.006 337.928 217.566 330.682 217.566ZM375.969 216.006V141.122H406.91C407.639 141.122 408.575 141.156 409.719 141.226C410.863 141.26 411.92 141.364 412.891 141.538C417.224 142.197 420.795 143.635 423.603 145.854C426.446 148.073 428.544 150.881 429.896 154.279C431.283 157.641 431.976 161.386 431.976 165.511C431.976 171.613 430.433 176.865 427.348 181.268C424.262 185.636 419.53 188.341 413.151 189.381L407.795 189.849H388.501V216.006H375.969ZM418.975 216.006L404.206 185.532L416.947 182.724L433.172 216.006H418.975ZM388.501 178.148H406.39C407.084 178.148 407.864 178.113 408.731 178.044C409.597 177.975 410.395 177.836 411.123 177.628C413.203 177.108 414.832 176.189 416.011 174.872C417.224 173.554 418.074 172.064 418.559 170.4C419.079 168.735 419.339 167.106 419.339 165.511C419.339 163.916 419.079 162.287 418.559 160.623C418.074 158.924 417.224 157.416 416.011 156.099C414.832 154.781 413.203 153.863 411.123 153.343C410.395 153.135 409.597 153.013 408.731 152.978C407.864 152.909 407.084 152.874 406.39 152.874H388.501V178.148ZM439.429 216.006L463.038 141.122H481.395L505.005 216.006H492.108L470.683 148.818H473.491L452.325 216.006H439.429ZM452.585 199.781V188.081H491.9V199.781H452.585ZM514.407 216.006V141.122H544.1C549.162 141.122 553.305 142.145 556.529 144.19C559.788 146.201 562.197 148.784 563.758 151.938C565.352 155.093 566.15 158.352 566.15 161.715C566.15 165.841 565.162 169.342 563.186 172.22C561.244 175.097 558.592 177.039 555.229 178.044V175.444C559.944 176.519 563.515 178.755 565.942 182.152C568.403 185.55 569.634 189.415 569.634 193.749C569.634 198.187 568.785 202.069 567.086 205.398C565.387 208.726 562.856 211.326 559.493 213.198C556.165 215.07 552.04 216.006 547.117 216.006H514.407ZM527.095 204.202H545.556C547.741 204.202 549.699 203.768 551.433 202.901C553.166 202 554.518 200.752 555.489 199.157C556.494 197.528 556.997 195.604 556.997 193.385C556.997 191.374 556.564 189.571 555.697 187.977C554.83 186.382 553.565 185.116 551.901 184.18C550.237 183.21 548.243 182.724 545.921 182.724H527.095V204.202ZM527.095 171.024H543.944C545.747 171.024 547.359 170.677 548.781 169.984C550.202 169.29 551.329 168.267 552.161 166.915C552.993 165.563 553.409 163.899 553.409 161.923C553.409 159.323 552.577 157.156 550.913 155.423C549.249 153.689 546.926 152.822 543.944 152.822H527.095V171.024ZM618.679 216.006V184.648L593.561 141.122H602.402L622.527 175.912L642.548 141.122H651.389L626.375 184.648V216.006H618.679ZM684.788 217.566C677.334 217.566 671.041 215.92 665.91 212.626C660.779 209.298 656.897 204.704 654.262 198.845C651.627 192.986 650.309 186.226 650.309 178.564C650.309 170.902 651.627 164.142 654.262 158.283C656.897 152.424 660.779 147.848 665.91 144.554C671.041 141.226 677.334 139.562 684.788 139.562C692.276 139.562 698.568 141.226 703.665 144.554C708.796 147.848 712.679 152.424 715.313 158.283C717.983 164.142 719.318 170.902 719.318 178.564C719.318 186.226 717.983 192.986 715.313 198.845C712.679 204.704 708.796 209.298 703.665 212.626C698.568 215.92 692.276 217.566 684.788 217.566ZM684.788 210.234C690.647 210.234 695.535 208.899 699.452 206.23C703.37 203.56 706.299 199.851 708.241 195.101C710.217 190.317 711.205 184.804 711.205 178.564C711.205 172.324 710.217 166.829 708.241 162.079C706.299 157.329 703.37 153.62 699.452 150.95C695.535 148.281 690.647 146.929 684.788 146.894C678.929 146.894 674.058 148.229 670.175 150.898C666.292 153.568 663.362 157.295 661.386 162.079C659.445 166.829 658.457 172.324 658.422 178.564C658.387 184.804 659.341 190.299 661.282 195.049C663.258 199.764 666.205 203.474 670.123 206.178C674.04 208.847 678.929 210.199 684.788 210.234ZM758.958 217.566C753.237 217.566 748.176 216.388 743.773 214.03C739.405 211.673 735.972 208.344 733.476 204.046C730.98 199.747 729.732 194.72 729.732 188.965V141.174L737.429 141.122V187.977C737.429 191.86 738.087 195.222 739.405 198.065C740.722 200.873 742.438 203.196 744.553 205.034C746.702 206.836 749.043 208.171 751.573 209.038C754.104 209.905 756.566 210.338 758.958 210.338C761.385 210.338 763.863 209.905 766.394 209.038C768.925 208.171 771.248 206.836 773.363 205.034C775.477 203.196 777.194 200.873 778.511 198.065C779.828 195.222 780.487 191.86 780.487 187.977V141.122H788.184V188.965C788.184 194.72 786.936 199.747 784.439 204.046C781.943 208.31 778.494 211.638 774.091 214.03C769.722 216.388 764.678 217.566 758.958 217.566ZM802.76 216.006V141.122H831.674C832.402 141.122 833.216 141.156 834.118 141.226C835.054 141.26 835.99 141.364 836.926 141.538C840.843 142.127 844.154 143.497 846.859 145.646C849.597 147.761 851.66 150.43 853.047 153.655C854.468 156.879 855.179 160.45 855.179 164.367C855.179 170.018 853.688 174.924 850.707 179.084C847.725 183.244 843.461 185.862 837.914 186.937L835.262 187.561H810.404V216.006H802.76ZM848.107 216.006L833.338 185.532L840.67 182.724L856.895 216.006H848.107ZM810.404 180.28H831.466C832.09 180.28 832.818 180.245 833.65 180.176C834.482 180.107 835.296 179.985 836.094 179.812C838.659 179.257 840.757 178.2 842.386 176.64C844.05 175.08 845.281 173.225 846.078 171.076C846.911 168.926 847.327 166.69 847.327 164.367C847.327 162.044 846.911 159.808 846.078 157.659C845.281 155.475 844.05 153.603 842.386 152.042C840.757 150.482 838.659 149.425 836.094 148.87C835.296 148.697 834.482 148.593 833.65 148.558C832.818 148.489 832.09 148.454 831.466 148.454H810.404V180.28Z" fill="#18181B"/>
<path d="M301.532 352.006V254.08H341.995C342.947 254.08 344.171 254.126 345.667 254.216C347.163 254.262 348.546 254.398 349.815 254.624C355.482 255.486 360.152 257.367 363.824 260.269C367.542 263.17 370.284 266.843 372.053 271.285C373.866 275.683 374.773 280.579 374.773 285.974C374.773 293.954 372.755 300.822 368.72 306.58C364.685 312.292 358.497 315.828 350.155 317.188L343.151 317.8H317.921V352.006H301.532ZM357.772 352.006L338.459 312.156L355.12 308.484L376.337 352.006H357.772ZM317.921 302.499H341.315C342.221 302.499 343.241 302.454 344.375 302.363C345.508 302.273 346.551 302.091 347.503 301.819C350.223 301.139 352.354 299.938 353.895 298.215C355.482 296.492 356.593 294.543 357.228 292.367C357.908 290.191 358.248 288.06 358.248 285.974C358.248 283.889 357.908 281.758 357.228 279.582C356.593 277.361 355.482 275.388 353.895 273.666C352.354 271.943 350.223 270.741 347.503 270.061C346.551 269.789 345.508 269.631 344.375 269.585C343.241 269.495 342.221 269.449 341.315 269.449H317.921V302.499ZM387.239 352.006V254.08H450.483V269.449H403.628V293.591H442.322V308.96H403.628V336.637H450.483V352.006H387.239ZM484.751 352.006L453.877 254.08H470.742L496.584 336.093L522.766 254.08H539.631L508.757 352.006H484.751ZM547.128 352.006V254.08H563.517V352.006H547.128ZM579.807 352.006V254.08H643.051V269.449H596.196V293.591H634.89V308.96H596.196V336.637H643.051V352.006H579.807ZM675.96 352.006L647.33 254.08H664.535L684.052 324.805L703.501 254.216L720.706 254.08L740.223 324.805L759.673 254.08H776.878L748.316 352.006H732.131L712.07 282.37L692.145 352.006H675.96ZM817.484 354.046C810.32 354.046 803.86 352.8 798.102 350.306C792.39 347.813 787.675 344.254 783.958 339.63C780.285 334.96 777.951 329.429 776.953 323.037L793.954 320.452C795.405 326.255 798.374 330.744 802.863 333.917C807.396 337.091 812.61 338.678 818.504 338.678C821.994 338.678 825.281 338.134 828.364 337.045C831.447 335.957 833.941 334.371 835.845 332.285C837.794 330.2 838.769 327.638 838.769 324.601C838.769 323.241 838.542 321.994 838.089 320.86C837.635 319.682 836.955 318.639 836.049 317.732C835.187 316.826 834.054 316.01 832.648 315.284C831.288 314.513 829.702 313.856 827.888 313.312L802.591 305.832C800.415 305.197 798.057 304.358 795.518 303.315C793.025 302.227 790.645 300.754 788.378 298.895C786.156 296.991 784.32 294.588 782.869 291.687C781.464 288.74 780.761 285.113 780.761 280.806C780.761 274.504 782.348 269.223 785.522 264.961C788.74 260.654 793.047 257.435 798.442 255.305C803.883 253.174 809.912 252.131 816.531 252.176C823.241 252.222 829.226 253.378 834.485 255.645C839.744 257.866 844.141 261.108 847.677 265.369C851.214 269.631 853.707 274.776 855.158 280.806L837.545 283.866C836.819 280.421 835.414 277.497 833.329 275.094C831.288 272.646 828.772 270.787 825.78 269.517C822.833 268.248 819.682 267.568 816.327 267.477C813.063 267.432 810.026 267.931 807.215 268.973C804.449 269.971 802.205 271.422 800.483 273.326C798.805 275.23 797.966 277.451 797.966 279.99C797.966 282.393 798.692 284.365 800.143 285.906C801.593 287.402 803.384 288.604 805.515 289.511C807.691 290.372 809.89 291.097 812.111 291.687L829.656 296.583C832.059 297.218 834.757 298.079 837.749 299.167C840.741 300.255 843.62 301.774 846.385 303.723C849.151 305.673 851.418 308.234 853.186 311.408C854.999 314.581 855.906 318.616 855.906 323.513C855.906 328.59 854.84 333.056 852.71 336.909C850.624 340.718 847.791 343.891 844.209 346.43C840.628 348.969 836.525 350.873 831.9 352.142C827.321 353.412 822.516 354.046 817.484 354.046Z" fill="#18181B"/>
</svg>
