<svg width="616" height="572" viewBox="0 0 616 572" fill="none" xmlns="http://www.w3.org/2000/svg">
<path opacity="0.4" d="M333.094 399.995C375.86 355.126 489.622 256.037 615.883 202.678M333.094 399.995C368.315 335.257 480.79 187.112 615.883 134.7C615.922 134.684 615.961 134.668 616 134.652M333.094 399.995C352.375 316.796 435.705 128.421 616 28.588M333.094 399.995C323.808 306.706 341.383 99.6306 480.79 -7.00001M333.094 399.995C222.671 338.576 14.0448 172.845 44.3273 -7.00002M333.094 399.995C256.383 325.954 135.409 143.939 197.995 -7.00002M333.094 399.995C230.302 203.226 268.533 100.845 334.358 -7.00001M333.094 399.995C240.012 361.8 82.2613 279.79 -2.28786e-05 187.112M333.094 399.995C324.202 399.995 109.372 325.379 -2.62263e-05 263.697M333.094 399.995C258.51 385.814 102.277 352.717 -2.8716e-05 320.657M333.094 399.995C235.028 392.976 129.642 387.177 -3.08833e-05 370.237M333.094 399.995C260.309 406.252 91.7925 418.857 -3.30245e-05 419.223M333.094 399.995C278.367 416.477 135.131 453.01 -3.51257e-05 467.294M333.094 399.995C280.374 428.99 139.947 492.473 -3.71869e-05 514.448M333.094 399.995C269.138 450.202 113.992 543.748 -3.95283e-05 568.012M333.094 399.995C302.997 447.913 226.432 552.264 151.312 579M333.094 399.995C349.547 431.432 341.521 511.244 307.813 579M333.094 399.995C370.413 430.516 447.701 509.046 458.295 579M333.094 399.995C405.743 432.334 558.257 509.992 609.819 571.217M333.094 399.995C408.457 414.34 570.524 452.552 615.883 490.642M333.094 399.995C393.61 399.69 534.89 404.482 615.883 426.091M333.094 399.995C389.998 389.008 526.222 367.582 615.883 369.78M333.094 399.995C340.317 398.625 485.749 334.07 615.883 329.492M333.094 399.995C383.578 365.354 510.813 291.585 615.883 273.639" stroke="url(#paint0_linear_2166_48983)"/>
<defs>
<linearGradient id="paint0_linear_2166_48983" x1="27.6508" y1="30.9137" x2="518.33" y2="645.616" gradientUnits="userSpaceOnUse">
<stop stop-color="#D8D8D8"/>
<stop offset="1" stop-color="#E9E9E9" stop-opacity="0"/>
</linearGradient>
</defs>
</svg>
