<svg width="474" height="216" viewBox="0 0 474 216" fill="none" xmlns="http://www.w3.org/2000/svg">
<path d="M0.422016 81.4041C59.9657 60.3825 115.892 28.3038 157.809 9.94747e-06M35.9524 216C143.099 166.436 173.941 91.3959 199.771 1.04478e-05M0.332032 125.072C0.362029 125.061 0.392023 125.051 0.422015 125.04C78.7761 97.8578 142.266 43.8078 182.008 1.0236e-05M142.653 216C218.853 132.404 216.746 81.4041 218.853 1.06754e-05M421.518 216C396.007 85.1539 339.046 27 297.575 1.16142e-05M341.132 216C347.997 78.4038 295.403 20.7692 263.867 1.12122e-05M236.838 216C257.412 181.731 258.339 82.5577 242.714 1.09599e-05M473.665 216C439.008 59.1923 382.357 25.5682 328.391 1.19816e-05M473.665 42.2349C444.237 28.3703 404.873 13.4877 365.847 1.24283e-05M473.665 5.67172C466.455 3.78345 458.895 1.88959 451.067 1.34445e-05M0.422017 35.8531C40.2165 30.1749 84.149 15.7909 123.117 9.53377e-06" stroke="url(#paint0_linear_5236_86521)"/>
<defs>
<linearGradient id="paint0_linear_5236_86521" x1="643.498" y1="-110.5" x2="295.993" y2="231.028" gradientUnits="userSpaceOnUse">
<stop stop-color="#CECECE"/>
<stop offset="1" stop-color="#CECECE" stop-opacity="0"/>
</linearGradient>
</defs>
</svg>
