<svg width="474" height="216" viewBox="0 0 474 216" fill="none" xmlns="http://www.w3.org/2000/svg">
<path d="M0.0899848 81.4041C59.6337 60.3825 115.56 28.3038 157.477 9.94747e-06M35.6203 216C142.767 166.436 173.609 91.3959 199.439 1.04478e-05M1.08431e-06 125.072C0.0299976 125.061 0.059992 125.051 0.0899842 125.04C78.444 97.8578 141.934 43.8078 181.676 1.0236e-05M142.321 216C218.521 132.404 216.414 81.4041 218.521 1.06754e-05M421.186 216C395.675 85.1539 338.714 27 297.243 1.16142e-05M340.8 216C347.665 78.4038 295.071 20.7692 263.535 1.12122e-05M236.506 216C257.08 181.731 258.007 82.5577 242.382 1.09599e-05M473.333 216C438.676 59.1923 382.025 25.5682 328.059 1.19816e-05M473.333 42.2349C443.905 28.3703 404.541 13.4877 365.515 1.24283e-05M473.333 5.67172C466.123 3.78345 458.563 1.88959 450.735 1.34445e-05M0.0899853 35.8531C39.8845 30.1749 83.8169 15.7909 122.785 9.53377e-06" stroke="url(#paint0_linear_4604_86780)"/>
<defs>
<linearGradient id="paint0_linear_4604_86780" x1="435" y1="49" x2="109.35" y2="232.591" gradientUnits="userSpaceOnUse">
<stop stop-color="#1E87FB"/>
<stop offset="1" stop-color="#1E87FB" stop-opacity="0"/>
</linearGradient>
</defs>
</svg>
