<svg width="474" height="216" viewBox="0 0 474 216" fill="none" xmlns="http://www.w3.org/2000/svg">
<path d="M0.422993 81.4041C59.9667 60.3825 115.893 28.3038 157.81 9.94747e-06M35.9533 216C143.1 166.436 173.942 91.3959 199.772 1.04478e-05M0.333009 125.072C0.363005 125.061 0.393 125.051 0.422992 125.04C78.777 97.8578 142.267 43.8078 182.009 1.0236e-05M142.654 216C218.854 132.404 216.747 81.4041 218.854 1.06754e-05M421.519 216C396.008 85.1539 339.047 27 297.576 1.16142e-05M341.133 216C347.998 78.4038 295.404 20.7692 263.868 1.12122e-05M236.839 216C257.413 181.731 258.34 82.5577 242.715 1.09599e-05M473.666 216C439.009 59.1923 382.358 25.5682 328.392 1.19816e-05M473.666 42.2349C444.238 28.3703 404.874 13.4877 365.848 1.24283e-05M473.666 5.67172C466.456 3.78345 458.896 1.88959 451.068 1.34445e-05M0.422993 35.8531C40.2175 30.1749 84.1499 15.7909 123.118 9.53377e-06" stroke="url(#paint0_linear_3376_18682)"/>
<defs>
<linearGradient id="paint0_linear_3376_18682" x1="-321.451" y1="-195.75" x2="433.011" y2="85.6749" gradientUnits="userSpaceOnUse">
<stop stop-color="#CECECE"/>
<stop offset="1" stop-color="#CECECE" stop-opacity="0"/>
</linearGradient>
</defs>
</svg>
