<svg width="725" height="300" viewBox="0 0 725 300" fill="none" xmlns="http://www.w3.org/2000/svg">
<path d="M350.414 140.918L363.061 131.73" stroke="#18181B" stroke-width="1.46552" stroke-linecap="round"/>
<path d="M91.4492 140.918L78.8025 131.73" stroke="#18181B" stroke-width="1.46552" stroke-linecap="round"/>
<path d="M171.156 81.3438L167.11 66.2442" stroke="#18181B" stroke-width="1.46552" stroke-linecap="round"/>
<path d="M271.027 81.3438L275.073 66.2442" stroke="#18181B" stroke-width="1.46552" stroke-linecap="round"/>
<path d="M383.184 233.855H398.816" stroke="#18181B" stroke-width="1.46552" stroke-linecap="round"/>
<path d="M43.1836 233.855H58.8158" stroke="#18181B" stroke-width="1.46552" stroke-linecap="round"/>
<path d="M294.312 41.484C324.595 49.5985 352.045 65.9294 373.626 88.6712C395.207 111.413 410.079 139.68 416.598 170.346L313.093 192.347C310.632 180.769 305.017 170.097 296.869 161.511C288.721 152.924 278.358 146.759 266.924 143.695L294.312 41.484Z" fill="#008EFF"/>
<g opacity="0.4" filter="url(#filter0_f_1164_111798)">
<path d="M285.633 73.6026C310.012 80.1349 332.109 93.2816 349.483 111.589C366.856 129.897 378.828 152.652 384.075 177.339L326.675 189.54C323.678 175.439 316.839 162.441 306.916 151.984C296.992 141.526 284.37 134.017 270.445 130.286L285.633 73.6026Z" fill="#2458E7"/>
</g>
<g filter="url(#filter1_i_1164_111798)">
<path d="M358.537 135.079C379.639 164.123 391.004 199.101 391.004 235.002L343.404 235.002C343.404 209.154 335.221 183.969 320.028 163.057L358.537 135.079Z" fill="#22C55E"/>
</g>
<g filter="url(#filter2_i_1164_111798)">
<path d="M51.0039 235.002C51.0039 199.101 62.3693 164.123 83.471 135.078L121.98 163.057C106.787 183.969 98.6039 209.154 98.6039 235.002H51.0039Z" fill="#F95250"/>
</g>
<g filter="url(#filter3_i_1164_111798)">
<path d="M83.471 135.078C104.573 106.034 134.328 84.4162 168.471 73.3224L183.18 118.593C158.597 126.58 137.174 142.145 121.98 163.057L83.471 135.078Z" fill="#FBC023"/>
</g>
<g filter="url(#filter4_i_1164_111798)">
<path d="M168.471 73.3224C202.614 62.2285 239.393 62.2285 273.537 73.3223L258.827 118.593C234.244 110.605 207.763 110.605 183.18 118.593L168.471 73.3224Z" fill="#F9E72B"/>
</g>
<g filter="url(#filter5_i_1164_111798)">
<path d="M273.537 73.3224C307.68 84.4162 337.435 106.034 358.537 135.078L320.028 163.057C304.834 142.145 283.411 126.58 258.828 118.593L273.537 73.3224Z" fill="#A2D84B"/>
</g>
<path d="M70.8052 130.713V129.963L73.6197 126.883C73.95 126.522 74.222 126.208 74.4357 125.942C74.6494 125.672 74.8077 125.42 74.9103 125.184C75.0158 124.945 75.0686 124.695 75.0686 124.434C75.0686 124.135 74.9964 123.875 74.8521 123.656C74.7105 123.437 74.5162 123.267 74.2692 123.148C74.0222 123.029 73.7446 122.969 73.4365 122.969C73.109 122.969 72.8231 123.037 72.5788 123.173C72.3374 123.306 72.15 123.494 72.0168 123.735C71.8863 123.977 71.8211 124.26 71.8211 124.584H70.8385C70.8385 124.085 70.9537 123.646 71.1841 123.269C71.4145 122.891 71.7281 122.597 72.125 122.386C72.5247 122.175 72.973 122.07 73.4698 122.07C73.9694 122.07 74.4121 122.175 74.7979 122.386C75.1837 122.597 75.4863 122.882 75.7056 123.24C75.9248 123.598 76.0345 123.996 76.0345 124.434C76.0345 124.748 75.9776 125.055 75.8638 125.355C75.7527 125.652 75.5585 125.983 75.2809 126.35C75.0061 126.713 74.6245 127.157 74.136 127.682L72.2208 129.73V129.797H76.1843V130.713H70.8052Z" fill="#18181B"/>
<path d="M161.241 58.6186V57.7692L164.988 51.8405H165.604V53.1562H165.188L162.357 57.636V57.7026H167.403V58.6186H161.241ZM165.255 60.3672V58.3604V57.9649V51.8405H166.237V60.3672H165.255Z" fill="#18181B"/>
<path d="M277.742 60.4838C277.393 60.4782 277.043 60.4116 276.693 60.2839C276.344 60.1562 276.024 59.9411 275.736 59.6386C275.447 59.3333 275.215 58.9211 275.04 58.4021C274.866 57.8802 274.778 57.2252 274.778 56.4369C274.778 55.682 274.849 55.0131 274.99 54.4302C275.132 53.8445 275.337 53.3519 275.607 52.9522C275.876 52.5497 276.201 52.2444 276.581 52.0362C276.964 51.8281 277.395 51.724 277.876 51.724C278.353 51.724 278.778 51.8197 279.15 52.0112C279.524 52.2 279.83 52.4637 280.066 52.8023C280.302 53.1409 280.454 53.5309 280.524 53.9722H279.508C279.413 53.5892 279.23 53.2714 278.958 53.0188C278.686 52.7662 278.325 52.6399 277.876 52.6399C277.215 52.6399 276.695 52.9272 276.314 53.5017C275.937 54.0763 275.747 54.8826 275.744 55.9207H275.811C275.966 55.6847 276.151 55.4835 276.364 55.317C276.581 55.1477 276.82 55.0172 277.08 54.9256C277.341 54.834 277.618 54.7882 277.909 54.7882C278.397 54.7882 278.844 54.9104 279.25 55.1546C279.655 55.3961 279.98 55.7305 280.224 56.158C280.468 56.5827 280.59 57.0698 280.59 57.6193C280.59 58.1467 280.472 58.6297 280.236 59.0682C280 59.504 279.669 59.8509 279.241 60.1091C278.817 60.3644 278.317 60.4893 277.742 60.4838ZM277.742 59.5678C278.092 59.5678 278.406 59.4804 278.683 59.3055C278.964 59.1307 279.184 58.8961 279.345 58.6019C279.509 58.3077 279.591 57.9802 279.591 57.6193C279.591 57.2668 279.512 56.9463 279.354 56.6576C279.198 56.3662 278.983 56.1344 278.708 55.9623C278.436 55.7902 278.125 55.7042 277.776 55.7042C277.512 55.7042 277.266 55.7569 277.039 55.8624C276.811 55.9651 276.611 56.1066 276.439 56.2871C276.27 56.4675 276.137 56.6743 276.04 56.9074C275.942 57.1378 275.894 57.3806 275.894 57.636C275.894 57.9746 275.973 58.291 276.131 58.5853C276.292 58.8795 276.511 59.1168 276.789 59.2972C277.069 59.4776 277.387 59.5678 277.742 59.5678Z" fill="#18181B"/>
<path d="M368.536 130.829C367.964 130.829 367.459 130.728 367.02 130.526C366.585 130.32 366.245 130.038 366 129.68C365.756 129.32 365.635 128.909 365.638 128.448C365.635 128.087 365.706 127.754 365.851 127.449C365.995 127.141 366.192 126.884 366.442 126.679C366.694 126.47 366.976 126.339 367.287 126.283V126.233C366.879 126.128 366.554 125.899 366.313 125.546C366.071 125.191 365.952 124.787 365.955 124.335C365.952 123.902 366.062 123.514 366.284 123.173C366.506 122.832 366.811 122.562 367.2 122.365C367.591 122.168 368.036 122.07 368.536 122.07C369.03 122.07 369.471 122.168 369.86 122.365C370.248 122.562 370.554 122.832 370.776 123.173C371.001 123.514 371.114 123.902 371.117 124.335C371.114 124.787 370.991 125.191 370.747 125.546C370.505 125.899 370.185 126.128 369.785 126.233V126.283C370.093 126.339 370.371 126.47 370.618 126.679C370.865 126.884 371.062 127.141 371.209 127.449C371.356 127.754 371.431 128.087 371.434 128.448C371.431 128.909 371.306 129.32 371.059 129.68C370.815 130.038 370.475 130.32 370.039 130.526C369.606 130.728 369.105 130.829 368.536 130.829ZM368.536 129.914C368.922 129.914 369.255 129.851 369.535 129.726C369.816 129.601 370.032 129.425 370.185 129.197C370.337 128.97 370.415 128.703 370.418 128.398C370.415 128.076 370.332 127.792 370.168 127.545C370.004 127.298 369.781 127.103 369.498 126.962C369.217 126.82 368.897 126.749 368.536 126.749C368.172 126.749 367.848 126.82 367.562 126.962C367.279 127.103 367.055 127.298 366.891 127.545C366.73 127.792 366.651 128.076 366.654 128.398C366.651 128.703 366.725 128.97 366.875 129.197C367.027 129.425 367.245 129.601 367.528 129.726C367.812 129.851 368.147 129.914 368.536 129.914ZM368.536 125.867C368.841 125.867 369.112 125.806 369.348 125.684C369.587 125.561 369.774 125.391 369.91 125.171C370.046 124.952 370.115 124.695 370.118 124.401C370.115 124.113 370.047 123.861 369.914 123.648C369.781 123.431 369.596 123.265 369.36 123.148C369.124 123.029 368.85 122.969 368.536 122.969C368.217 122.969 367.938 123.029 367.699 123.148C367.46 123.265 367.276 123.431 367.145 123.648C367.015 123.861 366.951 124.113 366.954 124.401C366.951 124.695 367.016 124.952 367.15 125.171C367.286 125.391 367.473 125.561 367.712 125.684C367.95 125.806 368.225 125.867 368.536 125.867Z" fill="#18181B"/>
<path d="M405.104 229.001V237.527H404.072V230.083H404.022L401.94 231.465V230.416L404.072 229.001H405.104ZM410.337 237.644C409.71 237.644 409.176 237.473 408.735 237.132C408.293 236.788 407.956 236.289 407.723 235.637C407.49 234.982 407.373 234.191 407.373 233.264C407.373 232.343 407.49 231.556 407.723 230.903C407.959 230.248 408.297 229.749 408.739 229.405C409.183 229.058 409.716 228.884 410.337 228.884C410.959 228.884 411.491 229.058 411.932 229.405C412.376 229.749 412.715 230.248 412.948 230.903C413.184 231.556 413.302 232.343 413.302 233.264C413.302 234.191 413.185 234.982 412.952 235.637C412.719 236.289 412.382 236.788 411.94 237.132C411.499 237.473 410.965 237.644 410.337 237.644ZM410.337 236.728C410.959 236.728 411.442 236.428 411.786 235.829C412.131 235.229 412.303 234.374 412.303 233.264C412.303 232.526 412.223 231.897 412.065 231.378C411.91 230.859 411.685 230.463 411.391 230.191C411.099 229.919 410.748 229.783 410.337 229.783C409.721 229.783 409.24 230.087 408.893 230.695C408.546 231.3 408.372 232.157 408.372 233.264C408.372 234.002 408.45 234.63 408.605 235.146C408.761 235.662 408.984 236.055 409.276 236.324C409.57 236.593 409.924 236.728 410.337 236.728Z" fill="#18181B"/>
<path d="M34.3938 237.644C33.7665 237.644 33.2322 237.473 32.7909 237.132C32.3495 236.788 32.0123 236.289 31.7792 235.637C31.546 234.982 31.4294 234.191 31.4294 233.264C31.4294 232.343 31.546 231.556 31.7792 230.903C32.0151 230.248 32.3537 229.749 32.795 229.405C33.2391 229.058 33.772 228.884 34.3938 228.884C35.0155 228.884 35.547 229.058 35.9884 229.405C36.4324 229.749 36.7711 230.248 37.0042 230.903C37.2401 231.556 37.3581 232.343 37.3581 233.264C37.3581 234.191 37.2415 234.982 37.0084 235.637C36.7752 236.289 36.438 236.788 35.9967 237.132C35.5554 237.473 35.0211 237.644 34.3938 237.644ZM34.3938 236.728C35.0155 236.728 35.4985 236.428 35.8426 235.829C36.1868 235.229 36.3589 234.374 36.3589 233.264C36.3589 232.526 36.2798 231.897 36.1216 231.378C35.9661 230.859 35.7413 230.463 35.4471 230.191C35.1557 229.919 34.8046 229.783 34.3938 229.783C33.7776 229.783 33.296 230.087 32.9491 230.695C32.6021 231.3 32.4286 232.157 32.4286 233.264C32.4286 234.002 32.5064 234.63 32.6618 235.146C32.8172 235.662 33.0407 236.055 33.3321 236.324C33.6263 236.593 33.9802 236.728 34.3938 236.728Z" fill="#18181B"/>
<circle cx="221" cy="235.002" r="7.81609" fill="#18181B"/>
<g filter="url(#filter6_i_1164_111798)">
<path d="M226.676 240.374C225.251 241.878 223.235 242.816 221 242.816C216.683 242.816 213.184 239.317 213.184 235C213.184 232.765 214.122 230.749 215.626 229.324C218.793 226.325 318.415 114.828 318.415 114.828C318.415 114.828 229.421 237.475 226.676 240.374Z" fill="#18181B"/>
</g>
<path d="M207.654 268.725L213.294 254.943H206.142V252.35H216.228V254.943L210.61 268.725H207.654ZM219.027 268.725V265.916H221.836V268.725H219.027ZM230.335 269.066C229.501 269.066 228.724 268.895 228.004 268.554C227.284 268.205 226.662 267.728 226.139 267.121C225.624 266.515 225.252 265.81 225.025 265.006L227.663 264.301C227.769 264.741 227.962 265.12 228.243 265.438C228.531 265.757 228.865 266.003 229.244 266.177C229.63 266.352 230.028 266.439 230.438 266.439C230.968 266.439 231.453 266.31 231.893 266.052C232.333 265.795 232.682 265.45 232.939 265.018C233.197 264.578 233.326 264.093 233.326 263.562C233.326 263.031 233.193 262.55 232.928 262.118C232.67 261.678 232.321 261.333 231.882 261.083C231.442 260.825 230.961 260.697 230.438 260.697C229.808 260.697 229.285 260.81 228.868 261.038C228.459 261.265 228.144 261.508 227.925 261.765L225.582 261.015L226.082 252.35H234.975V254.92H227.549L228.573 253.953L228.209 259.98L227.709 259.366C228.133 258.979 228.626 258.691 229.187 258.502C229.748 258.312 230.29 258.218 230.813 258.218C231.836 258.218 232.742 258.453 233.531 258.923C234.327 259.385 234.948 260.018 235.395 260.822C235.85 261.625 236.078 262.539 236.078 263.562C236.078 264.585 235.812 265.514 235.282 266.348C234.751 267.174 234.05 267.834 233.178 268.327C232.314 268.819 231.366 269.066 230.335 269.066Z" fill="#18181B"/>
<rect x="491.5" y="74.5" width="197" height="151" rx="15.5" fill="white"/>
<g clip-path="url(#clip0_1164_111798)">
<rect x="515" y="100" width="20" height="20" rx="10" fill="#F95250"/>
<path d="M513 114C516.5 113.5 528.5 111 532 99.9995M513 114C521 116.5 533.67 114.815 537 106.189M513 114C515.973 116.795 525 120 536.5 116.5M513 114C515.5 112.5 524.451 104.25 523.5 98.4995" stroke="#DD2A2E"/>
</g>
<path d="M544.12 116V104.48H548.672C548.784 104.48 548.917 104.485 549.072 104.496C549.227 104.501 549.376 104.517 549.52 104.544C550.144 104.64 550.667 104.853 551.088 105.184C551.515 105.515 551.835 105.933 552.048 106.44C552.261 106.941 552.368 107.499 552.368 108.112C552.368 108.72 552.259 109.277 552.04 109.784C551.827 110.285 551.507 110.704 551.08 111.04C550.659 111.371 550.139 111.584 549.52 111.68C549.376 111.701 549.227 111.717 549.072 111.728C548.917 111.739 548.784 111.744 548.672 111.744H545.544V116H544.12ZM545.544 110.392H548.624C548.725 110.392 548.84 110.387 548.968 110.376C549.101 110.365 549.227 110.347 549.344 110.32C549.712 110.235 550.011 110.08 550.24 109.856C550.475 109.627 550.645 109.36 550.752 109.056C550.859 108.747 550.912 108.432 550.912 108.112C550.912 107.792 550.859 107.48 550.752 107.176C550.645 106.867 550.475 106.597 550.24 106.368C550.011 106.139 549.712 105.984 549.344 105.904C549.227 105.872 549.101 105.853 548.968 105.848C548.84 105.837 548.725 105.832 548.624 105.832H545.544V110.392ZM557.566 116.24C556.707 116.24 555.966 116.045 555.342 115.656C554.723 115.267 554.246 114.728 553.91 114.04C553.574 113.352 553.406 112.563 553.406 111.672C553.406 110.765 553.576 109.971 553.918 109.288C554.259 108.605 554.742 108.075 555.366 107.696C555.99 107.312 556.723 107.12 557.566 107.12C558.43 107.12 559.174 107.315 559.798 107.704C560.422 108.088 560.899 108.624 561.23 109.312C561.566 109.995 561.734 110.781 561.734 111.672C561.734 112.573 561.566 113.368 561.23 114.056C560.894 114.739 560.414 115.275 559.79 115.664C559.166 116.048 558.424 116.24 557.566 116.24ZM557.566 114.888C558.462 114.888 559.128 114.589 559.566 113.992C560.003 113.395 560.222 112.621 560.222 111.672C560.222 110.696 560 109.92 559.558 109.344C559.115 108.763 558.451 108.472 557.566 108.472C556.963 108.472 556.467 108.608 556.078 108.88C555.688 109.152 555.398 109.528 555.206 110.008C555.014 110.488 554.918 111.043 554.918 111.672C554.918 112.643 555.142 113.421 555.59 114.008C556.038 114.595 556.696 114.888 557.566 114.888ZM567.175 116.24C566.316 116.24 565.575 116.045 564.951 115.656C564.332 115.267 563.855 114.728 563.519 114.04C563.183 113.352 563.015 112.563 563.015 111.672C563.015 110.765 563.186 109.971 563.527 109.288C563.868 108.605 564.351 108.075 564.975 107.696C565.599 107.312 566.332 107.12 567.175 107.12C568.039 107.12 568.783 107.315 569.407 107.704C570.031 108.088 570.508 108.624 570.839 109.312C571.175 109.995 571.343 110.781 571.343 111.672C571.343 112.573 571.175 113.368 570.839 114.056C570.503 114.739 570.023 115.275 569.399 115.664C568.775 116.048 568.034 116.24 567.175 116.24ZM567.175 114.888C568.071 114.888 568.738 114.589 569.175 113.992C569.612 113.395 569.831 112.621 569.831 111.672C569.831 110.696 569.61 109.92 569.167 109.344C568.724 108.763 568.06 108.472 567.175 108.472C566.572 108.472 566.076 108.608 565.687 108.88C565.298 109.152 565.007 109.528 564.815 110.008C564.623 110.488 564.527 111.043 564.527 111.672C564.527 112.643 564.751 113.421 565.199 114.008C565.647 114.595 566.306 114.888 567.175 114.888ZM573.104 116V107.36H574.376V109.448L574.168 109.176C574.27 108.909 574.4 108.664 574.56 108.44C574.726 108.216 574.91 108.032 575.112 107.888C575.336 107.707 575.59 107.568 575.872 107.472C576.155 107.376 576.443 107.32 576.736 107.304C577.03 107.283 577.304 107.301 577.56 107.36V108.696C577.262 108.616 576.934 108.595 576.576 108.632C576.219 108.669 575.888 108.8 575.584 109.024C575.307 109.221 575.091 109.461 574.936 109.744C574.787 110.027 574.683 110.333 574.624 110.664C574.566 110.989 574.536 111.323 574.536 111.664V116H573.104Z" fill="#71717A"/>
<g clip-path="url(#clip1_1164_111798)">
<rect x="588" y="100" width="20" height="20" rx="10" fill="#FBC023"/>
<path d="M586 114C589.5 113.5 601.5 111 605 99.9995M586 114C594 116.5 606.67 114.815 610 106.189M586 114C588.973 116.795 598 120 609.5 116.5M586 114C588.5 112.5 597.451 104.25 596.5 98.4995" stroke="#FAA81A"/>
</g>
<path d="M617.12 116V104.48H623.84V105.904H618.544V109.528H622.88V110.952H618.544V116H617.12ZM627.42 116.24C626.774 116.24 626.233 116.123 625.796 115.888C625.364 115.648 625.036 115.333 624.812 114.944C624.593 114.555 624.484 114.128 624.484 113.664C624.484 113.211 624.569 112.819 624.74 112.488C624.916 112.152 625.161 111.875 625.476 111.656C625.79 111.432 626.166 111.256 626.604 111.128C627.014 111.016 627.473 110.92 627.98 110.84C628.492 110.755 629.009 110.677 629.532 110.608C630.054 110.539 630.542 110.472 630.996 110.408L630.484 110.704C630.5 109.936 630.345 109.368 630.02 109C629.7 108.632 629.145 108.448 628.356 108.448C627.833 108.448 627.374 108.568 626.98 108.808C626.59 109.043 626.316 109.427 626.156 109.96L624.804 109.552C625.012 108.795 625.414 108.2 626.012 107.768C626.609 107.336 627.396 107.12 628.372 107.12C629.156 107.12 629.828 107.261 630.388 107.544C630.953 107.821 631.358 108.243 631.604 108.808C631.726 109.075 631.804 109.365 631.836 109.68C631.868 109.989 631.884 110.315 631.884 110.656V116H630.62V113.928L630.916 114.12C630.59 114.819 630.134 115.347 629.548 115.704C628.966 116.061 628.257 116.24 627.42 116.24ZM627.636 115.048C628.148 115.048 628.59 114.957 628.964 114.776C629.342 114.589 629.646 114.347 629.876 114.048C630.105 113.744 630.254 113.413 630.324 113.056C630.404 112.789 630.446 112.493 630.452 112.168C630.462 111.837 630.468 111.584 630.468 111.408L630.964 111.624C630.5 111.688 630.044 111.749 629.596 111.808C629.148 111.867 628.724 111.931 628.324 112C627.924 112.064 627.564 112.141 627.244 112.232C627.009 112.307 626.788 112.403 626.58 112.52C626.377 112.637 626.212 112.789 626.084 112.976C625.961 113.157 625.9 113.384 625.9 113.656C625.9 113.891 625.958 114.115 626.076 114.328C626.198 114.541 626.385 114.715 626.636 114.848C626.892 114.981 627.225 115.048 627.636 115.048ZM634.124 105.832V104.36H635.548V105.832H634.124ZM634.124 116V107.36H635.548V116H634.124ZM637.948 116V107.36H639.22V109.448L639.012 109.176C639.113 108.909 639.244 108.664 639.404 108.44C639.569 108.216 639.753 108.032 639.956 107.888C640.18 107.707 640.433 107.568 640.716 107.472C640.999 107.376 641.287 107.32 641.58 107.304C641.873 107.283 642.148 107.301 642.404 107.36V108.696C642.105 108.616 641.777 108.595 641.42 108.632C641.063 108.669 640.732 108.8 640.428 109.024C640.151 109.221 639.935 109.461 639.78 109.744C639.631 110.027 639.527 110.333 639.468 110.664C639.409 110.989 639.38 111.323 639.38 111.664V116H637.948Z" fill="#71717A"/>
<g clip-path="url(#clip2_1164_111798)">
<rect x="515" y="140" width="20" height="20" rx="10" fill="#F9E72B"/>
<path d="M513 154C516.5 153.5 528.5 151 532 140M513 154C521 156.5 533.67 154.815 537 146.189M513 154C515.973 156.795 525 160 536.5 156.5M513 154C515.5 152.5 524.451 144.25 523.5 138.5" stroke="#FBC023"/>
</g>
<path d="M548.784 156.24C547.995 156.24 547.275 156.101 546.624 155.824C545.973 155.547 545.413 155.149 544.944 154.632C544.475 154.109 544.112 153.48 543.856 152.744C543.605 152.003 543.48 151.168 543.48 150.24C543.48 149.013 543.699 147.952 544.136 147.056C544.573 146.16 545.189 145.469 545.984 144.984C546.779 144.493 547.712 144.248 548.784 144.248C550.075 144.248 551.115 144.549 551.904 145.152C552.693 145.749 553.237 146.568 553.536 147.608L552.096 147.904C551.856 147.205 551.461 146.648 550.912 146.232C550.363 145.816 549.677 145.608 548.856 145.608C547.997 145.603 547.283 145.795 546.712 146.184C546.147 146.568 545.72 147.109 545.432 147.808C545.144 148.507 544.997 149.317 544.992 150.24C544.987 151.157 545.128 151.963 545.416 152.656C545.704 153.349 546.133 153.893 546.704 154.288C547.28 154.677 547.997 154.875 548.856 154.88C549.597 154.885 550.221 154.744 550.728 154.456C551.235 154.168 551.627 153.752 551.904 153.208C552.181 152.664 552.349 152.011 552.408 151.248H549.96V150.072H553.912C553.928 150.179 553.936 150.307 553.936 150.456C553.941 150.6 553.944 150.699 553.944 150.752C553.944 151.803 553.747 152.744 553.352 153.576C552.963 154.403 552.384 155.053 551.616 155.528C550.853 156.003 549.909 156.24 548.784 156.24ZM559.222 156.24C558.363 156.24 557.622 156.045 556.998 155.656C556.379 155.267 555.902 154.728 555.566 154.04C555.23 153.352 555.062 152.563 555.062 151.672C555.062 150.765 555.233 149.971 555.574 149.288C555.915 148.605 556.398 148.075 557.022 147.696C557.646 147.312 558.379 147.12 559.222 147.12C560.086 147.12 560.83 147.315 561.454 147.704C562.078 148.088 562.555 148.624 562.886 149.312C563.222 149.995 563.39 150.781 563.39 151.672C563.39 152.573 563.222 153.368 562.886 154.056C562.55 154.739 562.07 155.275 561.446 155.664C560.822 156.048 560.081 156.24 559.222 156.24ZM559.222 154.888C560.118 154.888 560.785 154.589 561.222 153.992C561.659 153.395 561.878 152.621 561.878 151.672C561.878 150.696 561.657 149.92 561.214 149.344C560.771 148.763 560.107 148.472 559.222 148.472C558.619 148.472 558.123 148.608 557.734 148.88C557.345 149.152 557.054 149.528 556.862 150.008C556.67 150.488 556.574 151.043 556.574 151.672C556.574 152.643 556.798 153.421 557.246 154.008C557.694 154.595 558.353 154.888 559.222 154.888ZM568.831 156.24C567.973 156.24 567.231 156.045 566.607 155.656C565.989 155.267 565.511 154.728 565.175 154.04C564.839 153.352 564.671 152.563 564.671 151.672C564.671 150.765 564.842 149.971 565.183 149.288C565.525 148.605 566.007 148.075 566.631 147.696C567.255 147.312 567.989 147.12 568.831 147.12C569.695 147.12 570.439 147.315 571.063 147.704C571.687 148.088 572.165 148.624 572.495 149.312C572.831 149.995 572.999 150.781 572.999 151.672C572.999 152.573 572.831 153.368 572.495 154.056C572.159 154.739 571.679 155.275 571.055 155.664C570.431 156.048 569.69 156.24 568.831 156.24ZM568.831 154.888C569.727 154.888 570.394 154.589 570.831 153.992C571.269 153.395 571.487 152.621 571.487 151.672C571.487 150.696 571.266 149.92 570.823 149.344C570.381 148.763 569.717 148.472 568.831 148.472C568.229 148.472 567.733 148.608 567.343 148.88C566.954 149.152 566.663 149.528 566.471 150.008C566.279 150.488 566.183 151.043 566.183 151.672C566.183 152.643 566.407 153.421 566.855 154.008C567.303 154.595 567.962 154.888 568.831 154.888ZM578.153 156.24C577.347 156.24 576.657 156.04 576.081 155.64C575.505 155.235 575.059 154.688 574.745 154C574.435 153.312 574.281 152.536 574.281 151.672C574.281 150.808 574.435 150.032 574.745 149.344C575.059 148.656 575.505 148.115 576.081 147.72C576.657 147.32 577.345 147.12 578.145 147.12C578.961 147.12 579.646 147.317 580.201 147.712C580.755 148.107 581.174 148.648 581.457 149.336C581.745 150.024 581.889 150.803 581.889 151.672C581.889 152.531 581.745 153.307 581.457 154C581.174 154.688 580.755 155.235 580.201 155.64C579.646 156.04 578.963 156.24 578.153 156.24ZM578.329 154.936C578.91 154.936 579.387 154.797 579.761 154.52C580.134 154.237 580.409 153.851 580.585 153.36C580.766 152.864 580.857 152.301 580.857 151.672C580.857 151.032 580.766 150.469 580.585 149.984C580.409 149.493 580.137 149.112 579.769 148.84C579.401 148.563 578.934 148.424 578.369 148.424C577.782 148.424 577.297 148.568 576.913 148.856C576.534 149.144 576.251 149.533 576.065 150.024C575.883 150.515 575.793 151.064 575.793 151.672C575.793 152.285 575.886 152.84 576.073 153.336C576.259 153.827 576.539 154.216 576.913 154.504C577.291 154.792 577.763 154.936 578.329 154.936ZM580.857 156V149.64H580.697V144.48H582.129V156H580.857Z" fill="#71717A"/>
<g clip-path="url(#clip3_1164_111798)">
<rect x="594" y="140" width="20" height="20" rx="10" fill="#A2D84B"/>
<path d="M592 154C595.5 153.5 607.5 151 611 140M592 154C600 156.5 612.67 154.815 616 146.189M592 154C594.973 156.795 604 160 615.5 156.5M592 154C594.5 152.5 603.451 144.25 602.5 138.5" stroke="#89C22C"/>
</g>
<path d="M627.784 156.24C626.995 156.24 626.275 156.101 625.624 155.824C624.973 155.547 624.413 155.149 623.944 154.632C623.475 154.109 623.112 153.48 622.856 152.744C622.605 152.003 622.48 151.168 622.48 150.24C622.48 149.013 622.699 147.952 623.136 147.056C623.573 146.16 624.189 145.469 624.984 144.984C625.779 144.493 626.712 144.248 627.784 144.248C629.075 144.248 630.115 144.549 630.904 145.152C631.693 145.749 632.237 146.568 632.536 147.608L631.096 147.904C630.856 147.205 630.461 146.648 629.912 146.232C629.363 145.816 628.677 145.608 627.856 145.608C626.997 145.603 626.283 145.795 625.712 146.184C625.147 146.568 624.72 147.109 624.432 147.808C624.144 148.507 623.997 149.317 623.992 150.24C623.987 151.157 624.128 151.963 624.416 152.656C624.704 153.349 625.133 153.893 625.704 154.288C626.28 154.677 626.997 154.875 627.856 154.88C628.597 154.885 629.221 154.744 629.728 154.456C630.235 154.168 630.627 153.752 630.904 153.208C631.181 152.664 631.349 152.011 631.408 151.248H628.96V150.072H632.912C632.928 150.179 632.936 150.307 632.936 150.456C632.941 150.6 632.944 150.699 632.944 150.752C632.944 151.803 632.747 152.744 632.352 153.576C631.963 154.403 631.384 155.053 630.616 155.528C629.853 156.003 628.909 156.24 627.784 156.24ZM634.542 156V147.36H635.814V149.448L635.606 149.176C635.707 148.909 635.838 148.664 635.998 148.44C636.163 148.216 636.347 148.032 636.55 147.888C636.774 147.707 637.027 147.568 637.31 147.472C637.593 147.376 637.881 147.32 638.174 147.304C638.467 147.283 638.742 147.301 638.998 147.36V148.696C638.699 148.616 638.371 148.595 638.014 148.632C637.657 148.669 637.326 148.8 637.022 149.024C636.745 149.221 636.529 149.461 636.374 149.744C636.225 150.027 636.121 150.333 636.062 150.664C636.003 150.989 635.974 151.323 635.974 151.664V156H634.542ZM644.098 156.24C643.25 156.24 642.509 156.053 641.874 155.68C641.245 155.301 640.754 154.776 640.402 154.104C640.05 153.427 639.874 152.637 639.874 151.736C639.874 150.792 640.048 149.976 640.394 149.288C640.741 148.595 641.224 148.061 641.842 147.688C642.466 147.309 643.197 147.12 644.034 147.12C644.904 147.12 645.642 147.32 646.25 147.72C646.864 148.12 647.322 148.691 647.626 149.432C647.936 150.173 648.069 151.056 648.026 152.08H646.586V151.568C646.57 150.507 646.354 149.715 645.938 149.192C645.522 148.664 644.904 148.4 644.082 148.4C643.202 148.4 642.533 148.683 642.074 149.248C641.616 149.813 641.386 150.624 641.386 151.68C641.386 152.699 641.616 153.488 642.074 154.048C642.533 154.608 643.186 154.888 644.034 154.888C644.605 154.888 645.101 154.757 645.522 154.496C645.944 154.235 646.274 153.859 646.514 153.368L647.882 153.84C647.546 154.603 647.04 155.195 646.362 155.616C645.69 156.032 644.936 156.24 644.098 156.24ZM640.906 152.08V150.936H647.29V152.08H640.906ZM652.107 156.24C651.462 156.24 650.921 156.123 650.483 155.888C650.051 155.648 649.723 155.333 649.499 154.944C649.281 154.555 649.171 154.128 649.171 153.664C649.171 153.211 649.257 152.819 649.427 152.488C649.603 152.152 649.849 151.875 650.163 151.656C650.478 151.432 650.854 151.256 651.291 151.128C651.702 151.016 652.161 150.92 652.667 150.84C653.179 150.755 653.697 150.677 654.219 150.608C654.742 150.539 655.23 150.472 655.683 150.408L655.171 150.704C655.187 149.936 655.033 149.368 654.707 149C654.387 148.632 653.833 148.448 653.043 148.448C652.521 148.448 652.062 148.568 651.667 148.808C651.278 149.043 651.003 149.427 650.843 149.96L649.491 149.552C649.699 148.795 650.102 148.2 650.699 147.768C651.297 147.336 652.083 147.12 653.059 147.12C653.843 147.12 654.515 147.261 655.075 147.544C655.641 147.821 656.046 148.243 656.291 148.808C656.414 149.075 656.491 149.365 656.523 149.68C656.555 149.989 656.571 150.315 656.571 150.656V156H655.307V153.928L655.603 154.12C655.278 154.819 654.822 155.347 654.235 155.704C653.654 156.061 652.945 156.24 652.107 156.24ZM652.323 155.048C652.835 155.048 653.278 154.957 653.651 154.776C654.03 154.589 654.334 154.347 654.563 154.048C654.793 153.744 654.942 153.413 655.011 153.056C655.091 152.789 655.134 152.493 655.139 152.168C655.15 151.837 655.155 151.584 655.155 151.408L655.651 151.624C655.187 151.688 654.731 151.749 654.283 151.808C653.835 151.867 653.411 151.931 653.011 152C652.611 152.064 652.251 152.141 651.931 152.232C651.697 152.307 651.475 152.403 651.267 152.52C651.065 152.637 650.899 152.789 650.771 152.976C650.649 153.157 650.587 153.384 650.587 153.656C650.587 153.891 650.646 154.115 650.763 154.328C650.886 154.541 651.073 154.715 651.323 154.848C651.579 154.981 651.913 155.048 652.323 155.048ZM663.475 156C662.963 156.101 662.457 156.141 661.955 156.12C661.459 156.104 661.017 156.005 660.627 155.824C660.238 155.637 659.942 155.349 659.739 154.96C659.569 154.619 659.475 154.275 659.459 153.928C659.449 153.576 659.443 153.179 659.443 152.736V144.96H660.867V152.672C660.867 153.024 660.87 153.325 660.875 153.576C660.886 153.827 660.942 154.043 661.043 154.224C661.235 154.565 661.539 154.765 661.955 154.824C662.377 154.883 662.883 154.867 663.475 154.776V156ZM657.691 148.536V147.36H663.475V148.536H657.691Z" fill="#71717A"/>
<g clip-path="url(#clip4_1164_111798)">
<rect x="515" y="180" width="20" height="20" rx="10" fill="#22C55E"/>
<path d="M513 194C516.5 193.5 528.5 191 532 180M513 194C521 196.5 533.67 194.815 537 186.189M513 194C515.973 196.795 525 200 536.5 196.5M513 194C515.5 192.5 524.451 184.25 523.5 178.5" stroke="#16A34A"/>
</g>
<path d="M544.12 196V184.48H551.4V185.832H545.544V189.44H550.44V190.792H545.544V194.648H551.4V196H544.12ZM552.363 196L555.667 191.632L552.435 187.36H554.131L556.499 190.528L558.843 187.36H560.539L557.307 191.632L560.619 196H558.915L556.499 192.736L554.067 196H552.363ZM565.333 196.24C564.485 196.24 563.743 196.053 563.109 195.68C562.479 195.301 561.989 194.776 561.637 194.104C561.285 193.427 561.109 192.637 561.109 191.736C561.109 190.792 561.282 189.976 561.629 189.288C561.975 188.595 562.458 188.061 563.077 187.688C563.701 187.309 564.431 187.12 565.269 187.12C566.138 187.12 566.877 187.32 567.485 187.72C568.098 188.12 568.557 188.691 568.861 189.432C569.17 190.173 569.303 191.056 569.261 192.08H567.821V191.568C567.805 190.507 567.589 189.715 567.173 189.192C566.757 188.664 566.138 188.4 565.317 188.4C564.437 188.4 563.767 188.683 563.309 189.248C562.85 189.813 562.621 190.624 562.621 191.68C562.621 192.699 562.85 193.488 563.309 194.048C563.767 194.608 564.421 194.888 565.269 194.888C565.839 194.888 566.335 194.757 566.757 194.496C567.178 194.235 567.509 193.859 567.749 193.368L569.117 193.84C568.781 194.603 568.274 195.195 567.597 195.616C566.925 196.032 566.17 196.24 565.333 196.24ZM562.141 192.08V190.936H568.525V192.08H562.141ZM571.202 196V184.24H572.626V196H571.202ZM575.186 196V184.24H576.61V196H575.186ZM582.755 196.24C581.907 196.24 581.165 196.053 580.531 195.68C579.901 195.301 579.411 194.776 579.059 194.104C578.707 193.427 578.531 192.637 578.531 191.736C578.531 190.792 578.704 189.976 579.051 189.288C579.397 188.595 579.88 188.061 580.499 187.688C581.123 187.309 581.853 187.12 582.691 187.12C583.56 187.12 584.299 187.32 584.907 187.72C585.52 188.12 585.979 188.691 586.283 189.432C586.592 190.173 586.725 191.056 586.683 192.08H585.243V191.568C585.227 190.507 585.011 189.715 584.595 189.192C584.179 188.664 583.56 188.4 582.739 188.4C581.859 188.4 581.189 188.683 580.731 189.248C580.272 189.813 580.043 190.624 580.043 191.68C580.043 192.699 580.272 193.488 580.731 194.048C581.189 194.608 581.843 194.888 582.691 194.888C583.261 194.888 583.757 194.757 584.179 194.496C584.6 194.235 584.931 193.859 585.171 193.368L586.539 193.84C586.203 194.603 585.696 195.195 585.019 195.616C584.347 196.032 583.592 196.24 582.755 196.24ZM579.563 192.08V190.936H585.947V192.08H579.563ZM594.381 196V191.672C594.381 191.261 594.344 190.867 594.269 190.488C594.2 190.109 594.075 189.771 593.893 189.472C593.717 189.168 593.477 188.928 593.173 188.752C592.875 188.576 592.496 188.488 592.037 188.488C591.68 188.488 591.355 188.549 591.061 188.672C590.773 188.789 590.525 188.971 590.317 189.216C590.109 189.461 589.947 189.771 589.829 190.144C589.717 190.512 589.661 190.947 589.661 191.448L588.725 191.16C588.725 190.323 588.875 189.605 589.173 189.008C589.477 188.405 589.901 187.944 590.445 187.624C590.995 187.299 591.64 187.136 592.381 187.136C592.941 187.136 593.419 187.224 593.813 187.4C594.208 187.576 594.536 187.811 594.797 188.104C595.059 188.392 595.264 188.717 595.413 189.08C595.563 189.437 595.667 189.803 595.725 190.176C595.789 190.544 595.821 190.893 595.821 191.224V196H594.381ZM588.221 196V187.36H589.501V189.672H589.661V196H588.221ZM602.725 196C602.213 196.101 601.707 196.141 601.205 196.12C600.709 196.104 600.267 196.005 599.877 195.824C599.488 195.637 599.192 195.349 598.989 194.96C598.819 194.619 598.725 194.275 598.709 193.928C598.699 193.576 598.693 193.179 598.693 192.736V184.96H600.117V192.672C600.117 193.024 600.12 193.325 600.125 193.576C600.136 193.827 600.192 194.043 600.293 194.224C600.485 194.565 600.789 194.765 601.205 194.824C601.627 194.883 602.133 194.867 602.725 194.776V196ZM596.941 188.536V187.36H602.725V188.536H596.941Z" fill="#71717A"/>
<rect x="491.5" y="74.5" width="197" height="151" rx="15.5" stroke="#E4E4E7"/>
<defs>
<filter id="filter0_f_1164_111798" x="259.943" y="63.1006" width="134.634" height="136.941" filterUnits="userSpaceOnUse" color-interpolation-filters="sRGB">
<feFlood flood-opacity="0" result="BackgroundImageFix"/>
<feBlend mode="normal" in="SourceGraphic" in2="BackgroundImageFix" result="shape"/>
<feGaussianBlur stdDeviation="5.25097" result="effect1_foregroundBlur_1164_111798"/>
</filter>
<filter id="filter1_i_1164_111798" x="320.028" y="135.079" width="72.6379" height="99.9233" filterUnits="userSpaceOnUse" color-interpolation-filters="sRGB">
<feFlood flood-opacity="0" result="BackgroundImageFix"/>
<feBlend mode="normal" in="SourceGraphic" in2="BackgroundImageFix" result="shape"/>
<feColorMatrix in="SourceAlpha" type="matrix" values="0 0 0 0 0 0 0 0 0 0 0 0 0 0 0 0 0 0 127 0" result="hardAlpha"/>
<feOffset dx="1.66158"/>
<feGaussianBlur stdDeviation="1.31274"/>
<feComposite in2="hardAlpha" operator="arithmetic" k2="-1" k3="1"/>
<feColorMatrix type="matrix" values="0 0 0 0 0.10625 0 0 0 0 0.708333 0 0 0 0 0.327876 0 0 0 1 0"/>
<feBlend mode="normal" in2="shape" result="effect1_innerShadow_1164_111798"/>
</filter>
<filter id="filter2_i_1164_111798" x="49.3423" y="135.079" width="72.6379" height="99.9233" filterUnits="userSpaceOnUse" color-interpolation-filters="sRGB">
<feFlood flood-opacity="0" result="BackgroundImageFix"/>
<feBlend mode="normal" in="SourceGraphic" in2="BackgroundImageFix" result="shape"/>
<feColorMatrix in="SourceAlpha" type="matrix" values="0 0 0 0 0 0 0 0 0 0 0 0 0 0 0 0 0 0 127 0" result="hardAlpha"/>
<feOffset dx="-1.66158"/>
<feGaussianBlur stdDeviation="1.31274"/>
<feComposite in2="hardAlpha" operator="arithmetic" k2="-1" k3="1"/>
<feColorMatrix type="matrix" values="0 0 0 0 0.8625 0 0 0 0 0.162909 0 0 0 0 0.154531 0 0 0 1 0"/>
<feBlend mode="normal" in2="shape" result="effect1_innerShadow_1164_111798"/>
</filter>
<filter id="filter3_i_1164_111798" x="83.4709" y="70.6968" width="99.7092" height="92.3603" filterUnits="userSpaceOnUse" color-interpolation-filters="sRGB">
<feFlood flood-opacity="0" result="BackgroundImageFix"/>
<feBlend mode="normal" in="SourceGraphic" in2="BackgroundImageFix" result="shape"/>
<feColorMatrix in="SourceAlpha" type="matrix" values="0 0 0 0 0 0 0 0 0 0 0 0 0 0 0 0 0 0 127 0" result="hardAlpha"/>
<feOffset dy="-2.62548"/>
<feGaussianBlur stdDeviation="1.31274"/>
<feComposite in2="hardAlpha" operator="arithmetic" k2="-1" k3="1"/>
<feColorMatrix type="matrix" values="0 0 0 0 0.979167 0 0 0 0 0.711709 0 0 0 0 0 0 0 0 1 0"/>
<feBlend mode="normal" in2="shape" result="effect1_innerShadow_1164_111798"/>
</filter>
<filter id="filter4_i_1164_111798" x="168.471" y="62.3765" width="105.066" height="56.2163" filterUnits="userSpaceOnUse" color-interpolation-filters="sRGB">
<feFlood flood-opacity="0" result="BackgroundImageFix"/>
<feBlend mode="normal" in="SourceGraphic" in2="BackgroundImageFix" result="shape"/>
<feColorMatrix in="SourceAlpha" type="matrix" values="0 0 0 0 0 0 0 0 0 0 0 0 0 0 0 0 0 0 127 0" result="hardAlpha"/>
<feOffset dy="-2.62548"/>
<feGaussianBlur stdDeviation="1.31274"/>
<feComposite in2="hardAlpha" operator="arithmetic" k2="-1" k3="1"/>
<feColorMatrix type="matrix" values="0 0 0 0 0.933333 0 0 0 0 0.861634 0 0 0 0 0.112778 0 0 0 1 0"/>
<feBlend mode="normal" in2="shape" result="effect1_innerShadow_1164_111798"/>
</filter>
<filter id="filter5_i_1164_111798" x="258.828" y="72.0095" width="101.022" height="91.0476" filterUnits="userSpaceOnUse" color-interpolation-filters="sRGB">
<feFlood flood-opacity="0" result="BackgroundImageFix"/>
<feBlend mode="normal" in="SourceGraphic" in2="BackgroundImageFix" result="shape"/>
<feColorMatrix in="SourceAlpha" type="matrix" values="0 0 0 0 0 0 0 0 0 0 0 0 0 0 0 0 0 0 127 0" result="hardAlpha"/>
<feOffset dx="1.31274" dy="-1.31274"/>
<feGaussianBlur stdDeviation="1.31274"/>
<feComposite in2="hardAlpha" operator="arithmetic" k2="-1" k3="1"/>
<feColorMatrix type="matrix" values="0 0 0 0 0.55125 0 0 0 0 0.7875 0 0 0 0 0.170625 0 0 0 1 0"/>
<feBlend mode="normal" in2="shape" result="effect1_innerShadow_1164_111798"/>
</filter>
<filter id="filter6_i_1164_111798" x="213.184" y="114.828" width="105.232" height="127.988" filterUnits="userSpaceOnUse" color-interpolation-filters="sRGB">
<feFlood flood-opacity="0" result="BackgroundImageFix"/>
<feBlend mode="normal" in="SourceGraphic" in2="BackgroundImageFix" result="shape"/>
<feColorMatrix in="SourceAlpha" type="matrix" values="0 0 0 0 0 0 0 0 0 0 0 0 0 0 0 0 0 0 127 0" result="hardAlpha"/>
<feOffset/>
<feGaussianBlur stdDeviation="5.25097"/>
<feComposite in2="hardAlpha" operator="arithmetic" k2="-1" k3="1"/>
<feColorMatrix type="matrix" values="0 0 0 0 0 0 0 0 0 0 0 0 0 0 0 0 0 0 1 0"/>
<feBlend mode="normal" in2="shape" result="effect1_innerShadow_1164_111798"/>
</filter>
<clipPath id="clip0_1164_111798">
<rect x="515" y="100" width="20" height="20" rx="10" fill="white"/>
</clipPath>
<clipPath id="clip1_1164_111798">
<rect x="588" y="100" width="20" height="20" rx="10" fill="white"/>
</clipPath>
<clipPath id="clip2_1164_111798">
<rect x="515" y="140" width="20" height="20" rx="10" fill="white"/>
</clipPath>
<clipPath id="clip3_1164_111798">
<rect x="594" y="140" width="20" height="20" rx="10" fill="white"/>
</clipPath>
<clipPath id="clip4_1164_111798">
<rect x="515" y="180" width="20" height="20" rx="10" fill="white"/>
</clipPath>
</defs>
</svg>
