<svg width="72" height="64" viewBox="0 0 72 64" fill="none" xmlns="http://www.w3.org/2000/svg">
<path d="M11.1403 24.48C8.83625 24.48 6.86292 23.9787 5.22025 22.976C3.57758 21.9627 2.31358 20.5547 1.42825 18.752C0.553583 16.9493 0.11625 14.8587 0.11625 12.48C0.11625 10.1013 0.553583 8.01067 1.42825 6.208C2.31358 4.40533 3.57758 3.00267 5.22025 2C6.86292 0.986666 8.83625 0.48 11.1403 0.48C13.4443 0.48 15.4176 0.986666 17.0603 2C18.7136 3.00267 19.9776 4.40533 20.8523 6.208C21.7376 8.01067 22.1803 10.1013 22.1803 12.48C22.1803 14.8587 21.7376 16.9493 20.8523 18.752C19.9776 20.5547 18.7136 21.9627 17.0603 22.976C15.4176 23.9787 13.4443 24.48 11.1403 24.48ZM11.1403 20.848C12.6869 20.8587 13.9723 20.5173 14.9963 19.824C16.0309 19.1307 16.8043 18.1547 17.3163 16.896C17.8389 15.6373 18.1003 14.1653 18.1003 12.48C18.1003 10.7947 17.8389 9.33333 17.3163 8.096C16.8043 6.848 16.0309 5.87733 14.9963 5.184C13.9723 4.49067 12.6869 4.13333 11.1403 4.112C9.59358 4.10133 8.30825 4.44267 7.28425 5.136C6.26025 5.82933 5.48692 6.80533 4.96425 8.064C4.45225 9.32267 4.19625 10.7947 4.19625 12.48C4.19625 14.1653 4.45225 15.632 4.96425 16.88C5.47625 18.1173 6.24425 19.0827 7.26825 19.776C8.30292 20.4693 9.59358 20.8267 11.1403 20.848ZM50.9085 24.48C49.1592 24.48 47.6232 24.1013 46.3005 23.344C44.9778 22.5867 43.9432 21.536 43.1965 20.192C42.4605 18.848 42.0925 17.3013 42.0925 15.552C42.0925 13.664 42.4552 12.0267 43.1805 10.64C43.9058 9.24267 44.9138 8.16 46.2045 7.392C47.4952 6.624 48.9885 6.24 50.6845 6.24C52.4765 6.24 53.9965 6.66133 55.2445 7.504C56.5032 8.336 57.4365 9.51467 58.0445 11.04C58.6525 12.5653 58.8818 14.3627 58.7325 16.432H54.9085V15.024C54.8978 13.1467 54.5672 11.776 53.9165 10.912C53.2658 10.048 52.2418 9.616 50.8445 9.616C49.2658 9.616 48.0925 10.1067 47.3245 11.088C46.5565 12.0587 46.1725 13.4827 46.1725 15.36C46.1725 17.1093 46.5565 18.464 47.3245 19.424C48.0925 20.384 49.2125 20.864 50.6845 20.864C51.6338 20.864 52.4498 20.656 53.1325 20.24C53.8258 19.8133 54.3592 19.2 54.7325 18.4L58.5405 19.552C57.8792 21.1093 56.8552 22.32 55.4685 23.184C54.0925 24.048 52.5725 24.48 50.9085 24.48ZM44.9565 16.432V13.52H56.8445V16.432H44.9565ZM62.3025 24V6.72H65.7105V10.928L65.2945 10.384C65.5078 9.808 65.7905 9.28533 66.1425 8.816C66.5052 8.336 66.9372 7.94133 67.4385 7.632C67.8652 7.344 68.3345 7.12 68.8465 6.96C69.3692 6.78933 69.9025 6.688 70.4465 6.656C70.9905 6.61333 71.5185 6.63467 72.0305 6.72V10.32C71.5185 10.1707 70.9265 10.1227 70.2545 10.176C69.5932 10.2293 68.9958 10.416 68.4625 10.736C67.9292 11.024 67.4918 11.392 67.1505 11.84C66.8198 12.288 66.5745 12.8 66.4145 13.376C66.2545 13.9413 66.1745 14.5547 66.1745 15.216V24H62.3025ZM16.9369 64L24.2009 40.96H29.8489L37.1129 64H33.1449L26.5529 43.328H27.4169L20.9049 64H16.9369ZM20.9849 59.008V55.408H33.0809V59.008H20.9849Z" fill="white"/>
<path d="M5.22025 22.976L4.69522 23.8271L4.69925 23.8296L5.22025 22.976ZM1.42825 18.752L0.528552 19.1885L0.530659 19.1928L1.42825 18.752ZM1.42825 6.208L0.530649 5.76716L0.528563 5.77146L1.42825 6.208ZM5.22025 2L5.74126 2.85356L5.74527 2.85109L5.22025 2ZM17.0603 2L16.5352 2.85111L16.5417 2.85505L17.0603 2ZM20.8523 6.208L19.9526 6.64454L19.9547 6.64883L20.8523 6.208ZM20.8523 18.752L19.9546 18.3112L19.9526 18.3155L20.8523 18.752ZM17.0603 22.976L17.5813 23.8296L17.5828 23.8286L17.0603 22.976ZM11.1403 20.848L11.1265 21.8479L11.1334 21.848L11.1403 20.848ZM14.9963 19.824L14.4396 18.9933L14.4356 18.996L14.9963 19.824ZM17.3163 16.896L16.3927 16.5125L16.39 16.5192L17.3163 16.896ZM17.3163 8.096L16.391 8.47558L16.3951 8.48512L17.3163 8.096ZM14.9963 5.184L14.4356 6.01206L14.4396 6.01473L14.9963 5.184ZM11.1403 4.112L11.154 3.11207L11.1471 3.11202L11.1403 4.112ZM7.28425 5.136L7.84491 5.96405L7.84491 5.96405L7.28425 5.136ZM4.96425 8.064L4.04069 7.68049L4.03795 7.6872L4.96425 8.064ZM4.96425 16.88L4.03908 17.2596L4.04023 17.2624L4.96425 16.88ZM7.26825 19.776L6.70759 20.6041L6.71158 20.6067L7.26825 19.776ZM11.1403 23.48C8.98358 23.48 7.19854 23.012 5.74125 22.1224L4.69925 23.8296C6.5273 24.9454 8.68892 25.48 11.1403 25.48V23.48ZM5.74527 22.1249C4.26967 21.2146 3.13166 19.9519 2.32584 18.3112L0.530659 19.1928C1.49551 21.1574 2.8855 22.7107 4.69523 23.8271L5.74527 22.1249ZM2.32794 18.3155C1.53052 16.672 1.11625 14.7355 1.11625 12.48H-0.88375C-0.88375 14.9818 -0.423358 17.2266 0.528563 19.1885L2.32794 18.3155ZM1.11625 12.48C1.11625 10.2245 1.53052 8.28798 2.32794 6.64453L0.528563 5.77146C-0.423358 7.73335 -0.88375 9.97816 -0.88375 12.48H1.11625ZM2.32584 6.64883C3.13124 5.00891 4.26805 3.75278 5.74125 2.85355L4.69925 1.14644C2.88712 2.25255 1.49592 3.80176 0.530659 5.76717L2.32584 6.64883ZM5.74527 2.85109C7.20189 1.95252 8.98544 1.48 11.1403 1.48V-0.52C8.68706 -0.52 6.52394 0.020807 4.69523 1.14891L5.74527 2.85109ZM11.1403 1.48C13.2951 1.48 15.0786 1.95252 16.5352 2.85109L17.5853 1.14891C15.7566 0.020807 13.5934 -0.52 11.1403 -0.52V1.48ZM16.5417 2.85505C18.0241 3.75408 19.1588 5.00854 19.9526 6.64453L21.7519 5.77146C20.7964 3.80212 19.403 2.25125 17.5788 1.14495L16.5417 2.85505ZM19.9547 6.64883C20.7613 8.29124 21.1803 10.2262 21.1803 12.48H23.1803C23.1803 9.97647 22.7139 7.7301 21.7498 5.76717L19.9547 6.64883ZM21.1803 12.48C21.1803 14.7338 20.7613 16.6688 19.9547 18.3112L21.7498 19.1928C22.7139 17.2299 23.1803 14.9835 23.1803 12.48H21.1803ZM19.9526 18.3155C19.1584 19.9523 18.0225 21.2133 16.5377 22.1234L17.5828 23.8286C19.4046 22.712 20.7968 21.157 21.7519 19.1885L19.9526 18.3155ZM16.5392 22.1224C15.082 23.012 13.2969 23.48 11.1403 23.48V25.48C13.5916 25.48 15.7532 24.9454 17.5813 23.8296L16.5392 22.1224ZM11.1334 21.848C12.8313 21.8597 14.3277 21.4843 15.5569 20.652L14.4356 18.996C13.6168 19.5504 12.5425 19.8576 11.1471 19.848L11.1334 21.848ZM15.5529 20.6547C16.7684 19.8402 17.6625 18.6987 18.2425 17.2728L16.39 16.5192C15.946 17.6107 15.2934 18.4211 14.4396 18.9933L15.5529 20.6547ZM18.2398 17.2795C18.8233 15.8742 19.1003 14.2668 19.1003 12.48H17.1003C17.1003 14.0639 16.8545 15.4005 16.3927 16.5125L18.2398 17.2795ZM19.1003 12.48C19.1003 10.6939 18.8235 9.0944 18.2374 7.70688L16.3951 8.48512C16.8543 9.57227 17.1003 10.8955 17.1003 12.48H19.1003ZM18.2414 7.71644C17.6606 6.30078 16.7663 5.16632 15.5529 4.35327L14.4396 6.01473C15.2956 6.58834 15.9479 7.39522 16.3911 8.47556L18.2414 7.71644ZM15.5569 4.35595C14.335 3.52864 12.8469 3.13544 11.154 3.11209L11.1265 5.1119C12.5269 5.13122 13.6095 5.45269 14.4356 6.01205L15.5569 4.35595ZM11.1471 3.11202C9.44921 3.10031 7.95278 3.47569 6.72359 4.30795L7.84491 5.96405C8.66372 5.40964 9.73796 5.10235 11.1334 5.11198L11.1471 3.11202ZM6.72359 4.30795C5.52145 5.1219 4.63036 6.26052 4.04071 7.6805L5.88779 8.4475C6.34347 7.35014 6.99905 6.53676 7.84491 5.96405L6.72359 4.30795ZM4.03795 7.6872C3.46712 9.09051 3.19625 10.6955 3.19625 12.48H5.19625C5.19625 10.8938 5.43738 9.55482 5.89055 8.4408L4.03795 7.6872ZM3.19625 12.48C3.19625 14.2642 3.46702 15.8652 4.03908 17.2596L5.88942 16.5004C5.43748 15.3988 5.19625 14.0665 5.19625 12.48H3.19625ZM4.04023 17.2624C4.62062 18.665 5.50796 19.7918 6.70759 20.604L7.82891 18.948C6.98054 18.3735 6.33188 17.5697 5.88827 16.4976L4.04023 17.2624ZM6.71158 20.6067C7.94198 21.4312 9.43315 21.8245 11.1265 21.8479L11.154 19.8481C9.75402 19.8288 8.66385 19.5074 7.82493 18.9453L6.71158 20.6067ZM30.037 24L29.097 24.3412L29.3361 25H30.037V24ZM23.765 6.72V5.72H22.3382L22.825 7.06118L23.765 6.72ZM27.621 6.72L28.5656 6.39185L28.3322 5.72H27.621V6.72ZM31.973 19.248L31.0284 19.5761L31.9747 22.3004L32.918 19.5751L31.973 19.248ZM36.309 6.72V5.72H35.5969L35.364 6.39293L36.309 6.72ZM40.181 6.72L41.121 7.06118L41.6078 5.72H40.181V6.72ZM33.909 24V25H34.6099L34.849 24.3412L33.909 24ZM30.977 23.6588L24.705 6.37882L22.825 7.06118L29.097 24.3412L30.977 23.6588ZM23.765 7.72H27.621V5.72H23.765V7.72ZM26.6764 7.04815L31.0284 19.5761L32.9176 18.9199L28.5656 6.39185L26.6764 7.04815ZM32.918 19.5751L37.254 7.04707L35.364 6.39293L31.028 18.9209L32.918 19.5751ZM36.309 7.72H40.181V5.72H36.309V7.72ZM39.241 6.37882L32.969 23.6588L34.849 24.3412L41.121 7.06118L39.241 6.37882ZM33.909 23H30.037V25H33.909V23ZM46.3005 23.344L46.7974 22.4762L46.7974 22.4762L46.3005 23.344ZM43.1965 20.192L42.3194 20.6723L42.3223 20.6776L43.1965 20.192ZM43.1805 10.64L44.0666 11.1035L44.068 11.1007L43.1805 10.64ZM46.2045 7.392L45.6931 6.53263L45.6931 6.53263L46.2045 7.392ZM55.2445 7.504L54.6849 8.33281L54.6931 8.33822L55.2445 7.504ZM58.0445 11.04L57.1156 11.4103L57.1156 11.4103L58.0445 11.04ZM58.7325 16.432V17.432H59.6629L59.7299 16.504L58.7325 16.432ZM54.9085 16.432H53.9085V17.432H54.9085V16.432ZM54.9085 15.024H55.9085L55.9085 15.0183L54.9085 15.024ZM53.9165 10.912L54.7153 10.3104L54.7153 10.3104L53.9165 10.912ZM47.3245 11.088L48.1087 11.7085L48.112 11.7043L47.3245 11.088ZM47.3245 19.424L46.5436 20.0487L46.5436 20.0487L47.3245 19.424ZM53.1325 20.24L53.6529 21.0939L53.6566 21.0917L53.1325 20.24ZM54.7325 18.4L55.0221 17.4428L54.1927 17.1919L53.8263 17.9771L54.7325 18.4ZM58.5405 19.552L59.4609 19.9429L59.8964 18.9174L58.8301 18.5948L58.5405 19.552ZM55.4685 23.184L54.9397 22.3353L54.9367 22.3371L55.4685 23.184ZM44.9565 16.432H43.9565V17.432H44.9565V16.432ZM44.9565 13.52V12.52H43.9565V13.52H44.9565ZM56.8445 13.52H57.8445V12.52H56.8445V13.52ZM56.8445 16.432V17.432H57.8445V16.432H56.8445ZM50.9085 23.48C49.3074 23.48 47.9476 23.1348 46.7974 22.4762L45.8036 24.2118C47.2987 25.0679 49.011 25.48 50.9085 25.48V23.48ZM46.7974 22.4762C45.6344 21.8103 44.7296 20.8924 44.0707 19.7064L42.3223 20.6776C43.1567 22.1796 44.3212 23.363 45.8036 24.2118L46.7974 22.4762ZM44.0736 19.7117C43.429 18.5347 43.0925 17.1575 43.0925 15.552H41.0925C41.0925 17.4452 41.492 19.1613 42.3194 20.6723L44.0736 19.7117ZM43.0925 15.552C43.0925 13.7924 43.43 12.3205 44.0666 11.1035L42.2944 10.1765C41.4803 11.7329 41.0925 13.5356 41.0925 15.552H43.0925ZM44.068 11.1007C44.7119 9.86035 45.5932 8.91941 46.7159 8.25137L45.6931 6.53263C44.2345 7.40059 43.0998 8.62499 42.293 10.1793L44.068 11.1007ZM46.7159 8.25137C47.8326 7.58686 49.1447 7.24 50.6845 7.24V5.24C48.8323 5.24 47.1577 5.66114 45.6931 6.53263L46.7159 8.25137ZM50.6845 7.24C52.3157 7.24 53.6315 7.62151 54.6849 8.33277L55.8041 6.67523C54.3615 5.70115 52.6373 5.24 50.6845 5.24V7.24ZM54.6931 8.33822C55.7664 9.04771 56.5761 10.0569 57.1156 11.4103L58.9734 10.6697C58.2969 8.97242 57.2399 7.62429 55.7959 6.66978L54.6931 8.33822ZM57.1156 11.4103C57.6549 12.7633 57.8763 14.4028 57.7351 16.36L59.7299 16.504C59.8873 14.3225 59.6501 12.3674 58.9734 10.6697L57.1156 11.4103ZM58.7325 15.432H54.9085V17.432H58.7325V15.432ZM55.9085 16.432V15.024H53.9085V16.432H55.9085ZM55.9085 15.0183C55.8974 13.0673 55.5603 11.4325 54.7153 10.3104L53.1177 11.5136C53.574 12.1195 53.8983 13.2261 53.9085 15.0297L55.9085 15.0183ZM54.7153 10.3104C53.8225 9.12489 52.4554 8.616 50.8445 8.616V10.616C52.0282 10.616 52.7092 10.9711 53.1177 11.5136L54.7153 10.3104ZM50.8445 8.616C49.0482 8.616 47.5438 9.18522 46.537 10.4717L48.112 11.7043C48.6412 11.0281 49.4834 10.616 50.8445 10.616V8.616ZM46.5403 10.4675C45.5765 11.6856 45.1725 13.3683 45.1725 15.36H47.1725C47.1725 13.597 47.5365 12.4318 48.1087 11.7085L46.5403 10.4675ZM45.1725 15.36C45.1725 17.2425 45.5845 18.8498 46.5436 20.0487L48.1054 18.7993C47.5285 18.0782 47.1725 16.9761 47.1725 15.36H45.1725ZM46.5436 20.0487C47.5395 21.2935 48.9754 21.864 50.6845 21.864V19.864C49.4496 19.864 48.6455 19.4745 48.1054 18.7993L46.5436 20.0487ZM50.6845 21.864C51.7827 21.864 52.7862 21.6221 53.6529 21.0939L52.6121 19.3861C52.1135 19.6899 51.485 19.864 50.6845 19.864V21.864ZM53.6566 21.0917C54.5306 20.5538 55.1899 19.7845 55.6387 18.8229L53.8263 17.9771C53.5284 18.6155 53.1211 19.0728 52.6084 19.3883L53.6566 21.0917ZM54.4429 19.3572L58.2509 20.5092L58.8301 18.5948L55.0221 17.4428L54.4429 19.3572ZM57.6201 19.1611C57.036 20.5364 56.1453 21.584 54.9397 22.3353L55.9973 24.0327C57.565 23.056 58.7223 21.6823 59.4609 19.9429L57.6201 19.1611ZM54.9367 22.3371C53.7241 23.0985 52.3892 23.48 50.9085 23.48V25.48C52.7558 25.48 54.4609 24.9975 56.0003 24.0309L54.9367 22.3371ZM45.9565 16.432V13.52H43.9565V16.432H45.9565ZM44.9565 14.52H56.8445V12.52H44.9565V14.52ZM55.8445 13.52V16.432H57.8445V13.52H55.8445ZM56.8445 15.432H44.9565V17.432H56.8445V15.432ZM62.3025 24H61.3025V25H62.3025V24ZM62.3025 6.72V5.72H61.3025V6.72H62.3025ZM65.7105 6.72H66.7105V5.72H65.7105V6.72ZM65.7105 10.928L64.9161 11.5354L66.7105 13.8819V10.928H65.7105ZM65.2945 10.384L64.3568 10.0367L64.1653 10.5536L64.5001 10.9915L65.2945 10.384ZM66.1425 8.816L65.3446 8.21316L65.3425 8.216L66.1425 8.816ZM67.4385 7.632L67.9636 8.48304L67.981 8.47229L67.998 8.46085L67.4385 7.632ZM68.8465 6.96L69.1448 7.91456L69.1569 7.9106L68.8465 6.96ZM70.4465 6.656L70.5052 7.65427L70.515 7.6537L70.5247 7.65294L70.4465 6.656ZM72.0305 6.72H73.0305V5.87287L72.1949 5.73361L72.0305 6.72ZM72.0305 10.32L71.7505 11.28L73.0305 11.6533V10.32H72.0305ZM70.2545 10.176L70.1754 9.17913L70.1741 9.17924L70.2545 10.176ZM68.4625 10.736L68.9376 11.6159L68.9576 11.6051L68.977 11.5935L68.4625 10.736ZM67.1505 11.84L66.3551 11.234L66.3505 11.24L66.3459 11.2461L67.1505 11.84ZM66.4145 13.376L67.3767 13.6483L67.378 13.6436L66.4145 13.376ZM66.1745 24V25H67.1745V24H66.1745ZM63.3025 24V6.72H61.3025V24H63.3025ZM62.3025 7.72H65.7105V5.72H62.3025V7.72ZM64.7105 6.72V10.928H66.7105V6.72H64.7105ZM66.5049 10.3205L66.0889 9.77655L64.5001 10.9915L64.9161 11.5354L66.5049 10.3205ZM66.2322 10.7313C66.4137 10.2415 66.651 9.80463 66.9425 9.416L65.3425 8.216C64.93 8.76604 64.602 9.37452 64.3568 10.0367L66.2322 10.7313ZM66.9404 9.41883C67.2299 9.03562 67.5701 8.72586 67.9636 8.48304L66.9134 6.78096C66.3043 7.1568 65.7804 7.63638 65.3446 8.21317L66.9404 9.41883ZM67.998 8.46085C68.3408 8.22944 68.7216 8.04673 69.1448 7.91448L68.5482 6.00552C67.9474 6.19326 67.3895 6.45856 66.879 6.80315L67.998 8.46085ZM69.1569 7.9106C69.5988 7.76631 70.0476 7.68119 70.5052 7.65427L70.3878 5.65772C69.7574 5.6948 69.1395 5.81235 68.5361 6.00939L69.1569 7.9106ZM70.5247 7.65294C70.9918 7.6163 71.4382 7.63508 71.8661 7.70639L72.1949 5.73361C71.5988 5.63425 70.9892 5.61037 70.3683 5.65906L70.5247 7.65294ZM71.0305 6.72V10.32H73.0305V6.72H71.0305ZM72.3105 9.36C71.6558 9.16905 70.9377 9.11863 70.1754 9.17913L70.3336 11.1729C70.9153 11.1267 71.3812 11.1723 71.7505 11.28L72.3105 9.36ZM70.1741 9.17924C69.3698 9.2441 68.6221 9.47404 67.948 9.87851L68.977 11.5935C69.3695 11.358 69.8166 11.2146 70.3349 11.1728L70.1741 9.17924ZM67.9874 9.85609C67.3387 10.2064 66.7889 10.6645 66.3551 11.234L67.9459 12.446C68.1948 12.1195 68.5197 11.8416 68.9376 11.6159L67.9874 9.85609ZM66.3459 11.2461C65.9376 11.7993 65.6412 12.4235 65.451 13.1084L67.378 13.6436C67.5078 13.1765 67.702 12.7767 67.9551 12.4339L66.3459 11.2461ZM65.4523 13.1037C65.2643 13.7679 65.1745 14.4739 65.1745 15.216H67.1745C67.1745 14.6354 67.2447 14.1147 67.3767 13.6483L65.4523 13.1037ZM65.1745 15.216V24H67.1745V15.216H65.1745ZM66.1745 23H62.3025V25H66.1745V23ZM16.9369 64L15.9832 63.6993L15.5731 65H16.9369V64ZM24.2009 40.96V39.96H23.4676L23.2472 40.6593L24.2009 40.96ZM29.8489 40.96L30.8026 40.6593L30.5821 39.96H29.8489V40.96ZM37.1129 64V65H38.4767L38.0666 63.6993L37.1129 64ZM33.1449 64L32.1921 64.3038L32.4141 65H33.1449V64ZM26.5529 43.328V42.328H25.1844L25.6001 43.6318L26.5529 43.328ZM27.4169 43.328L28.3707 43.6285L28.7803 42.328H27.4169V43.328ZM20.9049 64V65H21.6383L21.8587 64.3005L20.9049 64ZM20.9849 59.008H19.9849V60.008H20.9849V59.008ZM20.9849 55.408V54.408H19.9849V55.408H20.9849ZM33.0809 55.408H34.0809V54.408H33.0809V55.408ZM33.0809 59.008V60.008H34.0809V59.008H33.0809ZM17.8906 64.3007L25.1546 41.2607L23.2472 40.6593L15.9832 63.6993L17.8906 64.3007ZM24.2009 41.96H29.8489V39.96H24.2009V41.96ZM28.8952 41.2607L36.1592 64.3007L38.0666 63.6993L30.8026 40.6593L28.8952 41.2607ZM37.1129 63H33.1449V65H37.1129V63ZM34.0976 63.6962L27.5056 43.0242L25.6001 43.6318L32.1921 64.3038L34.0976 63.6962ZM26.5529 44.328H27.4169V42.328H26.5529V44.328ZM26.4631 43.0275L19.9511 63.6995L21.8587 64.3005L28.3707 43.6285L26.4631 43.0275ZM20.9049 63H16.9369V65H20.9049V63ZM21.9849 59.008V55.408H19.9849V59.008H21.9849ZM20.9849 56.408H33.0809V54.408H20.9849V56.408ZM32.0809 55.408V59.008H34.0809V55.408H32.0809ZM33.0809 58.008H20.9849V60.008H33.0809V58.008ZM40.3256 64H39.3256V65H40.3256V64ZM40.3256 40.48V39.48H39.3256V40.48H40.3256ZM44.1816 40.48H45.1816V39.48H44.1816V40.48ZM44.1816 64V65H45.1816V64H44.1816ZM41.3256 64V40.48H39.3256V64H41.3256ZM40.3256 41.48H44.1816V39.48H40.3256V41.48ZM43.1816 40.48V64H45.1816V40.48H43.1816ZM44.1816 63H40.3256V65H44.1816V63ZM49.2944 64H48.2944V65H49.2944V64ZM49.2944 40.48V39.48H48.2944V40.48H49.2944ZM53.1504 40.48H54.1504V39.48H53.1504V40.48ZM53.1504 64V65H54.1504V64H53.1504ZM50.2944 64V40.48H48.2944V64H50.2944ZM49.2944 41.48H53.1504V39.48H49.2944V41.48ZM52.1504 40.48V64H54.1504V40.48H52.1504ZM53.1504 63H49.2944V65H53.1504V63Z" fill="white"/>
</svg>
