<svg width="74" height="80" viewBox="0 0 74 80" fill="none" xmlns="http://www.w3.org/2000/svg">
<path d="M12.1403 32.48C9.83625 32.48 7.86292 31.9787 6.22025 30.976C4.57758 29.9627 3.31358 28.5547 2.42825 26.752C1.55358 24.9493 1.11625 22.8587 1.11625 20.48C1.11625 18.1013 1.55358 16.0107 2.42825 14.208C3.31358 12.4053 4.57758 11.0027 6.22025 10C7.86292 8.98667 9.83625 8.48 12.1403 8.48C14.4443 8.48 16.4176 8.98667 18.0603 10C19.7136 11.0027 20.9776 12.4053 21.8523 14.208C22.7376 16.0107 23.1803 18.1013 23.1803 20.48C23.1803 22.8587 22.7376 24.9493 21.8523 26.752C20.9776 28.5547 19.7136 29.9627 18.0603 30.976C16.4176 31.9787 14.4443 32.48 12.1403 32.48ZM12.1403 28.848C13.6869 28.8587 14.9723 28.5173 15.9963 27.824C17.0309 27.1307 17.8043 26.1547 18.3163 24.896C18.8389 23.6373 19.1003 22.1653 19.1003 20.48C19.1003 18.7947 18.8389 17.3333 18.3163 16.096C17.8043 14.848 17.0309 13.8773 15.9963 13.184C14.9723 12.4907 13.6869 12.1333 12.1403 12.112C10.5936 12.1013 9.30825 12.4427 8.28425 13.136C7.26025 13.8293 6.48692 14.8053 5.96425 16.064C5.45225 17.3227 5.19625 18.7947 5.19625 20.48C5.19625 22.1653 5.45225 23.632 5.96425 24.88C6.47625 26.1173 7.24425 27.0827 8.26825 27.776C9.30292 28.4693 10.5936 28.8267 12.1403 28.848ZM51.9085 32.48C50.1592 32.48 48.6232 32.1013 47.3005 31.344C45.9778 30.5867 44.9432 29.536 44.1965 28.192C43.4605 26.848 43.0925 25.3013 43.0925 23.552C43.0925 21.664 43.4552 20.0267 44.1805 18.64C44.9058 17.2427 45.9138 16.16 47.2045 15.392C48.4952 14.624 49.9885 14.24 51.6845 14.24C53.4765 14.24 54.9965 14.6613 56.2445 15.504C57.5032 16.336 58.4365 17.5147 59.0445 19.04C59.6525 20.5653 59.8818 22.3627 59.7325 24.432H55.9085V23.024C55.8978 21.1467 55.5672 19.776 54.9165 18.912C54.2658 18.048 53.2418 17.616 51.8445 17.616C50.2658 17.616 49.0925 18.1067 48.3245 19.088C47.5565 20.0587 47.1725 21.4827 47.1725 23.36C47.1725 25.1093 47.5565 26.464 48.3245 27.424C49.0925 28.384 50.2125 28.864 51.6845 28.864C52.6338 28.864 53.4498 28.656 54.1325 28.24C54.8258 27.8133 55.3592 27.2 55.7325 26.4L59.5405 27.552C58.8792 29.1093 57.8552 30.32 56.4685 31.184C55.0925 32.048 53.5725 32.48 51.9085 32.48ZM45.9565 24.432V21.52H57.8445V24.432H45.9565ZM63.3025 32V14.72H66.7105V18.928L66.2945 18.384C66.5078 17.808 66.7905 17.2853 67.1425 16.816C67.5052 16.336 67.9372 15.9413 68.4385 15.632C68.8652 15.344 69.3345 15.12 69.8465 14.96C70.3692 14.7893 70.9025 14.688 71.4465 14.656C71.9905 14.6133 72.5185 14.6347 73.0305 14.72V18.32C72.5185 18.1707 71.9265 18.1227 71.2545 18.176C70.5932 18.2293 69.9958 18.416 69.4625 18.736C68.9292 19.024 68.4918 19.392 68.1505 19.84C67.8198 20.288 67.5745 20.8 67.4145 21.376C67.2545 21.9413 67.1745 22.5547 67.1745 23.216V32H63.3025ZM17.9369 72L25.2009 48.96H30.8489L38.1129 72H34.1449L27.5529 51.328H28.4169L21.9049 72H17.9369ZM21.9849 67.008V63.408H34.0809V67.008H21.9849Z" fill="white"/>
<path d="M6.22025 30.976L5.69522 31.8271L5.69925 31.8296L6.22025 30.976ZM2.42825 26.752L1.52855 27.1885L1.53066 27.1928L2.42825 26.752ZM2.42825 14.208L1.53065 13.7672L1.52856 13.7715L2.42825 14.208ZM6.22025 10L6.74126 10.8536L6.74527 10.8511L6.22025 10ZM18.0603 10L17.5352 10.8511L17.5417 10.855L18.0603 10ZM21.8523 14.208L20.9526 14.6445L20.9547 14.6488L21.8523 14.208ZM21.8523 26.752L20.9546 26.3112L20.9526 26.3155L21.8523 26.752ZM18.0603 30.976L18.5813 31.8296L18.5828 31.8286L18.0603 30.976ZM12.1403 28.848L12.1265 29.8479L12.1334 29.848L12.1403 28.848ZM15.9963 27.824L15.4396 26.9933L15.4356 26.996L15.9963 27.824ZM18.3163 24.896L17.3927 24.5125L17.39 24.5192L18.3163 24.896ZM18.3163 16.096L17.391 16.4756L17.3951 16.4851L18.3163 16.096ZM15.9963 13.184L15.4356 14.0121L15.4396 14.0147L15.9963 13.184ZM12.1403 12.112L12.154 11.1121L12.1471 11.112L12.1403 12.112ZM8.28425 13.136L8.84491 13.964L8.84491 13.964L8.28425 13.136ZM5.96425 16.064L5.04069 15.6805L5.03795 15.6872L5.96425 16.064ZM5.96425 24.88L5.03908 25.2596L5.04023 25.2624L5.96425 24.88ZM8.26825 27.776L7.70759 28.6041L7.71158 28.6067L8.26825 27.776ZM12.1403 31.48C9.98358 31.48 8.19854 31.012 6.74125 30.1224L5.69925 31.8296C7.5273 32.9454 9.68892 33.48 12.1403 33.48V31.48ZM6.74527 30.1249C5.26967 29.2146 4.13166 27.9519 3.32584 26.3112L1.53066 27.1928C2.49551 29.1574 3.8855 30.7107 5.69523 31.8271L6.74527 30.1249ZM3.32794 26.3155C2.53052 24.672 2.11625 22.7355 2.11625 20.48H0.11625C0.11625 22.9818 0.576642 25.2266 1.52856 27.1885L3.32794 26.3155ZM2.11625 20.48C2.11625 18.2245 2.53052 16.288 3.32794 14.6445L1.52856 13.7715C0.576642 15.7333 0.11625 17.9782 0.11625 20.48H2.11625ZM3.32584 14.6488C4.13124 13.0089 5.26805 11.7528 6.74125 10.8536L5.69925 9.14644C3.88712 10.2526 2.49592 11.8018 1.53066 13.7672L3.32584 14.6488ZM6.74527 10.8511C8.20189 9.95252 9.98544 9.48 12.1403 9.48V7.48C9.68706 7.48 7.52394 8.02081 5.69523 9.14891L6.74527 10.8511ZM12.1403 9.48C14.2951 9.48 16.0786 9.95252 17.5352 10.8511L18.5853 9.14891C16.7566 8.02081 14.5934 7.48 12.1403 7.48V9.48ZM17.5417 10.855C19.0241 11.7541 20.1588 13.0085 20.9526 14.6445L22.7519 13.7715C21.7964 11.8021 20.403 10.2513 18.5788 9.14495L17.5417 10.855ZM20.9547 14.6488C21.7613 16.2912 22.1803 18.2262 22.1803 20.48H24.1803C24.1803 17.9765 23.7139 15.7301 22.7498 13.7672L20.9547 14.6488ZM22.1803 20.48C22.1803 22.7338 21.7613 24.6688 20.9547 26.3112L22.7498 27.1928C23.7139 25.2299 24.1803 22.9835 24.1803 20.48H22.1803ZM20.9526 26.3155C20.1584 27.9523 19.0225 29.2133 17.5377 30.1234L18.5828 31.8286C20.4046 30.712 21.7968 29.157 22.7519 27.1885L20.9526 26.3155ZM17.5392 30.1224C16.082 31.012 14.2969 31.48 12.1403 31.48V33.48C14.5916 33.48 16.7532 32.9454 18.5813 31.8296L17.5392 30.1224ZM12.1334 29.848C13.8313 29.8597 15.3277 29.4843 16.5569 28.652L15.4356 26.996C14.6168 27.5504 13.5425 27.8576 12.1471 27.848L12.1334 29.848ZM16.5529 28.6547C17.7684 27.8402 18.6625 26.6987 19.2425 25.2728L17.39 24.5192C16.946 25.6107 16.2934 26.4211 15.4396 26.9933L16.5529 28.6547ZM19.2398 25.2795C19.8233 23.8742 20.1003 22.2668 20.1003 20.48H18.1003C18.1003 22.0639 17.8545 23.4005 17.3927 24.5125L19.2398 25.2795ZM20.1003 20.48C20.1003 18.6939 19.8235 17.0944 19.2374 15.7069L17.3951 16.4851C17.8543 17.5723 18.1003 18.8955 18.1003 20.48H20.1003ZM19.2414 15.7164C18.6606 14.3008 17.7663 13.1663 16.5529 12.3533L15.4396 14.0147C16.2956 14.5883 16.9479 15.3952 17.3911 16.4756L19.2414 15.7164ZM16.5569 12.356C15.335 11.5286 13.8469 11.1354 12.154 11.1121L12.1265 13.1119C13.5269 13.1312 14.6095 13.4527 15.4356 14.012L16.5569 12.356ZM12.1471 11.112C10.4492 11.1003 8.95278 11.4757 7.72359 12.308L8.84491 13.964C9.66372 13.4096 10.738 13.1024 12.1334 13.112L12.1471 11.112ZM7.72359 12.308C6.52145 13.1219 5.63036 14.2605 5.04071 15.6805L6.88779 16.4475C7.34347 15.3501 7.99905 14.5368 8.84491 13.964L7.72359 12.308ZM5.03795 15.6872C4.46712 17.0905 4.19625 18.6955 4.19625 20.48H6.19625C6.19625 18.8938 6.43738 17.5548 6.89055 16.4408L5.03795 15.6872ZM4.19625 20.48C4.19625 22.2642 4.46702 23.8652 5.03908 25.2596L6.88942 24.5004C6.43748 23.3988 6.19625 22.0665 6.19625 20.48H4.19625ZM5.04023 25.2624C5.62062 26.665 6.50796 27.7918 7.70759 28.604L8.82891 26.948C7.98054 26.3735 7.33188 25.5697 6.88827 24.4976L5.04023 25.2624ZM7.71158 28.6067C8.94198 29.4312 10.4332 29.8245 12.1265 29.8479L12.154 27.8481C10.754 27.8288 9.66385 27.5074 8.82493 26.9453L7.71158 28.6067ZM31.037 32L30.097 32.3412L30.3361 33H31.037V32ZM24.765 14.72V13.72H23.3382L23.825 15.0612L24.765 14.72ZM28.621 14.72L29.5656 14.3919L29.3322 13.72H28.621V14.72ZM32.973 27.248L32.0284 27.5761L32.9747 30.3004L33.918 27.5751L32.973 27.248ZM37.309 14.72V13.72H36.5969L36.364 14.3929L37.309 14.72ZM41.181 14.72L42.121 15.0612L42.6078 13.72H41.181V14.72ZM34.909 32V33H35.6099L35.849 32.3412L34.909 32ZM31.977 31.6588L25.705 14.3788L23.825 15.0612L30.097 32.3412L31.977 31.6588ZM24.765 15.72H28.621V13.72H24.765V15.72ZM27.6764 15.0481L32.0284 27.5761L33.9176 26.9199L29.5656 14.3919L27.6764 15.0481ZM33.918 27.5751L38.254 15.0471L36.364 14.3929L32.028 26.9209L33.918 27.5751ZM37.309 15.72H41.181V13.72H37.309V15.72ZM40.241 14.3788L33.969 31.6588L35.849 32.3412L42.121 15.0612L40.241 14.3788ZM34.909 31H31.037V33H34.909V31ZM47.3005 31.344L47.7974 30.4762L47.7974 30.4762L47.3005 31.344ZM44.1965 28.192L43.3194 28.6723L43.3223 28.6776L44.1965 28.192ZM44.1805 18.64L45.0666 19.1035L45.068 19.1007L44.1805 18.64ZM47.2045 15.392L46.6931 14.5326L46.6931 14.5326L47.2045 15.392ZM56.2445 15.504L55.6849 16.3328L55.6931 16.3382L56.2445 15.504ZM59.0445 19.04L58.1156 19.4103L58.1156 19.4103L59.0445 19.04ZM59.7325 24.432V25.432H60.6629L60.7299 24.504L59.7325 24.432ZM55.9085 24.432H54.9085V25.432H55.9085V24.432ZM55.9085 23.024H56.9085L56.9085 23.0183L55.9085 23.024ZM54.9165 18.912L55.7153 18.3104L55.7153 18.3104L54.9165 18.912ZM48.3245 19.088L49.1087 19.7085L49.112 19.7043L48.3245 19.088ZM48.3245 27.424L47.5436 28.0487L47.5436 28.0487L48.3245 27.424ZM54.1325 28.24L54.6529 29.0939L54.6566 29.0917L54.1325 28.24ZM55.7325 26.4L56.0221 25.4428L55.1927 25.1919L54.8263 25.9771L55.7325 26.4ZM59.5405 27.552L60.4609 27.9429L60.8964 26.9174L59.8301 26.5948L59.5405 27.552ZM56.4685 31.184L55.9397 30.3353L55.9367 30.3371L56.4685 31.184ZM45.9565 24.432H44.9565V25.432H45.9565V24.432ZM45.9565 21.52V20.52H44.9565V21.52H45.9565ZM57.8445 21.52H58.8445V20.52H57.8445V21.52ZM57.8445 24.432V25.432H58.8445V24.432H57.8445ZM51.9085 31.48C50.3074 31.48 48.9476 31.1348 47.7974 30.4762L46.8036 32.2118C48.2987 33.0679 50.011 33.48 51.9085 33.48V31.48ZM47.7974 30.4762C46.6344 29.8103 45.7296 28.8924 45.0707 27.7064L43.3223 28.6776C44.1567 30.1796 45.3212 31.363 46.8036 32.2118L47.7974 30.4762ZM45.0736 27.7117C44.429 26.5347 44.0925 25.1575 44.0925 23.552H42.0925C42.0925 25.4452 42.492 27.1613 43.3194 28.6723L45.0736 27.7117ZM44.0925 23.552C44.0925 21.7924 44.43 20.3205 45.0666 19.1035L43.2944 18.1765C42.4803 19.7329 42.0925 21.5356 42.0925 23.552H44.0925ZM45.068 19.1007C45.7119 17.8603 46.5932 16.9194 47.7159 16.2514L46.6931 14.5326C45.2345 15.4006 44.0998 16.625 43.293 18.1793L45.068 19.1007ZM47.7159 16.2514C48.8326 15.5869 50.1447 15.24 51.6845 15.24V13.24C49.8323 13.24 48.1577 13.6611 46.6931 14.5326L47.7159 16.2514ZM51.6845 15.24C53.3157 15.24 54.6315 15.6215 55.6849 16.3328L56.8041 14.6752C55.3615 13.7012 53.6373 13.24 51.6845 13.24V15.24ZM55.6931 16.3382C56.7664 17.0477 57.5761 18.0569 58.1156 19.4103L59.9734 18.6697C59.2969 16.9724 58.2399 15.6243 56.7959 14.6698L55.6931 16.3382ZM58.1156 19.4103C58.6549 20.7633 58.8763 22.4028 58.7351 24.36L60.7299 24.504C60.8873 22.3225 60.6501 20.3674 59.9734 18.6697L58.1156 19.4103ZM59.7325 23.432H55.9085V25.432H59.7325V23.432ZM56.9085 24.432V23.024H54.9085V24.432H56.9085ZM56.9085 23.0183C56.8974 21.0673 56.5603 19.4325 55.7153 18.3104L54.1177 19.5136C54.574 20.1195 54.8983 21.2261 54.9085 23.0297L56.9085 23.0183ZM55.7153 18.3104C54.8225 17.1249 53.4554 16.616 51.8445 16.616V18.616C53.0282 18.616 53.7092 18.9711 54.1177 19.5136L55.7153 18.3104ZM51.8445 16.616C50.0482 16.616 48.5438 17.1852 47.537 18.4717L49.112 19.7043C49.6412 19.0281 50.4834 18.616 51.8445 18.616V16.616ZM47.5403 18.4675C46.5765 19.6856 46.1725 21.3683 46.1725 23.36H48.1725C48.1725 21.597 48.5365 20.4318 49.1087 19.7085L47.5403 18.4675ZM46.1725 23.36C46.1725 25.2425 46.5845 26.8498 47.5436 28.0487L49.1054 26.7993C48.5285 26.0782 48.1725 24.9761 48.1725 23.36H46.1725ZM47.5436 28.0487C48.5395 29.2935 49.9754 29.864 51.6845 29.864V27.864C50.4496 27.864 49.6455 27.4745 49.1054 26.7993L47.5436 28.0487ZM51.6845 29.864C52.7827 29.864 53.7862 29.6221 54.6529 29.0939L53.6121 27.3861C53.1135 27.6899 52.485 27.864 51.6845 27.864V29.864ZM54.6566 29.0917C55.5306 28.5538 56.1899 27.7845 56.6387 26.8229L54.8263 25.9771C54.5284 26.6155 54.1211 27.0728 53.6084 27.3883L54.6566 29.0917ZM55.4429 27.3572L59.2509 28.5092L59.8301 26.5948L56.0221 25.4428L55.4429 27.3572ZM58.6201 27.1611C58.036 28.5364 57.1453 29.584 55.9397 30.3353L56.9973 32.0327C58.565 31.056 59.7223 29.6823 60.4609 27.9429L58.6201 27.1611ZM55.9367 30.3371C54.7241 31.0985 53.3892 31.48 51.9085 31.48V33.48C53.7558 33.48 55.4609 32.9975 57.0003 32.0309L55.9367 30.3371ZM46.9565 24.432V21.52H44.9565V24.432H46.9565ZM45.9565 22.52H57.8445V20.52H45.9565V22.52ZM56.8445 21.52V24.432H58.8445V21.52H56.8445ZM57.8445 23.432H45.9565V25.432H57.8445V23.432ZM63.3025 32H62.3025V33H63.3025V32ZM63.3025 14.72V13.72H62.3025V14.72H63.3025ZM66.7105 14.72H67.7105V13.72H66.7105V14.72ZM66.7105 18.928L65.9161 19.5354L67.7105 21.8819V18.928H66.7105ZM66.2945 18.384L65.3568 18.0367L65.1653 18.5536L65.5001 18.9915L66.2945 18.384ZM67.1425 16.816L66.3446 16.2132L66.3425 16.216L67.1425 16.816ZM68.4385 15.632L68.9636 16.483L68.981 16.4723L68.998 16.4608L68.4385 15.632ZM69.8465 14.96L70.1448 15.9146L70.1569 15.9106L69.8465 14.96ZM71.4465 14.656L71.5052 15.6543L71.515 15.6537L71.5247 15.6529L71.4465 14.656ZM73.0305 14.72H74.0305V13.8729L73.1949 13.7336L73.0305 14.72ZM73.0305 18.32L72.7505 19.28L74.0305 19.6533V18.32H73.0305ZM71.2545 18.176L71.1754 17.1791L71.1741 17.1792L71.2545 18.176ZM69.4625 18.736L69.9376 19.6159L69.9576 19.6051L69.977 19.5935L69.4625 18.736ZM68.1505 19.84L67.3551 19.234L67.3505 19.24L67.3459 19.2461L68.1505 19.84ZM67.4145 21.376L68.3767 21.6483L68.378 21.6436L67.4145 21.376ZM67.1745 32V33H68.1745V32H67.1745ZM64.3025 32V14.72H62.3025V32H64.3025ZM63.3025 15.72H66.7105V13.72H63.3025V15.72ZM65.7105 14.72V18.928H67.7105V14.72H65.7105ZM67.5049 18.3205L67.0889 17.7765L65.5001 18.9915L65.9161 19.5354L67.5049 18.3205ZM67.2322 18.7313C67.4137 18.2415 67.651 17.8046 67.9425 17.416L66.3425 16.216C65.93 16.766 65.602 17.3745 65.3568 18.0367L67.2322 18.7313ZM67.9404 17.4188C68.2299 17.0356 68.5701 16.7259 68.9636 16.483L67.9134 14.781C67.3043 15.1568 66.7804 15.6364 66.3446 16.2132L67.9404 17.4188ZM68.998 16.4608C69.3408 16.2294 69.7216 16.0467 70.1448 15.9145L69.5482 14.0055C68.9474 14.1933 68.3895 14.4586 67.879 14.8032L68.998 16.4608ZM70.1569 15.9106C70.5988 15.7663 71.0476 15.6812 71.5052 15.6543L71.3878 13.6577C70.7574 13.6948 70.1395 13.8124 69.5361 14.0094L70.1569 15.9106ZM71.5247 15.6529C71.9918 15.6163 72.4382 15.6351 72.8661 15.7064L73.1949 13.7336C72.5988 13.6342 71.9892 13.6104 71.3683 13.6591L71.5247 15.6529ZM72.0305 14.72V18.32H74.0305V14.72H72.0305ZM73.3105 17.36C72.6558 17.169 71.9377 17.1186 71.1754 17.1791L71.3336 19.1729C71.9153 19.1267 72.3812 19.1723 72.7505 19.28L73.3105 17.36ZM71.1741 17.1792C70.3698 17.2441 69.6221 17.474 68.948 17.8785L69.977 19.5935C70.3695 19.358 70.8166 19.2146 71.3349 19.1728L71.1741 17.1792ZM68.9874 17.8561C68.3387 18.2064 67.7889 18.6645 67.3551 19.234L68.9459 20.446C69.1948 20.1195 69.5197 19.8416 69.9376 19.6159L68.9874 17.8561ZM67.3459 19.2461C66.9376 19.7993 66.6412 20.4235 66.451 21.1084L68.378 21.6436C68.5078 21.1765 68.702 20.7767 68.9551 20.4339L67.3459 19.2461ZM66.4523 21.1037C66.2643 21.7679 66.1745 22.4739 66.1745 23.216H68.1745C68.1745 22.6354 68.2447 22.1147 68.3767 21.6483L66.4523 21.1037ZM66.1745 23.216V32H68.1745V23.216H66.1745ZM67.1745 31H63.3025V33H67.1745V31ZM17.9369 72L16.9832 71.6993L16.5731 73H17.9369V72ZM25.2009 48.96V47.96H24.4676L24.2472 48.6593L25.2009 48.96ZM30.8489 48.96L31.8026 48.6593L31.5821 47.96H30.8489V48.96ZM38.1129 72V73H39.4767L39.0666 71.6993L38.1129 72ZM34.1449 72L33.1921 72.3038L33.4141 73H34.1449V72ZM27.5529 51.328V50.328H26.1844L26.6001 51.6318L27.5529 51.328ZM28.4169 51.328L29.3707 51.6285L29.7803 50.328H28.4169V51.328ZM21.9049 72V73H22.6383L22.8587 72.3005L21.9049 72ZM21.9849 67.008H20.9849V68.008H21.9849V67.008ZM21.9849 63.408V62.408H20.9849V63.408H21.9849ZM34.0809 63.408H35.0809V62.408H34.0809V63.408ZM34.0809 67.008V68.008H35.0809V67.008H34.0809ZM18.8906 72.3007L26.1546 49.2607L24.2472 48.6593L16.9832 71.6993L18.8906 72.3007ZM25.2009 49.96H30.8489V47.96H25.2009V49.96ZM29.8952 49.2607L37.1592 72.3007L39.0666 71.6993L31.8026 48.6593L29.8952 49.2607ZM38.1129 71H34.1449V73H38.1129V71ZM35.0976 71.6962L28.5056 51.0242L26.6001 51.6318L33.1921 72.3038L35.0976 71.6962ZM27.5529 52.328H28.4169V50.328H27.5529V52.328ZM27.4631 51.0275L20.9511 71.6995L22.8587 72.3005L29.3707 51.6285L27.4631 51.0275ZM21.9049 71H17.9369V73H21.9049V71ZM22.9849 67.008V63.408H20.9849V67.008H22.9849ZM21.9849 64.408H34.0809V62.408H21.9849V64.408ZM33.0809 63.408V67.008H35.0809V63.408H33.0809ZM34.0809 66.008H21.9849V68.008H34.0809V66.008ZM41.3256 72H40.3256V73H41.3256V72ZM41.3256 48.48V47.48H40.3256V48.48H41.3256ZM45.1816 48.48H46.1816V47.48H45.1816V48.48ZM45.1816 72V73H46.1816V72H45.1816ZM42.3256 72V48.48H40.3256V72H42.3256ZM41.3256 49.48H45.1816V47.48H41.3256V49.48ZM44.1816 48.48V72H46.1816V48.48H44.1816ZM45.1816 71H41.3256V73H45.1816V71ZM50.2944 72H49.2944V73H50.2944V72ZM50.2944 48.48V47.48H49.2944V48.48H50.2944ZM54.1504 48.48H55.1504V47.48H54.1504V48.48ZM54.1504 72V73H55.1504V72H54.1504ZM51.2944 72V48.48H49.2944V72H51.2944ZM50.2944 49.48H54.1504V47.48H50.2944V49.48ZM53.1504 48.48V72H55.1504V48.48H53.1504ZM54.1504 71H50.2944V73H54.1504V71Z" fill="white"/>
</svg>
