<svg width="81" height="87" viewBox="0 0 81 87" fill="none" xmlns="http://www.w3.org/2000/svg">
<path d="M34.09 58.3264H19.541V74.9412H23.6979C33.6744 83.2486 42.4038 85.3254 46.5606 85.3254L77.7371 68.7106C81.0626 63.7262 77.7371 62.4801 75.6587 62.4801L58.5403 67.5904C58.6776 65.1567 56.5688 63.3267 54.8744 62.4801H42.4038L34.09 58.3264Z" fill="#FFEAEF"/>
<path d="M40.3253 72.8643H54.8744C57.4587 70.9275 58.4531 69.1371 58.5403 67.5904M58.5403 67.5904C58.6776 65.1567 56.5688 63.3267 54.8744 62.4801H42.4038L34.09 58.3264H19.541V74.9412H23.6979C33.6744 83.2486 42.4038 85.3254 46.5606 85.3254L77.7371 68.7106C81.0626 63.7262 77.7371 62.4801 75.6587 62.4801L58.5403 67.5904Z" stroke="#18181B" stroke-width="2.175" stroke-linecap="round" stroke-linejoin="round"/>
<rect x="2.91406" y="54.1719" width="16.6275" height="24.9221" rx="2.175" fill="#008EFF"/>
<path d="M7.67866 59.0816H19.5902V56.4851C19.5902 55.2838 18.6164 54.3101 17.4152 54.3101H5.08906C3.88784 54.3101 2.91406 55.2838 2.91406 56.4851V77.1858C2.91406 78.3871 3.88784 79.3608 5.08906 79.3608H7.67866V59.0816Z" fill="#196CFA"/>
<path d="M61.7377 29.4646C61.7377 40.2917 52.9739 49.0661 42.1665 49.0661C31.3591 49.0661 22.5953 40.2917 22.5953 29.4646C22.5953 18.6375 31.3591 9.86313 42.1665 9.86313C52.9739 9.86313 61.7377 18.6375 61.7377 29.4646Z" fill="#FBC023" stroke="#18181B" stroke-width="2.175"/>
<path d="M31.8398 26.4078C31.8398 23.3044 37.0045 21.2355 38.0375 26.4078M46.3009 26.4078C46.3009 23.3043 51.4656 21.2354 52.4986 26.4078M35.9716 31.5801C35.9716 38.8212 47.3339 40.8901 48.3668 31.5801" stroke="#F77E08" stroke-width="2.175" stroke-linecap="round" stroke-linejoin="round"/>
<path d="M9.65287 19.9217C10.3888 18.1165 12.945 18.1165 13.681 19.9217L13.9946 20.6911C14.306 21.4547 15.0223 21.9765 15.8446 22.0387L16.6922 22.1029C18.6282 22.2493 19.4168 24.6662 17.9398 25.9263L17.2723 26.4958C16.6485 27.028 16.377 27.8658 16.5701 28.6627L16.774 29.5039C17.2324 31.3956 15.1656 32.8908 13.5123 31.8636L12.8147 31.4302C12.1118 30.9935 11.222 30.9935 10.5191 31.4302L9.8215 31.8636C8.16821 32.8908 6.10148 31.3956 6.55986 29.5039L6.76371 28.6627C6.95681 27.8658 6.68533 27.028 6.06154 26.4958L5.394 25.9263C3.91702 24.6662 4.70565 22.2493 6.64159 22.1029L7.48922 22.0387C8.3115 21.9765 9.02788 21.4547 9.3392 20.6911L9.65287 19.9217Z" fill="#FAA81A"/>
<path d="M58.9813 6.53888L58.6559 5.70339C57.9363 3.85591 55.3221 3.8559 54.6025 5.70339L54.277 6.53888C53.9743 7.31619 53.2536 7.85185 52.422 7.9177L51.3717 8.00087C49.4635 8.15197 48.6669 10.5164 50.0946 11.7914L51.0615 12.6548C51.654 13.1839 51.9109 13.9938 51.7318 14.7677L51.4424 16.0177C51.0079 17.8946 53.08 19.3455 54.695 18.2951L55.6373 17.8302C56.1203 17.5919 56.6745 17.5412 57.1927 17.688L57.6504 17.8177C57.8604 17.8772 58.0602 17.968 58.2432 18.087L58.492 18.2488C60.1329 19.3159 62.2382 17.8419 61.7968 15.9349L61.5266 14.7677C61.3474 13.9938 61.6043 13.1839 62.1968 12.6548L63.1637 11.7914C64.5914 10.5164 63.7948 8.15197 61.8866 8.00087L60.8363 7.9177C60.0047 7.85185 59.284 7.31619 58.9813 6.53888Z" fill="#FAA81A" stroke="#18181B" stroke-width="2.175"/>
<path d="M63.3658 42.6805C64.1017 40.8753 66.6579 40.8753 67.3939 42.6805L67.7075 43.4499C68.0188 44.2135 68.7352 44.7353 69.5575 44.7975L70.4051 44.8617C72.3411 45.0081 73.1297 47.425 71.6527 48.6851L70.9852 49.2546C70.3614 49.7868 70.0899 50.6246 70.283 51.4215L70.4869 52.2627C70.9452 54.1544 68.8785 55.6496 67.2252 54.6224L66.5276 54.189C65.8247 53.7523 64.9349 53.7523 64.232 54.189L63.5344 54.6224C61.8811 55.6496 59.8144 54.1544 60.2727 52.2627L60.4766 51.4215C60.6697 50.6246 60.3982 49.7868 59.7744 49.2546L59.1069 48.6851C57.6299 47.425 58.4185 45.0081 60.3545 44.8617L61.2021 44.7975C62.0244 44.7353 62.7408 44.2135 63.0521 43.4499L63.3658 42.6805Z" fill="#FAA81A"/>
</svg>
