<svg width="194" height="194" viewBox="0 0 194 194" fill="none" xmlns="http://www.w3.org/2000/svg">
<g clip-path="url(#clip0_1276_110885)">
<mask id="path-1-inside-1_1276_110885" fill="white">
<path d="M194 97C194 150.572 150.572 194 97 194C43.4284 194 0 150.572 0 97C0 43.4284 43.4284 0 97 0C150.572 0 194 43.4284 194 97ZM19.4 97C19.4 139.857 54.1427 174.6 97 174.6C139.857 174.6 174.6 139.857 174.6 97C174.6 54.1427 139.857 19.4 97 19.4C54.1427 19.4 19.4 54.1427 19.4 97Z"/>
</mask>
<path d="M194 97C194 150.572 150.572 194 97 194C43.4284 194 0 150.572 0 97C0 43.4284 43.4284 0 97 0C150.572 0 194 43.4284 194 97ZM19.4 97C19.4 139.857 54.1427 174.6 97 174.6C139.857 174.6 174.6 139.857 174.6 97C174.6 54.1427 139.857 19.4 97 19.4C54.1427 19.4 19.4 54.1427 19.4 97Z" stroke="#F4F4F5" stroke-width="48" stroke-linecap="round" stroke-linejoin="round" mask="url(#path-1-inside-1_1276_110885)"/>
<path d="M97 12C114.95 12 132.44 17.6827 146.962 28.2336" stroke="#196CFA" stroke-width="24" stroke-linecap="round" stroke-linejoin="round"/>
<path d="M59.8213 95.27C58.8913 95.27 58.0513 95.111 57.3013 94.793C56.5573 94.469 55.9423 94.01 55.4563 93.416C54.9763 92.816 54.6643 92.105 54.5203 91.283L56.4823 90.986C56.6803 91.778 57.0943 92.396 57.7243 92.84C58.3543 93.278 59.0893 93.497 59.9293 93.497C60.4513 93.497 60.9313 93.416 61.3693 93.254C61.8073 93.086 62.1583 92.849 62.4223 92.543C62.6923 92.231 62.8273 91.859 62.8273 91.427C62.8273 91.193 62.7853 90.986 62.7013 90.806C62.6233 90.626 62.5123 90.47 62.3683 90.338C62.2303 90.2 62.0593 90.083 61.8553 89.987C61.6573 89.885 61.4383 89.798 61.1983 89.726L57.8773 88.745C57.5533 88.649 57.2233 88.526 56.8873 88.376C56.5513 88.22 56.2423 88.019 55.9603 87.773C55.6843 87.521 55.4593 87.212 55.2853 86.846C55.1113 86.474 55.0243 86.024 55.0243 85.496C55.0243 84.698 55.2283 84.023 55.6363 83.471C56.0503 82.913 56.6083 82.493 57.3103 82.211C58.0123 81.923 58.7983 81.779 59.6683 81.779C60.5443 81.791 61.3273 81.947 62.0173 82.247C62.7133 82.547 63.2893 82.979 63.7453 83.543C64.2073 84.101 64.5253 84.779 64.6993 85.577L62.6833 85.919C62.5933 85.433 62.4013 85.016 62.1073 84.668C61.8133 84.314 61.4533 84.044 61.0273 83.858C60.6013 83.666 60.1393 83.567 59.6413 83.561C59.1613 83.549 58.7203 83.621 58.3183 83.777C57.9223 83.933 57.6043 84.152 57.3643 84.434C57.1303 84.716 57.0133 85.04 57.0133 85.406C57.0133 85.766 57.1183 86.057 57.3283 86.279C57.5383 86.501 57.7963 86.678 58.1023 86.81C58.4143 86.936 58.7233 87.041 59.0293 87.125L61.4233 87.8C61.7233 87.884 62.0623 87.998 62.4403 88.142C62.8243 88.28 63.1933 88.475 63.5473 88.727C63.9073 88.979 64.2043 89.315 64.4383 89.735C64.6723 90.149 64.7893 90.671 64.7893 91.301C64.7893 91.955 64.6573 92.531 64.3933 93.029C64.1293 93.521 63.7663 93.935 63.3043 94.271C62.8483 94.601 62.3203 94.85 61.7203 95.018C61.1203 95.186 60.4873 95.27 59.8213 95.27ZM66.7073 95V82.04H68.4083L73.1063 91.787L77.7773 82.04H79.4963V94.991H77.7143V86.126L73.5293 95H72.6743L68.4803 86.126V95H66.7073ZM86.7158 95.27C85.7858 95.27 84.9458 95.111 84.1958 94.793C83.4518 94.469 82.8368 94.01 82.3508 93.416C81.8708 92.816 81.5588 92.105 81.4148 91.283L83.3768 90.986C83.5748 91.778 83.9888 92.396 84.6188 92.84C85.2488 93.278 85.9838 93.497 86.8238 93.497C87.3458 93.497 87.8258 93.416 88.2638 93.254C88.7018 93.086 89.0528 92.849 89.3168 92.543C89.5868 92.231 89.7218 91.859 89.7218 91.427C89.7218 91.193 89.6798 90.986 89.5958 90.806C89.5178 90.626 89.4068 90.47 89.2628 90.338C89.1248 90.2 88.9538 90.083 88.7498 89.987C88.5518 89.885 88.3328 89.798 88.0928 89.726L84.7718 88.745C84.4478 88.649 84.1178 88.526 83.7818 88.376C83.4458 88.22 83.1368 88.019 82.8548 87.773C82.5788 87.521 82.3538 87.212 82.1798 86.846C82.0058 86.474 81.9188 86.024 81.9188 85.496C81.9188 84.698 82.1228 84.023 82.5308 83.471C82.9448 82.913 83.5028 82.493 84.2048 82.211C84.9068 81.923 85.6928 81.779 86.5628 81.779C87.4388 81.791 88.2218 81.947 88.9118 82.247C89.6078 82.547 90.1838 82.979 90.6398 83.543C91.1018 84.101 91.4198 84.779 91.5938 85.577L89.5778 85.919C89.4878 85.433 89.2958 85.016 89.0018 84.668C88.7078 84.314 88.3478 84.044 87.9218 83.858C87.4958 83.666 87.0338 83.567 86.5358 83.561C86.0558 83.549 85.6148 83.621 85.2128 83.777C84.8168 83.933 84.4988 84.152 84.2588 84.434C84.0248 84.716 83.9078 85.04 83.9078 85.406C83.9078 85.766 84.0128 86.057 84.2228 86.279C84.4328 86.501 84.6908 86.678 84.9968 86.81C85.3088 86.936 85.6178 87.041 85.9238 87.125L88.3178 87.8C88.6178 87.884 88.9568 87.998 89.3348 88.142C89.7188 88.28 90.0878 88.475 90.4418 88.727C90.8018 88.979 91.0988 89.315 91.3328 89.735C91.5668 90.149 91.6838 90.671 91.6838 91.301C91.6838 91.955 91.5518 92.531 91.2878 93.029C91.0238 93.521 90.6608 93.935 90.1988 94.271C89.7428 94.601 89.2148 94.85 88.6148 95.018C88.0148 95.186 87.3818 95.27 86.7158 95.27ZM102.371 95.27C101.357 95.27 100.46 95.063 99.6803 94.649C98.9063 94.229 98.3003 93.644 97.8623 92.894C97.4243 92.138 97.2053 91.25 97.2053 90.23V82.049L99.1133 82.04V90.131C99.1133 90.683 99.2063 91.169 99.3923 91.589C99.5783 92.009 99.8273 92.36 100.139 92.642C100.451 92.924 100.799 93.137 101.183 93.281C101.573 93.425 101.969 93.497 102.371 93.497C102.779 93.497 103.175 93.425 103.559 93.281C103.949 93.131 104.3 92.915 104.612 92.633C104.924 92.351 105.17 92 105.35 91.58C105.536 91.16 105.629 90.677 105.629 90.131V82.04H107.537V90.23C107.537 91.244 107.318 92.129 106.88 92.885C106.442 93.641 105.833 94.229 105.053 94.649C104.279 95.063 103.385 95.27 102.371 95.27ZM113.772 95.261C112.59 95.261 111.627 95 110.883 94.478C110.139 93.956 109.683 93.221 109.515 92.273L111.441 91.976C111.561 92.48 111.837 92.879 112.269 93.173C112.707 93.461 113.25 93.605 113.898 93.605C114.486 93.605 114.945 93.485 115.275 93.245C115.611 93.005 115.779 92.675 115.779 92.255C115.779 92.009 115.719 91.811 115.599 91.661C115.485 91.505 115.242 91.358 114.87 91.22C114.498 91.082 113.931 90.911 113.169 90.707C112.335 90.491 111.672 90.26 111.18 90.014C110.694 89.762 110.346 89.471 110.136 89.141C109.932 88.805 109.83 88.4 109.83 87.926C109.83 87.338 109.986 86.825 110.298 86.387C110.61 85.949 111.048 85.61 111.612 85.37C112.182 85.13 112.848 85.01 113.61 85.01C114.354 85.01 115.017 85.127 115.599 85.361C116.181 85.595 116.652 85.928 117.012 86.36C117.372 86.786 117.588 87.287 117.66 87.863L115.734 88.214C115.668 87.746 115.449 87.377 115.077 87.107C114.705 86.837 114.222 86.69 113.628 86.666C113.058 86.642 112.596 86.738 112.242 86.954C111.888 87.164 111.711 87.455 111.711 87.827C111.711 88.043 111.777 88.226 111.909 88.376C112.047 88.526 112.311 88.67 112.701 88.808C113.091 88.946 113.667 89.111 114.429 89.303C115.245 89.513 115.893 89.747 116.373 90.005C116.853 90.257 117.195 90.56 117.399 90.914C117.609 91.262 117.714 91.685 117.714 92.183C117.714 93.143 117.363 93.896 116.661 94.442C115.965 94.988 115.002 95.261 113.772 95.261ZM124.016 95.27C123.05 95.27 122.201 95.06 121.469 94.64C120.743 94.214 120.176 93.623 119.768 92.867C119.366 92.105 119.165 91.223 119.165 90.221C119.165 89.159 119.363 88.238 119.759 87.458C120.161 86.678 120.719 86.075 121.433 85.649C122.147 85.223 122.978 85.01 123.926 85.01C124.916 85.01 125.759 85.241 126.455 85.703C127.151 86.159 127.67 86.81 128.012 87.656C128.36 88.502 128.498 89.507 128.426 90.671H126.545V89.987C126.533 88.859 126.317 88.025 125.897 87.485C125.483 86.945 124.85 86.675 123.998 86.675C123.056 86.675 122.348 86.972 121.874 87.566C121.4 88.16 121.163 89.018 121.163 90.14C121.163 91.208 121.4 92.036 121.874 92.624C122.348 93.206 123.032 93.497 123.926 93.497C124.514 93.497 125.021 93.365 125.447 93.101C125.879 92.831 126.215 92.447 126.455 91.949L128.3 92.534C127.922 93.404 127.349 94.079 126.581 94.559C125.813 95.033 124.958 95.27 124.016 95.27ZM120.551 90.671V89.204H127.49V90.671H120.551ZM134.307 95.27C133.401 95.27 132.618 95.045 131.958 94.595C131.304 94.145 130.797 93.533 130.437 92.759C130.083 91.979 129.906 91.103 129.906 90.131C129.906 89.153 130.086 88.28 130.446 87.512C130.806 86.738 131.316 86.129 131.976 85.685C132.642 85.235 133.431 85.01 134.343 85.01C135.261 85.01 136.032 85.235 136.656 85.685C137.286 86.129 137.76 86.738 138.078 87.512C138.402 88.286 138.564 89.159 138.564 90.131C138.564 91.103 138.402 91.976 138.078 92.75C137.754 93.524 137.277 94.139 136.647 94.595C136.017 95.045 135.237 95.27 134.307 95.27ZM134.568 93.569C135.186 93.569 135.69 93.422 136.08 93.128C136.47 92.834 136.755 92.429 136.935 91.913C137.115 91.397 137.205 90.803 137.205 90.131C137.205 89.459 137.112 88.865 136.926 88.349C136.746 87.833 136.464 87.431 136.08 87.143C135.702 86.855 135.219 86.711 134.631 86.711C134.007 86.711 133.494 86.864 133.092 87.17C132.69 87.476 132.39 87.887 132.192 88.403C132 88.919 131.904 89.495 131.904 90.131C131.904 90.773 132 91.355 132.192 91.877C132.39 92.393 132.684 92.804 133.074 93.11C133.47 93.416 133.968 93.569 134.568 93.569ZM137.205 95V88.007H136.989V82.04H138.879V95H137.205Z" fill="#18181B"/>
<path d="M70.2058 119V110.068L68.3088 111.209V110.054L70.2058 108.92H71.2488V119H70.2058ZM77.1938 119.21C76.5732 119.21 76.0132 119.065 75.5138 118.776C75.0192 118.487 74.6272 118.095 74.3378 117.6C74.0485 117.101 73.9038 116.541 73.9038 115.92V112C73.9038 111.379 74.0485 110.822 74.3378 110.327C74.6272 109.828 75.0192 109.433 75.5138 109.144C76.0132 108.855 76.5732 108.71 77.1938 108.71C77.8145 108.71 78.3722 108.855 78.8668 109.144C79.3662 109.433 79.7605 109.828 80.0498 110.327C80.3392 110.822 80.4838 111.379 80.4838 112V115.92C80.4838 116.541 80.3392 117.101 80.0498 117.6C79.7605 118.095 79.3662 118.487 78.8668 118.776C78.3722 119.065 77.8145 119.21 77.1938 119.21ZM77.1938 118.216C77.6092 118.216 77.9872 118.116 78.3278 117.915C78.6685 117.71 78.9392 117.437 79.1398 117.096C79.3405 116.755 79.4408 116.38 79.4408 115.969V111.951C79.4408 111.536 79.3405 111.158 79.1398 110.817C78.9392 110.476 78.6685 110.206 78.3278 110.005C77.9872 109.8 77.6092 109.697 77.1938 109.697C76.7785 109.697 76.4005 109.8 76.0598 110.005C75.7192 110.206 75.4485 110.476 75.2478 110.817C75.0472 111.158 74.9468 111.536 74.9468 111.951V115.969C74.9468 116.38 75.0472 116.755 75.2478 117.096C75.4485 117.437 75.7192 117.71 76.0598 117.915C76.4005 118.116 76.7785 118.216 77.1938 118.216ZM85.7388 119.21C85.1181 119.21 84.5581 119.065 84.0588 118.776C83.5641 118.487 83.1721 118.095 82.8828 117.6C82.5934 117.101 82.4488 116.541 82.4488 115.92V112C82.4488 111.379 82.5934 110.822 82.8828 110.327C83.1721 109.828 83.5641 109.433 84.0588 109.144C84.5581 108.855 85.1181 108.71 85.7388 108.71C86.3594 108.71 86.9171 108.855 87.4118 109.144C87.9111 109.433 88.3054 109.828 88.5948 110.327C88.8841 110.822 89.0288 111.379 89.0288 112V115.92C89.0288 116.541 88.8841 117.101 88.5948 117.6C88.3054 118.095 87.9111 118.487 87.4118 118.776C86.9171 119.065 86.3594 119.21 85.7388 119.21ZM85.7388 118.216C86.1541 118.216 86.5321 118.116 86.8728 117.915C87.2134 117.71 87.4841 117.437 87.6848 117.096C87.8854 116.755 87.9858 116.38 87.9858 115.969V111.951C87.9858 111.536 87.8854 111.158 87.6848 110.817C87.4841 110.476 87.2134 110.206 86.8728 110.005C86.5321 109.8 86.1541 109.697 85.7388 109.697C85.3234 109.697 84.9454 109.8 84.6048 110.005C84.2641 110.206 83.9934 110.476 83.7928 110.817C83.5921 111.158 83.4918 111.536 83.4918 111.951V115.969C83.4918 116.38 83.5921 116.755 83.7928 117.096C83.9934 117.437 84.2641 117.71 84.6048 117.915C84.9454 118.116 85.3234 118.216 85.7388 118.216ZM93.5417 108.92H94.5987L91.9107 119H90.8537L93.5417 108.92ZM98.1784 119V110.068L96.2814 111.209V110.054L98.1784 108.92H99.2214V119H98.1784ZM105.166 119.21C104.546 119.21 103.986 119.065 103.486 118.776C102.992 118.487 102.6 118.095 102.31 117.6C102.021 117.101 101.876 116.541 101.876 115.92V112C101.876 111.379 102.021 110.822 102.31 110.327C102.6 109.828 102.992 109.433 103.486 109.144C103.986 108.855 104.546 108.71 105.166 108.71C105.787 108.71 106.345 108.855 106.839 109.144C107.339 109.433 107.733 109.828 108.022 110.327C108.312 110.822 108.456 111.379 108.456 112V115.92C108.456 116.541 108.312 117.101 108.022 117.6C107.733 118.095 107.339 118.487 106.839 118.776C106.345 119.065 105.787 119.21 105.166 119.21ZM105.166 118.216C105.582 118.216 105.96 118.116 106.3 117.915C106.641 117.71 106.912 117.437 107.112 117.096C107.313 116.755 107.413 116.38 107.413 115.969V111.951C107.413 111.536 107.313 111.158 107.112 110.817C106.912 110.476 106.641 110.206 106.3 110.005C105.96 109.8 105.582 109.697 105.166 109.697C104.751 109.697 104.373 109.8 104.032 110.005C103.692 110.206 103.421 110.476 103.22 110.817C103.02 111.158 102.919 111.536 102.919 111.951V115.969C102.919 116.38 103.02 116.755 103.22 117.096C103.421 117.437 103.692 117.71 104.032 117.915C104.373 118.116 104.751 118.216 105.166 118.216ZM113.711 119.21C113.091 119.21 112.531 119.065 112.031 118.776C111.537 118.487 111.145 118.095 110.855 117.6C110.566 117.101 110.421 116.541 110.421 115.92V112C110.421 111.379 110.566 110.822 110.855 110.327C111.145 109.828 111.537 109.433 112.031 109.144C112.531 108.855 113.091 108.71 113.711 108.71C114.332 108.71 114.89 108.855 115.384 109.144C115.884 109.433 116.278 109.828 116.567 110.327C116.857 110.822 117.001 111.379 117.001 112V115.92C117.001 116.541 116.857 117.101 116.567 117.6C116.278 118.095 115.884 118.487 115.384 118.776C114.89 119.065 114.332 119.21 113.711 119.21ZM113.711 118.216C114.127 118.216 114.505 118.116 114.845 117.915C115.186 117.71 115.457 117.437 115.657 117.096C115.858 116.755 115.958 116.38 115.958 115.969V111.951C115.958 111.536 115.858 111.158 115.657 110.817C115.457 110.476 115.186 110.206 114.845 110.005C114.505 109.8 114.127 109.697 113.711 109.697C113.296 109.697 112.918 109.8 112.577 110.005C112.237 110.206 111.966 110.476 111.765 110.817C111.565 111.158 111.464 111.536 111.464 111.951V115.969C111.464 116.38 111.565 116.755 111.765 117.096C111.966 117.437 112.237 117.71 112.577 117.915C112.918 118.116 113.296 118.216 113.711 118.216ZM122.256 119.21C121.636 119.21 121.076 119.065 120.576 118.776C120.082 118.487 119.69 118.095 119.4 117.6C119.111 117.101 118.966 116.541 118.966 115.92V112C118.966 111.379 119.111 110.822 119.4 110.327C119.69 109.828 120.082 109.433 120.576 109.144C121.076 108.855 121.636 108.71 122.256 108.71C122.877 108.71 123.435 108.855 123.929 109.144C124.429 109.433 124.823 109.828 125.112 110.327C125.402 110.822 125.546 111.379 125.546 112V115.92C125.546 116.541 125.402 117.101 125.112 117.6C124.823 118.095 124.429 118.487 123.929 118.776C123.435 119.065 122.877 119.21 122.256 119.21ZM122.256 118.216C122.672 118.216 123.05 118.116 123.39 117.915C123.731 117.71 124.002 117.437 124.202 117.096C124.403 116.755 124.503 116.38 124.503 115.969V111.951C124.503 111.536 124.403 111.158 124.202 110.817C124.002 110.476 123.731 110.206 123.39 110.005C123.05 109.8 122.672 109.697 122.256 109.697C121.841 109.697 121.463 109.8 121.122 110.005C120.782 110.206 120.511 110.476 120.31 110.817C120.11 111.158 120.009 111.536 120.009 111.951V115.969C120.009 116.38 120.11 116.755 120.31 117.096C120.511 117.437 120.782 117.71 121.122 117.915C121.463 118.116 121.841 118.216 122.256 118.216Z" fill="#A1A1AA"/>
</g>
<defs>
<clipPath id="clip0_1276_110885">
<rect width="194" height="194" fill="white"/>
</clipPath>
</defs>
</svg>
