<svg width="194" height="194" viewBox="0 0 194 194" fill="none" xmlns="http://www.w3.org/2000/svg">
<g clip-path="url(#clip0_1276_110884)">
<mask id="path-1-inside-1_1276_110884" fill="white">
<path d="M194 97C194 150.572 150.572 194 97 194C43.4284 194 0 150.572 0 97C0 43.4284 43.4284 0 97 0C150.572 0 194 43.4284 194 97ZM19.4 97C19.4 139.857 54.1427 174.6 97 174.6C139.857 174.6 174.6 139.857 174.6 97C174.6 54.1427 139.857 19.4 97 19.4C54.1427 19.4 19.4 54.1427 19.4 97Z"/>
</mask>
<path d="M194 97C194 150.572 150.572 194 97 194C43.4284 194 0 150.572 0 97C0 43.4284 43.4284 0 97 0C150.572 0 194 43.4284 194 97ZM19.4 97C19.4 139.857 54.1427 174.6 97 174.6C139.857 174.6 174.6 139.857 174.6 97C174.6 54.1427 139.857 19.4 97 19.4C54.1427 19.4 19.4 54.1427 19.4 97Z" stroke="#F4F4F5" stroke-width="48" stroke-linecap="round" stroke-linejoin="round" mask="url(#path-1-inside-1_1276_110884)"/>
<mask id="path-2-inside-2_1276_110884" fill="white">
<path d="M97 9.7C97 4.34284 101.354 -0.0502326 106.684 0.484598C116.1 1.42938 125.345 3.74887 134.12 7.38369C145.889 12.2584 156.582 19.4034 165.589 28.4106C174.597 37.4179 181.742 48.1111 186.616 59.8797C190.251 68.6549 192.571 77.8999 193.515 87.3161C194.05 92.6465 189.657 97 184.3 97C178.943 97 174.662 92.6405 173.995 87.3252C173.132 80.4589 171.352 73.7241 168.693 67.3038C164.793 57.8889 159.077 49.3343 151.871 42.1285C144.666 34.9227 136.111 29.2067 126.696 25.307C120.276 22.6475 113.541 20.8683 106.675 20.0055C101.359 19.3376 97 15.0572 97 9.7Z"/>
</mask>
<path d="M97 9.7C97 4.34284 101.354 -0.0502326 106.684 0.484598C116.1 1.42938 125.345 3.74887 134.12 7.38369C145.889 12.2584 156.582 19.4034 165.589 28.4106C174.597 37.4179 181.742 48.1111 186.616 59.8797C190.251 68.6549 192.571 77.8999 193.515 87.3161C194.05 92.6465 189.657 97 184.3 97C178.943 97 174.662 92.6405 173.995 87.3252C173.132 80.4589 171.352 73.7241 168.693 67.3038C164.793 57.8889 159.077 49.3343 151.871 42.1285C144.666 34.9227 136.111 29.2067 126.696 25.307C120.276 22.6475 113.541 20.8683 106.675 20.0055C101.359 19.3376 97 15.0572 97 9.7Z" stroke="#FAA81A" stroke-width="48" stroke-linecap="round" stroke-linejoin="round" mask="url(#path-2-inside-2_1276_110884)"/>
<path d="M46.4924 95V82.04H54.7724V83.813H48.3734V87.449H53.6924V89.222H48.3734V93.227H54.7724V95H46.4924ZM68.5798 95L68.5888 88.943C68.5888 88.241 68.4088 87.695 68.0488 87.305C67.6888 86.909 67.2148 86.711 66.6268 86.711C66.2668 86.711 65.9368 86.795 65.6368 86.963C65.3428 87.125 65.1028 87.371 64.9168 87.701C64.7368 88.025 64.6468 88.433 64.6468 88.925L63.7378 88.466C63.7258 87.782 63.8698 87.182 64.1698 86.666C64.4758 86.15 64.8898 85.751 65.4118 85.469C65.9338 85.181 66.5188 85.037 67.1668 85.037C68.2168 85.037 69.0298 85.352 69.6058 85.982C70.1818 86.612 70.4698 87.449 70.4698 88.493L70.4608 95H68.5798ZM56.9248 95V85.28H58.5988V88.088H58.8148V95H56.9248ZM62.7568 95L62.7658 88.979C62.7658 88.271 62.5858 87.716 62.2258 87.314C61.8718 86.912 61.3948 86.711 60.7948 86.711C60.2008 86.711 59.7208 86.915 59.3548 87.323C58.9948 87.731 58.8148 88.265 58.8148 88.925L57.9148 88.349C57.9148 87.713 58.0678 87.146 58.3738 86.648C58.6798 86.15 59.0938 85.757 59.6158 85.469C60.1378 85.181 60.7288 85.037 61.3888 85.037C62.0788 85.037 62.6668 85.184 63.1528 85.478C63.6388 85.766 64.0078 86.171 64.2598 86.693C64.5178 87.215 64.6468 87.821 64.6468 88.511L64.6378 95H62.7568ZM75.5519 95.27C74.8319 95.27 74.2289 95.138 73.7429 94.874C73.2569 94.604 72.8879 94.25 72.6359 93.812C72.3899 93.368 72.2669 92.882 72.2669 92.354C72.2669 91.862 72.3539 91.43 72.5279 91.058C72.7019 90.686 72.9599 90.371 73.3019 90.113C73.6439 89.849 74.0639 89.636 74.5619 89.474C74.9939 89.348 75.4829 89.237 76.0289 89.141C76.5749 89.045 77.1479 88.955 77.7479 88.871C78.3539 88.787 78.9539 88.703 79.5479 88.619L78.8639 88.997C78.8759 88.235 78.7139 87.671 78.3779 87.305C78.0479 86.933 77.4779 86.747 76.6679 86.747C76.1579 86.747 75.6899 86.867 75.2639 87.107C74.8379 87.341 74.5409 87.731 74.3729 88.277L72.6179 87.737C72.8579 86.903 73.3139 86.24 73.9859 85.748C74.6639 85.256 75.5639 85.01 76.6859 85.01C77.5559 85.01 78.3119 85.16 78.9539 85.46C79.6019 85.754 80.0759 86.222 80.3759 86.864C80.5319 87.182 80.6279 87.518 80.6639 87.872C80.6999 88.226 80.7179 88.607 80.7179 89.015V95H79.0529V92.777L79.3769 93.065C78.9749 93.809 78.4619 94.364 77.8379 94.73C77.2199 95.09 76.4579 95.27 75.5519 95.27ZM75.8849 93.731C76.4189 93.731 76.8779 93.638 77.2619 93.452C77.6459 93.26 77.9549 93.017 78.1889 92.723C78.4229 92.429 78.5759 92.123 78.6479 91.805C78.7499 91.517 78.8069 91.193 78.8189 90.833C78.8369 90.473 78.8459 90.185 78.8459 89.969L79.4579 90.194C78.8639 90.284 78.3239 90.365 77.8379 90.437C77.3519 90.509 76.9109 90.581 76.5149 90.653C76.1249 90.719 75.7769 90.8 75.4709 90.896C75.2129 90.986 74.9819 91.094 74.7779 91.22C74.5799 91.346 74.4209 91.499 74.3009 91.679C74.1869 91.859 74.1299 92.078 74.1299 92.336C74.1299 92.588 74.1929 92.822 74.3189 93.038C74.4449 93.248 74.6369 93.416 74.8949 93.542C75.1529 93.668 75.4829 93.731 75.8849 93.731ZM83.2349 83.687V81.86H85.1159V83.687H83.2349ZM83.2349 95V85.28H85.1159V95H83.2349ZM87.9986 95V81.77H89.8796V95H87.9986ZM96.2993 95.261C95.1173 95.261 94.1543 95 93.4103 94.478C92.6663 93.956 92.2103 93.221 92.0423 92.273L93.9683 91.976C94.0883 92.48 94.3643 92.879 94.7963 93.173C95.2343 93.461 95.7773 93.605 96.4253 93.605C97.0133 93.605 97.4723 93.485 97.8023 93.245C98.1383 93.005 98.3063 92.675 98.3063 92.255C98.3063 92.009 98.2463 91.811 98.1263 91.661C98.0123 91.505 97.7693 91.358 97.3973 91.22C97.0253 91.082 96.4583 90.911 95.6963 90.707C94.8623 90.491 94.1993 90.26 93.7073 90.014C93.2213 89.762 92.8733 89.471 92.6633 89.141C92.4593 88.805 92.3573 88.4 92.3573 87.926C92.3573 87.338 92.5133 86.825 92.8253 86.387C93.1373 85.949 93.5753 85.61 94.1393 85.37C94.7093 85.13 95.3753 85.01 96.1373 85.01C96.8813 85.01 97.5443 85.127 98.1263 85.361C98.7083 85.595 99.1793 85.928 99.5393 86.36C99.8993 86.786 100.115 87.287 100.187 87.863L98.2613 88.214C98.1953 87.746 97.9763 87.377 97.6043 87.107C97.2323 86.837 96.7493 86.69 96.1553 86.666C95.5853 86.642 95.1233 86.738 94.7693 86.954C94.4153 87.164 94.2383 87.455 94.2383 87.827C94.2383 88.043 94.3043 88.226 94.4363 88.376C94.5743 88.526 94.8383 88.67 95.2283 88.808C95.6183 88.946 96.1943 89.111 96.9563 89.303C97.7723 89.513 98.4203 89.747 98.9003 90.005C99.3803 90.257 99.7223 90.56 99.9263 90.914C100.136 91.262 100.241 91.685 100.241 92.183C100.241 93.143 99.8903 93.896 99.1883 94.442C98.4923 94.988 97.5293 95.261 96.2993 95.261ZM111.002 95.27C109.988 95.27 109.091 95.063 108.311 94.649C107.537 94.229 106.931 93.644 106.493 92.894C106.055 92.138 105.836 91.25 105.836 90.23V82.049L107.744 82.04V90.131C107.744 90.683 107.837 91.169 108.023 91.589C108.209 92.009 108.458 92.36 108.77 92.642C109.082 92.924 109.43 93.137 109.814 93.281C110.204 93.425 110.6 93.497 111.002 93.497C111.41 93.497 111.806 93.425 112.19 93.281C112.58 93.131 112.931 92.915 113.243 92.633C113.555 92.351 113.801 92 113.981 91.58C114.167 91.16 114.26 90.677 114.26 90.131V82.04H116.168V90.23C116.168 91.244 115.949 92.129 115.511 92.885C115.073 93.641 114.464 94.229 113.684 94.649C112.91 95.063 112.016 95.27 111.002 95.27ZM122.403 95.261C121.221 95.261 120.258 95 119.514 94.478C118.77 93.956 118.314 93.221 118.146 92.273L120.072 91.976C120.192 92.48 120.468 92.879 120.9 93.173C121.338 93.461 121.881 93.605 122.529 93.605C123.117 93.605 123.576 93.485 123.906 93.245C124.242 93.005 124.41 92.675 124.41 92.255C124.41 92.009 124.35 91.811 124.23 91.661C124.116 91.505 123.873 91.358 123.501 91.22C123.129 91.082 122.562 90.911 121.8 90.707C120.966 90.491 120.303 90.26 119.811 90.014C119.325 89.762 118.977 89.471 118.767 89.141C118.563 88.805 118.461 88.4 118.461 87.926C118.461 87.338 118.617 86.825 118.929 86.387C119.241 85.949 119.679 85.61 120.243 85.37C120.813 85.13 121.479 85.01 122.241 85.01C122.985 85.01 123.648 85.127 124.23 85.361C124.812 85.595 125.283 85.928 125.643 86.36C126.003 86.786 126.219 87.287 126.291 87.863L124.365 88.214C124.299 87.746 124.08 87.377 123.708 87.107C123.336 86.837 122.853 86.69 122.259 86.666C121.689 86.642 121.227 86.738 120.873 86.954C120.519 87.164 120.342 87.455 120.342 87.827C120.342 88.043 120.408 88.226 120.54 88.376C120.678 88.526 120.942 88.67 121.332 88.808C121.722 88.946 122.298 89.111 123.06 89.303C123.876 89.513 124.524 89.747 125.004 90.005C125.484 90.257 125.826 90.56 126.03 90.914C126.24 91.262 126.345 91.685 126.345 92.183C126.345 93.143 125.994 93.896 125.292 94.442C124.596 94.988 123.633 95.261 122.403 95.261ZM132.647 95.27C131.681 95.27 130.832 95.06 130.1 94.64C129.374 94.214 128.807 93.623 128.399 92.867C127.997 92.105 127.796 91.223 127.796 90.221C127.796 89.159 127.994 88.238 128.39 87.458C128.792 86.678 129.35 86.075 130.064 85.649C130.778 85.223 131.609 85.01 132.557 85.01C133.547 85.01 134.39 85.241 135.086 85.703C135.782 86.159 136.301 86.81 136.643 87.656C136.991 88.502 137.129 89.507 137.057 90.671H135.176V89.987C135.164 88.859 134.948 88.025 134.528 87.485C134.114 86.945 133.481 86.675 132.629 86.675C131.687 86.675 130.979 86.972 130.505 87.566C130.031 88.16 129.794 89.018 129.794 90.14C129.794 91.208 130.031 92.036 130.505 92.624C130.979 93.206 131.663 93.497 132.557 93.497C133.145 93.497 133.652 93.365 134.078 93.101C134.51 92.831 134.846 92.447 135.086 91.949L136.931 92.534C136.553 93.404 135.98 94.079 135.212 94.559C134.444 95.033 133.589 95.27 132.647 95.27ZM129.182 90.671V89.204H136.121V90.671H129.182ZM142.937 95.27C142.031 95.27 141.248 95.045 140.588 94.595C139.934 94.145 139.427 93.533 139.067 92.759C138.713 91.979 138.536 91.103 138.536 90.131C138.536 89.153 138.716 88.28 139.076 87.512C139.436 86.738 139.946 86.129 140.606 85.685C141.272 85.235 142.061 85.01 142.973 85.01C143.891 85.01 144.662 85.235 145.286 85.685C145.916 86.129 146.39 86.738 146.708 87.512C147.032 88.286 147.194 89.159 147.194 90.131C147.194 91.103 147.032 91.976 146.708 92.75C146.384 93.524 145.907 94.139 145.277 94.595C144.647 95.045 143.867 95.27 142.937 95.27ZM143.198 93.569C143.816 93.569 144.32 93.422 144.71 93.128C145.1 92.834 145.385 92.429 145.565 91.913C145.745 91.397 145.835 90.803 145.835 90.131C145.835 89.459 145.742 88.865 145.556 88.349C145.376 87.833 145.094 87.431 144.71 87.143C144.332 86.855 143.849 86.711 143.261 86.711C142.637 86.711 142.124 86.864 141.722 87.17C141.32 87.476 141.02 87.887 140.822 88.403C140.63 88.919 140.534 89.495 140.534 90.131C140.534 90.773 140.63 91.355 140.822 91.877C141.02 92.393 141.314 92.804 141.704 93.11C142.1 93.416 142.598 93.569 143.198 93.569ZM145.835 95V88.007H145.619V82.04H147.509V95H145.835Z" fill="#18181B"/>
<path d="M64.5319 119V110.068L62.6349 111.209V110.054L64.5319 108.92H65.5749V119H64.5319ZM71.52 119.21C70.8993 119.21 70.3393 119.065 69.84 118.776C69.3453 118.487 68.9533 118.095 68.664 117.6C68.3747 117.101 68.23 116.541 68.23 115.92V112C68.23 111.379 68.3747 110.822 68.664 110.327C68.9533 109.828 69.3453 109.433 69.84 109.144C70.3393 108.855 70.8993 108.71 71.52 108.71C72.1407 108.71 72.6983 108.855 73.193 109.144C73.6923 109.433 74.0867 109.828 74.376 110.327C74.6653 110.822 74.81 111.379 74.81 112V115.92C74.81 116.541 74.6653 117.101 74.376 117.6C74.0867 118.095 73.6923 118.487 73.193 118.776C72.6983 119.065 72.1407 119.21 71.52 119.21ZM71.52 118.216C71.9353 118.216 72.3133 118.116 72.654 117.915C72.9947 117.71 73.2653 117.437 73.466 117.096C73.6667 116.755 73.767 116.38 73.767 115.969V111.951C73.767 111.536 73.6667 111.158 73.466 110.817C73.2653 110.476 72.9947 110.206 72.654 110.005C72.3133 109.8 71.9353 109.697 71.52 109.697C71.1047 109.697 70.7267 109.8 70.386 110.005C70.0453 110.206 69.7747 110.476 69.574 110.817C69.3733 111.158 69.273 111.536 69.273 111.951V115.969C69.273 116.38 69.3733 116.755 69.574 117.096C69.7747 117.437 70.0453 117.71 70.386 117.915C70.7267 118.116 71.1047 118.216 71.52 118.216ZM80.0649 119.21C79.4443 119.21 78.8843 119.065 78.3849 118.776C77.8903 118.487 77.4983 118.095 77.2089 117.6C76.9196 117.101 76.7749 116.541 76.7749 115.92V112C76.7749 111.379 76.9196 110.822 77.2089 110.327C77.4983 109.828 77.8903 109.433 78.3849 109.144C78.8843 108.855 79.4443 108.71 80.0649 108.71C80.6856 108.71 81.2433 108.855 81.7379 109.144C82.2373 109.433 82.6316 109.828 82.9209 110.327C83.2103 110.822 83.3549 111.379 83.3549 112V115.92C83.3549 116.541 83.2103 117.101 82.9209 117.6C82.6316 118.095 82.2373 118.487 81.7379 118.776C81.2433 119.065 80.6856 119.21 80.0649 119.21ZM80.0649 118.216C80.4803 118.216 80.8583 118.116 81.1989 117.915C81.5396 117.71 81.8103 117.437 82.0109 117.096C82.2116 116.755 82.3119 116.38 82.3119 115.969V111.951C82.3119 111.536 82.2116 111.158 82.0109 110.817C81.8103 110.476 81.5396 110.206 81.1989 110.005C80.8583 109.8 80.4803 109.697 80.0649 109.697C79.6496 109.697 79.2716 109.8 78.9309 110.005C78.5903 110.206 78.3196 110.476 78.1189 110.817C77.9183 111.158 77.8179 111.536 77.8179 111.951V115.969C77.8179 116.38 77.9183 116.755 78.1189 117.096C78.3196 117.437 78.5903 117.71 78.9309 117.915C79.2716 118.116 79.6496 118.216 80.0649 118.216ZM88.6098 119.21C87.9892 119.21 87.4292 119.065 86.9298 118.776C86.4352 118.487 86.0432 118.095 85.7538 117.6C85.4645 117.101 85.3198 116.541 85.3198 115.92V112C85.3198 111.379 85.4645 110.822 85.7538 110.327C86.0432 109.828 86.4352 109.433 86.9298 109.144C87.4292 108.855 87.9892 108.71 88.6098 108.71C89.2305 108.71 89.7882 108.855 90.2828 109.144C90.7822 109.433 91.1765 109.828 91.4658 110.327C91.7552 110.822 91.8998 111.379 91.8998 112V115.92C91.8998 116.541 91.7552 117.101 91.4658 117.6C91.1765 118.095 90.7822 118.487 90.2828 118.776C89.7882 119.065 89.2305 119.21 88.6098 119.21ZM88.6098 118.216C89.0252 118.216 89.4032 118.116 89.7438 117.915C90.0845 117.71 90.3552 117.437 90.5558 117.096C90.7565 116.755 90.8568 116.38 90.8568 115.969V111.951C90.8568 111.536 90.7565 111.158 90.5558 110.817C90.3552 110.476 90.0845 110.206 89.7438 110.005C89.4032 109.8 89.0252 109.697 88.6098 109.697C88.1945 109.697 87.8165 109.8 87.4758 110.005C87.1352 110.206 86.8645 110.476 86.6638 110.817C86.4632 111.158 86.3628 111.536 86.3628 111.951V115.969C86.3628 116.38 86.4632 116.755 86.6638 117.096C86.8645 117.437 87.1352 117.71 87.4758 117.915C87.8165 118.116 88.1945 118.216 88.6098 118.216ZM96.4128 108.92H97.4698L94.7818 119H93.7248L96.4128 108.92ZM103.731 119V117.047H99.0125V116.067L102.387 108.92H103.542L100.168 116.067H103.731V113.127H104.767V116.067H105.865V117.047H104.767V119H103.731ZM110.84 119.21C110.22 119.21 109.66 119.065 109.16 118.776C108.666 118.487 108.274 118.095 107.984 117.6C107.695 117.101 107.55 116.541 107.55 115.92V112C107.55 111.379 107.695 110.822 107.984 110.327C108.274 109.828 108.666 109.433 109.16 109.144C109.66 108.855 110.22 108.71 110.84 108.71C111.461 108.71 112.019 108.855 112.513 109.144C113.013 109.433 113.407 109.828 113.696 110.327C113.986 110.822 114.13 111.379 114.13 112V115.92C114.13 116.541 113.986 117.101 113.696 117.6C113.407 118.095 113.013 118.487 112.513 118.776C112.019 119.065 111.461 119.21 110.84 119.21ZM110.84 118.216C111.256 118.216 111.634 118.116 111.974 117.915C112.315 117.71 112.586 117.437 112.786 117.096C112.987 116.755 113.087 116.38 113.087 115.969V111.951C113.087 111.536 112.987 111.158 112.786 110.817C112.586 110.476 112.315 110.206 111.974 110.005C111.634 109.8 111.256 109.697 110.84 109.697C110.425 109.697 110.047 109.8 109.706 110.005C109.366 110.206 109.095 110.476 108.894 110.817C108.694 111.158 108.593 111.536 108.593 111.951V115.969C108.593 116.38 108.694 116.755 108.894 117.096C109.095 117.437 109.366 117.71 109.706 117.915C110.047 118.116 110.425 118.216 110.84 118.216ZM119.385 119.21C118.765 119.21 118.205 119.065 117.705 118.776C117.211 118.487 116.819 118.095 116.529 117.6C116.24 117.101 116.095 116.541 116.095 115.92V112C116.095 111.379 116.24 110.822 116.529 110.327C116.819 109.828 117.211 109.433 117.705 109.144C118.205 108.855 118.765 108.71 119.385 108.71C120.006 108.71 120.564 108.855 121.058 109.144C121.558 109.433 121.952 109.828 122.241 110.327C122.531 110.822 122.675 111.379 122.675 112V115.92C122.675 116.541 122.531 117.101 122.241 117.6C121.952 118.095 121.558 118.487 121.058 118.776C120.564 119.065 120.006 119.21 119.385 119.21ZM119.385 118.216C119.801 118.216 120.179 118.116 120.519 117.915C120.86 117.71 121.131 117.437 121.331 117.096C121.532 116.755 121.632 116.38 121.632 115.969V111.951C121.632 111.536 121.532 111.158 121.331 110.817C121.131 110.476 120.86 110.206 120.519 110.005C120.179 109.8 119.801 109.697 119.385 109.697C118.97 109.697 118.592 109.8 118.251 110.005C117.911 110.206 117.64 110.476 117.439 110.817C117.239 111.158 117.138 111.536 117.138 111.951V115.969C117.138 116.38 117.239 116.755 117.439 117.096C117.64 117.437 117.911 117.71 118.251 117.915C118.592 118.116 118.97 118.216 119.385 118.216ZM127.93 119.21C127.309 119.21 126.749 119.065 126.25 118.776C125.755 118.487 125.363 118.095 125.074 117.6C124.785 117.101 124.64 116.541 124.64 115.92V112C124.64 111.379 124.785 110.822 125.074 110.327C125.363 109.828 125.755 109.433 126.25 109.144C126.749 108.855 127.309 108.71 127.93 108.71C128.551 108.71 129.108 108.855 129.603 109.144C130.102 109.433 130.497 109.828 130.786 110.327C131.075 110.822 131.22 111.379 131.22 112V115.92C131.22 116.541 131.075 117.101 130.786 117.6C130.497 118.095 130.102 118.487 129.603 118.776C129.108 119.065 128.551 119.21 127.93 119.21ZM127.93 118.216C128.345 118.216 128.723 118.116 129.064 117.915C129.405 117.71 129.675 117.437 129.876 117.096C130.077 116.755 130.177 116.38 130.177 115.969V111.951C130.177 111.536 130.077 111.158 129.876 110.817C129.675 110.476 129.405 110.206 129.064 110.005C128.723 109.8 128.345 109.697 127.93 109.697C127.515 109.697 127.137 109.8 126.796 110.005C126.455 110.206 126.185 110.476 125.984 110.817C125.783 111.158 125.683 111.536 125.683 111.951V115.969C125.683 116.38 125.783 116.755 125.984 117.096C126.185 117.437 126.455 117.71 126.796 117.915C127.137 118.116 127.515 118.216 127.93 118.216Z" fill="#A1A1AA"/>
</g>
<defs>
<clipPath id="clip0_1276_110884">
<rect width="194" height="194" fill="white"/>
</clipPath>
</defs>
</svg>
