<svg width="316" height="202" viewBox="0 0 316 202" fill="none" xmlns="http://www.w3.org/2000/svg">
<g clip-path="url(#clip0_3029_128460)">
<path fill-rule="evenodd" clip-rule="evenodd" d="M11.6054 112.682C11.5979 106.79 16.3737 102.007 22.2719 101.999L276.114 101.678C282.012 101.67 286.799 106.441 286.806 112.333L286.871 163.366C286.879 169.256 282.103 174.039 276.205 174.046L22.3636 174.368C16.4653 174.375 11.6775 169.604 11.6701 163.715L11.6054 112.682Z" fill="white"/>
<path fill-rule="evenodd" clip-rule="evenodd" d="M11.0725 112.683C11.0646 106.496 16.0788 101.476 22.2696 101.469L276.111 101.147C282.303 101.139 287.329 106.146 287.336 112.333L287.401 163.365C287.409 169.55 282.396 174.569 276.204 174.577L22.3627 174.899C16.1718 174.906 11.145 169.9 11.1371 163.715L11.0725 112.683ZM12.1351 112.681L12.1998 163.714C12.2069 169.311 16.7582 173.844 22.3613 173.837L276.203 173.515C281.808 173.508 286.345 168.964 286.338 163.367L286.274 112.334C286.266 106.734 281.717 102.201 276.113 102.209L22.271 102.53C16.6679 102.537 12.128 107.081 12.1351 112.681Z" fill="#18181B"/>
<path fill-rule="evenodd" clip-rule="evenodd" d="M42.9119 97.0516C42.7779 96.7651 42.5648 96.5229 42.2977 96.3533C42.0306 96.1838 41.7205 96.094 41.404 96.0945C40.7572 96.0954 40.1699 96.4705 39.896 97.0554C38.698 99.621 37.1059 103.028 36.3815 104.58C36.2623 104.836 36.0803 105.056 35.8525 105.222C35.6247 105.388 35.3584 105.493 35.0788 105.528C33.3799 105.741 29.6434 106.209 26.8333 106.562C26.1917 106.642 25.6532 107.086 25.4564 107.699C25.257 108.315 25.4324 108.989 25.9052 109.429C27.9764 111.36 30.7286 113.926 31.9826 115.093C32.1888 115.285 32.3428 115.526 32.4302 115.794C32.5176 116.062 32.5356 116.347 32.4825 116.624C32.1587 118.303 31.4498 121.999 30.9169 124.777C30.7945 125.41 31.0519 126.059 31.576 126.437C31.8321 126.624 32.1361 126.733 32.4522 126.752C32.7684 126.771 33.0834 126.699 33.36 126.545C35.8403 125.173 39.1311 123.351 40.6315 122.523C40.8776 122.387 41.1544 122.315 41.4359 122.315C41.7174 122.314 41.9944 122.386 42.2408 122.521C43.7434 123.345 47.0413 125.159 49.5225 126.525C49.7995 126.678 50.1147 126.749 50.4308 126.729C50.7469 126.709 51.0507 126.599 51.3062 126.412C51.5625 126.226 51.7602 125.971 51.8762 125.677C51.9922 125.382 52.0217 125.061 51.9612 124.75C51.4212 121.974 50.703 118.28 50.3749 116.601C50.2664 116.037 50.453 115.46 50.8709 115.07C52.122 113.899 54.8676 111.326 56.9365 109.39C57.1672 109.173 57.3315 108.895 57.4102 108.589C57.4889 108.282 57.4787 107.96 57.3809 107.659C57.2819 107.358 57.0994 107.092 56.8547 106.891C56.6099 106.69 56.313 106.563 55.9986 106.525C53.1876 106.18 49.4525 105.72 47.7505 105.512C47.4709 105.477 47.2046 105.373 46.9764 105.208C46.7482 105.042 46.5655 104.822 46.4454 104.568C45.7171 103.017 44.1163 99.6141 42.9119 97.0516Z" fill="#FAA81A"/>
<path fill-rule="evenodd" clip-rule="evenodd" d="M55.0936 123.854C54.9587 123.568 54.7449 123.326 54.4774 123.157C54.2099 122.988 53.8997 122.898 53.5832 122.899C52.9364 122.9 52.3491 123.273 52.0752 123.858C50.8798 126.423 49.2876 129.83 48.5632 131.382C48.4443 131.638 48.2624 131.859 48.0345 132.025C47.8066 132.19 47.5403 132.296 47.2605 132.33C45.5591 132.545 41.8251 133.011 39.015 133.364C38.3735 133.447 37.835 133.888 37.6356 134.504C37.4362 135.117 37.6116 135.791 38.0844 136.232C40.1556 138.165 42.9104 140.728 44.1618 141.896C44.3683 142.087 44.5225 142.328 44.61 142.596C44.6974 142.864 44.7152 143.149 44.6617 143.426C44.3404 145.108 43.6315 148.801 43.0986 151.581C42.9762 152.215 43.2337 152.863 43.7578 153.242C44.0141 153.428 44.3181 153.537 44.6341 153.556C44.9501 153.575 45.2649 153.504 45.5418 153.35C48.0195 151.978 51.3128 150.156 52.8107 149.326C53.0573 149.189 53.3345 149.117 53.6164 149.117C53.8983 149.117 54.1757 149.188 54.4226 149.324C55.9252 150.15 59.2205 151.964 61.7017 153.33C61.9794 153.482 62.2949 153.553 62.6112 153.533C62.9276 153.513 63.2317 153.404 63.488 153.217C63.7438 153.031 63.9412 152.775 64.0571 152.481C64.1731 152.187 64.2028 151.865 64.1429 151.555C63.603 148.776 62.8848 145.085 62.5567 143.403C62.4482 142.842 62.6348 142.262 63.0527 141.872C64.3037 140.701 67.0494 138.131 69.1157 136.192C69.3468 135.976 69.5113 135.699 69.59 135.393C69.6687 135.086 69.6584 134.764 69.5601 134.464C69.3591 133.848 68.8221 133.408 68.1804 133.327C65.3694 132.982 61.6317 132.525 59.9323 132.314C59.6522 132.281 59.3853 132.177 59.1569 132.011C58.9284 131.846 58.7461 131.625 58.6272 131.37C57.8989 129.819 56.2981 126.416 55.0936 123.854Z" fill="white"/>
<path fill-rule="evenodd" clip-rule="evenodd" d="M55.5761 123.633L59.1071 131.149C59.1893 131.322 59.3138 131.471 59.4692 131.584C59.6245 131.696 59.8057 131.767 59.996 131.791C61.698 131.999 65.4331 132.459 68.2467 132.804C68.6611 132.855 69.0523 133.023 69.3745 133.288C69.6967 133.553 69.9365 133.905 70.0658 134.301C70.1953 134.698 70.2091 135.124 70.1055 135.528C70.0019 135.932 69.7853 136.299 69.4809 136.584C67.4146 138.52 64.6663 141.09 63.4179 142.261C63.278 142.393 63.1735 142.557 63.1141 142.74C63.0547 142.922 63.0422 143.117 63.0778 143.305C63.4059 144.987 64.1241 148.678 64.6641 151.454C64.8268 152.293 64.4891 153.147 63.8019 153.648C63.4641 153.894 63.063 154.039 62.6456 154.065C62.2282 154.092 61.812 153.999 61.4458 153.797C58.9647 152.431 55.6693 150.617 54.1667 149.791C53.8251 149.604 53.4119 149.604 53.0707 149.792C51.5703 150.622 48.277 152.444 45.7993 153.817C45.4341 154.019 45.0185 154.114 44.6014 154.088C44.1844 154.063 43.7833 153.919 43.4454 153.673C43.107 153.429 42.8455 153.092 42.6918 152.704C42.5381 152.316 42.4985 151.892 42.5777 151.482C43.1106 148.705 43.8195 145.012 44.1407 143.329C44.2147 142.947 44.0858 142.552 43.8006 142.286C42.5466 141.118 39.7944 138.555 37.7232 136.625C37.4177 136.34 37.1997 135.974 37.0947 135.57C36.9896 135.166 37.0019 134.741 37.13 134.343C37.2588 133.946 37.4982 133.594 37.8202 133.328C38.1421 133.062 38.5333 132.893 38.9479 132.841C41.7579 132.489 45.4945 132.02 47.1933 131.807C47.3837 131.783 47.5648 131.712 47.72 131.599C47.8751 131.486 47.9991 131.336 48.0806 131.163C48.805 129.611 50.3972 126.201 51.5951 123.638C51.7715 123.259 52.0521 122.939 52.4041 122.714C52.7561 122.49 53.1649 122.37 53.5827 122.369C54.0009 122.368 54.4105 122.487 54.7636 122.711C55.1166 122.935 55.3985 123.255 55.5761 123.633ZM54.6141 124.083C54.5219 123.888 54.3762 123.724 54.1941 123.609C54.0119 123.494 53.8008 123.433 53.5853 123.433C53.3699 123.434 53.1589 123.495 52.9771 123.61C52.7952 123.726 52.65 123.891 52.5582 124.085L49.0437 131.61C48.8871 131.947 48.6476 132.238 48.3475 132.457C48.0475 132.676 47.6967 132.815 47.3282 132.861L39.0801 133.895C38.6438 133.949 38.2772 134.252 38.1417 134.67C38.0062 135.088 38.1248 135.547 38.4486 135.847C40.5198 137.777 43.272 140.343 44.526 141.511C44.7975 141.764 45.0004 142.083 45.1157 142.436C45.231 142.789 45.2551 143.165 45.1856 143.53L43.62 151.684C43.5384 152.117 43.7135 152.558 44.068 152.814C44.2427 152.941 44.4501 153.015 44.6657 153.028C44.8814 153.041 45.0962 152.992 45.2847 152.887L52.5537 148.865C52.8785 148.684 53.2441 148.589 53.6159 148.588C53.9878 148.588 54.3536 148.682 54.6789 148.862L61.9605 152.865C62.3458 153.08 62.8181 153.049 63.1745 152.79C63.3493 152.663 63.4842 152.49 63.5631 152.289C63.642 152.089 63.6617 151.87 63.6197 151.658L62.036 143.509C61.8913 142.768 62.1393 142.004 62.6905 141.488C63.9415 140.317 66.6872 137.744 68.7535 135.808C68.9105 135.661 69.0223 135.472 69.0756 135.263C69.129 135.055 69.1218 134.836 69.0549 134.631C68.9882 134.426 68.8642 134.244 68.6976 134.107C68.531 133.97 68.3287 133.884 68.1145 133.858L59.8664 132.845C59.1168 132.751 58.4669 132.283 58.1452 131.599L54.6141 124.083Z" fill="#18181B"/>
<path fill-rule="evenodd" clip-rule="evenodd" d="M246.365 123.612C246.23 123.325 246.016 123.084 245.749 122.915C245.481 122.746 245.171 122.656 244.855 122.657C244.538 122.657 244.228 122.747 243.961 122.917C243.694 123.087 243.481 123.329 243.347 123.615L239.834 131.14C239.715 131.396 239.533 131.617 239.305 131.783C239.078 131.949 238.811 132.054 238.531 132.088C236.831 132.303 233.096 132.769 230.285 133.122C229.643 133.204 229.106 133.646 228.907 134.262C228.708 134.875 228.883 135.549 229.356 135.989C231.428 137.923 234.18 140.486 235.434 141.653C235.64 141.845 235.794 142.086 235.881 142.354C235.969 142.622 235.987 142.907 235.933 143.184L234.369 151.339C234.31 151.65 234.34 151.971 234.457 152.265C234.574 152.559 234.772 152.814 235.028 153C235.285 153.185 235.589 153.294 235.905 153.313C236.221 153.332 236.536 153.261 236.813 153.108C239.291 151.736 242.583 149.914 244.083 149.083C244.329 148.947 244.606 148.875 244.888 148.875C245.17 148.874 245.447 148.945 245.694 149.081C247.195 149.908 250.492 151.721 252.974 153.088C253.251 153.24 253.566 153.311 253.882 153.291C254.198 153.271 254.502 153.161 254.758 152.975C255.014 152.789 255.212 152.533 255.328 152.239C255.444 151.945 255.473 151.623 255.413 151.313L253.828 143.161C253.774 142.885 253.791 142.599 253.878 142.331C253.965 142.063 254.118 141.822 254.324 141.629C255.575 140.459 258.32 137.889 260.387 135.95C260.618 135.734 260.783 135.457 260.861 135.15C260.94 134.844 260.93 134.522 260.832 134.221C260.733 133.921 260.551 133.654 260.307 133.453C260.062 133.251 259.766 133.124 259.451 133.085C256.639 132.739 252.903 132.283 251.202 132.072C250.922 132.038 250.655 131.934 250.427 131.769C250.199 131.603 250.016 131.383 249.897 131.128L246.365 123.612ZM198.547 123.672C198.413 123.386 198.199 123.144 197.931 122.975C197.664 122.806 197.354 122.717 197.037 122.718C196.391 122.718 195.803 123.091 195.53 123.676L192.016 131.201C191.898 131.456 191.716 131.677 191.488 131.843C191.26 132.009 190.994 132.114 190.714 132.149C189.013 132.364 185.278 132.83 182.468 133.182C181.826 133.265 181.289 133.707 181.09 134.322C180.891 134.935 181.066 135.61 181.538 136.05C183.61 137.983 186.363 140.546 187.616 141.714C187.822 141.906 187.976 142.147 188.064 142.415C188.151 142.682 188.169 142.968 188.116 143.244L186.552 151.4C186.493 151.711 186.523 152.032 186.64 152.326C186.756 152.62 186.955 152.875 187.211 153.06C187.467 153.246 187.771 153.355 188.088 153.374C188.404 153.393 188.719 153.322 188.996 153.169C191.474 151.796 194.766 149.974 196.265 149.144C196.512 149.007 196.789 148.936 197.071 148.935C197.353 148.935 197.63 149.006 197.877 149.142C199.378 149.968 202.675 151.782 205.156 153.148C205.434 153.301 205.749 153.372 206.065 153.352C206.381 153.332 206.685 153.222 206.941 153.036C207.197 152.85 207.395 152.594 207.511 152.3C207.627 152.005 207.656 151.684 207.595 151.373L206.011 143.221C205.957 142.945 205.974 142.66 206.061 142.392C206.148 142.124 206.301 141.883 206.507 141.69C207.757 140.519 210.503 137.949 212.57 136.011C212.801 135.795 212.965 135.517 213.044 135.211C213.123 134.905 213.113 134.582 213.014 134.282C212.916 133.981 212.734 133.715 212.489 133.513C212.245 133.312 211.948 133.184 211.634 133.145C208.822 132.8 205.086 132.343 203.385 132.133C203.105 132.099 202.838 131.994 202.61 131.829C202.382 131.664 202.199 131.443 202.08 131.188L198.547 123.672ZM150.73 123.733C150.595 123.447 150.381 123.205 150.114 123.036C149.846 122.867 149.536 122.777 149.22 122.778C148.573 122.779 147.985 123.152 147.712 123.737C146.516 126.302 144.924 129.709 144.2 131.261C144.081 131.517 143.899 131.738 143.671 131.904C143.443 132.069 143.177 132.175 142.897 132.209C141.195 132.424 137.461 132.89 134.651 133.243C134.01 133.326 133.471 133.767 133.272 134.383C133.072 134.996 133.248 135.67 133.721 136.111C135.792 138.044 138.547 140.607 139.798 141.775C140.005 141.966 140.159 142.207 140.246 142.475C140.334 142.743 140.352 143.028 140.298 143.305C139.977 144.987 139.268 148.68 138.735 151.46C138.613 152.094 138.87 152.742 139.394 153.121C139.65 153.307 139.954 153.416 140.27 153.435C140.586 153.454 140.901 153.383 141.178 153.229C143.656 151.857 146.949 150.035 148.447 149.205C148.694 149.068 148.971 148.996 149.253 148.996C149.535 148.995 149.812 149.067 150.059 149.203C151.561 150.029 154.857 151.843 157.338 153.209C157.615 153.361 157.931 153.432 158.247 153.412C158.563 153.392 158.867 153.283 159.123 153.097C159.379 152.91 159.577 152.655 159.693 152.36C159.809 152.066 159.839 151.744 159.778 151.434L158.193 143.282C158.084 142.721 158.271 142.141 158.689 141.751C159.94 140.58 162.686 138.01 164.753 136.071C164.984 135.855 165.148 135.578 165.227 135.271C165.306 134.965 165.295 134.643 165.197 134.342C165.099 134.042 164.916 133.775 164.672 133.574C164.428 133.372 164.131 133.245 163.816 133.206C161.005 132.861 157.268 132.404 155.569 132.193C155.289 132.16 155.022 132.056 154.793 131.89C154.565 131.725 154.382 131.504 154.264 131.249C153.535 129.698 151.934 126.295 150.73 123.733ZM102.912 123.793C102.778 123.507 102.564 123.265 102.297 123.096C102.029 122.927 101.719 122.838 101.402 122.839C100.758 122.84 100.168 123.212 99.8966 123.797C98.6986 126.363 97.1065 129.77 96.3821 131.322C96.2635 131.578 96.0816 131.799 95.8537 131.965C95.6258 132.13 95.3592 132.235 95.0794 132.27C93.3779 132.485 89.644 132.951 86.8339 133.303C86.1923 133.386 85.6539 133.828 85.4545 134.443C85.3576 134.744 85.3484 135.066 85.4278 135.372C85.5073 135.678 85.6722 135.955 85.9033 136.171C87.977 138.104 90.7292 140.668 91.9832 141.835C92.1892 142.027 92.3431 142.268 92.4305 142.536C92.5179 142.803 92.536 143.089 92.4831 143.365C92.1593 145.048 91.4504 148.741 90.9175 151.521C90.7951 152.155 91.0526 152.803 91.5766 153.182C91.8329 153.367 92.1369 153.476 92.4529 153.495C92.7689 153.514 93.0838 153.443 93.3607 153.29C95.8383 151.917 99.1317 150.095 100.632 149.265C100.878 149.129 101.155 149.057 101.437 149.056C101.718 149.056 101.995 149.127 102.241 149.263C103.744 150.089 107.042 151.903 109.523 153.269C109.8 153.422 110.115 153.492 110.431 153.473C110.747 153.453 111.051 153.343 111.307 153.157C111.563 152.971 111.761 152.715 111.877 152.421C111.993 152.126 112.022 151.805 111.962 151.494C111.422 148.716 110.704 145.024 110.376 143.343C110.267 142.781 110.454 142.201 110.872 141.811C112.123 140.64 114.868 138.07 116.937 136.132C117.168 135.916 117.332 135.638 117.41 135.332C117.489 135.026 117.478 134.703 117.379 134.403C117.281 134.102 117.099 133.835 116.855 133.634C116.61 133.433 116.314 133.305 115.999 133.266C113.188 132.921 109.453 132.464 107.751 132.254C107.471 132.22 107.204 132.116 106.976 131.95C106.748 131.785 106.565 131.565 106.446 131.309C105.718 129.759 104.117 126.356 102.912 123.793Z" fill="#FAA81A"/>
<path fill-rule="evenodd" clip-rule="evenodd" d="M67.1856 113.051C67.1856 113.051 60.8012 116.357 57.151 116.056C53.5034 115.756 50.2634 115.106 47.4966 115.238C44.7145 115.37 46.0889 112.245 49.7609 111.527C53.4458 110.812 55.3083 110.131 57.1412 108.318C57.1412 108.318 57.8166 106.563 55.2137 106.382L47.4845 105.635C47.4845 105.635 48.0668 103.386 53.3206 101.138C58.5589 98.8906 63.0724 97.8465 63.0724 97.8465L65.8938 100.356L68.3171 110.699L67.1856 113.051Z" fill="white"/>
<path fill-rule="evenodd" clip-rule="evenodd" d="M67.6586 113.283C67.6074 113.385 67.5305 113.472 67.4305 113.524C67.4305 113.524 60.8538 116.896 57.1034 116.586C53.4917 116.288 50.2774 115.638 47.5235 115.77C46.6175 115.812 46.0679 115.541 45.7748 115.179C45.5435 114.89 45.4429 114.524 45.5168 114.113C45.5804 113.649 45.8877 113.1 46.4081 112.592C47.1105 111.919 48.2185 111.289 49.6735 111.008C53.1402 110.334 54.9387 109.709 56.6717 108.035C56.6946 107.904 56.7199 107.661 56.5811 107.44C56.3882 107.161 55.967 106.967 55.1764 106.911C55.1764 106.911 55.1636 106.911 55.1636 106.909L47.4343 106.165C47.3582 106.156 47.2846 106.132 47.2186 106.093C47.1527 106.054 47.0957 106.002 47.0516 105.94C46.9616 105.811 46.9229 105.65 46.974 105.501C46.974 105.501 47.533 103.039 53.1151 100.652C58.4048 98.3842 62.9439 97.3297 62.9439 97.3297C63.1107 97.291 63.2904 97.3344 63.4164 97.4496L66.2532 99.9588C66.3277 100.031 66.392 100.128 66.4178 100.236L68.8282 110.579C68.854 110.696 68.8413 110.82 68.7901 110.93L67.6586 113.283ZM66.7775 112.661L67.7579 110.639L65.4122 100.642L62.9222 98.4297C61.8882 98.6874 57.9727 99.7206 53.5245 101.629C50.2229 103.043 48.8592 104.427 48.3263 105.184L55.2521 105.852C56.5407 105.943 57.1547 106.398 57.4607 106.847C57.9853 107.615 57.6399 108.511 57.6399 108.511C57.6143 108.58 57.5631 108.644 57.5144 108.695C55.6148 110.577 53.6907 111.308 49.8647 112.051C48.2327 112.369 47.0864 113.191 46.6793 113.95C46.5641 114.166 46.4873 114.361 46.5902 114.507C46.6416 114.568 46.7186 114.609 46.8188 114.642C46.9857 114.701 47.2013 114.721 47.4708 114.708C50.2632 114.574 53.5289 115.224 57.1894 115.529C60.4058 115.794 65.7976 113.159 66.7775 112.661Z" fill="#18181B"/>
<path fill-rule="evenodd" clip-rule="evenodd" d="M203.224 51.9447C203.224 51.9447 208.186 52.3413 215.346 55.775C222.518 59.2084 229.136 68.3066 239.829 101.675L138.786 101.803C138.786 101.803 124.816 108.433 107.474 111.337C90.1323 114.241 77.0597 115.932 73.7392 112.551C73.7392 112.551 69.5828 113.839 68.2325 113.697C66.8925 113.555 66.0344 110.884 65.4444 109.121C64.8441 107.358 62.6511 98.3631 63.2632 97.3059C63.8727 96.2488 69.8792 94.5837 69.8792 94.5837C69.8792 94.5837 70.3722 92.6667 72.5009 91.3963C75.6248 89.5283 113.29 80.5258 112.87 81.3635C112.87 81.3635 131.352 62.7757 141.164 55.8689L203.224 51.9447Z" fill="white"/>
<path fill-rule="evenodd" clip-rule="evenodd" d="M112.702 80.7741C114.778 78.6997 131.633 61.9208 140.857 55.4312C140.934 55.3749 141.024 55.3418 141.127 55.3352L203.184 51.4112C203.21 51.4099 203.235 51.4099 203.261 51.4111C203.261 51.4111 208.3 51.8073 215.574 55.2932C219.237 57.0444 222.761 60.2241 226.724 67.2346C230.623 74.1291 234.972 84.7755 240.325 101.509C240.376 101.67 240.351 101.847 240.249 101.983C240.147 102.119 239.995 102.202 239.829 102.202L138.902 102.33C137.563 102.952 124.09 109.087 107.564 111.856C95.3724 113.897 85.2743 115.336 79.1752 114.854C76.598 114.652 74.7108 114.088 73.6008 113.143C72.5924 113.437 69.3544 114.343 68.1813 114.222C67.5036 114.151 66.8792 113.618 66.3802 112.806C65.7784 111.807 65.3068 110.379 64.9333 109.287C64.4489 107.86 62.9345 101.752 62.6639 98.816C62.6118 98.2545 62.6113 97.8007 62.6494 97.4981C62.6877 97.298 62.7388 97.1441 62.8028 97.0363C62.9027 96.8593 63.0949 96.6565 63.4001 96.4587C63.7309 96.2326 64.2029 95.9935 64.7519 95.7595C66.3834 95.0523 68.69 94.3715 69.4674 94.1464C69.7104 93.5115 70.4349 92.0108 72.22 90.937C72.8048 90.5922 74.5263 89.999 76.9611 89.2798C86.498 86.4759 107.182 81.5546 111.847 80.8618C112.242 80.8041 112.538 80.7755 112.702 80.7741ZM112.652 81.8418C112.526 81.8509 112.27 81.8731 112.003 81.9129C107.348 82.6029 86.756 87.5064 77.2705 90.2986C74.9485 90.9795 73.3167 91.5205 72.7704 91.8473C70.8571 92.9941 70.3999 94.7121 70.3999 94.7121C70.3488 94.8971 70.2103 95.0424 70.0307 95.0913C70.0307 95.0913 67.1237 95.895 65.1741 96.7359C64.6892 96.9391 64.2814 97.1422 63.989 97.34C63.8608 97.4222 63.7582 97.4915 63.7198 97.5659C63.6711 97.6455 63.6842 97.7968 63.6844 97.9993C63.685 98.4737 63.7603 99.1377 63.8768 99.9067C64.3401 102.993 65.5319 107.725 65.9416 108.948C66.2868 109.97 66.7223 111.316 67.2984 112.254C67.5916 112.733 67.8847 113.122 68.2929 113.165C69.5815 113.299 73.5865 112.04 73.5865 112.04C73.7636 111.984 73.9818 112.035 74.1206 112.178C74.5935 112.662 75.3101 113.02 76.2139 113.288C77.6826 113.722 79.6592 113.899 82.0564 113.886C88.178 113.85 97.016 112.547 107.383 110.808C124.651 107.917 138.557 101.32 138.557 101.32C138.634 101.286 138.711 101.268 138.785 101.268L239.1 101.141C233.863 84.9031 229.628 74.5152 225.806 67.7568C221.997 61.0189 218.625 57.9332 215.116 56.2507C208.416 53.0356 203.67 52.5168 203.211 52.474L141.344 56.3862C131.532 63.3427 113.252 81.7341 113.252 81.7341C113.086 81.8948 112.845 81.9346 112.652 81.8418ZM112.371 81.1722C112.358 81.2168 112.346 81.2599 112.346 81.3019C112.346 81.2589 112.358 81.2142 112.371 81.1722Z" fill="#18181B"/>
<path fill-rule="evenodd" clip-rule="evenodd" d="M184.096 64.9477C184.096 64.9477 184.998 82.5425 185.286 88.2223C185.338 89.1907 184.599 90.0211 183.63 90.0885C183.404 90.1044 183.177 90.075 182.962 90.0022C182.747 89.9294 182.549 89.8146 182.379 89.6645C182.209 89.5142 182.071 89.3317 181.972 89.1275C181.873 88.9234 181.816 88.7017 181.804 88.4752C181.504 82.8387 180.563 65.4057 180.563 65.4057L184.096 64.9477ZM153.751 64.2938C153.751 64.2938 154.654 81.8887 154.943 87.5685C154.993 88.5366 154.255 89.367 153.287 89.4347C153.061 89.4506 152.834 89.4213 152.619 89.3485C152.405 89.2757 152.207 89.1608 152.037 89.0106C151.866 88.8607 151.728 88.6782 151.629 88.474C151.53 88.2698 151.473 88.0479 151.46 87.8214C151.161 82.1849 150.22 64.7519 150.22 64.7519L153.751 64.2938Z" fill="#18181B"/>
<path fill-rule="evenodd" clip-rule="evenodd" d="M180.219 24.5302C180.219 24.5302 186.762 24.368 190.833 26.1518C194.891 27.9351 197.382 31.2979 198.845 38.5762C198.845 38.5762 203.961 39.1035 205.253 42.7408C206.546 46.3769 207.626 52.907 207.626 52.907C207.626 52.907 204.244 51.5964 203.544 52.266C179.391 75.5258 152.936 74.9476 141.067 57.9323C140.002 56.3986 139.399 54.5933 139.326 52.7286C139.254 50.8639 139.716 49.0173 140.658 47.406L140.658 47.4034C142.871 43.6278 148.149 30.4125 180.219 24.5302Z" fill="#FAA81A"/>
<path fill-rule="evenodd" clip-rule="evenodd" d="M215.352 61.1089C215.352 61.1089 205.563 66.3656 205.667 77.852C205.771 89.541 207.685 99.7849 207.685 99.7849C207.709 99.9245 207.677 100.068 207.596 100.184C207.515 100.301 207.391 100.38 207.252 100.406C206.971 100.46 206.69 100.268 206.639 99.981C206.639 99.981 204.7 89.6493 204.596 77.861C204.491 65.7236 214.841 60.1728 214.841 60.1728C215.108 60.0351 215.427 60.1313 215.568 60.3899C215.709 60.6484 215.607 60.9696 215.352 61.1089ZM140.628 67.1791L139.237 99.3049C139.224 99.5972 138.983 99.8232 138.688 99.8107C138.396 99.8008 138.167 99.5524 138.177 99.2575L139.568 67.1335C139.571 67.0641 139.587 66.9958 139.615 66.9326C139.644 66.8695 139.685 66.8127 139.737 66.7655C139.788 66.7184 139.847 66.6818 139.913 66.658C139.978 66.6341 140.047 66.6235 140.117 66.6267C140.258 66.6331 140.39 66.6947 140.486 66.7981C140.582 66.9014 140.633 67.0383 140.628 67.1791ZM70.9518 96.712C70.9518 96.712 72.4924 105.292 73.6714 110.08C73.736 110.365 73.5721 110.652 73.2795 110.722C72.9973 110.791 72.7173 110.617 72.64 110.333C71.4609 105.521 69.9074 96.9004 69.9074 96.9004C69.8947 96.8316 69.8958 96.7609 69.9106 96.6925C69.9255 96.624 69.9537 96.5592 69.9937 96.5017C70.0337 96.4442 70.0847 96.3952 70.1438 96.3575C70.2028 96.3198 70.2688 96.2941 70.3378 96.282C70.6329 96.2303 70.9001 96.4248 70.9518 96.712Z" fill="#18181B"/>
<path fill-rule="evenodd" clip-rule="evenodd" d="M173.958 67.1811L175.124 101.76L159.576 101.78L157.835 67.2015L173.958 67.1811Z" fill="#FAA81A"/>
<path fill-rule="evenodd" clip-rule="evenodd" d="M173.924 69.9208C168.364 70.9778 162.982 71.0584 157.826 69.9793C157.534 69.9184 157.356 69.6371 157.407 69.3504C157.437 69.2119 157.521 69.0909 157.64 69.0138C157.76 68.9368 157.904 68.91 158.043 68.9393C163.07 69.9907 168.312 69.9061 173.731 68.8774C174.012 68.8222 174.292 69.0118 174.344 69.2997C174.408 69.5876 174.217 69.8655 173.924 69.9208Z" fill="#18181B"/>
<path fill-rule="evenodd" clip-rule="evenodd" d="M177.063 41.0369C177.063 41.0369 179.939 45.5858 181.51 47.7496C181.51 47.7496 178.516 50.2826 172.447 51.8703L173.301 41.0416L177.063 41.0369Z" fill="white"/>
<path fill-rule="evenodd" clip-rule="evenodd" d="M177.062 40.5102C177.254 40.51 177.419 40.6028 177.522 40.7581C177.522 40.7581 180.371 45.2867 181.943 47.4406C182.023 47.5489 182.059 47.6839 182.042 47.8176C182.026 47.9513 181.959 48.0737 181.855 48.1595C181.855 48.1595 178.797 50.7625 172.588 52.3873C172.506 52.4091 172.421 52.4107 172.339 52.3922C172.256 52.3736 172.18 52.3353 172.116 52.2807C171.975 52.1714 171.911 52.0033 171.924 51.8325L172.777 41.0038C172.79 40.7284 173.019 40.5153 173.3 40.515L177.062 40.5102ZM176.77 41.5721L173.798 41.5759L173.045 51.1621C177.291 49.9503 179.853 48.3071 180.783 47.6447C179.403 45.6931 177.345 42.4837 176.77 41.5721Z" fill="#18181B"/>
<path fill-rule="evenodd" clip-rule="evenodd" d="M171.744 30.415C171.744 30.415 174.546 27.455 178.655 29.0724C182.752 30.69 182.464 35.247 181.637 37.3275C180.798 39.409 177.638 41.5118 175.049 42.185C175.049 42.185 175.428 49.116 171.774 54.0237C168.119 58.9311 159.323 62.6501 149.843 59.0804C146.014 57.6442 143.945 55.2781 142.36 52.3981C140.788 49.5155 136.313 41.8074 136.313 41.8074L138.287 19.9149L160.526 14.7227L169.793 30.4174L171.744 30.415Z" fill="white"/>
<path fill-rule="evenodd" clip-rule="evenodd" d="M171.525 29.8846C172.226 29.2478 175.016 27.0691 178.845 28.5789C183.298 30.3348 183.037 35.2656 182.134 37.5246C181.295 39.6203 178.249 41.7649 175.597 42.5836C175.599 44.1928 175.415 50.0261 172.194 54.3406C168.438 59.3874 159.412 63.2493 149.65 59.5779C145.695 58.0885 143.536 55.6398 141.9 52.6526C140.315 49.7736 135.852 42.0732 135.852 42.0732C135.801 41.9792 135.778 41.8695 135.79 41.76L137.752 19.8677C137.764 19.7553 137.811 19.6496 137.886 19.5654C137.962 19.4812 138.062 19.4227 138.172 19.3982L160.396 14.206C160.626 14.1534 160.855 14.2533 160.983 14.4529L170.096 29.8864L171.525 29.8846ZM172.125 30.7797C172.076 30.8315 172.017 30.8729 171.951 30.9015C171.885 30.9301 171.815 30.9452 171.743 30.9461L169.792 30.9485C169.614 30.9488 169.435 30.8495 169.345 30.6876L160.257 15.3287L138.784 20.3448C138.784 20.3448 137.038 39.6815 136.86 41.6873C137.488 42.7619 141.372 49.492 142.831 52.143C144.351 54.9187 146.343 57.2008 150.018 58.5838C159.245 62.0529 167.799 58.4746 171.351 53.7074C174.891 48.9437 174.526 42.2142 174.526 42.2142C174.519 42.0924 174.555 41.9721 174.627 41.8734C174.698 41.7748 174.802 41.7037 174.92 41.6722C176.399 41.2854 178.082 40.4054 179.369 39.3361C180.184 38.6522 180.833 37.8932 181.138 37.1308C181.901 35.2275 182.202 31.0456 178.45 29.5668C174.699 28.0862 172.125 30.7797 172.125 30.7797Z" fill="#18181B"/>
<path fill-rule="evenodd" clip-rule="evenodd" d="M171.756 30.345C171.756 30.345 171.939 34.0944 171.252 35.0179C170.564 35.9426 166.921 29.4034 165.642 26.6756C165.642 26.6756 162.03 25.0099 159.949 22.7372C157.866 20.4645 155.748 19.9992 154.415 23.3757C154.415 23.3757 150.022 19.9616 147.166 20.3842C144.297 20.807 143.917 23.2052 143.63 27.5435C143.327 31.882 143.017 38.3167 136.377 41.7922L140.364 48.6943C140.364 48.6943 132.991 47.7252 129.919 38.1817L128.403 40.4657C128.403 40.4657 123.278 20.9542 132.804 9.61581C142.343 -1.72257 157.599 0.165769 162.373 3.55841C162.373 3.55841 173.365 2.00039 178.136 12.223C182.906 22.4458 181.362 31.2746 181.362 31.2746C181.362 31.2746 177.809 25.8471 171.756 30.345Z" fill="#18181B"/>
<path fill-rule="evenodd" clip-rule="evenodd" d="M178.734 32.109C178.734 32.109 176.275 33.8641 174.226 37.2433C174.19 37.3031 174.143 37.3552 174.087 37.3966C174.031 37.438 173.967 37.4679 173.9 37.4846C173.832 37.5013 173.762 37.5043 173.693 37.4937C173.624 37.483 173.558 37.4588 173.499 37.4225C173.439 37.3869 173.386 37.3397 173.345 37.2836C173.303 37.2276 173.273 37.1638 173.256 37.0959C173.239 37.0281 173.236 36.9576 173.247 36.8886C173.258 36.8196 173.283 36.7534 173.319 36.694C175.496 33.102 178.121 31.2431 178.121 31.2431C178.363 31.0735 178.695 31.1298 178.861 31.3688C179.027 31.6078 178.976 31.9394 178.734 32.109Z" fill="#18181B"/>
<path fill-rule="evenodd" clip-rule="evenodd" d="M178.181 36.3457C178.181 36.3457 176.445 35.5733 175.195 35.3531C175.125 35.3433 175.057 35.3195 174.996 35.2831C174.935 35.2467 174.882 35.1985 174.84 35.1412C174.798 35.084 174.768 35.0189 174.752 34.9498C174.735 34.8808 174.733 34.8091 174.745 34.7392C174.757 34.6692 174.783 34.6024 174.821 34.5426C174.859 34.4828 174.909 34.4312 174.967 34.391C175.026 34.3508 175.092 34.3227 175.162 34.3085C175.231 34.2942 175.303 34.2941 175.373 34.308C176.725 34.546 178.613 35.3757 178.613 35.3757C178.881 35.4951 178.997 35.8083 178.882 36.0774C178.755 36.3437 178.449 36.4651 178.181 36.3457ZM151.763 44.186L152.395 48.7134C152.407 48.7821 152.404 48.8524 152.388 48.9201C152.372 48.9878 152.342 49.0515 152.3 49.1074C152.258 49.1632 152.206 49.2101 152.146 49.2452C152.086 49.2803 152.019 49.3029 151.95 49.3116C151.88 49.3218 151.81 49.3181 151.742 49.3009C151.674 49.2836 151.611 49.2531 151.555 49.2111C151.499 49.1691 151.452 49.1165 151.416 49.0562C151.381 48.996 151.358 48.9293 151.348 48.8601L150.719 44.3325C150.68 44.042 150.883 43.773 151.162 43.7332C151.232 43.7231 151.302 43.7268 151.37 43.7441C151.438 43.7615 151.502 43.7921 151.558 43.8342C151.613 43.8763 151.66 43.9291 151.696 43.9895C151.731 44.0499 151.754 44.1167 151.763 44.186ZM159.465 32.1692C159.465 32.1692 154.986 30.6759 152.619 34.9281C152.586 34.9887 152.542 35.0422 152.488 35.0855C152.434 35.1287 152.372 35.1608 152.306 35.18C152.239 35.1992 152.17 35.205 152.101 35.1971C152.033 35.1892 151.966 35.1678 151.906 35.1341C151.649 34.9919 151.546 34.6684 151.7 34.4121C154.486 29.3768 159.795 31.1626 159.795 31.1626C159.929 31.2069 160.041 31.3022 160.105 31.428C160.17 31.5538 160.182 31.6999 160.14 31.8348C160.038 32.1126 159.746 32.2627 159.465 32.1692ZM145.581 36.8688C145.581 36.8688 143.768 36.2901 141.896 36.8747C141.613 36.9615 141.308 36.8052 141.217 36.5264C141.143 36.2462 141.294 35.9478 141.576 35.8608C143.767 35.1752 145.911 35.8566 145.911 35.8566C145.978 35.8778 146.039 35.9118 146.093 35.9568C146.146 36.0018 146.19 36.0569 146.222 36.1189C146.254 36.1808 146.273 36.2485 146.279 36.318C146.285 36.3875 146.277 36.4574 146.256 36.5238C146.166 36.8029 145.861 36.9574 145.581 36.8688Z" fill="#18181B"/>
<path d="M156.274 40.3582C156.071 40.3584 155.87 40.3188 155.683 40.2416C155.496 40.1643 155.326 40.0509 155.182 39.9079C155.039 39.7649 154.925 39.5951 154.847 39.4082C154.77 39.2212 154.729 39.0208 154.729 38.8184C154.729 38.4097 154.891 38.0175 155.18 37.7281C155.469 37.4388 155.861 37.2759 156.27 37.2754C156.679 37.2749 157.072 37.4367 157.361 37.7254C157.651 38.014 157.814 38.4057 157.814 38.8144C157.815 39.0169 157.775 39.2174 157.698 39.4045C157.621 39.5917 157.507 39.7618 157.364 39.9052C157.221 40.0485 157.051 40.1623 156.864 40.2401C156.677 40.3178 156.476 40.3579 156.274 40.3582ZM143.422 44.4803C143.22 44.4806 143.019 44.441 142.832 44.3637C142.645 44.2865 142.474 44.1731 142.331 44.0302C142.188 43.8872 142.074 43.7174 141.996 43.5305C141.918 43.3436 141.878 43.1432 141.878 42.9408C141.877 42.5321 142.039 42.1399 142.328 41.8505C142.617 41.5612 143.009 41.3983 143.419 41.3978C143.828 41.3973 144.22 41.5591 144.51 41.8478C144.8 42.1364 144.963 42.5282 144.963 42.9369C144.963 43.1393 144.924 43.3398 144.847 43.5269C144.769 43.714 144.656 43.8841 144.513 44.0274C144.37 44.1707 144.2 44.2845 144.013 44.3622C143.826 44.4399 143.625 44.4801 143.422 44.4803Z" fill="#18181B"/>
<path fill-rule="evenodd" clip-rule="evenodd" d="M188.788 34.2876C187.411 44.3044 182.125 50.1592 173.25 52.1787C172.97 52.2426 172.689 52.0648 172.625 51.7782C172.561 51.4926 172.739 51.2083 173.019 51.1431C181.435 49.2263 186.428 43.6492 187.729 34.1438C187.767 33.8533 188.047 33.6491 188.328 33.6895C188.468 33.7083 188.595 33.7817 188.682 33.8937C188.768 34.0058 188.806 34.1474 188.788 34.2876ZM154.313 52.6103C154.313 52.6103 159.027 52.8946 160.212 48.1752C160.228 48.1081 160.258 48.0448 160.298 47.9891C160.339 47.9334 160.391 47.8863 160.45 47.8507C160.509 47.815 160.575 47.7914 160.643 47.7813C160.711 47.7712 160.781 47.7748 160.848 47.7918C161.132 47.8633 161.314 48.1492 161.233 48.4362C159.846 54.0205 154.256 53.6678 154.256 53.6678C154.114 53.6599 153.982 53.5967 153.887 53.4919C153.792 53.387 153.743 53.2491 153.749 53.108C153.775 52.8133 154.018 52.5927 154.313 52.6103ZM318.317 135.642C320.128 135.64 321.6 137.107 321.602 138.915C321.605 140.722 320.136 142.193 318.326 142.196C316.515 142.198 315.043 140.731 315.041 138.923C315.038 137.115 316.507 135.644 318.317 135.642ZM318.319 136.703C317.095 136.705 316.102 137.699 316.104 138.922C316.105 140.145 317.1 141.136 318.324 141.134C319.548 141.133 320.541 140.139 320.539 138.916C320.538 137.693 319.543 136.702 318.319 136.703Z" fill="#18181B"/>
<path fill-rule="evenodd" clip-rule="evenodd" d="M52.2889 28.0694C53.5876 28.0677 54.6439 29.1202 54.6456 30.4202C54.6472 31.7176 53.5936 32.7728 52.2949 32.7745C50.9935 32.7761 49.9373 31.7236 49.9357 30.4262C49.9353 30.1171 49.9958 29.8109 50.1139 29.5252C50.2319 29.2394 50.4052 28.9798 50.6237 28.7609C50.8422 28.5421 51.1017 28.3683 51.3875 28.2497C51.6732 28.131 51.9795 28.0698 52.2889 28.0694ZM52.2902 29.1309C51.5767 29.1318 50.9974 29.712 50.9983 30.4248C50.9992 31.1351 51.58 31.7138 52.2935 31.7129C52.6357 31.7118 52.9635 31.5753 53.2052 31.3333C53.4469 31.0912 53.5827 30.7634 53.5829 30.4216C53.582 29.7087 53.0012 29.13 52.2902 29.1309Z" fill="#FAA81A"/>
<path fill-rule="evenodd" clip-rule="evenodd" d="M172.203 182.847C173.502 182.845 174.558 183.898 174.56 185.198C174.561 186.495 173.508 187.55 172.209 187.552C170.908 187.553 169.851 186.501 169.85 185.204C169.849 184.894 169.91 184.588 170.028 184.303C170.146 184.017 170.319 183.757 170.538 183.538C170.756 183.319 171.016 183.146 171.302 183.027C171.587 182.908 171.894 182.847 172.203 182.847ZM172.204 183.908C171.491 183.909 170.911 184.489 170.912 185.202C170.913 185.912 171.494 186.491 172.208 186.49C172.55 186.489 172.878 186.353 173.119 186.111C173.361 185.869 173.497 185.541 173.497 185.199C173.496 184.486 172.915 183.907 172.204 183.908Z" fill="#18181B"/>
<path fill-rule="evenodd" clip-rule="evenodd" d="M288.077 176.748L301.112 189.737C301.207 189.837 301.26 189.97 301.258 190.109C301.256 190.247 301.2 190.379 301.103 190.477C301.005 190.575 300.873 190.631 300.735 190.633C300.596 190.635 300.463 190.583 300.362 190.489L287.326 177.5C287.119 177.293 287.118 176.954 287.325 176.749C287.375 176.7 287.433 176.66 287.498 176.634C287.562 176.607 287.631 176.593 287.701 176.593C287.771 176.593 287.84 176.606 287.905 176.633C287.969 176.66 288.028 176.699 288.077 176.748ZM292.819 172.017L306.629 175.694C306.912 175.77 307.08 176.06 307.005 176.345C306.969 176.48 306.88 176.596 306.758 176.667C306.636 176.737 306.491 176.756 306.355 176.72L292.545 173.042C292.409 173.006 292.293 172.917 292.222 172.796C292.151 172.674 292.132 172.529 292.168 172.393C292.205 172.257 292.294 172.141 292.415 172.07C292.537 172 292.682 171.98 292.819 172.017ZM283.63 181.972L287.346 195.759C287.364 195.826 287.369 195.897 287.36 195.966C287.351 196.035 287.328 196.102 287.294 196.162C287.259 196.222 287.212 196.275 287.157 196.318C287.102 196.36 287.038 196.391 286.971 196.41C286.904 196.428 286.833 196.432 286.764 196.423C286.695 196.414 286.628 196.392 286.568 196.357C286.507 196.322 286.454 196.276 286.412 196.22C286.369 196.165 286.338 196.102 286.32 196.035L282.603 182.247C282.567 182.111 282.586 181.966 282.656 181.844C282.726 181.722 282.842 181.633 282.978 181.596C283.114 181.56 283.259 181.579 283.381 181.65C283.503 181.72 283.593 181.836 283.63 181.972Z" fill="#FAA81A"/>
<path fill-rule="evenodd" clip-rule="evenodd" d="M76.8445 78.3633L70.656 61.0336C70.6325 60.9678 70.6221 60.8981 70.6255 60.8284C70.629 60.7587 70.6461 60.6904 70.676 60.6273C70.7059 60.5643 70.748 60.5077 70.7998 60.461C70.8516 60.4142 70.9122 60.3781 70.978 60.3548C71.1108 60.3077 71.2569 60.3152 71.3843 60.3757C71.5116 60.4361 71.6098 60.5446 71.6573 60.6773L77.846 78.0068C77.8695 78.0725 77.8799 78.1422 77.8764 78.2119C77.873 78.2817 77.8558 78.35 77.8259 78.413C77.796 78.4761 77.7539 78.5326 77.7021 78.5794C77.6503 78.6261 77.5898 78.6622 77.524 78.6856C77.2495 78.7852 76.9434 78.64 76.8445 78.3633ZM70.5325 80.5968L59.6419 71.3416C59.5344 71.2504 59.4677 71.1203 59.4562 70.9799C59.4447 70.8396 59.4895 70.7005 59.5807 70.5932C59.6719 70.4859 59.802 70.4193 59.9424 70.4079C60.0829 70.3966 60.2221 70.4414 60.3296 70.5327L71.2202 79.7878C71.4447 79.9794 71.4701 80.315 71.282 80.5379C71.0915 80.7598 70.7547 80.7873 70.5325 80.5968ZM83.1066 75.5584L85.6758 61.5115C85.701 61.3732 85.7802 61.2506 85.8959 61.1707C86.0116 61.0908 86.1543 61.06 86.2927 61.0853C86.4313 61.1108 86.5542 61.1901 86.6345 61.3059C86.7148 61.4217 86.746 61.5645 86.7212 61.7031L84.1529 75.7482C84.1005 76.0384 83.8222 76.2299 83.5352 76.1761C83.2448 76.1235 83.0553 75.8463 83.1066 75.5584Z" fill="#18181B"/>
<path fill-rule="evenodd" clip-rule="evenodd" d="M261.763 51.5776C261.806 51.7106 261.854 51.8465 261.906 51.9854C262.802 54.3335 265.239 57.473 270.379 61.3332C270.492 61.4179 270.634 61.4543 270.773 61.4345C270.913 61.4147 271.039 61.3403 271.123 61.2277C271.208 61.115 271.244 60.9734 271.224 60.8339C271.204 60.6945 271.13 60.5686 271.017 60.484C266.613 57.177 264.258 54.4529 263.206 52.3102C264.045 52.5684 264.984 52.5897 266.032 52.2938C266.965 52.0291 267.632 51.2338 267.9 50.2741C268.292 48.8761 267.832 47.1643 266.245 46.4301C264.823 45.7734 262.772 46.2992 261.889 47.9781C261.617 48.4933 261.453 49.1226 261.463 49.8639C261.114 49.4677 260.799 49.0168 260.514 48.5378C258.64 45.3838 258.059 40.9415 258.059 40.9415C258.037 40.8052 257.962 40.683 257.852 40.6006C257.741 40.5182 257.602 40.4823 257.465 40.5002C257.328 40.5182 257.203 40.5888 257.118 40.697C257.032 40.8052 256.992 40.9425 257.005 41.0799C257.005 41.0799 257.626 45.7567 259.601 49.0801C260.196 50.0821 260.912 50.9612 261.763 51.5776ZM262.673 50.9009C263.531 51.4195 264.543 51.6112 265.742 51.2719C266.323 51.1075 266.71 50.5851 266.877 49.9873C267.139 49.0495 266.864 47.8859 265.799 47.3943C264.827 46.9449 263.433 47.3253 262.829 48.4728C262.509 49.0811 262.417 49.8921 262.673 50.9009Z" fill="#18181B"/>
<path fill-rule="evenodd" clip-rule="evenodd" d="M80.6653 191.43C80.7744 190.443 80.4781 189.571 79.9742 188.905C79.2209 187.911 77.9831 187.369 76.8231 187.53C75.0858 187.768 74.2356 189.32 74.2221 190.787C74.2156 191.795 74.6121 192.732 75.3083 193.196C76.2382 193.81 77.1111 194.047 77.9196 194.026C77.9633 194.026 78.0043 194.023 78.048 194.02C76.7482 195.271 74.5835 196.543 71.2252 197.688C71.0921 197.734 70.9827 197.831 70.9208 197.957C70.8589 198.084 70.8497 198.23 70.895 198.363C70.9407 198.496 71.0374 198.606 71.164 198.668C71.2906 198.731 71.4367 198.74 71.5704 198.695C76.1757 197.12 78.6527 195.276 79.8031 193.6C79.8441 193.541 79.8825 193.482 79.9209 193.423C80.339 193.177 80.7313 192.868 81.0953 192.514C83.1871 190.483 84.366 186.995 84.366 186.995C84.3884 186.929 84.3976 186.859 84.3929 186.789C84.3882 186.72 84.3698 186.652 84.3387 186.589C84.3076 186.527 84.2644 186.471 84.2117 186.426C84.159 186.38 84.0977 186.345 84.0315 186.323C83.7541 186.231 83.4515 186.38 83.3594 186.657C83.3594 186.657 82.398 189.535 80.6653 191.43ZM79.155 192.634C79.6365 191.783 79.7176 190.993 79.5217 190.326C79.1814 189.173 78.0332 188.433 76.9682 188.581C75.8083 188.741 75.2937 189.816 75.2847 190.796C75.2803 191.419 75.4659 192.024 75.8975 192.31C76.609 192.781 77.2741 192.98 77.8926 192.964C78.3418 192.953 78.7626 192.832 79.155 192.634Z" fill="#FAA81A"/>
</g>
<defs>
<clipPath id="clip0_3029_128460">
<rect width="314.789" height="200" fill="white" transform="matrix(-0.999999 0.00126682 0.00126682 0.999999 315.521 0.742188)"/>
</clipPath>
</defs>
</svg>
