<svg width="833" height="241" viewBox="0 0 833 241" fill="none" xmlns="http://www.w3.org/2000/svg">
<path d="M1.15797 91.0721C105.695 67.8122 203.881 32.3177 277.473 1.00002M0.999999 214.723C189.111 159.882 298.977 67.423 351.141 1.00002M0.999996 139.389C1.05266 139.378 1.10532 139.366 1.15797 139.355C138.719 109.278 250.184 49.4725 319.956 1.00002M183.402 240C332.611 179.911 378.363 74.9131 384.642 1.00001M772.201 240C802.058 146.642 659.763 58.6388 522.851 1.00001M564.9 240C628.957 158.661 550.472 64.6166 463.671 1.00001M380.943 240C458.482 173.114 507.638 109.187 426.533 1.00001M832 102.128C768.513 64.4695 671.696 29.2907 576.952 1.00001M832 47.7321C780.335 32.3912 711.226 15.9239 642.71 1M832 7.27564C819.341 5.18631 806.068 3.09077 792.325 0.999996M1.15797 40.6708C71.0226 34.3879 148.152 18.4724 216.566 1.00002" stroke="url(#paint0_linear_1276_110906)"/>
<defs>
<linearGradient id="paint0_linear_1276_110906" x1="22.5199" y1="1.00003" x2="778.699" y2="483.135" gradientUnits="userSpaceOnUse">
<stop stop-color="#F4F4F5"/>
<stop offset="1" stop-color="#F4F4F5" stop-opacity="0"/>
</linearGradient>
</defs>
</svg>
