<svg width="438" height="240" viewBox="0 0 438 240" fill="none" xmlns="http://www.w3.org/2000/svg">
<path d="M42.5866 180.969L61.3533 144.189C61.5029 143.896 61.7394 143.656 62.0304 143.502L75.3282 136.469L75.1416 136.116L75.3282 136.469C75.9346 136.148 76.678 136.249 77.1762 136.721L86.4089 145.461C86.8148 145.846 86.9908 146.414 86.8731 146.96L77.1396 192.154C76.8285 193.598 74.8929 193.885 74.1763 192.593L66.4468 178.656C65.9006 177.671 64.743 177.198 63.6636 177.519L44.468 183.23C43.1198 183.631 41.9472 182.222 42.5866 180.969Z" fill="#FE3F34" stroke="#18181B" stroke-width="0.8"/>
<path d="M136.413 180.969L117.647 144.189C117.497 143.896 117.261 143.656 116.97 143.502L103.672 136.469L103.858 136.116L103.672 136.469C103.065 136.148 102.322 136.249 101.824 136.721L92.5911 145.461C92.1852 145.846 92.0092 146.414 92.1269 146.96L101.86 192.154C102.171 193.598 104.107 193.885 104.824 192.593L112.553 178.656C113.099 177.671 114.257 177.198 115.336 177.519L134.532 183.23C135.88 183.631 137.053 182.222 136.413 180.969Z" fill="#FE3F34" stroke="#18181B" stroke-width="0.8"/>
<path d="M85.6231 44.7182C87.7897 42.6395 91.2103 42.6395 93.3769 44.7182L102.077 53.0653C103.493 54.4238 105.454 55.0576 107.397 54.785L119.383 53.1037C122.369 52.6849 125.15 54.7051 125.675 57.674L127.75 69.4048C128.095 71.3531 129.321 73.0325 131.072 73.9539L141.681 79.5362C144.367 80.9496 145.439 84.2454 144.097 86.9679L138.849 97.6148C137.969 99.3987 137.969 101.49 138.849 103.274L144.097 113.921C145.439 116.643 144.367 119.939 141.681 121.352L131.072 126.935C129.321 127.856 128.095 129.536 127.75 131.484L125.675 143.215C125.15 146.184 122.369 148.204 119.383 147.785L107.397 146.104C105.454 145.831 103.493 146.465 102.077 147.823L93.3769 156.17C91.2103 158.249 87.7897 158.249 85.6231 156.17L76.9228 147.823C75.5069 146.465 73.5461 145.831 71.6029 146.104L59.6168 147.785C56.631 148.204 53.8496 146.184 53.3245 143.215L51.2496 131.484C50.905 129.536 49.6786 127.856 47.9277 126.935L37.3186 121.352C34.6326 119.939 33.5615 116.643 34.9034 113.921L40.1513 103.274C41.0306 101.49 41.0306 99.3987 40.1513 97.6148L34.9034 86.9679C33.5615 84.2454 34.6326 80.9496 37.3186 79.5362L47.9277 73.9539C49.6786 73.0325 50.905 71.3531 51.2496 69.4048L53.3245 57.674C53.8496 54.7051 56.6311 52.6849 59.6168 53.1037L71.6029 54.785C73.5461 55.0576 75.5069 54.4238 76.9228 53.0653L85.6231 44.7182Z" fill="#FAA81A" stroke="#18181B" stroke-width="0.8"/>
<path d="M127.6 100.444C127.6 121.205 110.547 138.044 89.5 138.044C68.453 138.044 51.4 121.205 51.4 100.444C51.4 79.6833 68.453 62.8443 89.5 62.8443C110.547 62.8443 127.6 79.6833 127.6 100.444Z" fill="#196CFA" stroke="#18181B" stroke-width="0.8"/>
<path d="M122.6 100.444C122.6 118.443 107.786 133.044 89.5 133.044C71.2137 133.044 56.4 118.443 56.4 100.444C56.4 82.4455 71.2137 67.8443 89.5 67.8443C107.786 67.8443 122.6 82.4455 122.6 100.444Z" fill="white" stroke="#18181B" stroke-width="0.8"/>
<path d="M87.9803 82.37C88.4616 80.9008 90.5399 80.9008 91.0213 82.37L94.1027 91.7752C94.4257 92.7612 95.3458 93.4279 96.3834 93.4279H106.319C107.873 93.4279 108.515 95.4181 107.255 96.326L99.245 102.097C98.3968 102.709 98.0418 103.798 98.3673 104.792L101.433 114.151C101.916 115.622 100.234 116.852 98.9777 115.947L90.9038 110.129C90.0659 109.526 88.9357 109.526 88.0978 110.129L80.0239 115.947C78.7674 116.852 77.0859 115.622 77.5681 114.151L80.6343 104.792C80.9598 103.798 80.6047 102.709 79.7566 102.097L71.7468 96.326C70.4866 95.4181 71.1289 93.4279 72.6821 93.4279H82.6182C83.6558 93.4279 84.5759 92.7612 84.8989 91.7752L87.9803 82.37Z" fill="#FAA81A" stroke="#18181B" stroke-width="0.8"/>
<path d="M172 101.594H211.913C212.686 101.594 213.313 100.968 213.313 100.194V94.7877C213.313 94.2593 213.947 93.9889 214.328 94.3545L225.97 105.511C226.216 105.747 226.216 106.141 225.97 106.378L214.328 117.534C213.947 117.9 213.313 117.629 213.313 117.101V111.694C213.313 110.921 212.686 110.294 211.913 110.294H172C171.669 110.294 171.4 110.026 171.4 109.694V102.194C171.4 101.863 171.669 101.594 172 101.594Z" fill="white" stroke="#18181B" stroke-width="0.8"/>
<path d="M185 122.593L224.913 122.593C225.686 122.593 226.313 121.967 226.313 121.193L226.313 115.787C226.313 115.258 226.947 114.988 227.328 115.354L238.97 126.51C239.216 126.746 239.216 127.14 238.97 127.377L227.328 138.533C226.947 138.899 226.313 138.628 226.313 138.1L226.313 132.693C226.313 131.92 225.686 131.293 224.913 131.293L185 131.293C184.669 131.293 184.4 131.025 184.4 130.693L184.4 123.193C184.4 122.862 184.669 122.593 185 122.593Z" fill="#FAA81A" stroke="#18181B" stroke-width="0.8"/>
<path d="M407.5 119.444C407.5 135.314 402.181 149.941 393.229 161.64C385.861 171.269 376.032 178.915 364.683 183.638C356.468 187.057 347.455 188.944 338 188.944C328.545 188.944 319.532 187.057 311.317 183.638C299.968 178.915 290.139 171.269 282.771 161.64C273.819 149.941 268.5 135.314 268.5 119.444C268.5 103.574 273.819 88.9477 282.771 77.2482C290.139 67.6193 299.968 59.9737 311.317 55.2508C319.532 51.8321 328.545 49.9443 338 49.9443C347.455 49.9443 356.468 51.8321 364.683 55.2508C376.032 59.9737 385.861 67.6193 393.229 77.2482C402.181 88.9477 407.5 103.574 407.5 119.444Z" fill="#FAA81A" stroke="#18181B"/>
<rect x="283.4" y="99.8443" width="109.2" height="39.2" fill="#196CFA" stroke="#18181B" stroke-width="0.8"/>
<rect x="289.4" y="105.844" width="97.2" height="27.2" fill="white" stroke="#18181B" stroke-width="0.8"/>
<path d="M309.81 127.13L309.916 127.489H310.29H314.068H314.439L314.547 127.134L316.597 120.395L318.647 127.134L318.754 127.489H319.125H322.903H323.277L323.383 127.13L327.534 113.055L331.685 127.13L331.791 127.489H332.165H335.943H336.314L336.422 127.134L338.472 120.395L340.522 127.134L340.629 127.489H341H344.778H345.152L345.258 127.13L349.409 113.055L353.56 127.13L353.666 127.489H354.04H357.818H358.189L358.297 127.134L360.347 120.395L362.397 127.134L362.504 127.489H362.875H366.653H367.027L367.133 127.13L371.423 112.585L371.612 111.943H370.943H366.54H366.138L366.052 112.335L364.458 119.53L362.563 112.316L362.465 111.943H362.08H358.614H358.228L358.13 112.316L356.235 119.507L354.642 112.335L354.554 111.943H354.153H349.75H349.737H349.081H349.068H344.665H344.263L344.177 112.335L342.583 119.53L340.688 112.316L340.59 111.943H340.205H336.739H336.353L336.255 112.316L334.36 119.507L332.767 112.335L332.679 111.943H332.278H327.875H327.862H327.206H327.193H322.79H322.388L322.302 112.335L320.708 119.53L318.813 112.316L318.715 111.943H318.33H314.864H314.478L314.38 112.316L312.485 119.507L310.892 112.335L310.804 111.943H310.403H306H305.331L305.52 112.585L309.81 127.13Z" fill="#FAA81A" stroke="#18181B"/>
<g opacity="0.6">
<path fill-rule="evenodd" clip-rule="evenodd" d="M419.973 195.677V199.778C419.973 200.135 420.233 200.428 420.563 200.428C420.892 200.431 421.161 200.144 421.164 199.788C421.164 199.784 421.164 199.781 421.164 199.781V195.68C421.167 195.324 420.901 195.033 420.571 195.03C420.568 195.03 420.568 195.03 420.566 195.03C420.236 195.027 419.973 195.321 419.973 195.677ZM419.973 204.423V208.524C419.973 208.88 420.233 209.174 420.563 209.174C420.892 209.177 421.161 208.89 421.164 208.533C421.164 208.53 421.164 208.53 421.164 208.527V204.426C421.167 204.07 420.901 203.779 420.571 203.776C420.568 203.776 420.568 203.776 420.566 203.776C420.236 203.773 419.973 204.067 419.973 204.423ZM426.515 201.46H422.72C422.391 201.46 422.119 201.741 422.119 202.097C422.119 202.463 422.391 202.748 422.72 202.748H426.515C426.845 202.751 427.114 202.463 427.114 202.107C427.114 202.104 427.114 202.104 427.114 202.101C427.116 201.744 426.845 201.46 426.515 201.46ZM418.408 201.46H414.613C414.284 201.46 414.012 201.741 414.012 202.097C414.012 202.463 414.284 202.748 414.613 202.748H418.408C418.738 202.751 419.007 202.463 419.01 202.107C419.01 202.104 419.01 202.104 419.01 202.101C419.01 201.744 418.738 201.46 418.408 201.46Z" fill="#196CFA"/>
<path fill-rule="evenodd" clip-rule="evenodd" d="M307.822 221.648C306.29 221.645 305.046 222.989 305.043 224.646C305.043 224.649 305.043 224.652 305.043 224.655C305.043 226.309 306.292 227.64 307.822 227.64C309.352 227.64 310.585 226.306 310.585 224.655C310.585 222.983 309.352 221.648 307.822 221.648ZM307.822 222.946C308.693 222.946 309.387 223.715 309.387 224.655C309.387 225.593 308.693 226.346 307.822 226.346C306.955 226.346 306.24 225.596 306.24 224.655C306.24 223.715 306.955 222.946 307.822 222.946Z" fill="white"/>
<path fill-rule="evenodd" clip-rule="evenodd" d="M36.9634 197.244C34.988 197.241 33.3857 198.97 33.3828 201.101C33.3828 201.104 33.3828 201.107 33.3828 201.114C33.3828 203.255 34.9822 205.002 36.9634 205.002C38.9446 205.002 40.5614 203.255 40.5614 201.114C40.5585 198.973 38.9446 197.244 36.9634 197.244ZM36.9634 198.541C38.2852 198.541 39.3611 199.685 39.3611 201.114C39.3611 202.542 38.2852 203.705 36.9634 203.705C35.6417 203.705 34.5831 202.539 34.5831 201.114C34.5802 199.698 35.6388 198.544 36.949 198.541C36.9518 198.538 36.9576 198.538 36.9634 198.541Z" fill="white"/>
<path fill-rule="evenodd" clip-rule="evenodd" d="M263.234 -4.35296V1.40457C263.234 1.75778 263.506 2.05159 263.832 2.05159C264.171 2.05159 264.431 1.75778 264.431 1.40457V-4.35296C264.431 -4.71866 264.174 -4.99997 263.832 -4.99997C263.506 -5.0031 263.237 -4.71554 263.234 -4.36234C263.234 -4.35921 263.234 -4.35608 263.234 -4.35296ZM263.234 7.91539V13.6698C263.234 14.023 263.506 14.3168 263.832 14.3168C264.171 14.3168 264.431 14.023 264.431 13.6698V7.91539C264.431 7.54969 264.174 7.26837 263.832 7.26837C263.506 7.26525 263.237 7.55281 263.234 7.90602C263.234 7.91227 263.234 7.91539 263.234 7.91539ZM272.177 4.00203H266.852C266.522 4.00515 266.256 4.29271 266.253 4.64904C266.253 5.01474 266.525 5.29606 266.852 5.29606H272.177C272.515 5.29606 272.775 5.01787 272.775 4.64904C272.778 4.29583 272.512 4.00515 272.185 4.00203C272.182 4.00203 272.179 4.00203 272.177 4.00203ZM260.81 4.00203H255.485C255.156 4.00515 254.89 4.29271 254.887 4.64904C254.887 5.01474 255.159 5.29606 255.485 5.29606H260.81C261.148 5.29606 261.409 5.01787 261.409 4.64904C261.412 4.29583 261.146 4.00515 260.819 4.00203C260.813 4.00203 260.81 4.00203 260.81 4.00203Z" fill="#196CFA"/>
<path fill-rule="evenodd" clip-rule="evenodd" d="M6.94161 53.9333V58.6841C6.94161 58.9756 7.16771 59.218 7.4395 59.218C7.72092 59.218 7.93739 58.9756 7.93739 58.6841V53.9333C7.93739 53.6316 7.72332 53.3994 7.4395 53.3994C7.16771 53.3969 6.94401 53.6341 6.94161 53.9256C6.94161 53.9282 6.94161 53.9307 6.94161 53.9333ZM6.94161 64.0565V68.8048C6.94161 69.0962 7.16771 69.3386 7.4395 69.3386C7.72092 69.3386 7.93739 69.0962 7.93739 68.8048V64.0565C7.93739 63.7548 7.72332 63.5226 7.4395 63.5226C7.16771 63.5201 6.94401 63.7573 6.94161 64.0488C6.94161 64.0539 6.94161 64.0565 6.94161 64.0565ZM14.3787 60.8274H9.9506C9.6764 60.83 9.45512 61.0673 9.45271 61.3613C9.45271 61.6631 9.67881 61.8952 9.9506 61.8952H14.3787C14.6601 61.8952 14.8766 61.6656 14.8766 61.3613C14.879 61.0699 14.6577 60.83 14.3859 60.8274C14.3835 60.8274 14.3811 60.8274 14.3787 60.8274ZM4.92599 60.8274H0.497885C0.223685 60.83 0.00240527 61.0673 0 61.3613C0 61.6631 0.22609 61.8952 0.497885 61.8952H4.92599C5.20741 61.8952 5.42388 61.6656 5.42388 61.3613C5.42629 61.0699 5.205 60.83 4.93321 60.8274C4.9284 60.8274 4.92599 60.8274 4.92599 60.8274Z" fill="#196CFA"/>
<path opacity="0.8" fill-rule="evenodd" clip-rule="evenodd" d="M229.653 165.412V170.163C229.653 170.454 229.879 170.697 230.15 170.697C230.432 170.697 230.648 170.454 230.648 170.163V165.412C230.648 165.11 230.434 164.878 230.15 164.878C229.879 164.875 229.655 165.113 229.653 165.404C229.653 165.407 229.653 165.409 229.653 165.412ZM229.653 175.535V180.283C229.653 180.575 229.879 180.817 230.15 180.817C230.432 180.817 230.648 180.575 230.648 180.283V175.535C230.648 175.233 230.434 175.001 230.15 175.001C229.879 174.999 229.655 175.236 229.653 175.527C229.653 175.532 229.653 175.535 229.653 175.535ZM237.09 172.306H232.662C232.387 172.309 232.166 172.546 232.164 172.84C232.164 173.142 232.39 173.374 232.662 173.374H237.09C237.371 173.374 237.588 173.144 237.588 172.84C237.59 172.548 237.369 172.309 237.097 172.306C237.094 172.306 237.092 172.306 237.09 172.306ZM227.637 172.306H223.209C222.935 172.309 222.713 172.546 222.711 172.84C222.711 173.142 222.937 173.374 223.209 173.374H227.637C227.918 173.374 228.135 173.144 228.135 172.84C228.137 172.548 227.916 172.309 227.644 172.306C227.639 172.306 227.637 172.306 227.637 172.306Z" fill="#196CFA"/>
<path fill-rule="evenodd" clip-rule="evenodd" d="M429.446 41.9021V46.6529C429.446 46.9443 429.672 47.1868 429.943 47.1868C430.225 47.1868 430.441 46.9443 430.441 46.6529V41.9021C430.441 41.6003 430.227 41.3682 429.943 41.3682C429.672 41.3656 429.448 41.6029 429.446 41.8943C429.446 41.8969 429.446 41.8995 429.446 41.9021ZM429.446 52.0253V56.7735C429.446 57.065 429.672 57.3074 429.943 57.3074C430.225 57.3074 430.441 57.065 430.441 56.7735V52.0253C430.441 51.7235 430.227 51.4914 429.943 51.4914C429.672 51.4888 429.448 51.7261 429.446 52.0175C429.446 52.0227 429.446 52.0253 429.446 52.0253ZM436.883 48.7962H432.455C432.18 48.7987 431.959 49.036 431.957 49.33C431.957 49.6318 432.183 49.8639 432.455 49.8639H436.883C437.164 49.8639 437.381 49.6344 437.381 49.33C437.383 49.0386 437.162 48.7987 436.89 48.7962C436.887 48.7962 436.885 48.7962 436.883 48.7962ZM427.43 48.7962H423.002C422.728 48.7987 422.506 49.036 422.504 49.33C422.504 49.6318 422.73 49.8639 423.002 49.8639H427.43C427.711 49.8639 427.928 49.6344 427.928 49.33C427.93 49.0386 427.709 48.7987 427.437 48.7962C427.432 48.7962 427.43 48.7962 427.43 48.7962Z" fill="white"/>
<path fill-rule="evenodd" clip-rule="evenodd" d="M346.752 27.1163C346.692 27.2028 346.627 27.2902 346.559 27.3788C345.393 28.8745 342.942 30.6009 338.381 32.2496C338.281 32.2857 338.171 32.2807 338.074 32.2356C337.978 32.1904 337.904 32.1089 337.867 32.009C337.831 31.909 337.836 31.7988 337.881 31.7026C337.927 31.6064 338.008 31.5321 338.108 31.496C342.016 30.0838 344.317 28.6389 345.549 27.3258C344.887 27.3268 344.205 27.1345 343.514 26.6895C342.9 26.2924 342.595 25.5714 342.613 24.8197C342.64 23.7248 343.35 22.5915 344.657 22.4126C345.828 22.2532 347.191 23.0856 347.457 24.492C347.539 24.9235 347.518 25.4137 347.347 25.9463C347.687 25.7378 348.013 25.482 348.325 25.1994C350.374 23.3384 351.774 20.2622 351.774 20.2622C351.82 20.1689 351.901 20.0971 351.999 20.0622C352.098 20.0273 352.206 20.032 352.301 20.0753C352.395 20.1185 352.47 20.1969 352.508 20.2939C352.546 20.3909 352.544 20.4989 352.504 20.595C352.504 20.595 351.023 23.8315 348.864 25.7925C348.213 26.3837 347.502 26.8596 346.752 27.1163ZM346.245 26.427C345.512 26.6116 344.739 26.5261 343.95 26.0165C343.567 25.7695 343.403 25.3072 343.415 24.839C343.433 24.1045 343.888 23.3259 344.765 23.2067C345.565 23.0972 346.487 23.6797 346.669 24.6409C346.765 25.1505 346.653 25.756 346.245 26.427Z" fill="#196CFA"/>
<path fill-rule="evenodd" clip-rule="evenodd" d="M166.671 235.073C166.728 235.162 166.785 235.254 166.841 235.351C167.784 236.996 168.455 239.919 168.255 244.764C168.251 244.871 168.204 244.971 168.126 245.043C168.048 245.115 167.944 245.153 167.838 245.149C167.732 245.144 167.632 245.098 167.56 245.02C167.488 244.941 167.45 244.838 167.454 244.731C167.626 240.58 167.159 237.904 166.41 236.266C166.16 236.879 165.724 237.438 165.051 237.909C164.451 238.327 163.668 238.337 162.979 238.035C161.976 237.596 161.195 236.51 161.524 235.233C161.82 234.089 163.106 233.142 164.509 233.428C164.939 233.515 165.385 233.72 165.813 234.08C165.749 233.686 165.636 233.287 165.492 232.892C164.545 230.291 162.227 227.831 162.227 227.831C162.158 227.753 162.122 227.651 162.127 227.547C162.132 227.442 162.177 227.344 162.253 227.273C162.329 227.201 162.43 227.162 162.534 227.164C162.638 227.166 162.738 227.208 162.811 227.281C162.811 227.281 165.247 229.877 166.245 232.617C166.546 233.444 166.717 234.282 166.671 235.073ZM165.841 235.282C165.735 236.03 165.363 236.713 164.593 237.251C164.219 237.512 163.729 237.488 163.3 237.301C162.627 237.006 162.079 236.29 162.3 235.433C162.502 234.651 163.39 234.018 164.348 234.213C164.857 234.317 165.375 234.65 165.841 235.282Z" fill="#196CFA"/>
<path fill-rule="evenodd" clip-rule="evenodd" d="M170.667 37.9148C170.568 37.8788 170.467 37.8392 170.364 37.7959C168.617 37.0572 166.315 35.1361 163.542 31.1573C163.481 31.07 163.458 30.9622 163.476 30.8575C163.495 30.7528 163.554 30.6598 163.642 30.599C163.729 30.5382 163.837 30.5146 163.941 30.5333C164.046 30.5521 164.139 30.6116 164.2 30.6989C166.575 34.1082 168.566 35.9562 170.153 36.8069C169.981 36.1676 169.99 35.4587 170.241 34.6767C170.466 33.9804 171.083 33.499 171.814 33.3221C172.879 33.0645 174.157 33.4571 174.668 34.6732C175.125 35.763 174.674 37.2951 173.384 37.9162C172.989 38.1069 172.51 38.2139 171.951 38.1864C172.241 38.4607 172.572 38.7101 172.926 38.9375C175.254 40.4352 178.588 40.9917 178.588 40.9917C178.69 41.0122 178.78 41.0717 178.839 41.1575C178.898 41.2434 178.922 41.3489 178.904 41.4517C178.887 41.5545 178.831 41.6465 178.747 41.7083C178.663 41.7701 178.558 41.7967 178.455 41.7826C178.455 41.7826 174.945 41.1898 172.492 39.6119C171.753 39.1359 171.109 38.5724 170.667 37.9148ZM171.202 37.2465C170.834 36.5861 170.716 35.8173 171.004 34.923C171.144 34.4893 171.548 34.2116 172.003 34.1014C172.717 33.9287 173.587 34.1671 173.929 34.9836C174.242 35.7282 173.918 36.7691 173.037 37.1937C172.569 37.4187 171.956 37.467 171.202 37.2465Z" fill="white"/>
</g>
</svg>
