<svg width="760" height="1080" viewBox="0 0 760 1080" fill="none" xmlns="http://www.w3.org/2000/svg">
<g clip-path="url(#clip0_1135_72728)">
<rect width="760" height="1080" fill="#FAA81A"/>
<path d="M411.419 750.094C464.113 667.399 604.285 484.778 759.856 386.437M411.419 750.094C454.816 630.781 583.986 370.397 759.856 261.154C759.904 261.124 759.952 261.094 760 261.064M411.419 750.094C435.176 596.758 537.851 249.582 760 65.5887M411.419 750.094C399.977 578.162 421.633 196.521 593.402 -7.28224e-06M411.419 750.094C275.363 636.897 18.3052 331.456 55.6176 -3.07895e-05M411.419 750.094C316.9 613.635 167.843 278.182 244.958 -2.25132e-05M411.419 750.094C284.766 387.447 331.871 198.759 412.976 -1.51689e-05M411.419 750.094C296.729 679.7 102.358 528.554 1.00005 357.75M411.419 750.094C400.463 750.094 135.761 612.576 1.00004 498.896M411.419 750.094C319.521 723.957 127.019 662.96 1.00004 603.872M411.419 750.094C290.589 737.156 160.738 726.469 1.00003 695.25M411.419 750.094C321.738 761.625 114.101 784.856 1.00003 785.531M411.419 750.094C343.988 780.469 167.501 847.8 1.00003 874.125M411.419 750.094C346.46 803.531 173.434 920.531 1.00002 961.031M411.419 750.094C332.616 842.625 141.454 1015.03 1.00002 1059.75M411.419 750.094C374.336 838.406 279.997 1030.72 187.437 1080M411.419 750.094C431.691 808.031 421.802 955.125 380.269 1080M411.419 750.094C457.402 806.344 552.631 951.075 565.685 1080M411.419 750.094C500.933 809.694 688.852 952.818 752.384 1065.66M411.419 750.094C504.278 776.531 703.967 846.956 759.856 917.156M411.419 750.094C485.984 749.531 660.061 758.362 759.856 798.187M411.419 750.094C481.534 729.844 649.381 690.356 759.856 694.406M411.419 750.094C420.319 747.568 599.513 628.594 759.856 620.156M411.419 750.094C473.623 686.25 630.395 550.294 759.856 517.219" stroke="#F77E08"/>
</g>
<defs>
<clipPath id="clip0_1135_72728">
<rect width="760" height="1080" fill="white"/>
</clipPath>
</defs>
</svg>
