<svg width="740" height="920" viewBox="0 0 740 920" fill="none" xmlns="http://www.w3.org/2000/svg">
<path fill-rule="evenodd" clip-rule="evenodd" d="M173.97 760.598V853.946H159.337V817.022C159.337 817.022 118.998 811.527 124.263 769.875H136.39C136.39 769.875 133.5 802.645 159.337 800.585V760.598H173.97Z" fill="white"/>
<path fill-rule="evenodd" clip-rule="evenodd" d="M175.746 760.598C175.746 760.053 175.312 759.62 174.787 759.62H160.154C159.622 759.62 159.195 760.053 159.195 760.598V799.663C154.691 799.898 151.133 799.007 148.337 797.348C143.87 794.736 141.345 790.268 139.91 785.719C137.46 777.983 138.165 769.962 138.165 769.962C138.19 769.702 138.097 769.448 137.918 769.244C137.738 769.046 137.478 768.928 137.206 768.928H125.079C124.597 768.928 124.188 769.275 124.127 769.764C122.512 782.538 125.116 791.988 129.522 798.951C138.567 813.241 155.285 817.109 159.195 817.827V853.946C159.195 854.491 159.628 854.918 160.154 854.918H174.787C175.319 854.918 175.746 854.491 175.746 853.946V760.598ZM173.828 761.539V852.999H161.119V817.023C161.119 816.534 160.767 816.138 160.29 816.076C160.29 816.076 140.974 813.445 131.155 797.917C127.041 791.419 124.609 782.624 125.939 770.853H136.191C136.086 773.341 136.055 779.901 138.078 786.288C139.65 791.27 142.465 796.141 147.365 799.007C150.632 800.925 154.833 801.959 160.234 801.526C160.736 801.501 161.119 801.068 161.119 800.585V761.539H173.828Z" fill="#18181B"/>
<path fill-rule="evenodd" clip-rule="evenodd" d="M69.704 765.786C69.1781 770.007 70.4897 774.246 73.3049 777.433C76.12 780.621 80.1725 782.453 84.4231 782.446H222.884C230.729 782.446 237.22 776.338 237.696 768.503C238.816 749.75 236.415 719.325 207.893 724.462C207.893 724.462 217.081 638.9 174.427 636.331C138.783 634.159 134.019 678.503 134.019 678.503C134.019 678.503 108.342 670.346 97.0881 692.317C85.8337 714.263 92.4725 743.939 92.4725 743.939C92.4725 743.939 72.2036 745.486 69.704 765.786Z" fill="white"/>
<path fill-rule="evenodd" clip-rule="evenodd" d="M67.12 766.279C66.5632 770.778 67.9614 775.302 70.956 778.7C73.9567 782.091 78.2692 784.035 82.7981 784.035H221.253C229.606 784.035 236.517 777.524 237.024 769.194C237.482 761.587 237.358 752.112 235.205 743.807C233.219 736.126 229.5 729.467 223.047 726.026C218.995 723.884 213.847 722.962 207.332 723.934C207.864 717.9 209.751 691.188 203.929 668.846C199.437 651.61 190.342 637.047 172.851 635.976C154.556 634.881 144.168 645.674 138.371 656.771C133.712 665.702 132.041 674.806 131.583 677.894C126.473 676.625 104.806 672.584 94.6031 692.488C84.4563 712.286 88.6573 738.274 89.6967 743.732C85.3658 744.407 69.3597 748.071 67.12 766.279ZM69.0256 766.526C71.4324 747 90.9094 745.527 90.9094 745.527C91.1878 745.502 91.4415 745.354 91.6085 745.131C91.7756 744.908 91.8375 744.63 91.7756 744.357C91.7756 744.357 85.1987 715.028 96.3107 693.36C107.206 672.114 132.097 680.042 132.097 680.042C132.375 680.116 132.672 680.091 132.914 679.918C133.155 679.769 133.316 679.516 133.347 679.219C133.347 679.219 134.522 668.32 140.078 657.669C145.572 647.147 155.391 636.849 172.74 637.895C189.371 638.916 197.81 652.959 202.073 669.316C208.6 694.382 205.309 724.98 205.309 724.98C205.278 725.277 205.389 725.58 205.612 725.803C205.835 726.001 206.138 726.075 206.435 726.026C213.018 724.856 218.16 725.605 222.15 727.721C228.139 730.915 231.505 737.178 233.349 744.283C235.446 752.415 235.558 761.668 235.112 769.07C234.667 776.404 228.597 782.116 221.259 782.116H82.7981C78.8198 782.11 75.0333 780.402 72.3976 777.425C69.7619 774.442 68.5368 770.475 69.0256 766.526Z" fill="#196CFA"/>
<path fill-rule="evenodd" clip-rule="evenodd" d="M124.145 725.618C124.039 726.274 123.6 726.849 122.975 727.134C122.35 727.394 121.633 727.332 121.07 726.961C116.831 724.04 109.197 717.226 114.041 708.171C114.449 707.428 115.303 706.995 116.151 707.169C119.306 707.855 126.496 711.006 124.145 725.618ZM168.556 692.655C167.98 693.095 167.244 693.181 166.588 692.915C165.932 692.649 165.468 692.055 165.369 691.356C164.837 687.401 164.979 680.76 171.501 678.569C172.404 678.272 173.394 678.644 173.87 679.467C175.101 681.75 176.37 686.801 168.556 692.655ZM170.276 752.911C169.607 753.128 168.883 752.985 168.37 752.527C167.844 752.088 167.584 751.401 167.683 750.72C168.426 746.103 170.969 737.791 179.791 737.996C180.688 738.014 181.474 738.621 181.672 739.5C182.328 742.402 182.347 749.117 170.276 752.911Z" fill="#18181B"/>
<path fill-rule="evenodd" clip-rule="evenodd" d="M253.344 737.333L230.464 754.693L223.925 777.753L247.114 787.946L270.878 771.106L253.344 737.333Z" fill="white"/>
<path fill-rule="evenodd" clip-rule="evenodd" d="M254.197 736.875C254.067 736.646 253.832 736.448 253.554 736.393C253.281 736.331 252.984 736.393 252.762 736.56L229.882 753.951C229.715 754.062 229.597 754.235 229.535 754.433L222.995 777.494C222.866 777.952 223.094 778.44 223.534 778.638L246.723 788.838C247.032 788.98 247.391 788.925 247.663 788.72L271.428 771.88C271.818 771.595 271.948 771.076 271.725 770.649L254.197 736.875ZM253.015 738.794L269.646 770.791L247.008 786.857L225.087 777.209L231.305 755.269L253.015 738.794Z" fill="#18181B"/>
<path fill-rule="evenodd" clip-rule="evenodd" d="M286.949 782.389L288.254 803.796H323.595V782.389H286.949Z" fill="white"/>
<path fill-rule="evenodd" clip-rule="evenodd" d="M286.947 781.423C286.681 781.423 286.428 781.522 286.248 781.714C286.069 781.906 285.976 782.166 285.988 782.456L287.294 803.858C287.325 804.372 287.746 804.761 288.253 804.761H323.594C324.126 804.761 324.559 804.341 324.559 803.796V782.388C324.559 781.844 324.126 781.423 323.594 781.423H286.947ZM287.962 783.354H322.628V802.861H289.15L287.962 783.354Z" fill="#18181B"/>
<path fill-rule="evenodd" clip-rule="evenodd" d="M319.422 521.908L362.521 642.871L249.013 734.783C254.711 751.599 262.668 766.836 274.615 779.3C274.615 779.3 377.401 703.622 415.483 675.611C423.953 669.366 427.869 658.653 425.426 648.429C415.217 605.663 389.144 496.391 389.144 496.391L319.422 521.908Z" fill="white"/>
<path fill-rule="evenodd" clip-rule="evenodd" d="M319.096 520.992C318.601 521.166 318.348 521.735 318.521 522.224L361.391 642.556L248.415 734.041C248.105 734.295 247.982 734.716 248.112 735.099C253.853 752.032 261.884 767.381 273.93 779.988C274.265 780.328 274.803 780.359 275.193 780.068C275.193 780.068 377.979 704.427 416.061 676.385C424.84 669.911 428.899 658.814 426.368 648.2C416.166 605.434 390.087 496.156 390.087 496.156C390.019 495.89 389.846 495.661 389.611 495.525C389.363 495.407 389.085 495.389 388.825 495.469L319.096 520.992ZM320.649 522.484L388.466 497.647L424.5 648.658C426.851 658.511 423.077 668.822 414.922 674.837C378.653 701.53 283.706 771.422 274.735 778.038C263.351 765.92 255.685 751.259 250.141 735.13C258.444 728.397 363.13 643.614 363.13 643.614C363.445 643.354 363.563 642.927 363.427 642.556L320.649 522.484Z" fill="#18181B"/>
<path fill-rule="evenodd" clip-rule="evenodd" d="M271.936 540.784L277.882 787.662C296.573 791.097 312.431 791.01 329.916 787.662L336.059 525.262L286.674 515.292L271.936 540.784Z" fill="white"/>
<path fill-rule="evenodd" clip-rule="evenodd" d="M271.101 540.296C271.015 540.469 270.965 540.642 270.971 540.815L276.917 787.693C276.93 788.151 277.257 788.522 277.709 788.609C296.53 792.044 312.493 791.957 330.095 788.609C330.541 788.529 330.862 788.145 330.875 787.693L337.019 525.263C337.025 524.798 336.703 524.402 336.251 524.316L286.866 514.376C286.464 514.283 286.043 514.469 285.845 514.834L271.101 540.296ZM272.902 541.044L287.163 516.381C287.163 516.381 328.802 524.774 335.082 526.036C334.723 541.416 329.328 771.763 328.975 786.858C312.146 789.983 296.784 790.07 278.823 786.858L272.902 541.044ZM230.464 754.694C230.464 754.694 223.473 777.122 251.531 784.828C254.594 785.657 255.621 788.467 253.27 793.82C250.925 799.174 248.543 820.086 258.789 838.647C258.789 838.647 264.549 840.763 265.805 842.286C266.653 843.289 266.356 848.215 266.071 851.278C265.941 852.708 264.741 853.797 263.306 853.797H227.012C226.078 853.804 225.212 853.339 224.692 852.566C211.154 831.888 200.636 811.063 191.634 790.181C190.223 786.888 190.861 783.076 193.261 780.415C202.072 770.76 223.324 748.876 230.464 754.694Z" fill="#18181B"/>
<path fill-rule="evenodd" clip-rule="evenodd" d="M277.883 850.072C277.951 852.157 279.671 853.791 281.762 853.791H332.558C334.241 853.791 335.726 852.733 336.252 851.13C337.304 847.862 338.479 841.847 336.419 834.488C333.27 823.261 330.114 826.665 328.586 810.945C326.668 791.233 284.633 792.44 283.995 806.099C283.538 815.952 285.029 815.785 281.483 822.803C278.31 829.048 277.542 839.73 277.883 850.072Z" fill="#18181B"/>
<path fill-rule="evenodd" clip-rule="evenodd" d="M291.996 828.57C301.765 824.913 311.324 824.975 320.685 828.57C321.18 828.756 321.737 828.509 321.923 828.02C322.114 827.531 321.873 826.986 321.384 826.794C321.378 826.794 321.372 826.788 321.372 826.788C311.572 823.007 301.555 822.914 291.321 826.788C290.826 826.974 290.572 827.518 290.758 828.013C290.758 828.013 290.758 828.013 290.758 828.02C290.95 828.515 291.507 828.756 291.996 828.57Z" fill="white"/>
<path fill-rule="evenodd" clip-rule="evenodd" d="M290.578 823.007C301.319 819.313 311.819 819.405 322.108 823.007C322.609 823.193 323.153 822.915 323.333 822.419C323.506 821.931 323.24 821.373 322.739 821.194C312.047 817.468 301.121 817.375 289.953 821.194C289.452 821.373 289.186 821.931 289.359 822.419C289.533 822.915 290.077 823.193 290.578 823.007ZM251.228 808.488C249.867 809.225 246.309 810.704 240.97 810.394C240.444 810.363 239.986 810.766 239.955 811.286C239.918 811.805 240.308 812.263 240.828 812.3C240.84 812.3 240.846 812.3 240.859 812.3C246.724 812.672 250.628 810.982 252.119 810.209C252.589 809.967 252.769 809.379 252.521 808.921C252.28 808.426 251.698 808.241 251.228 808.488ZM252.076 817.314C250.226 817.994 247.299 818.7 243.439 818.483C242.913 818.452 242.455 818.855 242.424 819.374C242.393 819.931 242.801 820.359 243.327 820.389C247.535 820.637 250.733 819.87 252.744 819.102C253.239 818.917 253.493 818.366 253.307 817.87C253.128 817.375 252.577 817.134 252.076 817.314ZM253.592 825.006C251.736 825.65 248.902 826.294 245.227 826.083C244.701 826.052 244.243 826.448 244.212 826.975C244.181 827.525 244.589 827.959 245.115 827.99C249.118 828.237 252.206 827.525 254.235 826.82C254.73 826.634 254.996 826.083 254.817 825.588C254.644 825.099 254.093 824.821 253.592 825.006Z" fill="white"/>
<path fill-rule="evenodd" clip-rule="evenodd" d="M310.881 306.62C310.881 306.62 288.1 306.088 275.917 331.314L307.762 356.026C307.762 356.026 330.964 344.93 323.546 316.207L310.881 306.62Z" fill="#18181B"/>
<path fill-rule="evenodd" clip-rule="evenodd" d="M313.632 315.333L319.739 333.838C333.486 337.161 344.407 335.54 358.154 328.614L350.272 303.159L331.94 304.576L313.632 315.333Z" fill="white"/>
<path fill-rule="evenodd" clip-rule="evenodd" d="M313.148 314.51C312.758 314.733 312.572 315.203 312.702 315.63L318.827 334.135C318.92 334.451 319.174 334.686 319.502 334.773C333.491 338.152 344.591 336.524 358.561 329.475C358.994 329.259 359.205 328.788 359.05 328.336L351.192 302.881C351.062 302.454 350.635 302.163 350.19 302.2L331.851 303.618C331.715 303.611 331.579 303.667 331.443 303.748L313.148 314.51ZM314.787 315.779L332.241 305.518L349.59 304.175L356.977 328.12C343.978 334.538 333.528 336.054 320.473 333.015L314.787 315.779ZM371.876 300.486C371.876 300.486 394.855 291.933 416.114 313.297L408.633 324.833L402.217 323.614L405.831 328.126L392.417 349.633C392.417 349.633 364.915 346.507 362.366 314.69L371.876 300.486Z" fill="#18181B"/>
<path fill-rule="evenodd" clip-rule="evenodd" d="M359.424 315.413C358.149 314.578 357.815 312.851 358.656 311.57C360.853 308.209 364.918 302.008 367.139 298.616C367.956 297.366 369.67 296.982 370.944 297.818C372.219 298.653 372.553 300.38 371.73 301.624L363.247 314.578C362.412 315.859 360.698 316.249 359.424 315.413Z" fill="white"/>
<path fill-rule="evenodd" clip-rule="evenodd" d="M358.896 316.211C360.616 317.338 362.918 316.836 364.05 315.11C366.247 311.749 370.311 305.548 372.533 302.156C373.646 300.46 373.182 298.146 371.462 297.026C369.748 295.899 367.416 296.382 366.308 298.078C363.481 302.398 360.653 306.711 357.82 311.031C356.694 312.758 357.182 315.085 358.896 316.211ZM359.967 314.584C359.138 314.039 358.909 312.931 359.447 312.102C359.447 312.102 359.447 312.096 359.453 312.096L367.942 299.142C368.474 298.313 369.581 298.078 370.404 298.61C370.41 298.61 370.41 298.616 370.417 298.616C371.246 299.155 371.475 300.269 370.936 301.092C370.936 301.092 370.936 301.098 370.93 301.098L362.448 314.051C361.909 314.887 360.802 315.122 359.967 314.584Z" fill="#18181B"/>
<path fill-rule="evenodd" clip-rule="evenodd" d="M352.376 264.651C352.376 264.651 357.666 266.031 363.741 269.905C369.823 273.785 368.728 289.326 366.748 292.383C364.75 295.434 358.767 299.835 354.405 300.095C354.405 300.095 350.625 306.079 343.219 312.745C335.819 319.41 320.976 323.73 307.253 315.877C301.487 312.572 298.226 305.943 296.587 300.85C294.972 295.756 288.568 274.819 288.568 274.819L300.274 247.804L337.551 246.566L349.134 265.573L352.376 264.651Z" fill="white"/>
<path fill-rule="evenodd" clip-rule="evenodd" d="M352.618 263.722C352.45 263.679 352.277 263.679 352.11 263.729L349.592 264.446L338.375 246.059C338.189 245.762 337.861 245.589 337.509 245.595L300.256 246.839C299.885 246.845 299.551 247.074 299.402 247.414L287.69 274.429C287.603 274.64 287.585 274.875 287.647 275.091C287.647 275.091 294.05 296.041 295.684 301.135C297.367 306.42 300.801 313.271 306.796 316.706C320.921 324.801 336.24 320.327 343.869 313.451C350.242 307.707 353.966 302.459 354.95 300.998C359.541 300.454 365.524 296.023 367.559 292.897C367.955 292.278 368.333 291.214 368.624 289.852C369.261 286.925 369.533 282.512 368.945 278.464C368.357 274.417 366.885 270.765 364.268 269.088C358.037 265.121 352.618 263.722 352.618 263.722ZM352.37 265.647C353.478 265.969 358.056 267.411 363.228 270.716C365.45 272.139 366.551 275.32 367.046 278.749C367.51 282.017 367.392 285.532 366.996 288.212C366.73 289.871 366.365 291.189 365.938 291.857C364.064 294.729 358.464 298.894 354.362 299.136C354.041 299.148 353.774 299.321 353.595 299.575C353.595 299.575 349.852 305.461 342.576 312.027C335.405 318.482 321.02 322.647 307.736 315.041C302.18 311.86 299.062 305.455 297.515 300.559C296.018 295.855 290.425 277.592 289.596 274.875L300.918 248.739L337.014 247.538L348.311 266.062C348.54 266.427 348.992 266.606 349.394 266.489L352.37 265.647Z" fill="#18181B"/>
<path fill-rule="evenodd" clip-rule="evenodd" d="M360.165 274.863C360.165 274.863 355.333 276.999 350.711 282.049C350.358 282.445 350.389 283.051 350.785 283.41C351.156 283.769 351.781 283.744 352.134 283.348C356.459 278.626 360.95 276.615 360.95 276.615C361.415 276.398 361.631 275.829 361.433 275.346C361.21 274.863 360.635 274.647 360.165 274.863Z" fill="#18181B"/>
<path fill-rule="evenodd" clip-rule="evenodd" d="M359.714 281.61C359.714 281.61 356.973 279.691 354.857 278.881C354.368 278.689 353.805 278.936 353.626 279.432C353.422 279.927 353.675 280.484 354.17 280.676C356.101 281.418 358.619 283.194 358.619 283.194C359.052 283.498 359.664 283.392 359.961 282.959C360.258 282.514 360.166 281.92 359.714 281.61ZM311.12 289.903L310.731 297.318C310.694 297.844 311.09 298.302 311.634 298.333C312.16 298.357 312.599 297.955 312.636 297.423L313.051 290.008C313.069 289.476 312.673 289.024 312.148 288.993C311.622 288.975 311.164 289.377 311.12 289.903ZM329.973 273.156C329.973 273.156 321.725 269.009 315.996 276.51C315.668 276.919 315.736 277.519 316.151 277.847C316.157 277.847 316.157 277.853 316.163 277.853C316.602 278.175 317.202 278.101 317.518 277.674C322.282 271.454 329.1 274.87 329.1 274.87C329.589 275.112 330.164 274.92 330.406 274.443C330.635 273.973 330.443 273.391 329.973 273.156ZM315.433 307.307C315.433 307.307 324.633 308.037 327.114 298.933C327.263 298.432 326.972 297.899 326.471 297.757C326.464 297.757 326.458 297.757 326.458 297.751C325.932 297.615 325.406 297.918 325.27 298.425C323.204 305.982 315.6 305.394 315.6 305.394C315.055 305.357 314.591 305.753 314.554 306.279C314.511 306.799 314.907 307.257 315.433 307.307ZM307.402 277.309C307.402 277.309 299.155 273.162 293.425 280.663C293.097 281.072 293.165 281.672 293.58 282C293.586 282.006 293.586 282.006 293.592 282.006C294.032 282.328 294.632 282.254 294.947 281.827C299.711 275.607 306.53 279.023 306.53 279.023C307.025 279.264 307.594 279.073 307.835 278.596C308.064 278.126 307.872 277.544 307.402 277.309Z" fill="#18181B"/>
<path d="M320.338 287.161C319.045 286.907 318.204 285.663 318.451 284.376C318.705 283.095 319.955 282.259 321.248 282.513C322.541 282.767 323.383 284.011 323.135 285.298C322.881 286.579 321.632 287.415 320.338 287.161ZM299.952 291.023C298.659 290.769 297.817 289.525 298.065 288.238C298.319 286.951 299.568 286.121 300.861 286.369C302.155 286.623 302.996 287.867 302.749 289.154C302.495 290.441 301.245 291.277 299.952 291.023Z" fill="#18181B"/>
<path fill-rule="evenodd" clip-rule="evenodd" d="M348.496 270.104C348.496 270.104 348.843 314.219 347.704 312.981C346.25 311.366 341.647 269.225 341.647 269.225L329.564 268.049L324.564 254.681L323.234 268.148C323.234 268.148 298.696 274.269 285.901 278.707C285.901 278.707 273.391 240.88 313.972 229.777C343.274 221.781 379.722 246.462 369.124 298.258L359.503 313.39L352.505 311.632L350.266 305.245L350.061 300.585C350.061 300.585 352.159 295.869 352.357 290.373C352.357 290.373 365.727 289.605 366.259 279.759C367.101 264.231 348.496 270.104 348.496 270.104Z" fill="#18181B"/>
<path fill-rule="evenodd" clip-rule="evenodd" d="M364.112 331.059C364.112 331.059 361.848 321.807 358.754 321.238C355.667 320.693 317.394 331.059 317.394 331.059C317.394 331.059 313.805 331.517 315.507 337.044C315.507 337.044 305.582 339.223 300.577 341.055L297.836 528.042C297.836 528.042 338.974 532.25 379.481 523.598L376.295 333.38L364.112 331.059Z" fill="white"/>
<path fill-rule="evenodd" clip-rule="evenodd" d="M364.887 330.229C364.516 328.855 363.501 325.476 362.103 323.124C361.193 321.577 360.067 320.488 358.929 320.29C358.273 320.179 356.108 320.488 353.076 321.119C341.964 323.409 318.372 329.796 317.191 330.112C316.838 330.168 315.378 330.539 314.58 332.117C314.134 333.002 313.881 334.32 314.32 336.326C311.684 336.926 304.34 338.671 300.25 340.138C299.879 340.274 299.626 340.627 299.619 341.023L296.878 528.035C296.872 528.518 297.25 528.951 297.745 529.006C297.745 529.006 339.031 533.215 379.687 524.538C380.138 524.451 380.454 524.049 380.448 523.591L377.267 333.373C377.255 332.915 376.933 332.513 376.488 332.426L364.887 330.229ZM363.179 331.288C363.272 331.659 363.563 331.919 363.934 332.006L375.35 334.184C375.35 334.184 378.282 509.567 378.505 522.83C341.859 530.51 304.909 527.732 298.809 527.187L301.525 341.747C306.648 340.002 315.712 337.966 315.712 337.966C315.972 337.91 316.201 337.768 316.331 337.539C316.467 337.279 316.498 337.025 316.417 336.765C315.848 334.902 315.916 333.726 316.287 332.983C316.714 332.154 317.512 332.012 317.512 332.012C317.556 332.012 317.599 332.012 317.636 331.981C317.636 331.981 342.094 325.365 353.46 322.988C356.12 322.444 358.007 322.103 358.582 322.19C358.873 322.246 359.139 322.45 359.405 322.704C359.777 323.075 360.123 323.564 360.445 324.109C362.115 326.906 363.179 331.288 363.179 331.288Z" fill="#18181B"/>
<path fill-rule="evenodd" clip-rule="evenodd" d="M306.374 339.278C305.378 339.451 286.34 345.411 283.154 347.329L260.88 440.102V548.458C277.592 550.296 294.371 550.754 311.355 547.462C308.614 481.952 306.628 413.725 306.374 339.278ZM368.301 331.863C370.825 415.761 369.934 482.416 368.301 545.314C385.507 546.15 402.447 544.114 419.078 538.674L400.294 341.289C390.859 336.79 379.945 333.924 368.301 331.863Z" fill="#196CFA"/>
<path fill-rule="evenodd" clip-rule="evenodd" d="M322.863 340.776C322.863 340.776 348.626 336.258 358.835 335.855C359.385 335.824 359.788 335.397 359.757 334.871C359.757 334.364 359.348 333.949 358.835 333.949C358.816 333.949 358.792 333.949 358.773 333.949C348.502 334.321 322.523 338.869 322.523 338.869C322.009 338.956 321.663 339.451 321.749 339.965C321.749 339.971 321.749 339.971 321.749 339.977C321.848 340.497 322.343 340.868 322.863 340.776Z" fill="#18181B"/>
<path fill-rule="evenodd" clip-rule="evenodd" d="M200.748 280.792L205.444 310.468C205.525 311.012 206.02 311.353 206.546 311.272C207.071 311.186 207.43 310.697 207.344 310.183L202.641 280.482C202.561 279.969 202.066 279.622 201.54 279.678C201.02 279.758 200.668 280.272 200.748 280.792ZM168.947 302.614L185.899 318.34C186.289 318.687 186.895 318.656 187.26 318.284C187.619 317.888 187.594 317.276 187.211 316.911L170.258 301.215C169.875 300.85 169.268 300.863 168.903 301.246C168.532 301.636 168.557 302.249 168.947 302.614ZM233.942 292.848L227.656 309.979C227.47 310.493 227.73 311.037 228.225 311.211C228.708 311.402 229.258 311.167 229.45 310.684C229.45 310.678 229.456 310.672 229.456 310.666L235.742 293.51C235.922 292.996 235.668 292.452 235.173 292.278C234.678 292.074 234.128 292.334 233.942 292.848Z" fill="#196CFA"/>
<path fill-rule="evenodd" clip-rule="evenodd" d="M132.795 530.826L183.536 548.18C184.037 548.353 184.587 548.068 184.754 547.579C184.928 547.072 184.662 546.521 184.154 546.348L133.414 529.019C132.919 528.845 132.374 529.105 132.201 529.6C132.201 529.606 132.195 529.613 132.195 529.619C132.022 530.108 132.288 530.652 132.795 530.826Z" fill="#18181B"/>
<path fill-rule="evenodd" clip-rule="evenodd" d="M621.127 393.919L593.99 430.124C593.669 430.557 593.755 431.158 594.182 431.473C594.609 431.789 595.209 431.702 595.525 431.3L622.661 395.095C622.983 394.661 622.896 394.061 622.469 393.745C622.049 393.436 621.455 393.516 621.127 393.919ZM105.661 590.622C101.887 590.622 98.8242 593.686 98.8242 597.467C98.8242 601.249 101.887 604.312 105.661 604.312C109.435 604.312 112.498 601.249 112.498 597.467C112.498 593.686 109.435 590.622 105.661 590.622ZM105.661 592.541C108.377 592.541 110.58 594.744 110.58 597.467C110.58 600.184 108.377 602.394 105.661 602.394C102.945 602.394 100.742 600.184 100.742 597.467C100.742 594.744 102.945 592.541 105.661 592.541ZM686.234 790.606C682.497 790.606 679.465 793.645 679.465 797.365C679.465 801.09 682.497 804.123 686.234 804.123C689.971 804.123 693.002 801.09 693.002 797.365C693.002 793.645 689.971 790.606 686.234 790.606ZM686.234 792.525C688.907 792.525 691.078 794.703 691.078 797.365C691.078 800.032 688.907 802.204 686.234 802.204C683.561 802.204 681.389 800.032 681.389 797.365C681.389 794.703 683.561 792.525 686.234 792.525Z" fill="#196CFA"/>
<path d="M491.126 327.203C507.918 327.203 521.536 313.587 521.536 296.784C521.536 279.987 507.918 266.365 491.126 266.365C474.335 266.365 460.717 279.981 460.717 296.784C460.717 313.587 474.335 327.203 491.126 327.203Z" fill="#18181B"/>
<path fill-rule="evenodd" clip-rule="evenodd" d="M505.619 292.422C505.619 291.333 505.192 290.281 504.419 289.513C503.646 288.746 502.6 288.313 501.511 288.307H480.747C479.652 288.307 478.613 288.746 477.839 289.513C477.066 290.281 476.633 291.327 476.633 292.422V310.506C476.633 311.596 477.066 312.648 477.839 313.415C478.613 314.183 479.658 314.616 480.747 314.622H501.511C502.6 314.616 503.646 314.189 504.419 313.415C505.192 312.654 505.619 311.596 505.619 310.506V292.422Z" fill="white"/>
<path fill-rule="evenodd" clip-rule="evenodd" d="M483.718 288.343C483.718 283.72 487.009 279.926 491.13 279.926C495.251 279.926 498.542 283.72 498.542 288.343C498.542 288.856 498.969 289.283 499.501 289.283C500.033 289.283 500.46 288.856 500.46 288.343C500.46 282.606 496.247 277.982 491.13 277.982C486.013 277.982 481.8 282.606 481.8 288.343C481.8 288.856 482.227 289.283 482.759 289.283C483.291 289.283 483.718 288.856 483.718 288.343Z" fill="white"/>
<path fill-rule="evenodd" clip-rule="evenodd" d="M494.232 300.015C494.239 298.301 492.853 296.909 491.139 296.902C491.133 296.902 491.133 296.902 491.126 296.902C489.413 296.896 488.027 298.283 488.021 299.997C488.021 300.003 488.021 300.009 488.021 300.015V302.93C488.014 304.645 489.394 306.037 491.108 306.043C491.114 306.043 491.12 306.043 491.126 306.043C492.84 306.043 494.232 304.663 494.232 302.93V300.015Z" fill="#18181B"/>
<path d="M112.608 463.045C129.399 463.045 143.017 449.429 143.017 432.626C143.017 415.829 129.406 402.207 112.608 402.207C95.8158 402.207 82.198 415.823 82.198 432.626C82.2042 449.429 95.8158 463.045 112.608 463.045Z" fill="#18181B"/>
<path fill-rule="evenodd" clip-rule="evenodd" d="M112.609 426.134C105.667 426.134 99.5167 427.972 95.6993 430.769C92.9584 432.762 91.3931 435.269 91.3931 437.961C91.3931 440.628 92.9522 443.135 95.6993 445.128C99.5167 447.925 105.667 449.763 112.609 449.763C119.551 449.763 125.707 447.925 129.524 445.128C132.265 443.135 133.83 440.628 133.83 437.961C133.83 435.275 132.271 432.762 129.524 430.769C125.707 427.972 119.557 426.134 112.609 426.134ZM112.609 428.059C119.08 428.059 124.828 429.717 128.386 432.317C130.557 433.907 131.9 435.832 131.9 437.961C131.9 440.065 130.557 441.996 128.386 443.58C124.828 446.18 119.08 447.838 112.609 447.838C106.137 447.838 100.389 446.18 96.8315 443.58C94.6537 441.99 93.3173 440.065 93.3173 437.961C93.3173 435.832 94.6599 433.907 96.8315 432.317C100.389 429.717 106.137 428.059 112.609 428.059Z" fill="white"/>
<path d="M112.614 448.704C118.541 448.704 123.348 443.895 123.348 437.966C123.348 432.037 118.541 427.229 112.614 427.229C106.68 427.229 101.879 432.037 101.879 437.966C101.879 443.895 106.68 448.704 112.614 448.704Z" fill="white"/>
<path d="M112.607 444.175C116.041 444.175 118.831 441.39 118.831 437.949C118.831 434.514 116.047 431.723 112.607 431.723C109.173 431.723 106.383 434.508 106.383 437.949C106.383 441.39 109.173 444.175 112.607 444.175Z" fill="#18181B"/>
<path d="M108.652 436.94C110.267 436.946 111.579 435.64 111.579 434.025C111.585 432.41 110.28 431.098 108.665 431.098C108.659 431.098 108.652 431.098 108.652 431.098C107.038 431.104 105.732 432.416 105.738 434.025C105.744 435.634 107.044 436.94 108.652 436.94Z" fill="white"/>
<path fill-rule="evenodd" clip-rule="evenodd" d="M112.705 422.253V416.485C112.705 415.965 112.272 415.525 111.746 415.525C111.22 415.525 110.787 415.965 110.787 416.485V422.253C110.787 422.773 111.22 423.212 111.746 423.212C112.272 423.212 112.705 422.773 112.705 422.253ZM105.664 422.643L103.808 418.422C103.604 417.914 103.028 417.716 102.546 417.914C102.057 418.137 101.834 418.7 102.051 419.183L103.901 423.429C104.111 423.911 104.674 424.128 105.151 423.918C105.157 423.918 105.163 423.911 105.169 423.911C105.652 423.707 105.868 423.15 105.664 422.643ZM119.591 423.423L121.441 419.177C121.652 418.694 121.435 418.137 120.946 417.908C120.464 417.71 119.888 417.908 119.684 418.416L117.828 422.636C117.624 423.144 117.84 423.707 118.323 423.905C118.812 424.134 119.375 423.905 119.591 423.423ZM98.5675 424.759L96.1422 422.352C95.7771 421.974 95.177 421.962 94.8058 422.327C94.7996 422.333 94.7934 422.339 94.7872 422.346C94.4098 422.711 94.4098 423.323 94.7872 423.701L97.2126 426.127C97.59 426.505 98.1963 426.498 98.5737 426.133C98.9449 425.75 98.9449 425.137 98.5675 424.759ZM126.273 426.127L128.699 423.701C129.076 423.323 129.076 422.711 128.699 422.346C128.334 421.974 127.734 421.968 127.356 422.333C127.35 422.339 127.344 422.346 127.338 422.352L124.912 424.759C124.535 425.143 124.541 425.756 124.912 426.139C125.29 426.498 125.902 426.511 126.273 426.127ZM520.936 848.765C418.781 797.675 357.263 702.582 356.941 541.192L521.53 478.096L686.126 541.192C685.804 702.916 624.044 798.04 521.53 849.074L520.936 848.765Z" fill="white"/>
<path fill-rule="evenodd" clip-rule="evenodd" d="M520.504 849.62L521.104 849.93C521.376 850.047 521.692 850.047 521.964 849.93C624.762 798.778 686.763 703.375 687.091 541.218C687.091 540.791 686.844 540.457 686.473 540.302L521.877 477.187C521.655 477.125 521.413 477.125 521.19 477.187L356.595 540.302C356.224 540.457 355.976 540.791 355.976 541.218C356.304 703.041 418.058 798.382 520.504 849.62ZM521.364 847.912C419.642 797.039 358.389 702.366 357.9 541.862L521.531 479.137C529.537 482.188 674.507 537.771 685.167 541.862C684.672 702.459 623.352 797.125 521.537 847.974L521.364 847.912Z" fill="#196CFA"/>
<path fill-rule="evenodd" clip-rule="evenodd" d="M521.09 801.067C445.243 763.134 399.576 692.537 399.334 572.712L521.536 525.868L643.737 572.712C643.496 692.784 597.643 763.407 521.536 801.295L521.09 801.067Z" fill="#2E33C7"/>
<path fill-rule="evenodd" clip-rule="evenodd" d="M458.528 662.571L502.073 698.863C508.372 704.105 517.677 703.505 523.227 697.458L586.02 629.175C591.761 622.931 591.353 613.189 585.11 607.434C578.861 601.709 569.129 602.105 563.387 608.35L510.506 665.87L478.21 638.942C471.688 633.526 461.987 634.417 456.555 640.916C451.129 647.451 452.007 657.162 458.528 662.571ZM350.514 513.764C350.514 513.764 326.588 532.139 319.517 556.158C319.065 557.749 319.764 559.444 321.206 560.255L321.199 560.28C322.078 560.775 323.111 560.899 324.083 560.626C325.054 560.354 325.871 559.686 326.36 558.825C329.212 553.546 334.947 543.533 339.377 539.169C339.377 539.169 337.738 544.201 336.89 549.109C336.234 552.903 340.819 563.387 342.922 567.948C343.325 568.814 344.073 569.477 344.983 569.774C345.892 570.071 346.888 569.972 347.724 569.526C348.243 569.235 348.769 568.839 349.27 568.295C349.27 568.295 352.512 569.898 355.278 567.335C355.278 567.335 356.534 567.775 357.883 567.558C359.133 567.335 360.048 566.246 360.048 564.99C360.054 561.685 360.054 553.497 360.054 553.497V547.673L367.151 541.583L355.816 513.764H350.514Z" fill="white"/>
<path fill-rule="evenodd" clip-rule="evenodd" d="M350.513 512.804C350.302 512.804 350.098 512.872 349.925 512.996C349.925 512.996 325.746 531.593 318.593 555.891V555.916C318.086 557.711 318.736 559.611 320.196 560.75C320.338 561.065 320.728 561.115 320.728 561.115C321.829 561.734 323.128 561.882 324.341 561.536C325.548 561.189 326.575 560.384 327.193 559.295L327.2 559.27C329.439 555.149 333.473 548.019 337.229 543.111C336.777 544.838 336.288 546.911 335.936 548.935C335.725 550.166 335.991 552.066 336.573 554.239C337.841 558.973 340.557 565.138 342.042 568.343C342.562 569.451 343.515 570.318 344.678 570.689C345.841 571.079 347.11 570.955 348.186 570.367C348.625 570.12 349.077 569.798 349.51 569.402C350.68 569.773 353.192 570.243 355.518 568.393C356.093 568.517 357.046 568.665 358.036 568.492H358.042C359.75 568.22 361.006 566.74 361.006 564.989C361.012 561.709 361.012 553.496 361.012 553.496V548.118L367.775 542.325C368.09 542.053 368.195 541.607 368.041 541.236L356.7 513.392C356.557 513.02 356.205 512.804 355.815 512.804H350.513ZM322.083 559.636L321.743 559.462C321.718 559.462 321.699 559.438 321.674 559.413C320.623 558.825 320.109 557.593 320.437 556.43C327.008 534.137 348.279 516.746 350.847 514.722H355.165L365.999 541.31L359.428 546.936C359.212 547.134 359.094 547.406 359.094 547.678V553.496C359.094 553.496 359.094 561.684 359.082 564.989C359.082 565.781 358.512 566.468 357.727 566.592C356.625 566.79 355.592 566.419 355.592 566.419C355.258 566.295 354.881 566.394 354.621 566.617C352.356 568.74 349.702 567.434 349.702 567.434C349.318 567.236 348.854 567.31 348.564 567.632C348.137 568.096 347.697 568.442 347.258 568.69C346.039 569.346 344.517 568.894 343.855 567.675C343.83 567.632 343.806 567.582 343.787 567.533C342.333 564.395 339.673 558.354 338.429 553.744C337.934 551.893 337.65 550.315 337.829 549.281C338.664 544.442 340.285 539.46 340.285 539.46C340.421 539.045 340.254 538.575 339.877 538.352C339.499 538.104 339.011 538.178 338.695 538.476C334.216 542.888 328.394 553.026 325.51 558.354C325.145 559.004 324.533 559.481 323.815 559.685C323.246 559.858 322.64 559.84 322.083 559.636ZM321.743 559.462L321.755 559.487H321.773C321.872 559.537 321.978 559.586 322.083 559.636C322.268 559.809 322.38 560.131 322.033 560.75C322.275 560.304 322.157 559.784 321.767 559.487C321.73 559.462 321.693 559.462 321.662 559.438L321.743 559.462Z" fill="#18181B"/>
<path fill-rule="evenodd" clip-rule="evenodd" d="M400.296 341.283C400.296 341.283 378.926 361.162 382.409 399.546L410.22 465.743C410.22 465.743 372.856 488.915 366.954 493.785C361.057 498.625 360.136 504.158 360.136 504.158L349.141 513.72L366.954 543.538C366.954 543.538 444.231 513.293 450.628 504.158C457.019 495.048 463.374 474.742 450.628 438.679C418.604 348.128 400.296 341.283 400.296 341.283Z" fill="#196CFA"/>
<path fill-rule="evenodd" clip-rule="evenodd" d="M381.523 399.918L409.012 465.342C403.871 468.548 371.778 488.569 366.346 493.037C361.037 497.388 359.577 502.321 359.262 503.633L348.508 512.972C348.156 513.288 348.081 513.801 348.317 514.204L366.129 544.022C366.401 544.48 366.989 544.622 367.447 544.369C367.905 544.078 368.053 543.508 367.781 543.05L350.377 513.888L360.765 504.895C360.938 504.753 361.05 504.555 361.087 504.32C361.087 504.32 361.984 499.109 367.565 494.529C373.449 489.658 410.726 466.542 410.726 466.542C411.128 466.282 411.289 465.8 411.103 465.367L383.298 399.169C383.088 398.68 382.525 398.451 382.036 398.656C381.548 398.86 381.319 399.436 381.523 399.918ZM344.635 547.29V553.2C344.635 553.262 344.666 553.349 344.666 553.411L348.323 568.512C348.447 569.038 348.972 569.372 349.492 569.223C350.018 569.1 350.321 568.605 350.197 568.085L346.572 553.076V547.29C346.572 546.77 346.139 546.337 345.619 546.337C345.062 546.337 344.635 546.77 344.635 547.29ZM352.258 547.29V553.2C352.258 553.231 352.258 553.287 352.289 553.318L354.318 567.497C354.411 568.023 354.906 568.357 355.426 568.295C355.951 568.239 356.316 567.744 356.224 567.224L354.194 553.138V547.29C354.194 546.77 353.767 546.337 353.242 546.337C352.691 546.337 352.258 546.77 352.258 547.29Z" fill="#18181B"/>
<path fill-rule="evenodd" clip-rule="evenodd" d="M362.404 508.725C362.404 508.725 369.785 520.781 375.904 534.372C376.121 534.867 376.671 535.084 377.166 534.867C377.655 534.62 377.872 534.069 377.655 533.574C371.474 519.859 364.037 507.71 364.037 507.71C363.759 507.252 363.177 507.128 362.713 507.401C362.249 507.679 362.101 508.261 362.404 508.725ZM410.366 466.653C410.366 466.653 421.157 464.777 428.136 472.192C428.507 472.594 429.088 472.594 429.491 472.254C429.893 471.882 429.893 471.27 429.521 470.867C421.899 462.716 410.032 464.777 410.032 464.777C409.506 464.87 409.166 465.359 409.259 465.885C409.352 466.411 409.846 466.745 410.366 466.653Z" fill="#18181B"/>
<path fill-rule="evenodd" clip-rule="evenodd" d="M187.57 360.821C187.57 360.821 184.495 362.195 184.087 372.735C183.678 383.244 194.128 409.429 194.128 409.429C194.128 409.429 204.813 418.106 220.17 407.226L217.714 385.973L187.57 360.821Z" fill="white"/>
<path fill-rule="evenodd" clip-rule="evenodd" d="M188.182 360.104C187.909 359.844 187.507 359.789 187.179 359.962C187.179 359.962 183.566 361.336 183.127 372.68C182.718 383.338 193.237 409.771 193.237 409.771C193.298 409.913 193.397 410.055 193.521 410.173C193.521 410.173 204.689 419.37 220.726 407.995C221.01 407.797 221.165 407.45 221.128 407.11L218.672 385.857C218.647 385.597 218.523 385.368 218.331 385.225L188.182 360.104ZM187.6 362.11L216.803 386.457L219.148 406.763C205.864 415.873 196.349 409.826 194.913 408.824C193.849 406.132 184.661 382.589 185.039 372.761C185.212 368.206 185.899 365.402 186.61 363.737C186.944 362.97 187.322 362.425 187.6 362.11Z" fill="#18181B"/>
<path fill-rule="evenodd" clip-rule="evenodd" d="M222.676 335.49C222.163 333.46 220.139 332.204 218.104 332.655C210.673 334.314 193.832 338.027 186.086 339.766C185.04 339.983 184.143 340.652 183.598 341.561C183.054 342.496 182.918 343.591 183.221 344.612L199.864 400.932C200.44 402.882 202.426 404.057 204.406 403.606C211.391 402.052 226.939 398.549 234.203 396.922C235.217 396.705 236.102 396.067 236.647 395.182C237.191 394.297 237.358 393.227 237.098 392.212C234.172 380.706 225.522 346.692 222.676 335.49Z" fill="#18181B"/>
<path fill-rule="evenodd" clip-rule="evenodd" d="M192.031 374.425C192.031 374.425 204.801 363.112 216.996 350.82C217.683 350.152 218.605 349.793 219.564 349.818C220.523 349.849 221.42 350.307 222.045 351.018C222.954 352.108 223.041 353.655 222.261 354.8C219.205 359.411 211.557 370.668 207.443 374.419C207.443 374.419 217.015 366.769 223.171 362.53C223.845 362.072 224.687 361.929 225.478 362.127C226.277 362.301 226.963 362.796 227.372 363.501C227.415 363.545 227.446 363.594 227.471 363.644C228.164 364.789 228.015 366.28 227.106 367.252C223.598 371.064 215.016 380.311 211.533 383.12C211.533 383.12 220.733 375.7 225.633 371.751C226.351 371.182 227.291 370.978 228.188 371.182C229.079 371.411 229.828 372.011 230.199 372.871C230.62 373.818 230.459 374.908 229.779 375.706C225.052 381.159 220.325 386.611 215.591 392.063C220.207 388.913 223.938 386.103 228.566 382.013C229.098 381.555 229.816 381.381 230.496 381.555C231.177 381.728 231.727 382.242 231.975 382.898C232.377 383.981 232.216 385.194 231.548 386.134C229.345 389.173 224.018 396.099 218.054 400.542" fill="white"/>
<path fill-rule="evenodd" clip-rule="evenodd" d="M221.314 351.656C221.939 352.398 222.001 353.463 221.456 354.292C218.431 358.847 210.864 370.018 206.793 373.713C206.409 374.054 206.372 374.66 206.706 375.056C207.034 375.452 207.628 375.514 208.024 375.18C208.03 375.174 208.03 375.174 208.036 375.168C208.036 375.168 217.564 367.574 223.696 363.34C224.16 363.025 224.723 362.938 225.255 363.056C225.793 363.198 226.257 363.514 226.542 364.003L226.641 364.176C227.117 364.95 227.012 365.946 226.393 366.608C222.91 370.421 214.384 379.586 210.926 382.365C210.511 382.706 210.443 383.318 210.777 383.739C211.111 384.142 211.711 384.197 212.126 383.882C212.126 383.882 221.32 376.461 226.226 372.512C226.715 372.141 227.352 371.999 227.959 372.141C228.559 372.29 229.06 372.698 229.32 373.261C229.592 373.874 229.487 374.586 229.054 375.093L214.867 391.451C214.551 391.822 214.551 392.367 214.873 392.713C215.189 393.078 215.727 393.153 216.135 392.887C220.782 389.705 224.543 386.871 229.202 382.774C229.493 382.514 229.889 382.402 230.267 382.514C230.644 382.6 230.947 382.885 231.077 383.232L231.083 383.263C231.362 384.036 231.244 384.921 230.768 385.584C228.596 388.591 223.356 395.436 217.484 399.793C217.057 400.109 216.97 400.709 217.286 401.136C217.602 401.563 218.202 401.656 218.622 401.341C218.622 401.341 218.622 401.341 218.629 401.341C224.68 396.841 230.093 389.798 232.327 386.735L232.333 386.704C233.181 385.503 233.385 383.962 232.878 382.582L232.853 382.526C232.488 381.61 231.702 380.892 230.737 380.663C229.753 380.41 228.701 380.657 227.934 381.319C225.929 383.096 223.869 384.804 221.759 386.444L230.508 376.362C231.436 375.291 231.659 373.787 231.083 372.494C230.588 371.38 229.598 370.575 228.417 370.291C227.235 370.006 225.985 370.26 225.032 371.033L224.661 371.349C225.898 370 226.994 368.83 227.816 367.939C229.017 366.621 229.209 364.702 228.293 363.186C228.262 363.13 228.225 363.074 228.188 363.012C227.631 362.096 226.734 361.434 225.694 361.205C224.649 360.976 223.554 361.15 222.65 361.75H222.625C220.107 363.495 217.014 365.791 214.236 367.908C217.663 363.384 221.202 358.142 223.059 355.363C224.079 353.847 223.962 351.81 222.774 350.406H222.755C221.97 349.471 220.819 348.914 219.6 348.889C218.369 348.827 217.175 349.298 216.315 350.177C204.138 362.437 191.393 373.719 191.393 373.719C190.997 374.066 190.96 374.66 191.306 375.056L191.313 375.062C191.665 375.458 192.272 375.496 192.668 375.149C192.668 375.149 205.456 363.836 217.676 351.52H217.682C218.171 351.031 218.839 350.771 219.526 350.802C220.213 350.833 220.856 351.142 221.308 351.662L221.314 351.656ZM231.77 383.82C231.832 383.851 231.956 383.875 232.191 383.82C232.048 383.875 231.906 383.851 231.77 383.82ZM231.615 383.795H231.622H231.603H231.615ZM231.133 383.331C231.182 383.442 231.25 383.529 231.349 383.615C231.256 383.541 231.188 383.442 231.133 383.331ZM221.71 351.94C221.815 351.971 221.945 351.996 222.112 351.996C221.97 351.996 221.834 351.971 221.71 351.94ZM221.363 351.711C221.438 351.798 221.53 351.854 221.642 351.909C221.537 351.86 221.444 351.792 221.363 351.711Z" fill="#18181B"/>
<path fill-rule="evenodd" clip-rule="evenodd" d="M284.528 346.84C284.528 346.84 277.481 347.527 265.33 370.816C253.178 394.074 238.069 423.75 238.069 423.75L257.336 493.784C257.336 493.784 280.63 452.077 288.556 433.089C296.488 414.064 284.528 346.84 284.528 346.84Z" fill="#196CFA"/>
<path fill-rule="evenodd" clip-rule="evenodd" d="M237.141 424.005L256.413 494.039C256.519 494.41 256.834 494.67 257.224 494.726C257.614 494.782 257.991 494.584 258.177 494.237C258.177 494.237 281.508 452.474 289.446 433.455C289.651 432.966 289.422 432.397 288.933 432.193C288.444 431.989 287.881 432.224 287.677 432.706C280.815 449.15 262.415 482.633 257.645 491.254L238.997 423.485C238.854 422.971 238.329 422.656 237.815 422.798C237.302 422.946 237.005 423.491 237.141 424.005Z" fill="#18181B"/>
<path fill-rule="evenodd" clip-rule="evenodd" d="M193.139 406.849C193.139 406.849 190.986 407.307 191.332 411.175C191.679 415.043 194.512 422.204 194.512 422.204C194.512 422.204 193.058 424.178 193.702 429.08C194.345 433.975 217.739 485.963 229.921 496.391C242.11 506.813 255.134 501.466 260.213 488.172C265.293 474.909 240.377 421.115 232.26 414.616C228.721 411.782 226.487 413.614 226.487 413.614C226.487 413.614 222.231 401.929 218.104 403.303L193.139 406.849Z" fill="#196CFA"/>
<path fill-rule="evenodd" clip-rule="evenodd" d="M193.003 405.902C192.984 405.902 192.966 405.902 192.947 405.933C192.947 405.933 192.118 406.044 191.37 406.935C190.776 407.653 190.169 408.941 190.373 411.262C190.677 414.641 192.83 420.483 193.448 422.117C192.997 423.033 192.223 425.236 192.749 429.191C193.077 431.654 199.11 446.031 206.627 461.07C214.144 476.134 223.153 491.86 229.296 497.102C235.694 502.573 242.333 503.861 248.019 502.085C253.686 500.314 258.45 495.469 261.111 488.512C261.964 486.278 262.051 482.954 261.488 478.919C260.684 473.102 258.574 465.743 255.808 458.093C250.982 444.744 244.158 430.423 238.818 421.715C236.467 417.847 234.37 415.068 232.854 413.867C230.8 412.208 229.105 411.979 227.941 412.091C227.583 412.147 227.267 412.202 226.995 412.289C226.252 410.482 224.514 406.589 222.447 404.268C221.03 402.696 219.422 401.891 217.887 402.349L193.003 405.902ZM193.349 407.796L218.228 404.243C218.283 404.243 218.339 404.212 218.395 404.212C218.772 404.07 219.15 404.157 219.521 404.33C220.034 404.59 220.529 405.048 221.012 405.561C223.58 408.427 225.572 413.954 225.572 413.954C225.683 414.238 225.924 414.467 226.221 414.554C226.518 414.641 226.846 414.554 227.088 414.356C227.088 414.356 228.826 413.093 231.648 415.359C233.058 416.504 234.976 419.109 237.173 422.717C242.456 431.338 249.213 445.517 253.989 458.749C256.705 466.257 258.784 473.473 259.576 479.173C260.077 482.812 260.071 485.82 259.304 487.825C256.885 494.181 252.597 498.65 247.437 500.253C242.296 501.856 236.325 500.599 230.54 495.642C224.501 490.486 215.722 474.989 208.335 460.21C200.953 445.456 194.964 431.369 194.643 428.931C194.061 424.549 195.274 422.773 195.274 422.773C195.472 422.488 195.515 422.142 195.397 421.857C195.397 421.857 192.619 414.839 192.279 411.088C192.062 408.625 193.232 407.882 193.349 407.796Z" fill="#18181B"/>
<path d="M189.859 347.899C191.14 347.899 192.185 346.859 192.185 345.572C192.185 344.291 191.146 343.245 189.859 343.245C188.572 343.245 187.533 344.285 187.533 345.572C187.539 346.859 188.578 347.899 189.859 347.899Z" fill="white"/>
<path fill-rule="evenodd" clip-rule="evenodd" d="M192.722 375.101C192.567 375.193 192.443 375.286 192.289 375.348L192.01 375.534L197.207 403.706L202.528 404.226L217.074 401.428C217.074 401.397 217.167 401.088 217.105 400.754C217.043 400.352 217.198 400.017 217.414 399.801C217.464 399.745 217.507 399.683 217.538 399.615C218.058 398.91 214.154 394.973 214.154 394.973L192.722 375.101Z" fill="white"/>
<path fill-rule="evenodd" clip-rule="evenodd" d="M199.331 422.03C199.331 422.03 212.274 421.782 222.267 417.846C222.755 417.66 223.003 417.11 222.823 416.614C222.638 416.126 222.056 415.878 221.561 416.057C211.878 419.87 199.269 420.117 199.269 420.117C198.762 420.117 198.347 420.526 198.347 421.04C198.347 421.064 198.347 421.083 198.347 421.108C198.347 421.628 198.78 422.061 199.331 422.03Z" fill="#18181B"/>
<path fill-rule="evenodd" clip-rule="evenodd" d="M50.0651 157.005V165.947C50.0651 166.495 50.4907 166.951 51.0022 166.951C51.5319 166.951 51.9394 166.495 51.9394 165.947V157.005C51.9394 156.437 51.5364 156 51.0022 156C50.4907 155.995 50.0697 156.442 50.0651 156.99C50.0651 156.995 50.0651 157 50.0651 157.005ZM50.0651 176.058V184.995C50.0651 185.544 50.4907 186 51.0022 186C51.5319 186 51.9394 185.544 51.9394 184.995V176.058C51.9394 175.49 51.5364 175.053 51.0022 175.053C50.4907 175.049 50.0697 175.495 50.0651 176.044C50.0651 176.053 50.0651 176.058 50.0651 176.058ZM64.0629 169.981H55.7285C55.2124 169.985 54.7959 170.432 54.7914 170.985C54.7914 171.553 55.217 171.99 55.7285 171.99H64.0629C64.5925 171.99 65 171.558 65 170.985C65.0045 170.437 64.588 169.985 64.0765 169.981C64.0719 169.981 64.0674 169.981 64.0629 169.981ZM46.2714 169.981H37.9371C37.421 169.985 37.0045 170.432 37 170.985C37 171.553 37.4255 171.99 37.9371 171.99H46.2714C46.8011 171.99 47.2086 171.558 47.2086 170.985C47.2131 170.437 46.7966 169.985 46.285 169.981C46.276 169.981 46.2714 169.981 46.2714 169.981Z" fill="#3D61FF" fill-opacity="0.2"/>
<path fill-rule="evenodd" clip-rule="evenodd" d="M488.065 348.005V356.947C488.065 357.495 488.491 357.951 489.002 357.951C489.532 357.951 489.939 357.495 489.939 356.947V348.005C489.939 347.437 489.536 347 489.002 347C488.491 346.995 488.07 347.442 488.065 347.99C488.065 347.995 488.065 348 488.065 348.005ZM488.065 367.058V375.995C488.065 376.544 488.491 377 489.002 377C489.532 377 489.939 376.544 489.939 375.995V367.058C489.939 366.49 489.536 366.053 489.002 366.053C488.491 366.049 488.07 366.495 488.065 367.044C488.065 367.053 488.065 367.058 488.065 367.058ZM502.063 360.981H493.729C493.212 360.985 492.796 361.432 492.791 361.985C492.791 362.553 493.217 362.99 493.729 362.99H502.063C502.593 362.99 503 362.558 503 361.985C503.004 361.437 502.588 360.985 502.076 360.981C502.072 360.981 502.067 360.981 502.063 360.981ZM484.271 360.981H475.937C475.421 360.985 475.005 361.432 475 361.985C475 362.553 475.426 362.99 475.937 362.99H484.271C484.801 362.99 485.209 362.558 485.209 361.985C485.213 361.437 484.797 360.985 484.285 360.981C484.276 360.981 484.271 360.981 484.271 360.981Z" fill="#3D61FF" fill-opacity="0.2"/>
<path fill-rule="evenodd" clip-rule="evenodd" d="M453.065 63.0049V71.9466C453.065 72.4952 453.491 72.9515 454.002 72.9515C454.532 72.9515 454.939 72.4952 454.939 71.9466V63.0049C454.939 62.4369 454.536 62 454.002 62C453.491 61.9952 453.07 62.4418 453.065 62.9903C453.065 62.9952 453.065 63 453.065 63.0049ZM453.065 82.0583V90.9951C453.065 91.5437 453.491 92 454.002 92C454.532 92 454.939 91.5437 454.939 90.9951V82.0583C454.939 81.4903 454.536 81.0534 454.002 81.0534C453.491 81.0485 453.07 81.4952 453.065 82.0437C453.065 82.0534 453.065 82.0583 453.065 82.0583ZM467.063 75.9806H458.729C458.212 75.9855 457.796 76.432 457.791 76.9854C457.791 77.5534 458.217 77.9903 458.729 77.9903H467.063C467.593 77.9903 468 77.5583 468 76.9854C468.004 76.4369 467.588 75.9855 467.076 75.9806C467.072 75.9806 467.067 75.9806 467.063 75.9806ZM449.271 75.9806H440.937C440.421 75.9855 440.005 76.432 440 76.9854C440 77.5534 440.426 77.9903 440.937 77.9903H449.271C449.801 77.9903 450.209 77.5583 450.209 76.9854C450.213 76.4369 449.797 75.9855 449.285 75.9806C449.276 75.9806 449.271 75.9806 449.271 75.9806Z" fill="#3D61FF" fill-opacity="0.2"/>
<path fill-rule="evenodd" clip-rule="evenodd" d="M40.9353 857.701H719.063C719.783 857.701 720.323 857.097 720.323 856.326C720.323 855.562 719.783 854.918 719.063 854.918H40.9353C40.2156 854.918 39.6758 855.562 39.6758 856.326C39.6758 857.097 40.2156 857.701 40.9353 857.701Z" fill="#F77E08"/>
<path fill-rule="evenodd" clip-rule="evenodd" d="M657.065 172.005V180.947C657.065 181.495 657.491 181.951 658.002 181.951C658.532 181.951 658.939 181.495 658.939 180.947V172.005C658.939 171.437 658.536 171 658.002 171C657.491 170.995 657.07 171.442 657.065 171.99C657.065 171.995 657.065 172 657.065 172.005ZM657.065 191.058V199.995C657.065 200.544 657.491 201 658.002 201C658.532 201 658.939 200.544 658.939 199.995V191.058C658.939 190.49 658.536 190.053 658.002 190.053C657.491 190.049 657.07 190.495 657.065 191.044C657.065 191.053 657.065 191.058 657.065 191.058ZM671.063 184.981H662.729C662.212 184.985 661.796 185.432 661.791 185.985C661.791 186.553 662.217 186.99 662.729 186.99H671.063C671.593 186.99 672 186.558 672 185.985C672.004 185.437 671.588 184.985 671.076 184.981C671.072 184.981 671.067 184.981 671.063 184.981ZM653.271 184.981H644.937C644.421 184.985 644.005 185.432 644 185.985C644 186.553 644.426 186.99 644.937 186.99H653.271C653.801 186.99 654.209 186.558 654.209 185.985C654.213 185.437 653.797 184.985 653.285 184.981C653.276 184.981 653.271 184.981 653.271 184.981Z" fill="#3D61FF" fill-opacity="0.2"/>
<path fill-rule="evenodd" clip-rule="evenodd" d="M706.715 460.643C706.528 460.575 706.338 460.501 706.143 460.419C702.856 459.029 698.524 455.413 693.304 447.925C693.19 447.76 693.145 447.557 693.181 447.36C693.216 447.163 693.328 446.988 693.492 446.874C693.656 446.759 693.859 446.715 694.056 446.75C694.252 446.785 694.427 446.897 694.542 447.062C699.013 453.479 702.76 456.957 705.748 458.558C705.424 457.355 705.441 456.02 705.913 454.549C706.336 453.238 707.498 452.332 708.874 451.999C710.877 451.514 713.283 452.253 714.245 454.542C715.106 456.593 714.256 459.477 711.829 460.646C711.084 461.005 710.183 461.206 709.132 461.154C709.676 461.671 710.3 462.14 710.966 462.568C715.347 465.387 721.622 466.434 721.622 466.434C721.814 466.473 721.984 466.585 722.095 466.746C722.207 466.908 722.251 467.107 722.218 467.3C722.186 467.494 722.08 467.667 721.922 467.783C721.764 467.899 721.567 467.95 721.373 467.923C721.373 467.923 714.767 466.807 710.15 463.837C708.758 462.941 707.547 461.881 706.715 460.643ZM707.721 459.385C707.028 458.142 706.807 456.695 707.349 455.012C707.612 454.196 708.372 453.673 709.229 453.466C710.573 453.141 712.211 453.589 712.855 455.126C713.443 456.528 712.833 458.487 711.175 459.286C710.295 459.709 709.14 459.8 707.721 459.385Z" fill="#18181B"/>
</svg>
