<svg width="740" height="920" viewBox="0 0 740 920" fill="none" xmlns="http://www.w3.org/2000/svg">
<path fill-rule="evenodd" clip-rule="evenodd" d="M32.8726 787.522H627.846C628.477 787.522 628.951 786.993 628.951 786.316C628.951 785.646 628.477 785.081 627.846 785.081H32.8726C32.2412 785.081 31.7676 785.646 31.7676 786.316C31.7676 786.993 32.2412 787.522 32.8726 787.522Z" fill="#F77E08"/>
<path fill-rule="evenodd" clip-rule="evenodd" d="M696.692 516.126C696.692 513.549 695.734 511.09 694.074 509.266C692.381 507.484 690.1 506.454 687.726 506.454H593.584C591.216 506.454 588.935 507.484 587.242 509.266C585.577 511.09 584.624 513.549 584.624 516.126V611.042C584.624 613.619 585.577 616.078 587.242 617.861C588.935 619.685 591.216 620.714 593.584 620.714H687.726C690.1 620.714 692.381 619.685 694.074 617.861C695.734 616.078 696.692 613.619 696.692 611.042V516.126Z" fill="white"/>
<path fill-rule="evenodd" clip-rule="evenodd" d="M697.806 515.294C697.806 512.399 696.761 509.623 694.883 507.605C692.972 505.54 690.419 504.393 687.735 504.393H593.593C590.915 504.393 588.356 505.54 586.478 507.605C584.568 509.628 583.522 512.405 583.522 515.294V610.21C583.522 613.105 584.568 615.882 586.478 617.9C588.356 619.923 590.915 621.076 593.593 621.076H687.735C690.419 621.076 692.972 619.923 694.883 617.9C696.761 615.882 697.806 613.105 697.806 610.21V515.294ZM695.558 515.294V610.21C695.558 612.428 694.73 614.611 693.282 616.199C691.807 617.782 689.815 618.664 687.735 618.658H593.593C591.497 618.658 589.527 617.782 588.052 616.199C586.604 614.611 585.771 612.428 585.771 610.21V515.294C585.771 513.035 586.604 510.893 588.052 509.305C589.527 507.716 591.497 506.846 593.593 506.846H687.735C689.831 506.846 691.802 507.716 693.282 509.305C694.736 510.899 695.558 513.052 695.558 515.294Z" fill="#18181B"/>
<path fill-rule="evenodd" clip-rule="evenodd" d="M696.676 516.679C696.676 513.99 695.696 511.378 693.9 509.466C692.13 507.56 689.713 506.46 687.226 506.46H594.14C591.619 506.46 589.235 507.554 587.433 509.466C585.669 511.372 584.689 513.99 584.689 516.679V538.381H696.676V516.679Z" fill="#2E33C7"/>
<path d="M611.174 527.869C613.71 527.869 615.768 525.645 615.768 522.904C615.768 520.162 613.71 517.938 611.174 517.938C608.637 517.938 606.579 520.162 606.579 522.904C606.579 525.645 608.637 527.863 611.174 527.869ZM670.199 527.869C672.736 527.869 674.793 525.645 674.793 522.904C674.793 520.162 672.736 517.938 670.199 517.938C667.662 517.938 665.604 520.162 665.604 522.904C665.604 525.645 667.662 527.863 670.199 527.869Z" fill="white"/>
<path d="M636.72 591.087V596.117H609.9V592.193L625.098 576.35C626.944 574.426 628.19 572.767 628.827 571.361C629.469 569.955 629.791 568.549 629.791 567.131C629.791 565.008 629.105 563.372 627.738 562.196C626.367 561.019 624.401 560.448 621.843 560.448C617.722 560.448 614.538 561.896 612.3 564.825L608.675 561.413C610.134 559.501 612.044 558.001 614.407 556.93C616.769 555.848 619.41 555.318 622.322 555.318C626.236 555.318 629.344 556.318 631.658 558.336C633.966 560.354 635.12 563.096 635.12 566.555C635.12 568.696 634.695 570.738 633.841 572.65C632.986 574.573 631.369 576.762 628.99 579.233L617.581 591.087H636.72ZM672.55 586.192H665.463V596.117H660.286V586.192H639.546V582.157L658.636 555.777H664.396L646.105 581.245H660.449V572.491H665.463V581.245H672.55V586.192Z" fill="#18181B"/>
<path fill-rule="evenodd" clip-rule="evenodd" d="M593.296 316.502C593.296 314.808 592.675 313.213 591.565 312.013C590.487 310.848 588.979 310.178 587.444 310.178H540.738C539.165 310.178 537.695 310.848 536.584 312.013C535.501 313.213 534.88 314.808 534.88 316.502V383.345C534.88 385.004 535.501 386.633 536.584 387.798C537.695 388.998 539.165 389.634 540.738 389.634H587.444C588.979 389.634 590.487 388.998 591.565 387.798C592.675 386.633 593.296 385.004 593.296 383.345V316.502Z" fill="white"/>
<path fill-rule="evenodd" clip-rule="evenodd" d="M594.411 316.496C594.411 314.484 593.687 312.572 592.38 311.16C591.074 309.748 589.304 308.972 587.443 308.972H540.736C538.869 308.972 537.105 309.748 535.799 311.16C534.487 312.572 533.736 314.484 533.736 316.496V383.339C533.736 385.316 534.487 387.228 535.799 388.64C537.105 390.051 538.869 390.863 540.736 390.863H587.443C589.304 390.863 591.074 390.051 592.38 388.64C593.681 387.234 594.411 385.327 594.411 383.339V316.496ZM592.151 316.496V383.339C592.151 384.692 591.662 385.986 590.78 386.945C589.892 387.898 588.695 388.428 587.443 388.434H540.736C539.457 388.434 538.281 387.904 537.399 386.945C536.518 385.992 535.995 384.686 535.995 383.339V316.496C535.995 315.155 536.518 313.843 537.399 312.89C538.281 311.937 539.457 311.407 540.736 311.407H587.443C588.684 311.407 589.892 311.937 590.78 312.89C591.656 313.855 592.151 315.149 592.151 316.496Z" fill="#196CFA"/>
<path fill-rule="evenodd" clip-rule="evenodd" d="M564.521 318.773L573.78 301.348C574.107 300.783 573.911 300.007 573.388 299.683C572.833 299.365 572.142 299.542 571.815 300.142L562.561 317.567C562.234 318.132 562.43 318.873 562.986 319.232C563.508 319.55 564.194 319.373 564.521 318.773ZM544.074 344.264H566.529C567.139 344.264 567.651 343.7 567.651 343.029C567.651 342.358 567.139 341.829 566.529 341.829H544.074C543.437 341.829 542.931 342.358 542.931 343.029C542.931 343.7 543.437 344.264 544.074 344.264ZM544.102 359.466H584.183C584.776 359.466 585.31 358.901 585.31 358.231C585.31 357.56 584.776 357.031 584.183 357.031H544.102C543.476 357.031 542.975 357.56 542.975 358.231C542.975 358.901 543.476 359.466 544.102 359.466ZM544.102 374.697H584.183C584.776 374.697 585.31 374.133 585.31 373.462C585.31 372.791 584.776 372.262 584.183 372.262H544.102C543.476 372.262 542.975 372.791 542.975 373.462C542.975 374.133 543.476 374.697 544.102 374.697Z" fill="#18181B"/>
<path fill-rule="evenodd" clip-rule="evenodd" d="M96.233 427.432V435.15C96.233 435.821 96.7229 436.374 97.3435 436.374C97.9641 436.38 98.4703 435.839 98.4758 435.168C98.4758 435.162 98.4758 435.156 98.4758 435.156V427.438C98.4812 426.767 97.9804 426.22 97.3598 426.214C97.3544 426.214 97.3544 426.214 97.3489 426.214C96.7284 426.208 96.233 426.761 96.233 427.432ZM96.233 443.892V451.611C96.233 452.282 96.7229 452.835 97.3435 452.835C97.9641 452.84 98.4703 452.299 98.4758 451.629C98.4758 451.623 98.4758 451.623 98.4758 451.617V443.898C98.4812 443.228 97.9804 442.68 97.3598 442.675C97.3544 442.675 97.3544 442.675 97.3489 442.675C96.7284 442.669 96.233 443.222 96.233 443.892ZM108.546 438.315H101.404C100.784 438.315 100.272 438.845 100.272 439.515C100.272 440.204 100.784 440.739 101.404 440.739H108.546C109.167 440.745 109.673 440.204 109.673 439.533C109.673 439.527 109.673 439.527 109.673 439.521C109.679 438.851 109.167 438.315 108.546 438.315ZM93.288 438.315H86.1459C85.5254 438.315 85.0137 438.845 85.0137 439.515C85.0137 440.204 85.5254 440.739 86.1459 440.739H93.288C93.9086 440.745 94.4148 440.204 94.4203 439.533C94.4203 439.527 94.4203 439.527 94.4203 439.521C94.4203 438.851 93.9086 438.315 93.288 438.315Z" fill="#196CFA"/>
<path fill-rule="evenodd" clip-rule="evenodd" d="M430.975 551.599C428.09 551.593 425.749 554.123 425.744 557.241C425.744 557.247 425.744 557.253 425.744 557.259C425.744 560.371 428.095 562.877 430.975 562.877C433.855 562.877 436.174 560.365 436.174 557.259C436.174 554.111 433.855 551.599 430.975 551.599ZM430.975 554.041C432.614 554.041 433.92 555.488 433.92 557.259C433.92 559.024 432.614 560.441 430.975 560.441C429.342 560.441 427.997 559.029 427.997 557.259C427.997 555.488 429.342 554.041 430.975 554.041ZM203.497 486.845C199.779 486.839 196.763 490.092 196.757 494.104C196.757 494.11 196.757 494.116 196.757 494.128C196.757 498.158 199.768 501.446 203.497 501.446C207.225 501.446 210.268 498.158 210.268 494.128C210.263 490.098 207.225 486.845 203.497 486.845ZM203.497 489.286C205.984 489.286 208.009 491.439 208.009 494.128C208.009 496.816 205.984 499.005 203.497 499.005C201.009 499.005 199.016 496.811 199.016 494.128C199.011 491.463 201.003 489.292 203.469 489.286C203.475 489.28 203.486 489.28 203.497 489.286Z" fill="#18181B"/>
<path fill-rule="evenodd" clip-rule="evenodd" d="M158.84 222.218V233.054C158.84 233.719 159.351 234.272 159.967 234.272C160.603 234.272 161.093 233.719 161.093 233.054V222.218C161.093 221.53 160.609 221 159.967 221C159.351 220.994 158.845 221.535 158.84 222.2C158.84 222.206 158.84 222.212 158.84 222.218ZM158.84 245.309V256.139C158.84 256.804 159.351 257.357 159.967 257.357C160.603 257.357 161.093 256.804 161.093 256.139V245.309C161.093 244.62 160.609 244.091 159.967 244.091C159.351 244.085 158.845 244.626 158.84 245.291C158.84 245.303 158.84 245.309 158.84 245.309ZM175.671 237.943H165.65C165.029 237.949 164.528 238.49 164.523 239.161C164.523 239.849 165.035 240.379 165.65 240.379H175.671C176.308 240.379 176.798 239.855 176.798 239.161C176.804 238.496 176.303 237.949 175.688 237.943C175.682 237.943 175.677 237.943 175.671 237.943ZM154.278 237.943H144.256C143.636 237.949 143.135 238.49 143.129 239.161C143.129 239.849 143.641 240.379 144.256 240.379H154.278C154.915 240.379 155.405 239.855 155.405 239.161C155.41 238.496 154.909 237.949 154.294 237.943C154.283 237.943 154.278 237.943 154.278 237.943Z" fill="#196CFA"/>
<path fill-rule="evenodd" clip-rule="evenodd" d="M403.621 566.48C403.621 566.48 411.83 570.94 427.203 605.014C442.576 639.089 460.208 686.382 460.208 686.382L440.192 774.292L396.523 706.743V566.48H403.621Z" fill="white"/>
<path fill-rule="evenodd" clip-rule="evenodd" d="M404.113 565.385C403.983 565.315 403.787 565.244 403.624 565.244H396.525C395.904 565.244 395.382 565.809 395.382 566.48V706.743C395.382 706.99 395.447 707.237 395.61 707.449L439.241 774.962C439.502 775.35 439.96 775.562 440.39 775.456C440.814 775.386 441.174 775.033 441.272 774.574L461.288 686.699C461.353 686.417 461.321 686.17 461.255 685.923C461.255 685.923 443.623 638.588 428.218 604.478C412.584 569.803 404.113 565.385 404.113 565.385ZM403.33 567.686C404.636 568.603 412.453 575.069 426.193 605.543C440.782 637.847 457.363 682.034 459.029 686.487L439.666 771.391C439.666 771.391 400.809 711.267 397.641 706.39V567.686H403.33Z" fill="#18181B"/>
<path fill-rule="evenodd" clip-rule="evenodd" d="M204.629 571.398C204.629 571.398 212.936 562.879 238.353 546.019L302.686 551.072L396.588 561.462C397.508 656.019 397.933 722.892 396.588 780.898L212.61 775.668L204.629 571.398Z" fill="white"/>
<path fill-rule="evenodd" clip-rule="evenodd" d="M203.846 570.51C203.617 570.769 203.487 571.11 203.487 571.469L211.467 775.739C211.5 776.374 211.99 776.868 212.578 776.904L396.556 782.098C396.85 782.134 397.144 781.993 397.34 781.781C397.574 781.569 397.699 781.251 397.699 780.934C399.044 722.892 398.619 656.019 397.699 561.462C397.699 560.826 397.242 560.332 396.687 560.261L302.784 549.831H302.751L238.419 544.777C238.19 544.777 237.961 544.848 237.765 544.954C212.186 561.92 203.846 570.51 203.846 570.51ZM205.773 571.927C207.602 570.121 216.601 561.885 238.642 547.254L302.583 552.272C302.583 552.272 385.364 561.462 395.44 562.556C396.355 655.843 396.779 722.15 395.473 779.663C380.819 779.239 227.847 774.892 213.688 774.503C213.068 758.702 206.198 583.199 205.773 571.927Z" fill="#18181B"/>
<path fill-rule="evenodd" clip-rule="evenodd" d="M328.749 559.661C327.867 630.887 324.399 695.535 317.072 750.395H346.016C352.853 692.917 354.519 631.346 353.474 567.58L328.749 559.661Z" fill="#196CFA"/>
<path fill-rule="evenodd" clip-rule="evenodd" d="M310.579 563.232C310.579 563.232 307.824 626.781 306.991 645.718C306.942 647.095 307.405 648.43 308.271 649.436C309.163 650.431 310.355 650.966 311.64 650.966C313.758 650.966 315.478 649.189 315.565 646.913C316.289 629.634 319.016 563.232 319.016 563.232H310.579ZM361.504 564.227C361.504 564.227 361.477 626.704 361.488 646.336C361.488 647.836 362.065 649.272 363.083 650.295C364.111 651.284 365.478 651.772 366.85 651.642C368.679 651.478 370.116 649.813 370.083 647.824C370.072 631.423 369.92 563.456 369.92 563.456L361.504 564.227Z" fill="#18181B"/>
<path fill-rule="evenodd" clip-rule="evenodd" d="M310.177 476.276C310.177 476.276 270.439 471.01 261.146 488.577C257.287 495.825 256.242 512.65 256.242 512.65C256.242 512.65 234.129 506.891 234.69 548.602L238.909 545.807C296.933 586.988 354.265 595.083 403.296 566.133C403.296 566.133 410.982 537.289 397.275 533.082C397.275 533.082 401.663 500.208 377.455 498.161L310.177 476.276Z" fill="#196CFA"/>
<path fill-rule="evenodd" clip-rule="evenodd" d="M331.874 583.658C331.874 583.658 340.263 585.535 350.002 584.335C350.595 584.247 351.052 583.658 350.971 582.988C350.916 582.329 350.383 581.841 349.773 581.899C349.757 581.899 349.746 581.905 349.729 581.905C340.399 583.076 332.31 581.293 332.31 581.293C331.716 581.146 331.118 581.558 330.987 582.229C330.873 582.9 331.254 583.547 331.874 583.658Z" fill="#18181B"/>
<path d="M420.999 777.01H345.501V787.764H420.999V777.01Z" fill="#18181B"/>
<path fill-rule="evenodd" clip-rule="evenodd" d="M619.414 667.251C620.764 664.121 620.427 660.109 618.543 656.979C616.654 653.855 613.492 652.066 610.057 652.066H480.101C476.127 652.066 472.491 654.296 470.879 658.314C459.431 685.564 415.997 787.858 415.997 787.858H571.472C571.472 787.858 605.277 702.984 619.414 667.251Z" fill="#2E33C7"/>
<path fill-rule="evenodd" clip-rule="evenodd" d="M431.259 777.922L478.624 667.068C479.517 665.021 481.438 663.703 483.551 663.703H603.953C604.573 663.703 605.091 663.15 605.091 662.479C605.091 661.803 604.573 661.25 603.953 661.25H483.551C480.546 661.25 477.84 663.121 476.599 666.074C467.835 686.535 429.234 776.898 429.234 776.898C428.962 777.516 429.207 778.245 429.773 778.534C430.339 778.798 431.019 778.54 431.259 777.922ZM105.311 735.929V707.155H101.647C100.079 707.155 98.604 706.484 97.4935 705.319C96.4156 704.119 95.795 702.525 95.795 700.831V683.899H82.8065C77.7385 683.899 73.6177 679.446 73.6177 673.969V646.642H80.7488V669.368C80.7488 670.504 81.1734 671.598 81.892 672.41C82.6432 673.186 83.6557 673.645 84.6737 673.645H97.8854C98.9306 673.645 99.9431 673.186 100.667 672.41C101.418 671.604 101.843 670.51 101.843 669.368V643.812H108.68V691.43C108.68 693.689 110.346 695.495 112.409 695.495H120.226C122.322 695.495 123.988 693.689 123.988 691.43V662.197H131.609V700.831C131.609 702.525 130.988 704.119 129.905 705.319C128.794 706.484 127.319 707.155 125.751 707.155H120.389V735.929H105.311Z" fill="white"/>
<path fill-rule="evenodd" clip-rule="evenodd" d="M104.202 735.929C104.202 736.6 104.691 737.129 105.312 737.129H120.391C121.012 737.129 121.501 736.6 121.501 735.929V708.396H125.753C127.615 708.396 129.384 707.579 130.69 706.167C131.997 704.755 132.753 702.843 132.753 700.831V662.197C132.753 661.526 132.231 660.997 131.61 660.997H123.989C123.369 660.997 122.846 661.526 122.846 662.197V691.43C122.846 693.018 121.703 694.254 120.228 694.254H112.411C110.973 694.259 109.803 693.012 109.792 691.459C109.792 691.447 109.792 691.442 109.792 691.43V643.813C109.792 643.142 109.302 642.577 108.682 642.577H101.844C101.224 642.577 100.701 643.142 100.701 643.813V669.368C100.701 670.186 100.407 670.963 99.8848 671.527C99.3513 672.098 98.6382 672.41 97.8869 672.41H84.6752C83.9403 672.404 83.2327 672.086 82.7155 671.527C82.1875 670.951 81.8935 670.174 81.899 669.368V646.642C81.899 645.972 81.3764 645.407 80.7558 645.407H73.6247C73.0041 645.407 72.5142 645.972 72.5142 646.642V673.969C72.5142 680.117 77.1249 685.1 82.819 685.1H94.6589V700.831C94.6589 702.843 95.4101 704.755 96.7166 706.167C98.023 707.579 99.7922 708.396 101.654 708.396H104.207L104.202 735.929ZM106.455 734.693V707.155C106.455 706.484 105.933 705.955 105.312 705.955H101.648C100.375 705.955 99.1934 705.39 98.2789 704.437C97.397 703.484 96.9071 702.207 96.9071 700.831V683.899C96.9071 683.229 96.4172 682.664 95.7966 682.664H82.8081C78.3606 682.664 74.7624 678.775 74.7624 673.969V647.842H79.6344V669.368C79.6344 670.857 80.157 672.233 81.1042 673.257C82.046 674.281 83.3307 674.857 84.6698 674.851H97.8815C99.2206 674.851 100.533 674.287 101.48 673.257C102.427 672.233 102.95 670.857 102.95 669.368V645.019H107.56V691.43C107.56 694.359 109.716 696.695 112.4 696.695H120.217C122.895 696.713 125.072 694.383 125.089 691.489C125.089 691.471 125.089 691.447 125.089 691.43V663.432H130.483V700.831C130.483 702.207 129.961 703.484 129.079 704.437C128.197 705.39 126.989 705.955 125.742 705.955H120.38C119.759 705.955 119.27 706.484 119.27 707.155V734.693H106.455Z" fill="#18181B"/>
<path fill-rule="evenodd" clip-rule="evenodd" d="M73.847 644.129C74.6962 645.159 75.9102 645.706 77.1513 645.706C86.6995 645.747 129.481 645.741 142.535 645.741C144.827 645.741 146.754 643.876 146.982 641.417C147.701 633.752 147.08 619.191 130.466 625.245C130.466 625.245 137.303 600.419 128.632 595.283C121.991 591.359 116.433 598.401 116.433 598.401C116.433 598.401 117.347 572.474 97.2982 574.857C89.3505 575.775 82.056 589.306 86.6668 602.837C86.6668 602.837 77.1513 596.895 70.0202 604.743C63.183 612.261 62.9543 631.075 73.847 644.129Z" fill="white"/>
<path fill-rule="evenodd" clip-rule="evenodd" d="M73.0302 644.936V644.971C74.0862 646.23 75.5832 646.948 77.151 646.954H142.534C145.414 646.954 147.798 644.606 148.092 641.523C148.386 638.664 148.452 634.852 147.635 631.44C147.08 629.022 146.062 626.822 144.429 625.204C142.006 622.863 138.147 621.686 132.099 623.445C133.014 619.486 134.717 610.796 133.961 603.866C133.504 599.536 132.066 595.907 129.187 594.218C124.282 591.324 119.9 593.742 117.477 595.724C117.379 594.036 117.151 591.653 116.563 589.123C115.518 584.535 113.324 579.328 109.04 576.251C106.16 574.192 102.301 573.022 97.1672 573.645C93.6996 574.051 90.2974 576.616 87.8477 580.54C84.6741 585.635 83.041 593.006 84.8701 600.672C81.3698 599.319 74.6633 597.924 69.236 603.866C66.3236 607.055 64.5272 612.15 64.1679 618.021C63.6399 626.598 66.2583 636.835 73.0302 644.936ZM74.6959 643.324C68.3813 635.735 65.9317 626.198 66.4216 618.168C66.7155 612.961 68.2507 608.408 70.8364 605.584C77.3796 598.401 86.1112 603.902 86.1112 603.902C86.5032 604.155 87.0257 604.119 87.385 603.79C87.7443 603.46 87.875 602.907 87.7116 602.431C85.0933 594.73 86.5032 587.029 89.7095 581.899C91.7672 578.634 94.5162 576.393 97.4285 576.063C101.909 575.516 105.278 576.469 107.799 578.263C111.593 581.017 113.422 585.635 114.375 589.706C115.42 594.365 115.289 598.366 115.289 598.366C115.289 598.877 115.55 599.354 116.008 599.536C116.465 599.719 116.955 599.607 117.281 599.207C117.281 599.207 122.186 592.859 128.109 596.348C129.579 597.224 130.499 598.801 131.087 600.748C131.707 602.872 131.936 605.402 131.903 608.043C131.805 616.15 129.383 624.916 129.383 624.916C129.285 625.351 129.383 625.828 129.677 626.122C130.003 626.451 130.428 626.563 130.82 626.416C136.906 624.18 140.667 624.804 142.921 627.039C144.227 628.322 145.017 630.122 145.474 632.064C146.193 635.182 146.095 638.664 145.866 641.271C145.67 643.106 144.233 644.494 142.529 644.494H77.151C76.2201 644.489 75.3328 644.065 74.6959 643.324Z" fill="#18181B"/>
<path fill-rule="evenodd" clip-rule="evenodd" d="M57.1026 617.55C57.1026 617.55 60.2436 603.66 53.6023 602.531C48.0444 601.572 46.0466 611.261 57.1026 617.55Z" fill="white"/>
<path fill-rule="evenodd" clip-rule="evenodd" d="M56.5792 618.645C56.8731 618.821 57.2651 618.821 57.559 618.645C57.8856 618.504 58.1143 618.221 58.2122 617.833C58.2122 617.833 59.3881 612.603 58.8328 608.149C58.4082 604.755 56.9711 601.855 53.7648 601.325C50.8851 600.831 48.7567 602.566 48.1361 605.32C47.3522 608.82 49.2847 614.474 56.5792 618.645ZM56.3179 615.68C53.4055 613.768 51.6744 611.615 50.8252 609.597C50.27 608.22 50.1067 606.949 50.3353 605.884C50.6946 604.367 51.8378 603.449 53.411 603.731C55.5721 604.084 56.3233 606.202 56.5846 608.467C56.9058 611.05 56.5792 613.909 56.3179 615.68Z" fill="#18181B"/>
<path fill-rule="evenodd" clip-rule="evenodd" d="M140.397 615.209C140.397 615.209 139.896 596.813 148.535 597.313C155.769 597.725 155.878 610.497 140.397 615.209Z" fill="white"/>
<path fill-rule="evenodd" clip-rule="evenodd" d="M139.275 615.233C139.286 615.609 139.433 615.968 139.732 616.174C139.988 616.421 140.353 616.504 140.679 616.392C150.706 613.356 154.506 606.973 154.381 602.384C154.288 598.919 152.138 596.284 148.611 596.072C144.61 595.848 142.225 598.978 140.875 602.99C139.079 608.35 139.275 615.233 139.275 615.233ZM141.539 613.568C141.588 611.344 141.833 607.261 142.993 603.808C143.962 600.866 145.573 598.354 148.513 598.519C150.723 598.654 152.084 600.272 152.127 602.467C152.22 606.12 149.052 610.832 141.539 613.568Z" fill="#18181B"/>
<path fill-rule="evenodd" clip-rule="evenodd" d="M112.182 659.896C112.476 662.402 114.474 664.285 116.793 664.285H160.685C162.187 664.29 163.602 663.508 164.479 662.184C165.361 660.89 165.589 659.196 165.132 657.684C163.793 653.183 160.815 648.542 154.141 651.601C154.141 651.601 156.166 634.564 143.902 632.975C139.454 632.387 133.505 636.405 133.238 645.441C133.238 645.441 128.3 638.729 119.727 642.788C111.855 646.547 111.529 654.807 112.182 659.896Z" fill="white"/>
<path fill-rule="evenodd" clip-rule="evenodd" d="M111.07 660.079C111.462 663.179 113.917 665.503 116.797 665.503H160.689C162.551 665.503 164.287 664.544 165.398 662.921C166.476 661.297 166.77 659.197 166.214 657.279C165.3 654.255 163.667 651.231 160.95 650.013C159.481 649.313 157.646 649.131 155.393 649.831C155.458 648.095 155.393 645.371 154.739 642.601C153.596 637.7 150.782 632.647 144.043 631.764C139.562 631.17 133.607 634.711 132.333 642.859C130.042 641.018 125.529 638.73 119.285 641.683C110.804 645.701 110.352 654.549 111.07 660.079ZM113.291 659.75C112.704 655.031 112.932 647.36 120.194 643.93C127.88 640.241 132.361 646.177 132.361 646.177C132.654 646.583 133.144 646.73 133.602 646.583C134.026 646.436 134.353 645.96 134.353 645.477C134.614 637.406 139.78 633.682 143.77 634.194C149.328 634.894 151.62 639.135 152.535 643.195C153.514 647.395 153.025 651.455 153.025 651.455C152.992 651.86 153.155 652.302 153.482 652.561C153.798 652.825 154.228 652.884 154.592 652.708C156.884 651.672 158.68 651.602 160.058 652.266C162.186 653.225 163.362 655.696 164.048 658.055C164.407 659.197 164.211 660.485 163.558 661.485C162.905 662.479 161.827 663.068 160.678 663.068H116.792C115.028 663.068 113.52 661.632 113.291 659.75Z" fill="#18181B"/>
<path fill-rule="evenodd" clip-rule="evenodd" d="M32.1373 655.937C32.1101 657.214 32.5837 658.449 33.422 659.367C34.2495 660.267 35.3763 660.779 36.5521 660.779H90.5748C92.7522 660.779 94.6303 659.049 94.9569 656.679C95.5557 652.155 95.4033 645.054 89.3499 641.836C89.3499 641.836 92.3331 621.227 76.8514 619.498C68.3484 618.539 64.4399 627.058 64.4998 635.682C64.4998 635.682 60.085 626.105 54.1187 629.817C48.3322 633.423 51.6419 643.601 51.6419 643.601C51.6419 643.601 32.0448 639.853 32.1373 655.937Z" fill="white"/>
<path fill-rule="evenodd" clip-rule="evenodd" d="M31.0006 655.937C31.0006 657.531 31.5667 659.084 32.6119 660.214C33.6517 661.349 35.0724 661.99 36.5477 661.984H90.5703C93.3139 661.984 95.671 659.825 96.0575 656.89V656.854C96.7162 652.119 96.444 644.841 90.5703 641.164C90.7173 639.429 90.9296 635.293 90.0042 631.016C88.7195 625.221 85.3226 619.215 76.9667 618.291C68.9427 617.373 64.5606 624.092 63.5753 631.975C62.8894 631.016 62.0239 630.063 61.0114 629.287C58.9537 627.733 56.4169 626.986 53.5536 628.757C50.8971 630.416 49.8574 633.281 49.6178 636.111C49.4382 638.405 49.7975 640.67 50.1241 642.188C48.1862 641.976 44.9036 641.835 41.6538 642.541C38.4312 643.247 35.2684 644.806 33.2434 647.771C31.8661 649.754 30.9734 652.401 31.0006 655.937ZM33.2706 655.972V655.937C33.2434 653.042 33.9238 650.848 35.0289 649.224C36.7273 646.747 39.4165 645.547 42.1002 644.947C46.7545 643.918 51.4632 644.806 51.4632 644.806C51.8497 644.877 52.2362 644.735 52.5084 644.382C52.7751 644.059 52.835 643.6 52.7153 643.212C52.7153 643.212 51.6102 639.782 51.8824 636.323C52.0294 634.234 52.7153 632.081 54.6586 630.875C57.1355 629.357 59.2531 630.628 60.7718 632.222C62.4703 633.987 63.4882 636.217 63.4882 636.217C63.7277 636.711 64.2612 636.993 64.7729 636.852C65.2846 636.711 65.6384 636.217 65.6384 635.646C65.5731 627.769 68.9427 619.85 76.7271 620.697C83.8583 621.509 86.689 626.669 87.794 631.581C88.9263 636.746 88.2404 641.659 88.2404 641.659C88.1533 642.188 88.3874 642.718 88.8392 642.929C94.3591 645.865 94.3863 652.401 93.8201 656.501C93.5806 658.272 92.2088 659.578 90.5703 659.578C79.8627 659.578 47.7343 659.578 36.5477 659.543C35.6658 659.543 34.8166 659.161 34.1906 658.484C33.5972 657.813 33.2379 656.89 33.2706 655.972ZM149.389 736.169C149.743 734.952 149.487 733.622 148.785 732.587C148.082 731.557 146.977 730.963 145.774 730.963H82.2524C81.0494 730.963 79.9443 731.557 79.2421 732.587C78.5399 733.622 78.2895 734.952 78.6378 736.169C81.5012 746.788 88.0281 770.767 90.69 780.657C91.3923 783.239 93.5534 785.01 96.0629 785.01H131.915C134.375 785.01 136.585 783.239 137.288 780.657C139.949 770.809 146.476 746.788 149.389 736.169Z" fill="#2E33C7"/>
<path fill-rule="evenodd" clip-rule="evenodd" d="M365.061 736.223C365.061 736.223 404.277 727.239 407.843 726.816C411.408 726.357 435.48 741.806 435.48 741.806L431.555 751.065L415.398 744.382L429.002 757.072L421.778 774.186L402.121 769.726C402.121 769.726 386.291 781.216 368.888 773.933L365.061 736.223Z" fill="white"/>
<path fill-rule="evenodd" clip-rule="evenodd" d="M364.831 735.017C364.265 735.164 363.884 735.74 363.949 736.364L367.743 774.08C367.809 774.504 368.07 774.892 368.462 775.068C384.782 781.852 399.698 772.768 402.343 771.039L421.543 775.386C422.071 775.492 422.561 775.21 422.789 774.68L430.051 757.572C430.247 757.078 430.149 756.508 429.752 756.155L421.02 748.024L431.162 752.195C431.717 752.442 432.338 752.16 432.566 751.56L436.491 742.3C436.752 741.735 436.556 741.065 436.066 740.747C436.066 740.747 420.563 730.846 412.517 727.063C410.258 726.039 408.527 725.51 407.711 725.58C404.145 726.039 364.831 735.017 364.831 735.017ZM366.301 737.176C372.419 735.799 404.733 728.41 407.972 728.022C408.298 727.987 408.854 728.163 409.572 728.445C410.95 728.94 412.811 729.857 414.874 730.952C421.804 734.593 431.162 740.465 434.041 742.3L430.966 749.513L415.789 743.253C415.266 743.041 414.711 743.253 414.417 743.747C414.123 744.277 414.216 744.918 414.646 745.306L427.629 757.396L421.118 772.803L402.343 768.527C402.049 768.456 401.755 768.527 401.494 768.703C401.494 768.703 386.546 779.557 369.932 773.051L366.301 737.176Z" fill="#18181B"/>
<path fill-rule="evenodd" clip-rule="evenodd" d="M352.501 784.151C337.978 802.6 218.925 794.97 199.138 789.205C178.403 783.163 172.676 773.121 172.35 748.2C171.664 697.765 194.396 585.393 203.063 573.304C211.729 561.214 225.991 573.304 225.991 573.304C265.991 612.749 259.453 717.626 259.453 717.626C259.453 717.626 334.222 722.75 345.931 728.763C347.243 729.433 348.321 730.563 349.268 732.087C353.617 732.228 360.716 732.545 365.588 733.145C368.076 733.746 370.008 735.905 370.433 738.658C371.608 746.4 373.503 762.202 371.772 774.538C371.412 776.939 369.839 778.957 367.716 779.804C364.57 781.039 359.273 782.845 352.501 784.151Z" fill="white"/>
<path fill-rule="evenodd" clip-rule="evenodd" d="M353.056 785.281C359.762 783.94 364.961 782.169 368.102 780.934C370.623 779.945 372.419 777.574 372.876 774.75C374.613 762.237 372.713 746.294 371.537 738.446C371.047 735.228 368.755 732.652 365.81 731.946H365.712C361.036 731.34 354.264 731.022 349.85 730.881C348.87 729.434 347.727 728.339 346.415 727.669C342.855 725.827 333.53 724.062 322.212 722.503C298.859 719.291 266.97 716.956 260.623 716.497C260.95 709.708 262.223 675.704 256.143 640.924C251.597 614.838 242.899 588.329 226.736 572.386C226.704 572.386 226.704 572.351 226.671 572.351C226.671 572.351 222.942 569.168 218.07 567.615C213.067 565.95 206.851 566.021 202.175 572.563C199.524 576.24 195.566 589.035 191.38 606.567C181.766 647.036 170.743 712.855 171.233 748.2C171.396 760.961 172.997 769.944 177.15 776.48C181.336 783.057 188.141 787.264 198.838 790.37C212.735 794.435 275.441 799.424 316.812 795.676C327.509 794.717 336.796 793.164 343.437 790.87C347.89 789.346 351.194 787.475 353.056 785.281ZM352.305 782.951C352.043 783.022 351.815 783.163 351.619 783.375C349.986 785.458 346.91 787.122 342.757 788.57C336.213 790.793 327.122 792.317 316.622 793.27C275.544 796.982 213.236 792.07 199.431 788.04C189.388 785.105 182.948 781.251 179.023 775.103C175.065 768.844 173.661 760.325 173.492 748.165C173.002 712.961 183.993 647.465 193.574 607.167C197.629 590.13 201.391 577.616 203.944 574.045C207.934 568.498 213.165 568.568 217.455 569.945C221.641 571.292 224.913 573.939 225.239 574.222C241.069 589.847 249.474 615.827 253.955 641.382C260.661 679.946 258.304 717.556 258.304 717.556C258.304 717.873 258.402 718.191 258.598 718.438C258.794 718.685 259.055 718.832 259.382 718.868C259.382 718.868 295.947 721.374 321.951 724.91C332.942 726.427 342 728.092 345.467 729.857C346.583 730.422 347.531 731.446 348.314 732.757C348.543 733.075 348.87 733.287 349.229 733.287C353.546 733.428 360.546 733.746 365.386 734.346C367.416 734.84 368.951 736.611 369.311 738.835C370.492 746.506 372.354 762.131 370.655 774.362C370.329 776.339 369.082 777.963 367.351 778.639C364.21 779.875 359.011 781.64 352.305 782.951ZM425.93 761.473L412.027 752.042C411.515 751.683 410.807 751.86 410.486 752.424C410.16 752.995 410.296 753.748 410.835 754.107L424.716 763.537C425.255 763.89 425.957 763.726 426.284 763.155C426.61 762.584 426.447 761.831 425.93 761.473ZM423.197 767.961L408.619 760.89C408.053 760.614 407.372 760.89 407.133 761.502C406.861 762.114 407.106 762.837 407.672 763.108L422.277 770.179C422.822 770.456 423.497 770.179 423.769 769.568C424.014 768.956 423.769 768.232 423.197 767.961Z" fill="#18181B"/>
<path fill-rule="evenodd" clip-rule="evenodd" d="M348.756 740.182C348.756 740.182 351.679 756.607 350.759 776.286C350.732 776.957 351.217 777.516 351.843 777.569C352.463 777.598 352.975 777.074 353.029 776.404C353.922 756.437 350.977 739.711 350.977 739.711C350.841 739.07 350.27 738.629 349.649 738.747C349.028 738.864 348.647 739.505 348.756 740.182ZM259.219 716.444C259.219 716.444 242.959 719.597 226.623 739.129C226.22 739.623 226.242 740.382 226.704 740.853C227.162 741.288 227.897 741.259 228.299 740.764C244.015 721.968 259.622 718.838 259.622 718.838C260.215 718.721 260.624 718.079 260.515 717.409C260.406 716.762 259.813 716.326 259.219 716.444Z" fill="#18181B"/>
<path fill-rule="evenodd" clip-rule="evenodd" d="M304.118 523.004C304.118 523.004 283.318 510.932 288.969 494.842C293.623 481.553 315.316 485.8 315.316 485.8L369.339 505.038C369.339 505.038 392.409 529.511 364.249 537.065L304.118 523.004Z" fill="#196CFA"/>
<path fill-rule="evenodd" clip-rule="evenodd" d="M369.377 512.121L364.276 537.076C343.77 541.071 323.748 535.453 304.162 523.081L309.132 490.136L335.986 494.166L369.377 512.121Z" fill="white"/>
<path fill-rule="evenodd" clip-rule="evenodd" d="M370.454 512.368C370.584 511.839 370.323 511.274 369.866 511.027L336.474 493.072C336.366 493.001 336.24 492.96 336.11 492.966L309.262 488.936C308.658 488.86 308.108 489.313 308.021 489.96L303.018 522.869C302.953 523.364 303.181 523.858 303.573 524.105C323.459 536.653 343.709 542.307 364.477 538.277C364.934 538.206 365.293 537.818 365.391 537.324L370.454 512.368ZM368.069 512.792L363.355 536.012C343.568 539.618 324.308 534.206 305.37 522.44L310.046 491.513L335.62 495.331L368.069 512.792Z" fill="#18181B"/>
<path fill-rule="evenodd" clip-rule="evenodd" d="M310.371 446.996C310.371 446.996 303.022 440.607 294.122 446.007C285.243 451.402 287.334 462.598 289.876 467.469C292.451 472.346 300.349 476.487 306.49 477.276C306.49 477.276 307.796 494.578 317.704 505.502C327.611 516.427 348.221 524.44 368.264 513.639C376.68 509.091 381.835 499.202 384.568 491.53C387.262 483.853 395.096 463.239 395.096 463.239L383.719 409.656L331.155 404.309L314.846 446.331L310.371 446.996Z" fill="white"/>
<path fill-rule="evenodd" clip-rule="evenodd" d="M310.662 445.725C308.953 444.425 301.898 439.901 293.575 444.943C283.977 450.761 286.144 462.815 288.915 468.069C291.49 472.97 299.138 477.246 305.469 478.352C305.921 482.212 308.153 496.702 316.89 506.356C327.069 517.563 348.218 525.811 368.757 514.727C377.456 510.033 382.818 499.873 385.605 491.96C388.332 484.294 396.138 463.698 396.138 463.698C396.231 463.468 396.231 463.21 396.198 462.962L384.815 409.38C384.723 408.868 384.315 408.486 383.835 408.439L331.272 403.091C330.787 403.038 330.319 403.338 330.118 403.832C330.118 403.832 316.1 439.936 314.054 445.213L310.662 445.725ZM309.661 447.943C309.922 448.149 310.232 448.243 310.526 448.202L314.995 447.549C315.376 447.496 315.73 447.214 315.855 446.819C315.855 446.819 329.611 411.492 331.881 405.615L382.785 410.798C382.785 410.798 392.915 458.421 393.89 463.145C392.839 465.916 386.002 484.012 383.498 491.101C380.885 498.537 375.904 508.15 367.733 512.556C348.256 523.081 328.147 515.298 318.512 504.655C308.877 494.025 307.603 477.182 307.603 477.182C307.559 476.599 307.14 476.135 306.601 476.076C303.09 475.611 298.931 473.999 295.649 471.769C293.564 470.34 291.811 468.669 290.869 466.869C288.49 462.38 286.482 452.038 294.696 447.067C302.889 442.09 309.661 447.943 309.661 447.943Z" fill="#18181B"/>
<path fill-rule="evenodd" clip-rule="evenodd" d="M310.324 446.831C310.324 446.831 311.081 456.185 312.943 458.238C314.805 460.297 321.103 442.86 323.177 435.671C323.177 435.671 330.929 430.323 334.984 423.987C339.04 417.651 343.743 415.78 347.858 423.699C347.858 423.699 356.851 413.751 363.525 413.833C370.232 413.91 371.854 419.728 373.868 430.376C375.92 441.024 378.648 456.867 394.946 463.233L387.972 481.682C387.972 481.682 404.559 476.787 408.609 452.102L412.79 457.25C412.79 457.25 418.424 407.168 393.051 382.294C367.651 357.427 333.297 367.263 323.422 377.282C323.422 377.282 297.755 377.141 290.031 404.085C282.306 431.029 288.61 452.385 288.61 452.385C288.61 452.385 295.05 437.73 310.324 446.831Z" fill="#18181B"/>
<path fill-rule="evenodd" clip-rule="evenodd" d="M294.94 453.456C294.94 453.456 301.151 456.98 306.91 464.681C307.291 465.198 307.988 465.286 308.472 464.875C308.478 464.869 308.478 464.869 308.483 464.863C308.968 464.439 309.044 463.675 308.657 463.151C302.577 455.003 295.985 451.297 295.985 451.297C295.44 450.985 294.765 451.214 294.477 451.803C294.477 451.803 294.477 451.808 294.471 451.808C294.183 452.409 294.39 453.138 294.94 453.456Z" fill="#18181B"/>
<path fill-rule="evenodd" clip-rule="evenodd" d="M297.449 463.773C297.449 463.773 301.183 461.267 303.976 460.297C304.575 460.091 304.907 459.402 304.705 458.767C304.537 458.126 303.894 457.773 303.296 457.979C300.302 459.02 296.262 461.703 296.262 461.703C295.713 462.061 295.566 462.809 295.876 463.379C296.219 463.95 296.927 464.126 297.449 463.773ZM360.546 474.363L360.519 485.794C360.514 486.464 361.031 487.011 361.657 487.011C362.25 487.017 362.778 486.47 362.784 485.799L362.811 474.369C362.816 473.698 362.299 473.151 361.673 473.151C361.053 473.151 360.546 473.692 360.546 474.363ZM339.011 447.089C339.011 447.089 348.886 441.83 355.68 451.643C356.044 452.178 356.747 452.296 357.258 451.89C357.743 451.49 357.857 450.725 357.46 450.19C349.539 438.729 338.026 444.907 338.026 444.907C337.465 445.207 337.231 445.936 337.514 446.536C337.77 447.142 338.456 447.389 339.011 447.089ZM355.75 495.83C355.75 495.83 345.19 499.201 340.04 488.282C339.763 487.682 339.093 487.447 338.521 487.753C337.982 488.059 337.748 488.794 338.053 489.394C344.058 502.142 356.376 498.166 356.376 498.166C356.975 497.971 357.324 497.295 357.139 496.654C356.981 496.006 356.344 495.642 355.75 495.83ZM372.288 454.037C372.288 454.037 376.284 451.972 380.791 452.796C381.428 452.907 382 452.46 382.092 451.796C382.19 451.131 381.782 450.501 381.172 450.39C375.968 449.437 371.297 451.837 371.297 451.837C370.737 452.125 370.503 452.855 370.759 453.46C371.036 454.078 371.717 454.331 372.288 454.037Z" fill="#18181B"/>
<path d="M348.913 466.409C350.867 466.121 352.234 464.18 351.972 462.074C351.706 459.962 349.909 458.485 347.96 458.773C346.006 459.062 344.64 461.003 344.901 463.109C345.168 465.215 346.964 466.692 348.913 466.409ZM379.67 472.269C381.624 471.981 382.99 470.039 382.729 467.933C382.462 465.821 380.666 464.344 378.712 464.627C376.763 464.915 375.391 466.857 375.658 468.963C375.924 471.075 377.721 472.557 379.67 472.269Z" fill="#18181B"/>
<path fill-rule="evenodd" clip-rule="evenodd" d="M291.789 513.268C291.789 513.268 296.628 520.486 303.612 524.175C304.151 524.469 304.832 524.204 305.099 523.593C305.398 523.01 305.153 522.275 304.581 521.986C298.087 518.568 293.602 511.844 293.602 511.844C293.248 511.315 292.546 511.203 292.034 511.579C291.517 511.979 291.408 512.738 291.789 513.268ZM364.282 538.294C364.282 538.294 369.747 538.088 374.968 533.147C375.43 532.705 375.485 531.917 375.076 531.423C374.663 530.923 373.955 530.87 373.481 531.305C368.936 535.629 364.2 535.865 364.2 535.865C363.58 535.894 363.095 536.447 363.122 537.123C363.149 537.794 363.661 538.324 364.282 538.294Z" fill="#18181B"/>
<path fill-rule="evenodd" clip-rule="evenodd" d="M34.0651 123.005V131.947C34.0651 132.495 34.4907 132.951 35.0022 132.951C35.5319 132.951 35.9394 132.495 35.9394 131.947V123.005C35.9394 122.437 35.5364 122 35.0022 122C34.4907 121.995 34.0697 122.442 34.0651 122.99C34.0651 122.995 34.0651 123 34.0651 123.005ZM34.0651 142.058V150.995C34.0651 151.544 34.4907 152 35.0022 152C35.5319 152 35.9394 151.544 35.9394 150.995V142.058C35.9394 141.49 35.5364 141.053 35.0022 141.053C34.4907 141.049 34.0697 141.495 34.0651 142.044C34.0651 142.053 34.0651 142.058 34.0651 142.058ZM48.0629 135.981H39.7285C39.2124 135.985 38.7959 136.432 38.7914 136.985C38.7914 137.553 39.217 137.99 39.7285 137.99H48.0629C48.5925 137.99 49 137.558 49 136.985C49.0045 136.437 48.588 135.985 48.0765 135.981C48.0719 135.981 48.0674 135.981 48.0629 135.981ZM30.2714 135.981H21.9371C21.421 135.985 21.0045 136.432 21 136.985C21 137.553 21.4255 137.99 21.9371 137.99H30.2714C30.8011 137.99 31.2086 137.558 31.2086 136.985C31.2131 136.437 30.7966 135.985 30.285 135.981C30.276 135.981 30.2714 135.981 30.2714 135.981Z" fill="#196CFA"/>
<path opacity="0.3" fill-rule="evenodd" clip-rule="evenodd" d="M472.065 314.005V322.947C472.065 323.495 472.491 323.951 473.002 323.951C473.532 323.951 473.939 323.495 473.939 322.947V314.005C473.939 313.437 473.536 313 473.002 313C472.491 312.995 472.07 313.442 472.065 313.99C472.065 313.995 472.065 314 472.065 314.005ZM472.065 333.058V341.995C472.065 342.544 472.491 343 473.002 343C473.532 343 473.939 342.544 473.939 341.995V333.058C473.939 332.49 473.536 332.053 473.002 332.053C472.491 332.049 472.07 332.495 472.065 333.044C472.065 333.053 472.065 333.058 472.065 333.058ZM486.063 326.981H477.729C477.212 326.985 476.796 327.432 476.791 327.985C476.791 328.553 477.217 328.99 477.729 328.99H486.063C486.593 328.99 487 328.558 487 327.985C487.004 327.437 486.588 326.985 486.076 326.981C486.072 326.981 486.067 326.981 486.063 326.981ZM468.271 326.981H459.937C459.421 326.985 459.005 327.432 459 327.985C459 328.553 459.426 328.99 459.937 328.99H468.271C468.801 328.99 469.209 328.558 469.209 327.985C469.213 327.437 468.797 326.985 468.285 326.981C468.276 326.981 468.271 326.981 468.271 326.981Z" fill="#196CFA"/>
<path opacity="0.3" fill-rule="evenodd" clip-rule="evenodd" d="M641.065 138.005V146.947C641.065 147.495 641.491 147.951 642.002 147.951C642.532 147.951 642.939 147.495 642.939 146.947V138.005C642.939 137.437 642.536 137 642.002 137C641.491 136.995 641.07 137.442 641.065 137.99C641.065 137.995 641.065 138 641.065 138.005ZM641.065 157.058V165.995C641.065 166.544 641.491 167 642.002 167C642.532 167 642.939 166.544 642.939 165.995V157.058C642.939 156.49 642.536 156.053 642.002 156.053C641.491 156.049 641.07 156.495 641.065 157.044C641.065 157.053 641.065 157.058 641.065 157.058ZM655.063 150.981H646.729C646.212 150.985 645.796 151.432 645.791 151.985C645.791 152.553 646.217 152.99 646.729 152.99H655.063C655.593 152.99 656 152.558 656 151.985C656.004 151.437 655.588 150.985 655.076 150.981C655.072 150.981 655.067 150.981 655.063 150.981ZM637.271 150.981H628.937C628.421 150.985 628.005 151.432 628 151.985C628 152.553 628.426 152.99 628.937 152.99H637.271C637.801 152.99 638.209 152.558 638.209 151.985C638.213 151.437 637.797 150.985 637.285 150.981C637.276 150.981 637.271 150.981 637.271 150.981Z" fill="#196CFA"/>
<path fill-rule="evenodd" clip-rule="evenodd" d="M669.715 431.643C669.528 431.575 669.338 431.501 669.143 431.419C665.856 430.029 661.524 426.413 656.304 418.925C656.19 418.76 656.145 418.557 656.181 418.36C656.216 418.163 656.328 417.988 656.492 417.874C656.656 417.759 656.859 417.715 657.056 417.75C657.252 417.785 657.427 417.897 657.542 418.062C662.013 424.479 665.76 427.957 668.748 429.558C668.424 428.355 668.441 427.02 668.913 425.549C669.336 424.238 670.498 423.332 671.874 422.999C673.877 422.514 676.283 423.253 677.245 425.542C678.106 427.593 677.256 430.477 674.829 431.646C674.084 432.005 673.183 432.206 672.132 432.154C672.676 432.671 673.3 433.14 673.966 433.568C678.347 436.387 684.622 437.434 684.622 437.434C684.814 437.473 684.984 437.585 685.095 437.746C685.207 437.908 685.251 438.107 685.218 438.3C685.186 438.494 685.08 438.667 684.922 438.783C684.764 438.899 684.567 438.95 684.373 438.923C684.373 438.923 677.767 437.807 673.15 434.837C671.758 433.941 670.547 432.881 669.715 431.643ZM670.721 430.385C670.028 429.142 669.807 427.695 670.349 426.012C670.612 425.196 671.372 424.673 672.229 424.466C673.573 424.141 675.211 424.589 675.855 426.126C676.443 427.528 675.833 429.487 674.175 430.286C673.295 430.709 672.14 430.8 670.721 430.385Z" fill="#18181B"/>
</svg>
