<svg width="24" height="24" viewBox="0 0 24 24" fill="none" xmlns="http://www.w3.org/2000/svg">
<rect x="5.70117" y="2" width="2.7" height="2.7" fill="#A1A1AA"/>
<rect x="15.6016" y="2" width="2.7" height="2.7" fill="#A1A1AA"/>
<path fill-rule="evenodd" clip-rule="evenodd" d="M5 4.05005C3.48122 4.05005 2.25 5.28127 2.25 6.80005V19C2.25 20.5188 3.48122 21.75 5 21.75H19C20.5188 21.75 21.75 20.5188 21.75 19V6.80005C21.75 5.28127 20.5188 4.05005 19 4.05005H5ZM3.75 6.80005C3.75 6.10969 4.30964 5.55005 5 5.55005H19C19.6904 5.55005 20.25 6.10969 20.25 6.80005V8.55024H3.75V6.80005ZM3.75 10.0502V19C3.75 19.6904 4.30964 20.25 5 20.25H19C19.6904 20.25 20.25 19.6904 20.25 19V10.0502H3.75Z" fill="#A1A1AA"/>
</svg>
