<svg width="24" height="24" viewBox="0 0 24 24" fill="none" xmlns="http://www.w3.org/2000/svg">
<path d="M2 5.69482H5.38983" stroke="black" stroke-width="1.5" stroke-miterlimit="10" stroke-linecap="round" stroke-linejoin="round"/>
<path d="M13.8643 5.69482H21.9999" stroke="black" stroke-width="1.5" stroke-miterlimit="10" stroke-linecap="round" stroke-linejoin="round"/>
<path d="M2 12.4746H13.8644" stroke="black" stroke-width="1.5" stroke-miterlimit="10" stroke-linecap="round" stroke-linejoin="round"/>
<path d="M18.9492 12.4746H22.0001" stroke="black" stroke-width="1.5" stroke-miterlimit="10" stroke-linecap="round" stroke-linejoin="round"/>
<path d="M2 19.2542H5.38983" stroke="black" stroke-width="1.5" stroke-miterlimit="10" stroke-linecap="round" stroke-linejoin="round"/>
<path d="M10.4746 19.2542H22" stroke="black" stroke-width="1.5" stroke-miterlimit="10" stroke-linecap="round" stroke-linejoin="round"/>
<path d="M8.77948 7.38983H7.08456C6.1485 7.38983 5.38965 6.63097 5.38965 5.69492C5.38965 4.75886 6.1485 4 7.08456 4H8.77948C9.71554 4 10.4744 4.75886 10.4744 5.69492C10.4744 6.63097 9.71554 7.38983 8.77948 7.38983Z" stroke="black" stroke-width="1.5" stroke-miterlimit="10" stroke-linecap="round" stroke-linejoin="round"/>
<path d="M8.77948 20.9492H7.08456C6.1485 20.9492 5.38965 20.1903 5.38965 19.2542C5.38965 18.3182 6.1485 17.5593 7.08456 17.5593H8.77948C9.71554 17.5593 10.4744 18.3182 10.4744 19.2542C10.4744 20.1903 9.71554 20.9492 8.77948 20.9492Z" stroke="black" stroke-width="1.5" stroke-miterlimit="10" stroke-linecap="round" stroke-linejoin="round"/>
<path d="M17.2541 14.1694H15.5592C14.6231 14.1694 13.8643 13.4105 13.8643 12.4745C13.8643 11.5384 14.6231 10.7795 15.5592 10.7795H17.2541C18.1901 10.7795 18.949 11.5384 18.949 12.4745C18.949 13.4105 18.1901 14.1694 17.2541 14.1694Z" stroke="black" stroke-width="1.5" stroke-miterlimit="10" stroke-linecap="round" stroke-linejoin="round"/>
</svg>
