<svg width="24" height="24" viewBox="0 0 24 24" fill="none" xmlns="http://www.w3.org/2000/svg">
<g clip-path="url(#clip0_842_83832)">
<rect width="24" height="24" rx="12" fill="white"/>
<path fill-rule="evenodd" clip-rule="evenodd" d="M20.0006 12.182C20.0006 11.6147 19.9486 11.0693 19.8522 10.5457H12.1641V13.6401H16.5573C16.368 14.6401 15.7929 15.4873 14.9284 16.0546V18.0618H17.5665C19.1101 16.6691 20.0006 14.6183 20.0006 12.182Z" fill="#196CFA"/>
<path fill-rule="evenodd" clip-rule="evenodd" d="M12.162 19.9999C14.366 19.9999 16.2138 19.2835 17.5644 18.0617L14.9263 16.0545C14.1953 16.5345 13.2603 16.8181 12.162 16.8181C10.0359 16.8181 8.2363 15.4109 7.59439 13.52H4.86719V15.5927C6.21038 18.2072 8.97098 19.9999 12.162 19.9999Z" fill="#15803D"/>
<path fill-rule="evenodd" clip-rule="evenodd" d="M7.59545 13.5206C7.43219 13.0406 7.33943 12.5279 7.33943 12.0006C7.33943 11.4733 7.43219 10.9606 7.59545 10.4806V8.40796H4.86825C4.31539 9.48793 4 10.7097 4 12.0006C4 13.2915 4.31539 14.5133 4.86825 15.5932L7.59545 13.5206Z" fill="#FAA81A"/>
<path fill-rule="evenodd" clip-rule="evenodd" d="M12.162 7.18223C13.3605 7.18223 14.4365 7.58585 15.2825 8.37856L17.6238 6.08407C16.2101 4.7932 14.3623 4.00049 12.162 4.00049C8.97098 4.00049 6.21038 5.79317 4.86719 8.40765L7.59439 10.4803C8.2363 8.58947 10.0359 7.18223 12.162 7.18223Z" fill="#DD2A2E"/>
</g>
<rect x="0.5" y="0.5" width="23" height="23" rx="11.5" stroke="#E4E4E7"/>
<defs>
<clipPath id="clip0_842_83832">
<rect width="24" height="24" rx="12" fill="white"/>
</clipPath>
</defs>
</svg>
