<svg width="24" height="24" viewBox="0 0 24 24" fill="none" xmlns="http://www.w3.org/2000/svg">
<path fill-rule="evenodd" clip-rule="evenodd" d="M22 12C22 17.5228 17.5228 22 12 22C6.47715 22 2 17.5228 2 12C2 6.47715 6.47715 2 12 2C17.5228 2 22 6.47715 22 12ZM12 9.17094C12.4142 9.17094 12.75 9.50672 12.75 9.92094V15.7501C12.75 16.1643 12.4142 16.5001 12 16.5001C11.5858 16.5001 11.25 16.1643 11.25 15.7501V9.92094C11.25 9.50672 11.5858 9.17094 12 9.17094ZM12.75 7.5C12.75 7.08579 12.4142 6.75 12 6.75C11.5858 6.75 11.25 7.08579 11.25 7.5V7.56683C11.25 7.98104 11.5858 8.31683 12 8.31683C12.4142 8.31683 12.75 7.98104 12.75 7.56683V7.5Z" fill="#196CFA"/>
</svg>
