<svg width="26" height="24" viewBox="0 0 26 24" fill="none" xmlns="http://www.w3.org/2000/svg">
<path d="M1 7.1H25M1 7.1V5C1 3.89543 1.89543 3 3 3H23C24.1046 3 25 3.89543 25 5V7.1M1 7.1V19.8C1 20.9046 1.89543 21.8 3 21.8H23C24.1046 21.8 25 20.9046 25 19.8V7.1" stroke="black" stroke-width="1.2"/>
<path d="M15.042 16.4419L17.0837 18.4836" stroke="black" stroke-width="1.2" stroke-linecap="round" stroke-linejoin="round"/>
<path d="M8.91699 13.8169C8.91699 14.2765 9.00752 14.7316 9.18341 15.1563C9.35931 15.5809 9.61711 15.9668 9.94212 16.2918C10.2671 16.6168 10.653 16.8746 11.0776 17.0505C11.5022 17.2264 11.9574 17.3169 12.417 17.3169C12.8766 17.3169 13.3317 17.2264 13.7564 17.0505C14.181 16.8746 14.5669 16.6168 14.8919 16.2918C15.2169 15.9668 15.4747 15.5809 15.6506 15.1563C15.8265 14.7316 15.917 14.2765 15.917 13.8169C15.917 12.8886 15.5482 11.9984 14.8919 11.342C14.2355 10.6856 13.3452 10.3169 12.417 10.3169C11.4887 10.3169 10.5985 10.6856 9.94212 11.342C9.28574 11.9984 8.91699 12.8886 8.91699 13.8169Z" stroke="black" stroke-width="1.2" stroke-linecap="round" stroke-linejoin="round"/>
<rect x="2.59961" y="4.3999" width="1.2" height="1.2" rx="0.6" fill="black"/>
<rect x="4.59961" y="4.3999" width="1.2" height="1.2" rx="0.6" fill="black"/>
<rect x="6.59961" y="4.3999" width="1.2" height="1.2" rx="0.6" fill="black"/>
</svg>
