<svg width="517" height="401" viewBox="0 0 517 401" fill="none" xmlns="http://www.w3.org/2000/svg">
<g clip-path="url(#clip0_6205_61316)">
<path fill-rule="evenodd" clip-rule="evenodd" d="M374.855 390.629L371.856 153.907C371.856 153.907 345.262 171.277 343.817 173.826C342.591 176.062 346.334 181.588 345.976 184.162C344.257 196.376 336.84 218.673 335.85 233.75C333.722 265.492 337.974 351.435 337.612 390.676L374.855 390.629Z" fill="white"/>
<path fill-rule="evenodd" clip-rule="evenodd" d="M374.855 391.542C375.096 391.541 375.337 391.447 375.503 391.278C375.672 391.108 375.77 390.867 375.77 390.626L372.771 153.908C372.77 153.569 372.578 153.257 372.287 153.092C371.997 152.95 371.635 152.95 371.349 153.143C371.349 153.143 354.283 164.27 346.729 170.051C344.68 171.593 343.332 172.848 343.02 173.397C342.735 173.879 342.615 174.477 342.66 175.177C342.688 175.993 342.931 176.956 343.267 177.99C343.729 179.359 344.379 180.852 344.765 182.15C344.985 182.872 345.129 183.519 345.058 184.027C343.317 196.268 335.923 218.61 334.91 233.709C332.805 265.451 337.056 351.421 336.695 390.68C336.695 390.921 336.794 391.162 336.964 391.331C337.129 391.5 337.371 391.593 337.612 391.593L374.855 391.546L374.855 391.542ZM373.914 389.718L338.548 389.763C338.838 350.116 334.659 265.297 336.764 233.823C337.778 218.75 345.172 196.498 346.89 184.284C347.01 183.561 346.839 182.625 346.547 181.617C346.139 180.297 345.512 178.804 345.027 177.386C344.785 176.691 344.592 176.017 344.515 175.415C344.47 174.956 344.469 174.572 344.634 174.287C344.902 173.831 346.13 172.844 347.862 171.517C354.072 166.773 366.73 158.389 370.941 155.619L373.914 389.718Z" fill="#18181B"/>
<path fill-rule="evenodd" clip-rule="evenodd" d="M349.036 390.653L480.91 390.486C474.613 347.792 455.356 191.815 400.643 151.93L386.544 155.351C386.544 155.351 368.536 163.219 360.933 176.386C354.151 188.125 349.38 203.176 348.831 228.716C348.375 249.577 348.304 345.534 349.036 390.653Z" fill="#196CFA"/>
<path fill-rule="evenodd" clip-rule="evenodd" d="M288.683 171.294C288.677 166.107 284.453 161.924 279.256 161.931C242.706 161.977 110.287 162.145 73.7371 162.191C68.5622 162.198 64.3491 166.391 64.3556 171.578C64.3885 197.555 64.4805 270.163 64.5134 296.139C64.52 301.326 68.7438 305.531 73.9187 305.525C110.469 305.478 242.887 305.311 279.437 305.264C284.635 305.258 288.848 301.042 288.841 295.855C288.808 269.878 288.716 197.271 288.683 171.294Z" fill="white"/>
<path fill-rule="evenodd" clip-rule="evenodd" d="M289.593 171.294C289.585 165.599 284.959 160.993 279.252 161C242.702 161.046 110.284 161.214 73.7336 161.26C68.0493 161.268 63.4121 165.885 63.4193 171.581C63.4522 197.557 63.5442 270.165 63.5771 296.141C63.5843 301.837 68.2332 306.439 73.9175 306.431C110.468 306.385 242.886 306.217 279.436 306.171C285.143 306.164 289.758 301.551 289.75 295.855L289.593 171.294ZM287.747 171.297L287.905 295.857C287.911 300.532 284.122 304.328 279.434 304.333C242.884 304.38 110.465 304.548 73.9151 304.594C69.2498 304.6 65.451 300.813 65.445 296.139L65.2873 171.579C65.2813 166.9 69.075 163.131 73.7359 163.125C110.286 163.078 242.705 162.911 279.255 162.864C283.942 162.854 287.741 166.618 287.747 171.297Z" fill="#18181B"/>
<path fill-rule="evenodd" clip-rule="evenodd" d="M260.923 287.947C260.92 285.539 259.956 283.243 258.26 281.55C256.546 279.857 254.257 278.91 251.835 278.913C216.621 278.958 88.9619 279.12 53.7256 279.164C51.3303 279.167 49.0167 280.12 47.3297 281.817C45.6426 283.514 44.6803 285.813 44.6833 288.221C44.7003 301.611 44.7319 326.561 44.7489 339.946C44.7519 342.341 45.7201 344.642 47.4114 346.334C49.1027 348.027 51.4188 348.983 53.8141 348.98C89.0458 348.935 216.71 348.774 251.924 348.729C254.341 348.726 256.632 347.764 258.342 346.067C260.033 344.37 260.991 342.067 260.988 339.672C260.971 326.287 260.94 301.337 260.923 287.947Z" fill="#2E33C7"/>
<path fill-rule="evenodd" clip-rule="evenodd" d="M81.0886 234.283L175.268 234.164C175.777 234.163 176.201 233.738 176.201 233.23C176.2 232.721 175.78 232.32 175.266 232.321L81.0863 232.44C80.5769 232.441 80.1529 232.843 80.1535 233.352C80.1541 233.86 80.5747 234.283 81.0886 234.283Z" fill="#196CFA"/>
<path fill-rule="evenodd" clip-rule="evenodd" d="M81.1372 256.4L225.246 256.217C225.756 256.217 226.162 255.797 226.161 255.284C226.16 254.775 225.753 254.374 225.244 254.375L81.1348 254.557C80.6254 254.558 80.2193 254.96 80.2199 255.469C80.2206 255.982 80.6277 256.401 81.1372 256.4Z" fill="#18181B"/>
<path fill-rule="evenodd" clip-rule="evenodd" d="M63.448 333.31L145.857 333.205C146.366 333.205 146.79 332.807 146.789 332.298C146.789 331.785 146.368 331.366 145.854 331.367L63.4457 331.471C62.9363 331.472 62.5123 331.892 62.5129 332.405C62.518 332.914 62.9386 333.31 63.448 333.31Z" fill="white"/>
<path fill-rule="evenodd" clip-rule="evenodd" d="M63.4391 317.282L108.636 317.225C109.146 317.224 109.561 316.827 109.56 316.318C109.559 315.81 109.143 315.386 108.634 315.387L63.4368 315.444C62.9228 315.445 62.5123 315.869 62.5129 316.378C62.5135 316.886 62.9252 317.283 63.4391 317.282Z" fill="white"/>
<path fill-rule="evenodd" clip-rule="evenodd" d="M228.859 316.973L242.627 330.68C242.98 331.032 243.575 331.031 243.941 330.669C244.298 330.316 244.297 329.723 243.939 329.367L230.171 315.66C229.809 315.299 229.219 315.309 228.866 315.662C228.505 316.024 228.496 316.612 228.859 316.973Z" fill="white"/>
<path fill-rule="evenodd" clip-rule="evenodd" d="M242.618 315.638L228.885 329.379C228.532 329.732 228.528 330.325 228.895 330.69C229.249 331.042 229.848 331.042 230.2 330.689L243.933 316.943C244.295 316.581 244.285 315.997 243.931 315.64C243.569 315.28 242.979 315.276 242.618 315.638Z" fill="white"/>
<path fill-rule="evenodd" clip-rule="evenodd" d="M236.623 107.465L220.638 82.4057C220.347 81.9645 219.783 81.8493 219.355 82.1219C218.926 82.3945 218.797 82.9745 219.07 83.4023L235.056 108.462C235.329 108.89 235.91 109.018 236.339 108.746C236.767 108.478 236.896 107.893 236.623 107.465Z" fill="#18181B"/>
<path fill-rule="evenodd" clip-rule="evenodd" d="M409.718 108.115L420.504 96.7097C420.848 96.3524 420.843 95.7682 420.462 95.4074C420.086 95.0644 419.501 95.0696 419.157 95.4491L408.366 106.836C408.023 107.211 408.032 107.796 408.408 108.139C408.771 108.504 409.369 108.472 409.718 108.115Z" fill="#18181B"/>
<path fill-rule="evenodd" clip-rule="evenodd" d="M147.486 108.993C147.482 105.822 144.904 103.234 141.705 103.238C135.663 103.245 125.385 103.258 119.321 103.266C116.143 103.27 113.55 105.865 113.554 109.036L113.582 131.377C113.587 134.571 116.186 137.137 119.363 137.133L141.748 137.104C144.947 137.1 147.518 134.528 147.514 131.334L147.486 108.993ZM145.64 108.995L145.668 131.337C145.671 133.509 143.921 135.264 141.745 135.267L119.361 135.295C117.207 135.298 115.449 133.547 115.446 131.375C115.438 125.345 115.425 115.064 115.418 109.034C115.415 106.884 117.169 105.129 119.323 105.126C125.387 105.118 135.665 105.105 141.707 105.098C143.883 105.099 145.637 106.846 145.64 108.995Z" fill="#18181B"/>
<path fill-rule="evenodd" clip-rule="evenodd" d="M187.569 126.12C187.567 124.099 185.929 122.456 183.891 122.458L170.025 122.476C168.001 122.478 166.354 124.126 166.356 126.147C166.361 129.826 166.369 136.307 166.374 139.987C166.376 142.021 168.027 143.651 170.052 143.648C173.738 143.644 180.245 143.636 183.918 143.631C185.956 143.628 187.59 141.994 187.587 139.96C187.582 136.28 187.574 129.8 187.569 126.12ZM185.719 126.122C185.724 129.802 185.732 136.283 185.737 139.962C185.738 140.966 184.921 141.783 183.916 141.784C180.243 141.789 173.736 141.797 170.049 141.802C169.044 141.803 168.225 140.988 168.224 139.984C168.219 136.305 168.211 129.824 168.206 126.144C168.205 125.141 169.022 124.324 170.027 124.322L183.894 124.305C184.899 124.304 185.718 125.119 185.719 126.122Z" fill="#196CFA"/>
<path fill-rule="evenodd" clip-rule="evenodd" d="M302.58 346.141C299.171 346.145 296.421 348.896 296.426 352.277C296.43 355.675 299.186 358.419 302.596 358.415C305.979 358.411 308.728 355.66 308.724 352.261C308.72 348.88 305.963 346.136 302.58 346.141ZM302.583 347.987C304.951 347.984 306.871 349.895 306.874 352.264C306.877 354.65 304.962 356.566 302.594 356.569C300.198 356.572 298.279 354.661 298.276 352.274C298.273 349.906 300.187 347.99 302.583 347.987Z" fill="#18181B"/>
<path fill-rule="evenodd" clip-rule="evenodd" d="M448.474 144.408C445.748 144.411 443.53 146.631 443.534 149.369C443.537 152.09 445.761 154.304 448.487 154.301C451.231 154.297 453.449 152.078 453.445 149.357C453.442 146.614 451.218 144.404 448.474 144.408ZM448.477 146.263C450.193 146.261 451.584 147.646 451.586 149.359C451.589 151.072 450.201 152.461 448.485 152.463C446.768 152.465 445.377 151.08 445.375 149.367C445.373 147.654 446.761 146.265 448.477 146.263Z" fill="#196CFA"/>
<path fill-rule="evenodd" clip-rule="evenodd" d="M379.488 26.648C380.943 21.2092 386.511 17.9863 391.929 19.429C397.347 20.8717 400.608 26.4429 399.153 31.8817C397.939 36.4372 393.796 39.4397 389.269 39.3963C387.16 39.3946 385.307 40.7974 384.764 42.832C383.933 45.9463 382.776 50.2697 382.776 50.2697C382.647 50.7605 382.938 51.2596 383.43 51.3928C383.922 51.5216 384.422 51.2355 384.551 50.7447C384.551 50.7447 385.707 46.4168 386.57 43.3159C386.895 42.1023 388.007 41.24 389.267 41.2607C394.607 41.2763 399.491 37.7331 400.928 32.3612C402.64 25.9363 398.807 19.3713 392.401 17.6667C385.999 15.962 379.399 19.7527 377.682 26.1731C377.549 26.6639 377.871 27.172 378.363 27.3007C378.855 27.4294 379.355 27.1388 379.488 26.648Z" fill="#196CFA"/>
<path fill-rule="evenodd" clip-rule="evenodd" d="M324.92 18.1292C323.9 14.3482 326.157 10.4694 329.923 9.45665C333.711 8.43939 337.588 10.6646 338.612 14.45C339.42 17.4507 338.141 20.5343 335.69 22.1788C334.034 23.2826 333.285 25.3129 333.797 27.2034C334.345 29.3392 335.023 31.8405 335.023 31.8405C335.158 32.3354 335.668 32.6291 336.163 32.4992C336.664 32.3647 336.958 31.8559 336.823 31.3565C336.823 31.3565 336.154 28.873 335.571 26.7239C335.265 25.5914 335.729 24.3777 336.715 23.7029C339.819 21.6518 341.409 17.7515 340.385 13.9705C339.106 9.21756 334.2 6.37813 329.438 7.65979C324.676 8.93698 321.862 13.8513 323.146 18.6042C323.272 19.0769 323.782 19.3706 324.282 19.2361C324.778 19.1062 325.05 18.6018 324.92 18.1292Z" fill="#196CFA"/>
<path d="M380.717 61.3536C382.233 61.7576 383.791 60.8591 384.196 59.3421C384.596 57.8296 383.696 56.2741 382.181 55.8701C380.661 55.4662 379.107 56.3691 378.702 57.8816C378.297 59.3986 379.197 60.9496 380.717 61.3536Z" fill="#196CFA"/>
<path d="M338.029 39.4571C339.124 39.1613 339.77 38.041 339.478 36.9486C339.182 35.8562 338.055 35.2109 336.961 35.5067C335.866 35.8024 335.22 36.9228 335.516 38.0151C335.808 39.1031 336.935 39.7528 338.029 39.4571Z" fill="#196CFA"/>
<path fill-rule="evenodd" clip-rule="evenodd" d="M56.467 217.396C59.8038 223.413 54.1854 233.068 43.8478 239.044C33.5012 245.025 22.3204 245.075 18.7468 239.196C18.7334 239.17 18.72 239.152 18.7065 239.125C18.6975 239.103 18.6841 239.085 18.6707 239.058C15.3428 233.037 20.9478 223.378 31.2943 217.397C41.632 211.425 52.8262 211.375 56.3908 217.258L56.3998 217.253C56.4132 217.28 56.4266 217.298 56.4356 217.32C56.449 217.347 56.4625 217.365 56.4759 217.392L56.467 217.396Z" fill="white"/>
<path fill-rule="evenodd" clip-rule="evenodd" d="M17.9923 239.701C17.9386 239.643 17.8894 239.576 17.858 239.509C16.3934 236.875 16.4563 233.606 17.8283 230.21C19.7885 225.404 24.4117 220.309 30.8242 216.603C37.2322 212.897 43.9648 211.426 49.1137 212.128C52.7474 212.632 55.6229 214.208 57.1857 216.779L56.4411 218.091L56.4456 218.1L56.401 218.176L56.3921 218.181L56.4411 218.091C56.3914 217.672 56.2562 216.78 56.0907 216.607C56.0414 216.491 55.9832 216.428 55.9296 216.46C55.4473 216.737 55.5417 217.151 55.7656 217.504C55.8731 217.726 56.0521 217.927 56.1998 218.074L56.3876 218.181C56.3607 218.154 55.9984 217.865 55.7656 217.504C55.5998 217.183 55.5726 216.835 56.0013 216.589C56.0236 216.575 56.0594 216.58 56.0862 216.607C56.2565 217.026 56.3786 218.123 56.3831 218.181L56.3921 218.176L56.4457 218.163L56.4366 218.1L57.1857 216.793L57.2664 216.931C57.2798 216.949 57.2887 216.966 57.3022 216.993C58.7266 219.623 58.6592 222.87 57.296 226.244C55.3448 231.045 50.7126 236.145 44.3091 239.846C37.8966 243.556 31.1685 245.023 26.0151 244.325C22.4037 243.825 19.5507 242.263 17.9834 239.723C17.961 239.701 17.9476 239.679 17.9386 239.661L17.858 239.527C17.8939 239.589 17.9386 239.643 17.9878 239.692L17.9923 239.701ZM55.614 217.758L55.6722 217.856C55.8379 218.141 56.142 218.31 56.4682 218.314C56.133 218.315 55.82 218.132 55.6587 217.838C56.8636 220.022 56.733 222.734 55.5881 225.55C53.7571 230.048 49.3837 234.782 43.3865 238.246C37.3804 241.719 31.0902 243.15 26.272 242.491C23.264 242.08 20.8314 240.844 19.5373 238.713L19.4925 238.637L19.4835 238.615C18.2742 236.427 18.4137 233.715 19.5542 230.903C21.3807 226.401 25.7585 221.672 31.7647 218.203C37.7618 214.734 44.0476 213.299 48.8747 213.962C51.8917 214.373 54.3108 215.605 55.6095 217.74L55.614 217.758ZM18.3661 238.411C18.3168 238.295 18.263 238.233 18.2095 238.264C17.7272 238.542 17.8216 238.952 18.0454 239.308C18.1843 239.58 18.4349 239.834 18.587 239.981L18.6094 239.986L18.663 239.985C18.6406 239.986 18.6228 239.986 18.5915 239.986L18.587 239.981C18.5468 239.977 18.511 239.972 18.4753 239.963C18.511 239.972 18.5557 239.981 18.5915 239.986L18.6139 240.008C18.6362 240.03 18.6675 240.048 18.6899 240.066L18.748 240.11L18.739 240.039L18.73 239.985L18.6764 239.981C18.6406 239.959 18.2783 239.669 18.0499 239.308C17.8841 238.987 17.8658 238.635 18.2901 238.394C18.3034 238.38 18.3392 238.385 18.3661 238.411C18.5364 238.83 18.6629 239.927 18.6719 239.981L18.7165 239.896C18.6623 239.477 18.5272 238.585 18.3661 238.411ZM56.4546 218.163L56.4636 218.234L56.4682 218.314L56.41 218.265C56.3877 218.248 56.3653 218.225 56.3429 218.203L56.3206 218.181C56.3429 218.185 56.3697 218.181 56.3921 218.181L56.4546 218.163Z" fill="#18181B"/>
<path d="M43.5741 238.719C49.415 235.344 51.4075 227.88 48.0262 222.05C44.6449 216.22 37.1661 214.227 31.3252 217.607C25.4843 220.981 23.4918 228.446 26.8731 234.276C30.2544 240.105 37.7332 242.094 43.5741 238.719Z" fill="#18181B"/>
<path fill-rule="evenodd" clip-rule="evenodd" d="M18.3631 196.3L27.6292 212.269C27.889 212.715 28.4433 212.87 28.8854 212.615C29.3275 212.361 29.4832 211.794 29.2234 211.348L19.9573 195.379C19.702 194.942 19.1298 194.782 18.6877 195.042C18.2456 195.296 18.1078 195.863 18.3631 196.3Z" fill="#196CFA"/>
<path fill-rule="evenodd" clip-rule="evenodd" d="M43.118 188.945L40.2857 203.797C40.1925 204.296 40.5238 204.782 41.0155 204.879C41.5206 204.968 42.0117 204.642 42.1049 204.142L44.9372 189.282C45.0304 188.782 44.6991 188.296 44.194 188.208C43.7023 188.11 43.2156 188.441 43.118 188.945Z" fill="#196CFA"/>
<path fill-rule="evenodd" clip-rule="evenodd" d="M1.14709 215.741L15.4713 220.687C15.9497 220.851 16.4767 220.592 16.6503 220.11C16.8061 219.637 16.5507 219.106 16.0724 218.942L1.7571 213.996C1.26978 213.827 0.7428 214.086 0.586992 214.559C0.41332 215.041 0.668718 215.576 1.14709 215.741Z" fill="#196CFA"/>
<path fill-rule="evenodd" clip-rule="evenodd" d="M253.484 187.983C239.982 186.76 229.395 175.426 229.377 161.64C229.359 147.01 241.249 135.118 255.902 135.099C270.559 135.081 282.475 146.948 282.493 161.573C282.508 173.718 274.308 183.969 263.14 187.11L268.508 234.221C268.667 235.661 267.623 236.969 266.179 237.127C264.803 237.285 263.141 237.466 261.761 237.623C260.317 237.781 259.029 236.762 258.848 235.321L253.484 187.983ZM255.912 143.168C266.105 143.155 274.401 151.414 274.414 161.583C274.426 171.757 266.152 180.01 255.959 180.022C245.765 180.035 237.497 171.799 237.484 161.63C237.471 151.456 245.723 143.181 255.912 143.168Z" fill="white"/>
<path fill-rule="evenodd" clip-rule="evenodd" d="M252.643 188.824L257.944 235.409C258.165 237.358 259.923 238.752 261.876 238.548C263.252 238.395 264.919 238.192 266.295 238.034C268.248 237.809 269.644 236.059 269.423 234.11L264.144 187.77C275.334 184.299 283.445 173.87 283.43 161.569C283.411 146.431 271.07 134.145 255.903 134.164C240.736 134.184 228.449 146.5 228.468 161.638C228.486 175.648 239.052 187.204 252.643 188.824ZM254.394 187.894C254.348 187.453 253.991 187.119 253.548 187.075C240.533 185.873 230.326 174.936 230.309 161.636C230.292 147.52 241.757 136.02 255.905 136.002C270.054 135.984 281.548 147.45 281.566 161.571C281.581 173.297 273.688 183.191 262.9 186.22C262.453 186.354 262.168 186.774 262.236 187.22L267.577 234.308C267.69 235.263 267.025 236.107 266.069 236.197C264.715 236.35 263.031 236.553 261.673 236.711C260.721 236.801 259.875 236.138 259.785 235.206L254.394 187.894ZM255.913 142.255C245.211 142.269 236.539 150.946 236.552 161.628C236.566 172.31 245.26 180.966 255.962 180.952C266.665 180.939 275.337 172.261 275.323 161.579C275.31 150.897 266.616 142.242 255.913 142.255ZM255.916 144.093C265.6 144.081 273.47 151.916 273.482 161.581C273.495 171.247 265.644 179.08 255.96 179.092C246.276 179.104 238.406 171.291 238.394 161.626C238.381 151.961 246.236 144.105 255.916 144.093Z" fill="#196CFA"/>
<path fill-rule="evenodd" clip-rule="evenodd" d="M283.474 215.695C283.474 215.695 275.044 204.024 272.442 199.594C269.836 195.164 260.192 191.786 256.705 190.283C253.217 188.78 251.807 197.582 262.07 199.362L265.408 206.694L268.259 231.142L271.707 232.863L283.474 215.695Z" fill="white"/>
<path fill-rule="evenodd" clip-rule="evenodd" d="M284.254 216.202C284.477 215.894 284.454 215.47 284.23 215.162C284.23 215.162 275.845 203.536 273.239 199.128C272.128 197.225 269.861 195.498 267.24 194.016C263.528 191.938 259.174 190.346 257.063 189.439C256.263 189.083 255.53 189.129 254.932 189.397C254.333 189.666 253.847 190.175 253.535 190.862C253.183 191.683 253.072 192.767 253.36 193.944C253.962 196.316 256.231 199.15 261.429 200.183L264.504 206.94L267.354 231.254C267.377 231.562 267.574 231.829 267.842 231.963L271.285 233.684C271.71 233.884 272.219 233.75 272.465 233.375L284.254 216.202ZM282.345 215.696L271.394 231.668L269.127 230.543L266.322 206.586C266.322 206.497 266.299 206.407 266.255 206.318L262.916 198.985C262.782 198.696 262.536 198.5 262.227 198.456C256.783 197.508 254.893 194.5 255.047 192.394C255.091 191.797 255.269 191.306 255.667 191.109C255.845 190.997 256.087 191.019 256.332 191.13C258.421 192.015 262.686 193.584 266.33 195.64C268.62 196.922 270.687 198.405 271.645 200.067C273.933 203.94 280.675 213.374 282.345 215.696Z" fill="#18181B"/>
<path fill-rule="evenodd" clip-rule="evenodd" d="M253.209 195.045C253.209 195.045 250.359 195.812 249.7 197.766C249.063 199.698 250.284 203.813 250.284 203.813C250.284 203.813 247.352 207.167 250.446 211.971C250.446 211.971 248.731 216.367 251.239 220.155C251.239 220.155 249.994 222.261 251.977 224.806C253.965 227.354 261.031 228.206 262.632 225.626C263.439 224.278 262.618 221.554 262.618 221.554C262.618 221.554 264.356 218.091 263.182 215.421C263.182 215.421 264.788 210.097 261.639 207.528C261.639 207.528 262.671 203.664 261.023 201.195L257.416 196.646L253.209 195.045Z" fill="white"/>
<path fill-rule="evenodd" clip-rule="evenodd" d="M253.546 194.167C253.363 194.096 253.157 194.092 252.965 194.155C252.965 194.155 251.79 194.468 250.701 195.197C249.902 195.72 249.152 196.483 248.822 197.469C248.529 198.344 248.566 199.633 248.724 200.841C248.877 201.983 249.138 203.049 249.281 203.615C248.541 204.731 246.927 207.895 249.431 212.085C249.061 213.343 248.271 216.939 250.196 220.228C249.862 221.147 249.494 223.119 251.253 225.378C252.578 227.076 255.917 228.178 258.791 228.103C260.86 228.06 262.642 227.353 263.413 226.099C263.837 225.412 263.943 224.444 263.902 223.538C263.847 222.762 263.69 222.022 263.604 221.607C264.001 220.652 265.038 217.77 264.133 215.34C264.315 214.68 264.626 213.047 264.458 211.325C264.318 209.867 263.815 208.36 262.652 207.18C262.865 205.935 263.214 202.853 261.799 200.696C261.777 200.678 261.777 200.651 261.75 200.611L258.142 196.084C258.04 195.959 257.896 195.861 257.735 195.79L253.546 194.167ZM253.186 196.005L256.848 197.432L260.277 201.732C261.692 203.912 260.749 207.276 260.749 207.276C260.651 207.642 260.776 208.007 261.063 208.225C262.109 209.103 262.495 210.338 262.631 211.502C262.812 213.397 262.291 215.142 262.291 215.142C262.22 215.347 262.243 215.592 262.328 215.784C262.731 216.68 262.715 217.706 262.577 218.589C262.36 220.012 261.798 221.11 261.798 221.11C261.687 221.347 261.665 221.57 261.732 221.806C261.732 221.806 261.997 222.698 262.065 223.648C262.093 224.178 262.08 224.736 261.826 225.115C261.621 225.495 261.219 225.732 260.768 225.911C260.187 226.121 259.481 226.233 258.748 226.261C256.478 226.322 253.774 225.58 252.708 224.239C251.155 222.247 252.025 220.627 252.025 220.627C252.216 220.319 252.202 219.945 252.019 219.651C249.749 216.264 251.308 212.305 251.308 212.305C251.415 212.029 251.383 211.717 251.226 211.467C248.549 207.318 250.99 204.429 250.99 204.429C251.19 204.188 251.266 203.844 251.172 203.546C251.172 203.546 250.768 202.137 250.551 200.598C250.438 199.675 250.366 198.699 250.593 198.034C250.784 197.458 251.253 197.034 251.74 196.721C252.284 196.359 252.865 196.126 253.186 196.005Z" fill="#18181B"/>
<path fill-rule="evenodd" clip-rule="evenodd" d="M250.565 204.781L261.612 208.92C262.1 209.106 262.636 208.865 262.814 208.378C262.987 207.914 262.741 207.379 262.28 207.193L251.233 203.054C250.746 202.867 250.21 203.109 250.036 203.595C249.858 204.059 250.104 204.594 250.565 204.781Z" fill="#18181B"/>
<path fill-rule="evenodd" clip-rule="evenodd" d="M250.701 212.489L262.699 215.952C263.182 216.099 263.7 215.826 263.842 215.322C263.985 214.836 263.707 214.341 263.229 214.19L251.23 210.708C250.752 210.584 250.229 210.857 250.087 211.339C249.94 211.847 250.222 212.342 250.701 212.489Z" fill="#18181B"/>
<path fill-rule="evenodd" clip-rule="evenodd" d="M250.762 220.607L261.811 222.613C262.303 222.702 262.789 222.38 262.883 221.881C262.976 221.359 262.645 220.877 262.135 220.789L251.103 218.782C250.594 218.694 250.103 219.038 250.01 219.537C249.943 220.037 250.274 220.518 250.762 220.607Z" fill="#18181B"/>
<path fill-rule="evenodd" clip-rule="evenodd" d="M265.081 207.582C265.081 207.582 267.752 213.319 273.842 216.304C274.307 216.527 274.861 216.347 275.084 215.883C275.307 215.419 275.127 214.862 274.662 214.644C269.171 211.944 266.77 206.804 266.77 206.804C266.545 206.34 265.991 206.14 265.522 206.364C265.058 206.588 264.857 207.119 265.081 207.582Z" fill="#18181B"/>
<path fill-rule="evenodd" clip-rule="evenodd" d="M315.744 232.853C315.744 232.853 299.736 218.07 292.738 218.012C292.738 218.012 287.452 215.383 284.675 213.986C283.696 213.501 282.499 213.725 281.767 214.547C279.08 217.561 272.784 225.107 269.796 232.782C269.533 233.447 269.601 234.178 269.932 234.798C270.846 236.456 272.893 239.892 275.274 242.793C275.274 242.793 273.239 248.776 288.177 262.321C303.116 275.87 322.522 291.934 339.893 296.015L331.43 240.656L315.744 232.853Z" fill="#196CFA"/>
<path fill-rule="evenodd" clip-rule="evenodd" d="M278.375 240.281C278.375 240.281 282.96 229.789 291.3 223.284C291.701 222.976 291.768 222.401 291.454 222C291.145 221.603 290.569 221.515 290.167 221.845C281.47 228.596 276.667 239.529 276.667 239.529C276.467 239.993 276.691 240.546 277.156 240.746C277.621 240.946 278.157 240.745 278.375 240.281Z" fill="#18181B"/>
<path fill-rule="evenodd" clip-rule="evenodd" d="M333.121 193.648C333.121 193.648 331.368 175.497 324.225 163.316C324.225 163.316 311.786 161.16 296.717 167.918C296.717 167.918 290.688 177.743 301.269 184.402C301.269 184.402 304.247 189.099 310.493 191.727L312.254 198.861L324.281 207.356L333.121 193.648Z" fill="white"/>
<path fill-rule="evenodd" clip-rule="evenodd" d="M333.902 194.157C334.013 193.978 334.08 193.782 334.057 193.559C334.057 193.559 332.26 175.185 325.005 162.849C324.871 162.603 324.647 162.452 324.383 162.408C324.383 162.408 311.698 160.185 296.339 167.077C296.187 167.145 296.03 167.279 295.941 167.43C295.941 167.43 292.748 172.622 294.757 178.226C295.583 180.553 297.315 182.963 300.607 185.087C301.229 185.974 304.188 189.935 309.697 192.39L311.372 199.083C311.417 199.283 311.547 199.48 311.726 199.613L323.73 208.086C323.95 208.242 324.196 208.308 324.441 208.241C324.705 208.196 324.906 208.062 325.04 207.843L333.902 194.157ZM332.171 193.428L324.014 206.029L313.078 198.309L311.385 191.505C311.317 191.215 311.116 190.997 310.852 190.886C304.919 188.369 302.049 183.916 302.049 183.916C301.981 183.805 301.87 183.694 301.758 183.627C298.802 181.771 297.244 179.667 296.486 177.603C295.015 173.484 296.856 169.601 297.386 168.628C310.437 162.871 321.409 163.874 323.653 164.162C329.972 175.233 331.922 191.01 332.171 193.428Z" fill="#18181B"/>
<path fill-rule="evenodd" clip-rule="evenodd" d="M302.646 184.799C302.045 183.315 301.482 179.769 301.926 177.463C302.015 176.954 301.679 176.464 301.169 176.38C300.682 176.291 300.191 176.627 300.102 177.113C299.596 179.749 300.245 183.807 300.935 185.488C301.137 185.974 301.669 186.196 302.138 185.995C302.602 185.82 302.843 185.263 302.646 184.799Z" fill="#18181B"/>
<path fill-rule="evenodd" clip-rule="evenodd" d="M352.365 220.04C355.773 228.68 359.428 239.072 359.428 239.072L373.565 194.769C373.565 194.769 383.979 179.109 402.176 186.066C420.373 193.023 422.089 218.07 415.003 233.083C407.917 248.096 386.96 305.949 364.405 312.093C341.877 318.241 333.702 300.031 326.211 277.543C326.211 277.543 301.226 221.323 311.517 213.397C311.517 213.397 309.935 206.731 309.906 201.143C309.927 199.836 310.743 198.702 311.989 198.281C316.362 196.812 326.904 193.298 332.408 191.872C333.61 191.603 334.83 192.092 335.497 193.108C337.257 195.742 340.526 200.814 341.816 203.805C341.816 203.805 344.77 203.801 348.309 210.625C349.402 212.729 350.873 216.206 352.365 220.04Z" fill="#196CFA"/>
<path fill-rule="evenodd" clip-rule="evenodd" d="M360.297 239.359C360.297 239.359 373.571 197.809 374.407 195.194C375.317 193.886 385.181 180.551 401.844 186.935C410.621 190.291 415.408 198.046 417.17 206.728C418.938 215.548 417.641 225.344 414.164 232.686C409.931 241.692 400.702 266.083 389.135 285.491C384.551 293.186 379.581 300.088 374.439 304.902C371.087 308.033 367.649 310.254 364.164 311.209C363.673 311.343 363.388 311.856 363.522 312.342C363.657 312.828 364.167 313.118 364.654 312.983C371.583 311.115 378.411 304.5 384.706 295.692C399.07 275.594 410.867 244.019 415.85 233.482C419.46 225.81 420.824 215.568 418.971 206.373C417.091 197.067 411.906 188.804 402.508 185.203C383.605 177.957 372.811 194.26 372.811 194.26C372.744 194.349 372.722 194.416 372.699 194.505L358.545 238.786C358.389 239.273 358.653 239.808 359.145 239.959C359.632 240.114 360.142 239.85 360.297 239.359Z" fill="#18181B"/>
<path fill-rule="evenodd" clip-rule="evenodd" d="M327.055 277.169C327.055 277.169 317.213 255.018 312.458 236.604C312.323 236.118 311.813 235.806 311.326 235.94C310.835 236.075 310.527 236.561 310.662 237.07C315.458 255.596 325.367 277.902 325.367 277.902C325.568 278.388 326.123 278.588 326.592 278.387C327.056 278.163 327.257 277.632 327.055 277.169Z" fill="#18181B"/>
<path fill-rule="evenodd" clip-rule="evenodd" d="M353.397 225.248C353.397 225.248 363.706 249.771 363.105 265.882C363.083 266.395 363.486 266.814 363.996 266.835C364.505 266.857 364.929 266.455 364.951 265.947C365.551 249.546 355.103 224.537 355.103 224.537C354.901 224.069 354.369 223.851 353.882 224.048C353.413 224.249 353.195 224.78 353.397 225.248Z" fill="#18181B"/>
<path fill-rule="evenodd" clip-rule="evenodd" d="M315.183 212.929C315.183 212.929 328.815 207.546 337.894 206.473C338.404 206.428 338.761 205.964 338.715 205.451C338.648 204.942 338.182 204.586 337.691 204.654C328.433 205.731 314.515 211.199 314.515 211.199C314.028 211.401 313.806 211.932 313.985 212.395C314.164 212.886 314.719 213.104 315.183 212.929Z" fill="#18181B"/>
<path fill-rule="evenodd" clip-rule="evenodd" d="M85.8537 391.927L515.968 391.382C516.478 391.381 516.902 390.979 516.901 390.471C516.901 389.966 516.475 389.543 515.966 389.544L85.8514 390.089C85.3419 390.089 84.9224 390.514 84.9231 391.018C84.9237 391.526 85.3443 391.927 85.8537 391.927Z" fill="#18181B"/>
<path fill-rule="evenodd" clip-rule="evenodd" d="M284.119 124.506C284.119 124.506 289.713 138.107 294.448 143.453C294.448 143.453 294.311 158.645 302.906 152.791C302.906 152.791 317.583 172.308 334.905 155.525L346.379 171.54L380.593 147.769L363.429 127.166L332.559 98.5753L295.84 99.7949L284.119 124.506Z" fill="white"/>
<path fill-rule="evenodd" clip-rule="evenodd" d="M283.296 124.108C283.189 124.34 283.167 124.63 283.261 124.857C283.261 124.857 288.775 138.2 293.546 143.8C293.56 144.84 293.699 147.979 294.578 150.601C295.313 152.785 296.603 154.581 298.552 154.971C299.665 155.211 301.036 154.995 302.706 154.007C304.608 156.239 311.37 163.282 320.352 163.258C324.718 163.252 329.627 161.613 334.765 156.919L345.625 172.061C345.916 172.494 346.484 172.573 346.912 172.287L381.126 148.538C381.35 148.381 381.483 148.163 381.51 147.895C381.563 147.636 381.482 147.382 381.312 147.195L364.14 126.57C364.108 126.539 364.081 126.526 364.05 126.49L333.179 97.8991C333.014 97.7343 332.781 97.632 332.535 97.6457L295.799 98.8697C295.464 98.888 295.143 99.0757 295 99.4059L283.296 124.108ZM285.142 124.529C285.142 124.529 294.778 104.183 296.441 100.693C296.441 100.693 328.346 99.6447 332.203 99.5149C332.203 99.5149 361.472 126.609 362.751 127.794L379.248 147.586L346.601 170.249L335.66 154.982C335.504 154.768 335.253 154.63 334.998 154.604C334.721 154.582 334.462 154.685 334.266 154.855C329.285 159.674 324.559 161.406 320.349 161.407C310.536 161.432 303.656 152.249 303.656 152.249C303.351 151.843 302.806 151.755 302.395 152.036C300.949 153.015 299.836 153.346 298.92 153.156C297.575 152.885 296.849 151.521 296.333 150.028C295.355 147.09 295.378 143.464 295.378 143.464C295.391 143.218 295.301 143.009 295.158 142.835C290.947 138.086 286.07 126.741 285.142 124.529Z" fill="#18181B"/>
<path fill-rule="evenodd" clip-rule="evenodd" d="M334.621 110.586C334.621 110.586 330.582 114.632 327.873 121.576C327.677 122.053 327.91 122.588 328.38 122.775C328.872 122.957 329.408 122.724 329.581 122.251C332.152 115.709 335.954 111.887 335.954 111.887C336.307 111.529 336.297 110.945 335.935 110.584C335.572 110.219 334.996 110.22 334.621 110.586Z" fill="#18181B"/>
<path fill-rule="evenodd" clip-rule="evenodd" d="M336.711 117.686C336.711 117.686 333.17 116.798 330.726 116.788C330.216 116.784 329.806 117.199 329.802 117.708C329.798 118.216 330.214 118.631 330.724 118.634C332.98 118.645 336.262 119.475 336.262 119.475C336.767 119.599 337.267 119.3 337.387 118.804C337.507 118.314 337.216 117.81 336.711 117.686Z" fill="#18181B"/>
<path d="M302.77 137.269C304.141 136.625 304.729 134.992 304.079 133.624C303.434 132.255 301.798 131.669 300.427 132.313C299.056 132.961 298.468 134.594 299.113 135.963C299.763 137.327 301.399 137.913 302.77 137.269Z" fill="#18181B"/>
<path fill-rule="evenodd" clip-rule="evenodd" d="M322.04 111.477C322.04 111.477 333.568 152.301 332.251 153.796C330.859 155.368 315.46 113.453 315.46 113.453C313.799 114.177 312.021 114.84 309.984 115.409L301.243 101.669L305.098 117.404C305.098 117.404 294.269 124.019 281.767 128.696C281.767 128.696 261.294 95.9034 288.698 72.3366C316.102 48.7697 372.737 46.8336 374.099 120.542L358.963 133.772C358.963 133.772 346.951 134.345 336.73 126.03C336.73 126.03 339.61 124.617 341.684 121.225C343.196 118.761 343.476 114.398 340.401 110.187C333.113 100.139 322.04 111.477 322.04 111.477Z" fill="#18181B"/>
<path fill-rule="evenodd" clip-rule="evenodd" d="M295.749 130.407C295.859 129.364 296.662 128.056 297.872 126.997C299.778 125.34 302.721 124.261 305.892 125.8C306.343 126.009 306.897 125.835 307.129 125.357C307.347 124.911 307.141 124.349 306.689 124.14C302.705 122.205 299.034 123.517 296.663 125.62C295.039 127.036 294.044 128.862 293.899 130.24C293.859 130.731 294.231 131.194 294.74 131.234C295.249 131.269 295.687 130.907 295.749 130.407Z" fill="#18181B"/>
<path fill-rule="evenodd" clip-rule="evenodd" d="M341.029 122.052C341.029 122.052 338.942 125.73 332.706 127.674C332.201 127.835 331.938 128.344 332.091 128.825C332.244 129.307 332.762 129.591 333.24 129.439C340.374 127.213 342.648 122.946 342.648 122.946C342.884 122.496 342.731 121.938 342.28 121.707C341.846 121.444 341.274 121.628 341.029 122.052Z" fill="#18181B"/>
<path fill-rule="evenodd" clip-rule="evenodd" d="M377.009 121.672C375.738 120.216 373.548 120.076 372.102 121.326C368.736 124.243 362.96 129.259 359.612 132.158C358.165 133.409 357.998 135.595 359.269 137.051C360.518 138.486 362.708 138.626 364.154 137.375C367.502 134.472 373.278 129.46 376.644 126.543C378.09 125.293 378.257 123.107 377.009 121.672Z" fill="white"/>
<path fill-rule="evenodd" clip-rule="evenodd" d="M377.689 121.079C376.083 119.234 373.312 119.037 371.486 120.623C368.12 123.54 362.34 128.556 358.996 131.455C357.17 133.036 356.955 135.824 358.562 137.668C360.15 139.491 362.944 139.67 364.765 138.089C368.113 135.185 373.893 130.174 377.259 127.257C379.085 125.671 379.278 122.901 377.689 121.079ZM376.301 122.285C377.214 123.332 377.113 124.942 376.046 125.862L363.556 136.694C362.49 137.619 360.881 137.496 359.972 136.444C359.037 135.375 359.142 133.765 360.204 132.84L372.694 122.008C373.761 121.088 375.37 121.211 376.301 122.285Z" fill="#18181B"/>
<path fill-rule="evenodd" clip-rule="evenodd" d="M311.844 154.192C314.055 153.462 316.303 153.121 318.613 153.278C319.127 153.318 319.56 152.942 319.6 152.43C319.639 151.917 319.263 151.484 318.749 151.445C316.202 151.27 313.718 151.63 311.27 152.44C310.779 152.597 310.524 153.132 310.682 153.605C310.839 154.095 311.371 154.349 311.844 154.192Z" fill="#18181B"/>
<path fill-rule="evenodd" clip-rule="evenodd" d="M363.22 137.575C363.22 137.575 357.315 160.923 380.108 183.592L408.577 161.55L404.493 154.57L411.388 158.254L421.849 150.556C421.849 150.556 407.553 122.408 376.397 125.971L363.22 137.575Z" fill="#18181B"/>
<path fill-rule="evenodd" clip-rule="evenodd" d="M87.5015 181.935C87.6205 181.613 87.9275 181.4 88.271 181.4C88.6146 181.399 88.9222 181.612 89.0419 181.933C89.5462 183.285 90.1775 184.987 90.5694 186.033C90.798 186.65 91.2831 187.132 91.9017 187.359C92.9508 187.747 94.6583 188.373 96.0149 188.873C96.4417 189.031 96.6593 189.5 96.5007 189.926C96.4178 190.149 96.2409 190.326 96.0168 190.41C94.6615 190.913 92.9592 191.543 91.9075 191.934C91.2895 192.162 90.8056 192.646 90.5785 193.263C90.1893 194.31 89.5623 196.014 89.0614 197.364C88.9425 197.688 88.6355 197.902 88.2919 197.902C87.9484 197.903 87.6372 197.69 87.5211 197.366C87.0168 196.017 86.3855 194.315 85.9936 193.269C85.765 192.652 85.2799 192.169 84.6613 191.943C83.6086 191.555 81.9047 190.929 80.5481 190.429C80.1213 190.271 79.9037 189.802 80.0623 189.376C80.1452 189.153 80.3221 188.976 80.5462 188.892C81.9015 188.389 83.6038 187.759 84.6555 187.368C85.2735 187.14 85.7574 186.656 85.9845 186.039C86.3736 184.992 87.0006 183.288 87.5015 181.935Z" fill="#196CFA"/>
<path d="M114.975 181.366C114.631 181.367 114.324 181.58 114.205 181.901C113.704 183.255 113.077 184.958 112.688 186.005C112.461 186.622 111.977 187.106 111.359 187.335C110.308 187.726 108.605 188.355 107.25 188.859C107.026 188.942 106.849 189.119 106.766 189.343C106.608 189.769 106.825 190.237 107.252 190.396C108.609 190.895 110.312 191.521 111.365 191.909C111.984 192.136 112.469 192.619 112.697 193.235C113.089 194.281 113.721 195.983 114.225 197.332C114.341 197.657 114.652 197.869 114.996 197.869C115.339 197.868 115.646 197.655 115.765 197.33C116.266 195.98 116.893 194.276 117.282 193.23C117.509 192.612 117.993 192.128 118.611 191.9C119.663 191.509 121.365 190.879 122.721 190.376C122.945 190.293 123.122 190.116 123.205 189.892C123.363 189.466 123.146 188.997 122.719 188.839C121.362 188.339 119.655 187.714 118.605 187.325C117.987 187.099 117.502 186.616 117.273 185.999C116.881 184.954 116.25 183.251 115.746 181.899C115.626 181.578 115.318 181.366 114.975 181.366Z" fill="#196CFA"/>
<path d="M139.135 181.336C138.792 181.336 138.485 181.549 138.366 181.87C137.865 183.224 137.238 184.928 136.849 185.975C136.622 186.592 136.138 187.076 135.52 187.304C134.468 187.695 132.766 188.325 131.411 188.828C131.186 188.911 131.01 189.088 130.927 189.312C130.768 189.738 130.986 190.207 131.413 190.365C132.769 190.865 134.473 191.49 135.526 191.879C136.144 192.105 136.629 192.588 136.858 193.205C137.25 194.251 137.881 195.953 138.385 197.301C138.502 197.626 138.813 197.838 139.156 197.838C139.5 197.838 139.807 197.624 139.926 197.299C140.427 195.949 141.054 194.246 141.443 193.199C141.67 192.582 142.154 192.098 142.772 191.87C143.824 191.479 145.526 190.849 146.881 190.345C147.105 190.262 147.282 190.085 147.365 189.861C147.524 189.435 147.306 188.967 146.879 188.809C145.523 188.309 143.815 187.683 142.766 187.295C142.147 187.068 141.662 186.585 141.434 185.969C141.042 184.923 140.411 183.221 139.906 181.869C139.787 181.548 139.479 181.335 139.135 181.336Z" fill="#196CFA"/>
</g>
<defs>
<clipPath id="clip0_6205_61316">
<rect width="516" height="400" fill="white" transform="translate(0.371094 0.652344) rotate(-0.0725834)"/>
</clipPath>
</defs>
</svg>
