<svg width="24" height="24" viewBox="0 0 24 24" fill="none" xmlns="http://www.w3.org/2000/svg">
<path d="M21 10.0815V16.6801C21 18.1922 21 18.9483 20.7057 19.5259C20.4469 20.0339 20.0338 20.4469 19.5258 20.7058C18.9482 21.0001 18.1921 21.0001 16.68 21.0001H7.32C5.80786 21.0001 5.05179 21.0001 4.47423 20.7058C3.96619 20.4469 3.55314 20.0339 3.29428 19.5259C3 18.9483 3 18.1922 3 16.6801V10.0815C3 9.79601 3 9.65324 3.03975 9.52397C3.07494 9.40953 3.13261 9.30326 3.20938 9.21139C3.29611 9.10761 3.41581 9.0298 3.65522 8.87419L9.3 5.20508L4.85748 8.09272C4.23841 8.49511 3.92888 8.69631 3.82168 8.95145C3.72799 9.17443 3.72799 9.42573 3.82168 9.6487C3.92888 9.90385 4.23841 10.105 4.85748 10.5074L10.4304 14.1299C10.9986 14.4991 11.2826 14.6838 11.5887 14.7556C11.8592 14.8191 12.1408 14.8191 12.4113 14.7556C12.7174 14.6838 13.0015 14.4991 13.5696 14.1299L19.1425 10.5074C19.7616 10.105 20.0711 9.90385 20.1783 9.6487C20.272 9.42573 20.272 9.17443 20.1783 8.95145C20.0711 8.69631 19.7616 8.49511 19.1425 8.09272L14.7 5.20508L20.3448 8.87419C20.5842 9.0298 20.7039 9.10761 20.7906 9.21139C20.8674 9.30326 20.9251 9.40953 20.9602 9.52397C21 9.65324 21 9.79601 21 10.0815Z" stroke="#3F3F46" stroke-width="1.5" stroke-linecap="round" stroke-linejoin="round"/>
<path d="M11.9996 3L11.9998 10.5M11.9998 10.5L15 8M11.9998 10.5L9 8" stroke="#3F3F46" stroke-width="1.3" stroke-linecap="round" stroke-linejoin="round"/>
</svg>
