<svg width="331" height="221" viewBox="0 0 331 221" fill="none" xmlns="http://www.w3.org/2000/svg">
<g clip-path="url(#clip0_1982_55902)">
<path d="M22.8785 172.846L22.8782 172.847C14.4038 176.081 8.54568 185.64 9.25427 196.316H293.014C293.017 196.306 293.019 196.296 293.021 196.285C293.072 196.059 293.133 195.729 293.174 195.323C293.256 194.51 293.256 193.402 292.931 192.214C292.292 189.875 290.368 187.117 285.02 185.724C279.67 184.332 272.538 185.872 266.674 187.809C263.756 188.773 261.177 189.826 259.328 190.638C258.403 191.044 257.662 191.39 257.152 191.634C256.897 191.755 256.701 191.852 256.568 191.918C256.501 191.95 256.451 191.976 256.417 191.992L256.38 192.012L256.371 192.016L256.368 192.017L256.368 192.018L256.168 191.625L256.368 192.018C256.307 192.049 256.24 192.065 256.171 192.066C223.675 192.34 196.217 192.645 168.839 192.949C140.576 193.263 112.399 193.576 78.8514 193.854C78.6753 193.855 78.5151 193.751 78.4443 193.59C78.231 193.104 75.2783 186.489 67.903 185.139L67.9028 185.139C62.813 184.205 57.5627 186.13 54.2376 190.131C54.1337 190.256 53.9693 190.313 53.81 190.28C53.6508 190.248 53.5225 190.13 53.4763 189.974C49.1942 175.524 34.06 168.569 22.8785 172.846Z" stroke="#196CFA" stroke-width="0.881333" stroke-miterlimit="10" stroke-linecap="round" stroke-linejoin="round"/>
<path d="M27.023 213.3C17.2533 213.137 2.35068 212.766 0.828125 207.182C-0.382996 202.782 7.03369 196.292 13.8275 193.042C27.1429 186.672 41.5601 191.064 44.9663 192.102C45.0802 192.136 45.1817 192.167 45.2705 192.194M27.023 213.3L27.0303 212.859C22.1404 212.778 16.0032 212.644 10.9016 211.839C8.34921 211.435 6.08511 210.868 4.37579 210.071C2.65753 209.27 1.5834 208.276 1.25327 207.066L1.25299 207.065C0.989349 206.107 1.18381 204.992 1.78806 203.768C2.39117 202.547 3.38293 201.26 4.63919 199.991C7.15106 197.452 10.6604 195.045 14.0177 193.439C27.1735 187.146 41.4438 191.49 44.8441 192.525C44.9556 192.559 45.0554 192.59 45.1431 192.616M27.023 213.3L27.0304 212.859C46.6519 213.19 64.1316 210.218 77.6102 207.927C78.3059 207.809 78.9909 207.693 79.6649 207.579C86.52 206.419 92.2752 205.497 96.6157 205.41C98.7867 205.366 100.637 205.53 102.11 205.994C103.591 206.461 104.718 207.242 105.382 208.443C106.043 209.638 105.964 210.76 105.892 211.774C105.886 211.864 105.88 211.953 105.874 212.041C105.804 213.127 105.802 214.163 106.619 215.375C107.676 216.942 109.494 217.865 111.775 218.335C114.052 218.804 116.729 218.807 119.414 218.584C122.094 218.361 124.757 217.914 126.998 217.497C127.645 217.376 128.261 217.257 128.833 217.147C130.223 216.878 131.356 216.66 132.057 216.588L132.058 216.588C155.137 214.249 193.783 216.199 227.305 217.891C228.122 217.932 228.935 217.973 229.745 218.014C246.793 218.873 262.365 219.636 273.703 219.694C279.375 219.723 283.969 219.575 287.151 219.179C288.747 218.981 289.958 218.723 290.767 218.408C291.172 218.25 291.449 218.087 291.621 217.932C291.788 217.781 291.836 217.658 291.842 217.558L291.842 217.558C291.855 217.336 291.748 217.023 291.444 216.605C291.146 216.196 290.699 215.742 290.136 215.252C289.03 214.288 287.543 213.24 286.027 212.17L285.943 212.112C284.411 211.031 282.854 209.93 281.702 208.906C281.126 208.394 280.633 207.886 280.291 207.394C279.954 206.91 279.723 206.382 279.778 205.848L279.778 205.848C279.837 205.279 280.301 204.89 280.826 204.618C281.373 204.334 282.125 204.104 283.024 203.911C284.828 203.522 287.335 203.261 290.247 203.075C294.891 202.778 300.625 202.671 306.293 202.565C307.738 202.537 309.18 202.51 310.598 202.48C317.598 202.332 324.003 202.11 327.611 201.45C328.512 201.285 329.212 201.098 329.694 200.889C330.211 200.666 330.341 200.477 330.36 200.398C330.37 200.357 330.38 200.174 329.951 199.808C329.545 199.462 328.856 199.05 327.82 198.573L327.82 198.573L327.816 198.571C327.747 198.539 327.524 198.465 327.08 198.353C326.652 198.245 326.049 198.109 325.248 197.949C323.647 197.628 321.263 197.208 317.919 196.712C311.235 195.72 300.721 194.422 284.958 192.984C203.019 196.611 147.313 197.798 109.979 197.441C72.6633 197.084 53.651 195.185 45.1431 192.616M27.023 213.3C46.6865 213.631 64.202 210.654 77.6784 208.363C92.5501 205.835 102.503 204.143 104.996 208.656C105.592 209.732 105.523 210.729 105.452 211.753C105.369 212.95 105.284 214.183 106.253 215.622L284.969 192.542C121.064 199.798 62.1455 197.291 45.2705 192.194M45.1431 192.616L45.2705 192.194M45.1431 192.616C45.1434 192.616 45.1436 192.616 45.1438 192.616L45.2705 192.194" fill="#B9DCFF" stroke="#18181B" stroke-width="0.881333" stroke-miterlimit="10" stroke-linecap="round" stroke-linejoin="round"/>
<path d="M56.3443 161.247C56.259 161.337 56.1884 161.413 56.1325 161.474C56.1344 161.48 56.1363 161.486 56.1383 161.491C56.193 161.654 56.2789 161.893 56.4018 162.195C56.6476 162.798 57.041 163.649 57.628 164.628C58.802 166.587 60.7472 169.054 63.8316 171.087C69.9268 175.104 80.5916 177.497 98.8289 170.633C98.8044 170.589 98.7779 170.542 98.7495 170.493C98.5364 170.121 98.2151 169.584 97.7847 168.93C96.9237 167.621 95.6279 165.844 93.8918 163.975C90.4167 160.235 85.1988 156.151 78.1905 154.696C71.1864 153.247 65.6329 154.991 61.8256 157.097C59.9202 158.15 58.4529 159.294 57.4632 160.174C56.9686 160.613 56.594 160.986 56.3443 161.247Z" fill="#FAA81A" stroke="#18181B" stroke-width="0.881333" stroke-miterlimit="10"/>
<path d="M69.3287 163.606L71.7806 164.101C71.879 164.068 71.979 164.036 72.0805 164.005C71.1818 163.867 70.2642 163.733 69.3287 163.606ZM82.7691 166.041C80.5762 165.542 78.1633 165.045 75.5593 164.582L75.1891 164.789L88.599 167.495C87.9137 167.309 87.1892 167.117 86.4275 166.923C85.5929 166.71 84.7137 166.494 83.7921 166.278C83.6907 166.331 83.5699 166.345 83.4551 166.309C83.2151 166.234 82.9866 166.144 82.7691 166.041ZM72.6773 165.181L71.8464 165.014C70.8012 165.405 69.9664 165.988 69.317 166.586C68.9596 166.916 68.6583 167.251 68.4099 167.562L72.6773 165.181Z" stroke="#18181B" stroke-width="0.881333" stroke-miterlimit="10" stroke-linecap="round" stroke-linejoin="round"/>
<path d="M113.726 146.535C110.108 137.38 101.73 127.069 82.6 122.471C82.037 133.042 85.031 143.854 89.7913 152.457C94.6163 161.177 101.201 167.533 107.632 169.149C110.57 168.52 112.725 167.169 114.15 165.97C114.871 165.364 115.403 164.798 115.754 164.385C115.93 164.179 116.059 164.012 116.144 163.898C116.17 163.862 116.192 163.832 116.21 163.807C116.217 163.748 116.228 163.663 116.239 163.553C116.264 163.316 116.296 162.964 116.323 162.512C116.378 161.609 116.412 160.304 116.333 158.708C116.173 155.514 115.555 151.164 113.726 146.535Z" fill="white" stroke="#18181B" stroke-width="0.881333" stroke-miterlimit="10" stroke-linecap="round" stroke-linejoin="round"/>
<path d="M109.395 158.256L99.1275 143.99L98.9653 146.091C100.533 148.257 102.167 150.293 103.745 152.135C105.834 154.575 107.816 156.666 109.395 158.256ZM92.2448 134.427C93.5863 137.696 95.4328 140.927 97.476 143.96C97.4653 143.743 97.4607 143.521 97.4615 143.294C97.4632 142.809 97.4892 142.298 97.5334 141.775L92.2448 134.427Z" stroke="#18181B" stroke-width="0.881333" stroke-miterlimit="10" stroke-linecap="round" stroke-linejoin="round"/>
<path d="M131.92 146.273C134.378 137.213 135.356 124.738 129.547 110.892C122.891 118.01 118.556 127.384 116.125 136.557C113.668 145.833 113.169 154.858 114.159 161.075C117.061 162.499 119.881 162.493 122.003 162.119C123.088 161.927 123.985 161.64 124.61 161.401C124.922 161.281 125.166 161.175 125.329 161.098C125.391 161.07 125.442 161.045 125.48 161.026C125.508 160.985 125.545 160.93 125.591 160.861C125.704 160.691 125.87 160.435 126.076 160.1C126.49 159.428 127.069 158.434 127.727 157.152C129.043 154.587 130.672 150.87 131.92 146.273Z" fill="#FAA81A" stroke="#18181B" stroke-width="0.881333" stroke-miterlimit="10"/>
<path d="M119.319 154.128L122.978 135.998C122.793 136.732 122.606 137.482 122.421 138.241C121.456 142.197 120.521 146.416 119.886 150.181C119.65 151.577 119.457 152.904 119.319 154.128ZM120.219 142C120.1 140.965 119.763 140.11 119.386 139.44L120.219 142Z" stroke="#18181B" stroke-width="0.881333" stroke-miterlimit="10" stroke-linecap="round" stroke-linejoin="round"/>
<path d="M117.436 155.466L265.407 160.919L318.142 67.1025L174.51 69.6158L117.436 155.466ZM318.462 82.356V69.3718L266.257 161.208L271.989 164.559L318.462 82.356ZM209.472 205.426V188.45L66.4677 183.55C64.1666 186.435 63.0219 189.052 63.0005 191.4C62.9793 193.735 64.0685 195.892 66.4311 197.866L209.472 205.426Z" fill="white" stroke="#18181B" stroke-width="0.881333" stroke-miterlimit="10" stroke-linecap="round" stroke-linejoin="round"/>
<path d="M263.728 163.637L115.889 158.644L68.0019 182.72L209.815 187.58L263.728 163.637ZM310.812 69.9803L177.233 72.1467L125.814 150.064L262.892 156.481L310.812 69.9803Z" fill="white" stroke="#18181B" stroke-width="0.881333" stroke-miterlimit="10" stroke-linecap="round" stroke-linejoin="round"/>
<path d="M192.713 144.419L208.365 144.778L251.608 145.754L258.287 134.04L278.438 98.7127L259.994 97.6562L209.9 110.101L192.713 144.419Z" fill="#18181B"/>
<path d="M257.709 124.214C257.699 123.963 257.691 123.764 257.685 123.624L251.72 120.242L215.206 121.771L210.388 130.49C209.045 134.746 208.65 138.305 208.589 140.797C208.558 142.047 208.612 143.029 208.673 143.695C208.697 143.966 208.723 144.185 208.745 144.348L251.367 145.309L257.859 133.923C257.88 131.015 257.834 128.394 257.783 126.493C257.757 125.53 257.73 124.751 257.709 124.214Z" fill="white" stroke="#18181B" stroke-width="0.881333" stroke-miterlimit="10" stroke-linecap="round" stroke-linejoin="round"/>
<path d="M248.266 123.394C248.266 123.394 236.247 129.025 218.322 125.786L219.406 123.348L244.067 121.711L248.266 123.394ZM169.658 176.275C169.312 176.275 138.007 175.079 138.007 175.079L123.336 182.88L153.66 184.424L169.658 176.275Z" fill="#18181B"/>
<path d="M149.499 196.141L149.597 194.122L139.498 193.626L139.4 195.644L149.499 196.141Z" fill="white" stroke="#18181B" stroke-width="0.881333" stroke-miterlimit="9.9999" stroke-linecap="round" stroke-linejoin="round"/>
<path d="M124.01 194.593L124.054 193.454L97.2856 192.399L97.2414 193.537L124.01 194.593Z" fill="white" stroke="#18181B" stroke-width="0.881333" stroke-miterlimit="9.9997" stroke-linecap="round" stroke-linejoin="round"/>
<mask id="path-16-inside-1_1982_55902" fill="white">
<path d="M207.769 48.5862C204.02 51.268 200.675 53.8453 200.675 53.8453C200.675 53.8453 198.057 44.256 203.121 36.4777C208.715 27.8984 224.852 29.9417 229.95 39.0085C229.95 39.0085 235.613 47.6575 244.622 48.0754C244.622 48.0754 247.598 63.9686 236.94 67.6952"/>
</mask>
<path d="M207.769 48.5862C204.02 51.268 200.675 53.8453 200.675 53.8453C200.675 53.8453 198.057 44.256 203.121 36.4777C208.715 27.8984 224.852 29.9417 229.95 39.0085C229.95 39.0085 235.613 47.6575 244.622 48.0754C244.622 48.0754 247.598 63.9686 236.94 67.6952" fill="#18181B"/>
<path d="M207.256 47.8694C207.652 47.5862 208.203 47.6776 208.486 48.0735C208.769 48.4693 208.678 49.0198 208.282 49.303L207.256 47.8694ZM200.675 53.8453L201.213 54.5434C200.98 54.7228 200.674 54.7743 200.395 54.6808C200.116 54.5872 199.903 54.3609 199.825 54.0774L200.675 53.8453ZM203.121 36.4777L202.382 35.9969L202.382 35.9963L203.121 36.4777ZM229.95 39.0085L229.213 39.4914C229.202 39.4748 229.191 39.4578 229.182 39.4405L229.95 39.0085ZM244.622 48.0754L244.663 47.195C245.071 47.214 245.413 47.5113 245.488 47.9132L244.622 48.0754ZM237.231 68.5271C236.771 68.6878 236.269 68.4455 236.108 67.9861C235.947 67.5266 236.189 67.0239 236.649 66.8632L237.231 68.5271ZM208.282 49.303C206.415 50.6388 204.647 51.9492 203.346 52.9262C202.695 53.4146 202.161 53.8193 201.791 54.1017C201.605 54.2429 201.461 54.3536 201.363 54.4288C201.313 54.4664 201.276 54.4952 201.251 54.5145C201.238 54.5241 201.229 54.5314 201.223 54.5363C201.219 54.5387 201.217 54.5405 201.216 54.5417C201.215 54.5423 201.214 54.5427 201.214 54.543C201.214 54.5432 201.213 54.5433 201.213 54.5433C201.213 54.5434 201.213 54.5434 201.213 54.5434C201.213 54.5434 201.213 54.5434 200.675 53.8453C200.137 53.1471 200.138 53.1471 200.138 53.1471C200.138 53.147 200.138 53.147 200.138 53.147C200.138 53.1469 200.138 53.1467 200.138 53.1466C200.139 53.1462 200.139 53.1457 200.14 53.1451C200.142 53.1438 200.144 53.1418 200.148 53.1393C200.154 53.1342 200.164 53.1267 200.177 53.1168C200.203 53.0971 200.241 53.0679 200.29 53.0298C200.39 52.9536 200.536 52.8419 200.723 52.6996C201.096 52.415 201.633 52.0078 202.287 51.5166C203.596 50.5345 205.375 49.2155 207.256 47.8694L208.282 49.303ZM200.675 53.8453C199.825 54.0774 199.825 54.0771 199.825 54.0767C199.825 54.0765 199.825 54.0761 199.825 54.0758C199.825 54.0751 199.824 54.0743 199.824 54.0733C199.824 54.0714 199.823 54.0689 199.822 54.0657C199.82 54.0595 199.818 54.051 199.815 54.0402C199.81 54.0186 199.802 53.9879 199.792 53.9484C199.772 53.8695 199.745 53.7556 199.712 53.6094C199.647 53.3172 199.562 52.8956 199.476 52.3672C199.303 51.3113 199.129 49.8233 199.118 48.084C199.096 44.6158 199.722 40.0823 202.382 35.9969L203.859 36.9586C201.455 40.6514 200.859 44.8016 200.88 48.0727C200.891 49.703 201.055 51.0984 201.215 52.0836C201.295 52.5757 201.375 52.9641 201.433 53.2267C201.462 53.3579 201.486 53.4576 201.502 53.5229C201.511 53.5556 201.517 53.5797 201.521 53.5949C201.523 53.6024 201.524 53.6078 201.525 53.6108C201.525 53.6124 201.526 53.6133 201.526 53.6137C201.526 53.6139 201.526 53.6139 201.526 53.6138C201.526 53.6138 201.526 53.6136 201.526 53.6136C201.526 53.6134 201.526 53.6131 200.675 53.8453ZM202.382 35.9963C205.424 31.3314 211.249 29.657 216.815 30.2494C222.385 30.8424 227.992 33.729 230.718 38.5766L229.182 39.4405C226.809 35.2212 221.799 32.5527 216.628 32.0022C211.452 31.4512 206.411 33.0447 203.859 36.9591L202.382 35.9963ZM229.95 39.0085C230.687 38.5257 230.687 38.5255 230.687 38.5253C230.687 38.5253 230.687 38.5252 230.687 38.5251C230.687 38.525 230.687 38.5251 230.687 38.5253C230.687 38.5256 230.688 38.5265 230.689 38.5279C230.691 38.5307 230.694 38.5355 230.698 38.5423C230.707 38.5558 230.722 38.5772 230.742 38.606C230.781 38.6636 230.842 38.7506 230.924 38.8629C231.087 39.0876 231.333 39.4131 231.656 39.8069C232.305 40.5956 233.26 41.6525 234.487 42.7207C236.95 44.8666 240.434 46.9989 244.663 47.195L244.581 48.9558C239.801 48.7341 235.949 46.3329 233.329 44.0498C232.013 42.9036 230.99 41.7721 230.295 40.926C229.947 40.5025 229.68 40.1491 229.498 39.8991C229.407 39.7741 229.337 39.6749 229.29 39.6055C229.266 39.5709 229.248 39.5437 229.235 39.5245C229.228 39.5149 229.223 39.5073 229.219 39.5017C229.218 39.499 229.216 39.4967 229.215 39.495C229.214 39.4941 229.214 39.4934 229.214 39.4928C229.213 39.4925 229.213 39.4921 229.213 39.492C229.213 39.4916 229.213 39.4914 229.95 39.0085ZM244.622 48.0754C245.488 47.9132 245.488 47.9136 245.488 47.914C245.488 47.9142 245.488 47.9147 245.488 47.9151C245.489 47.916 245.489 47.9171 245.489 47.9185C245.49 47.9212 245.49 47.9249 245.491 47.9295C245.493 47.9388 245.495 47.9518 245.498 47.9686C245.504 48.0021 245.512 48.0503 245.522 48.1125C245.543 48.2369 245.571 48.417 245.602 48.646C245.665 49.1037 245.741 49.7578 245.799 50.5531C245.915 52.1401 245.956 54.3067 245.651 56.6036C245.047 61.1621 243.033 66.4983 237.231 68.5271L236.649 66.8632C241.505 65.1654 243.331 60.6918 243.904 56.3721C244.188 54.2299 244.151 52.1903 244.041 50.6808C243.987 49.9279 243.914 49.3113 243.856 48.8853C243.826 48.6724 243.801 48.5074 243.783 48.3971C243.774 48.342 243.767 48.3006 243.762 48.2737C243.76 48.2603 243.758 48.2505 243.757 48.2444C243.756 48.2414 243.756 48.2393 243.756 48.2382C243.756 48.2376 243.755 48.2373 243.755 48.2372C243.755 48.2371 243.755 48.2373 243.755 48.2372C243.755 48.2374 243.756 48.2376 244.622 48.0754Z" fill="#18181B" mask="url(#path-16-inside-1_1982_55902)"/>
<path d="M223.27 73.5585C223.308 73.5467 223.343 73.5358 223.374 73.5258L223.412 73.3956C223.477 73.1716 223.57 72.8511 223.681 72.4648C223.904 71.6921 224.201 70.6568 224.497 69.6057C224.794 68.5542 225.09 67.4887 225.312 66.655C225.423 66.2378 225.515 65.8813 225.579 65.6147C225.611 65.4811 225.635 65.3735 225.65 65.2937C225.654 65.2768 225.657 65.2622 225.659 65.2499C225.652 65.2376 225.645 65.2234 225.635 65.2071C225.584 65.1158 225.504 64.9875 225.397 64.8237C225.182 64.4977 224.873 64.0548 224.499 63.5322C223.75 62.4882 222.75 61.1417 221.749 59.8088C220.748 58.4764 219.746 57.1597 218.995 56.176C218.62 55.6841 218.307 55.2756 218.088 54.9901L217.92 54.772L211.195 56.4829C211.196 56.5181 211.196 56.5558 211.197 56.5959C211.201 56.897 211.203 57.3331 211.193 57.8759C211.175 58.9613 211.111 60.4756 210.931 62.1933C210.589 65.4637 209.822 69.5195 208.109 72.75C212.298 74.357 216.112 74.5535 218.908 74.3376C220.358 74.2257 221.532 74.0031 222.342 73.8095C222.747 73.7126 223.06 73.6231 223.27 73.5585ZM225.687 65.3104C225.688 65.3105 225.687 65.3074 225.684 65.3006C225.686 65.3068 225.687 65.3102 225.687 65.3104Z" fill="#18181B" stroke="#18181B" stroke-width="0.881333" stroke-miterlimit="10" stroke-linecap="round" stroke-linejoin="round"/>
<path d="M254.582 119.739C254.825 119.659 255.026 119.591 255.183 119.536L238.594 70.0085C238.526 70.0169 238.449 70.0265 238.363 70.0372C237.985 70.0846 237.439 70.1541 236.768 70.2428C235.425 70.4203 233.581 70.6746 231.577 70.9816C227.554 71.5979 222.927 72.4205 220.384 73.2547C219.909 73.4106 219.361 73.9615 218.785 75.0142C218.222 76.0434 217.682 77.4603 217.173 79.1868C216.156 82.6366 215.286 87.251 214.606 92.2998C213.264 102.265 212.671 113.853 213.124 121.383C223.076 124.521 233.632 124.051 241.748 122.775C245.841 122.132 249.304 121.285 251.743 120.6C252.962 120.257 253.925 119.955 254.582 119.739Z" fill="#FAA81A" stroke="#18181B" stroke-width="0.881333" stroke-miterlimit="10" stroke-linecap="round" stroke-linejoin="round"/>
<path d="M237.039 74.1462L222.223 78.7225C227.549 79.6477 231.341 78.3938 233.847 76.8511C235.231 75.9989 236.232 75.0532 236.884 74.3227C236.938 74.2623 236.99 74.2034 237.039 74.1462Z" stroke="#18181B" stroke-width="0.881333" stroke-miterlimit="10" stroke-linecap="round" stroke-linejoin="round"/>
<mask id="path-21-inside-2_1982_55902" fill="white">
<path d="M226.464 54.1331C226.464 54.1331 226.303 58.1615 223.581 60.3441C211.285 67.7276 206.602 49.4429 206.602 49.4429C209.589 47.3068 214.007 44.2536 216.049 43.2203C215.956 41.6763 216.602 39.8885 219.451 37.1719C218.332 38.9017 218.471 44.3464 218.471 44.3464L221.354 42.547C221.354 42.547 222.335 38.4025 225.472 40.794C228.621 43.1855 226.453 47.539 226.453 47.539C226.453 47.539 226.729 49.0134 227.087 51.6835C231.701 67.0891 241.828 66.172 241.828 66.172C241.828 66.172 234.631 79.8826 220.801 76.7597C218.563 76.2489 218.944 73.0679 219.094 72.5107C219.532 70.8853 222.369 70.897 222.75 69.6083C223.661 66.5086 223.731 65.6844 222.312 61.0523"/>
</mask>
<path d="M226.464 54.1331C226.464 54.1331 226.303 58.1615 223.581 60.3441C211.285 67.7276 206.602 49.4429 206.602 49.4429C209.589 47.3068 214.007 44.2536 216.049 43.2203C215.956 41.6763 216.602 39.8885 219.451 37.1719C218.332 38.9017 218.471 44.3464 218.471 44.3464L221.354 42.547C221.354 42.547 222.335 38.4025 225.472 40.794C228.621 43.1855 226.453 47.539 226.453 47.539C226.453 47.539 226.729 49.0134 227.087 51.6835C231.701 67.0891 241.828 66.172 241.828 66.172C241.828 66.172 234.631 79.8826 220.801 76.7597C218.563 76.2489 218.944 73.0679 219.094 72.5107C219.532 70.8853 222.369 70.897 222.75 69.6083C223.661 66.5086 223.731 65.6844 222.312 61.0523" fill="white"/>
<path d="M225.584 54.0978C225.603 53.6114 226.013 53.233 226.499 53.2525C226.986 53.272 227.364 53.682 227.345 54.1684L225.584 54.0978ZM223.581 60.3441L224.132 61.0317C224.101 61.0565 224.068 61.0792 224.034 61.0997L223.581 60.3441ZM206.602 49.4429L205.748 49.6616C205.658 49.3092 205.793 48.9376 206.089 48.726L206.602 49.4429ZM216.049 43.2203L216.928 43.1678C216.949 43.5184 216.76 43.8481 216.447 44.0067L216.049 43.2203ZM219.451 37.1719L218.843 36.534C219.166 36.2257 219.669 36.2081 220.013 36.4931C220.357 36.778 220.434 37.2754 220.191 37.6505L219.451 37.1719ZM218.471 44.3464L218.937 45.0941C218.669 45.2616 218.332 45.2724 218.053 45.1225C217.775 44.9726 217.598 44.685 217.59 44.3688L218.471 44.3464ZM221.354 42.547L222.212 42.7499C222.159 42.9759 222.018 43.1717 221.821 43.2947L221.354 42.547ZM225.472 40.794L224.939 41.4958L224.938 41.4949L225.472 40.794ZM226.453 47.539L225.586 47.7016C225.551 47.513 225.578 47.3179 225.664 47.1461L226.453 47.539ZM227.087 51.6835L226.243 51.9364C226.229 51.8919 226.22 51.8465 226.214 51.8005L227.087 51.6835ZM241.828 66.172L241.749 65.2942C242.07 65.2651 242.382 65.4141 242.561 65.6825C242.74 65.9509 242.758 66.2958 242.608 66.5816L241.828 66.172ZM220.801 76.7597L220.607 77.6194L220.605 77.6189L220.801 76.7597ZM219.094 72.5107L218.243 72.2816L218.243 72.2812L219.094 72.5107ZM222.75 69.6083L223.596 69.8569L223.595 69.858L222.75 69.6083ZM221.469 61.3104C221.327 60.845 221.588 60.3521 222.054 60.2096C222.519 60.067 223.012 60.3287 223.154 60.7942L221.469 61.3104ZM226.464 54.1331C227.345 54.1684 227.345 54.1687 227.345 54.169C227.345 54.1691 227.345 54.1695 227.345 54.1697C227.345 54.1702 227.345 54.1708 227.345 54.1714C227.345 54.1726 227.345 54.1741 227.344 54.1759C227.344 54.1793 227.344 54.1838 227.344 54.1892C227.343 54.2 227.343 54.2147 227.341 54.233C227.339 54.2695 227.336 54.3208 227.33 54.3852C227.319 54.5138 227.3 54.6957 227.269 54.9189C227.207 55.3642 227.093 55.9804 226.888 56.6714C226.482 58.0379 225.689 59.7831 224.132 61.0317L223.029 59.6565C224.194 58.7225 224.844 57.3622 225.198 56.1689C225.374 55.5799 225.471 55.0526 225.524 54.6744C225.55 54.4858 225.565 54.3359 225.574 54.2358C225.578 54.1857 225.581 54.1483 225.582 54.1248C225.583 54.113 225.583 54.1048 225.583 54.1002C225.584 54.0979 225.584 54.0966 225.584 54.0962C225.584 54.096 225.584 54.096 225.584 54.0963C225.584 54.0964 225.584 54.0966 225.584 54.0969C225.584 54.097 225.584 54.0972 225.584 54.0973C225.584 54.0975 225.584 54.0978 226.464 54.1331ZM224.034 61.0997C220.788 63.0489 217.931 63.3617 215.478 62.5971C213.063 61.8441 211.185 60.0905 209.773 58.1876C208.356 56.2784 207.352 54.1461 206.706 52.5082C206.381 51.6857 206.143 50.9799 205.986 50.4776C205.907 50.2263 205.849 50.0254 205.809 49.8859C205.79 49.8162 205.775 49.7617 205.764 49.7239C205.759 49.705 205.755 49.6902 205.753 49.6798C205.751 49.6745 205.75 49.6704 205.75 49.6674C205.749 49.6659 205.749 49.6646 205.749 49.6636C205.748 49.6632 205.748 49.6627 205.748 49.6624C205.748 49.662 205.748 49.6616 206.602 49.4429C207.456 49.2243 207.456 49.224 207.455 49.2239C207.455 49.2239 207.455 49.2238 207.455 49.2239C207.456 49.224 207.456 49.2244 207.456 49.2251C207.456 49.2265 207.457 49.229 207.458 49.2325C207.46 49.2396 207.463 49.251 207.467 49.2664C207.475 49.2974 207.488 49.3447 207.506 49.407C207.541 49.5317 207.595 49.7165 207.668 49.9508C207.815 50.4196 208.039 51.0845 208.345 51.8609C208.961 53.4207 209.897 55.398 211.188 57.1371C212.483 58.8823 214.082 60.3155 216.003 60.9143C217.886 61.5015 220.225 61.3311 223.127 59.5885L224.034 61.0997ZM206.089 48.726C209.057 46.6038 213.536 43.5043 215.651 42.434L216.447 44.0067C214.478 45.0028 210.121 48.0098 207.114 50.1598L206.089 48.726ZM215.169 43.2729C215.054 41.3527 215.912 39.3284 218.843 36.534L220.059 37.8097C217.292 40.4485 216.859 41.9999 216.928 43.1678L215.169 43.2729ZM220.191 37.6505C220.008 37.9338 219.831 38.4581 219.692 39.1884C219.557 39.8932 219.472 40.6967 219.421 41.4665C219.37 42.2333 219.352 42.9501 219.348 43.4761C219.346 43.7386 219.347 43.9524 219.348 44.0998C219.349 44.1735 219.35 44.2305 219.351 44.2687C219.351 44.2877 219.351 44.3021 219.352 44.3114C219.352 44.316 219.352 44.3195 219.352 44.3216C219.352 44.3226 219.352 44.3234 219.352 44.3238C219.352 44.324 219.352 44.3241 219.352 44.3242C219.352 44.3242 219.352 44.3241 219.352 44.3242C219.352 44.3241 219.352 44.324 218.471 44.3464C217.59 44.3688 217.59 44.3687 217.59 44.3686C217.59 44.3685 217.59 44.3684 217.59 44.3682C217.59 44.3679 217.59 44.3676 217.59 44.3671C217.59 44.3662 217.59 44.365 217.59 44.3634C217.59 44.3603 217.589 44.3558 217.589 44.3501C217.589 44.3388 217.589 44.3223 217.588 44.3011C217.588 44.2586 217.587 44.1969 217.586 44.1184C217.584 43.9613 217.583 43.7362 217.585 43.4613C217.59 42.9123 217.608 42.1597 217.662 41.3492C217.716 40.5416 217.807 39.6595 217.96 38.8569C218.109 38.0798 218.335 37.2748 218.711 36.6932L220.191 37.6505ZM218.004 43.5987L220.888 41.7993L221.821 43.2947L218.937 45.0941L218.004 43.5987ZM221.354 42.547C220.497 42.3441 220.497 42.3437 220.497 42.3433C220.497 42.3432 220.497 42.3428 220.497 42.3425C220.497 42.3419 220.497 42.3412 220.498 42.3405C220.498 42.339 220.498 42.3373 220.499 42.3353C220.5 42.3314 220.501 42.3264 220.503 42.3205C220.505 42.3087 220.51 42.293 220.515 42.2737C220.525 42.2353 220.54 42.1824 220.559 42.1179C220.598 41.9894 220.657 41.8121 220.739 41.6085C220.898 41.2112 221.163 40.6687 221.57 40.1973C221.982 39.721 222.59 39.2631 223.419 39.1818C224.247 39.1008 225.113 39.4121 226.007 40.0931L224.938 41.4949C224.263 40.9801 223.83 40.9127 223.591 40.9361C223.355 40.9593 223.129 41.0891 222.904 41.35C222.674 41.6158 222.497 41.96 222.375 42.265C222.315 42.4127 222.273 42.5405 222.246 42.6292C222.233 42.6734 222.223 42.7073 222.218 42.7283C222.215 42.7388 222.213 42.7461 222.212 42.7498C222.212 42.7517 222.211 42.7526 222.211 42.7527C222.211 42.7527 222.211 42.7524 222.212 42.752C222.212 42.7518 222.212 42.7515 222.212 42.7511C222.212 42.7509 222.212 42.7506 222.212 42.7505C222.212 42.7502 222.212 42.7499 221.354 42.547ZM226.005 40.0921C227.92 41.5462 228.186 43.6024 228.02 45.1571C227.936 45.9355 227.744 46.6215 227.575 47.1095C227.49 47.355 227.41 47.5545 227.349 47.6951C227.319 47.7655 227.294 47.8215 227.275 47.8614C227.266 47.8814 227.258 47.8974 227.253 47.9092C227.25 47.9151 227.247 47.92 227.246 47.9238C227.245 47.9257 227.244 47.9273 227.243 47.9287C227.243 47.9294 227.243 47.93 227.242 47.9305C227.242 47.9308 227.242 47.9311 227.242 47.9313C227.242 47.9316 227.242 47.9319 226.453 47.539C225.664 47.1461 225.664 47.1463 225.663 47.1466C225.663 47.1467 225.663 47.147 225.663 47.1471C225.663 47.1474 225.663 47.1476 225.663 47.1477C225.663 47.148 225.663 47.1481 225.663 47.1479C225.663 47.1475 225.664 47.1461 225.665 47.1437C225.667 47.1389 225.671 47.1301 225.677 47.1176C225.689 47.0926 225.707 47.0527 225.73 46.9994C225.776 46.8926 225.84 46.7333 225.909 46.5333C226.049 46.1303 226.202 45.5785 226.267 44.9695C226.398 43.7496 226.173 42.4332 224.939 41.4958L226.005 40.0921ZM226.453 47.539C227.319 47.3764 227.319 47.3764 227.319 47.3765C227.319 47.3765 227.319 47.3765 227.319 47.3766C227.319 47.3767 227.319 47.3768 227.319 47.377C227.319 47.3772 227.319 47.3776 227.319 47.3781C227.319 47.379 227.32 47.3803 227.32 47.382C227.321 47.3853 227.321 47.39 227.323 47.3961C227.325 47.4085 227.328 47.4265 227.332 47.4501C227.341 47.4974 227.354 47.5672 227.37 47.6589C227.402 47.8425 227.448 48.1139 227.506 48.4689C227.621 49.1788 227.781 50.223 227.961 51.5666L226.214 51.8005C226.036 50.4739 225.878 49.4458 225.766 48.751C225.709 48.4037 225.664 48.1396 225.633 47.9632C225.618 47.8751 225.606 47.8088 225.598 47.765C225.594 47.7431 225.591 47.7269 225.589 47.7163C225.588 47.711 225.587 47.7071 225.587 47.7047C225.587 47.7034 225.587 47.7026 225.587 47.7021C225.586 47.7018 225.586 47.7017 225.586 47.7016C225.586 47.7015 225.586 47.7015 225.586 47.7015C225.586 47.7015 225.586 47.7016 225.586 47.7016C225.586 47.7016 225.586 47.7016 226.453 47.539ZM227.931 51.4307C230.181 58.9438 233.733 62.3614 236.61 63.9312C238.06 64.7227 239.369 65.0613 240.306 65.2032C240.774 65.2741 241.148 65.2957 241.399 65.3001C241.525 65.3023 241.619 65.3002 241.679 65.2978C241.708 65.2967 241.729 65.2955 241.741 65.2947C241.747 65.2943 241.751 65.294 241.752 65.2939C241.753 65.2939 241.753 65.2939 241.752 65.2939C241.752 65.2939 241.751 65.294 241.751 65.294C241.751 65.2941 241.75 65.2941 241.75 65.2941C241.749 65.2942 241.749 65.2942 241.828 66.172C241.908 67.0497 241.907 67.0498 241.906 67.0498C241.906 67.0499 241.905 67.0499 241.904 67.05C241.903 67.0501 241.902 67.0502 241.9 67.0503C241.897 67.0506 241.894 67.0509 241.889 67.0512C241.881 67.0519 241.87 67.0527 241.857 67.0536C241.83 67.0553 241.793 67.0574 241.748 67.0592C241.657 67.0627 241.529 67.0653 241.369 67.0625C241.048 67.0569 240.595 67.0297 240.042 66.9459C238.935 66.7783 237.424 66.3834 235.766 65.4785C232.425 63.6555 228.606 59.8289 226.243 51.9364L227.931 51.4307ZM241.828 66.172C242.608 66.5816 242.608 66.582 242.608 66.5824C242.608 66.5827 242.608 66.5832 242.607 66.5836C242.607 66.5845 242.606 66.5855 242.606 66.5868C242.604 66.5894 242.603 66.5928 242.6 66.597C242.596 66.6054 242.59 66.6171 242.581 66.6319C242.565 66.6615 242.542 66.7037 242.512 66.7575C242.451 66.865 242.362 67.0191 242.245 67.2122C242.011 67.5983 241.663 68.1413 241.203 68.7806C240.283 70.0572 238.906 71.7295 237.076 73.3048C233.408 76.4619 227.875 79.2607 220.607 77.6194L220.995 75.9C227.556 77.3816 232.537 74.8865 235.926 71.969C237.624 70.507 238.91 68.9469 239.772 67.7503C240.203 67.1531 240.525 66.6493 240.738 66.2977C240.845 66.1221 240.924 65.9846 240.976 65.8929C241.002 65.847 241.021 65.8126 241.033 65.7905C241.039 65.7795 241.043 65.7715 241.045 65.7668C241.047 65.7644 241.047 65.7628 241.048 65.7621C241.048 65.7617 241.048 65.7616 241.048 65.7616C241.048 65.7616 241.048 65.7618 241.048 65.7618C241.048 65.762 241.048 65.7623 241.828 66.172ZM220.605 77.6189C218.98 77.2479 218.377 75.8858 218.184 74.8075C217.993 73.7355 218.138 72.6692 218.243 72.2816L219.945 72.7397C219.899 72.9093 219.779 73.7121 219.919 74.4977C220.059 75.2768 220.384 75.7606 220.997 75.9004L220.605 77.6189ZM218.243 72.2812C218.42 71.624 218.836 71.168 219.271 70.845C219.692 70.5324 220.183 70.3069 220.585 70.1281C221.025 69.9325 221.352 69.7938 221.61 69.6311C221.863 69.4721 221.899 69.3795 221.905 69.3587L223.595 69.858C223.411 70.4815 222.95 70.8707 222.549 71.1227C222.155 71.371 221.674 71.5727 221.302 71.7384C220.892 71.9209 220.568 72.0778 220.322 72.2604C220.09 72.4326 219.987 72.5847 219.945 72.7401L218.243 72.2812ZM221.905 69.3598C222.36 67.8105 222.564 66.9534 222.524 65.9396C222.483 64.8961 222.181 63.634 221.469 61.3104L223.154 60.7942C223.862 63.1026 224.234 64.5688 224.285 65.8703C224.338 67.2015 224.051 68.3064 223.596 69.8569L221.905 69.3598Z" fill="#18181B" mask="url(#path-21-inside-2_1982_55902)"/>
<path fill-rule="evenodd" clip-rule="evenodd" d="M216.993 54.0121L217.496 56.34C217.504 56.3753 217.506 56.4119 217.5 56.4477C217.494 56.4835 217.481 56.5178 217.461 56.5484C217.442 56.5791 217.416 56.6055 217.387 56.6261C217.357 56.6466 217.323 56.661 217.287 56.6682C217.252 56.6761 217.215 56.677 217.179 56.6706C217.144 56.6643 217.109 56.6509 217.079 56.6313C217.048 56.6116 217.022 56.5861 217.001 56.5561C216.98 56.5262 216.966 56.4925 216.958 56.4569L216.457 54.1287C216.426 53.9793 216.521 53.8317 216.664 53.8001C216.7 53.7922 216.737 53.7914 216.772 53.7978C216.808 53.8041 216.842 53.8176 216.873 53.8373C216.904 53.857 216.93 53.8826 216.951 53.9126C216.971 53.9426 216.986 53.9765 216.993 54.0121ZM220.524 47.4694C220.524 47.4694 218.144 46.8672 217.08 49.1685C217.066 49.2013 217.045 49.2308 217.018 49.2553C216.992 49.2799 216.961 49.299 216.928 49.3115C216.894 49.3241 216.858 49.3298 216.822 49.3283C216.786 49.3269 216.751 49.3184 216.719 49.3032C216.58 49.2393 216.514 49.0752 216.584 48.936C217.835 46.2116 220.657 46.9336 220.657 46.9336C220.728 46.9514 220.79 46.9966 220.828 47.0594C220.866 47.1223 220.878 47.1977 220.862 47.2694C220.819 47.4177 220.673 47.5071 220.524 47.4694Z" fill="#18181B"/>
<path fill-rule="evenodd" clip-rule="evenodd" d="M210.546 51.7144C210.546 51.7144 211.3 49.8243 213.573 50.6597C213.605 50.6718 213.638 50.6778 213.67 50.6774C213.702 50.6769 213.732 50.67 213.759 50.657C213.785 50.6441 213.808 50.6253 213.825 50.6018C213.842 50.5783 213.853 50.5505 213.858 50.5202C213.881 50.3912 213.79 50.2425 213.65 50.1955C210.962 49.2016 210.075 51.4474 210.075 51.4474C210.052 51.5039 210.055 51.5722 210.083 51.6373C210.111 51.7025 210.162 51.7594 210.224 51.7957C210.357 51.8662 210.499 51.8328 210.546 51.7144Z" fill="#18181B"/>
<path d="M219.184 51.8457C219.079 51.8537 218.974 51.8409 218.874 51.808C218.774 51.7752 218.681 51.7229 218.601 51.6542C218.521 51.5854 218.456 51.5016 218.408 51.4075C218.361 51.3134 218.332 51.2109 218.324 51.1057C218.308 50.8934 218.377 50.6834 218.516 50.5219C218.654 50.3604 218.851 50.2606 219.064 50.2444C219.276 50.2283 219.485 50.2972 219.647 50.4359C219.808 50.5746 219.908 50.7717 219.924 50.984C219.932 51.0892 219.919 51.1949 219.886 51.2951C219.853 51.3953 219.801 51.4881 219.732 51.5681C219.664 51.6481 219.58 51.7138 219.486 51.7615C219.392 51.8091 219.289 51.8377 219.184 51.8457ZM212.68 54.4854C212.575 54.4934 212.469 54.4806 212.369 54.4478C212.269 54.4149 212.177 54.3626 212.097 54.2939C212.017 54.2252 211.951 54.1414 211.904 54.0473C211.856 53.9533 211.828 53.8507 211.82 53.7456C211.804 53.5333 211.873 53.3233 212.011 53.1618C212.15 53.0002 212.347 52.9004 212.559 52.8843C212.771 52.8682 212.981 52.937 213.142 53.0757C213.304 53.2144 213.403 53.4116 213.419 53.6239C213.427 53.729 213.414 53.8347 213.382 53.9349C213.349 54.0351 213.297 54.1279 213.228 54.2079C213.159 54.2879 213.076 54.3536 212.982 54.4012C212.887 54.4488 212.785 54.4774 212.68 54.4854Z" fill="#18181B"/>
<path fill-rule="evenodd" clip-rule="evenodd" d="M218.639 58.2891C218.639 58.2891 221.095 58.2539 221.527 55.756C221.533 55.7205 221.546 55.6865 221.565 55.656C221.584 55.6255 221.608 55.599 221.638 55.5782C221.667 55.5574 221.7 55.5426 221.735 55.5347C221.77 55.5268 221.807 55.5259 221.842 55.5322C221.992 55.5583 222.098 55.6998 222.067 55.852C221.562 58.8071 218.65 58.8407 218.65 58.8407C218.577 58.8421 218.506 58.8144 218.452 58.7636C218.399 58.7128 218.368 58.643 218.366 58.5695C218.368 58.4154 218.486 58.2914 218.639 58.2891Z" fill="#18181B"/>
<path d="M259.003 84.2726C261.979 99.655 259.095 116.43 259.095 116.43C259.095 116.43 260.076 121.84 260.422 123.396C259.372 125.648 248.334 131.697 241.563 128.597C237.999 121.074 231.009 74.3815 239.325 65.0244C240.859 63.8286 243.87 65.7325 247.007 65.6629C250.156 65.5932 255.324 65.3146 255.324 65.3146L259.003 84.2726Z" fill="#196CFA"/>
<mask id="path-28-inside-3_1982_55902" fill="white">
<path d="M216.824 74.1017C216.824 74.1017 203.894 80.2198 196.281 88.4508C191.944 77.7586 185.969 63.5604 185.969 63.5604C182.74 62.1093 180.917 62.7942 180.664 65.9055C180.664 65.9055 183.005 110.822 196.408 108.094C204.517 106.689 214.194 95.0565 214.194 95.0565"/>
</mask>
<path d="M216.824 74.1017C216.824 74.1017 203.894 80.2198 196.281 88.4508C191.944 77.7586 185.969 63.5604 185.969 63.5604C182.74 62.1093 180.917 62.7942 180.664 65.9055C180.664 65.9055 183.005 110.822 196.408 108.094C204.517 106.689 214.194 95.0565 214.194 95.0565" fill="#FAA81A"/>
<path d="M216.447 73.305C216.887 73.0968 217.413 73.2848 217.621 73.7247C217.829 74.1647 217.641 74.6902 217.201 74.8983L216.447 73.305ZM196.281 88.4508L196.928 89.0492C196.724 89.2706 196.42 89.372 196.123 89.3178C195.826 89.2637 195.578 89.0616 195.465 88.7821L196.281 88.4508ZM185.969 63.5604L186.331 62.7565C186.534 62.8479 186.695 63.013 186.782 63.2186L185.969 63.5604ZM180.664 65.9055L179.783 65.9514C179.781 65.9122 179.782 65.873 179.785 65.8339L180.664 65.9055ZM196.408 108.094L196.232 107.23C196.241 107.228 196.249 107.227 196.258 107.225L196.408 108.094ZM213.517 94.4929C213.828 94.1187 214.384 94.0677 214.758 94.379C215.132 94.6903 215.183 95.246 214.872 95.6202L213.517 94.4929ZM216.824 74.1017C217.201 74.8983 217.201 74.8983 217.201 74.8983C217.201 74.8983 217.201 74.8983 217.201 74.8984C217.201 74.8985 217.2 74.8987 217.2 74.899C217.198 74.8996 217.196 74.9006 217.194 74.9019C217.188 74.9046 217.179 74.9088 217.168 74.9144C217.144 74.9256 217.109 74.9427 217.062 74.9654C216.968 75.011 216.828 75.0794 216.646 75.1697C216.284 75.3502 215.755 75.6182 215.096 75.9658C213.778 76.6611 211.94 77.6739 209.867 78.9415C205.709 81.4842 200.653 85.0217 196.928 89.0492L195.634 87.8524C199.522 83.6489 204.738 80.0118 208.948 77.4377C211.059 76.1469 212.93 75.1157 214.274 74.4067C214.946 74.0521 215.487 73.7778 215.861 73.5916C216.048 73.4985 216.193 73.4275 216.293 73.3794C216.342 73.3553 216.38 73.337 216.406 73.3246C216.419 73.3184 216.429 73.3136 216.436 73.3104C216.439 73.3087 216.442 73.3075 216.444 73.3066C216.445 73.3061 216.446 73.3058 216.446 73.3055C216.446 73.3054 216.447 73.3053 216.447 73.3052C216.447 73.3051 216.447 73.305 216.824 74.1017ZM195.465 88.7821C193.298 83.4398 190.721 77.2203 188.685 72.335C187.668 69.8927 186.786 67.7843 186.158 66.2866C185.844 65.5378 185.594 64.9416 185.422 64.5327C185.336 64.3282 185.27 64.1706 185.225 64.0641C185.203 64.0108 185.186 63.9703 185.174 63.9432C185.169 63.9296 185.164 63.9194 185.161 63.9125C185.16 63.9091 185.159 63.9065 185.158 63.9048C185.158 63.904 185.158 63.9033 185.157 63.9029C185.157 63.9027 185.157 63.9025 185.157 63.9024C185.157 63.9023 185.157 63.9023 185.969 63.5604C186.782 63.2186 186.782 63.2186 186.782 63.2187C186.782 63.2189 186.782 63.219 186.782 63.2192C186.782 63.2197 186.783 63.2203 186.783 63.2212C186.784 63.2229 186.785 63.2255 186.786 63.229C186.789 63.2359 186.793 63.2461 186.799 63.2598C186.811 63.287 186.828 63.3275 186.85 63.3809C186.895 63.4876 186.961 63.6454 187.047 63.8501C187.219 64.2594 187.47 64.856 187.784 65.6053C188.412 67.1039 189.294 69.2134 190.313 71.6571C192.349 76.544 194.928 82.7696 197.098 88.1195L195.465 88.7821ZM185.608 64.3643C184.037 63.6585 183.077 63.6072 182.545 63.8331C182.105 64.0205 181.659 64.547 181.542 65.9771L179.785 65.8339C179.922 64.1527 180.514 62.7811 181.856 62.2109C183.106 61.6794 184.672 62.0112 186.331 62.7565L185.608 64.3643ZM180.664 65.9055C181.544 65.8596 181.544 65.8597 181.544 65.8599C181.544 65.8602 181.544 65.8606 181.544 65.8612C181.544 65.8623 181.544 65.8642 181.544 65.8668C181.544 65.8718 181.545 65.8796 181.545 65.8901C181.547 65.9109 181.548 65.9424 181.551 65.9841C181.555 66.0675 181.563 66.192 181.573 66.3546C181.593 66.6797 181.624 67.1575 181.669 67.7653C181.759 68.9811 181.902 70.7164 182.116 72.7909C182.543 76.9426 183.251 82.4396 184.373 87.8435C185.498 93.2648 187.027 98.519 189.066 102.228C191.134 105.989 193.494 107.788 196.232 107.23L196.584 108.957C192.621 109.764 189.662 106.971 187.521 103.077C185.352 99.1321 183.782 93.6687 182.647 88.2019C181.508 82.7177 180.793 77.1561 180.362 72.9713C180.147 70.8774 180.002 69.125 179.911 67.895C179.866 67.28 179.834 66.7954 179.814 66.464C179.803 66.2983 179.796 66.1708 179.791 66.0844C179.788 66.0412 179.787 66.0083 179.785 65.986C179.785 65.9749 179.784 65.9664 179.784 65.9606C179.784 65.9577 179.784 65.9555 179.784 65.954C179.784 65.9532 179.784 65.9525 179.783 65.9522C179.783 65.9517 179.783 65.9514 180.664 65.9055ZM196.258 107.225C198.126 106.902 200.139 105.976 202.139 104.718C204.13 103.465 206.059 101.914 207.753 100.393C209.445 98.8731 210.889 97.3948 211.91 96.296C212.42 95.7471 212.824 95.2939 213.099 94.979C213.237 94.8216 213.342 94.6988 213.413 94.616C213.448 94.5746 213.475 94.5432 213.492 94.5224C213.501 94.5121 213.507 94.5044 213.511 94.4994C213.513 94.4969 213.515 94.4951 213.516 94.494C213.516 94.4935 213.517 94.4931 213.517 94.4929C213.517 94.4928 213.517 94.4928 213.517 94.4928C213.517 94.4928 213.517 94.4929 214.194 95.0565C214.872 95.6202 214.872 95.6203 214.872 95.6205C214.871 95.6207 214.871 95.6209 214.871 95.6212C214.871 95.6217 214.87 95.6224 214.869 95.6232C214.868 95.6249 214.866 95.6274 214.863 95.6305C214.858 95.6367 214.851 95.6457 214.841 95.6574C214.821 95.6807 214.792 95.7148 214.755 95.759C214.679 95.8472 214.569 95.9757 214.426 96.1391C214.141 96.4659 213.725 96.9325 213.201 97.496C212.154 98.6223 210.672 100.14 208.931 101.704C207.192 103.266 205.181 104.887 203.077 106.21C200.982 107.528 198.745 108.583 196.559 108.962L196.258 107.225Z" fill="#18181B" mask="url(#path-28-inside-3_1982_55902)"/>
<path d="M221.368 68.7977C221.368 68.7977 219.88 76.7617 220.71 83.797C221.552 90.8322 222.855 114.004 222.855 114.004C222.855 114.004 220.249 127.541 218.219 128.597C216.189 129.654 204.504 124.871 205.577 122.619C206.65 120.366 210.375 113.145 209.718 102.836C209.06 92.5272 212.14 80.6392 216.085 71.851C218.922 69.0415 221.587 67.4627 221.368 68.7977Z" fill="#196CFA"/>
<path d="M265.679 22.7304L265.679 22.7302C264.913 20.8188 264.263 19.2815 263.805 18.2225C263.576 17.6931 263.394 17.2832 263.27 17.0061C263.222 16.8977 263.182 16.8097 263.152 16.7427C261.913 16.2473 260.946 16.2562 260.175 16.601C259.389 16.9518 258.722 17.6866 258.164 18.8056L258.18 18.8865C258.211 19.0357 258.255 19.255 258.31 19.5362C258.421 20.0987 258.577 20.909 258.761 21.9011C259.127 23.885 259.601 26.5977 260.031 29.5112C260.461 32.4235 260.848 35.5424 261.037 38.3372C261.226 41.1183 261.224 43.625 260.855 45.2885L260.855 45.2887C260.142 48.4885 258.867 53.2095 256.745 57.3612C254.658 61.4449 251.697 65.0866 247.546 66.0673C247.534 66.0895 247.521 66.1171 247.506 66.1507C247.449 66.2773 247.385 66.4598 247.319 66.6974C247.188 67.1707 247.061 67.8271 246.971 68.6148C246.793 70.19 246.773 72.2581 247.168 74.3899C247.95 78.6109 250.342 83.0279 256.344 84.4688C256.398 84.444 256.468 84.4105 256.554 84.3675C256.777 84.2557 257.105 84.0802 257.512 83.8295C258.325 83.328 259.456 82.5259 260.707 81.3306C263.206 78.9421 266.191 74.9758 268.077 68.6799C268.649 66.7692 269.202 65.0273 269.717 63.405C270.932 59.5807 271.935 56.4214 272.479 53.2847C273.248 48.857 273.094 44.4953 271.249 38.4609C269.351 32.2647 267.267 26.6926 265.679 22.7304ZM211.916 133.298L208.954 140.028C208.981 140.008 209.008 139.986 209.035 139.964C209.345 139.706 209.652 139.315 209.949 138.811C210.543 137.804 211.048 136.43 211.459 135.024C211.629 134.441 211.781 133.858 211.916 133.298Z" fill="#FAA81A" stroke="#18181B" stroke-width="0.881333" stroke-miterlimit="10" stroke-linecap="round" stroke-linejoin="round"/>
<path d="M186.012 64.4783C186.012 64.4783 185.839 67.6941 183.474 67.6244C181.121 67.5548 180.856 66.6376 180.925 66.0572C180.994 65.4767 184.766 62.3422 186.012 64.4783Z" fill="#18181B"/>
<path d="M183.692 58.571C183.689 58.4636 183.725 58.3587 183.793 58.2761C184.192 57.7951 184.583 57.0939 184.814 56.3147C185.046 55.5352 185.109 54.71 184.897 53.9655C184.593 52.9079 185.1 51.9577 185.732 51.3183C186.053 50.9935 186.425 50.7276 186.788 50.5411C187.139 50.3613 187.517 50.2376 187.855 50.2341C188.281 50.2064 188.544 49.9758 188.648 49.6395C188.761 49.2779 188.706 48.7278 188.306 48.1029C188.175 47.8995 187.981 47.7985 187.688 47.7925C187.376 47.7861 186.976 47.8932 186.532 48.1081C185.644 48.538 184.735 49.3233 184.258 50.0468L184.257 50.0482C183.776 50.7707 183.128 50.9723 182.606 50.9761C182.353 50.9779 182.135 50.9344 181.98 50.8914C181.902 50.8698 181.838 50.8476 181.792 50.8302C181.769 50.8214 181.75 50.8138 181.736 50.8078L181.719 50.8002L181.713 50.7975L181.711 50.7965L181.71 50.796L181.709 50.7958C181.709 50.7957 181.709 50.7956 181.895 50.3961L181.709 50.7956C181.625 50.7566 181.555 50.692 181.51 50.6111L181.51 50.6109L181.51 50.6104L181.507 50.6059L181.495 50.5857C181.485 50.5674 181.469 50.5398 181.447 50.5045C181.405 50.4338 181.341 50.3323 181.261 50.2121C181.1 49.9702 180.874 49.6593 180.611 49.3715C180.343 49.0793 180.06 48.8351 179.786 48.6996C179.522 48.5686 179.31 48.5566 179.12 48.6459C179.015 48.6972 178.819 48.8453 178.539 49.1177C178.269 49.3805 177.95 49.7283 177.605 50.1386C176.914 50.9585 176.129 52.0093 175.42 53.0866C174.709 54.1665 174.084 55.2573 173.705 56.1592C173.514 56.6118 173.394 56.9974 173.349 57.2994C173.302 57.6175 173.35 57.7562 173.383 57.8017C173.387 57.8069 173.39 57.8122 173.394 57.8176C174.147 58.9732 175.147 59.4141 176.136 59.6722C176.386 59.7374 176.634 59.7905 176.879 59.8411C176.925 59.8506 176.971 59.8601 177.018 59.8696C177.214 59.9097 177.409 59.9498 177.594 59.9932C178.041 60.0983 178.506 60.2395 178.86 60.5241L178.86 60.5241L178.862 60.5259C179.018 60.6529 179.17 60.8445 179.308 61.0461C179.451 61.2555 179.603 61.5079 179.755 61.7825C180.061 62.332 180.384 62.9935 180.678 63.6266C180.972 64.261 181.24 64.873 181.434 65.326C181.531 65.5526 181.609 65.7398 181.664 65.8705C181.675 65.8978 181.685 65.9226 181.695 65.9449C182.52 66.4483 183.159 66.4845 183.68 66.2334C184.238 65.9644 184.78 65.312 185.264 64.1735L185.251 64.1351C185.208 64.009 185.146 63.8277 185.072 63.6068C184.924 63.1651 184.726 62.5638 184.526 61.9266C184.327 61.2903 184.126 60.6142 183.971 60.0239C183.821 59.4495 183.702 58.9099 183.692 58.571Z" fill="white" stroke="#18181B" stroke-width="0.881333" stroke-miterlimit="10" stroke-linecap="round" stroke-linejoin="round"/>
<path d="M263.143 16.8903C263.143 16.8903 263.962 17.7842 263.42 18.9684C262.878 20.1409 259.752 20.8375 258.841 20.3963C257.93 19.9552 258.103 19.2238 258.103 18.829C258.103 18.4343 261.252 16.333 263.143 16.8903Z" fill="#18181B"/>
<path d="M261.425 6.86034L261.425 6.85941C261.39 6.79112 261.287 6.66998 261.064 6.50694C260.851 6.35129 260.568 6.18514 260.229 6.01374C259.553 5.67139 258.699 5.32912 257.847 5.0233C256.998 4.71831 256.162 4.45347 255.528 4.26497C255.276 4.19011 255.056 4.12758 254.881 4.07956C254.855 4.33895 254.827 4.69567 254.797 5.12242C254.732 6.04986 254.663 7.28874 254.6 8.53033C254.536 9.77129 254.479 11.0125 254.437 11.9437C254.416 12.4092 254.399 12.7971 254.387 13.0686L254.374 13.3837L254.371 13.4667L254.37 13.4879L254.369 13.4933L254.369 13.4946L254.369 13.4949C254.369 13.495 254.369 13.495 253.929 13.4766L254.369 13.495C254.364 13.6259 254.3 13.7476 254.196 13.8271C254.092 13.9065 253.958 13.9355 253.83 13.9061L253.83 13.9061L253.83 13.9061L253.83 13.906L253.827 13.9054L253.816 13.9028L253.768 13.8923C253.726 13.8832 253.664 13.8698 253.584 13.8533C253.423 13.8204 253.19 13.7749 252.906 13.7256C252.336 13.6269 251.562 13.5135 250.742 13.4532C249.918 13.3927 249.065 13.387 248.33 13.4962C247.579 13.6077 247.031 13.8274 246.731 14.1489C246.35 14.5569 246.156 14.8898 246.09 15.1465C246.032 15.3764 246.073 15.5532 246.211 15.7219C246.369 15.9138 246.677 16.1201 247.208 16.3055C247.731 16.4884 248.43 16.6371 249.32 16.7423C251.211 16.9599 252.631 17.5953 253.717 18.1045C253.776 18.1321 253.833 18.1592 253.89 18.1857C254.361 18.4075 254.745 18.588 255.087 18.7012C255.465 18.8266 255.718 18.843 255.917 18.7805C256.825 18.485 257.277 18.253 257.492 18.1118C257.58 18.0544 257.622 18.0159 257.638 17.9993C257.71 17.8707 257.842 17.7841 257.993 17.7736C258.176 17.761 258.348 17.8628 258.424 18.0294L258.946 19.1666C259.834 19.2043 260.6 19.2097 261.194 19.0638C261.512 18.9857 261.753 18.8701 261.928 18.7149C262.09 18.571 262.218 18.374 262.291 18.0855L262.292 18.0292C262.294 17.9625 262.296 17.8641 262.299 17.7378C262.304 17.4853 262.31 17.1214 262.314 16.6774C262.321 15.7888 262.319 14.5806 262.279 13.3001C262.24 12.0183 262.164 10.671 262.025 9.50223C261.883 8.3143 261.684 7.37292 261.425 6.86034ZM254.469 3.97499C254.47 3.97506 254.472 3.97549 254.476 3.97607C254.471 3.9752 254.469 3.97491 254.469 3.97499Z" fill="white" stroke="#18181B" stroke-width="0.881333" stroke-miterlimit="10" stroke-linecap="round" stroke-linejoin="round"/>
<path d="M257.884 0.639885H238.856V13.0512H257.884V0.639885Z" fill="white" stroke="#18181B" stroke-width="0.881333" stroke-miterlimit="10" stroke-linecap="round" stroke-linejoin="round"/>
<path d="M247.113 6.62891H240.965V10.3555H247.113V6.62891Z" fill="#18181B"/>
<path d="M265.335 175.174C266.831 172.395 267.831 169.917 267.972 167.929C268.043 166.931 267.895 166.083 267.507 165.384C267.145 164.731 266.554 164.174 265.658 163.745L210.2 188.363C207.45 192.546 206.689 195.77 206.972 198.454C207.244 201.045 208.493 203.204 210.03 205.309L265.335 175.174Z" fill="white" stroke="#18181B" stroke-width="0.881333" stroke-miterlimit="10" stroke-linecap="round" stroke-linejoin="round"/>
<path d="M221.217 177.192L246.975 166.262L116.169 161.086L95.9143 171.764L221.217 177.192Z" stroke="#18181B" stroke-width="0.881333" stroke-miterlimit="10" stroke-linecap="round" stroke-linejoin="round"/>
<mask id="path-40-inside-4_1982_55902" fill="white">
<path d="M255.738 134.531C255.738 134.531 252.566 133.591 251.171 130.073C250.986 129.458 250.963 128.715 250.963 128.715M230.305 139.964C230.305 139.964 230.524 142.948 231.608 145.305L230.305 139.964Z"/>
</mask>
<path d="M255.738 134.531C255.738 134.531 252.566 133.591 251.171 130.073C250.986 129.458 250.963 128.715 250.963 128.715M230.305 139.964C230.305 139.964 230.524 142.948 231.608 145.305L230.305 139.964Z" fill="white"/>
<path d="M255.989 133.686C256.455 133.824 256.722 134.315 256.583 134.782C256.445 135.248 255.954 135.514 255.488 135.376L255.989 133.686ZM251.171 130.073L250.351 130.398C250.342 130.375 250.334 130.351 250.326 130.326L251.171 130.073ZM250.082 128.742C250.067 128.256 250.449 127.849 250.936 127.834C251.422 127.819 251.829 128.201 251.844 128.687L250.082 128.742ZM229.426 140.029C229.39 139.543 229.755 139.121 230.24 139.085C230.726 139.05 231.148 139.414 231.184 139.9L229.426 140.029ZM232.409 144.936C232.612 145.378 232.419 145.902 231.976 146.105C231.534 146.309 231.011 146.115 230.807 145.673L232.409 144.936ZM255.738 134.531C255.488 135.376 255.487 135.376 255.487 135.376C255.487 135.376 255.486 135.376 255.486 135.376C255.486 135.375 255.485 135.375 255.484 135.375C255.483 135.375 255.481 135.374 255.479 135.374C255.476 135.373 255.472 135.371 255.467 135.37C255.456 135.366 255.443 135.362 255.427 135.357C255.395 135.346 255.352 135.332 255.298 135.312C255.19 135.273 255.041 135.214 254.86 135.133C254.5 134.972 254.01 134.718 253.474 134.344C252.399 133.595 251.127 132.353 250.351 130.398L251.99 129.748C252.61 131.311 253.621 132.298 254.482 132.898C254.913 133.199 255.304 133.4 255.581 133.525C255.72 133.587 255.83 133.63 255.901 133.656C255.936 133.669 255.962 133.677 255.977 133.682C255.985 133.685 255.99 133.686 255.992 133.687C255.993 133.687 255.993 133.687 255.992 133.687C255.992 133.687 255.992 133.687 255.991 133.687C255.991 133.687 255.991 133.687 255.99 133.687C255.99 133.686 255.99 133.686 255.989 133.686C255.989 133.686 255.989 133.686 255.738 134.531ZM250.326 130.326C250.212 129.945 250.153 129.546 250.122 129.259C250.105 129.112 250.096 128.987 250.09 128.897C250.087 128.851 250.085 128.815 250.084 128.789C250.083 128.775 250.083 128.765 250.083 128.757C250.082 128.753 250.082 128.75 250.082 128.747C250.082 128.746 250.082 128.745 250.082 128.744C250.082 128.744 250.082 128.743 250.082 128.743C250.082 128.743 250.082 128.743 250.082 128.743C250.082 128.743 250.082 128.742 250.082 128.742C250.082 128.742 250.082 128.742 250.963 128.715C251.844 128.687 251.844 128.687 251.844 128.687C251.844 128.687 251.844 128.687 251.844 128.687C251.844 128.687 251.844 128.687 251.844 128.687C251.844 128.687 251.844 128.687 251.844 128.686C251.844 128.686 251.844 128.686 251.844 128.687C251.844 128.687 251.844 128.688 251.844 128.69C251.844 128.693 251.844 128.699 251.845 128.707C251.846 128.724 251.847 128.75 251.849 128.785C251.853 128.853 251.861 128.951 251.874 129.067C251.9 129.306 251.945 129.586 252.015 129.82L250.326 130.326ZM230.305 139.964C231.184 139.9 231.184 139.9 231.184 139.899C231.184 139.899 231.184 139.899 231.184 139.899C231.184 139.899 231.184 139.899 231.184 139.899C231.184 139.899 231.184 139.899 231.184 139.9C231.184 139.901 231.184 139.902 231.184 139.904C231.184 139.908 231.185 139.915 231.186 139.925C231.187 139.945 231.19 139.975 231.194 140.015C231.201 140.094 231.213 140.213 231.231 140.364C231.267 140.665 231.326 141.093 231.417 141.592C231.601 142.599 231.911 143.853 232.409 144.936L230.807 145.673C230.221 144.399 229.879 142.983 229.683 141.909C229.584 141.368 229.52 140.902 229.481 140.571C229.461 140.405 229.448 140.272 229.439 140.18C229.434 140.133 229.431 140.097 229.429 140.072C229.428 140.059 229.427 140.049 229.427 140.042C229.426 140.038 229.426 140.035 229.426 140.033C229.426 140.032 229.426 140.031 229.426 140.03C229.426 140.03 229.426 140.03 229.426 140.03C229.426 140.029 229.426 140.029 229.426 140.029C229.426 140.029 229.426 140.029 230.305 139.964Z" fill="#18181B" mask="url(#path-40-inside-4_1982_55902)"/>
<path d="M263.001 24.4102L261.453 24.7985C262.013 24.7302 262.533 24.588 263.001 24.4102ZM183.204 70.3939C183.791 70.3684 184.342 70.2325 184.835 70.0463L183.204 70.3939Z" stroke="#18181B" stroke-width="0.881333" stroke-miterlimit="10" stroke-linecap="round" stroke-linejoin="round"/>
<path opacity="0.2" d="M120.876 39.9313L124.867 39.5482C125.236 39.5134 125.594 39.6643 125.836 39.9429L128.408 43.0426C129.008 43.7624 130.161 43.4838 130.357 42.5666L131.234 38.6311C131.315 38.2712 131.568 37.9694 131.915 37.83L135.629 36.3208C136.494 35.9725 136.586 34.7768 135.779 34.3008L132.33 32.246C132.007 32.0602 131.811 31.7235 131.788 31.352L131.511 27.3236C131.453 26.3949 130.346 25.9305 129.654 26.5574L126.643 29.2275C126.366 29.4713 125.986 29.5642 125.628 29.4713L121.741 28.4845C120.841 28.2523 120.069 29.1695 120.438 30.0286L122.029 33.7319C122.179 34.0686 122.145 34.4633 121.949 34.7768L119.815 38.1899C119.33 39.0026 119.953 40.0242 120.876 39.9313ZM160.37 32.1299L164.361 31.7468C164.73 31.7119 165.088 31.8628 165.33 32.1415L167.902 35.2412C168.502 35.9609 169.655 35.6823 169.851 34.7652L170.728 30.8296C170.809 30.4697 171.063 30.1679 171.409 30.0286L175.123 28.5194C175.988 28.1711 176.08 26.9753 175.273 26.4993L171.824 24.4445C171.501 24.2587 171.305 23.9221 171.282 23.5506L171.005 19.5221C170.947 18.5934 169.84 18.129 169.148 18.7559L166.137 21.4261C165.86 21.6699 165.48 21.7627 165.122 21.6699L161.235 20.6831C160.335 20.4509 159.563 21.368 159.932 22.2271L161.524 25.9305C161.673 26.2672 161.639 26.6619 161.443 26.9753L159.309 30.3885C158.813 31.1895 159.447 32.2111 160.37 32.1299Z" fill="white"/>
<path opacity="0.2" d="M115.143 74.8642L119.134 74.4811C119.504 74.4463 119.861 74.5972 120.103 74.8759L122.676 77.9755C123.275 78.6953 124.429 78.4167 124.625 77.4996L125.501 73.564C125.582 73.2041 125.836 72.9023 126.182 72.763L129.896 71.2537C130.761 70.9055 130.853 69.7097 130.046 69.2337L126.597 67.1789C126.274 66.9931 126.078 66.6565 126.055 66.285L125.778 62.2565C125.721 61.3278 124.613 60.8634 123.921 61.4903L120.911 64.1604C120.634 64.4042 120.253 64.4971 119.896 64.4042L116.009 63.4175C115.109 63.1853 114.336 64.1024 114.705 64.9615L116.297 68.6649C116.447 69.0015 116.412 69.3963 116.216 69.7097L114.082 73.1228C113.586 73.9355 114.209 74.9455 115.143 74.8642Z" fill="white"/>
<mask id="path-45-inside-5_1982_55902" fill="white">
<path d="M192.716 112.217L159.323 110.104L157.201 113.238L191.089 115.119L192.716 112.217ZM188.252 120.471L154.848 118.358L152.737 121.481L186.614 123.373L188.252 120.471ZM183.776 128.714L150.373 126.612L148.262 129.735L182.139 131.628L183.776 128.714ZM179.301 136.968L145.909 134.855L143.786 137.99L177.675 139.87L179.301 136.968ZM264.679 77.2031H292.281C292.281 77.2031 295.499 77.6211 292.985 81.5566C290.47 85.4922 287.61 84.5054 287.61 84.5054L258.589 83.6579"/>
</mask>
<path d="M192.716 112.217L192.771 111.337C193.074 111.356 193.345 111.529 193.49 111.796C193.635 112.062 193.633 112.383 193.484 112.648L192.716 112.217ZM159.323 110.104L158.593 109.61C158.769 109.351 159.067 109.205 159.379 109.224L159.323 110.104ZM157.201 113.238L157.152 114.118C156.835 114.101 156.552 113.914 156.411 113.63C156.27 113.345 156.293 113.007 156.471 112.744L157.201 113.238ZM191.089 115.119L191.858 115.55C191.694 115.844 191.376 116.018 191.04 115.999L191.089 115.119ZM188.252 120.471L188.307 119.591C188.61 119.611 188.882 119.784 189.027 120.051C189.171 120.318 189.168 120.64 189.019 120.904L188.252 120.471ZM154.848 118.358L154.118 117.865C154.293 117.606 154.592 117.459 154.904 117.479L154.848 118.358ZM152.737 121.481L152.688 122.361C152.371 122.343 152.088 122.157 151.947 121.873C151.807 121.588 151.829 121.25 152.007 120.988L152.737 121.481ZM186.614 123.373L187.381 123.807C187.216 124.099 186.9 124.272 186.565 124.253L186.614 123.373ZM183.776 128.714L183.832 127.834C184.134 127.853 184.406 128.026 184.551 128.293C184.696 128.559 184.693 128.881 184.545 129.146L183.776 128.714ZM150.373 126.612L149.642 126.119C149.817 125.86 150.116 125.713 150.428 125.733L150.373 126.612ZM148.262 129.735L148.213 130.615C147.896 130.598 147.613 130.411 147.472 130.127C147.331 129.843 147.354 129.505 147.532 129.242L148.262 129.735ZM182.139 131.628L182.907 132.059C182.742 132.353 182.425 132.526 182.089 132.508L182.139 131.628ZM179.301 136.968L179.357 136.088C179.659 136.107 179.93 136.281 180.075 136.547C180.22 136.813 180.218 137.134 180.07 137.399L179.301 136.968ZM145.909 134.855L145.179 134.361C145.354 134.102 145.653 133.956 145.964 133.975L145.909 134.855ZM143.786 137.99L143.737 138.87C143.421 138.852 143.138 138.665 142.997 138.381C142.856 138.096 142.879 137.758 143.057 137.495L143.786 137.99ZM177.675 139.87L178.443 140.301C178.279 140.595 177.962 140.769 177.626 140.75L177.675 139.87ZM264.679 78.0845C264.193 78.0845 263.798 77.6899 263.798 77.2031C263.798 76.7164 264.193 76.3218 264.679 76.3218V78.0845ZM292.281 77.2031V76.3218C292.319 76.3218 292.357 76.3242 292.395 76.3291L292.281 77.2031ZM287.61 84.5054L287.636 83.6244C287.725 83.627 287.813 83.6432 287.897 83.6722L287.61 84.5054ZM258.563 84.5389C258.077 84.5247 257.694 84.1187 257.708 83.6322C257.722 83.1456 258.128 82.7627 258.615 82.7769L258.563 84.5389ZM192.66 113.096L159.268 110.984L159.379 109.224L192.771 111.337L192.66 113.096ZM160.053 110.598L157.931 113.733L156.471 112.744L158.593 109.61L160.053 110.598ZM157.25 112.358L191.138 114.239L191.04 115.999L157.152 114.118L157.25 112.358ZM190.32 114.688L191.947 111.786L193.484 112.648L191.858 115.55L190.32 114.688ZM188.196 121.351L154.792 119.238L154.904 117.479L188.307 119.591L188.196 121.351ZM155.578 118.852L153.467 121.975L152.007 120.988L154.118 117.865L155.578 118.852ZM152.786 120.601L186.663 122.493L186.565 124.253L152.688 122.361L152.786 120.601ZM185.846 122.94L187.484 120.038L189.019 120.904L187.381 123.807L185.846 122.94ZM183.721 129.593L150.317 127.492L150.428 125.733L183.832 127.834L183.721 129.593ZM151.103 127.106L148.992 130.229L147.532 129.242L149.642 126.119L151.103 127.106ZM148.311 128.855L182.188 130.748L182.089 132.508L148.213 130.615L148.311 128.855ZM181.37 131.196L183.008 128.282L184.545 129.146L182.907 132.059L181.37 131.196ZM179.245 137.847L145.853 135.735L145.964 133.975L179.357 136.088L179.245 137.847ZM146.638 135.349L144.516 138.484L143.057 137.495L145.179 134.361L146.638 135.349ZM143.835 137.11L177.723 138.99L177.626 140.75L143.737 138.87L143.835 137.11ZM176.906 139.439L178.532 136.537L180.07 137.399L178.443 140.301L176.906 139.439ZM264.679 76.3218H292.281V78.0845H264.679V76.3218ZM292.281 77.2031C292.395 76.3291 292.395 76.3292 292.396 76.3293C292.396 76.3293 292.397 76.3294 292.397 76.3294C292.398 76.3296 292.399 76.3297 292.4 76.3298C292.402 76.3301 292.404 76.3304 292.406 76.3307C292.411 76.3313 292.416 76.3321 292.423 76.3331C292.435 76.3349 292.451 76.3374 292.469 76.3407C292.506 76.3471 292.554 76.3565 292.612 76.3699C292.727 76.3964 292.884 76.4393 293.061 76.5071C293.405 76.6391 293.881 76.8866 294.257 77.3444C294.653 77.8262 294.885 78.4776 294.814 79.293C294.745 80.0781 294.399 80.9798 293.728 82.0311L292.242 81.0821C292.828 80.1656 293.023 79.5393 293.058 79.1392C293.09 78.7693 292.989 78.5783 292.895 78.4637C292.781 78.3251 292.61 78.2221 292.429 78.1528C292.344 78.1199 292.268 78.0994 292.217 78.0877C292.192 78.0819 292.174 78.0785 292.165 78.0769C292.16 78.0761 292.158 78.0758 292.158 78.0758C292.159 78.0759 292.16 78.076 292.161 78.0762C292.162 78.0763 292.163 78.0764 292.164 78.0766C292.164 78.0767 292.165 78.0768 292.166 78.0768C292.166 78.0769 292.167 78.077 292.167 78.077C292.167 78.077 292.168 78.0771 292.281 77.2031ZM293.728 82.0311C292.361 84.1698 290.834 85.0603 289.559 85.3642C288.934 85.5131 288.397 85.5142 288.008 85.475C287.813 85.4553 287.654 85.4255 287.538 85.3986C287.48 85.3851 287.433 85.3724 287.397 85.3618C287.379 85.3566 287.363 85.3519 287.351 85.3479C287.345 85.346 287.339 85.3442 287.334 85.3426C287.332 85.3418 287.33 85.3411 287.328 85.3404C287.327 85.3401 287.326 85.3397 287.325 85.3394C287.325 85.3393 287.324 85.3391 287.324 85.339C287.323 85.3388 287.322 85.3385 287.61 84.5054C287.897 83.6722 287.897 83.672 287.896 83.6718C287.896 83.6718 287.895 83.6716 287.895 83.6714C287.894 83.6712 287.894 83.671 287.893 83.6707C287.892 83.6703 287.89 83.6699 287.889 83.6696C287.887 83.6689 287.886 83.6685 287.885 83.6683C287.884 83.6678 287.885 83.6682 287.889 83.6692C287.895 83.6712 287.912 83.6758 287.937 83.6816C287.987 83.6933 288.072 83.7098 288.185 83.7212C288.41 83.744 288.746 83.7458 289.15 83.6495C289.933 83.4629 291.094 82.879 292.242 81.0821L293.728 82.0311ZM287.584 85.3863L258.563 84.5389L258.615 82.7769L287.636 83.6244L287.584 85.3863Z" fill="#18181B" mask="url(#path-45-inside-5_1982_55902)"/>
</g>
<defs>
<clipPath id="clip0_1982_55902">
<rect width="330.5" height="220.333" fill="white" transform="matrix(-1 0 0 1 331 0)"/>
</clipPath>
</defs>
</svg>
