<svg width="60" height="60" viewBox="0 0 60 60" fill="none" xmlns="http://www.w3.org/2000/svg">
<g clip-path="url(#clip0_117_18243)">
<rect width="60" height="60" rx="30" fill="#4A87A8"/>
<path d="M15 17C15 15.8954 15.8954 15 17 15H43C44.1046 15 45 15.8954 45 17V43C45 44.1046 44.1046 45 43 45H17C15.8954 45 15 44.1046 15 43V17Z" fill="#4A87A8"/>
<path d="M28.0642 41.25C26.4291 41.25 25.0574 40.9605 23.9493 40.3816C22.8547 39.7895 22.0236 39.0132 21.4561 38.0526C20.902 37.0921 20.625 36.0395 20.625 34.8947C20.625 33.7763 20.8412 32.8092 21.2736 31.9934C21.7196 31.1645 22.3412 30.4803 23.1385 29.9408C23.9358 29.3882 24.8885 28.9539 25.9966 28.6382C27.0372 28.3618 28.1993 28.125 29.4831 27.9276C30.7804 27.7171 32.0912 27.5263 33.4155 27.3553C34.3247 27.2378 35.1925 27.1235 36.0189 27.0123C36.2512 26.981 36.3565 27.2944 36.1522 27.4094V27.4094C36.0089 27.4901 35.8316 27.384 35.83 27.2195C35.814 25.5126 35.4214 24.2355 34.652 23.3882C33.8412 22.4803 32.4358 22.0263 30.4358 22.0263C29.1115 22.0263 27.9493 22.3224 26.9493 22.9145C26.4245 23.2225 25.9819 23.6347 25.6216 24.1513C25.0559 24.9621 24.0991 25.5326 23.1506 25.2538V25.2538C22.2005 24.9747 21.6306 23.9675 22.0882 23.0894C22.6616 21.9891 23.4644 21.0756 24.4966 20.3487C26.0101 19.2829 28.0034 18.75 30.4764 18.75C32.4628 18.75 34.1655 19.0987 35.5845 19.7961C37.0169 20.4803 38.0439 21.5197 38.6655 22.9145C38.9764 23.5724 39.1723 24.2895 39.2534 25.0658C39.3345 25.8289 39.375 26.6316 39.375 27.4737V39.0565C39.375 39.9409 38.658 40.6579 37.7736 40.6579V40.6579C36.8892 40.6579 36.1723 39.9409 36.1723 39.0565V36.1414C36.1723 35.883 36.4571 35.726 36.6756 35.8639V35.8639C36.8163 35.9528 36.8686 36.1332 36.793 36.2814C35.9787 37.8758 34.8664 39.0912 33.4561 39.9276C31.9831 40.8092 30.1858 41.25 28.0642 41.25ZM28.6115 38.3092C29.9088 38.3092 31.0304 38.0855 31.9764 37.6382C32.9358 37.1776 33.7061 36.5789 34.2872 35.8421C34.8682 35.0921 35.2466 34.2763 35.4223 33.3947C35.625 32.7368 35.7331 32.0066 35.7466 31.2039C35.7663 30.6114 35.7788 30.1194 35.7841 29.7282C35.7867 29.5388 35.9805 29.4109 36.1548 29.4848V29.4848C36.4025 29.5899 36.3534 29.9542 36.0867 29.9895C35.2396 30.1018 34.4033 30.2105 33.5777 30.3158C32.4426 30.4605 31.3682 30.6184 30.3547 30.7895C29.3412 30.9474 28.4291 31.1382 27.6182 31.3618C27.0236 31.5461 26.4628 31.7829 25.9358 32.0724C25.4223 32.3618 25.0034 32.7368 24.6791 33.1974C24.3682 33.6447 24.2128 34.2039 24.2128 34.875C24.2128 35.4539 24.3615 36.0066 24.6588 36.5329C24.9696 37.0592 25.4426 37.4868 26.0777 37.8158C26.7264 38.1447 27.5709 38.3092 28.6115 38.3092Z" fill="white"/>
</g>
<rect x="0.5" y="0.5" width="59" height="59" rx="29.5" stroke="#E4E4E7"/>
<defs>
<clipPath id="clip0_117_18243">
<rect width="60" height="60" rx="30" fill="white"/>
</clipPath>
</defs>
</svg>
