<svg width="60" height="60" viewBox="0 0 60 60" fill="none" xmlns="http://www.w3.org/2000/svg">
<g clip-path="url(#clip0_117_18230)">
<rect width="60" height="60" rx="30" fill="#309F3B"/>
<g clip-path="url(#clip1_117_18230)">
<path d="M33.9447 27.3661H32.3544L32.1567 28.0613L31.9546 27.3661H31.59C31.3 27.3702 31.0628 27.1572 31.0584 26.896C31.0584 26.892 31.0584 26.888 31.0584 26.884C31.054 26.6188 31.2869 26.4018 31.5724 26.3978C31.5768 26.3978 31.5812 26.3978 31.5856 26.3978H33.936C34.2259 26.3938 34.4631 26.6067 34.4675 26.8679C34.4675 26.8719 34.4675 26.8759 34.4675 26.88C34.4719 27.1452 34.2391 27.3621 33.9535 27.3661C33.9491 27.3661 33.9447 27.3661 33.9447 27.3661ZM33.9403 26H31.59C31.0584 26 30.6323 26.3938 30.6279 26.8759C30.6279 27.3621 31.0584 27.7519 31.59 27.7519H31.691L32.1523 28.8408L32.618 27.7519H33.9799C34.5115 27.7519 34.9376 27.3581 34.9376 26.8759C34.9068 26.3938 34.4763 26 33.9447 26M51.4867 27.1251H52.8794V28.6077H54.004V29.4515H52.8794V31.2476C52.8794 31.549 52.9804 31.6414 53.3451 31.6414C53.5779 31.6414 53.8107 31.6414 54.0084 31.6092V32.453C53.7448 32.4852 53.2484 32.5133 52.9145 32.5133C51.5922 32.5133 51.4911 32.0593 51.4911 31.3641V29.4234H50.6301V28.6077H51.4911V27.1251H51.4867ZM16.3632 30.2712C16.3632 29.7248 16.0645 29.4837 15.4406 29.4837C14.8168 29.4837 14.2501 29.785 14.2501 30.6047V32.453H12.8574V28.6077H14.1798V29.1582C14.4434 28.8247 15.0716 28.4912 15.9019 28.4912C16.6312 28.4912 17.6899 28.7323 17.6899 29.8855V32.4611H16.2929V30.2873L16.3632 30.2712ZM21.1298 31.5168C21.7273 31.5168 22.4522 31.336 22.4522 30.4561C22.4522 29.5761 21.7229 29.3953 21.1298 29.3953C20.5367 29.3953 19.8074 29.5761 19.8074 30.4561C19.8074 31.336 20.5323 31.5168 21.1298 31.5168ZM22.5224 28.6118H23.8448V32.1557C23.8448 33.4897 22.9222 34.004 21.1649 34.004C20.1369 34.004 18.7135 33.8835 18.5817 32.7303H20.0403C20.1413 33.0316 20.4049 33.2165 21.2001 33.2165C21.8942 33.2165 22.4565 33.0638 22.4565 32.1276V31.8262C22.0612 32.22 21.4637 32.4008 20.7696 32.4008C19.1133 32.4008 18.3841 31.4606 18.3841 30.4922C18.3841 29.4314 19.1133 28.5836 20.9014 28.5836C21.4988 28.5836 22.1271 28.7363 22.4917 29.1582V28.6118H22.5224ZM24.6751 27.2456H26.0677V28.1215H24.6751V27.2456ZM24.6751 28.6118H26.0677V32.4571H24.6751V28.6118ZM46.786 31.2717C46.8519 31.6052 47.0848 31.8182 47.814 31.8182C48.4423 31.8182 48.8069 31.6655 48.8069 31.3923C48.8069 31.1793 48.6751 31.0909 48.0161 30.9985L46.7597 30.8458C45.8635 30.7253 45.367 30.4842 45.367 29.7569C45.367 28.7283 46.5268 28.455 47.6515 28.455C49.5713 28.455 50.037 29.0296 50.1336 29.7569H48.6092C48.5433 29.3631 48.0776 29.2426 47.6866 29.2426C47.322 29.2426 46.7904 29.2747 46.7904 29.6364C46.7904 29.8172 46.8915 29.9377 47.4846 29.998L48.4423 30.0904C49.8349 30.2109 50.2962 30.6047 50.2962 31.2717C50.2962 32.4209 48.9036 32.5736 47.713 32.5736C46.1227 32.5736 45.3275 32.1477 45.2308 31.2396H46.786V31.2717ZM30.7948 30.1226C30.7948 29.9096 30.4961 29.2466 29.5032 29.2466C28.4093 29.2466 28.1809 30.002 28.1809 30.0904H30.7948V30.1226V30.1226ZM32.1567 31.3039C31.7613 32.212 30.7948 32.6057 29.5428 32.6057C27.8865 32.6057 26.7619 31.999 26.7619 30.5485C26.7619 29.0979 27.8865 28.4912 29.5428 28.4912C31.3659 28.4912 32.2226 29.335 32.2226 30.7936V30.9141H28.1853C28.1853 31.2757 28.5807 31.8543 29.5472 31.8543C30.1095 31.8543 30.5093 31.6735 30.707 31.34H32.1611V31.3039H32.1567Z" fill="white"/>
<path d="M34.1076 31.2717C34.1735 31.6052 34.4064 31.8182 35.1356 31.8182C35.7639 31.8182 36.1285 31.6655 36.1285 31.3923C36.1285 31.1793 35.9967 31.0909 35.3377 30.9985L34.0813 30.8418C33.1851 30.7212 32.6886 30.4802 32.6886 29.7529C32.6886 28.7243 33.8484 28.451 34.9731 28.451C36.8929 28.451 37.3586 29.0256 37.4552 29.7529H35.9308C35.8649 29.3591 35.3992 29.2386 35.0082 29.2386C34.648 29.2386 34.1164 29.2707 34.1164 29.6323C34.1164 29.8131 34.2175 29.9337 34.8105 29.994L35.8034 30.1145C37.196 30.235 37.6573 30.6288 37.6573 31.2958C37.6573 32.445 36.2647 32.5977 35.0741 32.5977C33.4838 32.5977 32.6886 32.1718 32.592 31.2637L34.1076 31.2717ZM43.1488 28.6077H44.5415V32.453H43.1488V28.6077ZM43.1488 27.2416H44.5415V28.1175H43.1488V27.2416ZM40.6974 26.667H42.0901V32.4812H40.6974V26.667ZM9.37836 28.455L8.5173 30.4842H10.2702L9.37836 28.455ZM10.67 31.3882H8.07798L7.6123 32.449H6L8.4514 27.3621H10.2746L12.7216 32.4812H11.0961L10.67 31.3882Z" fill="white"/>
</g>
</g>
<rect x="0.5" y="0.5" width="59" height="59" rx="29.5" stroke="#E4E4E7"/>
<defs>
<clipPath id="clip0_117_18230">
<rect width="60" height="60" rx="30" fill="white"/>
</clipPath>
<clipPath id="clip1_117_18230">
<rect width="48" height="8" fill="white" transform="translate(6 26)"/>
</clipPath>
</defs>
</svg>
