<svg width="60" height="60" viewBox="0 0 60 60" fill="none" xmlns="http://www.w3.org/2000/svg">
<g clip-path="url(#clip0_117_18344)">
<rect width="60" height="60" rx="30" fill="white"/>
<path fill-rule="evenodd" clip-rule="evenodd" d="M36.0739 41.5H38.8973C39.8323 41.5 40.7567 41.4895 41.7015 41.4787L41.7648 41.478C41.9625 41.489 42.0174 41.434 41.9955 41.2361C41.9377 40.6793 41.8894 40.1177 41.8412 39.5577C41.8161 39.2661 41.7911 38.9749 41.7648 38.685C41.6 36.7936 41.4352 34.8913 41.2704 32.9889C41.0726 30.7457 40.8749 28.4915 40.6771 26.2373C40.4903 24.17 40.3146 22.1137 40.1388 20.0464C40.0839 19.4306 39.7213 19.0677 39.0951 19.0127C38.6666 18.9797 38.2382 19.0127 37.8097 19.0897C36.4144 19.3316 35.14 19.8814 33.9315 20.5962C31.6684 21.9267 29.7348 23.6531 27.955 25.5555C25.0217 28.7004 22.5717 32.1972 20.5063 35.9469C19.5615 37.6623 18.7375 39.4217 18.0563 41.2581C18.0503 41.2762 18.0413 41.2955 18.0323 41.3148C17.992 41.401 17.9509 41.489 18.1662 41.489H24.0768C24.1977 41.489 24.2636 41.456 24.3075 41.3461C24.3579 41.2301 24.4082 41.1143 24.4586 40.9985C24.9913 39.7742 25.522 38.5543 25.9335 37.2884C25.9775 37.1455 26.0434 37.1015 26.1972 37.1015H35.3048C35.4696 37.1015 35.5245 37.1455 35.5355 37.3214C35.5795 37.9812 35.6289 38.6382 35.6784 39.2953C35.7278 39.9523 35.7772 40.6093 35.8212 41.2691C35.8322 41.445 35.8981 41.5 36.0739 41.5ZM29.022 32.2913C28.928 32.4266 28.8327 32.5638 28.7354 32.703C28.8292 32.703 28.8749 32.711 28.9274 32.7202C28.9363 32.7218 28.9455 32.7234 28.9551 32.725H34.9975H35.0635C35.1733 32.736 35.1953 32.681 35.1843 32.582C35.1621 32.4189 35.1498 32.2507 35.1375 32.0808C35.1315 31.9989 35.1255 31.9166 35.1184 31.8343C34.9536 29.932 34.7998 28.0406 34.646 26.1383C34.6434 26.1205 34.6427 26.1015 34.6419 26.0824C34.6393 26.019 34.6366 25.9547 34.5691 25.9293C34.494 25.9011 34.4349 25.9533 34.3781 26.0033C34.3685 26.0119 34.3589 26.0203 34.3493 26.0283C34.2783 26.0925 34.2072 26.1563 34.1364 26.2199C33.8676 26.461 33.6017 26.6996 33.3496 26.952C32.0532 28.2385 30.9106 29.657 29.845 31.1305C29.566 31.5083 29.2993 31.8921 29.022 32.2913Z" fill="#00447A"/>
</g>
<rect x="0.5" y="0.5" width="59" height="59" rx="29.5" stroke="#E4E4E7"/>
<defs>
<clipPath id="clip0_117_18344">
<rect width="60" height="60" rx="30" fill="white"/>
</clipPath>
</defs>
</svg>
