<svg width="60" height="60" viewBox="0 0 60 60" fill="none" xmlns="http://www.w3.org/2000/svg">
<g clip-path="url(#clip0_117_18235)">
<rect width="60" height="60" rx="30" fill="#136796"/>
<path fill-rule="evenodd" clip-rule="evenodd" d="M29.9212 14.0798C28.0547 17.9618 21.4049 21.7231 29.6018 27.6987C31.8586 29.3735 35.6555 30.3955 33.718 34.3485C33.5477 34.6536 33.8458 34.7317 34.1154 34.5046C36.8832 31.2968 41.3897 26.2225 37.6 22.0922C35.4426 19.7573 31.0212 18.2315 30.1412 16.0101C29.9709 15.5843 30.1554 14.9598 30.3967 14.4701C30.5883 14.0159 30.0206 13.9024 29.9212 14.0798Z" fill="white"/>
<path fill-rule="evenodd" clip-rule="evenodd" d="M30.0198 14.0798C28.1534 17.9618 21.5036 21.7231 29.7005 27.6987C31.9573 29.3735 35.7541 30.3955 33.8167 34.3485C33.6463 34.6536 33.9444 34.7317 34.2141 34.5046C36.9819 31.2968 41.4884 26.2225 37.6986 22.0922C35.5412 19.7573 31.1198 18.2315 30.2398 16.0101C30.0695 15.5843 30.254 14.9598 30.4953 14.4701C30.6869 14.0159 30.1263 13.9024 30.0198 14.0798Z" fill="white"/>
<path fill-rule="evenodd" clip-rule="evenodd" d="M26.0882 27.4997C25.1301 30.1114 20.2829 33.1133 26.7553 36.5766C28.2598 37.4708 30.1831 38.5921 29.9773 40.2244C29.8992 40.4302 30.0837 40.4586 30.2257 40.2954C32.3547 37.847 33.9586 34.3624 31.347 32.0133C29.9844 30.6933 26.7553 29.9694 26.4075 27.7197C26.4856 27.4075 26.1308 27.3791 26.0882 27.4997Z" fill="white"/>
<path d="M21.7021 41.2539H38.0533V43.2623H21.7021V41.2539Z" fill="white"/>
<path fill-rule="evenodd" clip-rule="evenodd" d="M21.7239 41.1969L21 43.2266L22.2349 43.2408L21.7239 41.1969ZM38.0396 41.1969L38.7635 43.2266L37.5286 43.2408L38.0396 41.1969ZM25.1517 42.7156L26.3581 45.9944L33.4479 45.9731L34.555 42.7156H25.1517Z" fill="white"/>
</g>
<rect x="0.5" y="0.5" width="59" height="59" rx="29.5" stroke="#E4E4E7"/>
<defs>
<clipPath id="clip0_117_18235">
<rect width="60" height="60" rx="30" fill="white"/>
</clipPath>
</defs>
</svg>
