<svg width="60" height="60" viewBox="0 0 60 60" fill="none" xmlns="http://www.w3.org/2000/svg">
<g clip-path="url(#clip0_117_18385)">
<rect width="60" height="60" rx="30" fill="#213A76"/>
<path d="M23.7668 36.6344H20.615V32.6188C20.615 31.7625 20.9229 31.3031 21.6148 31.2094H23.7785C25.0715 31.0937 26.2061 32.1187 26.3117 33.4969C26.3234 33.6375 26.3234 33.7781 26.3117 33.9156C26.3117 35.6281 25.3412 36.65 23.7785 36.65L23.7668 36.6344ZM20.6092 25.775V24.7219C20.6092 23.8 20.9786 23.3531 21.7819 23.3H23.4003C24.7842 23.3 25.6256 24.1812 25.6256 25.6719C25.6256 26.7906 25.0568 28.1094 23.4619 28.1094H20.6209L20.6092 25.775ZM27.8011 29.7938L27.2323 29.45L27.7278 28.9875C28.3083 28.4594 29.2729 27.2625 29.2729 25.2C29.27 22.0406 26.9714 20 23.4208 20H18.9087C17.8502 20.0375 17.0088 20.9594 17 22.0875V40H23.5C27.4551 40 30 37.7094 30 34.1531C30 32.2438 29.1791 30.5969 27.7894 29.775" fill="white"/>
<path d="M36 35.8626C36 33.7239 37.7351 32 39.89 32C42.0449 32 43.8002 33.7289 43.8002 35.8626C43.8002 37.9963 42.05 39.7252 39.89 39.7252C37.73 39.7252 36 38.0012 36 35.8626Z" fill="#499FDD"/>
</g>
<rect x="0.5" y="0.5" width="59" height="59" rx="29.5" stroke="#E4E4E7"/>
<defs>
<clipPath id="clip0_117_18385">
<rect width="60" height="60" rx="30" fill="white"/>
</clipPath>
</defs>
</svg>
