<svg width="60" height="60" viewBox="0 0 60 60" fill="none" xmlns="http://www.w3.org/2000/svg">
<g clip-path="url(#clip0_117_18210)">
<rect width="60" height="60" rx="30" fill="white"/>
<path d="M22.178 23.7361C24.5176 23.7361 26.3972 24.963 27.337 27.0805L27.3769 27.1795H29.8161L29.7362 26.9419C28.6564 23.5775 25.7572 21.5 22.178 21.5C17.6591 21.5 14 25.2997 14 29.99C14 34.6803 17.6591 38.5 22.178 38.5C25.7168 38.5 28.6165 36.4025 29.7362 33.0381L29.8161 32.8005H27.3967L27.337 32.9391C26.377 35.0366 24.4377 36.2834 22.178 36.2834C18.9386 36.2834 16.3194 33.4734 16.3194 30.01C16.3194 26.5466 18.9588 23.7361 22.178 23.7361Z" fill="#EF3742"/>
<path d="M21.6583 28.1497H23.178V32.5628H21.6583V28.1497Z" fill="#EF3742"/>
<path d="M25.2375 29.6937C25.7235 29.6937 26.1176 29.3037 26.1176 28.8226C26.1176 28.3415 25.7235 27.9515 25.2375 27.9515C24.7514 27.9515 24.3574 28.3415 24.3574 28.8226C24.3574 29.3037 24.7514 29.6937 25.2375 29.6937Z" fill="#EF3742"/>
<path d="M19.5786 29.6937C20.0647 29.6937 20.4587 29.3037 20.4587 28.8226C20.4587 28.3415 20.0647 27.9515 19.5786 27.9515C19.0925 27.9515 18.6985 28.3415 18.6985 28.8226C18.6985 29.3037 19.0925 29.6937 19.5786 29.6937Z" fill="#EF3742"/>
<path d="M38.3616 23.7361C40.7012 23.7361 42.5808 24.963 43.5206 27.0805L43.5605 27.1795H45.9997L45.9198 26.9419C44.84 23.5775 41.9408 21.5 38.3616 21.5C33.8427 21.5 30.1836 25.2997 30.1836 29.99C30.1836 34.6803 33.8427 38.5 38.3616 38.5C41.9004 38.5 44.8001 36.4025 45.9198 33.0381L45.9997 32.8005H43.5802L43.5206 32.9391C42.5606 35.0366 40.6213 36.2834 38.3616 36.2834C35.1222 36.2834 32.503 33.4734 32.503 30.01C32.503 26.5466 35.1424 23.7361 38.3616 23.7361Z" fill="#00A0DD"/>
<path d="M37.9666 29.1821C38.4745 29.1821 38.8862 28.7746 38.8862 28.2719C38.8862 27.7692 38.4745 27.3617 37.9666 27.3617C37.4587 27.3617 37.047 27.7692 37.047 28.2719C37.047 28.7746 37.4587 29.1821 37.9666 29.1821Z" fill="#00A0DD"/>
<path d="M41.4656 29.1821C41.9735 29.1821 42.3853 28.7746 42.3853 28.2719C42.3853 27.7692 41.9735 27.3617 41.4656 27.3617C40.9578 27.3617 40.546 27.7692 40.546 28.2719C40.546 28.7746 40.9578 29.1821 41.4656 29.1821Z" fill="#00A0DD"/>
<path d="M37.2648 30.5767H42.8888C42.8888 30.5767 42.8677 31.2218 42.774 31.6218C42.6792 32.0265 42.4067 32.6215 42.4067 32.6215H37.2648V30.5767Z" fill="#00A0DD"/>
</g>
<rect x="0.5" y="0.5" width="59" height="59" rx="29.5" stroke="#E4E4E7"/>
<defs>
<clipPath id="clip0_117_18210">
<rect width="60" height="60" rx="30" fill="white"/>
</clipPath>
</defs>
</svg>
