<svg width="60" height="60" viewBox="0 0 60 60" fill="none" xmlns="http://www.w3.org/2000/svg">
<g clip-path="url(#clip0_117_18359)">
<rect width="60" height="60" rx="30" fill="#8A4297"/>
<path d="M14.06 40.5119C14.0418 38.2444 14.0122 35.9769 14.0076 33.7116C14.0008 28.4656 13.9985 23.2219 14.0099 17.9782C14.0167 15.0448 16.079 13.0112 19.0539 13.0067C26.0145 12.9978 32.9728 12.9978 39.9334 13.0067C42.9197 13.0112 44.9956 15.0336 45.0001 17.9557C45.0047 21.1524 44.9683 24.349 44.9501 27.5456C44.3582 27.6288 44.1033 27.1451 43.7733 26.828C42.0297 25.1588 40.3727 23.4041 38.5836 21.78C38.3651 21.5213 38.1374 21.1996 37.755 21.3256C36.6306 21.6945 36.0047 21.0106 35.5904 20.212C34.9394 18.9545 33.8969 18.6644 32.6132 18.6801C30.6625 18.7026 28.7118 18.7026 26.7611 18.6801C25.4068 18.6644 24.3461 19.0355 23.8339 20.4145C23.4788 21.3706 22.7914 21.7305 21.7808 21.3503C21.6124 21.2873 21.4189 21.2491 21.189 21.4088C21.214 21.8497 21.6283 21.9217 21.931 22.0612C22.557 22.3491 22.6344 22.7833 22.3248 23.3299C21.0137 25.6424 21.5828 28.081 21.8332 30.4947C21.8764 30.9176 22.1678 31.2326 22.4546 31.5295C22.8756 32.2471 23.7611 32.4406 24.2505 33.0794C23.9455 33.4394 23.4743 33.5631 23.1169 33.851C22.821 33.9163 22.6549 33.6846 22.4386 33.5631C21.2641 33.4034 20.085 33.1919 19.0107 33.932C18.7853 33.9275 18.6055 33.8195 18.4348 33.6891C17.7019 33.0412 16.9416 33.1244 16.1928 33.6396C15.6192 34.0355 15.4394 34.6069 15.519 35.284C15.5964 35.9521 16.3521 36.0916 16.5706 36.6405C16.6298 36.7709 16.2292 36.7507 16.4705 36.9599C18.5873 38.773 20.4606 40.8291 22.4546 42.7682C23.0031 43.3014 23.0691 43.7828 22.1996 44.064C20.7451 44.1989 19.2884 44.2754 17.8544 43.9492C15.9447 43.5128 14.4879 42.559 14.06 40.5119Z" fill="#8A4297"/>
<path d="M38.8375 21.7754C40.424 22.9452 41.6554 24.4816 43.0917 25.8043C43.7154 26.3802 44.33 26.9651 44.9491 27.5455C44.9514 31.9366 44.9536 36.33 44.9559 40.7211C44.0477 43.0426 42.3793 44.1404 39.509 44.1719C35.4551 44.2169 31.399 44.1831 27.3451 44.1854C26.1433 44.1854 24.9414 44.1966 23.7396 44.1786C23.2594 44.1719 22.7495 44.2326 22.3694 43.8254C22.9771 43.4453 22.5173 43.1933 22.2533 42.9301C20.3845 41.0787 18.5067 39.2364 16.663 37.3625C16.5469 37.2455 15.7093 37.0251 16.5423 36.6629C16.8337 36.3322 17.3436 36.5009 17.6372 36.1995C17.669 36.1117 17.6463 36.033 17.5621 36.0218C16.8519 35.9318 16.1622 35.7338 16.1486 34.8902C16.1372 34.0467 16.927 34.0084 17.5188 33.851C17.8785 33.7565 18.2404 33.6642 18.6 33.5675C18.732 33.644 18.8618 33.7205 18.9938 33.797C19.2328 34.2581 19.0211 34.7485 19.0826 35.2232C19.1986 36.105 19.5651 36.2625 20.4414 36.2355C21.6387 36.1995 22.0712 35.6258 22.1531 34.5461C22.185 34.1231 22.2396 33.6462 22.6539 33.3516C22.7905 33.5 22.927 33.6485 23.0636 33.7992C23.6964 34.4966 22.877 35.3019 23.3117 36.2242C23.9445 35.3491 23.7965 34.0534 24.9892 33.8307C24.8618 33.2953 24.1471 33.7115 24.1789 33.1378C23.4619 32.8432 22.7722 32.5102 22.383 31.7926C23.3231 31.3989 24.3838 31.246 25.0462 30.3169C25.2237 30.0695 25.6789 30.1347 26.0181 30.1325C28.465 30.1235 30.9096 30.128 33.3565 30.128C34.0302 30.128 34.6061 30.2697 35.0318 30.8523C35.4574 31.4349 36.0856 31.5429 36.7526 31.381C37.4354 31.2167 37.7655 30.6701 37.7814 30.0582C37.8201 28.5038 38.1957 26.9606 37.9271 25.3927C37.8246 24.7965 37.6608 24.2476 37.3512 23.719C36.6752 22.5627 36.8595 22.1691 38.1638 21.8429C38.3891 21.7889 38.6145 21.8091 38.8375 21.7754Z" fill="#5C3076"/>
<path d="M-21.6285 58.3181C-15.7946 58.3226 -9.96077 58.3743 -4.12692 58.3091C-2.12388 58.2866 -0.387152 57.5397 0.566568 55.5961C0.641682 55.4409 0.823778 55.3397 0.955797 55.2115C1.10147 57.8277 0.0248392 59.4024 -2.66561 60.5091C-10.3363 60.5181 -18.0093 60.5249 -25.6801 60.5361C-25.828 60.5361 -25.9783 60.5496 -26.1262 60.5564C-28.2431 59.9647 -30.3849 57.9604 -29.9411 55C-28.712 57.6095 -26.5268 58.4688 -23.7726 58.3248C-23.0602 58.2888 -22.3432 58.3181 -21.6285 58.3181Z" fill="#3C2560"/>
<path d="M38.8375 21.7754C38.4255 22.3535 37.301 22.0341 37.2214 22.7044C37.1622 23.1971 37.8701 23.7415 38.0954 24.3174C38.2912 24.819 38.38 25.4016 38.3595 25.9415C38.2957 27.4825 38.191 29.0257 38.0226 30.5599C37.9498 31.2257 37.5218 31.7251 36.773 31.7791C35.9831 31.8353 35.0931 31.9321 34.7153 31.0525C34.4581 30.4519 34.078 30.4429 33.5749 30.4451C30.9869 30.4541 28.3989 30.4564 25.8109 30.4429C25.3329 30.4406 25.0074 30.4901 24.7661 31.021C24.2881 32.0648 23.2547 31.7476 22.3852 31.7949C21.2107 31.2032 21.3905 30.0425 21.2995 29.0594C21.1834 27.8064 21.2699 26.5354 21.2471 25.2734C21.2335 24.4771 21.6295 23.8562 22.0757 23.2533C22.4649 22.7292 22.4239 22.394 21.7024 22.2838C21.4839 22.25 21.2494 22.1938 21.065 22.0813C20.7714 21.9014 20.5051 21.6382 20.6462 21.258C20.8101 20.8216 21.2266 20.7248 21.5749 20.9363C22.886 21.7326 23.3845 20.9453 23.7828 19.8993C24.1197 19.0152 24.7433 18.4955 25.7153 18.4595C28.4171 18.3628 31.1189 18.3336 33.8208 18.4753C34.6265 18.518 35.1865 18.9072 35.5802 19.6496C36.0765 20.5876 36.5613 21.5864 38.0226 20.9026C38.7828 20.5449 38.5188 21.5122 38.8375 21.7754Z" fill="#3E105F"/>
<path d="M62 43.6353L40.5 25V32.7647L17 36.9059L23 43.6353L28 69L62 43.6353Z" fill="#5C3076" stroke="#5C3076"/>
<path d="M22.6561 33.3535C22.4945 34.1881 22.3375 35.0204 22.1736 35.855C22.1326 36.062 22.1599 36.4601 21.9551 36.4174C21.0651 36.2352 20.166 36.9528 19.3261 36.4354C18.559 35.963 18.7183 35.1531 18.7935 34.4175C18.8162 34.2061 18.9232 34.0059 18.9938 33.7989C20.0818 32.5797 21.3906 33.1353 22.6561 33.3535Z" fill="#FBFBFB"/>
<path d="M18.6002 33.5723C18.4727 34.1077 18.1541 34.0267 17.6874 33.9997C17.1252 33.9682 16.3991 34.2764 16.3718 34.8838C16.3399 35.5856 16.9022 35.9028 17.6351 35.6194C17.9833 35.4844 18.088 35.6733 18.1996 35.9455C18.343 36.2942 18.1495 36.4022 17.8764 36.5124C17.4439 36.6834 16.9978 36.6924 16.5448 36.6654C15.7026 36.3437 15.1062 35.7993 15.1882 34.85C15.2587 34.0267 15.6753 33.3676 16.5357 33.1066C17.305 32.8727 18.0698 32.7309 18.6002 33.5723Z" fill="#F8F7F8"/>
<path d="M24.1811 33.1379C24.3222 33.3944 24.4747 33.3741 24.7114 33.2189C24.9504 33.0637 25.3419 32.8815 25.4785 33.2212C25.6014 33.5271 25.4921 34.1277 25.1462 34.1525C24.1173 34.229 24.0559 34.9961 24.0081 35.6417C23.9375 36.6112 23.4345 36.591 22.7471 36.4133C22.8541 35.527 22.9588 34.6631 23.0635 33.7971C23.2228 33.2257 23.5938 33.0052 24.1811 33.1379Z" fill="#FBFAFB"/>
<path d="M40.1898 35.6867C40.2444 35.4123 40.3309 35.1243 40.3536 34.8319C40.3719 34.5979 40.6723 34.2268 40.1761 34.1593C39.8279 34.112 39.4181 34.0738 39.3294 34.6002C39.252 35.0749 39.1154 35.5428 39.0585 36.0197C39.0016 36.4988 38.6898 36.4921 38.3324 36.4921C37.8225 36.4898 37.95 36.1366 37.9819 35.8667C38.0319 35.464 38.0911 35.0591 38.2027 34.6699C38.4166 33.9411 38.0115 32.4834 39.6845 33.3697C40.604 32.5486 41.7171 33.9388 42.6958 33.0998C42.9553 32.877 43.5335 33.12 43.6518 33.6104C43.8749 34.544 43.5084 35.4325 43.3127 36.3211C43.2467 36.6135 42.7755 36.5123 42.4955 36.4651C42.1587 36.4088 42.3112 36.1344 42.3408 35.9319C42.3954 35.5653 42.4682 35.2031 42.5001 34.8342C42.5183 34.6137 42.7436 34.2785 42.3112 34.2155C41.9788 34.1683 41.6124 34.1728 41.5168 34.6204C41.4326 35.0186 41.3483 35.4168 41.2823 35.8172C41.2095 36.2626 41.0706 36.5573 40.4993 36.5033C39.7277 36.4313 40.3195 35.9634 40.1898 35.6867Z" fill="#FCFCFC"/>
<path d="M35.086 36.6651C33.8591 35.9137 33.5427 35.0724 34.0981 34.0398C34.6057 33.095 35.6846 32.7081 36.6679 33.1153C37.6808 33.5359 37.9062 34.4245 37.3531 35.8237C36.7544 36.8158 36.3948 36.9485 35.086 36.6651Z" fill="#FAF9FA"/>
<path d="M32.9107 33.959C32.3371 33.9928 31.8113 34.2424 31.4835 34.7441C31.3083 35.0118 31.5495 35.329 31.7794 35.5157C31.941 35.6462 32.2073 35.7631 32.3917 35.7249C32.8333 35.6349 33.3477 35.3807 33.3659 36.1028C33.3796 36.6495 32.6558 36.7867 32.4031 36.7732C31.5677 36.7237 30.7187 36.4987 30.4069 35.5337C30.1178 34.6384 30.4251 33.9118 31.133 33.3786C31.8454 32.8432 32.6603 32.8207 33.4729 33.1852C33.7256 33.2976 33.7256 33.5136 33.6504 33.752C33.5275 34.1345 33.2772 34.148 32.9107 33.959Z" fill="#F8F8F9"/>
<path d="M27.2994 32.9109C27.6044 32.9919 27.939 33.0549 28.2509 33.1718C28.4534 33.2483 28.6355 33.381 28.5012 33.678C28.3829 33.9412 28.2577 33.9817 27.9891 33.8692C27.6545 33.7252 27.1469 33.5183 26.9876 33.9074C26.7895 34.3888 27.4132 34.3888 27.7 34.5621C28.1848 34.859 28.4443 35.1964 28.3465 35.824C28.2463 36.4764 27.766 36.5349 27.3108 36.6181C26.7122 36.7284 26.1112 36.6744 25.6219 36.2627C25.5581 36.211 25.5991 35.9793 25.656 35.8623C25.7084 35.7543 25.7926 35.5946 25.9952 35.6891C26.1977 35.7836 26.4094 35.8645 26.6234 35.923C26.892 35.995 27.1902 35.9883 27.2971 35.7003C27.3996 35.4281 27.0991 35.3516 26.9238 35.2347C26.8305 35.1739 26.7167 35.1447 26.6234 35.0862C26.1226 34.778 25.7152 34.4383 25.936 33.7455C26.1499 33.0729 26.7372 33.0571 27.2994 32.9109Z" fill="#F7F6F8"/>
<path d="M30.0494 35.9633C29.997 36.3547 29.7648 36.5886 29.3847 36.5886C29.0569 36.5886 28.7838 36.3547 28.7701 36.0442C28.7565 35.6956 28.9705 35.3896 29.3688 35.3604C29.7717 35.3334 29.9651 35.6033 30.0494 35.9633Z" fill="#EBE8EE"/>
<path d="M35.0859 36.6649C35.985 36.7593 36.7725 36.5636 37.353 35.8213C37.2346 36.7481 36.2718 37.18 35.0518 36.8516C35.0358 36.8471 35.0267 36.7863 35.0335 36.7571C35.0381 36.7256 35.0677 36.6964 35.0859 36.6649Z" fill="#3B145C"/>
<path d="M29.6098 22.4321C27.9231 22.4321 26.2342 22.4074 24.5475 22.4434C23.8123 22.4591 23.6348 22.1622 23.7395 21.5031C24.0149 19.7799 24.7205 19.0893 26.4709 19.0511C28.606 19.0061 30.7456 19.0061 32.8806 19.0421C34.6743 19.0736 35.3571 19.6967 35.7099 21.4153C35.8511 22.1015 35.7168 22.4614 34.8973 22.4434C33.1356 22.4029 31.3715 22.4299 29.6098 22.4321Z" fill="#FCFBFC"/>
<path d="M24.1146 24.9065C24.5812 25.0325 25.0501 25.1449 25.5099 25.2912C25.7535 25.3676 26.0448 25.4644 26.0289 25.7906C26.0152 26.083 25.7626 26.2337 25.5304 26.3462C24.7133 26.7399 23.9257 26.6296 23.1837 26.146C22.906 25.966 22.5463 25.8041 22.5759 25.4104C22.6101 24.9537 23.1108 25.0954 23.3589 24.8997C23.6139 24.686 23.8643 24.6703 24.1146 24.9065Z" fill="#F8F6F9"/>
<path d="M36.099 24.9C36.3425 25.098 36.841 24.9428 36.8752 25.4107C36.9047 25.8133 36.5497 25.9686 36.272 26.1463C35.5709 26.5984 34.8266 26.7402 34.0345 26.3892C33.7591 26.2677 33.4518 26.1238 33.4381 25.7886C33.4222 25.4107 33.7909 25.3409 34.0595 25.251C34.4806 25.1115 34.9176 25.0215 35.3478 24.9113C35.5959 24.6638 35.8463 24.6886 36.099 24.9Z" fill="#F8F7F9"/>
<path d="M24.2718 22.6436C24.6428 22.6436 25.0138 22.6436 25.3871 22.6436C28.6557 22.6436 31.922 22.6436 35.1906 22.6436C35.1906 22.6885 35.1906 22.7335 35.1906 22.7763C31.5373 22.7763 27.8818 22.7763 24.2285 22.7763C24.2422 22.7335 24.2558 22.6885 24.2718 22.6436Z" fill="#26004B"/>
<path d="M26.2913 18.6709C28.5265 18.6709 30.7595 18.6709 32.9947 18.6709C32.9947 18.7046 32.9947 18.7406 32.9947 18.7744C30.7572 18.7744 28.5197 18.7744 26.2822 18.7744C26.2845 18.7406 26.2891 18.7069 26.2913 18.6709Z" fill="#1E0044"/>
<path d="M24.1156 24.9067C23.8629 24.9044 23.6125 24.9022 23.3599 24.8999C23.2119 24.8774 23.064 24.8549 22.916 24.8347C22.9137 24.801 22.9115 24.7695 22.9092 24.7357C23.4782 24.7357 24.0495 24.7357 24.6186 24.7357C24.6231 24.765 24.63 24.7942 24.6345 24.8234C24.4615 24.8504 24.2885 24.8774 24.1156 24.9067Z" fill="#311054"/>
<path d="M36.0995 24.9001C35.8492 24.9046 35.6011 24.9069 35.3507 24.9114C35.1754 24.8799 35.0024 24.8484 34.8271 24.8169C34.8317 24.7764 34.834 24.7359 34.8385 24.6954C35.4235 24.6954 36.0085 24.6954 36.5935 24.6954C36.598 24.7359 36.6048 24.7764 36.6094 24.8192C36.441 24.8462 36.2702 24.8731 36.0995 24.9001Z" fill="#301054"/>
<path d="M19.8865 34.9332C19.9184 34.4586 20.0641 33.9052 20.7492 33.8085C21.1726 33.75 21.3114 34.0829 21.2704 34.4743C21.2112 35.0322 21.168 35.6486 20.4806 35.7746C19.9867 35.8668 19.8751 35.4596 19.8865 34.9332Z" fill="#5A3175"/>
<path d="M36.493 34.7822C36.3678 35.3108 36.2381 35.8417 35.6099 35.781C35.1159 35.7338 34.9953 35.2906 35.0476 34.8519C35.1068 34.3525 35.2935 33.8284 35.8693 33.8374C36.4338 33.8464 36.4885 34.3683 36.493 34.7822Z" fill="#5C3377"/>
</g>
<rect x="0.5" y="0.5" width="59" height="59" rx="29.5" stroke="#E4E4E7"/>
<defs>
<clipPath id="clip0_117_18359">
<rect width="60" height="60" rx="30" fill="white"/>
</clipPath>
</defs>
</svg>
