<svg width="60" height="60" viewBox="0 0 60 60" fill="none" xmlns="http://www.w3.org/2000/svg">
<g clip-path="url(#clip0_117_18390)">
<rect width="60" height="60" rx="30" fill="white"/>
<g clip-path="url(#clip1_117_18390)">
<path d="M29.3593 14C29.7864 14 30.2136 14 30.6385 14C31.0486 14.2242 31.4928 14.0534 31.9199 14.1068C35.433 13.9808 38.3246 15.4308 40.8617 17.7072C42.7026 19.3579 44.2317 21.2478 45.15 23.5904C45.7181 25.0404 45.8633 26.5416 45.8932 28.0727C45.9466 28.4998 45.7758 28.9483 46 29.3604C46 29.717 46 30.0715 46 30.4282C45.7843 30.9022 45.9445 31.4041 45.8932 31.891C46 35.4679 44.5755 38.4212 42.1879 40.9774C40.9002 42.3569 39.4821 43.5549 37.8035 44.4689C35.9733 45.464 34.0534 45.9124 31.9968 45.8954C31.8238 45.8932 31.6401 45.8633 31.4949 46C30.4997 46 29.5045 46 28.5093 46C28.0011 45.7736 27.465 45.9402 26.9439 45.8825C22.0064 45.3359 18.6001 42.5 15.9306 38.5472C14.5702 36.542 14.1879 34.2613 14 31.9209C14 30.9962 14 30.0715 14 29.1469C14.2178 28.7967 14.0577 28.4101 14.1068 28.0428C13.6327 21.1239 21.4725 13.6284 28.0715 14.1068C28.4987 14.0534 28.945 14.2242 29.3593 14Z" fill="#58C1F7"/>
<path d="M45.9996 31.9209C45.9334 31.9145 45.8714 31.9273 45.8138 31.9636C45.7476 31.4362 45.6878 30.9087 45.9996 30.4282C45.9996 30.9258 45.9996 31.4234 45.9996 31.9209Z" fill="#4395BE"/>
<path d="M28.0142 14.1687C28.0099 14.1025 28.0313 14.047 28.0804 14C28.5075 14 28.9347 14 29.3596 14C28.9411 14.2862 28.4776 14.2349 28.0142 14.1687Z" fill="#4395BE"/>
<path d="M31.9199 14C31.969 14.047 31.9904 14.1025 31.9861 14.1708C31.5227 14.2349 31.0593 14.2862 30.6407 14C31.0657 14 31.4928 14 31.9199 14Z" fill="#4395BE"/>
<path d="M45.827 28.0258C45.8847 28.0428 45.9424 28.0599 46 28.0791C46 28.5062 46 28.9333 46 29.3583C45.7181 28.944 45.7587 28.487 45.827 28.0258Z" fill="#3F8BB2"/>
<path d="M14 28.0813C14.0577 28.0621 14.1153 28.0429 14.173 28.028C14.2541 28.423 14.267 28.8074 14 29.1491C14 28.7925 14 28.4358 14 28.0813Z" fill="#3F8BB2"/>
<path d="M30.0555 17.1178C37.1586 17.0921 42.9952 22.8622 43.0123 29.9263C43.0315 37.1421 37.3187 42.9868 30.2242 43.0125C22.9738 43.0381 17.1693 37.3577 17.0753 30.1441C16.9835 23.0052 22.8222 17.1434 30.0555 17.1178Z" fill="#FEFEFE"/>
<path d="M30.0192 39.9117C24.5648 39.8861 20.1932 35.4401 20.2189 29.9434C20.2424 24.5791 24.7229 20.1928 30.1495 20.2206C35.5504 20.2484 39.9476 24.7243 39.8836 30.127C39.8216 35.5789 35.4266 39.9395 30.0192 39.9117Z" fill="#58C1F7"/>
<path d="M35.8366 30.063C35.8451 32.4291 34.378 34.5838 32.1719 35.4422C29.9722 36.2985 27.3668 35.7091 25.8184 34.0072C24.1975 32.2241 23.8366 29.7021 24.8403 27.5645C25.1735 26.8512 25.5109 26.6782 26.1964 27.1609C26.8606 27.6285 27.591 28.0065 28.3064 28.3973C29.1201 28.8393 29.3572 28.6963 29.3828 27.746C29.4041 26.9302 29.4362 26.1102 29.3764 25.2987C29.3102 24.3954 29.7416 24.2075 30.5275 24.2801C33.5344 24.5535 35.8281 27.0391 35.8366 30.063Z" fill="#FEFEFE"/>
</g>
</g>
<rect x="0.5" y="0.5" width="59" height="59" rx="29.5" stroke="#E4E4E7"/>
<defs>
<clipPath id="clip0_117_18390">
<rect width="60" height="60" rx="30" fill="white"/>
</clipPath>
<clipPath id="clip1_117_18390">
<rect width="32" height="32" fill="white" transform="translate(14 14)"/>
</clipPath>
</defs>
</svg>
