<svg width="48" height="48" viewBox="0 0 48 48" fill="none" xmlns="http://www.w3.org/2000/svg">
<g clip-path="url(#clip0_1897_52726)">
<rect width="48" height="48" rx="24" fill="#BF2519"/>
<path d="M14.8872 23.5861C14.4771 24.1702 14.3051 26.0069 14.448 27.2247C14.4978 27.6263 14.5806 27.9616 14.6988 28.1624C14.8624 28.4388 15.1379 28.6046 15.4508 28.6137C15.6518 28.6229 15.7782 28.5916 19.5589 27.5101C19.5589 27.5101 21.239 27.033 21.2473 27.0293C21.6658 26.9335 21.9496 26.5909 21.9765 26.1542C22.0034 25.7047 21.7445 25.3085 21.3136 25.1667C21.3136 25.1667 20.1287 24.7374 20.1266 24.7374C16.062 23.2469 15.8797 23.188 15.6746 23.1862C15.3595 23.1772 15.0819 23.3172 14.8872 23.5861ZM23.9777 34.6935C24.044 34.524 24.0523 34.4079 24.0626 30.8743C24.0626 30.8743 24.0709 29.3138 24.0729 29.2973C24.0998 28.9141 23.8222 28.5659 23.3664 28.4093C22.8961 28.249 22.3906 28.3485 22.1069 28.6616C22.1069 28.6616 21.2782 29.5368 21.274 29.5368C18.4275 32.5103 18.3074 32.6485 18.2391 32.8234C18.1956 32.9266 18.1811 33.0371 18.1935 33.1477C18.2101 33.3061 18.2908 33.4609 18.4235 33.6064C19.0844 34.3046 22.2498 35.34 23.2608 35.1852C23.6151 35.1319 23.8699 34.9569 23.9777 34.6935ZM30.4019 33.4646C31.3569 33.1257 33.4389 30.7712 33.586 29.8629C33.6378 29.5479 33.526 29.2752 33.2815 29.1021C33.122 28.9952 32.9998 28.9528 29.219 27.8493C29.219 27.8493 27.5618 27.363 27.5389 27.3538C27.137 27.2156 26.6792 27.3446 26.3725 27.6818C26.0515 28.0281 26.0037 28.4869 26.2606 28.8314L26.9277 29.7968C29.1713 33.0374 29.3432 33.2659 29.5048 33.3782C29.7534 33.5531 30.0704 33.5825 30.4019 33.4646ZM28.4483 25.1226C32.7429 24.1978 32.9106 24.1481 33.0784 24.0485C33.3395 23.8919 33.47 23.6322 33.4472 23.3153C33.4472 23.3061 33.4492 23.295 33.4472 23.284C33.3374 22.3444 31.4895 19.9052 30.578 19.5091C30.2548 19.3709 29.9317 19.3801 29.6644 19.5403C29.4987 19.6362 29.3764 19.7816 27.0769 22.5801C27.0769 22.5801 26.039 23.8384 26.0266 23.8513C25.7531 24.1479 25.749 24.5716 26.0163 24.9364C26.2939 25.3141 26.7621 25.4965 27.1909 25.3914C27.1909 25.3914 27.1743 25.419 27.1702 25.4227C27.3814 25.3511 27.7584 25.2682 28.4483 25.1226ZM24.1372 21.9686C24.0626 20.4542 23.5509 13.7131 23.4909 13.4018C23.4038 13.1181 23.1552 12.9173 22.799 12.8362C21.701 12.5949 17.51 13.6394 16.7331 14.3506C16.4824 14.5827 16.3913 14.8665 16.4659 15.1188C16.5882 15.3418 21.7818 22.6078 21.7818 22.6078C22.5483 23.7151 23.1761 23.5418 23.3812 23.4847C23.584 23.4314 24.2077 23.2582 24.1372 21.9686Z" fill="white"/>
</g>
<rect x="0.5" y="0.5" width="47" height="47" rx="23.5" stroke="#E4E4E7"/>
<defs>
<clipPath id="clip0_1897_52726">
<rect width="48" height="48" rx="24" fill="white"/>
</clipPath>
</defs>
</svg>
