<svg width="60" height="60" viewBox="0 0 60 60" fill="none" xmlns="http://www.w3.org/2000/svg">
<g clip-path="url(#clip0_117_18407)">
<rect width="60" height="60" rx="30" fill="#008500"/>
<g clip-path="url(#clip1_117_18407)">
<path d="M49.0001 28.2057C49.0001 28.3462 49.0001 28.4877 49.0001 28.6281C48.923 28.7338 48.923 28.8394 49.0001 28.945C49.0001 29.6842 49.0001 30.4224 49.0001 31.1617C48.9346 31.2325 48.9346 31.3022 49.0001 31.3729C49.0001 31.5493 49.0001 31.7246 49.0001 31.901C48.8491 32.8292 48.8681 33.7766 48.604 34.6964C46.4771 42.1038 41.7057 46.7886 34.2339 48.7096C33.3996 48.924 32.5347 48.8775 31.6888 49.0011C31.5831 49.0011 31.4775 49.0011 31.3719 49.0011C31.2663 48.924 31.1607 48.924 31.0551 49.0011C30.3158 49.0011 29.5776 49.0011 28.8384 49.0011C28.7676 48.9356 28.6979 48.9356 28.6272 49.0011C28.4508 49.0011 28.2755 49.0011 28.0991 49.0011C27.2067 48.8448 26.2953 48.8638 25.4061 48.6325C19.8015 47.173 15.6532 43.8611 12.9327 38.7803C11.8143 36.6903 11.1004 34.4503 11.0518 32.0435C11.0508 31.9886 11.0339 31.9421 10.999 31.901C10.999 31.7246 10.999 31.5493 10.999 31.3729C11.0761 31.2673 11.0761 31.1617 10.999 31.0561C10.999 30.3168 10.999 29.5786 10.999 28.8394C11.0645 28.7686 11.0645 28.6989 10.999 28.6281C10.999 28.4518 10.999 28.2765 10.999 28.1001C11.1522 27.1898 11.1268 26.2594 11.3834 25.3564C13.4893 17.9427 18.2501 13.2473 25.7145 11.3031C26.5319 11.0898 27.3789 11.1299 28.2058 11C28.3463 11 28.4878 11 28.6282 11C28.7338 11.0771 28.8394 11.0771 28.9451 11C29.6843 11 30.4225 11 31.1618 11C31.2325 11.0655 31.3022 11.0655 31.373 11C31.4786 11 31.5842 11 31.6898 11C32.7448 11.131 33.8083 11.1457 34.8496 11.4319C39.7636 12.7806 43.5781 15.5971 46.3092 19.8954C47.4519 21.6939 48.2228 23.6413 48.7012 25.7144C48.8913 26.536 48.8702 27.3788 49.0001 28.2057Z" fill="#008500"/>
<path d="M28.945 11C28.8394 11.1193 28.7338 11.1595 28.6282 11C28.7338 11 28.8394 11 28.945 11Z" fill="#5FB25F"/>
<path d="M31.3714 11C31.3006 11.1352 31.2309 11.1119 31.1602 11C31.2309 11 31.3017 11 31.3714 11Z" fill="#67B667"/>
<path d="M32.882 31.9219C34.9815 30.2491 36.6185 28.3503 37.8034 26.0744C38.1033 25.4988 38.3811 24.9085 38.6155 24.3034C38.7528 23.9517 38.9006 23.9031 39.2291 24.0509C39.6441 24.2379 40.0792 24.3889 40.5165 24.5156C40.8734 24.6191 40.9347 24.768 40.7858 25.1144C39.9398 27.0809 38.8626 28.9026 37.4538 30.5173C37.2025 30.8046 37.1887 31.0042 37.3873 31.3284C38.5004 33.1385 39.5871 34.9645 40.6833 36.7863C40.9822 37.2826 40.9378 37.3756 40.358 37.4833C39.1985 37.6987 38.1994 37.2097 37.5362 36.0903C36.9458 35.0934 36.3639 34.0901 35.7757 33.091C35.6796 32.9273 35.5708 32.77 35.4557 32.5904C34.6721 33.2748 33.917 33.9327 33.0911 34.502C32.9042 34.6308 32.8736 34.7924 32.8767 34.9973C32.8852 35.6298 32.8694 36.2635 32.8852 36.8961C32.8915 37.1696 32.8007 37.2689 32.523 37.2594C32.0308 37.2414 31.5355 37.2224 31.0466 37.2636C30.6041 37.3006 30.5344 37.121 30.5354 36.7271C30.5481 32.7013 30.5439 28.6745 30.5439 24.6487C30.5439 23.1195 30.5523 21.5892 30.5375 20.06C30.5344 19.7305 30.5998 19.5827 30.9684 19.608C31.4405 19.6407 31.9189 19.6418 32.391 19.608C32.7785 19.5805 32.8936 19.6893 32.8905 20.0938C32.8704 22.7836 32.8799 25.4735 32.8799 28.1644C32.882 29.3726 32.882 30.5828 32.882 31.9219Z" fill="#FEFEFE"/>
<path d="M28.6105 34.3425C28.6105 35.0786 28.6041 35.7249 28.6147 36.3723C28.6179 36.5571 28.5577 36.6743 28.3887 36.7377C26.078 37.6026 23.7535 38.0124 21.464 36.725C19.807 35.7935 19.0054 34.2516 18.7393 32.4299C18.4457 30.4233 18.6569 28.4918 19.9115 26.801C20.9 25.4682 22.2708 24.7701 23.8898 24.5726C25.1212 24.4227 26.3536 24.4681 27.5238 24.9497C28.6073 25.3953 28.9252 26.2349 28.3908 27.1336C28.2419 27.3829 28.1109 27.461 27.8079 27.3026C26.6039 26.6711 25.3155 26.4408 23.9743 26.6954C22.4049 26.9932 21.4566 28.0503 21.1672 29.8499C20.9391 31.2693 21.0067 32.6781 21.8505 33.9116C22.8559 35.3827 24.3344 35.633 25.966 35.3384C26.869 35.1757 27.7202 34.8483 28.6105 34.3425Z" fill="#FEFEFE"/>
</g>
</g>
<rect x="0.5" y="0.5" width="59" height="59" rx="29.5" stroke="#E4E4E7"/>
<defs>
<clipPath id="clip0_117_18407">
<rect width="60" height="60" rx="30" fill="white"/>
</clipPath>
<clipPath id="clip1_117_18407">
<rect width="38" height="38" fill="white" transform="translate(11 11)"/>
</clipPath>
</defs>
</svg>
