<svg width="60" height="60" viewBox="0 0 60 60" fill="none" xmlns="http://www.w3.org/2000/svg">
<g clip-path="url(#clip0_117_18415)">
<rect width="60" height="60" rx="30" fill="white"/>
<path d="M41.9665 22.865L38.8541 24.6951C38.7004 24.7855 38.515 24.7341 38.4215 24.5751C38.328 24.4161 38.3732 24.2291 38.5269 24.1387L41.6393 22.3085C41.793 22.2182 41.9784 22.2696 42.0719 22.4286C42.1654 22.5876 42.1202 22.7746 41.9665 22.865Z" fill="#F47821"/>
<path d="M38.4114 16.2906L36.4842 20.3121C36.4156 20.4594 36.2001 20.5326 36.0532 20.4586C35.9062 20.3846 35.8278 20.1632 35.8963 20.016L37.8236 15.9944C37.8921 15.8471 38.1076 15.7739 38.2546 15.8479C38.4249 15.9617 38.48 16.1433 38.4114 16.2906Z" fill="#F47821"/>
<path d="M45.5519 29.3146L41.1157 28.9815C40.9537 28.9697 40.8218 28.8334 40.8051 28.6292C40.8119 28.4648 40.9422 28.3346 41.1426 28.3238L45.5789 28.6569C45.7409 28.6687 45.8728 28.805 45.8894 29.0092C45.8827 29.1736 45.7139 29.3263 45.5519 29.3146Z" fill="#F47821"/>
<path d="M18.1538 32.7812L32.6923 19L41 32.7812L29.9231 35.3157L23.4264 36.8022L20.9231 37.375L18.1538 40L14 33.4375L18.1538 32.7812Z" fill="#F47821"/>
</g>
<rect x="0.5" y="0.5" width="59" height="59" rx="29.5" stroke="#E4E4E7"/>
<defs>
<clipPath id="clip0_117_18415">
<rect width="60" height="60" rx="30" fill="white"/>
</clipPath>
</defs>
</svg>
