<svg width="60" height="60" viewBox="0 0 60 60" fill="none" xmlns="http://www.w3.org/2000/svg">
<g clip-path="url(#clip0_117_18422)">
<rect width="60" height="60" rx="30" fill="white"/>
<path d="M37 23.197C37.3778 22.774 37.8541 22.4672 38.2722 22.0916C38.3029 22.0637 38.3292 22.0305 38.3574 22C38.7069 22.5498 39.1686 23.0092 39.5354 23.5493C40.1866 24.5078 40.6943 25.5326 41.0452 26.6322C41.3595 27.618 41.5887 28.6279 41.5676 29.6774C41.567 29.6988 41.5631 29.7216 41.5683 29.7424C41.6272 29.9718 41.7322 30.2727 41.5996 30.4202C41.4498 30.5872 41.1374 30.4585 40.8973 30.4787C40.855 30.4826 40.8115 30.4839 40.7692 30.4787C40.4612 30.4416 40.0502 30.6294 39.8716 30.3916C39.7192 30.1888 39.805 29.795 39.7864 29.487C39.7166 28.3263 39.4195 27.2333 38.965 26.1734C38.4873 25.0582 37.8163 24.0802 37 23.197Z" fill="#C9D7EB"/>
<path d="M28.2723 41.999C27.9227 41.8651 27.5475 41.8788 27.1858 41.8125C26.2977 41.65 25.4443 41.3758 24.6196 41.0184C23.6381 40.5927 22.7104 40.0533 21.8832 39.3677C21.2621 38.853 20.6872 38.2825 20.1679 37.6534C19.9349 37.3707 19.7345 37.0685 19.4297 36.7391C20.1615 36.7391 20.8062 36.7391 21.4503 36.7391C21.5765 36.7391 21.6271 36.8482 21.6962 36.9223C22.3704 37.6443 23.0977 38.3 23.9448 38.8095C24.9628 39.4217 26.0397 39.8753 27.2031 40.1216C28.0393 40.2983 28.8812 40.4179 29.7321 40.3698C31.0536 40.2951 32.3296 40.0176 33.5577 39.4834C34.7306 38.9733 35.8158 38.3033 36.652 37.3577C37.1521 36.7923 37.6476 36.7072 38.2802 36.7365C38.6067 36.7514 38.9345 36.7391 39.3021 36.7391C39.0863 37.1621 38.7924 37.4747 38.519 37.797C37.492 39.009 36.2627 39.9695 34.8638 40.6954C33.8426 41.225 32.7599 41.5896 31.6292 41.8105C31.2578 41.8833 30.873 41.8716 30.5113 42.0003C29.766 41.999 29.0195 41.999 28.2723 41.999Z" fill="#C9D7EB"/>
<path d="M46.0005 32.4511C45.8647 32.6649 45.6714 32.7643 45.421 32.7779C45.0055 32.8007 44.8582 32.9567 44.8506 33.3856C44.8429 33.8184 44.8621 34.2518 44.8442 34.684C44.8243 35.1688 44.4184 35.3709 44.0189 35.1161C43.8626 35.0167 43.8249 34.8711 43.8249 34.7022C43.8249 33.9451 43.8261 33.1874 43.8242 32.4303C43.8236 32.1658 43.9235 31.95 44.1751 31.8792C44.4626 31.7986 44.6687 31.9344 44.7616 32.2698C44.9415 32.0599 45.1015 31.8643 45.3845 31.8506C45.6432 31.8383 45.8609 31.8831 46.0005 32.1261C46.0005 32.2347 46.0005 32.3432 46.0005 32.4511Z" fill="#001688"/>
<path d="M36.6409 23.2214C35.7216 24.0212 34.8429 24.8647 33.9842 25.73C33.0149 26.7068 32.1562 27.7749 31.387 28.9175C31.3003 29.0457 31.2147 29.1768 31.1119 29.2916C30.5705 29.8976 30.0008 29.7531 29.6129 29.1622C29.2661 28.6341 28.9398 28.0919 28.503 27.6349C27.5476 26.6363 26.3999 25.9563 25.0749 25.5755C24.842 25.5083 24.6113 25.4265 24.4023 25.2921C24.17 25.1425 23.9433 24.9695 24.0127 24.6631C24.0844 24.3478 24.3773 24.2604 24.653 24.2408C25.6195 24.1719 26.521 24.3914 27.3975 24.8194C28.4635 25.3397 29.2767 26.1546 30.0848 26.9863C30.1748 27.0787 30.2132 27.1527 30.3543 26.9986C30.7684 26.5461 31.188 26.0991 31.5893 25.6348C31.8744 25.3049 32.199 25.0098 32.5064 24.7001C33.0427 24.159 33.5707 23.609 34.1198 23.0809C34.4889 22.7258 34.8885 22.402 35.2742 22.0643C35.3798 21.8644 35.5916 21.7899 35.7522 21.6549C36.0001 21.446 36.2763 21.2779 36.5525 21.1099C36.8866 21.0265 37.1428 20.7946 37.4262 20.6226C38.5628 19.9343 39.7339 19.3227 40.9789 18.8561C41.4763 18.6696 41.9649 18.4719 42.5106 18.5257C42.5829 18.533 42.6524 18.5257 42.7263 18.5559C42.8458 18.6047 42.9708 18.6282 42.9958 18.7889C43.0225 18.9586 42.9164 19.0544 42.8008 19.1272C42.5468 19.2863 42.2883 19.4409 42.0221 19.5775C41.0422 20.0794 40.0907 20.6288 39.1881 21.2617C38.8091 21.5277 38.4311 21.796 38.0632 22.0766C37.9848 22.1366 37.9026 22.1556 37.8203 22.1898C37.7947 22.2295 37.8114 22.2883 37.7781 22.3197C37.4229 22.6507 37.0894 23.0097 36.6409 23.2214Z" fill="#E65300"/>
<path d="M36.7223 20.5112C36.7146 20.5522 36.721 20.6165 36.698 20.6315C36.2043 20.9434 35.7747 21.3528 35.2503 21.6186C34.1485 20.8784 32.9723 20.3247 31.67 20.0381C30.7474 19.8354 29.8229 19.7535 28.8855 19.7893C28.073 19.8204 27.2772 19.9719 26.4948 20.1987C25.1771 20.5814 23.9888 21.2248 22.917 22.0819C21.9784 22.8325 21.2191 23.7521 20.5942 24.784C19.9104 25.9128 19.4801 27.1424 19.2573 28.4421C19.1696 28.9542 19.1485 29.4799 19.128 30.0011C19.1203 30.2038 19.0716 30.2558 18.877 30.248C18.4615 30.2324 18.0453 30.2305 17.6298 30.2487C17.4236 30.2578 17.3903 30.1863 17.3877 29.9939C17.3596 27.8514 17.9153 25.8764 18.982 24.0322C19.5256 23.0918 20.1761 22.2418 20.9405 21.4854C22.1903 20.2494 23.6444 19.3201 25.2809 18.7137C26.1241 18.4012 27.0019 18.1958 27.9021 18.0892C28.794 17.9833 29.6922 17.9729 30.5726 18.0515C32.7469 18.2458 34.7202 19.0517 36.5065 20.3234C36.584 20.378 36.6506 20.4482 36.7223 20.5112Z" fill="#C9D7EB"/>
<path d="M15.2189 30.7627C15.6594 30.7705 16.1057 30.7172 16.5321 30.8842C17.1582 31.1305 17.5264 31.5978 17.6794 32.2535C17.8952 33.1769 17.746 34.0087 17.0654 34.6956C16.7286 35.0348 16.2862 35.1447 15.8335 35.1733C15.4091 35.2006 14.9814 35.1824 14.5549 35.1785C14.1362 35.1746 14.0005 35.0368 14.0005 34.6235C13.9998 33.5207 13.9998 32.4172 14.0005 31.3144C14.0011 30.8855 14.1215 30.7646 14.5473 30.7633C14.7707 30.7614 14.9948 30.7627 15.2189 30.7627Z" fill="#E65300"/>
<path d="M34.5523 33.0515C34.9435 33.2172 34.98 33.574 35.037 33.8853C35.0793 34.1166 35.1119 34.3486 35.1823 34.5735C35.2681 34.8484 35.192 35.0498 34.9301 35.1785C34.6529 35.3149 34.4505 35.209 34.2597 34.9991C34.0785 34.7996 34.0715 34.5462 34.0382 34.3083C33.9492 33.6754 33.4818 33.3699 32.8684 33.5564C32.734 33.5974 32.7551 33.6949 32.7538 33.7865C32.7506 34.0672 32.757 34.3486 32.7506 34.6293C32.7436 34.9608 32.4971 35.237 32.2147 35.2415C31.9017 35.2467 31.6667 34.992 31.6654 34.6222C31.6609 33.5525 31.6584 32.4822 31.666 31.4126C31.6705 30.7913 31.9702 30.7296 32.4997 30.7393C32.7852 30.7445 33.0701 30.7276 33.3512 30.7328C33.8359 30.7419 34.3385 30.7055 34.779 31.0266C35.3725 31.4581 35.4186 32.6882 34.5523 33.0515Z" fill="#001688"/>
<path d="M24.176 33.7735C24.176 34.0653 24.1773 34.3571 24.1754 34.6489C24.1741 34.9198 24.0524 35.1057 23.7989 35.2084C23.5614 35.3046 23.3994 35.183 23.2912 35.005C23.206 34.8646 23.1676 34.953 23.1023 34.9991C22.7329 35.2623 22.3122 35.3078 21.8928 35.2201C21.389 35.1148 21.0797 34.656 21.1028 34.1374C21.1245 33.6507 21.4895 33.253 22.0331 33.1737C22.3122 33.1327 22.5792 33.0301 22.8667 33.0281C22.9742 33.0275 23.1305 32.9761 23.1317 32.8494C23.1324 32.7103 23.0063 32.6532 22.8596 32.6428C22.5984 32.6239 22.3596 32.6064 22.1522 32.8377C21.9044 33.1146 21.6848 33.099 21.4536 32.8416C21.2916 32.6616 21.3256 32.3529 21.5529 32.1651C21.9319 31.8512 22.398 31.7836 22.8545 31.8317C23.0901 31.8564 23.3462 31.8259 23.5857 31.9825C23.9647 32.2301 24.1645 32.5479 24.1735 32.9963C24.1799 33.2543 24.176 33.5136 24.176 33.7735Z" fill="#E65300"/>
<path d="M38.3842 33.7566C38.3842 34.0484 38.3919 34.3408 38.3816 34.632C38.3733 34.862 38.3189 35.0719 38.0801 35.1837C37.8304 35.3007 37.6428 35.2162 37.5025 35.0095C37.3995 34.8568 37.3514 34.9829 37.2823 35.0303C36.8552 35.3234 36.0626 35.3351 35.7233 35.0375C35.3634 34.7223 35.2322 34.3298 35.3775 33.8547C35.5139 33.4096 35.8744 33.264 36.2643 33.1711C36.5306 33.1074 36.8053 33.0827 37.0736 33.0288C37.1837 33.0067 37.338 32.9787 37.3329 32.8397C37.3271 32.6928 37.1933 32.6421 37.0505 32.6454C36.8008 32.6512 36.5562 32.6044 36.3507 32.8455C36.1292 33.1055 35.891 33.0905 35.6951 32.8689C35.5062 32.6551 35.5568 32.3393 35.8046 32.1346C36.1682 31.8343 36.6151 31.8136 37.0377 31.8298C37.2618 31.8382 37.5128 31.8317 37.7471 31.9546C38.1851 32.1833 38.3874 32.5245 38.3848 33.0112C38.3829 33.2595 38.3842 33.5084 38.3842 33.7566Z" fill="#001688"/>
<path d="M42.3782 33.8807C42.1374 33.8807 41.9345 33.8872 41.7328 33.8788C41.476 33.8684 41.5029 33.997 41.5932 34.1569C41.7859 34.4994 42.2418 34.5637 42.5536 34.2901C42.7002 34.1614 42.834 34.0191 43.0556 34.1075C43.416 34.2505 43.4993 34.7106 43.183 34.9387C42.6074 35.3533 41.9588 35.363 41.3384 35.1044C40.7378 34.8542 40.4683 34.3155 40.4343 33.6695C40.3921 32.8669 40.7122 32.2249 41.4562 31.948C42.4441 31.5809 43.5063 31.9376 43.6286 33.3147C43.6536 33.5974 43.5819 33.7917 43.2259 33.8339C42.9288 33.8684 42.6343 33.8619 42.3782 33.8807Z" fill="#001688"/>
<path d="M18.9216 33.88C19.1809 34.526 19.5798 34.641 20.0837 34.2193C20.3161 34.0243 20.503 34.0321 20.69 34.2206C20.9198 34.4526 20.8949 34.6215 20.6637 34.8821C20.4845 35.0855 20.2495 35.1798 20.0036 35.2161C18.6841 35.4118 17.8844 34.847 17.876 33.5499C17.8684 32.4406 18.4683 31.8564 19.5234 31.8194C20.544 31.783 21.158 32.5511 21.0338 33.574C21.0044 33.8183 20.7924 33.8774 20.5786 33.8781C20.0369 33.882 19.4953 33.88 18.9216 33.88Z" fill="#E65300"/>
<path d="M27.726 33.8803C27.5127 33.8803 27.3002 33.879 27.087 33.8816C27.0268 33.8822 26.9672 33.8959 26.9071 33.9037C26.9276 33.9849 26.9301 34.0772 26.9717 34.1448C27.2125 34.5321 27.6075 34.5724 28.0019 34.2481C28.1376 34.137 28.2644 34.0291 28.4539 34.0993C28.7965 34.226 28.8567 34.575 28.6274 34.8616C28.2619 35.3171 27.2829 35.3314 26.8168 35.1547C26.2271 34.9305 25.8602 34.3514 25.8353 33.7282C25.8154 33.2298 25.9249 32.7898 26.2194 32.3837C26.4435 32.0743 27.2035 31.7741 27.6491 31.83C28.2644 31.9067 28.6684 32.2011 28.9124 32.7651C29.0033 32.9757 29.009 33.2018 29.0039 33.4111C28.9949 33.7705 28.8573 33.851 28.3643 33.8783C28.1524 33.89 27.9385 33.8803 27.726 33.8803Z" fill="#E65200"/>
<path d="M38.8329 33.6851C38.8323 33.4798 38.8348 33.2744 38.8316 33.069C38.8284 32.8669 38.9033 32.6317 38.5582 32.6167C38.434 32.6109 38.3994 32.4348 38.3847 32.3016C38.3681 32.1476 38.402 31.987 38.5505 31.9539C38.8585 31.8857 38.8361 31.6732 38.8355 31.4405C38.8342 31.1266 39.0103 30.9122 39.2587 30.8927C39.6204 30.8647 39.7914 31.0214 39.7894 31.4015C39.7882 31.6511 39.7453 31.887 40.116 31.9149C40.3196 31.9305 40.3971 32.1229 40.3657 32.3341C40.3362 32.5342 40.2197 32.6479 40.0225 32.6414C39.8368 32.6349 39.7843 32.7129 39.7888 32.8903C39.7984 33.2796 39.792 33.6689 39.7914 34.0581C39.7914 34.2654 39.8407 34.4188 40.0955 34.4038C40.2479 34.3948 40.3593 34.4799 40.4111 34.6267C40.4662 34.7834 40.4393 34.9562 40.3202 35.0446C40.0078 35.2766 39.6454 35.2441 39.2958 35.1499C39.0122 35.0732 38.8534 34.8568 38.8367 34.5611C38.8207 34.27 38.8335 33.9769 38.8329 33.6851Z" fill="#001688"/>
<path d="M24.496 32.967C24.496 32.3841 24.4941 31.8012 24.4966 31.2189C24.4979 30.8407 24.6324 30.6978 24.9749 30.6978C25.2752 30.6978 25.4551 30.8973 25.4557 31.2352C25.4564 32.39 25.4538 33.5448 25.4577 34.6996C25.4583 34.9569 25.3456 35.133 25.1183 35.2201C24.9032 35.3026 24.7348 35.1928 24.5805 35.044C24.4902 34.9569 24.4947 34.8555 24.4953 34.7483C24.496 34.1543 24.496 33.5604 24.496 32.967Z" fill="#E65300"/>
<path d="M30.1771 32.2531C30.3826 31.9633 30.6425 31.8157 30.9972 31.8638C31.2265 31.8944 31.3808 32.0022 31.4019 32.2323C31.4224 32.4604 31.3404 32.6443 31.0914 32.7203C30.9889 32.7515 30.8916 32.7762 30.7847 32.7782C30.4492 32.784 30.2629 32.9686 30.2577 33.3104C30.2513 33.7426 30.2577 34.1754 30.2552 34.6075C30.2533 34.9363 30.0138 35.2548 29.7519 35.2385C29.4529 35.2197 29.216 35.0741 29.2269 34.6264C29.2449 33.8914 29.2384 33.1557 29.2282 32.4208C29.2244 32.1563 29.3057 31.9555 29.5579 31.8749C29.8096 31.7943 30.0484 31.9464 30.1771 32.2531Z" fill="#E65300"/>
<path d="M15.0857 32.9775C15.0857 32.6103 15.0915 32.2425 15.0832 31.876C15.08 31.7245 15.1248 31.6596 15.281 31.6706C15.482 31.6843 15.694 31.6446 15.8841 31.6934C16.4226 31.8318 16.5244 32.0989 16.6172 32.674C16.6678 32.9905 16.6249 33.3167 16.5506 33.6299C16.4559 34.0283 16.1069 34.2668 15.6447 34.2707C15.0857 34.2752 15.0857 34.2752 15.0857 33.7235C15.0857 33.474 15.0857 33.2257 15.0857 32.9775Z" fill="white"/>
<path d="M32.7534 32.0975C32.7701 31.5451 32.6177 31.6075 33.3156 31.6107C33.4923 31.6114 33.6716 31.6445 33.8444 31.6854C34.0397 31.7316 34.1402 31.872 34.1588 32.0773C34.1799 32.3126 34.1121 32.5062 33.8976 32.6121C33.5685 32.7746 33.2131 32.7012 32.8674 32.7038C32.7701 32.7044 32.7534 32.6245 32.7528 32.5439C32.7528 32.4152 32.7534 32.2859 32.7534 32.0975Z" fill="white"/>
<path d="M23.1503 33.8956C23.1766 34.1419 23.0453 34.2557 22.8737 34.3395C22.6631 34.4422 22.4428 34.5494 22.2258 34.3817C22.0542 34.2492 22.0804 34.0711 22.2322 33.9444C22.4684 33.7475 22.7854 33.7806 23.0626 33.7007C23.1971 33.661 23.1151 33.8475 23.1503 33.8956Z" fill="white"/>
<path d="M37.4231 33.8638C37.4282 34.1075 37.313 34.2381 37.1241 34.3317C36.8987 34.4435 36.6766 34.5449 36.4384 34.3837C36.2585 34.2615 36.2982 33.9749 36.521 33.895C36.7668 33.8073 37.0261 33.7559 37.2822 33.7007C37.4359 33.6669 37.4161 33.7936 37.4231 33.8638Z" fill="white"/>
<path d="M42.1202 33.1011C42.0351 33.1011 41.9487 33.1108 41.8654 33.0985C41.7579 33.0829 41.5844 33.168 41.5555 33.0348C41.5235 32.8853 41.6586 32.7333 41.7924 32.6865C42.0236 32.6059 42.2707 32.5994 42.4897 32.758C42.5851 32.8269 42.6414 32.9334 42.6171 33.0361C42.587 33.1615 42.4583 33.0855 42.3751 33.0985C42.2912 33.1108 42.2048 33.1011 42.1202 33.1011Z" fill="white"/>
<path d="M18.9727 33.0807C19.1045 32.6635 19.5591 32.4861 19.9068 32.7181C20.0188 32.7928 20.0976 32.9072 20.0649 33.0359C20.0342 33.1567 19.9036 33.0943 19.8191 33.0969C19.5559 33.1047 19.2921 33.0995 19.0284 33.0976C19.0098 33.0982 18.9912 33.0872 18.9727 33.0807Z" fill="white"/>
<path d="M27 33.4655C27.1319 33.0483 27.5865 32.8708 27.9341 33.1028C28.0462 33.1776 28.1249 33.292 28.0923 33.4206C28.0615 33.5415 27.9309 33.4791 27.8464 33.4817C27.5833 33.4895 27.3195 33.4843 27.0557 33.4824C27.0371 33.483 27.0186 33.472 27 33.4655Z" fill="white"/>
</g>
<rect x="0.5" y="0.5" width="59" height="59" rx="29.5" stroke="#E4E4E7"/>
<defs>
<clipPath id="clip0_117_18422">
<rect width="60" height="60" rx="30" fill="white"/>
</clipPath>
</defs>
</svg>
