<svg width="60" height="60" viewBox="0 0 60 60" fill="none" xmlns="http://www.w3.org/2000/svg">
<path fill-rule="evenodd" clip-rule="evenodd" d="M30 59C46.0163 59 59 46.0163 59 30C59 13.9837 46.0163 1 30 1C13.9837 1 1 13.9837 1 30C1 46.0163 13.9837 59 30 59ZM30 60C46.5685 60 60 46.5685 60 30C60 13.4315 46.5685 0 30 0C13.4315 0 0 13.4315 0 30C0 46.5685 13.4315 60 30 60Z" fill="#00CCBC"/>
<path d="M35.6739 15L34.2817 28.2219L31.908 17.0745L24.4219 18.6474L26.7727 29.7948L16 32.0745L17.9172 40.965L36.8836 45L41.22 35.3115L43.2741 15.7979L35.6739 15ZM29.6713 34.1945C29.2833 34.5593 28.7812 34.5137 28.2106 34.3313C27.6628 34.1489 27.4346 33.5106 27.6172 32.69C27.777 32.0973 28.4845 32.0061 28.8725 32.0061C29.0094 32.0061 29.1464 32.0289 29.2833 32.0973C29.5344 32.2112 29.968 32.462 30.0593 32.8267C30.1962 33.3739 30.0593 33.8298 29.6713 34.1945ZM35.1718 34.7872C34.8751 35.2888 34.1447 35.3571 33.3915 34.9924C32.8894 34.7416 32.8894 34.1489 32.9579 33.7614C32.9807 33.5562 33.072 33.3511 33.209 33.1915C33.3915 32.9635 33.6883 32.6672 34.0078 32.6672C34.5784 32.6444 35.0348 32.8951 35.3087 33.3511C35.5826 33.807 35.4457 34.3085 35.1718 34.7872Z" fill="#00CCBC"/>
</svg>
