<svg width="60" height="60" viewBox="0 0 60 60" fill="none" xmlns="http://www.w3.org/2000/svg">
<g clip-path="url(#clip0_117_18223)">
<rect width="60" height="60" rx="30" fill="white"/>
<g clip-path="url(#clip1_117_18223)">
<path d="M34.2562 30.3935C32.8069 30.44 31.8967 30.7036 31.8967 31.6807C31.8967 32.3127 32.3939 32.9911 33.6482 32.9911C35.3269 32.9911 36.2256 32.0645 36.2256 30.5369V30.3702L34.2562 30.3935ZM37.8355 32.4057L37.8891 33.7666H36.3977C36.3594 33.4215 36.3442 33.0803 36.3442 32.743C35.5411 33.7511 34.5774 34.038 33.2466 34.038C31.2772 34.038 30.218 32.9834 30.218 31.7582C30.218 29.9825 31.652 29.3583 34.1568 29.304C34.8375 29.2885 35.6023 29.2885 36.2333 29.2885V29.114C36.2333 27.9315 35.4837 27.4469 34.1835 27.4469C33.2199 27.4469 32.5048 27.854 32.4321 28.5518H30.7495C30.9292 26.811 32.738 26.369 34.3212 26.369C36.2333 26.369 37.8317 27.0553 37.8317 29.0946V32.4135L37.8355 32.4057Z" fill="#F5AF02"/>
<path d="M20.3862 29.5289C20.3212 28.009 19.239 27.443 18.0841 27.443C16.8375 27.443 15.8356 28.0827 15.6635 29.5289H20.3862ZM15.6329 30.6067C15.7208 32.0839 16.7228 32.9563 18.0994 32.9563C19.0554 32.9563 19.9044 32.5685 20.1874 31.7001H21.8432C21.5182 33.4409 19.6902 34.0341 18.1224 34.0341C15.262 34.038 14 32.4406 14 30.2888C14 27.916 15.3078 26.3535 18.1568 26.3535C20.4206 26.3535 22.0765 27.5515 22.0765 30.1764V30.6067H15.6329Z" fill="#E53238"/>
<path d="M26.1838 32.9253C27.6752 32.9253 28.6924 31.8397 28.6924 30.1997C28.6924 28.5596 27.6752 27.4741 26.1838 27.4741C24.7001 27.4741 23.6752 28.5596 23.6752 30.1997C23.6752 31.8397 24.7001 32.9253 26.1838 32.9253ZM22.0729 23.5H23.6714V27.5865C24.4591 26.6366 25.5414 26.3613 26.6045 26.3613C28.3941 26.3613 30.375 27.5865 30.375 30.2229C30.375 32.4329 28.7995 34.0458 26.5739 34.0458C25.4075 34.0458 24.3176 33.6232 23.6408 32.7818C23.6408 33.1191 23.6255 33.4526 23.5872 33.7744H22.0117L22.0653 32.0956V23.5H22.0729Z" fill="#0064D2"/>
<path d="M45.9997 26.625L41.0399 36.5H39.2425L40.6689 33.7589L36.9404 26.625H38.8181L41.5638 32.1964L44.298 26.625H45.9997Z" fill="#86B817"/>
</g>
</g>
<rect x="0.5" y="0.5" width="59" height="59" rx="29.5" stroke="#518DD6"/>
<defs>
<clipPath id="clip0_117_18223">
<rect width="60" height="60" rx="30" fill="white"/>
</clipPath>
<clipPath id="clip1_117_18223">
<rect width="32" height="13" fill="white" transform="translate(14 23.5)"/>
</clipPath>
</defs>
</svg>
