<svg width="60" height="60" viewBox="0 0 60 60" fill="none" xmlns="http://www.w3.org/2000/svg">
<g clip-path="url(#clip0_117_18447)">
<rect width="60" height="60" rx="30" fill="white"/>
<g clip-path="url(#clip1_117_18447)">
<path d="M42.5516 24.5874C43.5289 24.4506 44.5007 24.2482 45.4836 24.1935C46.3045 24.1497 46.9133 24.5108 46.9468 25.4518C46.9747 26.1958 46.6619 26.8031 45.9024 26.7867C43.8919 26.7374 44.4839 27.6894 44.953 28.7781C46.5335 32.4435 45.1038 36.1364 44.8972 39.8073C44.8246 41.0711 43.4731 40.9945 42.4399 41C41.3062 41.0054 39.9435 41.093 39.8263 39.6487C39.6922 37.991 38.6255 38.1059 37.5254 38.0402C32.6108 37.7448 27.6907 37.7667 22.7761 38.0238C21.4861 38.0895 20.2965 37.9636 20.1011 39.8839C19.9615 41.268 18.4145 40.9671 17.3255 40.9945C16.3537 41.0164 15.2033 40.9507 15.153 39.8128C14.9576 35.6221 13.1704 31.3712 15.6333 27.3939C15.2647 26.7702 14.7565 26.9234 14.3321 26.8687C13.4441 26.7538 12.9917 26.2888 13.0588 25.4135C13.1425 24.3248 13.9356 24.281 14.8347 24.1497C15.812 24.002 16.4766 25.0798 17.4483 24.6202C18.0906 24.3631 18.6435 24.5053 19.1461 24.943C19.9559 25.3916 20.2351 24.8609 20.5925 24.2755C22.5304 21.0751 25.2837 20.9766 27.5622 24.0075C27.7242 24.2208 27.9029 24.4232 28.1095 24.5983C30.3546 25.3259 32.6611 24.8664 34.9285 24.9102C36.8552 24.9485 38.7763 25.0305 40.6863 25.2275C41.3174 25.0524 41.8703 24.6311 42.5516 24.5874Z" fill="#007CE4"/>
<path d="M42.5513 24.5876C42.339 25.1128 41.9705 25.4794 41.4399 25.6928C39.932 25.1074 39.6081 23.4442 38.4465 22.547C33.141 20.0578 27.7183 20.665 22.2899 21.978C21.4634 22.175 20.944 22.837 20.6089 23.6521C20.2627 24.5001 19.7489 25.266 18.6766 25.3809C18.6096 24.5931 17.677 25.1621 17.448 24.6259C18.8609 20.9714 21.3796 18.7721 25.5458 18.7666C28.5169 18.7612 31.488 18.7557 34.459 18.7612C38.5973 18.7612 41.1774 20.8784 42.5513 24.5876Z" fill="#0671E1"/>
<path d="M18.6714 25.3752C20.5702 21.1681 24.1388 20.1451 28.4446 20.3037C30.9522 20.3913 33.4541 20.3092 35.9449 20.6812C37.2685 20.8782 38.4915 21.19 39.1729 22.4647C39.3404 23.0392 38.9327 23.1267 38.5139 23.2088C36.4587 23.2307 34.0796 22.4046 33.0744 25.2002C31.0415 25.5011 29.0143 25.6105 26.9982 25.1455C26.853 23.5699 26.4956 22.4046 24.3566 22.596C22.7315 22.7438 21.285 22.3608 21.1678 24.7899C21.1007 26.0482 19.9279 26.8633 18.6714 25.3752Z" fill="#F5F9FD"/>
<path d="M23.5017 31.5026C28.0923 33.9645 32.1357 33.773 36.408 31.612C32.6104 37.1813 27.3663 37.1977 23.5017 31.5026Z" fill="#FBFCFE"/>
<path d="M26.9978 25.1397C29.0251 24.8115 31.2143 25.8509 33.1242 24.4668C34.6544 22.6942 37.0503 24.0237 38.776 22.9459C38.91 22.7818 39.044 22.6176 39.1781 22.459C40.2894 23.296 40.6133 24.6583 41.4399 25.6868C36.6203 25.6376 31.7839 25.9986 26.9978 25.1397Z" fill="#EFF7FD"/>
<path d="M42.5184 32.1809C42.3397 33.4283 41.6137 34.2489 40.385 34.2325C39.1564 34.2161 38.3187 33.379 38.341 32.1426C38.3689 30.9226 39.1787 30.102 40.4409 30.1184C41.7086 30.1348 42.362 30.9828 42.5184 32.1809Z" fill="#EAF4FC"/>
<path d="M21.7148 32.1645C21.5305 33.4064 20.7989 34.2434 19.5479 34.227C18.4422 34.2161 17.6212 33.4283 17.5598 32.3177C17.4983 31.0813 18.2802 30.1895 19.5312 30.1293C20.8268 30.0637 21.4858 30.9664 21.7148 32.1645Z" fill="#E9F3FC"/>
<path d="M38.7368 23.6501C38.5602 24.8103 39.0514 27.722 38.0801 26.7666C36.3032 25.015 34.7801 26.7439 33.1521 26.8121C33.7371 21.7166 35.4478 20.7498 38.7368 23.6501Z" fill="#007CE4"/>
</g>
</g>
<rect x="0.5" y="0.5" width="59" height="59" rx="29.5" stroke="#E4E4E7"/>
<defs>
<clipPath id="clip0_117_18447">
<rect width="60" height="60" rx="30" fill="white"/>
</clipPath>
<clipPath id="clip1_117_18447">
<rect width="33.9048" height="22.25" fill="white" transform="translate(13.0476 18.75)"/>
</clipPath>
</defs>
</svg>
