<svg width="60" height="60" viewBox="0 0 60 60" fill="none" xmlns="http://www.w3.org/2000/svg">
<g clip-path="url(#clip0_117_18459)">
<rect width="60" height="60" rx="30" fill="#00345E"/>
<g clip-path="url(#clip1_117_18459)">
<path d="M58.2766 20.0886C58.3555 20.1463 58.3562 20.2417 58.3839 20.3222C58.9682 22.028 59.3923 23.7727 59.6641 25.5557C59.9392 27.3601 60.0419 29.1741 59.9841 30.9963C59.9167 33.1275 59.6182 35.2277 59.0967 37.2955C58.3767 40.1485 57.2706 42.8428 55.7642 45.3717C54.0006 48.3323 51.7901 50.9121 49.1311 53.1053C45.7966 55.856 42.0405 57.7981 37.8721 58.943C36.2327 59.3932 34.5658 59.6952 32.8728 59.8599C31.2974 60.0134 29.72 60.0408 28.1417 59.9421C25.4136 59.7715 22.7573 59.2351 20.1759 58.3351C15.5511 56.7221 11.5386 54.1536 8.18209 50.5863C4.52136 46.6959 2.08363 42.1368 0.816053 36.9509C0.742073 36.6476 0.681303 36.341 0.614258 36.036C0.645634 35.9739 0.706734 35.9627 0.765522 35.9492C1.9938 35.6686 3.21877 35.3742 4.4454 35.0861C5.62315 34.8092 6.80089 34.5313 7.97897 34.2547C9.15176 33.9791 10.3252 33.7048 11.498 33.4282C12.285 33.2427 13.0717 33.0559 13.8588 32.8694C14.8169 32.6427 15.7763 32.4212 16.7345 32.1951C17.65 31.9792 18.5655 31.7631 19.4813 31.5472C20.445 31.3201 21.4104 31.098 22.3735 30.8689C23.2725 30.6551 24.1731 30.4478 25.0718 30.2319C25.5639 30.1138 26.0597 30.0108 26.5478 29.8778C27.2698 29.6814 27.9868 29.4675 28.7068 29.2645C29.6121 29.0091 30.5153 28.747 31.42 28.4885C32.7156 28.1182 34.0129 27.7525 35.3069 27.3769C35.5391 27.3096 35.77 27.2347 36.0064 27.1825C36.1871 27.1426 36.2261 27.1634 36.2657 27.3353C36.4843 28.2836 36.7145 29.2289 36.9236 30.1791C36.9342 30.2276 36.948 30.2752 36.9599 30.323C37.0171 30.5527 37.0501 30.7785 37.0253 31.0221C36.9384 31.8799 36.8645 32.7394 36.7964 33.5988C36.7274 34.4692 36.6488 35.3389 36.5781 36.2093C36.5253 36.8602 36.4639 37.5114 36.4037 38.1622C36.3483 38.7636 36.3017 39.3663 36.2525 39.9683C36.2198 40.3677 36.1772 40.7671 36.1475 41.1668C36.1012 41.7856 36.0309 42.4022 35.9879 43.0213C35.9599 43.4263 35.9136 43.831 35.8816 44.236C35.8327 44.8545 35.7716 45.4724 35.7244 46.0909C35.693 46.5015 35.6659 46.9131 35.6118 47.3217C35.5639 47.6834 35.5724 47.6907 35.908 47.5821C36.3215 47.4484 36.735 47.3147 37.1485 47.1807C37.2648 47.1431 37.3308 47.0768 37.3668 46.9593C37.8252 45.4605 38.2965 43.9656 38.7622 42.4692C39.0776 41.4559 39.4 40.4446 39.7114 39.43C40.2392 37.711 40.7818 35.9964 41.3129 34.2784C41.8162 32.6496 42.3275 31.0234 42.8335 29.3952C43.279 27.9614 43.7354 26.5313 44.1724 25.0949C44.2331 24.8952 44.3365 24.7893 44.5423 24.7318C45.8994 24.3536 47.2525 23.9621 48.6076 23.5773C50.2163 23.1205 51.8241 22.66 53.4325 22.2019C54.1515 21.9973 54.8788 21.8177 55.5684 21.5174C56.2861 21.2048 56.9773 20.8427 57.6484 20.4411C57.8136 20.342 57.982 20.2483 58.1402 20.1381C58.1805 20.11 58.2231 20.0833 58.2766 20.0886Z" fill="#00345E"/>
<path d="M0.350383 34.4738C0.264843 34.0926 0.230825 33.7038 0.186568 33.3169C0.0191209 31.8505 -0.0340528 30.3787 0.0207722 28.9037C0.142312 25.6464 0.781717 22.4927 1.92809 19.4403C2.92451 16.7869 4.26608 14.3227 5.96103 12.0509C7.77289 9.62269 9.9071 7.51857 12.3604 5.74022C15.4438 3.50506 18.8323 1.91121 22.5182 0.953051C24.2874 0.49328 26.0851 0.202498 27.9095 0.0747655C29.2346 -0.0179809 30.5603 -0.0268925 31.8847 0.0585926C34.8799 0.251347 37.784 0.877137 40.5913 1.94059C44.9885 3.60606 48.7945 6.15345 51.9929 9.60091C54.1056 11.8786 55.8138 14.43 57.1405 17.2375C57.1613 17.2817 57.1738 17.3296 57.1904 17.3758C57.1322 17.4348 57.0569 17.4187 56.9876 17.4187C55.9958 17.4187 55.0109 17.4985 54.0366 17.687C53.4471 17.8009 52.877 17.9913 52.3007 18.1557C49.7077 18.8954 47.1144 19.6337 44.5228 20.3776C44.142 20.4869 43.7576 20.5833 43.3807 20.7057C43.2027 20.7635 43.067 20.7265 42.9289 20.6047C41.9054 19.703 40.8697 18.8152 39.8369 17.9243C38.6998 16.9437 37.5637 15.9621 36.4272 14.9809C35.2409 13.9564 34.0552 12.9312 32.8692 11.9064C31.6875 10.8852 30.5045 9.86529 29.3224 8.84442C28.2193 7.89187 27.1122 6.94361 26.0164 5.98281C25.876 5.8597 25.7271 5.74517 25.5913 5.61711C25.5051 5.53591 25.4137 5.51611 25.304 5.54482C24.8198 5.67124 24.3337 5.79105 23.8472 5.90954C23.7058 5.94386 23.7286 5.9937 23.7953 6.08117C24.0757 6.44819 24.3489 6.82083 24.626 7.19016C25.1508 7.88956 25.6752 8.58862 26.1987 9.28901C27.4498 10.9631 28.7032 12.6358 29.9575 14.3075C30.8354 15.4776 31.7119 16.6486 32.5885 17.8197C33.0069 18.3788 33.4274 18.9366 33.8382 19.5013C33.9868 19.7056 34.038 19.9522 34.1213 20.1839C34.4258 21.0328 34.722 21.8844 35.0262 22.7336C35.0391 22.7699 35.0536 22.8056 35.0632 22.8429C35.1065 23.0085 35.0823 23.0637 34.9179 23.1155C34.5661 23.2261 34.2098 23.3211 33.8554 23.4224C31.2575 24.1651 28.6599 24.909 26.061 25.647C24.8053 26.0035 23.5876 26.4715 22.3534 26.8897C21.2906 27.2498 20.2317 27.6224 19.1715 27.9911C17.6335 28.5258 16.0937 29.0565 14.557 29.5952C13.3783 30.0081 12.1962 30.4108 11.0168 30.8217C9.79613 31.2471 8.5738 31.6693 7.35312 32.0947C6.4855 32.3971 5.61655 32.6951 4.74926 32.9978C3.591 33.4021 2.4301 33.7988 1.27349 34.2074C1.01918 34.2972 0.76124 34.3754 0.507922 34.4682C0.457391 34.4867 0.403887 34.5131 0.350383 34.4738Z" fill="#00355E"/>
<path d="M0.571289 34.5951C1.18064 34.3852 1.78999 34.1759 2.39934 33.9657C3.32377 33.6465 4.2482 33.328 5.17196 33.0072C6.09111 32.688 7.00893 32.3662 7.92774 32.0461C8.71214 31.7728 9.49719 31.5008 10.2819 31.2285C11.1542 30.9255 12.0264 30.6215 12.899 30.3195C14.195 29.871 15.4919 29.4254 16.7876 28.9762C17.8927 28.593 18.9961 28.2049 20.1009 27.8213C20.9011 27.5434 21.7037 27.2718 22.5036 26.9932C23.4838 26.6519 24.4581 26.2938 25.443 25.9674C26.0606 25.7631 26.6928 25.6033 27.3189 25.4248C27.9762 25.2373 28.6341 25.0515 29.2917 24.865C30.4337 24.5409 31.5761 24.2187 32.7172 23.892C33.5327 23.6586 34.3458 23.4167 35.1616 23.1857C35.2666 23.1559 35.2953 23.1309 35.255 23.0203C35.0397 22.4239 34.8333 21.8245 34.6219 21.2264C34.4564 20.7577 34.2867 20.2907 34.1229 19.8217C34.0614 19.6461 33.9323 19.5164 33.8256 19.3738C32.167 17.1538 30.5051 14.9368 28.8428 12.7195C27.641 11.1167 26.4368 9.51562 25.2356 7.91253C24.8003 7.33163 24.3713 6.74577 23.9356 6.16487C23.8627 6.0675 23.8481 6.03879 23.9928 6.00644C24.4717 5.89917 24.9479 5.77738 25.4215 5.64833C25.6042 5.59849 25.7363 5.61169 25.8918 5.74768C27.2331 6.91938 28.5852 8.07888 29.933 9.243C31.1075 10.2576 32.2799 11.2742 33.4544 12.2884C34.9472 13.5777 36.4417 14.8652 37.9342 16.1547C39.1132 17.1736 40.2903 18.1945 41.4681 19.2144C42.047 19.7158 42.6277 20.2151 43.2043 20.7191C43.3136 20.8145 43.4164 20.8413 43.56 20.7987C44.278 20.5851 44.999 20.3808 45.7193 20.1752C46.5401 19.9409 47.3618 19.7095 48.1822 19.4745C48.992 19.2424 49.8005 19.0058 50.6106 18.7744C51.4941 18.5219 52.3809 18.2807 53.2617 18.0196C53.804 17.8588 54.3526 17.7334 54.9114 17.6522C55.3028 17.5955 55.6968 17.5605 56.0915 17.5341C56.5307 17.5047 56.9703 17.4935 57.4106 17.4971C57.6256 17.8932 57.7878 18.3133 57.9582 18.7289C58.1352 19.1603 58.2944 19.5989 58.4642 20.0333C58.4869 20.0914 58.4969 20.1488 58.4972 20.2092C58.1296 20.4845 57.7263 20.7013 57.3287 20.9274C56.6047 21.3393 55.8567 21.7024 55.0637 21.9605C54.5131 22.1397 53.9523 22.2866 53.3955 22.446C52.9014 22.5873 52.406 22.7242 51.9119 22.8658C51.3336 23.0315 50.7563 23.2012 50.178 23.3669C49.5947 23.5342 49.0105 23.6986 48.4269 23.8643C47.4536 24.1405 46.4803 24.4168 45.5073 24.6937C45.2074 24.7792 44.9088 24.8699 44.608 24.9515C44.5462 24.9683 44.5109 24.996 44.4934 25.0525C44.2727 25.7614 44.0528 26.4707 43.8322 27.1797C43.5808 27.9873 43.3275 28.7947 43.0768 29.6023C42.7968 30.505 42.5203 31.4087 42.2393 32.3114C41.9681 33.1828 41.6917 34.0522 41.4205 34.9235C41.1619 35.7533 40.9089 36.5847 40.65 37.4145C40.3326 38.4317 40.0103 39.4473 39.6925 40.4645C39.4614 41.2049 39.2355 41.9472 39.0053 42.6878C38.7992 43.3506 38.5901 44.012 38.383 44.6744C38.1287 45.488 37.8728 46.3013 37.6247 47.1169C37.5871 47.241 37.5299 47.3024 37.4021 47.341C36.9054 47.4915 36.411 47.6509 35.9218 47.8239C35.7676 47.8783 35.7584 47.8301 35.7699 47.7037C35.8072 47.2938 35.8409 46.8835 35.8746 46.4736C35.9298 45.8062 35.9813 45.1385 36.0397 44.4715C36.0979 43.8047 36.1653 43.139 36.223 42.4726C36.2749 41.8765 36.3172 41.2795 36.368 40.6834C36.4245 40.0216 36.4879 39.3605 36.5454 38.6987C36.5986 38.0865 36.6455 37.4736 36.6986 36.8613C36.7564 36.1946 36.8195 35.5285 36.8773 34.8618C36.9295 34.2601 36.9761 33.6581 37.0276 33.0564C37.0847 32.3893 37.1349 31.7213 37.2102 31.0559C37.2343 30.8437 37.1831 30.6536 37.1386 30.4588C36.9074 29.4518 36.665 28.4474 36.4384 27.4394C36.4097 27.3114 36.3614 27.3078 36.266 27.3352C35.8508 27.4543 35.4357 27.5735 35.0202 27.6926C34.216 27.9233 33.4124 28.1553 32.6079 28.3851C31.877 28.5937 31.1458 28.8003 30.4146 29.0076C29.5783 29.2449 28.7414 29.4802 27.9058 29.7195C27.4065 29.8627 26.9114 30.0212 26.4051 30.1397C25.6917 30.3067 24.978 30.471 24.2649 30.639C23.6899 30.7747 23.1166 30.916 22.5416 31.0513C21.7212 31.2444 20.9001 31.4332 20.0797 31.6259C19.3875 31.7883 18.6962 31.954 18.0043 32.1167C17.2004 32.3055 16.3956 32.4917 15.5917 32.6811C14.8998 32.8442 14.2088 33.0112 13.5166 33.1736C12.606 33.3874 11.6942 33.5964 10.7839 33.8112C9.99062 33.9984 9.19929 34.1924 8.40598 34.3793C7.69788 34.5456 6.98779 34.703 6.28002 34.8697C5.58282 35.0338 4.8876 35.2067 4.1904 35.3708C3.30131 35.5797 2.41057 35.783 1.52082 35.9896C1.29161 36.0428 1.06339 36.1008 0.834845 36.1566C0.751947 35.718 0.667398 35.2797 0.587472 34.8407C0.573601 34.7601 0.576243 34.677 0.571289 34.5951Z" fill="#FEC50B"/>
</g>
</g>
<rect x="0.5" y="0.5" width="59" height="59" rx="29.5" stroke="#E4E4E7"/>
<defs>
<clipPath id="clip0_117_18459">
<rect width="60" height="60" rx="30" fill="white"/>
</clipPath>
<clipPath id="clip1_117_18459">
<rect width="60" height="60" fill="white"/>
</clipPath>
</defs>
</svg>
