<svg width="40" height="40" viewBox="0 0 40 40" fill="none" xmlns="http://www.w3.org/2000/svg">
<path fill-rule="evenodd" clip-rule="evenodd" d="M20 39.3333C30.6775 39.3333 39.3333 30.6775 39.3333 20C39.3333 9.32249 30.6775 0.666667 20 0.666667C9.32249 0.666667 0.666667 9.32249 0.666667 20C0.666667 30.6775 9.32249 39.3333 20 39.3333ZM20 40C31.0457 40 40 31.0457 40 20C40 8.95431 31.0457 0 20 0C8.95431 0 0 8.95431 0 20C0 31.0457 8.95431 40 20 40Z" fill="#4079D8"/>
<g clip-path="url(#clip0_5317_157557)">
<path d="M26.9704 16.0117H12.2212C11.8708 16.0117 11.5867 16.2958 11.5867 16.6463V27.3546C11.5867 27.7051 11.8708 27.9891 12.2212 27.9891H26.9704C27.3209 27.9891 27.605 27.7051 27.605 27.3546V16.6463C27.605 16.2958 27.3209 16.0117 26.9704 16.0117Z" fill="#4989F5"/>
<path d="M26.7849 15.9219H12.3882C11.9422 15.9219 11.5952 19.3733 11.5952 19.8193L19.4793 27.9893H26.7849C27.2322 27.9881 27.5946 27.6257 27.5958 27.1784V16.7326C27.5945 16.2853 27.2322 15.9231 26.7849 15.9219Z" fill="url(#paint0_linear_5317_157557)"/>
<path d="M15.2441 18.018H19.8208V12.0112H15.9294L15.2441 18.018Z" fill="#3C4BA6"/>
<path d="M24.397 18.018H19.8203V12.0112H23.7117L24.397 18.018ZM27.6044 13.1499L27.6101 13.1704C27.6087 13.1631 27.606 13.1564 27.6044 13.1499Z" fill="#7BABF7"/>
<path d="M27.6101 13.1699L27.6044 13.1494C27.4593 12.485 26.8712 12.0112 26.1912 12.0107H23.7117L24.3964 18.0177H28.9731L27.6101 13.1699Z" fill="#3F51B5"/>
<path d="M12.0364 13.1494L12.0308 13.1699C12.0321 13.1627 12.0349 13.156 12.0364 13.1494Z" fill="#7BABF7"/>
<path d="M12.0306 13.1699L12.0363 13.1494C12.1814 12.485 12.7695 12.0112 13.4496 12.0107H15.9292L15.2434 18.0177H10.6667L12.0306 13.1699Z" fill="#7BABF7"/>
<path fill-rule="evenodd" clip-rule="evenodd" d="M15.2518 18.0161C15.2518 19.2792 14.2279 20.3032 12.9648 20.3032C11.7017 20.3032 10.6777 19.2792 10.6777 18.0161H15.2518Z" fill="#709BE0"/>
<path fill-rule="evenodd" clip-rule="evenodd" d="M19.8255 18.0161C19.8255 19.2792 18.8016 20.3032 17.5385 20.3032C16.2754 20.3032 15.2515 19.2792 15.2515 18.0161H19.8255Z" fill="#3C4BA6"/>
<path fill-rule="evenodd" clip-rule="evenodd" d="M24.3998 18.0161C24.3998 19.2792 23.3758 20.3032 22.1127 20.3032C20.8496 20.3032 19.8257 19.2792 19.8257 18.0161H24.3998Z" fill="#709BE0"/>
<path fill-rule="evenodd" clip-rule="evenodd" d="M28.9735 18.0161C28.9735 19.2792 27.9495 20.3032 26.6865 20.3032C25.4234 20.3032 24.3994 19.2792 24.3994 18.0161H28.9735Z" fill="#3C4BA6"/>
<path d="M26.6865 24.2125C26.6784 24.1036 26.6649 24.0042 26.6459 23.8772H24.1511C24.1511 24.2261 24.1511 24.6069 24.1497 24.956H25.5949C25.5642 25.1187 25.5017 25.2737 25.4109 25.4121C25.3201 25.5506 25.2029 25.6697 25.0659 25.7627C25.0659 25.7627 25.0659 25.7567 25.0648 25.7565C24.8879 25.8727 24.6887 25.9505 24.4799 25.9849C24.2705 26.0232 24.0559 26.0222 23.8469 25.9821C23.6346 25.9382 23.4337 25.8511 23.2565 25.7263C22.995 25.5408 22.7934 25.2831 22.6762 24.9847C22.6673 24.9615 22.659 24.9381 22.6506 24.9143V24.9118L22.6528 24.91C22.5391 24.5763 22.5388 24.2144 22.6519 23.8805C22.7316 23.6462 22.8628 23.4328 23.0358 23.2559C23.4416 22.8361 24.048 22.6782 24.607 22.8468C24.8214 22.9125 25.0172 23.0278 25.1787 23.1833L25.6663 22.6957C25.7524 22.6088 25.8417 22.5247 25.9244 22.4349C25.6772 22.2042 25.387 22.0245 25.0703 21.906C24.4941 21.697 23.8637 21.6915 23.2839 21.8903C23.2637 21.8972 23.2436 21.9044 23.2237 21.9118C22.5981 22.147 22.0835 22.6082 21.7815 23.2043C21.6749 23.4153 21.5972 23.6397 21.5506 23.8715C21.2744 25.244 22.1119 26.595 23.464 26.9582C23.906 27.0766 24.3759 27.0736 24.8214 26.9725C25.2261 26.8811 25.6003 26.6866 25.9077 26.4079C26.2284 26.1129 26.4583 25.7197 26.5788 25.3022C26.6794 24.9483 26.7159 24.5793 26.6865 24.2125Z" fill="white"/>
</g>
<defs>
<linearGradient id="paint0_linear_5317_157557" x1="11.5952" y1="5619.25" x2="17036" y2="5619.25" gradientUnits="userSpaceOnUse">
<stop offset="0.03" stop-color="#4079D8"/>
<stop offset="1" stop-color="#4989F5"/>
</linearGradient>
<clipPath id="clip0_5317_157557">
<rect width="18.3066" height="16" fill="white" transform="translate(10.6667 12)"/>
</clipPath>
</defs>
</svg>
