<svg width="60" height="60" viewBox="0 0 60 60" fill="none" xmlns="http://www.w3.org/2000/svg">
<g clip-path="url(#clip0_117_18465)">
<rect width="60" height="60" rx="30" fill="#2195F2"/>
<rect width="60" height="60" rx="30" fill="#2195F2"/>
<path d="M60.4223 43.0524L39.3827 18.0322H35.9708V23.7186L31.9904 18.6009H20.0489L19.4803 41.3464L41.6572 66.3666L58.1478 60.1115L60.4223 43.0524Z" fill="url(#paint0_linear_117_18465)"/>
<path d="M31.8763 18.6558C32.411 19.2013 32.5456 19.8963 32.6091 20.6175C32.725 21.9701 32.654 23.3228 32.6764 24.6754C32.6802 24.8697 32.6914 25.0603 32.6989 25.2546C32.6615 26.8352 32.6615 28.4158 32.6989 29.9964C32.6989 30.0562 32.6989 30.1159 32.6989 30.1757C32.6951 30.2243 32.6877 30.2766 32.6839 30.3252C32.6204 30.4149 32.5269 30.4634 32.4185 30.4634C31.5174 30.4672 30.6164 30.527 29.7153 30.4298C29.6592 30.4037 29.6181 30.3663 29.5882 30.3177C29.4947 30.1047 29.5284 29.8805 29.5246 29.6563C29.5097 27.9898 29.5508 26.3233 29.5022 24.6605C29.4536 24.5222 29.4349 24.3765 29.3901 24.2383C29.3265 23.6852 29.0461 23.3004 28.5227 23.0986C28.3768 23.0201 28.2198 23.05 28.0665 23.0463C27.9394 23.05 27.8123 23.05 27.6889 23.05C26.3916 23.05 25.0942 23.05 23.7968 23.05C23.737 23.05 23.6772 23.05 23.6174 23.05C22.6303 23.0463 22.1892 23.461 22.1705 24.455C22.1518 25.632 22.163 26.809 22.1667 27.9898C22.1667 29.462 22.1667 30.9343 22.1667 32.4065C22.163 34.4579 22.1667 36.5055 22.1667 38.5569C22.1667 38.6354 22.1667 38.7139 22.163 38.7886C22.163 38.9493 22.1443 39.1137 22.2041 39.2706C22.3275 39.719 22.6528 39.8946 23.0902 39.9245C23.4417 40.0217 23.8043 39.9694 24.1595 39.9731C25.741 39.9881 27.3225 39.9806 28.9003 39.9768C29.1396 39.9768 29.3863 39.9955 29.5396 39.7526C29.6406 39.5733 29.6106 39.3753 29.6106 39.1847C29.6144 37.8208 29.6106 36.457 29.6106 35.0931C29.6106 34.9661 29.6181 34.839 29.6069 34.7157C29.5994 34.641 29.5695 34.5775 29.5022 34.5363C28.5825 34.4579 27.6627 34.5214 26.7467 34.5027C26.5822 34.499 26.4215 34.5065 26.257 34.4915C26.0139 34.4728 25.8681 34.3458 25.8644 34.0992C25.8569 33.6433 25.8008 33.1837 25.9093 32.7278C25.9354 32.6755 25.9766 32.6344 26.0326 32.6083C26.1747 32.5485 26.3243 32.5559 26.4738 32.5559C28.3357 32.5522 30.2014 32.5522 32.0633 32.5559C32.2801 32.5559 32.5194 32.5148 32.669 32.7465C32.7475 32.9296 32.7288 33.1276 32.7288 33.3182C32.7288 35.9189 32.7325 38.5233 32.7288 41.124C32.7288 41.2996 32.6951 41.4715 32.6091 41.6247C32.5867 41.7256 32.5306 41.7928 32.4259 41.8153C31.1024 41.8078 29.7789 41.7966 28.4554 41.7966C26.1635 41.7928 23.8716 41.7966 21.5798 41.7928C21.2545 41.7928 20.9255 41.7629 20.6039 41.7218C20.0095 41.6471 19.5309 41.3818 19.258 40.8213C19.0561 40.6158 19.015 40.3542 19 40.0815C19 33.6059 19 27.1341 19 20.6623C19.0598 20.2663 18.9888 19.8403 19.2655 19.4965C19.4711 19.0967 19.6842 18.7081 20.0693 18.4465C20.1515 18.3008 20.2861 18.2821 20.4319 18.2746C20.5366 18.2746 20.6413 18.2597 20.7273 18.1924C21.0713 18.0318 21.4414 18.0056 21.8078 18.0056C24.4698 17.9981 27.1281 17.9981 29.7901 18.0056C30.3098 18.0056 30.822 18.1028 31.3193 18.2634C31.5324 18.3606 31.7268 18.4764 31.8763 18.6558Z" fill="#FEFEFE"/>
<path d="M35.7049 24.2718C35.7124 22.3587 35.7161 20.4455 35.7274 18.5324C35.7274 18.3643 35.6227 18.1251 35.918 18.0691C35.9517 18.0466 35.9816 18.0466 36.0152 18.0691C37.0284 18.0765 38.0417 18.0877 39.0549 18.0952C39.1371 18.3082 39.1409 18.5287 39.1409 18.7529C39.1409 24.4624 39.1409 30.1682 39.1409 35.8777C39.1409 36.158 39.1446 36.4382 39.0324 36.7035L38.995 36.6998L38.9614 36.7147C38.8717 36.7147 38.7819 36.7147 38.6922 36.7147C38.2136 36.8903 37.7201 36.7895 37.2341 36.7895C36.8266 36.7895 36.4003 36.9165 36.004 36.7147C35.9218 36.711 35.8395 36.7072 35.7573 36.6998C35.604 36.5765 35.6488 36.4008 35.6488 36.2402C35.6189 32.4699 35.5965 28.696 35.6114 24.922C35.6152 24.7053 35.5741 24.4773 35.7049 24.2718Z" fill="#FEFEFE"/>
<path d="M35.7498 41.8078C35.7423 40.7504 35.7349 39.6929 35.7199 38.6354C35.7162 38.4374 35.8096 38.3813 35.9928 38.3813C36.9313 38.3851 37.8697 38.3851 38.8119 38.3813C38.9652 38.3813 39.0736 38.4112 39.0698 38.5981C39.0661 39.6256 39.0661 40.6532 39.0586 41.6808C39.0586 41.7256 38.9951 41.7705 38.9614 41.819C38.9315 41.819 38.9016 41.819 38.8679 41.819C37.8547 41.905 36.8415 41.976 35.8283 41.819L35.7909 41.8041L35.7498 41.8078Z" fill="#FDFEFE"/>
</g>
<rect x="0.5" y="0.5" width="59" height="59" rx="29.5" stroke="#E4E4E7"/>
<defs>
<linearGradient id="paint0_linear_117_18465" x1="20.6176" y1="18.6009" x2="58.1478" y2="56.6997" gradientUnits="userSpaceOnUse">
<stop stop-color="#2195F2"/>
<stop offset="0.0001" stop-color="#0F73C2"/>
<stop offset="1" stop-color="#2195F2"/>
</linearGradient>
<clipPath id="clip0_117_18465">
<rect width="60" height="60" rx="30" fill="white"/>
</clipPath>
</defs>
</svg>
