<svg width="60" height="60" viewBox="0 0 60 60" fill="none" xmlns="http://www.w3.org/2000/svg">
<g clip-path="url(#clip0_117_18482)">
<rect width="60" height="60" rx="30" fill="white"/>
<path d="M29.4743 42.4822L16.4397 29.5104C9.16617 22.2719 19.8178 12.4709 26.7042 19.3198L29.23 21.8982C29.3967 22.1391 29.6197 22.336 29.8799 22.472C30.14 22.608 30.4295 22.6791 30.7233 22.6791C31.0172 22.6791 31.3067 22.608 31.5668 22.472C31.8269 22.336 32.0499 22.1391 32.2167 21.8982L35.1788 18.9897C35.3107 18.8135 35.4778 18.6663 35.6694 18.5572C35.861 18.4481 36.0732 18.3794 36.2926 18.3555C36.5121 18.3315 36.7342 18.3527 36.945 18.4179C37.1559 18.483 37.351 18.5906 37.5182 18.7341C37.6855 18.8775 37.8213 19.0537 37.9171 19.2516C38.013 19.4495 38.0669 19.6649 38.0755 19.8845C38.0841 20.104 38.0471 20.323 37.967 20.5277C37.8868 20.7324 37.7652 20.9186 37.6097 21.0745L30.5591 28.1442C29.2716 29.4255 30.9708 30.9551 32.19 29.7429L34.015 27.9744C34.1512 27.7973 34.3235 27.6508 34.5204 27.5445C34.7174 27.4381 34.9346 27.3743 35.1581 27.3572C35.3815 27.3401 35.606 27.3701 35.817 27.4452C36.028 27.5203 36.2207 27.6388 36.3825 27.793C36.5444 27.9472 36.6717 28.1337 36.7562 28.3402C36.8407 28.5467 36.8806 28.7687 36.8731 28.9916C36.8655 29.2144 36.8109 29.4332 36.7127 29.6336C36.6145 29.8341 36.4749 30.0116 36.303 30.1547L30.8076 35.6619C29.4348 37.0281 30.9697 38.7064 32.3702 37.3115L40.1366 29.7429C41.9968 27.8916 44.0256 30.3267 42.4384 31.9063L31.9649 42.4864C31.6343 42.8153 31.186 43 30.7185 43C30.2511 43 29.8028 42.8153 29.4721 42.4864L29.4743 42.4822ZM42.6699 27.312C42.6699 26.9843 42.7675 26.6639 42.9505 26.3914C43.1335 26.1189 43.3935 25.9065 43.6978 25.7811C44.002 25.6557 44.3368 25.6229 44.6598 25.6868C44.9828 25.7507 45.2795 25.9085 45.5123 26.1403C45.7452 26.372 45.9038 26.6673 45.968 26.9887C46.0323 27.3101 45.9993 27.6433 45.8733 27.9461C45.7472 28.2489 45.5338 28.5077 45.26 28.6898C44.9862 28.8718 44.6643 28.969 44.3349 28.969C43.8933 28.969 43.4698 28.7944 43.1576 28.4837C42.8453 28.1729 42.6699 27.7515 42.6699 27.312ZM37.6235 24.4745C39.3195 22.7867 41.1158 20.9715 42.9174 19.1776C44.7189 17.3836 46.9099 19.5608 45.2011 21.2613C43.4923 22.9619 39.7899 26.5902 39.7899 26.5902C39.626 26.7665 39.4284 26.9085 39.2086 27.0079C38.9888 27.1072 38.7512 27.1619 38.5099 27.1687C38.1929 27.1716 37.8831 27.074 37.6255 26.89C37.3679 26.706 37.1759 26.4452 37.0771 26.1454C36.9784 25.8455 36.9781 25.5222 37.0764 25.2222C37.1746 24.9222 37.3663 24.6611 37.6235 24.4767V24.4745Z" fill="#1B41E9"/>
</g>
<rect x="0.5" y="0.5" width="59" height="59" rx="29.5" stroke="#E4E4E7"/>
<defs>
<clipPath id="clip0_117_18482">
<rect width="60" height="60" rx="30" fill="white"/>
</clipPath>
</defs>
</svg>
