<svg width="100" height="100" viewBox="0 0 100 100" fill="none" xmlns="http://www.w3.org/2000/svg">
<path fill-rule="evenodd" clip-rule="evenodd" d="M74.025 68.1123C73.517 67.8771 72.9674 67.7449 72.408 67.7235C71.8485 67.702 71.2904 67.7917 70.7659 67.9874C70.2414 68.1831 69.7609 68.4808 69.3522 68.8634C68.9435 69.246 68.6148 69.7058 68.385 70.2163C66.5954 74.1813 63.5013 77.4134 59.6183 79.3743C55.7352 81.3352 51.2976 81.9066 47.0444 80.9932C42.7913 80.0799 38.9794 77.7369 36.2438 74.3546C33.5082 70.9723 32.014 66.7549 32.01 62.4048C32.0562 62.1501 32.0797 61.8917 32.08 61.6328V60.5003C32.4076 56.3094 34.1142 52.3451 36.9332 49.2267C39.7522 46.1083 43.5248 44.0116 47.6615 43.264C51.7982 42.5165 56.0659 43.1603 59.798 45.0948C63.5301 47.0293 66.5163 50.1457 68.29 53.9568C68.5259 54.4645 68.8602 54.9204 69.2734 55.298C69.6867 55.6757 70.1707 55.9678 70.6975 56.1572C71.2243 56.3466 71.7835 56.4297 72.3427 56.4017C72.9018 56.3736 73.4498 56.235 73.955 55.9938C74.9766 55.4991 75.7614 54.621 76.1388 53.5505C76.5162 52.48 76.4555 51.3038 75.97 50.2778C73.7443 45.5448 70.2232 41.5393 65.8145 38.7252C61.4059 35.9112 56.2901 34.4039 51.06 34.3778C50.675 34.3778 50.295 34.3878 49.91 34.4038L62.45 16.7928C63.1073 15.867 63.3735 14.7196 63.191 13.599C63.0086 12.4784 62.392 11.4747 61.475 10.8053C61.022 10.4768 60.5083 10.2415 59.9637 10.113C59.4191 9.98452 58.8544 9.96537 58.3024 10.0567C57.7503 10.1481 57.2219 10.3481 56.7477 10.6451C56.2736 10.9422 55.863 11.3304 55.54 11.7873L42.945 29.4808L46 18.4673C46.305 17.375 46.1661 16.2064 45.6136 15.216C45.0611 14.2256 44.1397 13.4936 43.05 13.1793C42.5105 13.0291 41.9467 12.9871 41.3909 13.0555C40.8351 13.1239 40.2983 13.3015 39.8113 13.5781C39.3244 13.8546 38.8969 14.2247 38.5535 14.667C38.21 15.1093 37.9573 15.6151 37.81 16.1553L32.08 36.8123V24.7623C32.08 23.6345 31.632 22.5529 30.8345 21.7554C30.037 20.9579 28.9553 20.5098 27.8275 20.5098C26.6997 20.5098 25.6181 20.9579 24.8206 21.7554C24.0231 22.5529 23.575 23.6345 23.575 24.7623V60.0928C23.525 60.7838 23.5 61.4817 23.5 62.1863C23.5 77.5208 35.865 89.9958 51.06 89.9958C56.3472 89.9751 61.5175 88.4383 65.9575 85.5677C70.3976 82.6971 73.9211 78.6131 76.11 73.8003C76.5805 72.7686 76.6255 71.593 76.2352 70.5283C75.845 69.4636 75.0509 68.5956 74.025 68.1123Z" fill="#196CFA"/>
<path d="M47.46 37.6583L49.8718 34.4219C53.2499 34.2499 57.7499 34.7499 62.3709 36.8648C51.8514 33.5478 47.46 37.6583 47.46 37.6583Z" fill="black" fill-opacity="0.05"/>
<path d="M37.25 18.25L32.0098 51.3006L32 37L37.25 18.25Z" fill="black" fill-opacity="0.05"/>
<path d="M39.3496 40.131L42.8625 29.4999L55.2495 12.1846L39.3496 40.131Z" fill="black" fill-opacity="0.05"/>
<path fill-rule="evenodd" clip-rule="evenodd" d="M41.24 53.1278C41.6412 52.9609 42.0787 52.9006 42.51 52.9528L47.545 53.6028C47.9095 53.6518 48.2802 53.6229 48.6327 53.5182C48.9852 53.4135 49.3115 53.2353 49.5901 52.9953L53.3251 49.7023C53.6688 49.4096 54.0819 49.2099 54.5248 49.1224C54.9678 49.0348 55.4257 49.0624 55.855 49.2023C56.2809 49.3462 56.662 49.5984 56.961 49.9342C57.2599 50.2699 57.4663 50.6777 57.56 51.1173L58.5251 55.9828C58.601 56.3415 58.7527 56.6799 58.97 56.9752C59.1873 57.2705 59.4652 57.5161 59.785 57.6953L64.19 60.2023C64.5666 60.4216 64.8788 60.7361 65.0953 61.1143C65.3118 61.4924 65.425 61.9209 65.4234 62.3566C65.4219 62.7924 65.3058 63.2201 65.0866 63.5967C64.8675 63.9733 64.5531 64.2857 64.175 64.5023L59.7651 66.8578C59.4335 67.0288 59.1446 67.272 58.9196 67.5695C58.6946 67.867 58.5393 68.2113 58.4651 68.5768L57.4501 73.4048C57.3495 73.8522 57.1281 74.2635 56.81 74.5938C56.3393 75.0902 55.6914 75.3803 55.0076 75.4008C54.3238 75.4213 53.6596 75.1706 53.16 74.7033L49.4651 71.3148C49.1959 71.0649 48.8764 70.8752 48.5281 70.7586C48.1797 70.6421 47.8105 70.6012 47.445 70.6388L42.435 71.1163C42.0987 71.1531 41.7585 71.1233 41.4337 71.0285C41.1089 70.9338 40.806 70.7759 40.5423 70.564C40.2785 70.3522 40.0591 70.0904 39.8966 69.7937C39.7341 69.497 39.6316 69.1712 39.595 68.8348C39.5455 68.3801 39.6198 67.9203 39.81 67.5043L41.9501 63.0543C42.1156 62.7206 42.2029 62.3536 42.2055 61.9811C42.2081 61.6085 42.1259 61.2403 41.9651 60.9043L39.8901 56.3783C39.6385 55.7682 39.6394 55.0832 39.8925 54.4737C40.1456 53.8643 40.6303 53.3802 41.24 53.1278Z" fill="#FAA81A"/>
</svg>
