<svg width="60" height="60" viewBox="0 0 60 60" fill="none" xmlns="http://www.w3.org/2000/svg">
<g clip-path="url(#clip0_117_18526)">
<rect width="60" height="60" rx="30" fill="white"/>
<path fill-rule="evenodd" clip-rule="evenodd" d="M29.6999 22.3061L29.7095 22.5684L28.2682 28.5358L22.18 28.5584L27.0325 32.2908L25.2692 38.0461L29.7185 34.9889V41.4998H21.6096C19.4811 41.4998 17.3105 39.6231 18.2079 35.9025L22.0058 21.9773C22.5977 19.5317 23.8293 18.5 25.8458 18.5C27.9742 18.5 29.6999 20.2042 29.6999 22.3061ZM30.2999 22.3061L30.2905 22.5684L31.7319 28.5358L37.8199 28.5586L32.9672 32.291L34.7309 38.0463L30.2812 34.9891L30.2816 41.5H38.3905C40.5192 41.5 42.6896 39.6233 41.7921 35.9027L37.9945 21.9775C37.4025 19.5319 36.171 18.5003 34.1547 18.5003C32.0259 18.5 30.2999 20.2042 30.2999 22.3061Z" fill="#24387C"/>
<ellipse cx="30.0675" cy="31.3702" rx="1.74523" ry="1.7234" fill="#24387C"/>
</g>
<rect x="0.5" y="0.5" width="59" height="59" rx="29.5" stroke="#E4E4E7"/>
<defs>
<clipPath id="clip0_117_18526">
<rect width="60" height="60" rx="30" fill="white"/>
</clipPath>
</defs>
</svg>
