<svg width="60" height="60" viewBox="0 0 60 60" fill="none" xmlns="http://www.w3.org/2000/svg">
<g clip-path="url(#clip0_117_18477)">
<rect width="60" height="60" rx="30" fill="white"/>
<path d="M12.8689 36.3211L12.3217 37.1917L9 37.9897H13.3103L18.4944 30.0622L26.04 38L18.6865 26.8911L12.8689 36.3211ZM44.2704 36.3004L42.8688 34.4144V28.3523L39.6433 26.3937L39.7873 30.0932L34.0848 22L26.2896 37.8756L26.3568 37.9895L34.0752 24.9119L43.4448 37.9895H51L44.2704 36.3004Z" fill="black"/>
<path d="M32.3398 32.0687L32.3202 34.285L34.993 34.306L35.0225 30.4011C33.9219 30.4223 32.5756 31.0873 32.3398 32.0687ZM35.3369 30.4118L35.3075 34.3062L37.9804 34.3273L38 32.111C37.8428 31.1822 36.5947 30.5278 35.3369 30.4118ZM32.3104 35.7416L32.3005 37.9473L34.9734 37.9789L34.993 34.9499L32.3202 34.9183L32.3104 35.7416ZM35.2879 37.9789L37.9608 38L37.9706 35.8048L37.9804 34.9815L35.3075 34.9499L35.2879 37.9789ZM17.0296 33.6729L17.0198 35.2771L18.9753 35.2982L18.9949 32.4696C18.189 32.4803 17.1966 32.9553 17.0296 33.6729ZM19.2308 32.4803L19.2112 35.2984L21.1667 35.3194L21.1765 33.7152C21.0683 33.0292 20.1544 32.5542 19.2308 32.4803ZM17.0098 36.3326L17 37.9263L18.9556 37.9473L18.9752 35.7521L17.0098 35.731V36.3326ZM19.1914 37.9473L21.1469 37.9684L21.1666 36.3747V35.7732L19.2012 35.7521L19.1914 37.9473ZM25.746 30.3167L19.1324 26.8973L25.9424 36.7653L25.746 30.3167ZM26.139 30.4011L26.2373 36.8603L33.8629 22L26.139 30.4011Z" fill="#29ABE2"/>
</g>
<rect x="0.5" y="0.5" width="59" height="59" rx="29.5" stroke="#E4E4E7"/>
<defs>
<clipPath id="clip0_117_18477">
<rect width="60" height="60" rx="30" fill="white"/>
</clipPath>
</defs>
</svg>
