<svg width="60" height="60" viewBox="0 0 60 60" fill="none" xmlns="http://www.w3.org/2000/svg">
<g clip-path="url(#clip0_117_18506)">
<rect width="60" height="60" rx="30" fill="white"/>
<path d="M34.1209 21.0791C34.1209 20.2302 34.3938 19.4378 34.8389 18.787C33.4748 19.1832 32.4697 20.4141 32.4697 21.8856V24.4748L34.1209 24.5597V21.0791Z" fill="#EE2841"/>
<path d="M32.4697 38.9208C32.4697 40.3923 33.4748 41.6233 34.8389 42.0194C34.3794 41.3686 34.1209 40.5763 34.1209 39.7273V34.8601H32.4697V38.9208Z" fill="#EE2841"/>
<path d="M36.5907 34.8743H34.9394V39.7415C34.9394 41.2129 35.9445 42.4439 37.3086 42.8401C36.8491 42.1892 36.5907 41.3969 36.5907 40.548V34.8743Z" fill="#EE2841"/>
<path d="M36.5907 20.2586C36.5907 19.4096 36.8635 18.6173 37.3086 17.9664C35.9445 18.3626 34.9394 19.5936 34.9394 21.065V24.5881L36.5907 24.673V20.2586Z" fill="#EE2841"/>
<path d="M18.0246 19.2257C16.8185 19.9332 16 21.2207 16 22.6922V38.1144C16 39.6001 16.8185 40.8735 18.0246 41.5809C17.7805 41.015 17.6513 40.3924 17.6513 39.7274V21.0651C17.6513 20.4142 17.7949 19.7917 18.0246 19.2257Z" fill="#EE2841"/>
<path d="M20.121 19.4519C20.121 18.801 20.2502 18.1785 20.4943 17.5984C19.2882 18.3058 18.4697 19.5934 18.4697 21.0649V39.7272C18.4697 41.4675 19.5897 42.939 21.1549 43.5191C20.5087 42.6985 20.1067 41.6656 20.1067 40.5337L20.121 19.4519Z" fill="#EE2841"/>
<path d="M40.7121 17.0185C38.8885 17.0185 37.4238 18.4758 37.4238 20.2586V25.5361L29.1962 25.1258V19.4521C29.1962 17.2166 27.3582 15.3914 25.0751 15.3914C22.8064 15.3914 20.9541 17.2024 20.9541 19.4521V40.548C20.9541 42.7836 22.7921 44.6087 25.0751 44.6087C27.3582 44.6087 29.1962 42.7977 29.1962 40.548V34.0537H37.4238V40.548C37.4238 42.3449 38.9028 43.7881 40.7121 43.7881C42.5356 43.7881 44.0003 42.3308 44.0003 40.548V20.2586C44.0003 18.4758 42.5356 17.0185 40.7121 17.0185Z" fill="#EE2841"/>
</g>
<rect x="0.5" y="0.5" width="59" height="59" rx="29.5" stroke="#E4E4E7"/>
<defs>
<clipPath id="clip0_117_18506">
<rect width="60" height="60" rx="30" fill="white"/>
</clipPath>
</defs>
</svg>
