<svg width="536" height="72" viewBox="0 0 536 72" fill="none" xmlns="http://www.w3.org/2000/svg">
<mask id="mask0_1897_49300" style="mask-type:luminance" maskUnits="userSpaceOnUse" x="241" y="9" width="21" height="14">
<path d="M241.148 13.0344L242.998 22.0044L257.488 19.0144C259.968 18.5044 261.558 16.0744 261.048 13.6044C260.538 11.1244 258.118 9.5344 255.638 10.0444C255.638 10.0444 255.638 10.0444 255.628 10.0444L241.148 13.0344Z" fill="white"/>
</mask>
<g mask="url(#mask0_1897_49300)">
<path d="M152.648 -100.465H281.338V28.2252H152.648V-100.465Z" fill="#D4D4D8"/>
</g>
<mask id="mask1_1897_49300" style="mask-type:luminance" maskUnits="userSpaceOnUse" x="101" y="39" width="82" height="27">
<path d="M127.347 65.8334C126.207 65.8334 125.057 65.7534 123.907 65.5834L101.688 62.3334L102.938 53.7834L125.157 57.0334C131.077 57.9034 136.977 55.1934 140.177 50.1334C145.837 41.2034 156.488 37.1034 166.668 39.9234L166.728 39.9434L182.198 44.4734L179.767 52.7734L164.327 48.2434C157.837 46.4634 151.067 49.0734 147.477 54.7534C143.097 61.6534 135.507 65.8234 127.347 65.8334Z" fill="white"/>
</mask>
<g mask="url(#mask1_1897_49300)">
<path d="M152.648 28.2227H281.338V156.913H152.648V28.2227Z" fill="#D4D4D8"/>
</g>
<mask id="mask2_1897_49300" style="mask-type:luminance" maskUnits="userSpaceOnUse" x="101" y="39" width="82" height="27">
<path d="M127.347 65.8334C126.207 65.8334 125.057 65.7534 123.907 65.5834L101.688 62.3334L102.938 53.7834L125.157 57.0334C131.077 57.9034 136.977 55.1934 140.177 50.1334C145.837 41.2034 156.488 37.1034 166.668 39.9234L166.728 39.9434L182.198 44.4734L179.767 52.7734L164.327 48.2434C157.837 46.4634 151.067 49.0734 147.477 54.7534C143.097 61.6534 135.507 65.8234 127.347 65.8334Z" fill="white"/>
</mask>
<g mask="url(#mask2_1897_49300)">
<path d="M23.957 28.2227H152.647V156.913H23.957V28.2227Z" fill="#D4D4D8"/>
</g>
<mask id="mask3_1897_49300" style="mask-type:luminance" maskUnits="userSpaceOnUse" x="357" y="41" width="78" height="29">
<path d="M409.779 69.7248C401.449 69.7248 393.639 65.2648 389.459 57.9248C386.179 52.1748 379.649 49.3048 373.199 50.7748L358.909 53.8848L357.109 45.5948L371.369 42.4848C381.449 40.1848 391.709 44.6948 396.849 53.7148C399.759 58.8248 405.419 61.7348 411.269 61.1648L433.209 58.9948L434.049 67.4348L412.109 69.6048C411.319 69.6848 410.549 69.7248 409.779 69.7248Z" fill="white"/>
</mask>
<g mask="url(#mask3_1897_49300)">
<path d="M269.969 32.5664H396.319V158.916H269.969V32.5664Z" fill="#BCBEC0"/>
</g>
<path d="M127.349 66.5222C126.169 66.5222 124.979 66.4322 123.809 66.2622L101.589 63.0122C101.409 62.9822 101.249 62.8922 101.139 62.7422C101.029 62.6022 100.979 62.4122 101.009 62.2322L102.259 53.6822C102.319 53.3022 102.659 53.0422 103.039 53.1022L125.259 56.3522C130.909 57.1822 136.549 54.5922 139.599 49.7722C145.419 40.5922 156.379 36.3622 166.859 39.2722C166.859 39.2722 166.919 39.2922 166.929 39.2922L182.399 43.8222C182.569 43.8822 182.719 43.9922 182.809 44.1522C182.899 44.3122 182.919 44.5022 182.869 44.6722L180.439 52.9722C180.329 53.3322 179.949 53.5422 179.589 53.4422L164.149 48.9122C157.969 47.2122 151.509 49.7122 148.069 55.1322C143.539 62.2622 135.789 66.5222 127.349 66.5222ZM102.459 61.7522L123.999 64.9022C125.109 65.0622 126.229 65.1422 127.339 65.1422C135.309 65.1422 142.629 61.1222 146.889 54.3922C150.649 48.4522 157.729 45.7222 164.509 47.5822L179.299 51.9122L181.339 44.9322L166.529 40.5922C156.579 37.8322 146.239 41.8122 140.749 50.4922C137.389 55.7822 131.239 58.6022 125.049 57.7022L103.509 54.5522L102.459 61.7522Z" fill="black"/>
<path d="M409.779 70.3917C401.159 70.3917 393.139 65.7417 388.869 58.2517C385.739 52.7717 379.499 50.0217 373.339 51.4217L359.039 54.5317C358.679 54.6117 358.319 54.3717 358.239 54.0217L356.439 45.7317C356.399 45.5617 356.429 45.3717 356.529 45.2217C356.619 45.0717 356.779 44.9617 356.959 44.9217L371.219 41.8117C381.599 39.4517 392.139 44.0917 397.429 53.3617C400.209 58.2317 405.619 61.0317 411.189 60.4717L433.129 58.3017C433.499 58.2617 433.829 58.5317 433.869 58.9017V58.9117L434.709 67.3517C434.729 67.5317 434.679 67.7117 434.559 67.8417C434.449 67.9817 434.279 68.0617 434.109 68.0817L412.169 70.2517C411.369 70.3517 410.569 70.3917 409.779 70.3917ZM376.559 49.7017C382.059 49.7017 387.219 52.6117 390.039 57.5817C394.069 64.6517 401.639 69.0417 409.769 69.0417C410.509 69.0417 411.259 69.0017 412.009 68.9317L433.279 66.8217L432.579 59.7217L411.309 61.8317C405.199 62.4417 399.279 59.3817 396.239 54.0417C391.239 45.2917 381.299 40.9017 371.499 43.1417L357.899 46.1017L359.419 53.0717L373.059 50.1017C374.219 49.8317 375.399 49.7017 376.559 49.7017Z" fill="black"/>
<path d="M177.169 43.3925L178.889 51.7325C179.389 54.1225 181.729 55.6625 184.119 55.1725L196.779 52.5625L193.269 35.5625L180.609 38.1725C178.219 38.6625 176.679 40.9925 177.169 43.3825V43.3925Z" fill="#196CFA"/>
<path d="M183.22 55.9538C182.23 55.9538 181.27 55.6639 180.42 55.1139C179.28 54.3739 178.49 53.2038 178.23 51.8738L176.51 43.5338C176.23 42.2038 176.5 40.8339 177.25 39.6939C177.99 38.5639 179.16 37.7738 180.48 37.5038L193.14 34.8938C193.51 34.8138 193.88 35.0638 193.95 35.4338L197.46 52.4338C197.49 52.6138 197.46 52.7938 197.36 52.9538C197.26 53.1038 197.11 53.2139 196.93 53.2539L184.27 55.8639C183.91 55.9139 183.56 55.9538 183.22 55.9538ZM192.74 36.3639L180.75 38.8438C179.78 39.0438 178.93 39.6139 178.38 40.4439C177.83 41.2739 177.64 42.2838 177.84 43.2538L179.56 51.5938C179.76 52.5638 180.33 53.4138 181.16 53.9638C181.99 54.5138 183 54.7039 183.97 54.5039L195.96 52.0239L192.74 36.3639Z" fill="black"/>
<path d="M360.848 45.4122L358.777 53.5122C358.187 55.8322 355.817 57.2422 353.497 56.6422L341.188 53.5022L345.408 36.9922L357.717 40.1322C360.047 40.7222 361.448 43.0922 360.848 45.4122Z" fill="#196CFA"/>
<path d="M354.59 57.4521C354.17 57.4521 353.75 57.4021 353.34 57.2921L341.03 54.1521C340.67 54.0621 340.45 53.6921 340.54 53.3321C340.54 53.3321 340.54 53.3321 340.54 53.3221L344.76 36.8121C344.81 36.6321 344.92 36.4921 345.07 36.4021C345.22 36.3121 345.41 36.2921 345.58 36.3321L357.89 39.4721C359.19 39.8021 360.28 40.6221 360.96 41.7721C361.64 42.9221 361.84 44.2821 361.51 45.5721L359.44 53.6721C359.11 54.9621 358.28 56.0721 357.14 56.7421C356.38 57.2121 355.49 57.4521 354.59 57.4521Z" fill="black"/>
<path d="M342.02 53.0147L353.67 55.9947C354.62 56.2347 355.61 56.0947 356.45 55.5947C357.29 55.1047 357.9 54.2947 358.13 53.3447L360.2 45.2447C360.7 43.2847 359.51 41.2847 357.55 40.7847L345.9 37.8047L342.02 53.0147Z" fill="#18181B"/>
<path d="M346.358 46.0217C342.928 59.4517 329.268 67.5417 315.848 64.1117L295.348 58.8717L307.768 10.2617L328.268 15.5017C341.698 18.9317 349.798 32.6017 346.358 46.0217Z" fill="#FAA81A"/>
<path d="M322.099 65.5839C319.959 65.5839 317.799 65.3139 315.679 64.7739L295.179 59.5339C295.009 59.4939 294.859 59.3739 294.769 59.2239C294.679 59.0639 294.659 58.8839 294.699 58.7139L307.119 10.1039C307.209 9.7439 307.579 9.5239 307.939 9.6139L328.439 14.8539C335.109 16.5539 340.709 20.7539 344.219 26.6739C347.729 32.5939 348.719 39.5239 347.019 46.1939C345.319 52.8639 341.119 58.4639 335.199 61.9739C331.169 64.3639 326.669 65.5839 322.099 65.5839ZM296.169 58.3939L316.019 63.4639C322.339 65.0739 328.909 64.1339 334.509 60.8139C340.119 57.4939 344.089 52.1739 345.709 45.8639C347.319 39.5539 346.379 32.9739 343.059 27.3739C339.739 21.7639 334.419 17.7939 328.109 16.1739L308.259 11.1039L296.169 58.3939Z" fill="black"/>
<path d="M301.308 5.60377L287.438 59.8738C286.928 61.8538 288.128 63.8738 290.108 64.3838C292.088 64.8938 294.108 63.6938 294.618 61.7138L308.488 7.44378C308.998 5.46378 307.798 3.44377 305.818 2.93377C303.838 2.42377 301.818 3.62377 301.308 5.60377Z" fill="#3F3F46"/>
<path d="M291.028 65.171C290.668 65.171 290.308 65.121 289.938 65.031C287.598 64.431 286.178 62.041 286.778 59.701L300.648 5.43102C300.938 4.30102 301.658 3.33101 302.658 2.74101C303.658 2.15101 304.858 1.97102 305.978 2.26102C307.108 2.55102 308.068 3.27101 308.668 4.27101C309.268 5.27101 309.428 6.46101 309.148 7.59101L295.278 61.861C294.778 63.811 293.028 65.171 291.028 65.171ZM304.898 3.49101C304.358 3.49101 303.828 3.63102 303.358 3.92102C302.668 4.33102 302.168 5.00102 301.968 5.78102L288.098 60.051C287.688 61.671 288.668 63.331 290.288 63.741C291.908 64.151 293.568 63.171 293.978 61.551L307.848 7.28102C308.048 6.50102 307.928 5.68101 307.518 4.98101C306.958 4.05101 305.968 3.48101 304.898 3.49101Z" fill="black"/>
<path d="M318.558 10.0028L304.688 64.2728C304.178 66.2528 305.378 68.2728 307.358 68.7828C309.338 69.2928 311.358 68.0928 311.868 66.1128L325.738 11.8428C326.248 9.86279 325.048 7.8428 323.068 7.3328C321.088 6.8328 319.068 8.0228 318.558 10.0028Z" fill="#3F3F46"/>
<path d="M308.278 69.5832C307.918 69.5832 307.558 69.5332 307.188 69.4432C304.848 68.8532 303.428 66.4532 304.028 64.1132L317.898 9.84323C318.188 8.71323 318.908 7.74323 319.908 7.15323C320.908 6.55323 322.108 6.38323 323.228 6.67323C324.358 6.96323 325.318 7.68323 325.918 8.68323C326.508 9.69323 326.678 10.8732 326.398 12.0032L312.528 66.2732C312.028 68.2232 310.278 69.5832 308.278 69.5832ZM322.148 7.89323C321.608 7.89323 321.078 8.03323 320.608 8.32323C319.918 8.73323 319.418 9.40323 319.218 10.1832L305.348 64.4532C304.938 66.0732 305.918 67.7232 307.538 68.1432C309.158 68.5532 310.808 67.5732 311.228 65.9532L325.098 11.6832C325.298 10.9032 325.178 10.0832 324.768 9.38323C324.208 8.45323 323.218 7.89323 322.148 7.89323Z" fill="black"/>
<path d="M191.879 44.7006C194.729 58.5206 208.249 67.4106 222.069 64.5506L243.169 60.1906L232.829 10.1406L211.729 14.5006C197.919 17.3606 189.029 30.8806 191.879 44.7006Z" fill="#FAA81A"/>
<path d="M216.898 65.7815C204.718 65.7815 193.768 57.2315 191.208 44.8515C189.788 37.9815 191.128 30.9815 194.988 25.1315C198.838 19.2815 204.738 15.2715 211.608 13.8515L232.708 9.49151C233.078 9.41151 233.448 9.66151 233.518 10.0315L243.858 60.0815C243.888 60.2615 243.858 60.4415 243.758 60.6015C243.658 60.7515 243.508 60.8615 243.328 60.9015L222.228 65.2615C220.428 65.6015 218.648 65.7815 216.898 65.7815ZM232.308 10.9615L211.878 15.1815C205.368 16.5215 199.788 20.3215 196.128 25.8715C192.478 31.4215 191.208 38.0615 192.548 44.5615C195.318 57.9915 208.498 66.6615 221.928 63.8815L242.358 59.6615L232.308 10.9615Z" fill="black"/>
<path d="M239.638 5.71366L251.179 61.5837C251.599 63.6237 250.289 65.6237 248.239 66.0437C246.199 66.4637 244.199 65.1537 243.779 63.1037L232.239 7.23366C231.819 5.19366 233.129 3.19366 235.179 2.77366C237.219 2.35366 239.218 3.66366 239.638 5.71366Z" fill="#3F3F46"/>
<path d="M247.469 66.8128C246.599 66.8128 245.749 66.5528 245.029 66.0728C244.039 65.4228 243.349 64.4028 243.109 63.2428L231.569 7.37276C231.329 6.20276 231.559 5.01277 232.209 4.01277C232.859 3.02277 233.879 2.33276 235.039 2.09276C236.209 1.85276 237.399 2.08276 238.399 2.73276C239.399 3.38276 240.079 4.39277 240.319 5.56277L251.859 61.4328C252.099 62.6028 251.869 63.7928 251.219 64.7928C250.569 65.7928 249.559 66.4728 248.389 66.7128C248.089 66.7828 247.779 66.8128 247.469 66.8128ZM235.949 3.38277C234.909 3.38277 233.939 3.90276 233.369 4.77276C232.919 5.46276 232.759 6.28277 232.919 7.10277L244.459 62.9728C244.629 63.7728 245.099 64.4728 245.789 64.9228C246.479 65.3728 247.299 65.5328 248.119 65.3628C248.919 65.1928 249.619 64.7228 250.069 64.0328C250.519 63.3428 250.679 62.5228 250.519 61.7028L238.979 5.83277C238.669 4.39277 237.379 3.38277 235.949 3.38277Z" fill="black"/>
<path d="M221.877 9.37444L233.417 65.2444C233.837 67.2844 232.527 69.2844 230.477 69.7044C228.437 70.1244 226.437 68.8144 226.017 66.7644L214.477 10.8944C214.057 8.85444 215.367 6.85444 217.417 6.43444C219.457 6.02444 221.457 7.33444 221.877 9.37444Z" fill="#3F3F46"/>
<path d="M229.708 70.4735C228.838 70.4735 227.988 70.2135 227.268 69.7335C226.278 69.0835 225.588 68.0635 225.348 66.9035L213.808 11.0335C213.568 9.86346 213.798 8.67346 214.448 7.67346C215.098 6.68346 216.118 5.99346 217.278 5.75346C219.688 5.25346 222.058 6.81346 222.558 9.22346L234.098 65.0935C234.598 67.5035 233.038 69.8735 230.628 70.3735C230.318 70.4535 230.018 70.4735 229.708 70.4735ZM218.178 7.05346C217.968 7.05346 217.768 7.07346 217.548 7.11346C215.888 7.45346 214.808 9.09346 215.148 10.7635L226.688 66.6335C227.028 68.2935 228.668 69.3735 230.338 69.0335C231.998 68.6935 233.078 67.0535 232.738 65.3835L221.198 9.51347C220.908 8.08347 219.648 7.05346 218.178 7.05346Z" fill="black"/>
<mask id="mask4_1897_49300" style="mask-type:luminance" maskUnits="userSpaceOnUse" x="247" y="42" width="21" height="13">
<path d="M249.67 54.2622L247.82 45.2922L262.31 42.3022C264.79 41.7922 267.21 43.3822 267.72 45.8622C268.23 48.3422 266.64 50.7622 264.16 51.2722L249.67 54.2622Z" fill="white"/>
</mask>
<g mask="url(#mask4_1897_49300)">
<path d="M152.648 28.2227H281.338V156.913H152.648V28.2227Z" fill="#D4D4D8"/>
</g>
<path d="M249.668 54.9534C249.348 54.9534 249.058 54.7234 248.998 54.4034L247.148 45.4334C247.118 45.2534 247.148 45.0734 247.248 44.9134C247.348 44.7634 247.498 44.6534 247.678 44.6134L262.168 41.6234C263.548 41.3434 264.958 41.6134 266.128 42.3834C267.308 43.1534 268.108 44.3434 268.388 45.7234C268.968 48.5634 267.138 51.3534 264.298 51.9534L249.808 54.9434C249.768 54.9434 249.718 54.9534 249.668 54.9534ZM248.628 45.8334L250.208 53.4534L264.028 50.6034C266.128 50.1634 267.488 48.1034 267.058 46.0034C266.848 44.9934 266.248 44.1034 265.388 43.5434C264.528 42.9734 263.478 42.7734 262.468 42.9834L248.628 45.8334Z" fill="black"/>
<path d="M242.998 22.6936C242.868 22.6936 242.738 22.6536 242.618 22.5836C242.468 22.4836 242.358 22.3236 242.318 22.1536L240.468 13.1836C240.388 12.8136 240.638 12.4436 241.008 12.3736L255.498 9.38358C258.348 8.79358 261.128 10.6336 261.728 13.4736C262.008 14.8536 261.738 16.2636 260.968 17.4336C260.208 18.6036 258.998 19.4236 257.628 19.6936L243.138 22.6836C243.098 22.6836 243.048 22.6936 242.998 22.6936ZM241.958 13.5636L243.538 21.1836L257.358 18.3336C259.468 17.8936 260.818 15.8336 260.388 13.7336C259.948 11.6336 257.888 10.2736 255.788 10.7036L241.958 13.5636Z" fill="black"/>
<mask id="mask5_1897_49300" style="mask-type:luminance" maskUnits="userSpaceOnUse" x="357" y="41" width="78" height="29">
<path d="M409.779 69.7248C401.449 69.7248 393.639 65.2648 389.459 57.9248C386.179 52.1748 379.649 49.3048 373.199 50.7748L358.909 53.8848L357.109 45.5948L371.369 42.4848C381.449 40.1848 391.709 44.6948 396.849 53.7148C399.759 58.8248 405.419 61.7348 411.269 61.1648L433.209 58.9948L434.049 67.4348L412.109 69.6048C411.319 69.6848 410.549 69.7248 409.779 69.7248Z" fill="white"/>
</mask>
<g mask="url(#mask5_1897_49300)">
<path d="M396.32 32.5664H522.66V158.916H396.32V32.5664Z" fill="#BCBEC0"/>
</g>
</svg>
