<svg width="60" height="60" viewBox="0 0 60 60" fill="none" xmlns="http://www.w3.org/2000/svg">
<g clip-path="url(#clip0_117_18712)">
<rect width="60" height="60" rx="30" fill="#003A9B"/>
<path fill-rule="evenodd" clip-rule="evenodd" d="M29.5576 39.5575V30.7952C29.8207 30.8196 30.0776 30.8318 30.3281 30.8318C31.5872 30.8318 32.7649 30.5082 33.7672 29.9464V39.5636C33.7672 40.3819 33.573 40.9925 33.1784 41.3955C32.7837 41.7985 32.2763 42 31.6436 42C31.0297 42 30.5348 41.7985 30.1465 41.3833C29.7706 40.9619 29.5576 40.3696 29.5576 39.5575Z" fill="white"/>
<path fill-rule="evenodd" clip-rule="evenodd" d="M29.583 18.5645C32.1889 17.673 35.1707 17.7219 37.3946 19.5537C37.808 19.9262 38.2841 20.3842 38.4657 20.9398C38.6975 21.6237 37.6827 20.8726 37.5324 20.7688C36.8057 20.317 36.0791 19.9384 35.2584 19.6758C30.8734 18.3935 26.7202 20.7078 24.1393 24.3226C23.0807 25.9102 22.3728 27.5833 21.7965 29.4274C21.7401 29.6289 21.6837 29.8915 21.5647 30.0685C21.4519 30.27 21.5208 29.5312 21.5208 29.4946C21.6148 28.7313 21.7777 27.9985 21.9719 27.2597C23.1684 23.3395 25.7994 20.0666 29.583 18.5645Z" fill="white"/>
<path d="M31.5438 28.6458C33.2529 28.6458 34.6383 27.2926 34.6383 25.6233C34.6383 23.954 33.2529 22.6007 31.5438 22.6007C29.8347 22.6007 28.4492 23.954 28.4492 25.6233C28.4492 27.2926 29.8347 28.6458 31.5438 28.6458Z" fill="white"/>
</g>
<rect x="0.5" y="0.5" width="59" height="59" rx="29.5" stroke="#E4E4E7"/>
<defs>
<clipPath id="clip0_117_18712">
<rect width="60" height="60" rx="30" fill="white"/>
</clipPath>
</defs>
</svg>
