<svg width="60" height="60" viewBox="0 0 60 60" fill="none" xmlns="http://www.w3.org/2000/svg">
<g clip-path="url(#clip0_117_18492)">
<rect width="60" height="60" rx="30" fill="#174A5B"/>
<path d="M30 47C39.3888 47 47 39.3888 47 30C47 20.6112 39.3888 13 30 13C20.6112 13 13 20.6112 13 30C13 39.3888 20.6112 47 30 47Z" fill="#174A5B"/>
<path d="M20.54 31.8462L24.6971 34.5124V31.8462H20.54Z" fill="#22C8F3"/>
<path d="M30.7968 32.9955C30.7702 33.1914 30.7403 33.3176 30.7403 33.4404C30.737 34.7686 30.7303 36.0967 30.7436 37.4248C30.7469 37.7203 30.6507 37.7967 30.3684 37.79C29.618 37.7734 29.618 37.7867 29.618 37.033C29.618 33.3641 29.618 29.6984 29.618 26.0295C29.618 25.5846 29.618 25.5846 30.0497 25.5846C30.737 25.5846 30.737 25.5846 30.737 26.2752C30.737 26.4478 30.7303 26.6205 30.7403 26.7898C30.7469 26.8828 30.7835 26.9758 30.81 27.0687C30.8466 27.0887 30.8864 27.1119 30.9229 27.1318C31.0391 26.9857 31.1454 26.8264 31.2749 26.6936C31.919 26.0195 32.6893 25.5912 33.619 25.4285C35.7042 25.06 37.3776 25.7406 38.646 27.4041C39.3333 28.3072 39.5259 29.3598 39.4229 30.4853C39.2768 32.1189 38.4069 33.2811 37.0456 34.0779C35.993 34.6922 34.8309 34.8217 33.6157 34.5959C32.5665 34.4 31.7298 33.8654 30.9827 33.1449C30.9495 33.115 30.913 33.0885 30.7968 32.9955ZM34.4856 33.7127C35.0003 33.7426 35.4684 33.6197 35.9399 33.4404C37.6366 32.7963 38.7622 30.8041 38.1512 28.9713C37.62 27.3742 36.355 26.5342 34.9438 26.3582C33.7585 26.2088 32.696 26.5508 31.8094 27.3742C30.5876 28.5064 30.2887 30.3293 31.0889 31.777C31.826 33.0984 33.0214 33.6496 34.4856 33.7127Z" fill="#F05132"/>
<path d="M26.0017 30.312C26.0017 28.974 26.0084 27.6392 25.9951 26.3011C25.9918 26.0255 26.0847 25.9292 26.357 25.9359C26.9115 25.9491 27.4627 25.9458 28.0172 25.9392C28.2363 25.9359 28.3193 26.0222 28.3193 26.2447C28.316 28.964 28.316 31.6866 28.3193 34.406C28.3193 34.6318 28.2396 34.7081 28.0172 34.7048C27.4461 34.6949 26.8716 34.6949 26.3005 34.7048C26.0515 34.7115 25.9951 34.6019 25.9951 34.3761C26.005 33.0214 26.0017 31.6667 26.0017 30.312Z" fill="white"/>
<path d="M27.1877 22.327C27.9812 22.2406 28.6553 23.0807 28.6287 23.7115C28.5955 24.4818 27.9812 25.1061 27.1844 25.1193C26.3975 25.1293 25.6769 24.4486 25.7068 23.675C25.7367 22.9346 26.351 22.2672 27.1877 22.327Z" fill="white"/>
</g>
<rect x="0.5" y="0.5" width="59" height="59" rx="29.5" stroke="#E4E4E7"/>
<defs>
<clipPath id="clip0_117_18492">
<rect width="60" height="60" rx="30" fill="white"/>
</clipPath>
</defs>
</svg>
