<svg width="60" height="60" viewBox="0 0 60 60" fill="none" xmlns="http://www.w3.org/2000/svg">
<g clip-path="url(#clip0_117_18501)">
<rect width="60" height="60" rx="30" fill="#7C43F4"/>
<path d="M14.4888 23.0253C15.0732 22.9155 15.7047 23.1693 16.054 23.6632C16.4974 24.26 16.4437 25.1792 15.9264 25.7142C15.5502 26.1326 14.9523 26.311 14.4149 26.1738C13.911 26.0572 13.4744 25.6662 13.2997 25.1655C13.1183 24.6853 13.1922 24.116 13.4811 23.6975C13.7162 23.3477 14.0857 23.1076 14.4888 23.0253ZM21.3007 23.0527C21.8381 22.9087 22.436 23.0733 22.819 23.478C23.2019 23.8621 23.3631 24.4589 23.2355 24.994C23.0742 25.6799 22.436 26.2081 21.7441 26.215C21.1193 26.2493 20.508 25.8445 20.2594 25.2615C20.0579 24.8088 20.0781 24.26 20.3199 23.8279C20.5281 23.4437 20.8909 23.1625 21.3007 23.0527ZM37.0338 23.5603C37.9811 23.5741 38.9216 23.5672 39.8688 23.5603C39.8956 24.3766 39.862 25.186 39.8889 25.9954C41.2393 25.9749 42.5895 26.0023 43.9398 25.9817C43.9734 26.8872 43.9331 27.7995 43.9532 28.7049C43.7382 28.7392 43.5165 28.7187 43.3016 28.7187C42.1663 28.7187 41.0243 28.7255 39.8889 28.7187C39.8486 29.5761 39.8889 30.4405 39.8755 31.3047C39.8889 31.9015 39.8083 32.5394 40.0636 33.095C40.2988 33.6712 40.8294 34.0896 41.4206 34.1995C42.005 34.3024 42.6432 34.2406 43.1336 33.8839C43.6443 33.5203 43.9264 32.8892 43.9466 32.265C43.9533 31.8672 43.9398 31.4693 43.9466 31.0783C44.9005 31.0783 45.8477 31.0714 46.7949 31.0783C46.7815 31.7506 46.8352 32.4228 46.7009 33.0882C46.5128 34.172 45.9686 35.2077 45.1222 35.9074C44.2085 36.6825 42.9993 37.0255 41.8237 36.9981C40.6615 36.9912 39.4858 36.6071 38.6125 35.8182C37.7325 35.05 37.2086 33.9182 37.0742 32.752C37.0002 32.2239 37.0338 31.6957 37.0271 31.1675C37.0338 28.6295 37.0137 26.0983 37.0338 23.5603ZM27.8036 25.6319C29.8928 24.6373 32.5934 25.1037 34.1721 26.846C35.4753 28.2591 35.8784 30.3101 35.6971 32.1964C32.9024 32.217 30.1078 32.1964 27.3131 32.2101C27.5013 32.951 27.9581 33.6369 28.6097 34.0348C29.3419 34.4876 30.2758 34.5562 31.0886 34.2749C31.6461 34.076 32.15 33.6781 32.4254 33.1293C33.4398 33.1087 34.4542 33.1293 35.4752 33.1225C35.1931 34.2268 34.5214 35.2215 33.6278 35.9006C32.647 36.6414 31.4109 36.9912 30.2017 36.9981C29.0329 37.0186 27.8639 36.6551 26.91 35.976C25.8957 35.2626 25.1231 34.2131 24.7268 33.0196C24.2498 31.6065 24.3237 30.0151 24.9149 28.6432C25.4792 27.333 26.5204 26.2287 27.8036 25.6319ZM20.2728 27.2713H23.1279C23.1212 28.8902 23.1279 30.509 23.1212 32.1278C23.1078 33.2871 22.7383 34.4601 21.9926 35.3518C21.2872 36.2024 20.2661 36.7443 19.1913 36.9226C17.9014 37.1284 16.5108 36.9363 15.4091 36.1954C14.4821 35.5782 13.817 34.5835 13.5416 33.4929C13.3199 32.7315 13.3602 31.9289 13.3467 31.1401C14.294 31.1127 15.2412 31.147 16.1884 31.1264C16.2556 31.7506 16.1078 32.4228 16.3631 33.0196C16.578 33.6096 17.102 34.076 17.7066 34.1926C18.3516 34.3229 19.0838 34.2269 19.5944 33.781C20.0445 33.3901 20.2662 32.7864 20.2729 32.1965C20.2796 30.557 20.2728 28.9176 20.2728 27.2713Z" fill="white" stroke="white" stroke-width="0.469849"/>
<path d="M28.6972 28.0465C29.463 27.5938 30.4438 27.5595 31.2567 27.9025C32.0494 28.2317 32.6607 28.9726 32.8555 29.8231H27.3604C27.5753 29.0892 28.0456 28.4307 28.6972 28.0465Z" fill="white" stroke="white" stroke-width="0.469849"/>
</g>
<rect x="0.5" y="0.5" width="59" height="59" rx="29.5" stroke="#E4E4E7"/>
<defs>
<clipPath id="clip0_117_18501">
<rect width="60" height="60" rx="30" fill="white"/>
</clipPath>
</defs>
</svg>
