<svg width="60" height="60" viewBox="0 0 60 60" fill="none" xmlns="http://www.w3.org/2000/svg">
<g clip-path="url(#clip0_117_18531)">
<rect width="60" height="60" rx="30" fill="white"/>
<path d="M63.0002 30C63.0002 42.9797 55.5086 54.2076 44.6117 59.5973L41.292 52.871C49.7113 48.7067 55.5009 40.0293 55.5009 30H63.0002Z" fill="#679E55"/>
<path d="M63.0002 29.9999H55.5009C55.5009 22.958 52.6463 16.5845 48.0322 11.9691L53.335 6.66504C59.3074 12.6374 63.0002 20.888 63.0002 29.9999Z" fill="#77C54E"/>
<path d="M48.6373 2.76407L44.4015 8.95493C40.3036 6.14509 35.3433 4.50058 29.9996 4.50058C24.9664 4.50058 20.2731 5.95981 16.3196 8.47704L12.2959 2.14691C17.4109 -1.11272 23.4842 -3 29.9996 -3C36.9162 -3 43.3345 -0.872493 48.6373 2.76407Z" fill="#319FD1"/>
<path d="M14.4084 9.82104C8.64306 14.2831 4.84166 21.1601 4.52349 28.9367L-2.9707 28.6249C-2.55926 18.5611 2.3602 9.66004 9.82117 3.88574L14.4084 9.82104Z" fill="#E7AC35"/>
<path d="M13.7747 49.6739L9.00348 55.461C1.67285 49.4081 -3 40.2503 -3 29.9999C-3 29.5386 -2.99106 29.0812 -2.97061 28.625L4.52358 28.9368C4.50825 29.2894 4.50058 29.6434 4.50058 29.9999C4.50058 37.9196 8.11031 44.9959 13.7747 49.6739Z" fill="#F58259"/>
<path d="M44.6109 59.5976C40.2064 61.7762 35.246 63.0003 29.9994 63.0003C22.0235 63.0003 14.7082 60.17 9.00293 55.4614L13.7742 49.6743C18.1825 53.3134 23.8367 55.501 29.9994 55.501C34.0538 55.501 37.8872 54.5542 41.2912 52.8713L44.6109 59.5976Z" fill="#A2689E"/>
<path d="M48.0325 11.969L44.4023 8.95471C45.7044 9.8466 46.9196 10.8561 48.0325 11.969Z" fill="#319FD1"/>
<path d="M53.3353 6.66474L48.0325 11.9688C46.9196 10.8559 45.7044 9.84642 44.4023 8.95452L48.6382 2.76367L53.3353 6.66474Z" fill="#77C54E"/>
<path d="M53.3348 6.66498L48.6377 2.76392C50.3231 3.91775 51.8948 5.22492 53.3348 6.66498Z" fill="#319FD1"/>
<path d="M12.2962 2.14685L9.82117 3.88591C10.6185 3.27002 11.444 2.68863 12.2962 2.14685Z" fill="#319FD1"/>
<path d="M16.32 8.47698C15.6619 8.8961 15.023 9.3446 14.4084 9.82121L9.82117 3.88591L12.2962 2.14685L16.32 8.47698Z" fill="#319FD1"/>
<path d="M16.32 8.47729L14.4084 9.82152C15.0231 9.34491 15.662 8.89641 16.32 8.47729Z" fill="#319FD1"/>
<path d="M19.7861 21.7855C19.7861 20.681 20.6816 19.7855 21.7861 19.7855H41.0004V38.9998C41.0004 40.1044 40.105 40.9998 39.0004 40.9998H19.7861V21.7855Z" fill="#80CA56"/>
</g>
<rect x="0.5" y="0.5" width="59" height="59" rx="29.5" stroke="#E4E4E7"/>
<defs>
<clipPath id="clip0_117_18531">
<rect width="60" height="60" rx="30" fill="white"/>
</clipPath>
</defs>
</svg>
