<svg width="60" height="60" viewBox="0 0 60 60" fill="none" xmlns="http://www.w3.org/2000/svg">
<g clip-path="url(#clip0_117_18485)">
<rect width="60" height="60" rx="30" fill="#0073C8"/>
<circle cx="30" cy="30" r="19" fill="#0073C8"/>
<path fill-rule="evenodd" clip-rule="evenodd" d="M21.8801 20.9751H38.1792C38.9742 20.9751 39.6187 21.6313 39.6187 22.4263C39.6187 23.2085 38.9846 23.8541 38.2024 23.8541V24.6436C38.2024 25.4899 37.5164 26.1759 36.67 26.1759V37.8779L23.5286 41.2677V26.1759C22.49 26.1759 21.648 25.3339 21.648 24.2953V23.8541C20.9812 23.8541 20.4406 23.3136 20.4406 22.6468V22.4146C20.4406 21.6196 21.0851 20.9751 21.8801 20.9751ZM25.4328 38.5891V27.6855C25.4328 27.3393 25.7135 27.0586 26.0597 27.0586C26.4059 27.0586 26.6866 27.3393 26.6866 27.6855V38.5891C26.6866 38.8716 26.4976 39.1192 26.2252 39.1938C25.8262 39.3029 25.4328 39.0027 25.4328 38.5891ZM34.5111 27.7029V36.4346C34.5111 36.7249 34.3169 36.9794 34.0368 37.0561C33.6268 37.1682 33.2225 36.8597 33.2225 36.4346V27.7029C33.2225 27.3471 33.5109 27.0586 33.8668 27.0586C34.2226 27.0586 34.5111 27.3471 34.5111 27.7029ZM27.9868 27.7551V37.7989C27.9868 38.2585 28.4239 38.5921 28.8672 38.4708C29.1699 38.3879 29.3799 38.1128 29.3799 37.7989V27.7551C29.3799 27.3704 29.068 27.0586 28.6833 27.0586C28.2986 27.0586 27.9868 27.3704 27.9868 27.7551ZM30.6104 37.1266V27.7203C30.6104 27.3549 30.9067 27.0586 31.2721 27.0586C31.6376 27.0586 31.9339 27.3549 31.9339 27.7203V37.1266C31.9339 37.4248 31.7344 37.6861 31.4468 37.7648C31.0257 37.8801 30.6104 37.5631 30.6104 37.1266Z" fill="white"/>
</g>
<rect x="0.5" y="0.5" width="59" height="59" rx="29.5" stroke="#E4E4E7"/>
<defs>
<clipPath id="clip0_117_18485">
<rect width="60" height="60" rx="30" fill="white"/>
</clipPath>
</defs>
</svg>
