<svg width="123" height="48" viewBox="0 0 123 48" fill="none" xmlns="http://www.w3.org/2000/svg">
<path fill-rule="evenodd" clip-rule="evenodd" d="M30.4169 34.8691C30.1121 34.7279 29.7822 34.6486 29.4466 34.6358C29.1109 34.6229 28.776 34.6767 28.4613 34.7941C28.1466 34.9115 27.8583 35.0902 27.6131 35.3198C27.3678 35.5493 27.1706 35.8252 27.0327 36.1315C25.9589 38.5106 24.1024 40.4499 21.7725 41.6265C19.4425 42.8032 16.7798 43.146 14.2278 42.598C11.6758 42.0499 9.38864 40.6441 7.74721 38.6146C6.10577 36.5852 5.20919 34.0546 5.2068 31.4445C5.23453 31.2916 5.24859 31.1366 5.24881 30.9812V30.3017C5.44539 27.7871 6.46939 25.4084 8.16086 23.5372C9.85232 21.6661 12.116 20.408 14.5981 19.9595C17.0802 19.5109 19.641 19.8972 21.8803 21.058C24.1197 22.2188 25.9114 24.0886 26.9757 26.3754C27.1173 26.6801 27.3178 26.9536 27.5658 27.1802C27.8137 27.4068 28.1042 27.582 28.4203 27.6957C28.7364 27.8094 29.0719 27.8592 29.4074 27.8424C29.7429 27.8256 30.0717 27.7424 30.3749 27.5977C30.9878 27.3008 31.4587 26.7739 31.6852 26.1316C31.9116 25.4893 31.8752 24.7836 31.5839 24.1679C30.2484 21.328 28.1357 18.9246 25.4904 17.2361C22.845 15.5476 19.7755 14.6432 16.6373 14.6275C16.4063 14.6275 16.1782 14.6335 15.9472 14.6431L23.4716 4.0761C23.866 3.52062 24.0257 2.83215 23.9162 2.15974C23.8067 1.48734 23.4368 0.885109 22.8865 0.483451C22.6147 0.286351 22.3065 0.145164 21.9797 0.0680593C21.653 -0.00904506 21.3141 -0.0205322 20.9829 0.034275C20.6516 0.0890822 20.3346 0.209096 20.0501 0.387345C19.7655 0.565593 19.5192 0.798538 19.3254 1.07268L11.7681 11.6892L13.6011 5.08084C13.7842 4.42543 13.7008 3.72426 13.3693 3.12999C13.0378 2.53573 12.4849 2.09649 11.8311 1.90792C11.5074 1.8178 11.169 1.79255 10.8356 1.83361C10.5021 1.87467 10.18 1.98123 9.8878 2.14717C9.59562 2.31311 9.33913 2.53515 9.13304 2.80054C8.92696 3.06592 8.77536 3.36942 8.68694 3.69359L5.24881 16.0883V8.858C5.24881 8.18127 4.97997 7.53227 4.50145 7.05375C4.02293 6.57523 3.37393 6.3064 2.6972 6.3064C2.02047 6.3064 1.37147 6.57523 0.892953 7.05375C0.414434 7.53227 0.145595 8.18127 0.145595 8.858V30.0572C0.115594 30.4718 0.100586 30.8905 0.100586 31.3133C0.100586 40.5144 7.51989 47.9997 16.6373 47.9997C19.8097 47.9873 22.912 47.0652 25.5762 45.3428C28.2403 43.6203 30.3545 41.1698 31.6679 38.282C31.9502 37.6629 31.9772 36.9576 31.743 36.3187C31.5089 35.6799 31.0324 35.159 30.4169 34.8691Z" fill="#196CFA"/>
<path d="M14.4771 16.5957L15.9242 14.6538C17.9512 14.5506 20.6513 14.8506 23.424 16.1196C17.112 14.1293 14.4771 16.5957 14.4771 16.5957Z" fill="black" fill-opacity="0.05"/>
<path d="M8.35081 4.9502L5.20654 24.7814L5.20068 16.2007L8.35081 4.9502Z" fill="black" fill-opacity="0.05"/>
<path d="M9.61108 18.0794L11.7189 11.7004L19.1514 1.31079L9.61108 18.0794Z" fill="black" fill-opacity="0.05"/>
<path fill-rule="evenodd" clip-rule="evenodd" d="M10.745 25.8778C10.9857 25.7776 11.2483 25.7414 11.5071 25.7728L14.5282 26.1628C14.7469 26.1922 14.9693 26.1749 15.1808 26.112C15.3923 26.0492 15.5881 25.9423 15.7553 25.7983L17.9964 23.8224C18.2026 23.6467 18.4505 23.5269 18.7162 23.4744C18.982 23.4219 19.2568 23.4384 19.5144 23.5224C19.7699 23.6087 19.9986 23.7601 20.178 23.9615C20.3574 24.163 20.4812 24.4076 20.5374 24.6714L21.1165 27.5908C21.1621 27.8061 21.2531 28.0091 21.3835 28.1863C21.5139 28.3635 21.6806 28.5108 21.8725 28.6184L24.5156 30.1226C24.7416 30.2542 24.9289 30.4429 25.0588 30.6698C25.1887 30.8967 25.2566 31.1538 25.2557 31.4153C25.2548 31.6768 25.1851 31.9334 25.0536 32.1594C24.9221 32.3853 24.7335 32.5728 24.5066 32.7028L21.8605 34.1161C21.6616 34.2187 21.4882 34.3646 21.3532 34.5431C21.2182 34.7217 21.125 34.9282 21.0805 35.1476L20.4715 38.0445C20.4111 38.3129 20.2783 38.5597 20.0874 38.7579C19.805 39.0558 19.4162 39.2298 19.0059 39.2421C18.5956 39.2544 18.1971 39.104 17.8973 38.8236L15.6803 36.7904C15.5187 36.6404 15.3271 36.5267 15.118 36.4567C14.909 36.3868 14.6875 36.3622 14.4682 36.3848L11.4621 36.6713C11.2603 36.6934 11.0561 36.6755 10.8612 36.6186C10.6664 36.5618 10.4846 36.4671 10.3264 36.3399C10.1681 36.2128 10.0365 36.0557 9.93893 35.8777C9.84141 35.6997 9.77992 35.5042 9.75798 35.3024C9.72825 35.0295 9.77284 34.7536 9.887 34.504L11.1711 31.8339C11.2704 31.6337 11.3228 31.4135 11.3244 31.1899C11.3259 30.9664 11.2766 30.7455 11.1801 30.5439L9.93502 27.8281C9.78408 27.4621 9.7846 27.051 9.93648 26.6854C10.0884 26.3197 10.3792 26.0292 10.745 25.8778Z" fill="#FAA81A"/>
<path d="M42.4266 25.1352C41.6986 25.1352 41.0147 25.0078 40.3751 24.753C39.7407 24.493 39.1817 24.1133 38.6981 23.6141C38.2196 23.1149 37.8452 22.5039 37.5748 21.781C37.3044 21.053 37.1692 20.221 37.1692 19.2849C37.1692 18.0577 37.398 17.0098 37.8556 16.1414C38.3132 15.2678 38.9399 14.5995 39.7355 14.1367C40.5311 13.6687 41.4282 13.4347 42.4266 13.4347C43.8099 13.4347 44.9045 13.7571 45.7105 14.4019C46.5218 15.0416 47.0704 15.9412 47.3564 17.1008L45.4375 17.4051C45.2243 16.7394 44.8759 16.209 44.3923 15.8138C43.9087 15.4134 43.2924 15.2132 42.5436 15.2132C41.7896 15.2028 41.163 15.3666 40.6637 15.7046C40.1645 16.0426 39.7875 16.5184 39.5327 17.132C39.2831 17.7457 39.1583 18.4633 39.1583 19.2849C39.1583 20.1066 39.2831 20.8216 39.5327 21.43C39.7823 22.0333 40.1567 22.5039 40.6559 22.8419C41.1604 23.1799 41.7896 23.3541 42.5436 23.3645C43.1104 23.3697 43.6071 23.2683 44.0335 23.0603C44.4599 22.8471 44.8083 22.5273 45.0787 22.1009C45.3491 21.6692 45.5311 21.131 45.6247 20.4862H43.6435V19.0119H47.6216C47.632 19.0951 47.6398 19.2173 47.645 19.3785C47.6502 19.5397 47.6528 19.636 47.6528 19.6672C47.6528 20.728 47.4422 21.6718 47.021 22.4987C46.605 23.3203 46.007 23.9651 45.2269 24.4332C44.4469 24.9012 43.5135 25.1352 42.4266 25.1352Z" fill="#18181B"/>
<path d="M49.2195 24.9012V13.6687H53.8607C53.9699 13.6687 54.1103 13.6739 54.2819 13.6843C54.4535 13.6895 54.6121 13.7051 54.7577 13.7311C55.4077 13.8299 55.9434 14.0457 56.3646 14.3785C56.791 14.7113 57.1056 15.1326 57.3084 15.6422C57.5164 16.1466 57.6204 16.7082 57.6204 17.3271C57.6204 18.2423 57.389 19.0301 56.9262 19.6906C56.4634 20.3458 55.7535 20.7514 54.7967 20.9074L53.9933 20.9776H51.0994V24.9012H49.2195ZM55.6703 24.9012L53.455 20.3302L55.3661 19.909L57.7998 24.9012H55.6703ZM51.0994 19.2225H53.7827C53.8867 19.2225 54.0037 19.2173 54.1337 19.2069C54.2637 19.1965 54.3833 19.1757 54.4925 19.1445C54.8045 19.0665 55.0489 18.9287 55.2257 18.7311C55.4077 18.5335 55.5351 18.3099 55.6079 18.0603C55.6859 17.8107 55.7249 17.5663 55.7249 17.3271C55.7249 17.0878 55.6859 16.8434 55.6079 16.5938C55.5351 16.339 55.4077 16.1128 55.2257 15.9152C55.0489 15.7176 54.8045 15.5798 54.4925 15.5018C54.3833 15.4706 54.2637 15.4524 54.1337 15.4472C54.0037 15.4368 53.8867 15.4316 53.7827 15.4316H51.0994V19.2225Z" fill="#18181B"/>
<path d="M58.7383 24.9012L62.2797 13.6687H65.0332L68.5745 24.9012H66.64L63.4263 14.8232H63.8475L60.6728 24.9012H58.7383ZM60.7118 22.4675V20.7124H66.6088V22.4675H60.7118Z" fill="#18181B"/>
<path d="M69.9848 24.9012V13.6687H74.4388C75.198 13.6687 75.8194 13.8221 76.3031 14.1289C76.7919 14.4305 77.1533 14.8179 77.3873 15.2912C77.6265 15.7644 77.7461 16.2532 77.7461 16.7576C77.7461 17.3765 77.5979 17.9017 77.3015 18.3333C77.0103 18.7649 76.6125 19.0561 76.108 19.2069V18.8169C76.8153 18.9781 77.3509 19.3135 77.7149 19.8232C78.0841 20.3328 78.2687 20.9126 78.2687 21.5626C78.2687 22.2283 78.1413 22.8107 77.8865 23.3099C77.6317 23.8091 77.2521 24.1991 76.7477 24.48C76.2485 24.7608 75.6296 24.9012 74.8912 24.9012H69.9848ZM71.8881 23.1305H74.6572C74.9848 23.1305 75.2786 23.0655 75.5386 22.9355C75.7986 22.8003 76.0014 22.6131 76.147 22.3739C76.2979 22.1295 76.3733 21.8408 76.3733 21.508C76.3733 21.2064 76.3083 20.936 76.1782 20.6968C76.0482 20.4576 75.8584 20.2678 75.6088 20.1274C75.3592 19.9818 75.0602 19.909 74.7118 19.909H71.8881V23.1305ZM71.8881 18.1539H74.4154C74.6858 18.1539 74.9276 18.1019 75.1408 17.9979C75.354 17.8939 75.523 17.7405 75.6478 17.5377C75.7726 17.3349 75.835 17.0852 75.835 16.7888C75.835 16.3988 75.7102 16.0738 75.4606 15.8138C75.211 15.5538 74.8626 15.4238 74.4154 15.4238H71.8881V18.1539Z" fill="#18181B"/>
<path d="M85.6253 24.9012V20.1976L81.8577 13.6687H83.1838L86.2025 18.8871L89.2056 13.6687H90.5317L86.7797 20.1976V24.9012H85.6253Z" fill="#18181B"/>
<path d="M95.5415 25.1352C94.4234 25.1352 93.4796 24.8882 92.7099 24.3941C91.9403 23.8949 91.3579 23.2059 90.9627 22.3271C90.5675 21.4482 90.3698 20.4342 90.3698 19.2849C90.3698 18.1357 90.5675 17.1216 90.9627 16.2428C91.3579 15.364 91.9403 14.6775 92.7099 14.1835C93.4796 13.6843 94.4234 13.4347 95.5415 13.4347C96.6647 13.4347 97.6085 13.6843 98.373 14.1835C99.1426 14.6775 99.725 15.364 100.12 16.2428C100.521 17.1216 100.721 18.1357 100.721 19.2849C100.721 20.4342 100.521 21.4482 100.12 22.3271C99.725 23.2059 99.1426 23.8949 98.373 24.3941C97.6085 24.8882 96.6647 25.1352 95.5415 25.1352ZM95.5415 24.0353C96.4203 24.0353 97.1535 23.8351 97.7412 23.4347C98.3288 23.0343 98.7682 22.4779 99.0594 21.7654C99.3558 21.0478 99.504 20.221 99.504 19.2849C99.504 18.3489 99.3558 17.5247 99.0594 16.8122C98.7682 16.0998 98.3288 15.5434 97.7412 15.143C97.1535 14.7425 96.4203 14.5397 95.5415 14.5345C94.6626 14.5345 93.932 14.7347 93.3496 15.1352C92.7671 15.5356 92.3277 16.0946 92.0313 16.8122C91.7401 17.5247 91.5919 18.3489 91.5867 19.2849C91.5815 20.221 91.7245 21.0452 92.0157 21.7576C92.3121 22.4649 92.7541 23.0213 93.3418 23.4269C93.9294 23.8273 94.6626 24.0301 95.5415 24.0353Z" fill="#18181B"/>
<path d="M106.667 25.1352C105.809 25.1352 105.05 24.9584 104.389 24.6048C103.734 24.2511 103.219 23.7519 102.845 23.1071C102.47 22.4623 102.283 21.7082 102.283 20.845V13.6765L103.437 13.6687V20.6968C103.437 21.2792 103.536 21.7836 103.734 22.2101C103.931 22.6313 104.189 22.9797 104.506 23.2553C104.829 23.5257 105.18 23.7259 105.559 23.8559C105.939 23.9859 106.308 24.0509 106.667 24.0509C107.031 24.0509 107.403 23.9859 107.782 23.8559C108.162 23.7259 108.51 23.5257 108.827 23.2553C109.145 22.9797 109.402 22.6313 109.6 22.2101C109.797 21.7836 109.896 21.2792 109.896 20.6968V13.6687H111.051V20.845C111.051 21.7082 110.863 22.4623 110.489 23.1071C110.115 23.7467 109.597 24.2459 108.937 24.6048C108.281 24.9584 107.525 25.1352 106.667 25.1352Z" fill="#18181B"/>
<path d="M113.237 24.9012V13.6687H117.574C117.683 13.6687 117.805 13.6739 117.941 13.6843C118.081 13.6895 118.221 13.7051 118.362 13.7311C118.949 13.8195 119.446 14.0249 119.852 14.3473C120.262 14.6645 120.572 15.065 120.78 15.5486C120.993 16.0322 121.1 16.5678 121.1 17.1554C121.1 18.0031 120.876 18.7389 120.429 19.3629C119.982 19.987 119.342 20.3796 118.51 20.5408L118.112 20.6344H114.384V24.9012H113.237ZM120.039 24.9012L117.824 20.3302L118.923 19.909L121.357 24.9012H120.039ZM114.384 19.5423H117.543C117.636 19.5423 117.746 19.5371 117.87 19.5267C117.995 19.5163 118.117 19.4981 118.237 19.4721C118.622 19.3889 118.936 19.2303 119.181 18.9963C119.43 18.7623 119.615 18.4841 119.735 18.1617C119.859 17.8393 119.922 17.5039 119.922 17.1554C119.922 16.807 119.859 16.4716 119.735 16.1492C119.615 15.8216 119.43 15.5408 119.181 15.3068C118.936 15.0728 118.622 14.9142 118.237 14.831C118.117 14.8049 117.995 14.7893 117.87 14.7841C117.746 14.7737 117.636 14.7685 117.543 14.7685H114.384V19.5423Z" fill="#18181B"/>
<path d="M38.1292 45.3021V30.6135H44.1984C44.3412 30.6135 44.5248 30.6203 44.7492 30.6339C44.9736 30.6407 45.181 30.6611 45.3715 30.6951C46.2215 30.8243 46.9219 31.1065 47.4727 31.5417C48.0304 31.9769 48.4418 32.5277 48.707 33.1942C48.979 33.8538 49.115 34.5882 49.115 35.3975C49.115 36.5943 48.8124 37.6246 48.2072 38.4882C47.6019 39.345 46.6737 39.8754 45.4225 40.0795L44.3718 40.1713H40.5875V45.3021H38.1292ZM46.5649 45.3021L43.668 39.3246L46.1671 38.7738L49.3496 45.3021H46.5649ZM40.5875 37.8762H44.0964C44.2324 37.8762 44.3854 37.8694 44.5554 37.8558C44.7254 37.8422 44.8818 37.815 45.0246 37.7742C45.4327 37.6722 45.7523 37.4919 45.9835 37.2335C46.2215 36.9751 46.3881 36.6827 46.4833 36.3563C46.5853 36.0299 46.6363 35.7103 46.6363 35.3975C46.6363 35.0846 46.5853 34.765 46.4833 34.4386C46.3881 34.1054 46.2215 33.8096 45.9835 33.5512C45.7523 33.2928 45.4327 33.1126 45.0246 33.0106C44.8818 32.9698 44.7254 32.946 44.5554 32.9392C44.3854 32.9256 44.2324 32.9188 44.0964 32.9188H40.5875V37.8762Z" fill="#18181B"/>
<path d="M50.9849 45.3021V30.6135H60.4713V32.9188H53.4432V36.5399H59.2472V38.8452H53.4432V42.9968H60.4713V45.3021H50.9849Z" fill="#18181B"/>
<path d="M65.6115 45.3021L60.9805 30.6135H63.5102L67.3864 42.9152L71.3135 30.6135H73.8432L69.2122 45.3021H65.6115Z" fill="#18181B"/>
<path d="M74.9678 45.3021V30.6135H77.4261V45.3021H74.9678Z" fill="#18181B"/>
<path d="M79.8696 45.3021V30.6135H89.356V32.9188H82.3279V36.5399H88.132V38.8452H82.3279V42.9968H89.356V45.3021H79.8696Z" fill="#18181B"/>
<path d="M94.2922 45.3021L89.9978 30.6135H92.5785L95.5061 41.2219L98.4234 30.6339L101.004 30.6135L103.932 41.2219L106.849 30.6135H109.43L105.145 45.3021H102.718L99.7086 34.8568L96.7199 45.3021H94.2922Z" fill="#18181B"/>
<path d="M115.52 45.6081C114.446 45.6081 113.477 45.4211 112.613 45.0471C111.756 44.673 111.049 44.1392 110.492 43.4456C109.941 42.7452 109.591 41.9155 109.441 40.9567L111.991 40.5691C112.209 41.4395 112.654 42.1127 113.327 42.5888C114.007 43.0648 114.789 43.3028 115.673 43.3028C116.197 43.3028 116.69 43.2212 117.152 43.058C117.615 42.8948 117.989 42.6568 118.275 42.3439C118.567 42.0311 118.713 41.6469 118.713 41.1913C118.713 40.9873 118.679 40.8003 118.611 40.6303C118.543 40.4535 118.441 40.2971 118.305 40.1611C118.176 40.0251 118.006 39.9026 117.795 39.7938C117.591 39.6782 117.353 39.5796 117.081 39.498L113.287 38.376C112.96 38.2808 112.606 38.155 112.226 37.9986C111.852 37.8354 111.495 37.6144 111.155 37.3355C110.821 37.0499 110.546 36.6895 110.328 36.2543C110.118 35.8123 110.012 35.2683 110.012 34.6222C110.012 33.677 110.25 32.8848 110.726 32.2455C111.209 31.5995 111.855 31.1167 112.664 30.7971C113.48 30.4775 114.385 30.321 115.378 30.3278C116.384 30.3346 117.282 30.5081 118.071 30.8481C118.859 31.1813 119.519 31.6675 120.049 32.3067C120.58 32.946 120.954 33.7178 121.171 34.6222L118.53 35.0812C118.421 34.5644 118.21 34.1258 117.897 33.7654C117.591 33.3982 117.214 33.1194 116.765 32.929C116.323 32.7385 115.85 32.6365 115.347 32.6229C114.857 32.6161 114.402 32.6909 113.98 32.8474C113.565 32.997 113.229 33.2146 112.97 33.5002C112.719 33.7858 112.593 34.119 112.593 34.4998C112.593 34.8602 112.702 35.1561 112.919 35.3873C113.137 35.6117 113.406 35.7919 113.725 35.9279C114.052 36.0571 114.381 36.1659 114.715 36.2543L117.346 36.9887C117.707 37.0839 118.111 37.2131 118.56 37.3763C119.009 37.5396 119.441 37.7674 119.856 38.0598C120.27 38.3522 120.61 38.7364 120.876 39.2124C121.148 39.6884 121.284 40.2937 121.284 41.0281C121.284 41.7897 121.124 42.4596 120.804 43.0376C120.491 43.6088 120.066 44.0848 119.529 44.4656C118.992 44.8465 118.377 45.1321 117.683 45.3225C116.996 45.5129 116.275 45.6081 115.52 45.6081Z" fill="#18181B"/>
</svg>
