<svg width="60" height="60" viewBox="0 0 60 60" fill="none" xmlns="http://www.w3.org/2000/svg">
<g clip-path="url(#clip0_117_18548)">
<rect width="60" height="60" rx="30" fill="white"/>
<circle cx="30" cy="30" r="30" fill="url(#paint0_linear_117_18548)"/>
<g filter="url(#filter0_d_117_18548)">
<path d="M29.8104 12.5677C29.6574 12.6625 29.6175 12.7641 29.4478 13.4716C29.2615 14.2672 29.1618 14.6091 29.0121 14.9544C28.6695 15.7466 28.6861 16.4508 29.0586 17.199C29.1717 17.4258 29.205 17.5206 29.1784 17.5477C29.1584 17.568 29.1485 17.6357 29.1584 17.6966C29.1717 17.7711 29.1451 17.876 29.0719 18.0453C29.0121 18.1807 28.9189 18.4786 28.8624 18.7089L28.7559 19.1286L28.4898 19.1523C27.5219 19.2336 26.5306 19.4672 25.5161 19.8531C24.924 20.0766 24.5747 20.2357 23.9427 20.5607C23.2841 20.9026 22.9182 21.1464 21.9768 21.8674C20.8325 22.7477 20.307 23.093 19.7215 23.3401C19.2924 23.5263 19.2991 23.5229 19.2725 23.3943C19.2159 23.1404 19.033 22.9 18.7902 22.7714C18.707 22.7273 18.6039 22.707 18.4243 22.707C18.1415 22.707 17.9818 22.7747 17.8056 22.9677C17.6259 23.1607 17.576 23.2893 17.576 23.5703C17.576 23.8682 17.6459 24.0307 17.8554 24.2237L17.9885 24.3456L17.8355 24.6604C17.6525 25.043 16.2621 27.9646 15.996 28.5299C15.8896 28.7534 15.507 29.5591 15.1411 30.3242C14.7786 31.0859 14.0833 32.5451 13.601 33.5641L12.7195 35.4193H12.6098H12.5L12.6397 35.6292C12.8493 35.9508 13.4979 36.5872 13.8671 36.8378C14.7187 37.4099 15.8164 37.806 17.0604 37.982C17.6525 38.0667 19.166 38.0633 19.7714 37.982C21.398 37.7552 22.7153 37.1797 23.6167 36.3096C23.8928 36.0388 24.3119 35.5242 24.3119 35.4497C24.3119 35.4328 24.272 35.4193 24.2188 35.4193C24.129 35.4193 24.0857 35.3279 22.7319 32.4841C21.9635 30.8693 20.786 28.3979 20.1174 26.9896L18.9033 24.4336L19.2193 24.3794C20.3236 24.1898 21.2716 23.743 22.6654 22.7578C22.9215 22.5784 23.2941 22.3177 23.4936 22.1823C24.5082 21.4917 25.9385 20.906 27.2957 20.6284C27.7081 20.5438 28.3568 20.4557 28.5697 20.4557C28.6162 20.4557 28.6295 20.537 28.6628 21.038C28.736 22.1112 28.9356 23.0693 29.2915 24.0409C29.3913 24.3117 29.4013 24.3693 29.368 24.4336C29.3214 24.5216 29.3447 24.5859 29.4245 24.5859C29.4678 24.5859 29.4711 24.6536 29.4511 25.1513C29.4378 25.4661 29.4212 25.7438 29.4179 25.7708C29.4146 25.7979 29.3979 26.0721 29.3813 26.3802C29.368 26.6883 29.3547 26.9456 29.3514 26.9557C29.348 26.9659 29.3347 27.2401 29.3181 27.5651C29.3015 27.8901 29.2882 28.1643 29.2848 28.1745C29.2815 28.1846 29.2682 28.4589 29.2516 28.7839C29.2349 29.1089 29.2216 29.3831 29.2183 29.3932C29.215 29.4034 29.2017 29.6911 29.1884 30.0365C29.1717 30.3818 29.1551 30.6865 29.1518 30.7135C29.1485 30.7406 29.1318 31.0453 29.1218 31.3906C29.1085 31.7359 29.0919 32.0711 29.0852 32.1354C29.052 32.4333 28.9954 34.7794 29.0087 35.25C29.022 35.6495 29.042 35.8255 29.0952 35.988C29.1751 36.2352 29.1618 36.3029 29.0121 36.4857C28.7959 36.743 28.7493 37.156 28.8956 37.4945C28.9555 37.6333 28.9588 37.6503 28.909 37.701C28.8624 37.7484 28.8624 37.7586 28.9156 37.8161C28.9688 37.8771 28.9622 37.9312 28.7826 38.8419C28.5597 39.9828 28.5397 40.2706 28.6162 41.2049C28.6462 41.5638 28.6695 41.9565 28.6695 42.075V42.2917H27.5651C26.4707 42.2917 26.4541 42.2917 26.2878 42.3729C26.0682 42.4779 25.9052 42.6268 25.8055 42.8164L25.7256 42.9688H25.2998C24.6845 42.9688 24.4283 43.0737 24.1489 43.4461C24.0558 43.5714 24.0092 43.6018 23.8595 43.6357C23.5967 43.6966 23.4338 43.7948 23.2907 43.9742C23.0246 44.3094 22.978 44.3466 22.662 44.4414C22.499 44.4922 22.3128 44.5633 22.2462 44.5971C22.1032 44.6716 21.9502 44.8443 21.9502 44.9357C21.9502 45 22.0799 45 30 45C37.9201 45 38.0498 45 38.0498 44.9357C38.0498 44.7596 37.777 44.5734 37.3346 44.4414C37.0353 44.3534 36.9721 44.3094 36.7725 44.0555C36.5696 43.7948 36.3534 43.6628 36.0839 43.6255C35.9509 43.6086 35.9209 43.5883 35.8877 43.5104C35.8344 43.375 35.6315 43.1888 35.422 43.0805C35.249 42.9924 35.2091 42.9857 34.7467 42.9755L34.2544 42.962L34.2212 42.874C34.1613 42.7182 33.9717 42.5117 33.7887 42.4102L33.6091 42.3086L32.4715 42.2984L31.3305 42.2883V42.0378C31.3305 41.9023 31.3538 41.5029 31.3838 41.1508C31.4536 40.2977 31.437 39.993 31.254 39.0586C31.0278 37.9008 31.0278 37.8974 31.0744 37.8195C31.1044 37.7721 31.1044 37.7383 31.0777 37.6977C31.0511 37.6536 31.0578 37.6063 31.101 37.4979C31.2507 37.1594 31.2041 36.743 30.9879 36.4857C30.8382 36.3029 30.8249 36.2352 30.9048 35.988C31.0012 35.6867 31.0145 35.1281 30.968 33.6148C30.9447 32.9208 30.9214 32.2945 30.9148 32.2201C30.9081 32.1456 30.8915 31.8172 30.8815 31.4922C30.8715 31.1672 30.8549 30.8456 30.8482 30.7812C30.8416 30.7169 30.8249 30.4122 30.815 30.1042C30.8017 29.7961 30.7883 29.5083 30.7817 29.4609C30.775 29.4135 30.7617 29.1393 30.7484 28.8516C30.7351 28.5638 30.7218 28.2896 30.7152 28.2422C30.7085 28.1948 30.6952 27.9206 30.6819 27.6328C30.6686 27.3451 30.6553 27.0708 30.6486 27.0234C30.642 26.976 30.6254 26.7018 30.6154 26.4141C30.6021 26.1263 30.5854 25.8656 30.5821 25.8385C30.5788 25.8115 30.5622 25.5237 30.5489 25.2055L30.5256 24.6198L30.6021 24.5555C30.6753 24.4945 30.6786 24.4878 30.6254 24.4268C30.5888 24.3862 30.5788 24.349 30.5987 24.3117C30.6619 24.1966 30.8682 23.5771 30.9813 23.1708C31.1908 22.3956 31.3006 21.6948 31.3472 20.8518C31.3671 20.5031 31.3771 20.4557 31.4303 20.4557C31.5734 20.4557 32.2021 20.5302 32.4615 20.5776C33.4827 20.7638 34.7201 21.1904 35.6681 21.6846C35.8877 21.7964 36.3134 22.0604 36.6161 22.2669C36.9188 22.4734 37.4012 22.8052 37.6839 22.9982C38.898 23.831 39.8959 24.2677 40.9038 24.3997C40.997 24.4133 41.0768 24.4336 41.0768 24.4471C41.0768 24.4607 40.192 26.3294 39.1142 28.5977C38.0332 30.8693 36.8623 33.3339 36.5097 34.0719L35.871 35.4193H35.7613H35.6515L35.7912 35.6326C35.871 35.7477 36.1006 36.0117 36.3035 36.2182C37.2249 37.1594 38.5255 37.7417 40.2286 37.982C40.8306 38.0633 42.3441 38.0633 42.9396 37.9786C44.6293 37.7417 45.93 37.1526 46.848 36.2182C47.0509 36.0117 47.2805 35.7477 47.3603 35.6326L47.5 35.4193H47.3902H47.2771L46.5753 33.9365C46.1861 33.124 45.0019 30.6289 43.9408 28.3979L42.0082 24.3388L42.1579 24.2068C42.5138 23.8885 42.5304 23.3299 42.1944 22.9677C42.0182 22.7747 41.8585 22.707 41.5757 22.707C41.3861 22.707 41.2963 22.724 41.1932 22.7815C40.9604 22.9068 40.7807 23.1437 40.7275 23.3943C40.7009 23.5229 40.7142 23.5263 40.2485 23.3299C39.7462 23.1167 39.1508 22.7307 38.1097 21.9385C37.022 21.1091 36.7558 20.9297 36.0373 20.5539C34.5072 19.7482 32.9937 19.281 31.4902 19.149L31.2341 19.1286L31.1809 18.8849C31.111 18.5667 30.978 18.1401 30.8915 17.9742C30.8482 17.8862 30.8316 17.7982 30.8382 17.7169C30.8482 17.6492 30.8382 17.568 30.8183 17.5341C30.7883 17.4867 30.7983 17.4461 30.8582 17.3479C30.9946 17.1245 31.1044 16.857 31.1709 16.5794C31.2274 16.3594 31.2374 16.2409 31.2241 15.9362C31.2041 15.5435 31.1676 15.4047 30.9214 14.8021C30.8549 14.643 30.7085 14.1318 30.5987 13.668C30.4856 13.2008 30.3692 12.7776 30.3426 12.7268C30.2861 12.6117 30.1164 12.5 30 12.5C29.9534 12.5 29.8703 12.5305 29.8104 12.5677ZM18.5507 23.4417C18.5739 23.4654 18.5906 23.5229 18.5906 23.5703C18.5906 23.6177 18.5739 23.6753 18.5507 23.699C18.5274 23.7227 18.4708 23.7396 18.4243 23.7396C18.3777 23.7396 18.3211 23.7227 18.2979 23.699C18.2746 23.6753 18.2579 23.6177 18.2579 23.5703C18.2579 23.5229 18.2746 23.4654 18.2979 23.4417C18.3211 23.418 18.3777 23.401 18.4243 23.401C18.4708 23.401 18.5274 23.418 18.5507 23.4417ZM41.7021 23.4417C41.7254 23.4654 41.7421 23.5229 41.7421 23.5703C41.7421 23.6177 41.7254 23.6753 41.7021 23.699C41.6789 23.7227 41.6223 23.7396 41.5757 23.7396C41.5292 23.7396 41.4726 23.7227 41.4493 23.699C41.4261 23.6753 41.4094 23.6177 41.4094 23.5703C41.4094 23.5229 41.4261 23.4654 41.4493 23.4417C41.4726 23.418 41.5292 23.401 41.5757 23.401C41.6223 23.401 41.6789 23.418 41.7021 23.4417ZM18.2712 24.437C18.3211 24.4573 18.3245 24.9719 18.3245 29.9383V35.4193H15.6501H12.9723L13.2152 34.9013C13.3515 34.6203 13.7274 33.8214 14.0567 33.1341C14.386 32.4435 15.4505 30.2023 16.4284 28.1474C17.4031 26.0958 18.2047 24.4167 18.2114 24.4167C18.2114 24.4167 18.2413 24.4268 18.2712 24.437ZM42.2809 25.4391C43.0427 27.0505 46.9212 35.1958 46.9778 35.3143L47.0343 35.4193H44.3533H41.6755V29.9417C41.6755 26.9286 41.6855 24.4505 41.6988 24.4404C41.7088 24.4268 41.7387 24.4167 41.7587 24.4167C41.7787 24.4167 42.0148 24.8771 42.2809 25.4391ZM19.1893 25.5677C19.4787 26.1737 20.5032 28.3268 21.4679 30.3581C22.4325 32.3859 23.3706 34.3563 23.5502 34.732L23.8762 35.4193H21.1984H18.524V29.9315V24.4471L18.5972 24.4573C18.6571 24.4641 18.7635 24.6672 19.1893 25.5677ZM41.4527 29.9247L41.4427 35.4023L38.7849 35.4125L36.1238 35.4193L36.35 34.9385C36.4764 34.6711 36.7126 34.1734 36.8756 33.8281C37.0419 33.4828 38.0764 31.306 39.1808 28.987C41.5624 23.9799 41.3296 24.4505 41.4028 24.4505C41.456 24.4505 41.4593 24.7518 41.4527 29.9247Z" fill="#BF872F"/>
</g>
</g>
<rect x="0.5" y="0.5" width="59" height="59" rx="29.5" stroke="#E4E4E7"/>
<defs>
<filter id="filter0_d_117_18548" x="-3.5" y="4.5" width="67" height="64.5" filterUnits="userSpaceOnUse" color-interpolation-filters="sRGB">
<feFlood flood-opacity="0" result="BackgroundImageFix"/>
<feColorMatrix in="SourceAlpha" type="matrix" values="0 0 0 0 0 0 0 0 0 0 0 0 0 0 0 0 0 0 127 0" result="hardAlpha"/>
<feOffset dy="8"/>
<feGaussianBlur stdDeviation="8"/>
<feComposite in2="hardAlpha" operator="out"/>
<feColorMatrix type="matrix" values="0 0 0 0 0 0 0 0 0 0 0 0 0 0 0 0 0 0 0.16 0"/>
<feBlend mode="normal" in2="BackgroundImageFix" result="effect1_dropShadow_117_18548"/>
<feBlend mode="normal" in="SourceGraphic" in2="effect1_dropShadow_117_18548" result="shape"/>
</filter>
<linearGradient id="paint0_linear_117_18548" x1="30" y1="0" x2="30" y2="60" gradientUnits="userSpaceOnUse">
<stop stop-color="#282828" stop-opacity="0.46"/>
<stop offset="1"/>
</linearGradient>
<clipPath id="clip0_117_18548">
<rect width="60" height="60" rx="30" fill="white"/>
</clipPath>
</defs>
</svg>
