<svg width="60" height="60" viewBox="0 0 60 60" fill="none" xmlns="http://www.w3.org/2000/svg">
<g clip-path="url(#clip0_117_18553)">
<rect width="60" height="60" rx="30" fill="white"/>
<path d="M38.248 21.816C37.4157 21.2699 36.4262 21.0724 35.3762 21.1451C32.2717 21.358 28.6261 23.9241 26.8631 26.8196C24.5036 30.6957 25.261 35.5865 28.555 37.7438C29.5205 38.3765 30.5967 38.7013 31.6956 38.7506C34.344 38.8678 37.1214 37.3701 38.7894 34.631C41.1481 30.7556 41.5419 23.9719 38.248 21.816Z" fill="url(#paint0_radial_117_18553)"/>
<path d="M29.3786 21.1866C29.2493 21.187 29.1189 21.1919 28.9874 21.2009C25.8823 21.4141 22.2369 23.9804 20.4748 26.8756C18.1147 30.7513 18.8724 35.6417 22.1664 37.8006C23.1318 38.4324 24.2082 38.7578 25.3064 38.8057C26.4076 38.8549 27.5176 38.6557 28.5743 38.1734C23.3282 35.3313 24.5681 29.2262 26.1767 26.8074C27.4207 24.7634 29.6715 22.8429 31.9003 21.8984C31.887 21.8894 31.8739 21.8804 31.8604 21.8715C31.1318 21.3942 30.2834 21.1834 29.3786 21.1866Z" fill="url(#paint1_radial_117_18553)"/>
<path d="M23.3078 21.241C20.1181 21.2344 16.2155 23.9023 14.3731 26.9301C12.0135 30.8062 12.7704 35.6962 16.0649 37.8547C17.9603 39.0961 20.283 39.1615 22.363 38.2541C22.0865 38.127 21.8165 37.9779 21.5544 37.8064C18.2604 35.6476 17.5042 30.7578 19.8625 26.8817C21.1332 24.794 23.3832 22.8776 25.7035 21.8911C24.9957 21.4439 24.1784 21.2427 23.3078 21.241Z" fill="url(#paint2_radial_117_18553)"/>
<path d="M27.251 28.1144L27.1226 28.5222C27.2579 28.3596 27.4034 28.2363 27.5579 28.1542C27.7125 28.0727 27.879 28.0306 28.0575 28.0295C28.2784 28.0278 28.4458 28.0799 28.5593 28.1875C28.6738 28.2958 28.7293 28.4326 28.7279 28.5982C28.7263 28.7635 28.6769 29.0395 28.5802 29.4265L27.8067 32.5314L26.5084 32.5428L27.2739 29.4727C27.3509 29.1681 27.3872 28.9822 27.3862 28.9155C27.3835 28.8488 27.3402 28.8157 27.2529 28.8166C27.1648 28.818 27.099 28.8563 27.0555 28.9333C27.0128 29.01 26.9497 29.2158 26.8662 29.5499L26.1189 32.5459L24.8213 32.5576L25.9264 28.1259L27.251 28.1144Z" fill="#002D6A"/>
<path d="M30.6095 29.6584L30.6907 29.3324C30.7485 29.1012 30.7731 28.9525 30.7655 28.8859C30.7583 28.8186 30.7196 28.7854 30.6491 28.7866C30.5585 28.7871 30.496 28.8157 30.4613 28.873C30.4258 28.9309 30.3767 29.0851 30.3141 29.3346L30.2329 29.6609L30.6095 29.6584ZM31.7279 30.3638L30.0541 30.3783L29.8148 31.3369C29.7648 31.5378 29.7465 31.6671 29.759 31.7245C29.7718 31.782 29.8173 31.8102 29.8958 31.8099C29.9917 31.8092 30.0652 31.7691 30.1183 31.6932C30.1692 31.6156 30.2226 31.4665 30.2779 31.246L30.4239 30.6604L31.6564 30.6496L31.5752 30.9769C31.5072 31.2509 31.4376 31.4606 31.368 31.6083C31.2982 31.7554 31.1819 31.913 31.0183 32.0813C30.8552 32.2483 30.6701 32.3754 30.4619 32.4607C30.2549 32.5456 30.0095 32.589 29.7265 32.5912C29.4542 32.5945 29.2241 32.5553 29.0344 32.4751C28.8445 32.3945 28.7096 32.283 28.6295 32.1399C28.5491 31.9978 28.5076 31.841 28.505 31.6689C28.5026 31.4967 28.5433 31.2459 28.6252 30.9169L28.9479 29.6255C29.0441 29.2381 29.1701 28.933 29.3266 28.7082C29.4833 28.4836 29.691 28.3109 29.9486 28.1901C30.2081 28.0694 30.4852 28.0076 30.7808 28.0046C31.1441 28.0013 31.4259 28.0713 31.6267 28.2115C31.8277 28.3532 31.9455 28.5419 31.9813 28.7775C32.017 29.014 31.9828 29.3463 31.8754 29.7764L31.7279 30.3638Z" fill="#002D6A"/>
<path d="M36.9088 28.0287L35.2823 32.4643L33.8876 32.4772C33.9463 31.9359 34.0358 31.2201 34.1544 30.3283C34.0111 30.7234 33.8586 31.1191 33.6967 31.5152L33.3228 32.4813L31.9287 32.4946L32.485 28.0677L33.5931 28.0573C33.5773 28.1722 33.4619 29.0203 33.2446 30.603C33.3068 30.4341 33.6171 29.5835 34.176 28.0525L35.2333 28.0428L34.8669 30.5885C35.097 29.8391 35.408 28.9894 35.7987 28.038L36.9088 28.0287Z" fill="#002D6A"/>
<path d="M38.5195 29.5793L38.6008 29.2534C38.6575 29.0225 38.683 28.8733 38.6754 28.8067C38.6682 28.7395 38.6292 28.7062 38.5588 28.7069C38.4678 28.7079 38.4059 28.7361 38.3703 28.7939C38.3354 28.8518 38.2869 29.0053 38.2252 29.2562L38.1425 29.582L38.5195 29.5793ZM39.6374 30.2844L37.964 30.2994L37.7247 31.2573C37.6754 31.4588 37.6561 31.5878 37.669 31.6452C37.6816 31.703 37.7267 31.7318 37.8058 31.7307C37.901 31.73 37.976 31.6914 38.0281 31.6141C38.0797 31.5363 38.1329 31.3869 38.1878 31.1667L38.3341 30.5814L39.5667 30.5709L39.4844 30.8978C39.4166 31.1712 39.3485 31.3818 39.2778 31.5291C39.2072 31.6763 39.0905 31.8337 38.9279 32.0018C38.7643 32.1695 38.5791 32.2966 38.3716 32.3817C38.1641 32.4664 37.9192 32.5101 37.6354 32.513C37.3628 32.5154 37.134 32.4763 36.9436 32.3954C36.754 32.3149 36.6193 32.204 36.5393 32.0612C36.4589 31.9181 36.4172 31.7616 36.4149 31.5896C36.4126 31.4174 36.4527 31.1673 36.5347 30.8374L36.8566 29.5464C36.953 29.1594 37.0807 28.8535 37.2365 28.629C37.3919 28.4042 37.6003 28.2323 37.8582 28.1107C38.1161 27.9896 38.3942 27.9276 38.6903 27.9253C39.0532 27.922 39.3346 27.9909 39.5357 28.1324C39.7369 28.2745 39.8546 28.462 39.891 28.6983C39.9271 28.9354 39.892 29.2675 39.7851 29.6967L39.6374 30.2844Z" fill="#002D6A"/>
<path d="M41.9982 29.1471C42.0486 28.9446 42.0688 28.8151 42.0589 28.7597C42.0494 28.7042 42.0067 28.6771 41.9318 28.6771C41.8555 28.6782 41.7948 28.7104 41.7486 28.774C41.7008 28.8383 41.6546 28.9641 41.6079 29.1505L41.2365 30.642C41.1861 30.84 41.1659 30.9683 41.1744 31.0268C41.183 31.0864 41.2248 31.1153 41.3006 31.1141C41.3852 31.1136 41.4493 31.0782 41.4943 31.0066C41.5383 30.9344 41.5917 30.7722 41.6547 30.5209L41.9982 29.1471ZM43.5888 27.96L42.7372 31.3756C42.6208 31.8373 42.5359 32.1364 42.4815 32.27C42.4269 32.4051 42.3188 32.5473 42.1564 32.7002C41.9959 32.8511 41.7947 32.9677 41.5539 33.0482C41.3123 33.1297 41.0245 33.1723 40.6905 33.1755C40.2756 33.1785 39.9623 33.108 39.7489 32.9648C39.5354 32.8201 39.4773 32.5337 39.5759 32.1052L40.835 32.0937C40.7848 32.2937 40.8283 32.3932 40.9689 32.3921C41.066 32.3914 41.14 32.3604 41.1881 32.2986C41.2352 32.237 41.2844 32.1092 41.3325 31.9155L41.4169 31.5765C41.279 31.6825 41.1434 31.7629 41.0063 31.8179C40.8693 31.8722 40.7335 31.8996 40.5975 31.9016C40.3643 31.9034 40.1837 31.8557 40.0571 31.7596C39.9308 31.6631 39.8593 31.5364 39.8422 31.3773C39.8242 31.2197 39.8517 30.9933 39.9257 30.6991L40.3269 29.0921C40.4326 28.6719 40.5803 28.3697 40.773 28.183C40.9643 27.9979 41.2096 27.9036 41.5057 27.9007C41.6673 27.8995 41.8065 27.9328 41.9229 28.0004C42.0408 28.0687 42.1337 28.1715 42.2065 28.3086L42.3808 27.9712L43.5888 27.96Z" fill="#002D6A"/>
<path d="M45.4093 29.1169C45.4594 28.9139 45.4797 28.7854 45.4703 28.729C45.4617 28.6729 45.4187 28.6463 45.344 28.6469C45.2681 28.6476 45.2071 28.6795 45.1586 28.744C45.1139 28.8081 45.0668 28.9332 45.0197 29.1199L44.6473 30.6114C44.5984 30.8091 44.5782 30.937 44.5866 30.9971C44.5938 31.0558 44.6366 31.0845 44.7126 31.084C44.7963 31.0831 44.8604 31.0483 44.9042 30.9757C44.9492 30.9039 45.0027 30.7424 45.0655 30.4905L45.4093 29.1169ZM47 27.9301L46.1473 31.3457C46.0327 31.8079 45.9474 32.1053 45.8927 32.2403C45.8382 32.3743 45.7314 32.5178 45.5687 32.6691C45.4071 32.8211 45.2059 32.9372 44.9653 33.0188C44.7246 33.0997 44.4368 33.142 44.1019 33.144C43.6879 33.1485 43.3746 33.0781 43.1614 32.9343C42.9464 32.7896 42.8887 32.504 42.9873 32.0747L44.2463 32.0642C44.1973 32.2641 44.2399 32.3634 44.3801 32.3623C44.4784 32.3612 44.5523 32.3301 44.5994 32.2685C44.6473 32.2066 44.6945 32.079 44.7439 31.8856L44.8285 31.5459C44.6924 31.6522 44.5543 31.7323 44.4177 31.7872C44.2818 31.8418 44.1461 31.8701 44.01 31.8712C43.7756 31.8722 43.5961 31.8263 43.4696 31.7301C43.3425 31.6336 43.2717 31.5053 43.2548 31.3472C43.2373 31.1888 43.2655 30.9634 43.3379 30.6692L43.7381 29.0618C43.8429 28.642 43.9928 28.3398 44.1842 28.1534C44.3777 27.9673 44.6207 27.8724 44.9181 27.8704C45.0798 27.8691 45.2188 27.9023 45.3354 27.9705C45.4518 28.0382 45.5462 28.1409 45.6178 28.2781L45.7934 27.9407L47 27.9301Z" fill="#002D6A"/>
</g>
<rect x="0.5" y="0.5" width="59" height="59" rx="29.5" stroke="#E4E4E7"/>
<defs>
<radialGradient id="paint0_radial_117_18553" cx="0" cy="0" r="1" gradientUnits="userSpaceOnUse" gradientTransform="translate(33.0695 29.9503) rotate(-0.511136) scale(1.07246 1.11258)">
<stop stop-color="white"/>
<stop offset="0.2708" stop-color="white"/>
<stop offset="0.649" stop-color="white"/>
<stop offset="1" stop-color="#D6D7DD"/>
</radialGradient>
<radialGradient id="paint1_radial_117_18553" cx="0" cy="0" r="1" gradientUnits="userSpaceOnUse" gradientTransform="translate(26.6761 30.0076) rotate(-0.511196) scale(1.07247 1.11259)">
<stop stop-color="#F7ED1A"/>
<stop offset="0.19" stop-color="#F7ED1A"/>
<stop offset="1" stop-color="#EF7C29"/>
</radialGradient>
<radialGradient id="paint2_radial_117_18553" cx="0" cy="0" r="1" gradientUnits="userSpaceOnUse" gradientTransform="translate(20.5791 30.0629) rotate(-0.511148) scale(1.07257 1.11269)">
<stop stop-color="white"/>
<stop offset="0.2708" stop-color="white"/>
<stop offset="0.649" stop-color="white"/>
<stop offset="1" stop-color="#D6D7DD"/>
</radialGradient>
<clipPath id="clip0_117_18553">
<rect width="60" height="60" rx="30" fill="white"/>
</clipPath>
</defs>
</svg>
