<svg width="60" height="60" viewBox="0 0 60 60" fill="none" xmlns="http://www.w3.org/2000/svg">
<g clip-path="url(#clip0_117_18578)">
<rect width="60" height="60" rx="30" fill="white"/>
<path d="M24.7433 26.3428C24.5438 26.3428 24.3821 26.5051 24.3821 26.7051V32.3549L19.4234 26.4598C19.3433 26.3626 19.2208 26.323 19.1052 26.3429C18.9058 26.343 18.7441 26.5052 18.7441 26.7051V33.3944C18.7441 33.5945 18.9058 33.7566 19.1054 33.7566C19.3049 33.7566 19.4667 33.5945 19.4667 33.3944V27.7031L24.4437 33.6204C24.4842 33.6695 24.5361 33.7025 24.5919 33.7223C24.638 33.7438 24.6891 33.7566 24.7433 33.7566C24.9428 33.7566 25.1045 33.5945 25.1045 33.3944V26.7051C25.1045 26.5051 24.9428 26.3428 24.7433 26.3428Z" fill="#53A63A"/>
<path d="M28.8114 29.9965C28.8016 27.9378 27.8706 25.9832 26.2842 24.6776C24.667 23.3468 22.4914 22.8497 20.4513 23.271C18.4758 23.6788 16.7384 25.0047 15.7931 26.7857C14.8182 28.6228 14.7375 30.8584 15.5764 32.7617C16.3988 34.6279 18.0341 36.0279 19.9786 36.6036C21.9902 37.1991 24.1947 36.7924 25.9069 35.6012C27.721 34.339 28.801 32.2004 28.8114 29.9965ZM25.5243 35.124C23.8875 36.3296 21.7182 36.5973 19.8136 35.9358C17.9512 35.289 16.5067 33.6915 15.9361 31.8173C15.3386 29.8548 15.7729 27.6932 17.0215 26.0808C18.2546 24.4886 20.2219 23.6183 22.2193 23.7039C24.21 23.7891 26.0444 24.9038 27.1277 26.5636C27.7915 27.5807 28.1283 28.7844 28.134 29.9965C28.1243 32.0275 27.1553 33.9225 25.5243 35.124Z" fill="#53A63A"/>
<path d="M30.058 26.2178C30.3537 26.4563 30.7121 26.6775 31.1858 26.9143C32.1854 27.4135 33.3016 27.6577 34.4027 27.6154C35.5719 27.57 36.6447 27.1735 37.6432 26.7713C38.4432 26.449 39.3985 26.0945 40.4423 26.0945C40.5378 26.0945 40.6343 26.0972 40.7291 26.1026C41.5909 26.1513 42.4799 26.4493 43.3654 26.9391C43.7657 27.1605 44.0949 27.3883 44.3714 27.6353C44.4583 27.7131 44.5659 27.756 44.6741 27.756C44.8024 27.756 44.9237 27.6765 44.9668 27.5692C45.0088 27.4647 45.0205 27.329 44.9441 27.2226C44.8495 27.0905 44.795 27.0536 44.7343 27.0042C44.3758 26.7118 43.9803 26.4827 43.6627 26.3098C42.688 25.7795 41.5985 25.4812 40.512 25.4473C39.3636 25.4123 38.2989 25.7721 37.3233 26.1635C36.3512 26.5536 35.311 26.9748 34.1742 26.99L34.1079 26.9904C32.7782 26.9905 31.3759 26.4403 30.4546 25.6177C30.3086 25.4875 30.0435 25.5065 29.9293 25.691C29.8455 25.8264 29.8908 26.0044 29.9284 26.0656C29.9566 26.1113 29.9921 26.1645 30.058 26.2178Z" fill="#53A63A"/>
<path d="M30.058 29.789C30.3537 30.0275 30.7121 30.2487 31.1858 30.4854C32.1854 30.9847 33.3016 31.2289 34.4027 31.1865C35.5719 31.1412 36.6447 30.7446 37.6432 30.3425C38.4432 30.0202 39.3985 29.6656 40.4423 29.6656C40.5378 29.6656 40.6343 29.6683 40.7291 29.6738C41.5909 29.7225 42.4799 30.0205 43.3654 30.5103C43.7657 30.7316 44.0949 30.9594 44.3714 31.2065C44.4583 31.2843 44.5659 31.3272 44.6741 31.3272C44.8024 31.3272 44.9237 31.2476 44.9668 31.1403C45.0088 31.0359 45.0205 30.9002 44.9441 30.7937C44.8495 30.6616 44.795 30.6247 44.7343 30.5753C44.3758 30.283 43.9803 30.0539 43.6627 29.881C42.688 29.3507 41.5985 29.0524 40.512 29.0185C39.3636 28.9835 38.2989 29.3432 37.3233 29.7346C36.3512 30.1248 35.311 30.546 34.1742 30.5611L34.1079 30.5615C32.7782 30.5616 31.3759 30.0115 30.4546 29.1889C30.3086 29.0586 30.0435 29.0777 29.9293 29.2621C29.8455 29.3976 29.8908 29.5756 29.9284 29.6367C29.9566 29.6824 29.9921 29.7356 30.058 29.789Z" fill="#53A63A"/>
<path d="M30.058 33.3602C30.3537 33.5986 30.7121 33.8199 31.1858 34.0566C32.1854 34.5559 33.3016 34.8001 34.4027 34.7577C35.5719 34.7123 36.6447 34.3158 37.6432 33.9137C38.4432 33.5913 39.3985 33.2368 40.4423 33.2368C40.5378 33.2368 40.6343 33.2395 40.7291 33.245C41.5909 33.2936 42.4799 33.5917 43.3654 34.0815C43.7657 34.3028 44.0949 34.5306 44.3714 34.7776C44.4583 34.8554 44.5659 34.8984 44.6741 34.8984C44.8024 34.8984 44.9237 34.8188 44.9668 34.7115C45.0088 34.6071 45.0205 34.4713 44.9441 34.3649C44.8495 34.2328 44.795 34.1959 44.7343 34.1465C44.3758 33.8542 43.9803 33.625 43.6627 33.4522C42.688 32.9219 41.5985 32.6236 40.512 32.5896C39.3636 32.5547 38.2989 32.9144 37.3233 33.3058C36.3512 33.6959 35.311 34.1172 34.1742 34.1323L34.1079 34.1327C32.7782 34.1328 31.3759 33.5827 30.4546 32.76C30.3086 32.6298 30.0435 32.6489 29.9293 32.8333C29.8455 32.9688 29.8908 33.1467 29.9284 33.2079C29.9566 33.2536 29.9921 33.3068 30.058 33.3602Z" fill="#53A63A"/>
</g>
<rect x="0.5" y="0.5" width="59" height="59" rx="29.5" stroke="#E4E4E7"/>
<defs>
<clipPath id="clip0_117_18578">
<rect width="60" height="60" rx="30" fill="white"/>
</clipPath>
</defs>
</svg>
