<svg width="60" height="60" viewBox="0 0 60 60" fill="none" xmlns="http://www.w3.org/2000/svg">
<g clip-path="url(#clip0_117_18596)">
<rect width="60" height="60" rx="30" fill="#FECA08"/>
<rect x="13" y="13" width="34" height="34" rx="4" fill="#FECA08"/>
<path d="M27.852 17.3535C26.9381 17.5141 26.1391 17.74 25.2153 18.1014C24.671 18.3172 23.3127 19.0299 23.083 19.2256C23.058 19.2457 22.9032 19.3511 22.7484 19.4515C21.8395 20.0437 20.5362 21.2935 19.8221 22.2622C18.6336 23.8632 17.9145 25.4443 17.515 27.3415C17.3002 28.3553 17.2453 28.9124 17.2503 30.0769C17.2603 32.1046 17.6548 33.8311 18.5387 35.648C20.1317 38.9305 23.0131 41.3396 26.5786 42.3686C27.7022 42.6898 28.2365 42.75 30.0093 42.75C31.3776 42.75 31.6672 42.7349 32.2015 42.6446C34.1741 42.3083 36.1616 41.425 37.8345 40.1451C38.0442 39.9845 38.4687 39.6081 38.7833 39.3069C40.8806 37.2943 42.209 34.7295 42.6384 31.8335C42.7633 31.0004 42.7882 29.324 42.6884 28.5209C42.219 24.7617 40.3164 21.6097 37.1903 19.4013C35.787 18.4075 33.8095 17.6195 31.9968 17.3284C31.2727 17.213 28.5661 17.228 27.852 17.3535ZM35.7671 18.6585C35.782 18.6886 35.7621 18.6936 35.7221 18.6786C35.6322 18.6434 35.6172 18.6083 35.6872 18.6083C35.7171 18.6083 35.7521 18.6284 35.7671 18.6585ZM31.1479 21.2433C32.7758 21.4892 34.3638 22.2923 35.5923 23.4969C36.606 24.4856 37.415 25.7906 37.8445 27.1307L38.0092 27.6426L38.3139 27.7882C40.4712 28.8171 38.4537 29.9263 33.4949 30.4332C32.4362 30.5386 29.7047 30.5838 28.5461 30.5085C24.8208 30.2676 21.7447 29.6 20.8907 28.8422C20.7409 28.7117 20.711 28.6514 20.711 28.4908C20.711 28.2248 20.9307 28.014 21.465 27.7731L21.8845 27.5824L22.0343 27.1005C22.1142 26.8396 22.309 26.3627 22.4588 26.0415C23.3377 24.2246 24.676 22.8444 26.3788 21.9962C27.1928 21.5946 27.9419 21.3638 28.9506 21.2031C29.2802 21.1479 30.7134 21.173 31.1479 21.2433ZM20.6161 29.7004C20.8658 29.9062 21.6198 30.2525 22.2091 30.4432C24.6211 31.2162 28.9856 31.6478 32.3763 31.4571C35.5274 31.2764 37.6597 30.8648 38.978 30.1823L39.3875 29.9664V30.2324C39.3875 30.9652 39.0679 32.486 38.7084 33.4446C38.194 34.8249 37.5648 35.8538 36.6909 36.7271C35.9019 37.5252 35.2277 37.9518 33.9693 38.4587C33.0555 38.8251 32.3913 38.9656 31.1978 39.0359C28.7509 39.1915 26.8383 38.6143 25.2303 37.2491C24.7409 36.8275 24.1117 36.0947 23.6772 35.4372C23.2478 34.7898 22.4288 33.1887 22.1142 32.3856C21.7946 31.5725 21.6648 31.3065 21.5749 31.3065C21.505 31.3065 21.5 31.3768 21.5249 31.8687C21.5998 33.2338 22.1042 34.6994 22.9382 35.9542C23.3626 36.5916 23.5274 36.7974 24.0767 37.3746C24.3264 37.6356 24.4662 37.8062 24.3814 37.756C23.9769 37.5051 23.4725 37.0785 22.9981 36.5866C21.6947 35.2264 20.7809 33.274 20.4912 31.2061C20.4013 30.5637 20.3364 29.5499 20.3864 29.5499C20.4063 29.5499 20.5062 29.6201 20.6161 29.7004Z" fill="#513D2C"/>
</g>
<rect x="0.5" y="0.5" width="59" height="59" rx="29.5" stroke="#E4E4E7"/>
<defs>
<clipPath id="clip0_117_18596">
<rect width="60" height="60" rx="30" fill="white"/>
</clipPath>
</defs>
</svg>
