<svg width="60" height="60" viewBox="0 0 60 60" fill="none" xmlns="http://www.w3.org/2000/svg">
<g clip-path="url(#clip0_117_18592)">
<rect width="60" height="60" rx="30" fill="#DA3743"/>
<path d="M33.291 21C28.4813 21 24.5824 24.8053 24.5824 29.5C24.5824 34.1947 28.4813 38 33.291 38C38.1008 38 42 34.1947 42 29.5C42 24.8053 38.1011 21 33.291 21ZM33.291 31.625C33.0045 31.6272 32.7203 31.5738 32.4551 31.4678C32.1899 31.3618 31.949 31.2054 31.7464 31.0076C31.5437 30.8098 31.3834 30.5747 31.2748 30.3158C31.1662 30.057 31.1115 29.7797 31.1138 29.5C31.1115 29.2203 31.1662 28.943 31.2748 28.6842C31.3834 28.4253 31.5437 28.1902 31.7464 27.9924C31.949 27.7946 32.1899 27.6382 32.4551 27.5322C32.7203 27.4262 33.0045 27.3728 33.291 27.375C33.5776 27.3728 33.8617 27.4262 34.1269 27.5322C34.3921 27.6382 34.6331 27.7946 34.8357 27.9924C35.0383 28.1902 35.1986 28.4253 35.3072 28.6842C35.4158 28.943 35.4706 29.2203 35.4683 29.5C35.4683 30.6364 34.4558 31.625 33.291 31.625ZM18.0001 29.5C17.9978 29.2203 18.0525 28.943 18.1611 28.6842C18.2697 28.4253 18.43 28.1902 18.6326 27.9924C18.8353 27.7946 19.0762 27.6382 19.3414 27.5322C19.6066 27.4262 19.8908 27.3728 20.1773 27.375C20.4639 27.3728 20.748 27.4262 21.0132 27.5322C21.2784 27.6382 21.5193 27.7946 21.722 27.9924C21.9246 28.1902 22.0849 28.4253 22.1935 28.6842C22.3021 28.943 22.3569 29.2203 22.3546 29.5C22.3569 29.7797 22.3021 30.057 22.1935 30.3158C22.0849 30.5747 21.9246 30.8098 21.722 31.0076C21.5193 31.2054 21.2784 31.3618 21.0132 31.4678C20.748 31.5738 20.4639 31.6272 20.1773 31.625C18.9619 31.625 18.0001 30.6364 18.0001 29.5Z" fill="white"/>
</g>
<rect x="0.5" y="0.5" width="59" height="59" rx="29.5" stroke="#E4E4E7"/>
<defs>
<clipPath id="clip0_117_18592">
<rect width="60" height="60" rx="30" fill="white"/>
</clipPath>
</defs>
</svg>
