<svg width="60" height="60" viewBox="0 0 60 60" fill="none" xmlns="http://www.w3.org/2000/svg">
<g clip-path="url(#clip0_117_18570)">
<rect width="60" height="60" rx="30" fill="white"/>
<path d="M38.0401 22.5104L40.4561 34.7246L30.8686 39.8661L28.4539 27.6518L38.0401 22.5104Z" fill="#A7D59E"/>
<path d="M28.4539 27.6517L30.8686 39.8659L21.8238 37.6767L19.4091 25.4637L28.4539 27.6517Z" fill="#073F2C"/>
<path d="M38.0402 22.5102L28.454 27.6516L19.4092 25.4637L24.2036 22.893L28.9967 20.3223L38.0402 22.5102Z" fill="#80B927"/>
<path d="M40.002 45.3423L42.8896 46.7825L42.1292 43.6465L41.2385 39.9728C43.6692 37.2701 45.1505 33.6942 45.1505 29.7749C45.1505 21.335 38.2913 14.5 29.8384 14.5C21.3856 14.5 14.5264 21.335 14.5264 29.7749C14.5264 38.2148 21.3856 45.0498 29.8384 45.0498C32.1977 45.0498 34.4358 44.5166 36.435 43.5632L40.002 45.3423Z" stroke="#80BA27" stroke-width="3"/>
</g>
<rect x="0.5" y="0.5" width="59" height="59" rx="29.5" stroke="#E4E4E7"/>
<defs>
<clipPath id="clip0_117_18570">
<rect width="60" height="60" rx="30" fill="white"/>
</clipPath>
</defs>
</svg>
