<svg width="60" height="60" viewBox="0 0 60 60" fill="none" xmlns="http://www.w3.org/2000/svg">
<g clip-path="url(#clip0_117_18587)">
<rect width="60" height="60" rx="30" fill="#DA552F"/>
<path d="M46 30C46 38.8392 38.8402 45.999 30.0011 45.999C21.1619 45.999 14.0009 38.8404 14.0009 30C14.0009 21.1597 21.1607 14.0011 29.9998 14.0011C38.839 14.0011 46 21.1609 46 30Z" fill="#DA552F"/>
<path d="M32.1341 30.0001H27.6006V25.2131H32.1341C33.454 25.2131 34.5349 26.2929 34.5349 27.6139C34.5349 28.935 33.4552 30.0147 32.1341 30.0147M32.1341 22.0153H24.4003V38.0142H27.6006V33.215H32.1341C35.2272 33.215 37.734 30.7082 37.734 27.6151C37.734 24.5221 35.2272 22.0153 32.1341 22.0153Z" fill="white"/>
</g>
<rect x="0.5" y="0.5" width="59" height="59" rx="29.5" stroke="#E4E4E7"/>
<defs>
<clipPath id="clip0_117_18587">
<rect width="60" height="60" rx="30" fill="white"/>
</clipPath>
</defs>
</svg>
