<svg width="60" height="60" viewBox="0 0 60 60" fill="none" xmlns="http://www.w3.org/2000/svg">
<g clip-path="url(#clip0_117_18602)">
<rect width="60" height="60" rx="30" fill="#52A2A6"/>
<path d="M30.0003 46.7065C20.7884 46.7065 13.2939 39.212 13.2939 30.0001C13.2939 20.7882 20.7884 13.2938 30.0003 13.2938C39.2122 13.2938 46.7066 20.7882 46.7066 30.0001C46.7289 39.212 39.2345 46.7065 30.0003 46.7065Z" fill="#52A2A6"/>
<path d="M30 14.5651C38.5204 14.5651 45.4126 21.4796 45.4126 29.9777C45.4126 38.4981 38.4981 45.3903 30 45.3903C21.5019 45.3903 14.5874 38.4758 14.5874 29.9777C14.5874 21.4796 21.5019 14.5651 30 14.5651ZM30 12C20.0743 12 12 20.0743 12 30C12 39.9257 20.0743 48 30 48C39.9257 48 48 39.9257 48 30C48 20.0743 39.9257 12 30 12Z" fill="#3D9A9E"/>
<path d="M29.7323 44.7213C29.1747 44.7213 28.7955 44.2975 28.5725 43.4499L24.7137 27.7919L23.2193 34.238C23.0409 34.9741 22.6171 35.4871 22.0372 35.6209C21.4572 35.7548 20.855 35.4871 20.3866 34.8849L19.8736 34.238C19.4498 33.7027 18.4238 33.212 17.7323 33.212H14.8996C14.8996 33.212 14.8104 32.8328 14.7435 32.4314C14.6766 32.0299 14.632 31.6284 14.632 31.6284H17.7323C18.8922 31.6284 20.3866 32.3421 21.1227 33.2566L21.6357 33.9035C21.6357 33.9258 21.658 33.9258 21.658 33.9481C21.658 33.9258 21.658 33.9258 21.6803 33.9035L23.5316 25.896C23.7323 25.0261 24.1115 24.6024 24.6914 24.6024C25.2491 24.6024 25.6505 25.0261 25.8513 25.896L29.6654 41.3979L34.5279 18.1563C34.7063 17.2864 35.0855 16.8403 35.6654 16.8403C36.2453 16.818 36.6245 17.2641 36.8253 18.134L39.881 30.647C40.0149 31.2046 40.6394 31.6953 41.2193 31.6953H45.3011C45.3011 31.6953 45.2565 32.186 45.2119 32.4537C45.1673 32.7213 45.0558 33.2789 45.0558 33.2789H41.2639C39.9702 33.2789 38.6989 32.2752 38.3866 31.0262L35.7546 20.2529L30.8922 43.4946C30.7137 44.2752 30.3346 44.7213 29.7323 44.7213Z" fill="white"/>
</g>
<rect x="0.5" y="0.5" width="59" height="59" rx="29.5" stroke="#E4E4E7"/>
<defs>
<clipPath id="clip0_117_18602">
<rect width="60" height="60" rx="30" fill="white"/>
</clipPath>
</defs>
</svg>
