<svg width="60" height="60" viewBox="0 0 60 60" fill="none" xmlns="http://www.w3.org/2000/svg">
<g clip-path="url(#clip0_117_18608)">
<rect width="60" height="60" rx="30" fill="#4171D6"/>
<path d="M26.6812 34.9146C27.3678 35.0448 27.9564 35.1099 28.4796 35.1099C29.4278 35.1099 30.1798 34.9797 30.6376 34.6868C31.1281 34.4264 31.3569 34.0684 31.3569 33.6453C31.3569 33.2547 31.1935 32.9292 30.8338 32.6689C30.4741 32.4085 30.0163 32.1807 29.4932 31.9854C28.9373 31.7575 28.3488 31.5297 27.7275 31.2693C27.1063 31.009 26.5177 30.6835 25.9619 30.2929C25.406 29.9024 24.9809 29.4142 24.6213 28.8283C24.2616 28.2425 24.0981 27.5264 24.0981 26.6151C24.0981 25.8665 24.2289 25.1505 24.5232 24.4995C24.7847 23.8486 25.2425 23.2953 25.7984 22.8396C26.3542 22.384 27.1063 22.0259 27.9564 21.7656C28.8392 21.5052 29.8529 21.375 31.03 21.375C31.9128 21.375 32.6975 21.4401 33.3842 21.5377C34.0708 21.6679 34.6594 21.7656 35.1499 21.8632C35.1499 21.8632 35.4768 22.2212 35.3134 23.6858C35.1499 25.1505 34.8229 25.4434 34.8229 25.4434C34.3324 25.2807 33.842 25.1505 33.3188 25.0528C32.7956 24.9552 32.2398 24.8901 31.6185 24.8901C30.6703 24.8901 29.9183 25.0203 29.4605 25.2807C28.97 25.541 28.7411 25.8665 28.7411 26.2571C28.7411 26.5825 28.9046 26.8429 29.2643 27.0708C29.624 27.266 30.0817 27.4939 30.6049 27.6892C31.1608 27.8844 31.7493 28.1123 32.3706 28.3726C32.9918 28.633 33.5804 28.9585 34.1362 29.3491C34.6921 29.7396 35.1172 30.2604 35.4768 30.9113C35.8365 31.5297 36 32.3434 36 33.2873C36 34.0358 35.8692 34.7193 35.5749 35.3703C35.2807 36.0212 34.8556 36.5745 34.2997 37.0627C33.7439 37.5509 33.0245 37.909 32.1744 38.2019C31.3242 38.4623 30.3106 38.625 29.1989 38.625C28.4142 38.625 27.564 38.5599 26.6812 38.4297C25.7984 38.2995 24.9809 38.1042 24.2289 37.8439C24.2289 37.8439 24 37.2255 24 36.0863C24 34.9797 24.5559 34.2311 24.5559 34.2311C25.2752 34.5566 25.9946 34.7844 26.6812 34.9146Z" fill="white"/>
</g>
<rect x="0.5" y="0.5" width="59" height="59" rx="29.5" stroke="#E4E4E7"/>
<defs>
<clipPath id="clip0_117_18608">
<rect width="60" height="60" rx="30" fill="white"/>
</clipPath>
</defs>
</svg>
