<svg width="60" height="60" viewBox="0 0 60 60" fill="none" xmlns="http://www.w3.org/2000/svg">
<g clip-path="url(#clip0_117_18615)">
<rect width="60" height="60" rx="30" fill="#16477A"/>
<path d="M37.6203 36.5693C38.9873 34.7509 39.7722 32.4715 39.7722 30.0128C39.7722 23.943 34.9114 19 28.8861 19C22.8861 19 18 23.9173 18 30.0128C18 36.0827 22.8608 41 28.8861 41H28.9114H42L37.6203 36.5693Z" fill="#EF6A23"/>
<path d="M35.1643 28.4764L34.5061 29.1167C33.7973 29.8338 33.0884 30.4997 32.3542 31.2168C32.3795 31.2936 32.3795 31.3705 32.4049 31.4473L33.0124 35.1609C33.0124 35.3402 32.9365 35.4939 32.7846 35.5963C32.6327 35.6732 32.4808 35.6732 32.3542 35.6219C32.177 35.5195 31.9745 35.417 31.7973 35.3146L29.9998 34.3414C29.62 34.1365 29.2656 33.9316 28.8859 33.7267C28.5314 33.9316 28.1517 34.1365 27.7973 34.3158L25.9998 35.289C25.8226 35.3914 25.62 35.4939 25.4428 35.5963C25.3922 35.6475 25.2909 35.6475 25.2403 35.6475C25.1643 35.6475 25.0884 35.6219 25.0124 35.5963C24.8606 35.5195 24.7846 35.3658 24.7846 35.1609V35.1097L25.3922 31.4217C25.4175 31.3449 25.4175 31.268 25.4428 31.1912C24.734 30.4741 24.0251 29.8082 23.2909 29.0911L22.6327 28.4508C22.4808 28.2971 22.4555 28.1435 22.5061 27.9642C22.5568 27.8105 22.7087 27.6825 22.8859 27.6569C23.1643 27.6056 23.4175 27.58 23.696 27.5288L26.4049 27.119C26.5314 27.0934 26.6327 27.0678 26.734 27.0678C26.7846 26.991 26.8099 26.9141 26.8606 26.8373C26.9112 26.7349 26.9618 26.658 27.0124 26.5556L27.3922 25.7616C27.5441 25.4799 27.6707 25.1982 27.7973 24.9165C28.0251 24.4555 28.253 23.9945 28.4808 23.5335C28.5568 23.3798 28.7087 23.2773 28.9112 23.2773C29.0631 23.2773 29.2403 23.3798 29.3162 23.5335C29.5441 23.9945 29.7719 24.4555 29.9998 24.9165C30.1517 25.1982 30.2783 25.4799 30.4049 25.7616L30.7846 26.5556C30.8352 26.658 30.8859 26.7349 30.9365 26.8373C30.9871 26.9141 31.0124 26.991 31.0631 27.0678C31.1897 27.0934 31.2909 27.119 31.3922 27.119L34.1011 27.5288C34.3795 27.58 34.6327 27.6056 34.9112 27.6569C35.0884 27.6825 35.2403 27.8105 35.2909 27.9642C35.3416 28.1691 35.2909 28.3227 35.1643 28.4764Z" fill="white"/>
</g>
<rect x="0.5" y="0.5" width="59" height="59" rx="29.5" stroke="#E4E4E7"/>
<defs>
<clipPath id="clip0_117_18615">
<rect width="60" height="60" rx="30" fill="white"/>
</clipPath>
</defs>
</svg>
