<svg width="60" height="60" viewBox="0 0 60 60" fill="none" xmlns="http://www.w3.org/2000/svg">
<g clip-path="url(#clip0_117_18623)">
<rect width="60" height="60" rx="30" fill="#7FC9F2"/>
<path d="M40.222 29.8046C40.0827 30.1144 40.013 30.4937 39.9497 30.8351V30.9046C39.5 32.0362 38.7147 33.1678 38.0243 33.1678C37.6823 33.1678 37.543 32.719 37.4417 31.9667L37.2327 30.5948L37.1947 30.1144L36.4727 30.0132L35.7507 31.6253L35.8203 30.3925L35.0667 30.2914C34.8957 30.9805 34.617 31.6316 34.313 32.1816C33.9077 33.0034 33.0653 33.5218 32.147 33.5218H32.1153C31.3933 33.5218 30.741 33.3132 30.1203 33.0098V32.6684C31.6783 31.9098 33.059 30.8351 34.18 29.5075V29.4759L33.5973 29.027C32.7043 30.1839 31.5643 31.1195 30.2597 31.7707L30.19 31.8023C30.2597 29.7098 30.399 27.5477 30.5003 26.5868L29.7467 26.5172C29.6453 27.5477 29.506 29.9184 29.4047 32.1437L28.8917 32.2828L28.6827 32.9339L29.373 33.4144L29.3413 35.8167V35.8862H30.095V33.8253C30.7157 34.0971 31.3997 34.2741 32.1217 34.2741H32.1533C33.325 34.2741 34.3573 33.623 34.902 32.6621L34.731 34.0023L35.453 34.2109L36.6247 31.5684L36.6943 32.0805C36.764 32.6621 36.9667 33.9328 38.0687 33.9328C38.759 33.9328 39.3733 33.4207 39.8547 32.7C39.9243 33.2816 40.0637 33.8 40.336 34.173C40.6083 34.5839 41.058 34.8621 41.609 34.8621C42.1663 34.8874 42.6793 34.5776 42.9137 34.0718C43.2937 33.2816 43.1227 32.0805 42.464 31.1891C42.3563 31.069 42.2423 30.9489 42.122 30.8477H43.908V31.9793C43.8763 34.0402 44.079 35.0707 44.5983 35.6207C44.839 35.8609 45.1493 36 45.4913 36H45.523C46.967 36 48.031 33.9391 48.2717 33.1172L47.518 32.9086C47.309 33.6989 46.3843 35.2414 45.523 35.2414C45.352 35.2414 45.2507 35.1718 45.181 35.1023C44.6997 34.6218 44.63 33.0793 44.63 31.9414V30.7718C46.131 30.677 47.613 30.3293 49 29.7414L48.6897 29.0523C47.6573 29.5328 46.2133 29.8741 44.6997 30.0132C44.7313 29.0523 44.839 28.3 44.972 27.1305L45.0417 26.2011L44.288 26.1L44.1867 27.0293C44.0853 27.8511 44.0157 28.8816 43.946 29.95V30.0511C43.9333 30.0448 41.7673 30.1839 40.222 29.8046ZM42.217 33.7178C42.0777 33.9897 41.875 34.0971 41.6343 34.0971C41.324 34.0971 41.0833 33.958 40.944 33.7557C40.564 33.1741 40.5323 32.0425 40.6717 31.1132L40.7413 30.7718C41.153 30.9805 41.6027 31.3218 41.8433 31.6632C42.388 32.3839 42.4577 33.2753 42.217 33.7178ZM24.262 34.7483C23.711 34.7483 23.5083 34.2994 23.4387 33.819C24.8827 33.1678 25.5033 31.6885 25.5033 30.9678C25.5033 30.3483 25.0917 30.108 24.7117 30.108C23.8503 30.108 22.7167 31.581 22.647 33.3006L21.925 33.3701C21.583 33.3701 21.3423 33.3006 21.203 33.1299C20.7217 32.6178 20.7533 31.4799 20.7533 30.6264V30.2155L20.063 29.9753L18.1693 32.719C18.1377 31.2776 18.239 29.558 18.41 28.1546C18.752 26.7828 19.0623 25.4425 18.8597 25.1707C18.79 25.0695 18.6887 25 18.5177 25L18.2453 25.1391C17.8907 26.0621 17.6943 27.0356 17.6627 28.0218C17.3523 29.1914 17.042 30.1144 16.7 31.0437L16.7697 30.873C15.978 32.7253 14.534 34.6155 13.9513 34.7167C13.85 34.546 13.7423 33.9264 13.85 32.1753V32.0046L13.9893 30.6328L16.054 30.3609L15.9147 29.6086L14.0907 29.8489L14.1223 29.5075C14.2237 28.8184 14.3313 27.9966 14.3947 27.0672L13.641 26.9977C13.5713 27.927 13.47 28.7109 13.3687 29.4L13.337 29.9121L11 30.1523L11.0697 30.9425L13.2357 30.7339L13.1343 31.9667V32.1753C12.995 33.7874 13.033 34.8874 13.4447 35.2983C13.546 35.4374 13.717 35.5069 13.8943 35.5069C14.4453 35.5069 15.0977 34.9948 15.8893 33.9644C16.472 33.1741 17.023 32.2828 17.4347 31.3218V31.2523C17.4347 32.3144 17.4347 33.3132 17.5043 33.9328L18.1947 34.1034L19.208 32.5862L19.9997 31.4862C19.9997 32.308 20.139 33.1678 20.652 33.6862C20.9877 34.0276 21.45 34.2109 21.925 34.1983L22.7483 34.0971H22.6787C22.8497 35.0264 23.4007 35.5385 24.224 35.5385C25.668 35.5385 26.4597 34.0971 26.7003 32.858L25.9467 32.719C25.9467 32.7885 25.535 34.7799 24.2303 34.7799L24.262 34.7483ZM24.7117 30.9046V30.9741C24.7117 31.3155 24.3697 32.3839 23.4387 32.9655C23.6097 31.7644 24.4013 30.9046 24.7117 30.9046Z" fill="white"/>
</g>
<rect x="0.5" y="0.5" width="59" height="59" rx="29.5" stroke="#E4E4E7"/>
<defs>
<clipPath id="clip0_117_18623">
<rect width="60" height="60" rx="30" fill="white"/>
</clipPath>
</defs>
</svg>
