<svg width="60" height="60" viewBox="0 0 60 60" fill="none" xmlns="http://www.w3.org/2000/svg">
<g clip-path="url(#clip0_117_18626)">
<rect width="60" height="60" rx="30" fill="white"/>
<path d="M24.7909 33.0476L26.9509 35.2075C24.8228 37.01 21.7175 39.8042 21.0759 40.3087C19.4449 41.587 18 41.9985 18 41.9985C18 41.9985 18.4114 40.5536 19.6898 38.9226C20.1943 38.281 22.991 35.1757 24.7909 33.0476ZM41.5417 24.2387L35.7622 18.4592C35.15 17.8469 34.1582 17.8469 33.5459 18.4592C32.9337 19.0714 32.9337 20.0632 33.5459 20.6755L34.0063 21.1359L25.5624 27.0966L23.6938 25.2305C23.0816 24.6183 22.0897 24.6183 21.4775 25.2305C20.8653 25.8428 20.8653 26.8346 21.4775 27.4468L32.5517 38.521C33.1639 39.1332 34.1557 39.1332 34.7679 38.521C35.3802 37.9087 35.3802 36.9169 34.7679 36.3047L32.9019 34.4386L38.865 25.9921L39.3254 26.4525C39.9377 27.0648 40.9295 27.0648 41.5417 26.4525C42.1515 25.8403 42.154 24.8485 41.5417 24.2387Z" fill="black"/>
</g>
<rect x="0.5" y="0.5" width="59" height="59" rx="29.5" stroke="#E4E4E7"/>
<defs>
<clipPath id="clip0_117_18626">
<rect width="60" height="60" rx="30" fill="white"/>
</clipPath>
</defs>
</svg>
