<svg width="60" height="60" viewBox="0 0 60 60" fill="none" xmlns="http://www.w3.org/2000/svg">
<g clip-path="url(#clip0_117_18629)">
<rect width="60" height="60" rx="30" fill="#34E0A1"/>
<path d="M30 48C39.9411 48 48 39.9411 48 30C48 20.0589 39.9411 12 30 12C20.0589 12 12 20.0589 12 30C12 39.9411 20.0589 48 30 48Z" fill="#34E0A1"/>
<path d="M41.1176 26.4884L43.2898 24.1251H38.4733C36.062 22.4777 33.1497 21.5186 30.0003 21.5186C26.8549 21.5186 23.9507 22.4797 21.5434 24.1251H16.7148L18.887 26.4884C17.5554 27.7034 16.7209 29.4527 16.7209 31.3957C16.7209 35.0623 19.6932 38.0347 23.3598 38.0347C25.1016 38.0347 26.6884 37.3631 27.8731 36.2647L30.0008 38.5816L32.1285 36.2667C33.3132 37.3646 34.898 38.0347 36.6397 38.0347C40.3058 38.0347 43.2827 35.0623 43.2827 31.3957C43.2837 29.4512 42.4492 27.7014 41.1176 26.4884ZM23.3613 35.8888C20.8794 35.8888 18.8683 33.8776 18.8683 31.3957C18.8683 28.9138 20.8794 26.9027 23.3613 26.9027C25.8433 26.9027 27.8544 28.9138 27.8544 31.3957C27.8544 33.8776 25.8433 35.8888 23.3613 35.8888ZM30.0023 31.265C30.0023 28.3084 27.8524 25.7704 25.0148 24.6867C26.5491 24.0449 28.2328 23.6892 30.0003 23.6892C31.7677 23.6892 33.4535 24.0449 34.9878 24.6867C32.1522 25.7725 30.0023 28.3089 30.0023 31.265ZM36.6412 35.8888C34.1593 35.8888 32.1482 33.8776 32.1482 31.3957C32.1482 28.9138 34.1593 26.9027 36.6412 26.9027C39.1231 26.9027 41.1343 28.9138 41.1343 31.3957C41.1343 33.8776 39.1226 35.8888 36.6412 35.8888ZM36.6412 29.0384C35.34 29.0384 34.286 30.0925 34.286 31.3937C34.286 32.695 35.34 33.749 36.6412 33.749C37.9425 33.749 38.9965 32.695 38.9965 31.3937C38.996 30.0945 37.9425 29.0384 36.6412 29.0384ZM25.7166 31.3957C25.7166 32.697 24.6626 33.751 23.3613 33.751C22.0601 33.751 21.0061 32.697 21.0061 31.3957C21.0061 30.0945 22.0601 29.0405 23.3613 29.0405C24.6626 29.0384 25.7166 30.0945 25.7166 31.3957Z" fill="black"/>
</g>
<rect x="0.5" y="0.5" width="59" height="59" rx="29.5" stroke="#E4E4E7"/>
<defs>
<clipPath id="clip0_117_18629">
<rect width="60" height="60" rx="30" fill="white"/>
</clipPath>
</defs>
</svg>
