<svg width="60" height="60" viewBox="0 0 60 60" fill="none" xmlns="http://www.w3.org/2000/svg">
<g clip-path="url(#clip0_117_18637)">
<rect width="60" height="60" rx="30" fill="#FFDC12"/>
<rect x="13" y="13" width="34" height="34" rx="4" fill="#FFDC12"/>
<path d="M33.8095 32.7875C32.4946 34.731 30.6658 36.5025 28.207 36.5025C25.6072 36.5025 24.0928 34.8745 24.0928 32.2448C24.0928 27.9883 27.2364 23.8155 31.6651 23.8155C33.1497 23.8155 35.1506 24.4155 35.1506 26.2168C35.1506 29.4442 30.0932 30.5307 27.607 31.1595C27.5209 31.7057 27.4361 32.2448 27.4361 32.7875C27.4361 33.9027 28.0349 34.9307 29.2649 34.9307C30.8642 34.9307 32.148 33.3887 33.0935 32.2448L33.8095 32.7875ZM32.4372 25.8451C32.4372 25.1877 32.0667 24.6761 31.3806 24.6761C29.3223 24.6761 28.2632 28.6756 27.8664 30.2462C29.7801 29.6725 32.4372 28.1018 32.4372 25.8451ZM30 15.6563C27.1629 15.6563 24.3896 16.4976 22.0307 18.0739C19.6718 19.6501 17.8333 21.8905 16.7478 24.5117C15.6622 27.1329 15.3784 30.0171 15.9321 32.7996C16.4859 35.5822 17.8523 38.138 19.8587 40.1438C21.8651 42.1497 24.4212 43.5155 27.2039 44.0686C29.9865 44.6216 32.8707 44.3371 35.4916 43.2509C38.1125 42.1647 40.3525 40.3256 41.9281 37.9663C43.5038 35.6071 44.3445 32.8335 44.3438 29.9964C44.3438 28.1129 43.9727 26.2479 43.2518 24.5078C42.5309 22.7678 41.4743 21.1868 40.1423 19.8551C38.8104 18.5235 37.2291 17.4673 35.4888 16.7468C33.7486 16.0264 31.8835 15.6558 30 15.6563ZM29.8805 38.9923C28.0925 38.9921 26.3448 38.4617 24.8584 37.4682C23.3719 36.4747 22.2134 35.0628 21.5293 33.4109C20.8453 31.759 20.6664 29.9413 21.0154 28.1878C21.3643 26.4343 22.2254 24.8236 23.4897 23.5594C24.7541 22.2952 26.3649 21.4344 28.1185 21.0857C29.872 20.7369 31.6897 20.916 33.3415 21.6003C34.9933 22.2846 36.4051 23.4433 37.3984 24.9299C38.3916 26.4165 38.9218 28.1643 38.9218 29.9522C38.9209 32.3492 37.968 34.6476 36.2727 36.3422C34.5775 38.0368 32.2786 38.9887 29.8817 38.9887L29.8805 38.9923Z" fill="black"/>
</g>
<rect x="0.5" y="0.5" width="59" height="59" rx="29.5" stroke="#E4E4E7"/>
<defs>
<clipPath id="clip0_117_18637">
<rect width="60" height="60" rx="30" fill="white"/>
</clipPath>
</defs>
</svg>
