<svg width="60" height="60" viewBox="0 0 60 60" fill="none" xmlns="http://www.w3.org/2000/svg">
<g clip-path="url(#clip0_117_18682)">
<rect width="60" height="60" rx="30" fill="#032774"/>
<path d="M25.3076 22.5441C25.3683 22.5735 25.4289 22.6029 25.4744 22.647L28.0973 25.1918C28.2034 25.2947 28.264 25.4271 28.264 25.5742V37.3124C28.264 37.4154 28.1882 37.4889 28.0821 37.4889C28.0366 37.4889 27.9911 37.4742 27.9608 37.4448L25.4896 35.0471C25.3834 34.9442 25.3228 34.8118 25.3228 34.6647V22.5441H25.3076Z" fill="url(#paint0_linear_117_18682)"/>
<path d="M32.5244 22.6617C32.5698 22.6176 32.6305 22.5735 32.6911 22.5441V34.6647C32.6911 34.8118 32.6305 34.9442 32.5244 35.0471L30.0531 37.4448C29.9773 37.5183 29.8712 37.5183 29.7954 37.4448C29.765 37.4154 29.7499 37.3712 29.7499 37.3271V25.5889C29.7499 25.4565 29.8105 25.3095 29.9166 25.2212L32.5244 22.6617Z" fill="url(#paint1_linear_117_18682)"/>
<path d="M37.2849 31.9877L37.1029 31.8112V29.3105H34.6014C34.5559 29.3105 34.5104 29.3253 34.4649 29.3694L32.6759 31.1051L38.4068 36.68C38.5129 36.783 38.6494 36.8271 38.801 36.8271H41.818C41.9242 36.8271 42 36.7535 42 36.6506C42 36.6065 41.9848 36.5623 41.9545 36.5329L37.2849 31.9877Z" fill="url(#paint2_linear_117_18682)"/>
<path d="M32.9033 22.5C32.7517 22.5 32.6153 22.5588 32.5091 22.6618L29.8863 25.2065C29.8408 25.2507 29.8105 25.3095 29.7802 25.3536H37.103V31.7964L37.2849 31.9729L39.8926 29.4576C39.9987 29.3546 40.0594 29.2222 40.0594 29.0751V25.589C40.0594 25.4419 39.9987 25.3095 39.8926 25.2065L37.2697 22.6618C37.1636 22.5588 37.0271 22.5 36.8755 22.5H32.9033Z" fill="url(#paint3_linear_117_18682)"/>
<path d="M25.4593 22.6618C25.3531 22.5588 25.2167 22.5 25.0651 22.5H18.1819C18.0758 22.5 18 22.5735 18 22.6765C18 22.7206 18.0152 22.7648 18.0606 22.8089L20.5319 25.2065C20.638 25.3095 20.7745 25.3684 20.9261 25.3684H27.9002C28.0973 25.3684 28.2641 25.5302 28.2641 25.7214V25.589C28.2641 25.4419 28.2034 25.3095 28.0973 25.2065L25.4593 22.6618Z" fill="url(#paint4_linear_117_18682)"/>
<path d="M32.5092 22.6618C32.6153 22.5588 32.7518 22.5 32.9034 22.5H36.8756C37.0272 22.5 37.1636 22.5588 37.2698 22.6618L39.8926 25.2065C39.9988 25.3095 40.0594 25.4419 40.0594 25.589V25.7214C40.0594 25.5302 39.8926 25.3684 39.6955 25.3684H30.1137C29.9167 25.3684 29.7499 25.5302 29.7499 25.7214V25.589C29.7499 25.4419 29.8105 25.3095 29.9166 25.2065L32.5092 22.6618Z" fill="url(#paint5_linear_117_18682)"/>
<path d="M40.0593 28.9427C40.0593 29.134 39.8926 29.2958 39.6955 29.2958H34.753C34.7075 29.2958 34.662 29.3399 34.662 29.384C34.662 29.4135 34.6771 29.4282 34.6923 29.4429L37.3 31.9729L39.9077 29.4576C40.0138 29.3546 40.0745 29.2222 40.0745 29.0751V28.9427H40.0593Z" fill="url(#paint6_linear_117_18682)"/>
</g>
<rect x="0.5" y="0.5" width="59" height="59" rx="29.5" stroke="#E4E4E7"/>
<defs>
<linearGradient id="paint0_linear_117_18682" x1="26.7859" y1="37.5392" x2="26.7859" y2="22.5069" gradientUnits="userSpaceOnUse">
<stop offset="0.71" stop-color="#116BF2"/>
<stop offset="1" stop-color="#1E50E5"/>
</linearGradient>
<linearGradient id="paint1_linear_117_18682" x1="31.2206" y1="37.542" x2="31.2206" y2="22.511" gradientUnits="userSpaceOnUse">
<stop offset="0.71" stop-color="#116BF2"/>
<stop offset="1" stop-color="#1E50E5"/>
</linearGradient>
<linearGradient id="paint2_linear_117_18682" x1="34.284" y1="29.6275" x2="41.2601" y2="36.8177" gradientUnits="userSpaceOnUse">
<stop offset="0.41" stop-color="#116BF2"/>
<stop offset="1" stop-color="#185DEC"/>
</linearGradient>
<linearGradient id="paint3_linear_117_18682" x1="34.9194" y1="31.9366" x2="34.9194" y2="22.4018" gradientUnits="userSpaceOnUse">
<stop offset="0.58" stop-color="#116BF2"/>
<stop offset="1" stop-color="#1E50E5"/>
</linearGradient>
<linearGradient id="paint4_linear_117_18682" x1="25.0232" y1="22.3256" x2="22.1613" y2="25.2754" gradientUnits="userSpaceOnUse">
<stop offset="0.03" stop-color="#59C5FF"/>
<stop offset="0.99" stop-color="#21B1FF"/>
</linearGradient>
<linearGradient id="paint5_linear_117_18682" x1="32.2347" y1="22.9544" x2="35.0967" y2="25.9043" gradientUnits="userSpaceOnUse">
<stop offset="0.04" stop-color="#59C5FF"/>
<stop offset="0.99" stop-color="#21B1FF"/>
</linearGradient>
<linearGradient id="paint6_linear_117_18682" x1="38.8163" y1="30.5829" x2="36.6699" y2="28.3705" gradientUnits="userSpaceOnUse">
<stop offset="0.04" stop-color="#57C4FF"/>
<stop offset="0.99" stop-color="#21B1FF"/>
</linearGradient>
<clipPath id="clip0_117_18682">
<rect width="60" height="60" rx="30" fill="white"/>
</clipPath>
</defs>
</svg>
