<svg width="536" height="72" viewBox="0 0 536 72" fill="none" xmlns="http://www.w3.org/2000/svg">
<mask id="mask0_2166_48986" style="mask-type:luminance" maskUnits="userSpaceOnUse" x="241" y="9" width="21" height="14">
<path d="M241.149 13.0329L242.999 22.0029L257.489 19.0129C259.969 18.5029 261.559 16.0729 261.049 13.6029C260.539 11.1229 258.119 9.53294 255.639 10.0429C255.639 10.0429 255.639 10.0429 255.629 10.0429L241.149 13.0329Z" fill="white"/>
</mask>
<g mask="url(#mask0_2166_48986)">
<path d="M152.649 -100.467H281.339V28.223H152.649V-100.467Z" fill="#D4D4D8"/>
</g>
<mask id="mask1_2166_48986" style="mask-type:luminance" maskUnits="userSpaceOnUse" x="101" y="39" width="82" height="27">
<path d="M127.349 65.8329C126.209 65.8329 125.059 65.7529 123.909 65.5829L101.689 62.3329L102.939 53.7829L125.159 57.0329C131.079 57.9029 136.979 55.1929 140.179 50.1329C145.839 41.2029 156.489 37.1029 166.669 39.9229L166.729 39.9429L182.199 44.4729L179.769 52.7729L164.329 48.2429C157.839 46.4629 151.069 49.0729 147.479 54.7529C143.099 61.6529 135.509 65.8229 127.349 65.8329Z" fill="white"/>
</mask>
<g mask="url(#mask1_2166_48986)">
<path d="M152.649 28.2229H281.339V156.913H152.649V28.2229Z" fill="#D4D4D8"/>
</g>
<mask id="mask2_2166_48986" style="mask-type:luminance" maskUnits="userSpaceOnUse" x="101" y="39" width="82" height="27">
<path d="M127.349 65.8329C126.209 65.8329 125.059 65.7529 123.909 65.5829L101.689 62.3329L102.939 53.7829L125.159 57.0329C131.079 57.9029 136.979 55.1929 140.179 50.1329C145.839 41.2029 156.489 37.1029 166.669 39.9229L166.729 39.9429L182.199 44.4729L179.769 52.7729L164.329 48.2429C157.839 46.4629 151.069 49.0729 147.479 54.7529C143.099 61.6529 135.509 65.8229 127.349 65.8329Z" fill="white"/>
</mask>
<g mask="url(#mask2_2166_48986)">
<path d="M23.959 28.2229H152.649V156.913H23.959V28.2229Z" fill="#D4D4D8"/>
</g>
<mask id="mask3_2166_48986" style="mask-type:luminance" maskUnits="userSpaceOnUse" x="357" y="41" width="78" height="29">
<path d="M409.779 69.7229C401.449 69.7229 393.639 65.2629 389.459 57.9229C386.179 52.1729 379.649 49.3029 373.199 50.7729L358.909 53.8829L357.109 45.5929L371.369 42.4829C381.449 40.1829 391.709 44.6928 396.849 53.7128C399.759 58.8228 405.419 61.7329 411.269 61.1629L433.209 58.9929L434.049 67.4328L412.109 69.6029C411.319 69.6829 410.549 69.7229 409.779 69.7229Z" fill="white"/>
</mask>
<g mask="url(#mask3_2166_48986)">
<path d="M269.97 32.5629H396.32V158.913H269.97V32.5629Z" fill="#BCBEC0"/>
</g>
<path d="M127.349 66.5227C126.169 66.5227 124.979 66.4327 123.809 66.2627L101.589 63.0127C101.409 62.9827 101.249 62.8927 101.139 62.7427C101.029 62.6027 100.979 62.4127 101.009 62.2327L102.259 53.6827C102.319 53.3027 102.659 53.0427 103.039 53.1027L125.259 56.3527C130.909 57.1827 136.549 54.5927 139.599 49.7727C145.419 40.5927 156.379 36.3627 166.859 39.2727C166.859 39.2727 166.919 39.2927 166.929 39.2927L182.399 43.8227C182.569 43.8827 182.719 43.9927 182.809 44.1527C182.899 44.3127 182.919 44.5027 182.869 44.6727L180.439 52.9727C180.329 53.3327 179.949 53.5427 179.589 53.4427L164.149 48.9127C157.969 47.2127 151.509 49.7127 148.069 55.1327C143.539 62.2627 135.789 66.5227 127.349 66.5227ZM102.459 61.7527L123.999 64.9027C125.109 65.0627 126.229 65.1427 127.339 65.1427C135.309 65.1427 142.629 61.1227 146.889 54.3927C150.649 48.4527 157.729 45.7227 164.509 47.5827L179.299 51.9127L181.339 44.9327L166.529 40.5927C156.579 37.8327 146.239 41.8127 140.749 50.4927C137.389 55.7827 131.239 58.6027 125.049 57.7027L103.509 54.5527L102.459 61.7527Z" fill="black"/>
<path d="M409.779 70.3927C401.159 70.3927 393.139 65.7427 388.869 58.2527C385.739 52.7727 379.499 50.0227 373.339 51.4227L359.039 54.5327C358.679 54.6127 358.319 54.3727 358.239 54.0227L356.439 45.7327C356.399 45.5627 356.429 45.3727 356.529 45.2227C356.619 45.0727 356.779 44.9627 356.959 44.9227L371.219 41.8127C381.599 39.4527 392.139 44.0927 397.429 53.3627C400.209 58.2327 405.619 61.0327 411.189 60.4727L433.129 58.3027C433.499 58.2627 433.829 58.5327 433.869 58.9027V58.9127L434.709 67.3527C434.729 67.5327 434.679 67.7127 434.559 67.8427C434.449 67.9827 434.279 68.0627 434.109 68.0827L412.169 70.2527C411.369 70.3527 410.569 70.3927 409.779 70.3927ZM376.559 49.7027C382.059 49.7027 387.219 52.6127 390.039 57.5827C394.069 64.6527 401.639 69.0427 409.769 69.0427C410.509 69.0427 411.259 69.0027 412.009 68.9327L433.279 66.8227L432.579 59.7227L411.309 61.8327C405.199 62.4427 399.279 59.3827 396.239 54.0427C391.239 45.2927 381.299 40.9027 371.499 43.1427L357.899 46.1027L359.419 53.0727L373.059 50.1027C374.219 49.8327 375.399 49.7027 376.559 49.7027Z" fill="black"/>
<path d="M177.169 43.3925L178.889 51.7325C179.389 54.1225 181.729 55.6625 184.119 55.1725L196.779 52.5625L193.269 35.5625L180.609 38.1725C178.219 38.6625 176.679 40.9925 177.169 43.3825V43.3925Z" fill="#196CFA"/>
<path d="M183.219 55.9529C182.229 55.9529 181.269 55.6629 180.419 55.1129C179.279 54.3729 178.489 53.2029 178.229 51.8729L176.509 43.5329C176.229 42.2029 176.499 40.8329 177.249 39.6929C177.989 38.5629 179.159 37.7729 180.479 37.5029L193.139 34.8929C193.509 34.8129 193.879 35.0629 193.949 35.4329L197.459 52.4329C197.489 52.6129 197.459 52.7929 197.359 52.9529C197.259 53.1029 197.109 53.2129 196.929 53.2529L184.269 55.8629C183.909 55.9129 183.559 55.9529 183.219 55.9529ZM192.739 36.3629L180.749 38.8429C179.779 39.0429 178.929 39.6129 178.379 40.4429C177.829 41.2729 177.639 42.2829 177.839 43.2529L179.559 51.5929C179.759 52.5629 180.329 53.4129 181.159 53.9629C181.989 54.5129 182.999 54.7029 183.969 54.5029L195.959 52.0229L192.739 36.3629Z" fill="black"/>
<path d="M360.849 45.4127L358.779 53.5127C358.189 55.8327 355.819 57.2427 353.499 56.6427L341.189 53.5027L345.409 36.9927L357.719 40.1327C360.049 40.7227 361.449 43.0927 360.849 45.4127Z" fill="#196CFA"/>
<path d="M354.589 57.4526C354.169 57.4526 353.749 57.4026 353.339 57.2926L341.029 54.1526C340.669 54.0626 340.449 53.6926 340.539 53.3326C340.539 53.3326 340.539 53.3326 340.539 53.3226L344.759 36.8126C344.809 36.6326 344.919 36.4926 345.069 36.4026C345.219 36.3126 345.409 36.2926 345.579 36.3326L357.889 39.4726C359.189 39.8026 360.279 40.6226 360.959 41.7726C361.639 42.9226 361.839 44.2826 361.509 45.5726L359.439 53.6726C359.109 54.9626 358.279 56.0726 357.139 56.7426C356.379 57.2126 355.489 57.4526 354.589 57.4526Z" fill="black"/>
<path d="M342.019 53.0127L353.669 55.9927C354.619 56.2327 355.609 56.0927 356.449 55.5927C357.289 55.1027 357.899 54.2927 358.129 53.3427L360.199 45.2427C360.699 43.2827 359.509 41.2827 357.549 40.7827L345.899 37.8027L342.019 53.0127Z" fill="#18181B"/>
<path d="M346.359 46.0227C342.929 59.4527 329.269 67.5427 315.849 64.1127L295.349 58.8727L307.769 10.2627L328.269 15.5027C341.699 18.9327 349.799 32.6027 346.359 46.0227Z" fill="#FAA81A"/>
<path d="M322.099 65.5829C319.959 65.5829 317.799 65.3129 315.679 64.7729L295.179 59.5329C295.009 59.4929 294.859 59.3729 294.769 59.2229C294.679 59.0629 294.659 58.8829 294.699 58.7129L307.119 10.1029C307.209 9.74292 307.579 9.52292 307.939 9.61292L328.439 14.8529C335.109 16.5529 340.709 20.7529 344.219 26.6729C347.729 32.5929 348.719 39.5229 347.019 46.1929C345.319 52.8629 341.119 58.4629 335.199 61.9729C331.169 64.3629 326.669 65.5829 322.099 65.5829ZM296.169 58.3929L316.019 63.4629C322.339 65.0729 328.909 64.1329 334.509 60.8129C340.119 57.4929 344.089 52.1729 345.709 45.8629C347.319 39.5529 346.379 32.9729 343.059 27.3729C339.739 21.7629 334.419 17.7929 328.109 16.1729L308.259 11.1029L296.169 58.3929Z" fill="black"/>
<path d="M301.309 5.6028L287.439 59.8728C286.929 61.8528 288.129 63.8728 290.109 64.3828C292.089 64.8928 294.109 63.6928 294.619 61.7128L308.489 7.4428C308.999 5.4628 307.799 3.4428 305.819 2.9328C303.839 2.4228 301.819 3.6228 301.309 5.6028Z" fill="#3F3F46"/>
<path d="M291.029 65.1725C290.669 65.1725 290.309 65.1225 289.939 65.0325C287.599 64.4325 286.179 62.0425 286.779 59.7025L300.649 5.43248C300.939 4.30248 301.659 3.33248 302.659 2.74248C303.659 2.15248 304.859 1.97248 305.979 2.26248C307.109 2.55248 308.069 3.27248 308.669 4.27248C309.269 5.27248 309.429 6.46248 309.149 7.59248L295.279 61.8625C294.779 63.8125 293.029 65.1725 291.029 65.1725ZM304.899 3.49248C304.359 3.49248 303.829 3.63248 303.359 3.92248C302.669 4.33248 302.169 5.00248 301.969 5.78248L288.099 60.0525C287.689 61.6725 288.669 63.3325 290.289 63.7425C291.909 64.1525 293.569 63.1725 293.979 61.5525L307.849 7.28248C308.049 6.50248 307.929 5.68248 307.519 4.98248C306.959 4.05248 305.969 3.48248 304.899 3.49248Z" fill="black"/>
<path d="M318.559 10.0028L304.689 64.2728C304.179 66.2528 305.379 68.2728 307.359 68.7828C309.339 69.2928 311.359 68.0928 311.869 66.1128L325.739 11.8428C326.249 9.86279 325.049 7.8428 323.069 7.3328C321.089 6.8328 319.069 8.0228 318.559 10.0028Z" fill="#3F3F46"/>
<path d="M308.279 69.5827C307.919 69.5827 307.559 69.5327 307.189 69.4427C304.849 68.8527 303.429 66.4527 304.029 64.1127L317.899 9.84274C318.189 8.71274 318.909 7.74274 319.909 7.15274C320.909 6.55274 322.109 6.38274 323.229 6.67274C324.359 6.96274 325.319 7.68274 325.919 8.68274C326.509 9.69274 326.679 10.8727 326.399 12.0027L312.529 66.2727C312.029 68.2227 310.279 69.5827 308.279 69.5827ZM322.149 7.89274C321.609 7.89274 321.079 8.03274 320.609 8.32274C319.919 8.73274 319.419 9.40274 319.219 10.1827L305.349 64.4527C304.939 66.0727 305.919 67.7227 307.539 68.1427C309.159 68.5527 310.809 67.5727 311.229 65.9527L325.099 11.6827C325.299 10.9027 325.179 10.0827 324.769 9.38274C324.209 8.45274 323.219 7.89274 322.149 7.89274Z" fill="black"/>
<path d="M191.879 44.7026C194.729 58.5226 208.249 67.4126 222.069 64.5526L243.169 60.1926L232.829 10.1426L211.729 14.5026C197.919 17.3626 189.029 30.8826 191.879 44.7026Z" fill="#FAA81A"/>
<path d="M216.899 65.7825C204.719 65.7825 193.769 57.2325 191.209 44.8525C189.789 37.9825 191.129 30.9825 194.989 25.1325C198.839 19.2825 204.739 15.2725 211.609 13.8525L232.709 9.49248C233.079 9.41248 233.449 9.66248 233.519 10.0325L243.859 60.0825C243.889 60.2625 243.859 60.4425 243.759 60.6025C243.659 60.7525 243.509 60.8625 243.329 60.9025L222.229 65.2625C220.429 65.6025 218.649 65.7825 216.899 65.7825ZM232.309 10.9625L211.879 15.1825C205.369 16.5225 199.789 20.3225 196.129 25.8725C192.479 31.4225 191.209 38.0625 192.549 44.5625C195.319 57.9925 208.499 66.6625 221.929 63.8825L242.359 59.6625L232.309 10.9625Z" fill="black"/>
<path d="M239.638 5.71268L251.179 61.5827C251.599 63.6227 250.288 65.6227 248.239 66.0427C246.199 66.4627 244.199 65.1527 243.779 63.1027L232.239 7.23268C231.819 5.19268 233.129 3.19268 235.179 2.77268C237.219 2.35268 239.218 3.66268 239.638 5.71268Z" fill="#3F3F46"/>
<path d="M247.469 66.8128C246.599 66.8128 245.749 66.5528 245.029 66.0728C244.039 65.4228 243.349 64.4028 243.109 63.2428L231.569 7.37276C231.329 6.20276 231.559 5.01277 232.209 4.01277C232.859 3.02277 233.879 2.33276 235.039 2.09276C236.209 1.85276 237.399 2.08276 238.399 2.73276C239.399 3.38276 240.079 4.39277 240.319 5.56277L251.859 61.4328C252.099 62.6028 251.869 63.7928 251.219 64.7928C250.569 65.7928 249.559 66.4728 248.389 66.7128C248.089 66.7828 247.779 66.8128 247.469 66.8128ZM235.949 3.38277C234.909 3.38277 233.939 3.90276 233.369 4.77276C232.919 5.46276 232.759 6.28277 232.919 7.10277L244.459 62.9728C244.629 63.7728 245.099 64.4728 245.789 64.9228C246.479 65.3728 247.299 65.5328 248.119 65.3628C248.919 65.1928 249.619 64.7228 250.069 64.0328C250.519 63.3428 250.679 62.5228 250.519 61.7028L238.979 5.83277C238.669 4.39277 237.379 3.38277 235.949 3.38277Z" fill="black"/>
<path d="M221.879 9.37249L233.419 65.2425C233.839 67.2825 232.529 69.2825 230.479 69.7025C228.439 70.1225 226.439 68.8125 226.019 66.7625L214.479 10.8925C214.059 8.85249 215.369 6.85249 217.419 6.43249C219.459 6.02249 221.459 7.33249 221.879 9.37249Z" fill="#3F3F46"/>
<path d="M229.709 70.4725C228.839 70.4725 227.989 70.2125 227.269 69.7325C226.279 69.0825 225.589 68.0625 225.349 66.9025L213.809 11.0325C213.569 9.86248 213.799 8.67248 214.449 7.67248C215.099 6.68248 216.119 5.99249 217.279 5.75249C219.689 5.25249 222.059 6.81249 222.559 9.22249L234.099 65.0925C234.599 67.5025 233.039 69.8725 230.629 70.3725C230.319 70.4525 230.019 70.4725 229.709 70.4725ZM218.179 7.05248C217.969 7.05248 217.769 7.07249 217.549 7.11249C215.889 7.45249 214.809 9.09249 215.149 10.7625L226.689 66.6325C227.029 68.2925 228.669 69.3725 230.339 69.0325C231.999 68.6925 233.079 67.0525 232.739 65.3825L221.199 9.51249C220.909 8.08249 219.649 7.05248 218.179 7.05248Z" fill="black"/>
<mask id="mask4_2166_48986" style="mask-type:luminance" maskUnits="userSpaceOnUse" x="247" y="42" width="21" height="13">
<path d="M249.669 54.2627L247.819 45.2927L262.309 42.3027C264.789 41.7927 267.209 43.3827 267.719 45.8627C268.229 48.3427 266.639 50.7627 264.159 51.2727L249.669 54.2627Z" fill="white"/>
</mask>
<g mask="url(#mask4_2166_48986)">
<path d="M152.649 28.2227H281.339V156.913H152.649V28.2227Z" fill="#D4D4D8"/>
</g>
<path d="M249.669 54.9529C249.349 54.9529 249.059 54.7229 248.999 54.4029L247.149 45.4329C247.119 45.2529 247.149 45.0729 247.249 44.9129C247.349 44.7629 247.499 44.6529 247.679 44.6129L262.169 41.6229C263.549 41.3429 264.959 41.6129 266.129 42.3829C267.309 43.1529 268.109 44.3429 268.389 45.7229C268.969 48.5629 267.139 51.3529 264.299 51.9529L249.809 54.9429C249.769 54.9429 249.719 54.9529 249.669 54.9529ZM248.629 45.8329L250.209 53.4529L264.029 50.6029C266.129 50.1629 267.489 48.1029 267.059 46.0029C266.849 44.9929 266.249 44.1029 265.389 43.5429C264.529 42.9729 263.479 42.7729 262.469 42.9829L248.629 45.8329Z" fill="black"/>
<path d="M242.999 22.6926C242.869 22.6926 242.739 22.6526 242.619 22.5826C242.469 22.4826 242.359 22.3226 242.319 22.1526L240.469 13.1826C240.389 12.8126 240.639 12.4426 241.009 12.3726L255.499 9.38261C258.349 8.79261 261.129 10.6326 261.729 13.4726C262.009 14.8526 261.739 16.2626 260.969 17.4326C260.209 18.6026 258.999 19.4226 257.629 19.6926L243.139 22.6826C243.099 22.6826 243.049 22.6926 242.999 22.6926ZM241.959 13.5626L243.539 21.1826L257.359 18.3326C259.469 17.8926 260.819 15.8326 260.389 13.7326C259.949 11.6326 257.889 10.2726 255.789 10.7026L241.959 13.5626Z" fill="black"/>
<mask id="mask5_2166_48986" style="mask-type:luminance" maskUnits="userSpaceOnUse" x="357" y="41" width="78" height="29">
<path d="M409.779 69.7229C401.449 69.7229 393.639 65.2629 389.459 57.9229C386.179 52.1729 379.649 49.3029 373.199 50.7729L358.909 53.8829L357.109 45.5929L371.369 42.4829C381.449 40.1829 391.709 44.6928 396.849 53.7128C399.759 58.8228 405.419 61.7329 411.269 61.1629L433.209 58.9929L434.049 67.4328L412.109 69.6029C411.319 69.6829 410.549 69.7229 409.779 69.7229Z" fill="white"/>
</mask>
<g mask="url(#mask5_2166_48986)">
<path d="M396.319 32.5629H522.659V158.913H396.319V32.5629Z" fill="#BCBEC0"/>
</g>
</svg>
