<svg width="60" height="60" viewBox="0 0 60 60" fill="none" xmlns="http://www.w3.org/2000/svg">
<g clip-path="url(#clip0_117_18655)">
<rect width="60" height="60" rx="30" fill="#3E1952"/>
<path d="M30 50C41.0457 50 50 41.0457 50 30C50 18.9543 41.0457 10 30 10C18.9543 10 10 18.9543 10 30C10 41.0457 18.9543 50 30 50Z" fill="#3E1952"/>
<path d="M21.6211 27.9764H23.1367L21.1055 33.5975H19.625L17.5977 27.9764H19.1133L20.3672 31.5624L21.6211 27.9764Z" fill="white"/>
<path d="M25.0781 33.5975H23.6406V27.9764H25.0781V33.5975Z" fill="white"/>
<path d="M29.3008 32.3008V33.5977H27.918C26.9141 33.5977 26.4805 33.0625 26.4805 32.1602V29.2695H25.6836V27.9727H26.4805V26.2891H27.918V27.9766H29.3008V29.2734H27.918V31.8555C27.918 32.1172 27.9844 32.3047 28.332 32.3047H29.3008V32.3008Z" fill="white"/>
<path d="M33.375 29.9374C33.2773 29.4374 32.918 29.1171 32.3281 29.1171C31.8281 29.1171 31.4766 29.3553 31.3359 29.7382H29.8867C30.1172 28.5585 30.957 27.8202 32.3281 27.8202C33.9414 27.8202 34.8359 28.8475 34.8359 30.4022V33.5975H33.3984V32.953C33.1367 33.3788 32.6914 33.703 31.8281 33.703C30.543 33.703 29.7773 33.0702 29.7773 32.035C29.7773 31.2186 30.0625 30.7264 30.8477 30.3553C31.4023 30.0936 32.5273 30.0077 33.375 29.9413V29.9374ZM31.2188 31.8788C31.2188 32.1483 31.4258 32.4452 32.0703 32.4452C32.8125 32.4452 33.3984 32.0311 33.3984 31.3202V31.1366C32.582 31.1913 31.7969 31.2577 31.5234 31.3983C31.2852 31.5155 31.2188 31.6366 31.2188 31.8788Z" fill="white"/>
<path d="M37.5742 32.3008V33.5977H36.875C35.8711 33.5977 35.4375 33.0625 35.4375 32.1602V26.2891H36.875V31.8555C36.875 32.1172 36.9414 32.3047 37.2891 32.3047H37.5742V32.3008Z" fill="white"/>
<path d="M37.8047 31.7775H39.2422C39.3047 32.215 39.8203 32.4103 40.2891 32.4103C40.5703 32.4103 40.9961 32.3478 40.9961 31.9767C40.9961 31.7462 40.832 31.6173 40.4922 31.5431L39.3125 31.2814C38.7031 31.1407 37.9297 30.6603 37.9297 29.5587C37.9297 28.4611 38.9219 27.8243 40.0781 27.8243C41.2227 27.8243 42.1602 28.3712 42.2578 29.6447H40.7852C40.7109 29.2853 40.3945 29.1212 40.0312 29.1212C39.6172 29.1212 39.3789 29.2853 39.3672 29.547C39.3672 29.7892 39.5625 29.9064 39.8047 29.9611L41.0703 30.2423C41.6797 30.3829 42.4336 30.8087 42.4336 31.9767C42.4336 33.2306 41.4219 33.7111 40.2422 33.7111C39.082 33.7072 37.8594 33.1095 37.8047 31.7775Z" fill="white"/>
<path d="M25.0781 26.2891H23.6406V27.5625H25.0781V26.2891Z" fill="white"/>
<path d="M42.879 27.3867C42.5782 27.3867 42.336 27.1367 42.34 26.832C42.34 26.5312 42.586 26.2891 42.8829 26.2891C43.1798 26.2891 43.422 26.5352 43.4259 26.8359C43.4259 27.1367 43.1798 27.3867 42.879 27.3867ZM43.297 26.8477C43.3009 26.6055 43.1134 26.4062 42.879 26.4062C42.6525 26.4062 42.4571 26.6055 42.4571 26.8398C42.4571 27.0703 42.6446 27.2695 42.8712 27.2734C43.1056 27.2734 43.297 27.082 43.297 26.8477Z" fill="white"/>
<path d="M42.9648 26.8907C43.0078 26.9572 43.0469 27.0157 43.0859 27.0782C43.0977 27.0978 43.1211 27.1173 43.0977 27.1447C43.082 27.1642 43.0313 27.1603 43.0078 27.1368C42.9961 27.1251 42.9883 27.1095 42.9766 27.0939C42.9414 27.0392 42.9063 26.9806 42.8711 26.9259C42.8516 26.8947 42.8047 26.879 42.7695 26.8907C42.75 26.8986 42.75 26.9103 42.75 26.9259C42.75 26.9767 42.75 27.0236 42.75 27.0743C42.75 27.09 42.75 27.1095 42.7461 27.1251C42.7422 27.1447 42.7266 27.1525 42.707 27.1525C42.6875 27.1525 42.668 27.1486 42.6602 27.1251C42.6562 27.1095 42.6563 27.09 42.6563 27.0743C42.6563 26.9181 42.6563 26.7618 42.6563 26.6017C42.6563 26.5314 42.6562 26.5314 42.7266 26.5314C42.8008 26.5314 42.875 26.5275 42.9492 26.5353C43.082 26.547 43.1484 26.6447 43.1094 26.7736C43.0977 26.8204 43.0664 26.8517 43.0234 26.8673C43.0078 26.8751 42.9922 26.8829 42.9648 26.8907ZM42.8555 26.797C42.8789 26.797 42.9063 26.8009 42.9297 26.797C42.9883 26.7892 43.0156 26.7579 43.0195 26.7072C43.0195 26.6603 42.9922 26.629 42.9336 26.6251C42.8867 26.6212 42.8359 26.6212 42.7852 26.6212C42.7656 26.6212 42.7539 26.6329 42.7539 26.6525C42.7539 26.6681 42.7539 26.6837 42.7539 26.6954C42.7539 26.8126 42.7383 26.797 42.8555 26.797Z" fill="white"/>
</g>
<rect x="0.5" y="0.5" width="59" height="59" rx="29.5" stroke="#E4E4E7"/>
<defs>
<clipPath id="clip0_117_18655">
<rect width="60" height="60" rx="30" fill="white"/>
</clipPath>
</defs>
</svg>
