<svg width="60" height="60" viewBox="0 0 60 60" fill="none" xmlns="http://www.w3.org/2000/svg">
<g clip-path="url(#clip0_117_18206)">
<path d="M60 30C60 46.5685 46.5685 60 30 60C13.4315 60 0 46.5685 0 30C0 13.4315 13.4315 0 30 0C46.5685 0 60 13.4315 60 30Z" fill="white"/>
<path d="M30.5007 26.0795C31.0487 26.0795 31.5101 25.7876 31.5702 25.4122L32.1134 19.1311C32.1134 18.5091 31.396 18 30.5007 18C29.6005 18 28.8878 18.5091 28.8878 19.1311L29.4358 25.4122C29.4936 25.7876 29.9526 26.0795 30.5007 26.0795ZM27.1678 28.0449C27.4393 27.5542 27.4237 27.0095 27.1305 26.7667L22.059 23.1464C21.5315 22.8324 20.7419 23.2066 20.29 23.999C19.8394 24.7903 19.9307 25.6785 20.4475 25.9864L26.0621 28.6436C26.4214 28.781 26.8913 28.5258 27.1678 28.04M33.8328 28.0398C34.12 28.5256 34.5899 28.7807 34.9396 28.6507L40.5542 25.9862C41.0758 25.6721 41.1539 24.7925 40.7129 24.0012C40.2622 23.2088 39.4678 22.8371 38.9415 23.1449L33.8688 26.7615C33.5876 27.0081 33.5672 27.5552 33.8388 28.0447M30.5007 33.9254C31.0487 33.9254 31.5101 34.2173 31.5702 34.5927L32.1134 40.8738C32.1134 41.4958 31.396 42 30.5007 42C29.6005 42 28.8878 41.4958 28.8878 40.8738L29.4358 34.5927C29.4936 34.2173 29.9526 33.9254 30.5007 33.9254ZM33.8328 31.9655C34.12 31.4784 34.5899 31.2184 34.9396 31.3594L40.5542 34.0191C41.0758 34.327 41.1539 35.214 40.7129 36.0065C40.2622 36.7928 39.4678 37.167 38.9415 36.8591L33.8688 33.2376C33.5876 32.9935 33.5672 32.4488 33.8388 31.9655M27.1678 31.9601C27.4393 32.4496 27.4237 32.993 27.1305 33.2384L22.059 36.8537C21.5315 37.1677 20.7419 36.7923 20.29 36.006C19.8394 35.2147 19.9307 34.3265 20.4475 34.0186L26.0621 31.359C26.4214 31.2191 26.8913 31.4767 27.1678 31.9601Z" fill="#FCB61A"/>
</g>
<rect x="0.5" y="0.5" width="59" height="59" rx="29.5" stroke="#E4E4E7"/>
<defs>
<clipPath id="clip0_117_18206">
<rect width="60" height="60" rx="30" fill="white"/>
</clipPath>
</defs>
</svg>
