<svg width="60" height="60" viewBox="0 0 60 60" fill="none" xmlns="http://www.w3.org/2000/svg">
<path fill-rule="evenodd" clip-rule="evenodd" d="M30 59C46.0163 59 59 46.0163 59 30C59 13.9837 46.0163 1 30 1C13.9837 1 1 13.9837 1 30C1 46.0163 13.9837 59 30 59ZM30 60C46.5685 60 60 46.5685 60 30C60 13.4315 46.5685 0 30 0C13.4315 0 0 13.4315 0 30C0 46.5685 13.4315 60 30 60Z" fill="#0D6FAB"/>
<path fill-rule="evenodd" clip-rule="evenodd" d="M21.6727 33.6483C20.6908 34.7438 19.6333 35.612 18.3115 35.612C16.9519 35.612 16.4988 34.5927 16.4988 33.5731C16.4988 31.2314 18.6137 28.5878 20.7663 28.5878C21.4459 28.5878 22.2012 28.8146 22.2012 29.6453C22.2012 31.6468 19.3688 32.3644 17.7827 32.5153C17.7077 32.8883 17.6699 33.2678 17.6695 33.6483C17.6695 34.4038 18.1983 34.7812 18.878 34.7812C19.7467 34.7812 20.6152 34.215 21.4836 33.4217L22.5412 32.4019L23.9764 26.624L23.9387 26.6995C24.0898 26.0196 23.8633 25.3777 23.1456 25.3777H22.6926V25L25.6759 25.0377L24.0141 30.7026V30.7401C24.8449 29.7959 26.0535 28.5875 27.3754 28.5875C28.5838 28.5875 29.0748 29.3429 29.0748 30.4761C29.0748 31.5711 28.5083 32.7041 27.6776 33.648C27.2242 34.1391 26.7334 34.5927 26.1669 34.9324C25.4493 35.3477 24.732 35.6117 24.0144 35.6117C23.0325 35.6117 22.2395 35.083 22.2395 33.9882C22.2395 33.648 22.3149 33.2706 22.4283 32.8927V32.8552L21.6727 33.6483ZM25.9401 34.3659C26.3935 33.8748 26.8466 33.2329 27.1863 32.591C27.6016 31.7602 27.8662 30.8917 27.8662 30.2496C27.8662 29.6831 27.6773 29.192 26.9977 29.192C25.1471 29.192 23.3345 32.2887 23.3345 33.9502C23.3345 34.5544 23.561 35.1964 24.2407 35.1964C24.8074 35.1966 25.4116 34.8569 25.9401 34.3659ZM17.8584 32.1381C18.1229 31.156 19.2936 29.0791 20.4263 29.0791C20.804 29.0791 21.0305 29.3057 21.0305 29.6833C21.0308 31.3071 19.2182 32.0247 17.8584 32.1381ZM9.47439 25.0003H6V25.3779H6.18883C6.79304 25.4156 7.01958 25.5667 7.13299 25.9444L9.39896 35.6122H9.77662L12.5337 30.8917L13.7798 35.612H14.1952L18.9157 26.3595C19.2179 25.793 19.4067 25.4154 19.9353 25.3777H20.0487V25H17.1787V25.3777H17.3676C18.1229 25.4154 18.274 25.4908 18.274 25.793C18.274 26.095 18.1609 26.3595 18.0475 26.6238L14.6108 33.7237H14.5731L13.4401 29.2677L15.1396 26.3975C15.4793 25.831 15.6683 25.3779 16.3857 25.3779H16.6122V25.0003H13.8555V25.3779H14.0066C14.4974 25.4156 14.6862 25.4533 14.6862 25.7556C14.6862 25.8687 14.6108 26.0953 14.4974 26.3595L13.289 28.5878H13.2513L12.6093 25.8687C12.5716 25.6422 12.7225 25.4154 13.0247 25.3777H13.289V25H10.0789V25.3777H10.2677C10.8342 25.4154 11.0984 25.5665 11.2118 25.9442L12.3448 30.1739L10.3054 33.7237L8.64363 26.3972C8.5682 26.2084 8.5682 26.0196 8.53049 25.8308C8.53049 25.4531 8.94586 25.3777 9.36124 25.3777H9.47439V25.0003Z" fill="#0D6FAB"/>
<path fill-rule="evenodd" clip-rule="evenodd" d="M50.7147 30.6652C50.7147 33.346 48.6001 34.8569 45.654 34.8192C45.0498 34.8192 44.9746 34.7435 44.9746 31.2689V25.9064C44.9746 25.6422 45.0498 25.6422 45.9188 25.6422C48.487 25.6422 50.7147 27.3794 50.7147 30.6652ZM42.8595 35.4614V27.7947C42.8595 25.6422 42.7838 25.5665 42.1802 25.5665H41.6891V25H46.9386C51.017 25 52.981 27.4171 52.981 29.985C52.981 32.1753 51.5835 35.4611 46.7498 35.4611L42.8595 35.4614ZM31.6059 25.0003L35.4579 32.4778L38.97 25.0003H40.9715V32.6666C40.9715 34.8569 41.0846 34.8946 41.6514 34.8946H42.0668V35.4614H37.7988V34.8946H38.5921C38.8187 34.8946 38.8566 34.8195 38.8566 34.6306V26.8509H38.8187L34.9291 35.0835C34.8912 35.1592 34.8535 35.348 34.7021 35.348C34.5889 35.348 34.5512 35.1592 34.5138 35.0835L30.5481 27.1528H30.5106V31.4962C30.5106 32.4021 30.5106 33.5733 30.6237 34.3661C30.7369 34.8572 30.8503 34.8949 31.3414 34.8949H32.059V35.4616H28.6977V34.8949H29.1888C29.6421 34.8949 29.7553 34.8949 29.7553 34.7061V27.757C29.7553 26.3221 29.6421 25.5667 28.66 25.5667H28.1689V25.0003H31.6059ZM52.641 25.4156C52.641 25.2268 52.4897 25.1891 52.3765 25.1891C52.3008 25.1891 52.15 25.2268 52.15 25.3779C52.15 25.4533 52.1874 25.4911 52.2631 25.4911L52.5653 25.5665C52.7162 25.6042 52.7919 25.6796 52.7919 25.8687C52.7919 26.0953 52.5653 26.171 52.3765 26.171C52.1877 26.171 52.112 26.0953 52.0743 26.0576C51.9986 25.9821 51.9611 25.9064 51.9611 25.7933H52.112C52.112 25.9821 52.2634 26.0576 52.3765 26.0576C52.4897 26.0576 52.6787 26.0198 52.6787 25.8687C52.6787 25.7556 52.6031 25.7176 52.4522 25.6799L52.2256 25.6422C52.15 25.6045 51.9986 25.5667 51.9986 25.3779C51.9986 25.2268 52.1117 25.0757 52.3765 25.0757C52.7162 25.0757 52.7544 25.3022 52.7919 25.4156H52.641ZM53.8492 26.1332V25.529V25.2648L53.547 26.1335H53.3961L53.1316 25.2648V26.1332H52.9807V25.0757H53.1695L53.4718 25.9821L53.774 25.0757H54.0006V26.1332H53.8492Z" fill="black"/>
</svg>
