<svg width="60" height="60" viewBox="0 0 60 60" fill="none" xmlns="http://www.w3.org/2000/svg">
<g clip-path="url(#clip0_117_18675)">
<rect width="60" height="60" rx="30" fill="white"/>
<path d="M30 28.2543C31.1082 28.2543 32.0066 27.3538 32.0066 26.2431C32.0066 25.1324 31.1082 24.2319 30 24.2319C28.8917 24.2319 27.9933 25.1324 27.9933 26.2431C27.9933 27.3538 28.8917 28.2543 30 28.2543Z" fill="#13B3BA"/>
<path d="M30 23.5112C31.3592 23.5112 32.4611 22.4069 32.4611 21.0446C32.4611 19.6824 31.3592 18.5781 30 18.5781C28.6408 18.5781 27.539 19.6824 27.539 21.0446C27.539 22.4069 28.6408 23.5112 30 23.5112Z" fill="#13B3BA"/>
<path d="M36.3226 21.348C34.9975 21.348 33.8616 22.4485 33.8616 23.8145C33.8616 24.6493 34.316 25.3703 34.8839 25.8257C32.9529 28.1404 31.4763 30.9485 30.5676 34.0221V29.2029H29.5454V33.9462C28.6745 30.8726 27.1601 28.0266 25.267 25.7877C25.9485 25.3324 26.2892 24.6114 26.2892 23.7766C26.2892 22.4485 25.1912 21.3101 23.8282 21.3101C22.4652 21.3101 21.3672 22.4105 21.3672 23.7766C21.3672 25.1426 22.4652 26.2431 23.8282 26.2431C23.9039 26.2431 24.0554 26.2431 24.1311 26.2431C27.5387 30.0377 29.6211 35.6918 29.5454 41.4217H30.5676C30.4919 35.6918 32.5743 30.0377 35.9819 26.2431C36.0576 26.2431 36.2091 26.2431 36.2848 26.2431C37.6099 26.2431 38.7458 25.1426 38.7458 23.7766C38.6701 22.4485 37.6478 21.348 36.3226 21.348Z" fill="#13B3BA"/>
<path d="M30 14.0625C38.7461 14.0625 45.8641 21.1964 45.8641 29.9621C45.8641 38.7277 38.7461 45.8996 30 45.8996C21.2539 45.8996 14.098 38.7277 14.098 29.9621C14.098 21.1964 21.2539 14.0625 30 14.0625ZM30 13C20.6481 13 13 20.5893 13 30.0379C13 39.4866 20.6481 47 30 47C39.3519 47 47 39.4107 47 29.9621C47 20.5134 39.4276 13 30 13Z" fill="#13B3BA"/>
</g>
<rect x="0.5" y="0.5" width="59" height="59" rx="29.5" stroke="#E4E4E7"/>
<defs>
<clipPath id="clip0_117_18675">
<rect width="60" height="60" rx="30" fill="white"/>
</clipPath>
</defs>
</svg>
