<svg width="60" height="60" viewBox="0 0 60 60" fill="none" xmlns="http://www.w3.org/2000/svg">
<g clip-path="url(#clip0_117_18669)">
<rect width="60" height="60" rx="30" fill="white"/>
<path d="M36.93 41.4773C31.7516 43.9353 22.3398 37.212 19.8688 31.9888C17.3977 26.7656 20.4684 21.6689 25.6649 19.2651C27.3546 18.488 29.1716 18.0723 31.0249 18C34.4589 18 37.6567 19.6266 39.292 23.0425C41.6904 28.2837 42.1083 39.0916 36.93 41.4773Z" fill="#FFCD00"/>
<path d="M25.1016 23.422H28.4266C29.5713 23.422 31.4428 23.6027 32.4603 25.645L37.4751 36.0191C36.9845 36.5071 36.1487 36.5071 35.6581 36.0191C35.6036 35.9649 35.5309 35.8926 35.5309 35.8384L31.2429 29.7838C30.6433 28.9524 29.426 28.6994 28.5902 29.2958L28.4085 29.4766L27.2093 30.6152C26.6642 31.1032 25.8829 31.1032 25.3378 30.561L25.2106 30.4345L26.3553 28.9344C27.1366 27.85 27.1911 26.4222 26.4825 25.3378L25.1016 23.422Z" fill="black"/>
<path d="M27.028 34.2841C26.8463 34.5913 26.7918 34.9528 26.8463 35.242C26.9008 35.9107 27.7548 36.5071 27.7548 36.5071L30.8981 31.2297C31.0253 30.9947 31.0253 30.6333 30.8981 30.3983C30.2259 29.3139 29.2629 29.6754 29.2629 29.6754L27.028 34.2841Z" fill="black"/>
</g>
<rect x="0.5" y="0.5" width="59" height="59" rx="29.5" stroke="#E4E4E7"/>
<defs>
<clipPath id="clip0_117_18669">
<rect width="60" height="60" rx="30" fill="white"/>
</clipPath>
</defs>
</svg>
