<svg width="60" height="60" viewBox="0 0 60 60" fill="none" xmlns="http://www.w3.org/2000/svg">
<g clip-path="url(#clip0_117_18692)">
<rect width="60" height="60" rx="30" fill="white"/>
<path d="M42 39.8184C42 41.0187 41.0177 42 39.8184 42H20.1816C18.9813 42 18 41.0177 18 39.8184V20.1816C18 18.9813 18.9813 18 20.1816 18H39.8174C41.0177 18 41.999 18.9813 41.999 20.1816V39.8184H42Z" fill="#FFE600"/>
<path d="M28.6221 26.535C28.4324 26.5497 28.3601 26.6171 28.1949 26.8703C27.0943 28.5495 23.9968 33.2999 23.5013 34.0897C23.0898 34.7465 22.9324 35.2733 23.0644 35.7963C23.1768 36.285 23.555 36.6251 24.1493 36.7541C24.2998 36.7698 24.4445 36.7258 24.5442 36.5997C25.3467 35.6086 29.8448 29.5729 30.6874 28.442C30.8027 28.2886 30.7744 28.225 30.7099 28.094C30.5535 27.7764 29.968 27.1323 29.5018 26.8292C29.19 26.6269 28.886 26.5331 28.6758 26.5331C28.6573 26.5331 28.6397 26.5341 28.6221 26.535Z" fill="black"/>
<path d="M38.9067 36.3534C37.9693 34.3448 33.4233 24.9643 32.439 22.8032C31.9307 21.6879 31.399 20.2941 30.9259 19.0293H25.2715C25.3536 20.9392 25.38 21.9039 25.073 22.8061C24.5315 24.3925 22.777 26.0551 21.564 27.3414C21.1457 27.7832 22.8464 28.9767 24.6478 27.5662C25.3008 27.0531 26.333 26.0424 27.1716 25.3866C27.5508 25.0875 28.0405 24.9477 28.54 25.021C29.232 25.1217 29.7071 25.4413 30.1919 26.0229C30.6835 26.6113 31.1478 27.4098 31.7812 28.445C32.9756 30.3988 34.3186 32.6098 35.7584 34.8951C36.4905 36.0582 37.466 36.545 38.8021 36.5127C38.9311 36.5117 38.9487 36.4384 38.9067 36.3534Z" fill="black"/>
<path d="M20.834 38.6729V38.711C20.8428 39.8741 21.8085 40.8428 22.9716 40.8516C22.9716 40.8516 38.3018 40.8613 38.3067 40.8613C39.4991 40.8613 40.4746 39.8731 40.4834 38.71V38.6729H20.834Z" fill="black"/>
</g>
<rect x="0.5" y="0.5" width="59" height="59" rx="29.5" stroke="#E4E4E7"/>
<defs>
<clipPath id="clip0_117_18692">
<rect width="60" height="60" rx="30" fill="white"/>
</clipPath>
</defs>
</svg>
