<svg width="60" height="60" viewBox="0 0 60 60" fill="none" xmlns="http://www.w3.org/2000/svg">
<g clip-path="url(#clip0_117_18250)">
<rect width="60" height="60" rx="30" fill="#BF2519"/>
<path d="M18.611 29.4817C18.0983 30.2117 17.8833 32.5077 18.062 34.0299C18.1242 34.5319 18.2277 34.9511 18.3754 35.202C18.58 35.5475 18.9244 35.7547 19.3155 35.7662C19.5667 35.7776 19.7247 35.7385 24.4506 34.3867C24.4506 34.3867 26.5508 33.7903 26.5611 33.7857C27.0842 33.6659 27.439 33.2376 27.4726 32.6918C27.5062 32.1299 27.1826 31.6347 26.644 31.4574C26.644 31.4574 25.1628 30.9207 25.1602 30.9207C20.0794 29.0577 19.8516 28.984 19.5951 28.9817C19.2014 28.9705 18.8544 29.1455 18.611 29.4817ZM29.974 43.3658C30.0569 43.154 30.0673 43.0089 30.0802 38.5919C30.0802 38.5919 30.0905 36.6413 30.0931 36.6206C30.1267 36.1416 29.7797 35.7064 29.21 35.5106C28.6221 35.3102 27.9902 35.4346 27.6355 35.8261C27.6355 35.8261 26.5997 36.92 26.5945 36.92C23.0364 40.6369 22.8862 40.8096 22.8008 41.0283C22.7465 41.1573 22.7283 41.2954 22.7438 41.4337C22.7645 41.6317 22.8655 41.8252 23.0313 42.007C23.8574 42.8798 27.8142 44.1741 29.0779 43.9806C29.5209 43.9139 29.8393 43.6951 29.974 43.3658ZM38.0043 41.8298C39.1981 41.4061 41.8006 38.463 41.9845 37.3277C42.0492 36.9339 41.9094 36.5931 41.6039 36.3766C41.4044 36.243 41.2517 36.1901 36.5258 34.8107C36.5258 34.8107 34.4541 34.2027 34.4256 34.1913C33.9233 34.0185 33.3509 34.1798 32.9676 34.6012C32.5663 35.0341 32.5066 35.6076 32.8277 36.0382L33.6615 37.245C36.4661 41.2958 36.6809 41.5813 36.883 41.7218C37.1937 41.9404 37.5899 41.9771 38.0043 41.8298ZM35.5623 31.4023C40.9306 30.2462 41.1402 30.1841 41.35 30.0597C41.6763 29.8639 41.8394 29.5392 41.811 29.1431C41.811 29.1316 41.8135 29.1178 41.811 29.104C41.6737 27.9295 39.3638 24.8805 38.2244 24.3853C37.8204 24.2126 37.4165 24.2242 37.0824 24.4244C36.8753 24.5442 36.7225 24.7261 33.8481 28.2242C33.8481 28.2242 32.5507 29.797 32.5352 29.8131C32.1934 30.1839 32.1882 30.7135 32.5223 31.1696C32.8693 31.6417 33.4545 31.8697 33.9906 31.7383C33.9906 31.7383 33.9699 31.7728 33.9647 31.7774C34.2287 31.6879 34.6999 31.5842 35.5623 31.4023ZM30.1734 27.4597C30.0802 25.5668 29.4406 17.1405 29.3655 16.7513C29.2567 16.3966 28.946 16.1457 28.5007 16.0443C27.1281 15.7427 21.8894 17.0483 20.9184 17.9372C20.605 18.2274 20.4911 18.5821 20.5844 18.8975C20.7372 19.1762 27.2292 28.2588 27.2292 28.2588C28.1874 29.6429 28.972 29.4263 29.2284 29.3549C29.4819 29.2883 30.2615 29.0717 30.1734 27.4597Z" fill="white"/>
</g>
<rect x="0.5" y="0.5" width="59" height="59" rx="29.5" stroke="#E4E4E7"/>
<defs>
<clipPath id="clip0_117_18250">
<rect width="60" height="60" rx="30" fill="white"/>
</clipPath>
</defs>
</svg>
