<svg width="60" height="60" viewBox="0 0 60 60" fill="none" xmlns="http://www.w3.org/2000/svg">
<g clip-path="url(#clip0_117_18700)">
<rect width="60" height="60" rx="30" fill="#006AFF"/>
<path fill-rule="evenodd" clip-rule="evenodd" d="M34.3123 23.5489C34.4372 23.5181 34.4918 23.5643 34.5672 23.649C34.9887 24.1414 36.3468 25.8626 36.7162 26.3346C36.7709 26.4012 36.7605 26.5013 36.6902 26.5551C36.6876 26.5577 36.685 26.5577 36.6824 26.5603C33.9454 28.7816 30.9015 31.9238 29.2052 34.1759C29.1688 34.2221 29.2 34.2272 29.2234 34.2169C32.1789 32.8934 39.1202 30.7798 42.25 30.1872V26.0652L30.0117 16L17.75 26.0652V30.5694C21.5511 28.2199 30.3317 24.5826 34.3123 23.5489Z" fill="white"/>
<path fill-rule="evenodd" clip-rule="evenodd" d="M24.0929 40.8194C24.1579 40.8989 24.2724 40.9169 24.3583 40.8604C28.9034 38.4236 38.9042 35.3302 42.25 34.7402V44H17.75V34.3786C20.2684 32.896 27.0718 29.8538 29.4654 29.0407C29.5122 29.0253 29.5252 29.0535 29.4836 29.0843C27.1863 30.8593 23.583 35.0506 21.8164 37.7465C21.7358 37.8722 21.741 37.9132 21.8034 37.9901L24.0929 40.8194Z" fill="white"/>
</g>
<rect x="0.5" y="0.5" width="59" height="59" rx="29.5" stroke="#E4E4E7"/>
<defs>
<clipPath id="clip0_117_18700">
<rect width="60" height="60" rx="30" fill="white"/>
</clipPath>
</defs>
</svg>
