<svg width="60" height="60" viewBox="0 0 60 60" fill="none" xmlns="http://www.w3.org/2000/svg">
<g clip-path="url(#clip0_117_18705)">
<rect width="60" height="60" rx="30" fill="white"/>
<path d="M27.1978 15.75C17.3971 15.75 15.3707 29.4983 22.2656 36.3979C26.2037 40.3115 29.1732 44.2505 34.0927 44.2505C40.019 44.2505 41.0004 39.3331 41.0004 30.4894C41.0004 21.6585 36.0299 15.75 27.1978 15.75Z" fill="#F3EC58"/>
<path d="M22.7626 31.4678C23.5782 31.4678 24.241 30.8071 24.241 29.9938C24.241 29.1806 23.5782 28.5199 22.7626 28.5199C21.9469 28.5199 21.2842 29.1806 21.2842 29.9938C21.2842 30.8071 21.9469 31.4678 22.7626 31.4678Z" fill="#142F56"/>
<path d="M34.5897 31.4678C35.4054 31.4678 36.0681 30.8071 36.0681 29.9938C36.0681 29.1806 35.4054 28.5199 34.5897 28.5199C33.7741 28.5199 33.1113 29.1806 33.1113 29.9938C33.1113 30.8071 33.7741 31.4678 34.5897 31.4678Z" fill="#142F56"/>
<path d="M35.1122 36.6901C33.2005 37.7448 31.0084 38.3547 28.6761 38.3547C27.2614 38.3547 25.8978 38.126 24.6105 37.7194C24.6105 37.7194 34.9975 22.3954 35.0103 22.3827C35.0612 22.2938 35.0867 22.2175 35.0867 22.1413C35.0867 22.1413 35.0867 22.1159 35.0867 22.1032V20.6674H22.2655V22.6369H32.3721C32.3721 22.6369 22.3547 37.4144 22.3547 37.4271C22.3037 37.5161 22.2782 37.5923 22.2782 37.6685C22.2782 37.6685 22.2782 37.6939 22.2782 37.7067V38.9265C24.2282 39.8286 26.3948 40.3242 28.6889 40.3242C31.378 40.3242 33.8887 39.638 36.0808 38.4309L35.1122 36.6901Z" fill="#142F56"/>
</g>
<rect x="0.5" y="0.5" width="59" height="59" rx="29.5" stroke="#E4E4E7"/>
<defs>
<clipPath id="clip0_117_18705">
<rect width="60" height="60" rx="30" fill="white"/>
</clipPath>
</defs>
</svg>
