<svg width="60" height="60" viewBox="0 0 60 60" fill="none" xmlns="http://www.w3.org/2000/svg">
<g clip-path="url(#clip0_117_18652)">
<rect width="60" height="60" rx="30" fill="white"/>
<path d="M17.3344 28.0451L17.3028 29.1398L14.6623 32.2433C15.7654 32.2433 16.4648 32.2316 16.868 32.2074C16.7511 32.7964 16.6561 33.2779 16.5603 33.9998C16.0298 33.9514 15.2028 33.9393 14.3754 33.9393C13.4531 33.9393 12.647 33.9512 12 33.9998L12.0216 32.8927L14.6623 29.8014C13.5062 29.8014 13.0819 29.8133 12.605 29.8254C12.7107 29.272 12.785 28.6587 12.8592 28.0449C13.697 28.081 14.0256 28.0928 15.1181 28.0928C16.1256 28.0931 16.698 28.0811 17.3344 28.0451ZM20.3359 27.7199C18.6175 27.7199 17.303 29.38 17.303 31.3655C17.303 32.857 18.0982 33.9998 19.6464 33.9998C21.3751 33.9998 22.6795 32.3395 22.6795 30.3423C22.6796 28.8634 21.9052 27.7199 20.3359 27.7199ZM19.8161 32.4042C19.4341 32.4042 19.2117 32.0307 19.2117 31.297C19.2117 30.2023 19.6252 29.3244 20.1345 29.3244C20.5054 29.3244 20.7281 29.6856 20.7281 30.4309C20.728 31.5135 20.3254 32.4042 19.8161 32.4042ZM44.6254 27.6375C42.885 27.6375 41.5529 29.3195 41.5529 31.3301C41.5529 32.8418 42.3586 33.9997 43.9272 33.9997C45.6784 33.9997 47 32.3175 47 30.2944C47.0001 28.7957 46.2161 27.6375 44.6254 27.6375ZM44.0661 32.3978C43.684 32.3978 43.4617 32.0243 43.4617 31.2907C43.4617 30.196 43.8753 29.3182 44.3845 29.3182C44.7553 29.3182 44.9784 29.6791 44.9784 30.4245C44.9782 31.5076 44.5752 32.3978 44.0661 32.3978ZM31.598 29.8855C31.736 28.8634 31.6619 27.9368 30.6121 27.9368C29.8484 27.9368 29.0213 28.6347 28.438 29.8014C28.5655 28.8387 28.491 27.9368 27.4517 27.9368C26.667 27.9368 25.8186 28.6704 25.2352 29.8855C25.3837 29.0916 25.3522 28.1891 25.3096 27.9967C24.7051 28.1052 24.1751 28.165 23.4326 28.1891C23.4538 28.7426 23.4219 29.4639 23.3264 30.1502L23.0825 31.9545C22.987 32.6645 22.8809 33.4826 22.7748 34H24.7473C24.7581 33.6868 24.8325 33.1938 24.8853 32.7607L25.0549 31.5218C25.1926 30.7153 25.7864 29.7654 26.2423 29.7654C26.5075 29.7654 26.4971 30.042 26.4227 30.5592L26.2318 31.9542C26.136 32.6642 26.0304 33.4823 25.9241 33.9997H27.9178C27.9286 33.6865 27.9922 33.1935 28.0451 32.7604L28.2146 31.5215C28.3526 30.715 28.9468 29.7651 29.4024 29.7651C29.6679 29.7651 29.6574 30.0294 29.6145 30.3906L29.1383 33.9994H30.9578L31.598 29.8855ZM41.1251 32.1111L40.913 33.5308C40.5841 33.7231 39.969 34 39.2584 34C38.0494 34 37.8059 33.3021 37.9964 31.8226L38.3041 29.4407H37.7091L37.877 27.8989L38.5265 27.865L38.7706 26.7462L40.6051 26L40.372 27.8647H41.6341C41.5918 28.057 41.4429 29.1161 41.4012 29.4404H40.1703L39.8945 31.6419C39.8203 32.2073 39.863 32.4119 40.2231 32.4119C40.4889 32.4117 40.8808 32.2433 41.1251 32.1111ZM34.1666 32.8779C34.8342 32.7884 35.2937 32.0926 35.4041 31.3982L35.4227 31.2122C35.1359 31.1429 34.7213 31.09 34.3191 31.1432C33.9361 31.1936 33.6176 31.3656 33.4461 31.6148C33.317 31.7936 33.252 32.0078 33.2809 32.263C33.3244 32.6453 33.7155 32.9374 34.1666 32.8779ZM33.5983 33.9774C32.656 34.1027 32.0353 33.6982 31.849 32.7782C31.732 32.1994 31.8944 31.54 32.1782 31.1466C32.5583 30.6322 33.1776 30.3018 33.9335 30.202C34.5418 30.1204 35.0544 30.1607 35.5337 30.2588L35.5536 30.1699C35.5673 30.0279 35.5812 29.886 35.562 29.7162C35.5123 29.2801 35.1941 29.0203 34.4087 29.1248C33.8788 29.1952 33.3747 29.4021 32.9833 29.6376L32.6025 28.3934C33.1331 28.064 33.8018 27.8133 34.5672 27.7117C36.0291 27.5179 37.0565 28.0219 37.1881 29.1808C37.223 29.489 37.2272 29.8157 37.1912 30.1121C37.0035 31.545 36.8832 32.6231 36.8304 33.3457C36.8218 33.4577 36.8225 33.6498 36.8318 33.9223L35.0175 33.9205C35.0562 33.8075 35.0908 33.6544 35.1216 33.4623C35.142 33.3359 35.1566 33.1766 35.1657 32.9835C34.7823 33.5525 34.2552 33.8903 33.5983 33.9774Z" fill="#E23744"/>
</g>
<rect x="0.5" y="0.5" width="59" height="59" rx="29.5" stroke="#E4E4E7"/>
<defs>
<clipPath id="clip0_117_18652">
<rect width="60" height="60" rx="30" fill="white"/>
</clipPath>
</defs>
</svg>
