<svg width="14" height="20" viewBox="0 0 14 20" fill="none" xmlns="http://www.w3.org/2000/svg">
<path fill-rule="evenodd" clip-rule="evenodd" d="M0.217987 1.09202C0 1.51984 0 2.0799 0 3.2V16.8C0 17.9201 0 18.4802 0.217987 18.908C0.409734 19.2843 0.715695 19.5903 1.09202 19.782C1.51984 20 2.0799 20 3.2 20H10.8C11.9201 20 12.4802 20 12.908 19.782C13.2843 19.5903 13.5903 19.2843 13.782 18.908C14 18.4802 14 17.9201 14 16.8V3.2C14 2.07989 14 1.51984 13.782 1.09202C13.5903 0.715695 13.2843 0.409734 12.908 0.217987C12.4802 0 11.9201 0 10.8 0H10H4H3.2C2.0799 0 1.51984 0 1.09202 0.217987C0.715695 0.409734 0.409734 0.715695 0.217987 1.09202ZM4 2.99998C3.58579 2.99998 3.25 3.33576 3.25 3.74998C3.25 4.16419 3.58579 4.49998 4 4.49998H10C10.4142 4.49998 10.75 4.16419 10.75 3.74998C10.75 3.33576 10.4142 2.99998 10 2.99998H4ZM7 15C6.30964 15 5.75 15.5596 5.75 16.25C5.75 16.9403 6.30964 17.5 7 17.5C7.69036 17.5 8.25 16.9403 8.25 16.25C8.25 15.5596 7.69036 15 7 15Z" fill="#008EFF"/>
</svg>
