<svg width="16" height="16" viewBox="0 0 16 16" fill="none" xmlns="http://www.w3.org/2000/svg">
<rect width="16" height="16" rx="4" fill="#FE3F34"/>
<path d="M3.3645 8.854C2.88705 8.854 2.5 8.46695 2.5 7.9895C2.5 7.51205 2.88705 7.125 3.3645 7.125C3.84195 7.125 4.229 7.51205 4.229 7.9895C4.229 8.46695 3.84195 8.854 3.3645 8.854Z" fill="white"/>
<path d="M6.74145 8.854C6.264 8.854 5.87695 8.46695 5.87695 7.9895C5.87695 7.51205 6.264 7.125 6.74145 7.125C7.2189 7.125 7.60595 7.51205 7.60595 7.9895C7.60595 8.46695 7.2189 8.854 6.74145 8.854Z" fill="white"/>
<path d="M10.1184 8.854C9.64096 8.854 9.25391 8.46695 9.25391 7.9895C9.25391 7.51205 9.64096 7.125 10.1184 7.125C10.5959 7.125 10.9829 7.51205 10.9829 7.9895C10.9829 8.46695 10.5959 8.854 10.1184 8.854Z" fill="white"/>
<path fill-rule="evenodd" clip-rule="evenodd" d="M13 4.5C13.3624 4.5 13.6562 4.79381 13.6562 5.15625V10.8438C13.6562 11.2062 13.3624 11.5 13 11.5C12.6376 11.5 12.3438 11.2062 12.3438 10.8438V5.15625C12.3438 4.79381 12.6376 4.5 13 4.5Z" fill="white"/>
</svg>
