<svg width="24" height="32" viewBox="0 0 24 32" fill="none" xmlns="http://www.w3.org/2000/svg">
<g filter="url(#filter0_d_2172_151745)">
<path fill-rule="evenodd" clip-rule="evenodd" d="M19.2533 17.4346C19.0999 17.364 18.934 17.3244 18.7651 17.3179C18.5962 17.3115 18.4277 17.3384 18.2693 17.3971C18.111 17.4558 17.9659 17.5452 17.8426 17.6599C17.7192 17.7747 17.6199 17.9127 17.5506 18.0658C17.0103 19.2554 16.0762 20.2251 14.9039 20.8134C13.7317 21.4017 12.3919 21.5731 11.1079 21.2991C9.82395 21.0251 8.67317 20.3221 7.8473 19.3074C7.02143 18.2927 6.57033 17.0274 6.56913 15.7223C6.58308 15.6458 6.59016 15.5683 6.59026 15.4907V15.1509C6.68917 13.8935 7.20439 12.7042 8.05542 11.7686C8.90646 10.8331 10.0454 10.204 11.2942 9.97973C12.5431 9.75545 13.8315 9.9486 14.9582 10.529C16.0849 11.1094 16.9864 12.0443 17.5219 13.1877C17.5931 13.3401 17.694 13.4768 17.8188 13.5901C17.9435 13.7034 18.0897 13.791 18.2487 13.8479C18.4077 13.9047 18.5766 13.9296 18.7454 13.9212C18.9142 13.9128 19.0796 13.8712 19.2321 13.7989C19.5405 13.6504 19.7775 13.387 19.8914 13.0658C20.0053 12.7447 19.987 12.3918 19.8404 12.084C19.1685 10.664 18.1055 9.46227 16.7745 8.61802C15.4436 7.77376 13.8992 7.32154 12.3202 7.31373C12.204 7.31373 12.0893 7.31673 11.973 7.32153L15.7588 2.03795C15.9573 1.7602 16.0376 1.41597 15.9825 1.07976C15.9274 0.743554 15.7413 0.442437 15.4645 0.241606C15.3277 0.143055 15.1726 0.0724606 15.0082 0.033908C14.8438 -0.00464465 14.6733 -0.0103883 14.5067 0.0170156C14.34 0.0444195 14.1805 0.104427 14.0373 0.193552C13.8942 0.282678 13.7702 0.399151 13.6727 0.536224L9.87035 5.84455L10.7926 2.54033C10.8847 2.21262 10.8428 1.86203 10.676 1.56489C10.5092 1.26775 10.231 1.04813 9.90204 0.953846C9.73918 0.90879 9.56896 0.896162 9.40116 0.916692C9.23337 0.937222 9.07132 0.990505 8.92431 1.07347C8.77731 1.15644 8.64826 1.26747 8.54457 1.40016C8.44088 1.53286 8.3646 1.68461 8.32012 1.84669L6.59026 8.04411V4.42892C6.59026 4.09056 6.455 3.76605 6.21424 3.52679C5.97348 3.28753 5.64694 3.15311 5.30646 3.15311C4.96597 3.15311 4.63943 3.28753 4.39867 3.52679C4.15791 3.76605 4.02265 4.09056 4.02265 4.42892V15.0286C4.00755 15.2359 4 15.4453 4 15.6567C4 20.2573 7.73293 24 12.3202 24C13.9164 23.9938 15.4773 23.5327 16.8177 22.6715C18.1581 21.8103 19.2219 20.585 19.8827 19.1411C20.0247 18.8315 20.0383 18.4789 19.9205 18.1594C19.8027 17.84 19.563 17.5796 19.2533 17.4346Z" fill="white"/>
<path d="M11.2344 8.29773L11.9625 7.32676C12.9823 7.27517 14.3409 7.42518 15.7359 8.05966C12.5601 7.06452 11.2344 8.29773 11.2344 8.29773Z" fill="black" fill-opacity="0.05"/>
<path d="M8.15136 2.47559L6.56935 12.3913L6.56641 8.10088L8.15136 2.47559Z" fill="black" fill-opacity="0.05"/>
<path d="M8.78516 9.03964L9.84569 5.85014L13.5853 0.655273L8.78516 9.03964Z" fill="black" fill-opacity="0.05"/>
<path fill-rule="evenodd" clip-rule="evenodd" d="M9.3566 12.9394C9.4777 12.8893 9.60979 12.8712 9.74001 12.8869L11.26 13.0819C11.3701 13.0966 11.482 13.0879 11.5884 13.0565C11.6948 13.0251 11.7933 12.9716 11.8774 12.8996L13.005 11.9117C13.1088 11.8239 13.2335 11.7639 13.3672 11.7377C13.5009 11.7114 13.6392 11.7197 13.7688 11.7617C13.8974 11.8048 14.0124 11.8805 14.1027 11.9812C14.1929 12.082 14.2552 12.2043 14.2835 12.3362L14.5749 13.7959C14.5978 13.9036 14.6436 14.0051 14.7092 14.0937C14.7748 14.1823 14.8587 14.2559 14.9552 14.3097L16.2851 15.0618C16.3988 15.1276 16.493 15.222 16.5584 15.3354C16.6238 15.4489 16.6579 15.5774 16.6575 15.7082C16.657 15.8389 16.6219 15.9672 16.5558 16.0802C16.4896 16.1932 16.3947 16.2869 16.2806 16.3519L14.9492 17.0586C14.8491 17.1099 14.7619 17.1829 14.694 17.2721C14.626 17.3614 14.5792 17.4647 14.5568 17.5743L14.2503 19.0228C14.22 19.157 14.1531 19.2804 14.0571 19.3795C13.915 19.5285 13.7194 19.6155 13.513 19.6216C13.3065 19.6278 13.106 19.5526 12.9552 19.4124L11.8397 18.3958C11.7584 18.3208 11.662 18.2639 11.5568 18.2289C11.4517 18.1939 11.3402 18.1817 11.2299 18.193L9.71737 18.3362C9.61584 18.3473 9.51311 18.3383 9.41507 18.3099C9.31702 18.2814 9.22557 18.2341 9.14595 18.1705C9.06633 18.107 9.00009 18.0284 8.95102 17.9394C8.90195 17.8504 8.87101 17.7526 8.85998 17.6517C8.84502 17.5153 8.86745 17.3774 8.92489 17.2526L9.57095 15.9175C9.62092 15.8174 9.6473 15.7073 9.64808 15.5955C9.64887 15.4837 9.62404 15.3733 9.57548 15.2725L8.94905 13.9146C8.87311 13.7315 8.87337 13.526 8.94979 13.3432C9.0262 13.1603 9.17251 13.0151 9.3566 12.9394Z" fill="white"/>
</g>
<defs>
<filter id="filter0_d_2172_151745" x="0" y="0" width="24" height="32" filterUnits="userSpaceOnUse" color-interpolation-filters="sRGB">
<feFlood flood-opacity="0" result="BackgroundImageFix"/>
<feColorMatrix in="SourceAlpha" type="matrix" values="0 0 0 0 0 0 0 0 0 0 0 0 0 0 0 0 0 0 127 0" result="hardAlpha"/>
<feOffset dy="4"/>
<feGaussianBlur stdDeviation="2"/>
<feComposite in2="hardAlpha" operator="out"/>
<feColorMatrix type="matrix" values="0 0 0 0 0 0 0 0 0 0 0 0 0 0 0 0 0 0 0.25 0"/>
<feBlend mode="normal" in2="BackgroundImageFix" result="effect1_dropShadow_2172_151745"/>
<feBlend mode="normal" in="SourceGraphic" in2="effect1_dropShadow_2172_151745" result="shape"/>
</filter>
</defs>
</svg>
