<svg width="24" height="24" viewBox="0 0 24 24" fill="none" xmlns="http://www.w3.org/2000/svg">
<path d="M20 21H4" stroke="#18181B" stroke-width="2" stroke-linecap="round" stroke-linejoin="round"/>
<path fill-rule="evenodd" clip-rule="evenodd" d="M8.73333 2H15.2667C16.5735 2 17.2269 2 17.726 2.24221C18.165 2.45526 18.522 2.79522 18.7457 3.21335C19 3.68871 19 4.31099 19 5.55556V22H5V5.55556C5 4.31099 5 3.68871 5.25432 3.21335C5.47802 2.79522 5.83498 2.45526 6.27402 2.24221C6.77315 2 7.42654 2 8.73333 2ZM9.5 6C8.94772 6 8.5 6.44772 8.5 7C8.5 7.55228 8.94772 8 9.5 8H14.5C15.0523 8 15.5 7.55228 15.5 7C15.5 6.44772 15.0523 6 14.5 6H9.5ZM9.5 10C8.94772 10 8.5 10.4477 8.5 11C8.5 11.5523 8.94772 12 9.5 12H14.5C15.0523 12 15.5 11.5523 15.5 11C15.5 10.4477 15.0523 10 14.5 10H9.5ZM9.5 14C8.94772 14 8.5 14.4477 8.5 15C8.5 15.5523 8.94772 16 9.5 16H14.5C15.0523 16 15.5 15.5523 15.5 15C15.5 14.4477 15.0523 14 14.5 14H9.5Z" fill="#18181B"/>
</svg>
