<svg width="24" height="24" viewBox="0 0 24 24" fill="none" xmlns="http://www.w3.org/2000/svg">
<path d="M22.5937 5H1.40626C0.62959 5 0 5.62959 0 6.40626V18.3631C0 19.1397 0.62959 19.7693 1.40626 19.7693H22.5937C23.3704 19.7693 24 19.1397 24 18.363V6.40626C24 5.62959 23.3704 5 22.5937 5ZM5.67152 16.0147C5.67152 16.4031 5.35672 16.7179 4.96839 16.7179H2.894C2.50567 16.7179 2.19087 16.4031 2.19087 16.0147C2.19087 15.6264 2.50567 15.3116 2.894 15.3116H4.96839C5.35672 15.3116 5.67152 15.6264 5.67152 16.0147ZM7.23923 11.0043C7.23923 11.6504 6.71353 12.1761 6.06737 12.1761H3.45629C2.81013 12.1761 2.28443 11.6504 2.28443 11.0043V8.95424C2.28443 8.30808 2.81013 7.78238 3.45629 7.78238H6.06732C6.71348 7.78238 7.23918 8.30808 7.23918 8.95424L7.23923 11.0043ZM11.0507 16.0147C11.0507 16.4031 10.7359 16.7179 10.3476 16.7179H8.27319C7.88486 16.7179 7.57005 16.4031 7.57005 16.0147C7.57005 15.6264 7.88486 15.3116 8.27318 15.3116H10.3476C10.7359 15.3116 11.0507 15.6264 11.0507 16.0147ZM16.4299 16.0147C16.4299 16.4031 16.1151 16.7179 15.7268 16.7179H13.6524C13.2641 16.7179 12.9493 16.4031 12.9493 16.0147C12.9493 15.6264 13.2641 15.3116 13.6524 15.3116H15.7268C16.1151 15.3116 16.4299 15.6264 16.4299 16.0147ZM21.8091 16.0147C21.8091 16.4031 21.4943 16.7179 21.106 16.7179H19.0316C18.6433 16.7179 18.3285 16.4031 18.3285 16.0147C18.3285 15.6264 18.6433 15.3116 19.0316 15.3116H21.106C21.4943 15.3116 21.8091 15.6264 21.8091 16.0147Z" fill="#27272A"/>
</svg>
