<svg width="32" height="32" viewBox="0 0 32 32" fill="none" xmlns="http://www.w3.org/2000/svg">
<path d="M14.2275 6.02365L4.27449 23.2615C4.0947 23.5728 4.00003 23.9259 4 24.2854C3.99997 24.6449 4.09457 24.998 4.2743 25.3093C4.45403 25.6207 4.71255 25.8792 5.02387 26.0589C5.33519 26.2386 5.68834 26.3332 6.04782 26.3332H25.9522C26.3117 26.3332 26.6648 26.2386 26.9761 26.0589C27.2875 25.8792 27.546 25.6207 27.7257 25.3093C27.9054 24.998 28 24.6449 28 24.2854C28 23.9259 27.9053 23.5728 27.7255 23.2615L17.7736 6.02365C17.5939 5.71242 17.3354 5.45397 17.0242 5.27429C16.713 5.0946 16.3599 5 16.0005 5C15.6412 5 15.2881 5.0946 14.9769 5.27429C14.6656 5.45397 14.4072 5.71242 14.2275 6.02365Z" fill="#FAA81A"/>
<path d="M16.1299 11.3403H15.8703C15.2311 11.3403 14.7129 11.8585 14.7129 12.4977V18.0298C14.7129 18.669 15.2311 19.1872 15.8703 19.1872H16.1299C16.7691 19.1872 17.2873 18.669 17.2873 18.0298V12.4977C17.2873 11.8585 16.7691 11.3403 16.1299 11.3403Z" fill="#FCF4D9"/>
<path d="M16.0001 23.5746C16.711 23.5746 17.2873 22.9983 17.2873 22.2874C17.2873 21.5765 16.711 21.0002 16.0001 21.0002C15.2892 21.0002 14.7129 21.5765 14.7129 22.2874C14.7129 22.9983 15.2892 23.5746 16.0001 23.5746Z" fill="#FCF4D9"/>
</svg>
