<svg width="24" height="24" viewBox="0 0 24 24" fill="none" xmlns="http://www.w3.org/2000/svg">
<path fill-rule="evenodd" clip-rule="evenodd" d="M17.951 11.2043C17.5952 10.3017 16.3178 10.3017 15.9619 11.2043C15.7401 11.7668 15.0909 12.0313 14.5362 11.7904C13.6507 11.4059 12.7403 12.3019 13.1292 13.1855C13.3727 13.7385 13.1058 14.3829 12.5427 14.6019C11.6407 14.9527 11.6407 16.229 12.5427 16.5798C13.1058 16.7988 13.3727 17.4432 13.1292 17.9962C12.7403 18.8798 13.6507 19.7758 14.5362 19.3913C15.0909 19.1505 15.7401 19.4149 15.9619 19.9774C16.3178 20.88 17.5952 20.88 17.951 19.9774C18.1728 19.4149 18.8221 19.1505 19.3767 19.3913C20.2622 19.7758 21.1726 18.8798 20.7837 17.9962C20.5402 17.4432 20.8071 16.7988 21.3702 16.5798C22.2722 16.229 22.2722 14.9527 21.3702 14.6019C20.8071 14.3829 20.5402 13.7385 20.7837 13.1855C21.1726 12.3019 20.2622 11.4059 19.3767 11.7904C18.8221 12.0313 18.1728 11.7668 17.951 11.2043ZM15.9999 15.4999C15.9999 14.9477 16.4476 14.4999 16.9999 14.4999C17.5522 14.4999 17.9999 14.9477 17.9999 15.4999C17.9999 16.0522 17.5522 16.4999 16.9999 16.4999C16.4476 16.4999 15.9999 16.0522 15.9999 15.4999ZM16.9999 13.4999C15.8954 13.4999 14.9999 14.3954 14.9999 15.4999C14.9999 16.6045 15.8954 17.4999 16.9999 17.4999C18.1045 17.4999 18.9999 16.6045 18.9999 15.4999C18.9999 14.3954 18.1045 13.4999 16.9999 13.4999Z" fill="white"/>
<path d="M12.6418 11.2729C10.207 13.3457 7.85916 12.1366 6.9896 11.2729C3.16351 12.6548 2.7867 17.3184 3.07655 19.4775H12.5L12.1911 18.8738C12.0689 18.6349 12.0478 18.3568 12.1327 18.1021L12.1838 17.9489C12.3584 17.425 12.0609 16.8657 11.6199 16.5331C11.293 16.2865 11 15.9422 11 15.5002C11 14.9499 11.4543 14.551 11.8628 14.3036C12.1969 14.1012 12.3999 13.6999 12.2764 13.3294C12.107 12.8212 12.2393 12.261 12.618 11.8822L13 11.5002L12.6418 11.2729Z" fill="white"/>
<ellipse cx="9.95678" cy="6.95455" rx="3.47826" ry="3.45455" fill="white"/>
</svg>
