<svg width="401" height="216" viewBox="0 0 401 216" fill="none" xmlns="http://www.w3.org/2000/svg">
<g clip-path="url(#clip0_1387_157326)">
<path fill-rule="evenodd" clip-rule="evenodd" d="M40.6816 131.899L65.1804 184.598L79.9331 156.242L199.335 61.2198L204.389 57.207L40.6816 131.899Z" fill="#FAA81A"/>
<path d="M65.196 184.974C65.0548 184.974 64.9292 184.896 64.8664 184.77L40.3676 132.071C40.3206 131.977 40.3206 131.883 40.352 131.788C40.3833 131.694 40.4618 131.616 40.5403 131.585L204.263 56.8931C204.436 56.8147 204.624 56.8774 204.734 57.0342C204.844 57.1909 204.797 57.3947 204.655 57.5044L199.602 61.5173L80.2625 156.492L65.557 184.786C65.4471 184.896 65.3373 184.974 65.196 184.974ZM41.1838 132.086L65.2117 183.783L79.6191 156.085C79.6348 156.038 79.6818 156.006 79.7132 155.959L199.115 60.9373L201.83 58.7741L41.1838 132.086Z" fill="#18181B"/>
<path fill-rule="evenodd" clip-rule="evenodd" d="M79.9785 156.21L204.936 56.7207L133.998 189.818L79.9785 156.21Z" fill="#FAA81A"/>
<path d="M134.015 190.179C133.953 190.179 133.874 190.164 133.827 190.117L79.8074 156.509C79.7132 156.447 79.6348 156.337 79.6348 156.227C79.6348 156.102 79.6818 155.992 79.776 155.914L204.734 56.4241C204.875 56.3144 205.063 56.3144 205.189 56.4241C205.315 56.5338 205.362 56.7219 205.283 56.8787L134.345 189.975C134.298 190.07 134.219 190.132 134.11 190.164C134.078 190.181 134.047 190.181 134.015 190.179ZM80.6235 156.164L133.874 189.286L203.792 58.0856L80.6235 156.164Z" fill="#18181B"/>
<path fill-rule="evenodd" clip-rule="evenodd" d="M40.6034 131.882L204.907 56.7676L0.363281 106.506L40.6034 131.882Z" fill="#FAA81A"/>
<path d="M40.6019 132.244C40.5391 132.244 40.4607 132.228 40.4136 132.181L0.175007 106.805C0.0494529 106.726 -0.0133242 106.585 0.00237008 106.444C0.0180644 106.303 0.127924 106.178 0.269173 106.146L204.813 56.4094C205.001 56.3623 205.189 56.4721 205.252 56.6445C205.315 56.8169 205.237 57.0207 205.064 57.0991L40.7604 132.214C40.7133 132.23 40.6506 132.244 40.6019 132.244ZM1.27204 106.646L40.6176 131.46L201.264 58.0223L1.27204 106.646Z" fill="#18181B"/>
<path fill-rule="evenodd" clip-rule="evenodd" d="M65.1934 184.614L94.4318 165.224L79.8989 156.227L65.1934 184.614Z" fill="white"/>
<path d="M65.1946 184.974C65.1005 184.974 65.022 184.942 64.9435 184.88C64.818 184.77 64.7866 184.582 64.865 184.441L79.5863 156.053C79.6334 155.959 79.7118 155.897 79.806 155.865C79.9002 155.834 80.01 155.85 80.0885 155.912L94.6214 164.91C94.7313 164.972 94.7941 165.082 94.7941 165.208C94.7941 165.333 94.7313 165.443 94.6371 165.521L65.3987 184.911C65.3374 184.958 65.259 184.974 65.1946 184.974ZM80.0571 156.743L66.1677 183.532L93.7582 165.239L80.0571 156.743Z" fill="#18181B"/>
<path fill-rule="evenodd" clip-rule="evenodd" d="M111.685 25.3108C111.759 26.0836 111.506 26.8877 110.994 27.4881C110.484 28.0743 109.745 28.4443 108.951 28.4976C96.3751 29.1575 45.3357 31.852 33.0282 32.4931C31.5137 32.5731 30.1985 31.4852 29.993 29.9992C29.7732 27.1307 29.6916 23.2041 29.7779 21.5284C30.4041 9.30189 39.86 -0.181508 50.8616 0.381226C56.7643 0.683754 61.901 3.78741 65.3192 8.48209C67.5494 6.30483 70.5109 5.02731 73.6937 5.19033C78.8634 5.45524 83.0679 9.40535 84.3517 14.6502C87.1217 9.64361 92.1894 6.41769 97.8095 6.70611C105.092 7.08074 110.851 16.7773 111.685 25.3108Z" fill="#196CFA"/>
<path d="M32.8845 32.865C31.2743 32.8619 29.8665 31.6596 29.653 30.0482C29.4255 27.0543 29.3564 23.1575 29.4412 21.5147C30.0784 9.08284 39.7099 -0.547911 50.9078 0.0242282C56.5421 0.312649 61.8044 3.18745 65.4031 7.93856C67.7588 5.78324 70.7109 4.67815 73.7399 4.83333C78.6851 5.0857 82.91 8.61415 84.4983 13.7179C87.5006 8.88063 92.5306 6.07636 97.8557 6.33343C105.279 6.71277 111.193 16.4329 112.068 25.2673C112.15 26.1514 111.879 27.0308 111.293 27.7236C110.708 28.3992 109.868 28.8114 109.003 28.8616C102.773 29.1861 87.0957 30.0169 71.3747 30.8445C55.3571 31.6894 39.2846 32.5311 33.0807 32.8572C32.9959 32.8713 32.9394 32.8682 32.8845 32.865ZM49.9552 0.729605C39.5467 0.731173 30.7721 9.87286 30.1741 21.5508C30.0909 23.1637 30.1568 27.1217 30.3781 29.9745C30.5523 31.2552 31.7184 32.2098 33.021 32.1346C39.2234 31.8085 55.2975 30.9668 71.3151 30.1219C87.0345 29.2942 102.712 28.4635 108.944 28.139C109.623 28.0951 110.26 27.7832 110.727 27.2565C111.177 26.7298 111.397 26.0354 111.332 25.3567C110.292 14.787 103.498 7.37739 97.8071 7.08584C92.5102 6.81466 87.4849 9.79135 84.6976 14.8434C84.6207 14.9798 84.4748 15.0519 84.3351 15.0284C84.1813 15.0049 84.0589 14.9045 84.0243 14.7462C82.739 9.50136 78.5925 5.81929 73.7038 5.57006C70.7595 5.41958 67.8906 6.54505 65.6479 8.72074C65.6322 8.73642 65.6181 8.7662 65.5883 8.78031C65.4407 8.89787 65.2147 8.8869 65.0813 8.73799L65.0546 8.70507C61.5705 3.92731 56.4087 1.04311 50.8717 0.759388C50.561 0.743713 50.2518 0.728038 49.9552 0.729605Z" fill="#2E33C7"/>
<path d="M36.6141 79.5371C36.4351 79.5387 36.2861 79.4117 36.2547 79.2346C36.2327 79.0418 36.3457 78.8474 36.5466 78.8129L162.584 55.7283C162.782 55.6938 162.977 55.8208 162.999 56.0136C163.021 56.2064 162.908 56.4008 162.707 56.4352L36.669 79.5199C36.6596 79.5371 36.6141 79.5371 36.6141 79.5371Z" fill="#18181B"/>
<path d="M200.497 91.911C200.434 91.911 200.387 91.8953 200.324 91.8639C200.152 91.7699 200.073 91.5504 200.167 91.3623L212.785 67.7087C212.88 67.5363 213.099 67.4579 213.288 67.552C213.46 67.646 213.539 67.8655 213.445 68.0536L200.842 91.7072C200.764 91.8483 200.622 91.911 200.497 91.911Z" fill="#18181B"/>
<path d="M60.252 62.1606C59.0278 62.1606 58.0391 61.1731 58.0391 59.9504C58.0391 58.7278 59.0278 57.7402 60.252 57.7402C61.4761 57.7402 62.4649 58.7278 62.4649 59.9504C62.4649 61.1731 61.4761 62.1606 60.252 62.1606ZM60.252 58.4613C59.4359 58.4613 58.7767 59.1196 58.7767 59.9347C58.7767 60.7498 59.4359 61.4082 60.252 61.4082C61.0681 61.4082 61.7272 60.7498 61.7272 59.9347C61.7272 59.1196 61.0681 58.4613 60.252 58.4613Z" fill="#196CFA"/>
<path d="M354.459 71.7075C353.235 71.7075 352.246 70.7199 352.246 69.4973C352.246 68.2746 353.235 67.2871 354.459 67.2871C355.683 67.2871 356.672 68.2746 356.672 69.4973C356.672 70.7199 355.685 71.7075 354.459 71.7075ZM354.459 68.0238C353.643 68.0238 352.984 68.6822 352.984 69.4973C352.984 70.3124 353.643 70.9707 354.459 70.9707C355.275 70.9707 355.934 70.3124 355.934 69.4973C355.934 68.6822 355.275 68.0238 354.459 68.0238Z" fill="#18181B"/>
<path d="M184.768 125.397C183.815 125.397 183.035 124.619 183.035 123.666C183.035 122.713 183.814 121.936 184.768 121.936C185.722 121.936 186.5 122.713 186.5 123.666C186.511 124.619 185.733 125.397 184.768 125.397ZM184.768 122.668C184.209 122.668 183.768 123.121 183.768 123.666C183.768 124.224 184.222 124.665 184.768 124.665C185.314 124.665 185.768 124.212 185.768 123.666C185.78 123.11 185.327 122.668 184.768 122.668Z" fill="#18181B"/>
<path d="M221.59 127.389C221.54 127.38 221.512 127.356 221.463 127.347C221.279 127.258 221.173 127.073 221.259 126.889L249.807 53.9346C249.871 53.7637 250.091 53.6603 250.275 53.7496C250.458 53.839 250.565 54.0239 250.479 54.2073L221.931 127.162C221.866 127.333 221.753 127.364 221.59 127.389Z" fill="#18181B"/>
<path d="M385.94 116.905C385.871 116.901 385.794 116.875 385.731 116.835L318.971 71.9132C318.814 71.8097 318.748 71.5668 318.877 71.4116C319.005 71.2564 319.222 71.2 319.388 71.3222L386.149 116.244C386.315 116.366 386.372 116.59 386.243 116.745C386.18 116.85 386.077 116.915 385.94 116.905Z" fill="#196CFA"/>
<path fill-rule="evenodd" clip-rule="evenodd" d="M376.304 53.2589C375.002 54.5285 373.056 54.8891 371.376 54.1837C360.83 49.685 318.518 31.6273 311.518 28.649C310.89 28.3669 310.482 27.7556 310.482 27.0659C310.482 20.1061 316.132 14.4631 323.101 14.4631C326.506 14.4631 329.598 15.8112 331.858 18.0214C331.293 18.6797 331.905 17.9743 331.905 17.9743C335.499 13.8988 340.788 11.3281 346.658 11.3281C357.518 11.3281 366.323 20.1218 366.323 30.9846C366.323 31.2354 366.323 31.4862 366.307 31.737C366.699 31.69 367.092 31.6743 367.5 31.6743C374.468 31.6743 380.118 37.3173 380.118 44.2614C380.087 47.7883 378.643 50.9703 376.304 53.2589Z" fill="#196CFA"/>
<path d="M373.149 54.9039C372.506 54.9039 371.847 54.7785 371.219 54.5121L356.953 48.4302C339.862 41.1413 316.462 31.1563 311.345 28.9774C310.576 28.6326 310.09 27.8958 310.09 27.0651C310.09 19.9172 315.912 14.1018 323.069 14.1018C326.333 14.1018 329.425 15.3088 331.811 17.5033C335.609 13.3494 340.976 10.9668 346.626 10.9668C357.675 10.9668 366.652 19.9486 366.652 30.9838V31.3444C366.903 31.3287 367.17 31.313 367.468 31.313C374.625 31.313 380.447 37.1284 380.447 44.2763C380.447 47.7875 379.066 51.0792 376.555 53.5245C375.629 54.4165 374.405 54.9039 373.149 54.9039ZM323.085 14.8229C316.336 14.8229 310.843 20.3091 310.843 27.0494C310.843 27.5823 311.173 28.0683 311.659 28.2877C316.76 30.4509 340.16 40.4516 357.251 47.7405L371.517 53.8224C373.071 54.4807 374.844 54.1515 376.053 52.9759C378.423 50.6717 379.725 47.568 379.725 44.2449C379.725 37.5046 374.232 32.0184 367.484 32.0184C367.044 32.0184 366.668 32.0341 366.322 32.0811C366.213 32.0968 366.103 32.0497 366.024 31.987C365.946 31.9087 365.899 31.8146 365.914 31.7049C365.93 31.4541 365.93 31.2033 365.93 30.9682C365.93 20.3405 357.267 11.6878 346.642 11.6878C341.102 11.6878 335.828 14.0705 332.172 18.2087C332.093 18.287 332.03 18.3654 331.968 18.4281C331.921 18.4751 331.889 18.5065 331.889 18.5222C331.701 18.6946 331.56 18.7416 331.371 18.5692C331.183 18.3968 331.214 18.24 331.356 18.0519C329.08 15.9671 326.161 14.8229 323.085 14.8229Z" fill="#2E33C7"/>
<path fill-rule="evenodd" clip-rule="evenodd" d="M147.621 33.7571C147.621 33.7571 154.056 30.4966 156.096 29.4621C156.425 29.2897 156.849 29.4151 157.053 29.7442C157.242 30.0734 157.163 30.481 156.865 30.6847C155.562 31.6409 152.266 34.0235 152.266 34.0235L152.941 39.2747L151.042 40.9205C151.042 40.9205 149.661 42.7702 147.197 42.8329L146.177 43.648L143.682 42.4097V37.9893L147.621 33.7571Z" fill="white"/>
<path d="M146.163 43.9617C146.116 43.9617 146.069 43.946 146.022 43.9303L143.526 42.692C143.416 42.645 143.354 42.5352 143.354 42.4255V38.0051C143.354 37.9268 143.385 37.8484 143.432 37.8014L147.403 33.5848C147.434 33.5534 147.45 33.5378 147.481 33.5221C147.481 33.5221 153.916 30.2617 155.956 29.2271C156.427 28.9763 157.039 29.1644 157.306 29.619C157.573 30.0736 157.447 30.6692 157.023 30.9671C155.893 31.7978 153.225 33.7259 152.582 34.1961L153.225 39.2592C153.241 39.3532 153.194 39.4629 153.115 39.5256L151.232 41.1558C151.044 41.4066 149.663 43.0525 147.277 43.1622L146.335 43.9146C146.304 43.9303 146.241 43.9617 146.163 43.9617ZM143.966 42.2217L146.131 43.2876L147.01 42.5979C147.057 42.5509 147.12 42.5352 147.199 42.5352C149.49 42.4882 150.793 40.764 150.808 40.7483L150.855 40.7013L152.629 39.1651L151.97 34.0864C151.954 33.9767 152.001 33.8669 152.095 33.8042C152.095 33.8042 155.391 31.406 156.694 30.4655C156.866 30.3401 156.913 30.1206 156.804 29.9325C156.694 29.7444 156.443 29.666 156.254 29.7758C154.324 30.7633 148.423 33.7572 147.826 34.055L143.981 38.1462V42.2217H143.966Z" fill="#18181B"/>
<path fill-rule="evenodd" clip-rule="evenodd" d="M143.086 38.475C143.086 38.475 144.906 35.0265 145.44 34.2271C145.88 33.553 148.736 32.5969 149.803 32.2363C149.929 32.1893 150.07 32.205 150.18 32.2677C150.274 32.3461 150.368 32.4401 150.399 32.5812C150.541 33.1768 150.431 34.2271 148.281 34.9168C148.281 34.9168 148.014 37.1583 146.743 38.2869L144.451 41.3122L143.086 38.475Z" fill="white"/>
<path d="M143.084 38.7899C143.037 38.7899 142.99 38.7742 142.943 38.7585C142.802 38.6801 142.739 38.492 142.817 38.351C142.896 38.2099 144.638 34.8711 145.187 34.0717C145.313 33.8836 145.705 33.2722 149.707 31.9712C149.911 31.9085 150.131 31.9242 150.319 32.0182C150.335 32.0182 150.351 32.0339 150.366 32.0496C150.539 32.175 150.665 32.3474 150.712 32.5355C150.869 33.1939 150.806 34.4008 148.561 35.1689C148.467 35.7646 148.091 37.5202 146.961 38.5391C146.835 38.6488 146.647 38.6488 146.537 38.5077C146.427 38.3823 146.443 38.1942 146.568 38.0845C147.745 37.0343 147.996 34.9181 148.012 34.9024C148.028 34.777 148.106 34.683 148.216 34.6516C149.644 34.1971 150.335 33.4917 150.131 32.6766C150.115 32.6296 150.084 32.5825 150.052 32.5669C150.005 32.5512 149.974 32.5512 149.927 32.5669C146.396 33.7268 145.815 34.2911 145.721 34.4322C145.187 35.2159 143.398 38.6174 143.382 38.6645C143.305 38.7272 143.196 38.7899 143.084 38.7899Z" fill="#18181B"/>
<path fill-rule="evenodd" clip-rule="evenodd" d="M153.138 34.6356C153.016 34.4146 152.807 34.2437 152.57 34.1748C152.322 34.1121 152.068 34.1403 151.839 34.2657L149.575 35.5181C149.357 35.6388 149.188 35.8441 149.109 36.0887C149.048 36.3363 149.076 36.595 149.199 36.8144C149.321 37.0355 149.53 37.2063 149.767 37.2753C150.015 37.338 150.28 37.3035 150.498 37.1844L152.761 35.9319C152.991 35.805 153.149 35.6059 153.228 35.3614C153.279 35.1215 153.26 34.8566 153.138 34.6356Z" fill="white"/>
<path d="M150.019 37.6769C149.906 37.6769 149.787 37.6675 149.668 37.633C149.307 37.5202 149.023 37.2898 148.858 36.9919C148.693 36.6941 148.649 36.332 148.732 35.9966C148.85 35.6439 149.075 35.357 149.368 35.194L151.631 33.9416C151.936 33.7723 152.282 33.7315 152.628 33.8162C152.989 33.929 153.268 34.15 153.438 34.4573C153.602 34.7551 153.646 35.1172 153.563 35.4526C153.445 35.8053 153.221 36.0922 152.928 36.2552L150.664 37.5076C150.475 37.6252 150.245 37.6754 150.019 37.6769ZM152.312 34.5059C152.21 34.4996 152.1 34.5357 152.014 34.5827L149.751 35.8351C149.61 35.9135 149.511 36.0436 149.456 36.1988C149.417 36.3336 149.442 36.506 149.516 36.6408C149.589 36.7756 149.724 36.8885 149.875 36.9308C150.021 36.9622 150.183 36.948 150.324 36.8697L152.587 35.6172C152.728 35.5389 152.827 35.4088 152.882 35.2536C152.921 35.1188 152.896 34.9463 152.822 34.8115C152.749 34.6767 152.614 34.5639 152.463 34.5215C152.4 34.5074 152.356 34.5059 152.312 34.5059Z" fill="#18181B"/>
<path fill-rule="evenodd" clip-rule="evenodd" d="M153.648 36.6141C153.525 36.3931 153.317 36.2222 153.08 36.1533C152.832 36.0906 152.577 36.1188 152.348 36.2442L150.085 37.4966C149.856 37.6236 149.698 37.8227 149.619 38.0672C149.558 38.3149 149.586 38.5735 149.709 38.7929C149.831 39.014 150.04 39.1848 150.277 39.2538C150.525 39.3165 150.79 39.282 151.008 39.1629L153.271 37.9104C153.5 37.7835 153.659 37.5844 153.737 37.3399C153.794 37.1095 153.775 36.8445 153.648 36.6141Z" fill="white"/>
<path d="M150.533 39.6652C150.42 39.6652 150.301 39.6558 150.181 39.6213C149.821 39.5085 149.536 39.278 149.372 38.9802C149.207 38.6824 149.163 38.3203 149.246 37.9848C149.364 37.6322 149.588 37.3453 149.882 37.1823L152.145 35.9299C152.449 35.7606 152.796 35.7198 153.141 35.8045C153.502 35.9173 153.782 36.1383 153.951 36.4456C154.121 36.7528 154.16 37.1055 154.077 37.4409C153.959 37.7936 153.735 38.0805 153.441 38.2435L151.178 39.4959C150.982 39.6041 150.759 39.6652 150.533 39.6652ZM152.821 36.4847C152.719 36.4785 152.609 36.5145 152.523 36.5616L150.26 37.814C150.119 37.8924 150.02 38.0225 149.965 38.1777C149.926 38.3125 149.951 38.4849 150.025 38.6197C150.098 38.7545 150.233 38.8674 150.384 38.9097C150.53 38.941 150.692 38.9269 150.833 38.8485L153.096 37.5961C153.237 37.5177 153.336 37.3876 153.391 37.2324C153.43 37.0976 153.405 36.9252 153.331 36.7904C153.258 36.6556 153.123 36.5427 152.972 36.5004C152.914 36.4957 152.87 36.4957 152.821 36.4847Z" fill="#18181B"/>
<path fill-rule="evenodd" clip-rule="evenodd" d="M154 38.5222C153.758 38.0864 153.199 37.9218 152.758 38.1663L151.022 39.1257C150.581 39.3702 150.42 39.9204 150.666 40.3656C150.908 40.8013 151.467 40.9659 151.908 40.7214L153.643 39.7621C154.084 39.5191 154.241 38.9579 154 38.5222Z" fill="white"/>
<path d="M151.471 41.1875C151.025 41.1844 150.585 40.954 150.349 40.5292C150.006 39.9131 150.236 39.1357 150.851 38.7939L152.587 37.8346C153.202 37.4945 153.974 37.7186 154.316 38.3347C154.658 38.9507 154.438 39.7235 153.823 40.0636L152.087 41.0229C151.891 41.1452 151.678 41.1922 151.471 41.1875ZM153.21 38.4146C153.125 38.4146 153.028 38.4319 152.944 38.4789L151.209 39.4382C150.942 39.5855 150.852 39.9194 150.992 40.1734C151.138 40.4367 151.464 40.5276 151.731 40.3803L153.467 39.421C153.734 39.2736 153.823 38.9397 153.684 38.6858C153.588 38.5134 153.401 38.4146 153.21 38.4146Z" fill="#18181B"/>
<path fill-rule="evenodd" clip-rule="evenodd" d="M98.4668 57.8039C98.4668 57.8039 115.809 51.001 117.771 49.9977C119.748 49.0102 134.799 40.2479 136.933 39.2447C139.068 38.2415 140.072 38.8685 140.072 38.8685C140.072 38.8685 141.861 38.1944 142.725 37.8809C142.991 37.7712 143.29 37.8809 143.478 38.1004C144.216 39.1193 146.146 41.9251 146.507 44.292C146.538 44.5115 146.444 44.7309 146.287 44.872C145.754 45.3423 144.53 46.3611 144.53 46.3611C144.53 46.3611 143.917 49.2453 140.088 51.816C136.243 54.3868 123.625 62.9767 123.625 62.9767L106.659 73.526L98.4668 65.8452V57.8039Z" fill="white"/>
<path d="M106.643 73.8233C106.564 73.8233 106.486 73.792 106.439 73.745L98.2465 66.0642C98.1837 66.0015 98.1523 65.9231 98.1523 65.8447V57.8034C98.1523 57.678 98.2308 57.5683 98.3407 57.5213C98.5133 57.4586 115.683 50.7026 117.629 49.7308C118.492 49.2919 121.992 47.3012 125.68 45.2007C130.326 42.5516 135.599 39.542 136.807 38.9777C138.628 38.1156 139.727 38.3977 140.103 38.5388C140.511 38.3821 141.908 37.8648 142.63 37.5826C143.007 37.4416 143.462 37.567 143.713 37.8961C144.953 39.6204 146.475 42.1127 146.805 44.2288C146.852 44.5423 146.726 44.8715 146.491 45.091C146.02 45.4985 145.078 46.298 144.796 46.5174C144.639 47.0817 143.776 49.6838 140.244 52.0507C136.446 54.59 123.907 63.133 123.781 63.2113L106.8 73.7606C106.769 73.8077 106.706 73.8233 106.643 73.8233ZM98.7644 65.7037L106.69 73.1336L123.467 62.7097C123.577 62.6313 136.117 54.0885 139.915 51.5491C143.587 49.0881 144.231 46.3136 144.231 46.2823C144.246 46.2196 144.278 46.1569 144.325 46.1099C144.325 46.1099 145.533 45.091 146.083 44.6207C146.161 44.5423 146.208 44.4169 146.193 44.3072C145.941 42.724 144.921 40.6236 143.226 38.241C143.132 38.1313 142.975 38.0842 142.834 38.1313C141.971 38.4604 140.182 39.1188 140.182 39.1188C140.087 39.1501 139.993 39.1501 139.915 39.0874C139.915 39.0874 138.989 38.5702 137.058 39.4793C135.881 40.0436 130.624 43.0375 125.978 45.6866C122.274 47.8028 118.775 49.7935 117.896 50.2324C116.028 51.1729 100.758 57.1764 98.7487 57.9759V65.7037H98.7644Z" fill="#18181B"/>
<path d="M143.681 45.295C143.571 45.295 143.461 45.2323 143.414 45.1226C142.127 42.5362 140.479 40.42 140.464 40.4044C140.354 40.279 140.385 40.0752 140.511 39.9811C140.652 39.8714 140.84 39.9028 140.934 40.0282C140.95 40.0438 142.629 42.2227 143.948 44.8561C144.026 45.0128 143.963 45.1853 143.807 45.2636C143.775 45.2793 143.728 45.295 143.681 45.295Z" fill="#18181B"/>
<path fill-rule="evenodd" clip-rule="evenodd" d="M264.531 48.9766L344.839 172.308L400.648 160.269L264.531 48.9766Z" fill="white"/>
<path d="M344.837 172.668C344.712 172.668 344.602 172.605 344.523 172.495L264.216 49.164C264.121 49.0073 264.137 48.8192 264.278 48.6938C264.42 48.5684 264.608 48.5684 264.749 48.6781L400.866 159.971C400.976 160.065 401.023 160.206 400.991 160.331C400.96 160.473 400.85 160.567 400.709 160.598L344.9 172.636C344.884 172.668 344.853 172.668 344.837 172.668ZM266.115 50.7472L344.994 171.9L399.814 160.081L266.115 50.7472Z" fill="#18181B"/>
<path fill-rule="evenodd" clip-rule="evenodd" d="M344.806 172.292L308.113 214.772L282.798 185.851L264.389 48.9297L344.806 172.292Z" fill="white"/>
<path d="M308.112 215.132C308.003 215.132 307.908 215.085 307.83 215.007L282.515 186.086C282.468 186.039 282.437 185.961 282.421 185.898L264.011 48.9767C263.996 48.8043 264.09 48.6476 264.247 48.5849C264.404 48.5222 264.592 48.5849 264.686 48.7259L345.088 172.089C345.182 172.23 345.167 172.402 345.057 172.527L308.364 215.007C308.316 215.085 308.222 215.132 308.112 215.132ZM283.158 185.694L308.112 214.207L344.351 172.261L264.985 50.4815L283.158 185.694Z" fill="#18181B"/>
<path fill-rule="evenodd" clip-rule="evenodd" d="M264.389 48.8184L282.83 185.834L204.076 202.951L264.389 48.8184Z" fill="white"/>
<path d="M204.092 203.312C203.982 203.312 203.888 203.265 203.809 203.187C203.715 203.077 203.699 202.936 203.746 202.811L264.044 48.6939C264.107 48.5371 264.264 48.4431 264.421 48.4587C264.593 48.4744 264.719 48.5998 264.734 48.7722L283.175 185.788C283.207 185.976 283.081 186.148 282.893 186.195L204.139 203.312H204.092ZM264.217 50.277L204.672 202.45L282.422 185.553L264.217 50.277Z" fill="#18181B"/>
<path d="M306.627 210.304C306.472 210.308 306.33 210.21 306.282 210.049L296.997 182.511C296.936 182.313 297.03 182.113 297.225 182.049C297.421 181.983 297.626 182.092 297.688 182.277L306.972 209.815C307.034 210 306.939 210.213 306.745 210.278C306.706 210.303 306.666 210.303 306.627 210.304Z" fill="#18181B"/>
<path fill-rule="evenodd" clip-rule="evenodd" d="M323.899 156.241C323.899 156.241 325.469 169.721 319.693 173.217C313.918 176.712 292.683 184.675 281.399 174.8L279.893 163.624L295.304 154.877L323.899 156.241Z" fill="#FAA81A"/>
<path d="M296.134 179.958C290.626 179.958 285.242 178.673 281.146 175.083C281.084 175.02 281.036 174.942 281.021 174.864L279.514 163.687C279.498 163.546 279.561 163.39 279.702 163.327L295.114 154.58C295.177 154.549 295.24 154.533 295.318 154.533L323.913 155.913C324.086 155.928 324.243 156.054 324.258 156.242C324.321 156.806 325.781 170.004 319.864 173.578C315.799 175.992 305.786 179.958 296.134 179.958ZM281.727 174.613C287.706 179.754 296.338 179.66 302.538 178.657C310.542 177.372 317.118 174.331 319.487 172.904C324.525 169.863 323.741 158.593 323.552 156.587L295.381 155.239L280.267 163.813L281.727 174.613Z" fill="#18181B"/>
<path fill-rule="evenodd" clip-rule="evenodd" d="M319.379 122.383C319.363 122.367 324.949 150.882 325.867 155.546C325.959 155.956 325.806 156.365 325.515 156.651C307.704 173.355 279.882 163.904 279.882 163.904L274.129 121.155C274.664 115.826 273.868 104.802 274.725 97.9108C275.093 94.9122 275.766 94.746 277.511 92.55C279.087 91.6408 280.801 91.0201 282.623 90.7332C297.727 88.2644 310.841 91.0358 313.442 91.6565C313.442 91.6565 318.064 95.0031 318.399 96.6239C319.485 101.681 319.379 122.383 319.379 122.383Z" fill="#196CFA"/>
<path fill-rule="evenodd" clip-rule="evenodd" d="M234.377 129.387C234.377 129.387 227.926 130.307 227.123 131.197C226.321 132.117 225.696 136.259 225.963 138.025C226.245 139.762 228.028 141.707 228.028 141.707L228.89 139.48C228.89 139.48 232.71 140.326 234.938 137.95L235.905 134.016L234.377 129.387Z" fill="white"/>
<path d="M228.014 142.064C227.91 142.064 227.821 142.02 227.745 141.945C227.672 141.856 225.873 139.912 225.591 138.07C225.338 136.379 225.917 132.013 226.838 130.944C227.686 129.995 233.215 129.164 234.315 129.015C234.494 128.985 234.657 129.089 234.717 129.267L236.233 133.884C236.249 133.943 236.263 134.017 236.249 134.09L235.282 138.025C235.266 138.084 235.238 138.144 235.192 138.188C233.201 140.31 230.095 140.044 229.098 139.879L228.34 141.824C228.296 141.944 228.191 142.031 228.072 142.047C228.058 142.064 228.044 142.064 228.014 142.064ZM234.124 129.788C231.507 130.173 227.866 130.901 227.391 131.435C226.707 132.222 226.054 136.185 226.32 137.967C226.499 139.095 227.377 140.342 227.91 140.995L228.549 139.348C228.609 139.185 228.788 139.08 228.965 139.125C228.995 139.141 232.546 139.882 234.613 137.76L235.535 134.034L234.124 129.788Z" fill="#18181B"/>
<path fill-rule="evenodd" clip-rule="evenodd" d="M277.527 92.5059C276.883 97.6316 274.921 113.479 274.152 121.128L274.121 120.878C271.61 124.154 262.947 132.728 260.891 133.919C258.835 135.111 242.685 138.575 240.975 138.888C239.264 139.186 238.464 138.308 238.464 138.308C238.464 138.308 237.02 138.402 236.11 138.449C235.686 138.481 235.293 138.23 235.136 137.838C234.148 135.142 233.724 132.305 234.054 129.327C234.085 128.997 234.289 128.715 234.587 128.558C235.529 128.104 237.522 127.116 237.522 127.116C237.522 127.116 238.526 125.298 240.975 124.075C243.423 122.868 257.673 117.147 257.673 117.147C262.036 109.999 269.209 101.049 273.446 95.9387C274.592 94.575 275.987 93.3993 277.527 92.5059Z" fill="#196CFA"/>
<path d="M238.312 136.856C238.143 136.856 238.003 136.737 237.958 136.572C237.109 132.951 237.233 129.362 237.247 129.213C237.262 129.004 237.416 128.854 237.633 128.868C237.834 128.884 237.987 129.047 237.987 129.243C237.987 129.273 237.849 132.893 238.683 136.408C238.73 136.602 238.606 136.797 238.405 136.842C238.358 136.842 238.344 136.856 238.312 136.856Z" fill="#18181B"/>
<path fill-rule="evenodd" clip-rule="evenodd" d="M85.584 46.2337L87.9381 49.1806L90.0882 46.9704L89.5703 44.6191L86.0862 44.964L85.584 46.2337Z" fill="#18181B"/>
<path fill-rule="evenodd" clip-rule="evenodd" d="M87.2633 53.8041L88.205 46.1234C88.205 46.1234 83.1514 46.9541 82.4923 43.7721C81.4407 38.7874 87.2633 39.7436 87.2633 39.7436L88.205 32.2196L97.0723 29.5078L105.123 33.5206L107.289 39.195C107.289 39.195 108.152 44.9164 105.641 50.3556C104.056 53.7258 100.148 53.9139 100.148 53.9139L99.5363 58.2715L89.4291 57.7386L87.2633 53.8041Z" fill="white"/>
<path d="M99.5363 58.6327H99.5206L89.4134 58.0998C89.2879 58.0998 89.178 58.0214 89.1152 57.9117L86.9651 53.9772C86.9337 53.9145 86.918 53.8361 86.918 53.7578L87.7969 46.5316C86.4629 46.657 82.7591 46.7353 82.147 43.8355C81.8331 42.362 82.0685 41.2177 82.8218 40.434C83.9989 39.1957 86.1019 39.2427 86.9651 39.3211L87.8597 32.1576C87.8754 32.0165 87.9853 31.8911 88.1108 31.8597L96.9781 29.1479C97.0722 29.1166 97.1664 29.1323 97.2449 29.1636L105.296 33.1764C105.375 33.2235 105.437 33.2862 105.469 33.3802L107.635 39.0546C107.65 39.0859 107.65 39.1016 107.65 39.133C107.682 39.3681 108.498 45.0268 105.971 50.4974C104.558 53.507 101.467 54.1183 100.478 54.2437L99.8972 58.3192C99.8674 58.4932 99.7105 58.6343 99.5363 58.6327ZM89.6489 57.3787L99.2224 57.8803L99.7874 53.8518C99.8187 53.6794 99.96 53.554 100.133 53.5383C100.164 53.5383 103.836 53.3189 105.312 50.1839C107.65 45.1365 107.007 39.76 106.944 39.274L104.841 33.7721L97.0565 29.8847L88.5503 32.4867L87.64 39.7756C87.6243 39.8697 87.5772 39.9637 87.4987 40.0264C87.4203 40.0891 87.3261 40.1048 87.2162 40.0891C87.1849 40.0891 84.5482 39.6816 83.3398 40.9356C82.7591 41.5469 82.6021 42.4717 82.8532 43.6787C83.4339 46.4845 88.0951 45.7478 88.1422 45.7478C88.2521 45.7321 88.3776 45.7635 88.4561 45.8419C88.5346 45.9202 88.5816 46.03 88.5659 46.1554L87.64 53.7264L89.6489 57.3787Z" fill="#18181B"/>
<path d="M87.3929 44.231C87.305 44.2326 87.2061 44.1981 87.1355 44.1276C85.6775 42.709 84.2211 42.1478 84.2054 42.1447C84.0171 42.0757 83.9245 41.8625 83.9935 41.6744C84.0626 41.4863 84.2744 41.3876 84.4643 41.4628C84.5303 41.4895 86.0856 42.0851 87.644 43.6103C87.7915 43.7498 87.7931 43.9849 87.6519 44.126C87.5828 44.1966 87.4886 44.2358 87.3929 44.231Z" fill="#18181B"/>
<path d="M84.9107 44.2828C84.7993 44.2828 84.6989 44.2342 84.622 44.1433C84.498 43.9834 84.5215 43.7545 84.6816 43.6323C84.7177 43.6009 85.5338 42.952 86.1977 42.6542C86.3829 42.5695 86.5979 42.6542 86.681 42.8313C86.7658 43.0162 86.6811 43.231 86.5021 43.3141C85.9199 43.5837 85.1477 44.1981 85.1336 44.2013C85.0661 44.2577 84.9861 44.2859 84.9107 44.2828Z" fill="#18181B"/>
<path d="M92.4213 40.9085C92.3382 40.9069 92.2456 40.8771 92.1781 40.8175C92.0258 40.6827 92.0086 40.4523 92.1467 40.3065C92.1671 40.2862 94.1603 38.0666 96.7843 39.6341C96.9601 39.7391 97.0166 39.9632 96.9083 40.1325C96.8032 40.3097 96.5787 40.3645 96.4092 40.2564C94.3125 39.0118 92.7572 40.7141 92.6913 40.7862C92.6206 40.8661 92.5202 40.9085 92.4213 40.9085Z" fill="#18181B"/>
<path d="M100.485 39.6998C100.401 39.6982 100.309 39.6684 100.241 39.6089C100.089 39.4741 100.075 39.2499 100.21 39.0979C100.233 39.0681 100.811 38.4191 101.756 38.079C101.947 38.01 102.153 38.1056 102.222 38.2969C102.291 38.4881 102.195 38.6935 102.004 38.7624C101.244 39.0367 100.759 39.5728 100.753 39.5775C100.684 39.659 100.583 39.7014 100.485 39.6998Z" fill="#18181B"/>
<path fill-rule="evenodd" clip-rule="evenodd" d="M96.5493 47.4453C96.1459 48.6695 96.8129 49.9894 98.0449 50.3938C99.2707 50.7966 100.598 50.132 101.002 48.9094L96.5493 47.4453Z" fill="white"/>
<path d="M98.7649 50.8802C98.4793 50.8771 98.192 50.8348 97.919 50.7454C97.2316 50.5197 96.6713 50.0416 96.3495 49.3927C96.0247 48.7516 95.9666 48.0148 96.1926 47.3283C96.2554 47.1386 96.4641 47.0336 96.654 47.0963L101.1 48.5572C101.29 48.6199 101.395 48.8284 101.332 49.018C101.106 49.7046 100.629 50.2564 99.9781 50.5856C99.6061 50.7799 99.1871 50.8834 98.7649 50.8802ZM96.8062 47.9161C96.7529 48.3048 96.8188 48.703 97.0009 49.0651C97.2378 49.5353 97.6428 49.8864 98.1465 50.0526C98.644 50.2156 99.1855 50.1749 99.6563 49.9382C100.019 49.7563 100.305 49.4805 100.494 49.1356L96.8062 47.9161Z" fill="#18181B"/>
<path fill-rule="evenodd" clip-rule="evenodd" d="M95.3114 42.0574C95.7414 41.9461 96.1856 42.2 96.2986 42.6373C96.41 43.0668 96.1558 43.5104 95.7179 43.6233C95.2879 43.7346 94.8437 43.4807 94.7307 43.0433C94.6193 42.6138 94.8814 42.1687 95.3114 42.0574Z" fill="#18181B"/>
<path d="M105.417 42.9605C105.76 42.7518 105.868 42.3049 105.659 41.9623C105.45 41.6197 105.002 41.5112 104.66 41.7198C104.317 41.9285 104.209 42.3754 104.418 42.718C104.627 43.0605 105.074 43.1691 105.417 42.9605Z" fill="#18181B"/>
<path d="M98.7509 54.3214C98.6254 54.3214 95.565 54.3057 92.9126 52.7539C92.74 52.6598 92.6772 52.4247 92.7871 52.2523C92.8969 52.0798 93.1166 52.0171 93.2893 52.1269C95.7533 53.569 98.7195 53.6003 98.7509 53.6003C98.9549 53.6003 99.1119 53.7571 99.1119 53.9608C99.1119 54.1489 98.9549 54.3214 98.7509 54.3214Z" fill="#18181B"/>
<path fill-rule="evenodd" clip-rule="evenodd" d="M87.499 39.6815C87.499 39.6815 88.7075 42.7381 89.0685 43.0516C89.398 43.3808 89.8375 41.2176 90.0101 39.1642C90.0101 39.1642 90.6693 37.3145 90.9989 35.7627C91.3441 34.2265 92.4113 33.8033 93.4786 34.5401C93.4786 34.5401 95.3148 32.0791 96.9784 32.7844C98.642 33.5055 100.18 40.8728 108.482 39.1328C108.482 39.1328 110.601 25.0566 98.6734 23.2383C89.3667 21.7962 86.2435 27.4236 86.2435 27.4236C86.2435 27.4236 81.6608 29.2262 81.0801 33.239C80.4994 37.2362 82.8064 41.1863 82.8064 41.1863C82.8064 41.1863 83.5299 39.2598 87.499 39.6815Z" fill="#18181B"/>
<path d="M101.216 46.3594C101.074 46.3594 100.949 46.281 100.886 46.1399L99.9286 44.0552C99.8502 43.8671 99.9286 43.6476 100.117 43.5692C100.305 43.4909 100.525 43.5692 100.603 43.7573L101.561 45.8421C101.639 46.0302 101.561 46.2497 101.373 46.328C101.31 46.3437 101.263 46.3594 101.216 46.3594Z" fill="#18181B"/>
<path fill-rule="evenodd" clip-rule="evenodd" d="M313.449 91.6289L313.92 91.7386C316.902 92.8516 336.175 111.191 336.175 111.191C336.175 111.191 338.591 114.107 339 118.888C339.408 123.669 334.574 127.838 331.796 128.512C329.112 129.171 319.884 122.728 319.397 122.383L313.449 91.6289Z" fill="#196CFA"/>
<path d="M318.861 120.102C318.688 120.107 318.536 119.985 318.509 119.806L316.076 107.511C316.034 107.318 316.164 107.12 316.368 107.087C316.572 107.055 316.756 107.175 316.798 107.37L319.231 119.665C319.273 119.858 319.143 120.055 318.939 120.102H318.861Z" fill="#18181B"/>
<path fill-rule="evenodd" clip-rule="evenodd" d="M75.1445 124.954C75.1445 124.954 77.5615 138.247 80.5434 141.664C83.337 144.861 90.211 148.043 91.5451 147.009C97.9169 141.977 126.198 119.374 126.198 119.374L118.053 111.191L79.225 122.901L75.1445 124.954Z" fill="white"/>
<path d="M90.7453 147.573C88.1401 147.573 82.5215 144.501 80.2615 141.915C77.2482 138.466 74.8784 125.565 74.7842 125.017C74.7528 124.86 74.8313 124.703 74.9725 124.625L79.0531 122.572C79.0688 122.556 79.0844 122.556 79.1158 122.556L117.944 110.847C118.069 110.8 118.21 110.847 118.304 110.941L126.45 119.123C126.528 119.201 126.56 119.295 126.56 119.405C126.56 119.515 126.497 119.609 126.418 119.672C126.136 119.891 98.0432 142.338 91.7654 147.307C91.53 147.479 91.1847 147.573 90.7453 147.573ZM75.5532 125.158C75.9142 127.055 78.1585 138.388 80.8108 141.429C83.6672 144.705 90.2745 147.542 91.3103 146.727C97.2427 142.04 122.511 121.866 125.649 119.358L117.944 111.615L79.3512 123.246L75.5532 125.158Z" fill="#18181B"/>
<path fill-rule="evenodd" clip-rule="evenodd" d="M74.2504 66.7206C74.2504 66.7206 70.625 73.3041 70.7349 90.9542C70.8604 110.611 73.1518 128.606 73.9522 134.421C74.1248 135.534 75.1293 136.333 76.2436 136.255C82.0191 135.769 99.4397 133.543 116.939 123.245L109.657 96.1426L103.285 65.5449L74.2504 66.7206Z" fill="white"/>
<path d="M76.118 136.63C74.8625 136.63 73.7953 135.737 73.6069 134.483C72.681 127.774 70.5152 110.14 70.3896 90.9534C70.3268 81.8148 71.2999 75.6702 72.116 72.1433C73.0106 68.2873 73.9051 66.6257 73.9522 66.5473C74.015 66.4376 74.1248 66.3592 74.2504 66.3592L103.301 65.1836C103.489 65.1836 103.63 65.2933 103.677 65.4814L110.049 96.0791L117.331 123.166C117.378 123.322 117.3 123.495 117.159 123.573C99.9106 133.715 82.8352 136.082 76.3063 136.63H76.118ZM74.4701 67.0818C74.219 67.5991 73.4971 69.2763 72.7908 72.3643C71.9904 75.8599 71.0488 81.9104 71.0958 90.9549C71.2214 110.094 73.3872 127.697 74.3132 134.375C74.4544 135.284 75.3019 135.958 76.2279 135.895C82.6782 135.362 99.4868 133.027 116.531 123.073L109.311 96.2374L103.002 65.9219L74.4701 67.0818Z" fill="#18181B"/>
<g filter="url(#filter0_d_1387_157326)">
<path fill-rule="evenodd" clip-rule="evenodd" d="M79.2257 52.8482C78.4096 52.8795 77.6406 53.2244 77.107 53.8357C75.6474 55.5913 72.8695 59.7609 72.9166 66.2974C72.9323 67.6141 73.717 68.8054 74.9255 69.3383C77.5621 70.4669 82.804 72.0501 90.0077 70.9529C100.617 69.3383 103.238 68.1784 105.529 68.9308C105.529 68.9308 106.612 67.1908 105.137 65.4823C105.137 65.4823 105.482 63.0683 103.379 60.4819C101.356 58.0068 90.196 52.5989 79.2257 52.8482Z" fill="#196CFA"/>
</g>
<path d="M101.605 66.2655C101.417 66.2655 101.26 66.1244 101.244 65.9363C101.213 65.7325 101.37 65.5601 101.558 65.5287L105.011 65.1212C105.215 65.0899 105.388 65.2466 105.419 65.4347C105.45 65.6228 105.293 65.8109 105.105 65.8423L101.652 66.2498C101.637 66.2655 101.621 66.2655 101.605 66.2655Z" fill="#18181B"/>
<path fill-rule="evenodd" clip-rule="evenodd" d="M144.355 118.166C144.355 118.166 148.766 118.338 149.644 118.385C150.508 118.432 153.364 120.204 154.274 121.144C155.2 122.1 154.337 123.339 153.019 123.135C151.716 122.916 145.391 120.517 145.391 120.517L144.355 118.166Z" fill="white"/>
<path d="M153.269 123.526C153.159 123.526 153.05 123.51 152.94 123.495C151.606 123.275 145.501 120.955 145.25 120.861C145.155 120.83 145.077 120.752 145.046 120.673L144.025 118.322C143.978 118.212 143.994 118.071 144.057 117.977C144.135 117.867 144.245 117.82 144.371 117.82C144.418 117.82 148.796 117.993 149.66 118.04C150.68 118.087 153.63 119.983 154.525 120.908C155.027 121.426 155.153 122.1 154.854 122.664C154.556 123.197 153.96 123.526 153.269 123.526ZM145.642 120.234C146.584 120.595 151.904 122.586 153.05 122.774C153.63 122.868 154.038 122.601 154.195 122.319C154.352 122.037 154.274 121.692 153.991 121.41C153.097 120.485 150.319 118.792 149.613 118.761C148.953 118.729 146.144 118.62 144.92 118.573L145.642 120.234Z" fill="#18181B"/>
<path fill-rule="evenodd" clip-rule="evenodd" d="M137.748 123.167C137.748 123.167 142.629 128.638 145.548 129.516C148.452 130.425 151.653 130.613 153.458 129.484C155.279 128.356 155.514 126.271 154.682 124.954C153.85 123.638 150.084 120.644 150.084 120.644C150.084 120.644 144.34 118.073 142.77 117.493C141.185 116.897 140.102 117.681 140.102 117.681L137.748 123.167Z" fill="white"/>
<path d="M150.085 130.628C148.515 130.628 146.836 130.299 145.439 129.86C142.473 128.951 137.686 123.621 137.482 123.402C137.388 123.292 137.357 123.151 137.419 123.01L139.789 117.524C139.821 117.461 139.852 117.414 139.915 117.367C139.962 117.336 141.17 116.473 142.928 117.132C143.556 117.367 144.293 117.665 145.392 118.135C145.58 118.213 145.659 118.433 145.58 118.621C145.502 118.809 145.282 118.887 145.094 118.809C144.027 118.339 143.289 118.057 142.661 117.822C141.516 117.383 140.668 117.775 140.417 117.916L138.188 123.073C139.036 123.998 143.163 128.387 145.659 129.155C148.782 130.126 151.701 130.142 153.271 129.17C154.228 128.575 154.589 127.791 154.714 127.227C154.887 126.49 154.762 125.737 154.385 125.157C153.6 123.903 149.912 120.972 149.865 120.941C149.708 120.815 149.677 120.58 149.802 120.424C149.928 120.267 150.163 120.236 150.32 120.361C150.477 120.486 154.134 123.402 154.997 124.766C155.484 125.518 155.625 126.474 155.421 127.399C155.201 128.387 154.573 129.233 153.647 129.797C152.69 130.393 151.434 130.628 150.085 130.628Z" fill="#18181B"/>
<path fill-rule="evenodd" clip-rule="evenodd" d="M105.151 68.9141C105.151 68.9141 99.8621 69.6665 97.3354 75.5446C94.8243 81.4228 95.6247 86.2977 98.9833 93.3671C102.326 100.452 108.196 108.854 108.196 108.854C108.196 108.854 109.028 110.719 113.814 113.572C118.601 116.425 130.058 121.864 131.565 122.429C133.056 122.993 134.138 122.288 134.138 122.288L137.152 123.792C137.528 123.98 137.984 123.918 138.297 123.667C140.212 122.052 141.891 120.234 143.288 118.165C143.539 117.789 143.508 117.287 143.241 116.942C142.566 116.08 141.389 114.575 141.389 114.575C141.389 114.575 140.824 112.334 139.239 110.704C137.654 109.074 125.334 100.452 120.139 97.6934C120.139 97.6778 108.949 69.668 105.151 68.9141Z" fill="white"/>
<path d="M137.639 124.279C137.419 124.279 137.199 124.232 137.011 124.138C136.163 123.715 134.672 122.978 134.17 122.712C133.762 122.916 132.742 123.276 131.455 122.79C129.823 122.179 118.382 116.724 113.658 113.903C109.138 111.206 108.055 109.341 107.914 109.059C107.568 108.557 101.918 100.391 98.6854 93.5407C95.0757 85.9383 94.6206 81.032 97.0218 75.4203C99.6114 69.4324 104.9 68.6017 105.12 68.5703H105.246C109.075 69.3227 119.072 94.0109 120.438 97.4437C125.68 100.25 137.89 108.777 139.522 110.454C140.997 111.99 141.625 113.997 141.735 114.404C141.955 114.686 142.959 115.956 143.555 116.708C143.916 117.194 143.948 117.853 143.618 118.354C142.253 120.392 140.605 122.21 138.565 123.935C138.298 124.154 137.968 124.279 137.639 124.279ZM134.154 121.928C134.217 121.928 134.264 121.944 134.311 121.96L137.325 123.464C137.576 123.59 137.874 123.558 138.062 123.386C140.056 121.693 141.672 119.922 142.99 117.947C143.147 117.712 143.132 117.382 142.959 117.147C142.284 116.285 141.107 114.78 141.107 114.78C141.076 114.733 141.06 114.702 141.044 114.639C141.044 114.624 140.479 112.476 138.988 110.924C137.372 109.247 125.115 100.704 119.983 97.9924C119.904 97.9453 119.841 97.8826 119.81 97.8043C115.368 86.6907 107.851 70.0281 105.151 69.2757C104.555 69.3854 99.9566 70.42 97.681 75.6868C95.3425 81.1574 95.7663 85.7345 99.3289 93.2115C102.625 100.187 108.463 108.557 108.51 108.651C108.526 108.667 108.541 108.683 108.541 108.714C108.541 108.73 109.436 110.548 114.019 113.276C118.727 116.081 130.09 121.489 131.706 122.101C133.009 122.602 133.935 121.991 133.95 121.991C134.012 121.945 134.074 121.93 134.154 121.928Z" fill="#18181B"/>
<path d="M135.254 121.02C135.159 121.02 135.065 120.988 134.987 120.91C134.846 120.769 134.846 120.534 134.987 120.393C135.018 120.361 138.126 117.289 139.522 115.377C139.648 115.22 139.868 115.173 140.04 115.298C140.197 115.424 140.244 115.643 140.119 115.816C138.691 117.775 135.63 120.785 135.505 120.91C135.442 120.988 135.348 121.02 135.254 121.02Z" fill="#18181B"/>
<path fill-rule="evenodd" clip-rule="evenodd" d="M301.518 79.5898C301.518 79.5898 308.801 82.2703 312.065 86.9101L305.756 92.0202L298.191 86.095L297.799 79.7623L301.518 79.5898Z" fill="#18181B"/>
<path fill-rule="evenodd" clip-rule="evenodd" d="M276.391 69.3965C276.391 69.3965 276.041 73.8858 276.598 76.0035C276.598 76.0035 274.461 80.1417 277.617 79.7248C277.617 79.7248 278.932 87.0858 285.986 84.8787L286.664 89.5969L299.275 88.0404L297.701 81.0525C296.874 76.7669 295.866 72.5409 293.214 68.9764L283.009 64.252L276.391 69.3965Z" fill="white"/>
<path d="M286.669 89.958C286.491 89.9565 286.334 89.8279 286.305 89.643L285.689 85.3433C283.692 85.8857 281.961 85.7164 280.528 84.8542C278.355 83.5407 277.556 81.017 277.33 80.1157C276.625 80.1408 276.115 79.9401 275.812 79.5106C275.079 78.4714 275.941 76.5151 276.209 75.9634C275.693 73.7688 276.013 69.5507 276.027 69.3736C276.037 69.2717 276.088 69.1761 276.17 69.1134L282.788 63.9641C282.895 63.8779 283.041 63.8591 283.167 63.9218L293.371 68.6462C293.424 68.6682 293.475 68.7121 293.511 68.7591C296.246 72.4333 297.257 76.8114 298.067 80.9841L299.642 87.9657C299.661 88.0661 299.644 88.1742 299.589 88.2542C299.534 88.3341 299.437 88.3952 299.335 88.4062L286.724 89.9627C286.698 89.9565 286.684 89.9612 286.669 89.958ZM285.988 84.5125C286.061 84.511 286.12 84.5345 286.186 84.5721C286.277 84.6285 286.34 84.721 286.352 84.8276L286.98 89.1915L298.833 87.7259L297.343 81.1314C296.552 77.059 295.571 72.8033 292.971 69.2685L283.05 64.6805L276.737 69.5883C276.683 70.4034 276.468 74.1059 276.947 75.9132C276.969 75.9994 276.961 76.095 276.919 76.1718C276.501 76.9838 275.991 78.4996 276.409 79.0921C276.589 79.3492 276.981 79.4401 277.565 79.3617C277.755 79.3366 277.94 79.4714 277.975 79.6564C277.984 79.6862 278.57 82.8181 280.907 84.2272C282.247 85.0392 283.918 85.1364 285.875 84.5266C285.915 84.5219 285.952 84.5125 285.988 84.5125Z" fill="#18181B"/>
<path d="M289.158 74.8857C289.056 74.8857 288.959 74.8481 288.884 74.7635C288.75 74.6145 288.758 74.3825 288.907 74.2493C290.593 72.7304 292.234 72.1771 292.302 72.1598C292.493 72.094 292.702 72.2037 292.76 72.3934C292.826 72.5846 292.716 72.7931 292.528 72.8511C292.512 72.8542 290.961 73.3872 289.389 74.7932C289.331 74.8528 289.245 74.881 289.158 74.8857Z" fill="#18181B"/>
<path d="M291.736 75.041C291.651 75.0379 291.565 75.0128 291.498 74.9532C291.493 74.9438 290.708 74.2698 290.113 73.972C289.931 73.8779 289.865 73.6632 289.952 73.4798C290.046 73.2979 290.264 73.2243 290.444 73.3183C291.119 73.6632 291.94 74.3717 291.978 74.3983C292.132 74.5316 292.147 74.762 292.015 74.9156C291.942 75.0018 291.837 75.0394 291.736 75.041Z" fill="#18181B"/>
<path d="M280.137 74.7309C280.149 74.5096 279.979 74.3201 279.757 74.3075C279.534 74.2949 279.344 74.464 279.331 74.6853C279.319 74.9066 279.489 75.0961 279.711 75.1087C279.934 75.1213 280.124 74.9522 280.137 74.7309Z" fill="#18181B"/>
<path fill-rule="evenodd" clip-rule="evenodd" d="M284.134 78.1953C284.633 79.4399 284.027 80.8522 282.775 81.3538C281.528 81.8523 280.107 81.2504 279.607 80.0058L284.134 78.1953Z" fill="white"/>
<path d="M281.88 81.8874C280.772 81.889 279.717 81.2196 279.28 80.1287C279.244 80.0393 279.242 79.9343 279.28 79.8481C279.317 79.7603 279.393 79.6898 279.484 79.6553L284.004 77.8479C284.093 77.8119 284.197 77.8103 284.285 77.8479C284.372 77.8856 284.443 77.9608 284.479 78.0517C285.054 79.4828 284.349 81.1115 282.916 81.6852C282.577 81.8247 282.227 81.8921 281.88 81.8874ZM280.124 80.1914C280.643 81.0268 281.704 81.3889 282.646 81.0112C283.588 80.635 284.102 79.6349 283.903 78.6787L280.124 80.1914Z" fill="#18181B"/>
<path fill-rule="evenodd" clip-rule="evenodd" d="M287.895 70.8035C287.895 70.8035 287.526 83.5191 286.952 83.7542C286.356 83.9847 285.982 70.4696 285.982 70.4696C285.428 70.4352 284.846 70.374 284.212 70.2471L283.722 65.289L282.602 70.1217C282.602 70.1217 278.728 70.4367 274.66 69.9931C274.66 69.9931 273.591 58.2023 284.339 55.5266C295.086 52.8509 309.963 60.5458 300.149 80.9076L293.815 81.8058C293.815 81.8058 291.69 80.5189 290.049 76.8368C290.049 76.8368 291.744 76.7365 292.773 76.1048C293.53 75.6283 294.204 74.4762 293.947 72.9087C293.36 69.1482 287.895 70.8035 287.895 70.8035Z" fill="#18181B"/>
<path d="M282.378 72.9386C282.265 72.9355 282.158 72.8869 282.086 72.796C281.537 72.0765 280.821 71.9527 280.325 71.9762C279.628 72.0075 279.012 72.3461 278.812 72.658C278.707 72.8242 278.478 72.8838 278.312 72.7772C278.145 72.6706 278.094 72.4464 278.2 72.2724C278.553 71.7144 279.42 71.2959 280.294 71.2536C281.248 71.2081 282.088 71.6 282.665 72.3555C282.788 72.5185 282.759 72.7458 282.599 72.8712C282.532 72.9088 282.449 72.9355 282.378 72.9386Z" fill="#18181B"/>
<path d="M290.454 77.6763C290.042 77.6794 289.576 77.6308 289.058 77.5227C288.857 77.4804 288.737 77.286 288.777 77.0932C288.82 76.8925 289.014 76.7718 289.207 76.8126C291.122 77.2202 292.208 76.5759 292.216 76.5696C292.39 76.4693 292.615 76.5163 292.715 76.6903C292.823 76.8659 292.768 77.0885 292.594 77.1888C292.563 77.2217 291.8 77.6747 290.454 77.6763Z" fill="#18181B"/>
<path fill-rule="evenodd" clip-rule="evenodd" d="M283.598 90.6872C283.598 90.6872 284.398 87.709 285.638 87.0977C286.893 86.4863 302.07 86.2512 303.435 86.6117C303.435 86.6117 305.256 87.8814 305.68 90.3737C298.617 89.8408 291.335 89.59 283.598 90.6872Z" fill="white"/>
<path d="M283.598 91.0466C283.488 91.0466 283.394 90.9996 283.331 90.9212C283.252 90.8272 283.221 90.7018 283.252 90.5921C283.346 90.2629 284.131 87.4257 285.497 86.7674C286.799 86.1403 302.101 85.8739 303.561 86.2657C303.608 86.2814 303.639 86.2971 303.671 86.3128C303.749 86.3755 305.617 87.7079 306.056 90.3099C306.072 90.4196 306.04 90.5294 305.962 90.6234C305.883 90.7018 305.774 90.7488 305.664 90.7488C299.26 90.2786 291.633 89.9337 283.66 91.0623C283.629 91.0466 283.613 91.0466 283.598 91.0466ZM298.695 86.7987C297.424 86.7987 295.996 86.8144 294.505 86.8457C289.091 86.9711 286.187 87.2219 285.795 87.41C285.057 87.7706 284.429 89.2754 284.1 90.2315C291.743 89.2127 299.025 89.4948 305.209 89.9494C304.753 88.1781 303.545 87.1436 303.278 86.9398C302.792 86.8457 301.034 86.8003 298.695 86.7987Z" fill="#18181B"/>
<path fill-rule="evenodd" clip-rule="evenodd" d="M294.875 83.7155C294.875 83.7155 289.368 88.628 291.249 98.2901L302.257 97.5754L302.42 95.1003L303.538 97.2211L307.51 97.0581C307.51 97.0581 308.72 87.4665 300.211 83.0273L294.875 83.7155Z" fill="#18181B"/>
<path fill-rule="evenodd" clip-rule="evenodd" d="M301.139 82.0432C301.105 81.7579 300.957 81.5056 300.736 81.3331C300.514 81.1607 300.23 81.0839 299.959 81.1168L294.932 81.725C294.645 81.7595 294.395 81.9006 294.23 82.12C294.058 82.3505 293.976 82.631 294.009 82.9069C294.042 83.1828 294.19 83.4352 294.412 83.617C294.626 83.791 294.91 83.8662 295.189 83.8333L300.216 83.2251C300.496 83.1906 300.745 83.0511 300.918 82.8301C301.089 82.5981 301.172 82.3191 301.139 82.0432Z" fill="white"/>
<path d="M295.05 84.1999C294.733 84.1984 294.421 84.0965 294.171 83.8958C293.867 83.6529 293.675 83.3159 293.631 82.9522C293.586 82.5776 293.691 82.2061 293.928 81.8973C294.159 81.5994 294.503 81.4082 294.879 81.3627L299.906 80.7546C300.276 80.7091 300.655 80.8141 300.95 81.0383C301.262 81.2797 301.455 81.6261 301.501 82.0007C301.546 82.3754 301.441 82.7468 301.202 83.0462C300.964 83.3456 300.62 83.5369 300.251 83.5808L295.224 84.189C295.166 84.1968 295.108 84.2031 295.05 84.1999ZM300.08 81.4834C300.055 81.4866 300.022 81.4803 299.997 81.4834L294.97 82.0916C294.79 82.1136 294.617 82.2045 294.51 82.3471C294.396 82.5008 294.344 82.6873 294.366 82.8738C294.388 83.0509 294.482 83.2187 294.639 83.3409C294.777 83.4444 294.959 83.5024 295.148 83.4789L300.174 82.8707C300.355 82.8487 300.528 82.7578 300.644 82.6136C300.76 82.4694 300.812 82.2829 300.791 82.1057C300.769 81.9192 300.673 81.7499 300.517 81.6292C300.385 81.5258 300.237 81.474 300.08 81.4834Z" fill="#18181B"/>
<path d="M306.275 89.8883C306.134 89.8883 305.992 89.7942 305.93 89.6531C304.596 86.236 302.336 84.6842 301.441 84.1826L301.394 84.1512C301.221 84.0572 301.159 83.822 301.253 83.6496C301.347 83.4772 301.582 83.4145 301.755 83.5085L301.786 83.5242C302.759 84.0728 305.192 85.7344 306.604 89.371C306.683 89.5591 306.589 89.7786 306.4 89.8413C306.369 89.8742 306.322 89.8898 306.275 89.8883Z" fill="white"/>
<path d="M234.371 20.5649C234.345 20.5649 234.322 20.5602 234.29 20.5447C234.197 20.4989 234.161 20.3871 234.203 20.3002L238.288 11.8698C238.333 11.7774 238.44 11.7417 238.536 11.7821C238.63 11.8279 238.666 11.9397 238.624 12.0266L234.539 20.457C234.505 20.5284 234.436 20.5641 234.371 20.5649Z" fill="#196CFA"/>
<path d="M228.18 17.2319C228.087 17.2303 228.001 17.1581 227.994 17.0603L227.62 11.8266C227.613 11.7242 227.687 11.6364 227.792 11.6295C227.895 11.6217 227.982 11.6978 227.99 11.8002L228.364 17.0339C228.371 17.1364 228.297 17.2241 228.192 17.2311L228.18 17.2319Z" fill="#196CFA"/>
<path d="M240.81 23.378C240.75 23.3765 240.691 23.3462 240.659 23.2981C240.601 23.2119 240.625 23.097 240.708 23.0403L244.96 20.1549C245.043 20.0982 245.158 20.1184 245.216 20.2054C245.274 20.2915 245.25 20.4064 245.167 20.4631L240.915 23.3485C240.886 23.3687 240.849 23.3788 240.81 23.378Z" fill="#196CFA"/>
<path d="M35.2529 176.512C35.2759 176.523 35.2948 176.538 35.3166 176.566C35.381 176.648 35.3643 176.764 35.2887 176.824L27.9361 182.625C27.8554 182.688 27.7429 182.673 27.6741 182.595C27.6097 182.513 27.6264 182.397 27.702 182.337L35.0546 176.536C35.1164 176.486 35.194 176.484 35.2529 176.512Z" fill="#196CFA"/>
<path d="M39.3685 182.216C39.4515 182.258 39.498 182.361 39.4616 182.452L37.5155 187.324C37.4771 187.419 37.3719 187.466 37.2747 187.426C37.1779 187.388 37.133 187.281 37.1708 187.186L39.1169 182.314C39.1553 182.218 39.2605 182.172 39.3577 182.211L39.3685 182.216Z" fill="#196CFA"/>
<path d="M30.6865 171.171C30.7395 171.199 30.7793 171.252 30.7876 171.309C30.8023 171.412 30.7306 171.505 30.6313 171.52L25.5468 172.259C25.4475 172.274 25.3525 172.205 25.3381 172.101C25.3234 171.999 25.3951 171.906 25.4944 171.891L30.5788 171.152C30.6141 171.147 30.6513 171.154 30.6865 171.171Z" fill="#196CFA"/>
<path d="M383.211 182.489C383.22 182.465 383.232 182.445 383.258 182.421C383.334 182.349 383.451 182.356 383.518 182.426L389.948 189.237C390.018 189.312 390.014 189.425 389.942 189.501C389.866 189.572 389.749 189.566 389.682 189.496L383.252 182.684C383.197 182.627 383.188 182.55 383.211 182.489Z" fill="#196CFA"/>
<path d="M388.522 177.881C388.556 177.795 388.654 177.739 388.748 177.767L393.772 179.274C393.87 179.304 393.926 179.405 393.895 179.505C393.866 179.605 393.764 179.659 393.665 179.63L388.642 178.123C388.543 178.093 388.488 177.992 388.518 177.892L388.522 177.881Z" fill="#196CFA"/>
<path d="M378.297 187.514C378.32 187.459 378.369 187.415 378.425 187.401C378.527 187.378 378.625 187.441 378.649 187.538L379.838 192.539C379.861 192.637 379.802 192.738 379.7 192.761C379.599 192.785 379.5 192.722 379.476 192.624L378.287 187.623C378.279 187.589 378.282 187.551 378.297 187.514Z" fill="#196CFA"/>
<path d="M173.602 198.564C173.627 198.564 173.65 198.569 173.682 198.584C173.776 198.63 173.812 198.742 173.77 198.829L169.685 207.259C169.64 207.351 169.532 207.387 169.436 207.347C169.343 207.301 169.307 207.189 169.349 207.102L173.434 198.672C173.468 198.601 173.537 198.565 173.602 198.564Z" fill="#196CFA"/>
<path d="M179.792 201.897C179.885 201.899 179.972 201.971 179.979 202.069L180.353 207.302C180.36 207.405 180.286 207.492 180.181 207.499C180.077 207.507 179.991 207.431 179.983 207.329L179.609 202.095C179.602 201.993 179.676 201.905 179.781 201.898L179.792 201.897Z" fill="#196CFA"/>
<path d="M167.163 195.751C167.222 195.752 167.281 195.783 167.314 195.831C167.372 195.917 167.348 196.032 167.265 196.089L163.013 198.974C162.93 199.031 162.815 199.01 162.756 198.924C162.698 198.837 162.722 198.722 162.805 198.666L167.057 195.78C167.087 195.76 167.123 195.75 167.163 195.751Z" fill="#196CFA"/>
<path d="M14.1892 64.103C14.183 64.1278 14.1727 64.1492 14.1499 64.1762C14.0825 64.2559 13.9655 64.263 13.8915 64.2011L6.72434 58.1706C6.64585 58.1044 6.63766 57.9912 6.70034 57.9079C6.76771 57.8283 6.88477 57.8212 6.95876 57.8831L14.1259 63.9135C14.1867 63.9641 14.2044 64.0397 14.1892 64.103Z" fill="#196CFA"/>
<path d="M9.43985 69.2898C9.41554 69.3795 9.32431 69.4459 9.22782 69.4287L4.06474 68.5071C3.96374 68.4887 3.89699 68.395 3.91587 68.2919C3.93381 68.1894 4.02881 68.1239 4.13 68.1416L9.29308 69.0632C9.39408 69.0816 9.46083 69.1752 9.44195 69.2783L9.43985 69.2898Z" fill="#196CFA"/>
<path d="M18.4941 58.5473C18.478 58.6048 18.4342 58.6544 18.3796 58.6742C18.2818 58.7094 18.1764 58.6579 18.1418 58.5636L16.3887 53.7315C16.3541 53.6372 16.402 53.5303 16.5005 53.4952C16.5982 53.4601 16.7037 53.5116 16.7383 53.6059L18.4914 58.4379C18.5037 58.4714 18.5045 58.5092 18.4941 58.5473Z" fill="#196CFA"/>
</g>
<defs>
<filter id="filter0_d_1387_157326" x="69.7523" y="48.0943" width="39.3235" height="24.8098" filterUnits="userSpaceOnUse" color-interpolation-filters="sRGB">
<feFlood flood-opacity="0" result="BackgroundImageFix"/>
<feColorMatrix in="SourceAlpha" type="matrix" values="0 0 0 0 0 0 0 0 0 0 0 0 0 0 0 0 0 0 127 0" result="hardAlpha"/>
<feOffset dy="-1.58185"/>
<feGaussianBlur stdDeviation="1.58185"/>
<feComposite in2="hardAlpha" operator="out"/>
<feColorMatrix type="matrix" values="0 0 0 0 0 0 0 0 0 0 0 0 0 0 0 0 0 0 0.25 0"/>
<feBlend mode="normal" in2="BackgroundImageFix" result="effect1_dropShadow_1387_157326"/>
<feBlend mode="normal" in="SourceGraphic" in2="effect1_dropShadow_1387_157326" result="shape"/>
</filter>
<clipPath id="clip0_1387_157326">
<rect width="401" height="215.132" fill="white"/>
</clipPath>
</defs>
</svg>
