<svg width="24" height="28" viewBox="0 0 24 28" fill="none" xmlns="http://www.w3.org/2000/svg">
<path fill-rule="evenodd" clip-rule="evenodd" d="M23.0495 4.98997C23.5682 4.98997 24 5.42063 24 5.96863V6.47529C24 7.00995 23.5682 7.45395 23.0495 7.45395H0.951804C0.431813 7.45395 0 7.00995 0 6.47529V5.96863C0 5.42063 0.431813 4.98997 0.951804 4.98997H4.83942C5.62913 4.98997 6.3164 4.42864 6.49405 3.63665L6.69764 2.72733C7.01405 1.48867 8.05532 0.666016 9.24703 0.666016H14.753C15.9317 0.666016 16.9846 1.48867 17.2894 2.662L17.5072 3.63532C17.6836 4.42864 18.3709 4.98997 19.1619 4.98997H23.0495ZM21.0744 23.5114C21.4803 19.7288 22.1909 10.7422 22.1909 10.6515C22.2169 10.3769 22.1274 10.1169 21.9497 9.90752C21.7591 9.71152 21.5179 9.59553 21.2521 9.59553H2.75803C2.4909 9.59553 2.23674 9.71152 2.06038 9.90752C1.88143 10.1169 1.79326 10.3769 1.80622 10.6515C1.80861 10.6682 1.83411 10.9847 1.87674 11.514C2.06611 13.865 2.59356 20.4129 2.93439 23.5114C3.17558 25.794 4.67331 27.2287 6.84275 27.2807C8.51684 27.3193 10.2415 27.3327 12.0051 27.3327C13.6662 27.3327 15.3532 27.3193 17.0792 27.2807C19.3238 27.242 20.8203 25.8327 21.0744 23.5114Z" fill="#FE3F34"/>
</svg>
