<svg width="24" height="24" viewBox="0 0 24 24" fill="none" xmlns="http://www.w3.org/2000/svg">
<path d="M20.0771 15.145H14.7911L15.9481 18.037C16.1136 18.449 16.1544 18.9005 16.0655 19.3355C15.9766 19.7705 15.7619 20.1699 15.4481 20.484C15.2716 20.6603 15.0589 20.7961 14.8246 20.8819C14.5904 20.9677 14.3402 21.0015 14.0916 20.981C13.843 20.9604 13.6018 20.886 13.3848 20.7629C13.1679 20.6398 12.9803 20.4709 12.8351 20.268L9.74413 15.943C9.28279 15.2987 8.76976 14.693 8.21013 14.132L7.22013 13.142C7.17505 13.097 7.1393 13.0435 7.11493 12.9846C7.09056 12.9258 7.07806 12.8627 7.07813 12.799V5.35797C7.07805 5.22903 7.12912 5.10532 7.22013 5.01397L8.32913 3.90497C8.61163 3.621 8.94764 3.39587 9.31771 3.24259C9.68778 3.08931 10.0846 3.01092 10.4851 3.01197H16.5111C16.9869 3.01235 17.4524 3.15053 17.8513 3.4098C18.2503 3.66907 18.5656 4.03834 18.7591 4.47297L21.7151 11.124C21.9036 11.5466 22.0007 12.0042 22.0001 12.467V13.221C21.9996 13.7309 21.7969 14.2198 21.4364 14.5805C21.0759 14.9412 20.5871 15.1442 20.0771 15.145Z" fill="#FE3F34"/>
<path d="M3.747 13.793C3.28367 13.793 2.83931 13.6089 2.51168 13.2813C2.18406 12.9537 2 12.5093 2 12.046V5.47698C2 5.01365 2.18406 4.56929 2.51168 4.24166C2.83931 3.91404 3.28367 3.72998 3.747 3.72998C4.21033 3.72998 4.65469 3.91404 4.98232 4.24166C5.30994 4.56929 5.494 5.01365 5.494 5.47698V12.046C5.494 12.5093 5.30994 12.9537 4.98232 13.2813C4.65469 13.6089 4.21033 13.793 3.747 13.793Z" fill="#FE3F34"/>
</svg>
