<svg width="24" height="24" viewBox="0 0 24 24" fill="none" xmlns="http://www.w3.org/2000/svg">
<path d="M18.37 0.707107L14.7694 4.30769L19.6925 9.23077L23.2931 5.63018C23.6836 5.23966 23.6836 4.60649 23.2931 4.21597L19.7842 0.707107C19.3937 0.316582 18.7605 0.316583 18.37 0.707107Z" fill="#008EFF"/>
<path d="M0.735436 23.8537L6.0054 22.7997C6.10219 22.7803 6.19109 22.7328 6.26089 22.663L18.5105 10.4133C18.7058 10.2181 18.7058 9.9015 18.5105 9.70624L13.9603 5.15603C13.9496 5.14537 13.9323 5.14537 13.9217 5.15603L1.33782 17.7399C1.26802 17.8097 1.22044 17.8986 1.20108 17.9954L0.147087 23.2653C0.077115 23.6152 0.385576 23.9237 0.735436 23.8537Z" fill="#008EFF"/>
</svg>
