<svg width="24" height="24" viewBox="0 0 24 24" fill="none" xmlns="http://www.w3.org/2000/svg">
<path d="M16.6007 3.70711L14.0771 6.23077L17.7694 9.92308L20.293 7.39941C20.6836 7.00889 20.6836 6.37573 20.293 5.9852L18.015 3.70711C17.6244 3.31658 16.9913 3.31658 16.6007 3.70711Z" fill="white"/>
<path d="M3.73544 20.853L7.46694 20.1067C7.56373 20.0873 7.65263 20.0398 7.72243 19.97L16.7945 10.8979C16.9898 10.7026 16.9898 10.3861 16.7945 10.1908L13.4702 6.86654C13.4622 6.85854 13.4493 6.85854 13.4413 6.86654L4.03012 16.2777C3.96032 16.3475 3.91275 16.4364 3.89339 16.5332L3.14709 20.2647C3.07711 20.6145 3.38557 20.923 3.73544 20.853Z" fill="white"/>
</svg>
