<svg width="33" height="32" viewBox="0 0 33 32" fill="none" xmlns="http://www.w3.org/2000/svg">
<path d="M22.87 4.70711L19.2694 8.30769L24.1925 13.2308L27.7931 9.63018C28.1836 9.23966 28.1836 8.60649 27.7931 8.21597L24.2842 4.70711C23.8937 4.31658 23.2605 4.31658 22.87 4.70711Z" fill="#18181B"/>
<path d="M5.23544 27.8532L10.5054 26.7992C10.6022 26.7799 10.6911 26.7323 10.7609 26.6625L23.0105 14.4129C23.2058 14.2176 23.2058 13.901 23.0105 13.7058L18.4603 9.15554C18.4496 9.14488 18.4323 9.14488 18.4217 9.15554L5.83782 21.7394C5.76802 21.8092 5.72044 21.8981 5.70108 21.9949L4.64709 27.2649C4.57711 27.6147 4.88558 27.9232 5.23544 27.8532Z" fill="#18181B"/>
</svg>
