<svg width="20" height="18" viewBox="0 0 20 18" fill="none" xmlns="http://www.w3.org/2000/svg">
<path d="M7.76094 11.3677C7.18594 10.7937 6.83594 10.0137 6.83594 9.13866C6.83594 7.38566 8.24794 5.97266 9.99994 5.97266C10.8669 5.97266 11.6649 6.32366 12.2299 6.89766" stroke="#A1A1AA" stroke-width="1.5" stroke-linecap="round" stroke-linejoin="round"/>
<path d="M13.1054 9.69922C12.8734 10.9892 11.8574 12.0072 10.5684 12.2412" stroke="#A1A1AA" stroke-width="1.5" stroke-linecap="round" stroke-linejoin="round"/>
<path d="M4.655 14.473C3.068 13.227 1.724 11.407 0.75 9.13796C1.734 6.85896 3.087 5.02896 4.684 3.77296C6.271 2.51696 8.102 1.83496 10 1.83496C11.909 1.83496 13.739 2.52696 15.336 3.79196" stroke="#A1A1AA" stroke-width="1.5" stroke-linecap="round" stroke-linejoin="round"/>
<path d="M17.4478 5.99121C18.1358 6.90521 18.7408 7.96021 19.2498 9.13721C17.2828 13.6942 13.8068 16.4392 9.99977 16.4392C9.13677 16.4392 8.28577 16.2992 7.46777 16.0262" stroke="#A1A1AA" stroke-width="1.5" stroke-linecap="round" stroke-linejoin="round"/>
<path d="M17.8873 1.25L2.11328 17.024" stroke="#A1A1AA" stroke-width="1.5" stroke-linecap="round" stroke-linejoin="round"/>
</svg>
