<svg width="24" height="24" viewBox="0 0 24 24" fill="none" xmlns="http://www.w3.org/2000/svg">
<path fill-rule="evenodd" clip-rule="evenodd" d="M13.7135 4.38358C13.1022 2.82201 10.8924 2.82201 10.281 4.38358C9.89963 5.35774 8.78482 5.81951 7.8263 5.40034C6.28995 4.72848 4.72777 6.2915 5.39937 7.82797C5.81839 8.78658 5.35676 9.90167 4.38263 10.2832C2.82102 10.8949 2.82102 13.1047 4.38263 13.7164C5.35676 14.0979 5.81839 15.213 5.39937 16.1716C4.72777 17.7081 6.28995 19.2711 7.8263 18.5992C8.78482 18.1801 9.89963 18.6418 10.281 19.616C10.8924 21.1776 13.1022 21.1776 13.7135 19.616C14.0949 18.6418 15.2097 18.1801 16.1682 18.5992C17.7046 19.2711 19.2667 17.7081 18.5951 16.1716C18.1761 15.213 18.6378 14.0979 19.6119 13.7164C21.1735 13.1047 21.1735 10.8949 19.6119 10.2832C18.6378 9.90167 18.1761 8.78658 18.5951 7.82797C19.2667 6.2915 17.7046 4.72848 16.1682 5.40034C15.2097 5.81951 14.0949 5.35774 13.7135 4.38358ZM11.9993 14.9998C13.6558 14.9998 14.9986 13.6566 14.9986 11.9998C14.9986 10.3429 13.6558 8.99979 11.9993 8.99979C10.3429 8.99979 9.00002 10.3429 9.00002 11.9998C9.00002 13.6566 10.3429 14.9998 11.9993 14.9998Z" fill="white"/>
</svg>
