<svg width="24" height="24" viewBox="0 0 24 24" fill="none" xmlns="http://www.w3.org/2000/svg">
<path fill-rule="evenodd" clip-rule="evenodd" d="M6.16569 14.7299L9.87276 18.4341C11.0263 17.7668 12.0605 17.1532 12.9877 16.582L12.962 20.9036C14.6083 19.8274 17.5924 17.0102 16.3582 14.3504C21.0265 10.9354 21.0178 8.9096 20.9969 4.05566V4.05553V4.05539C20.9955 3.71775 20.994 3.36643 20.994 3C15.118 3 12.7192 4.48907 10.4906 7.62454C6.5364 6.38525 4.31216 9.37565 3.69431 11.0258H8.36515C8.264 11.1986 8.16139 11.3744 8.05707 11.5531C7.48966 12.5251 6.87181 13.5834 6.16569 14.7299ZM3.07647 20.9036C2.87052 20.207 2.9529 18.3673 4.93 16.582L7.40138 19.0515C6.78354 19.8747 5.05357 21.3975 3.07647 20.9036ZM14.621 8.55635C14.621 7.80997 15.2266 7.20425 15.9745 7.20425C16.7224 7.20425 17.3281 7.80997 17.3281 8.55635C17.3281 9.30272 16.7224 9.90844 15.9745 9.90844C15.2266 9.90844 14.621 9.30272 14.621 8.55635ZM15.9745 6.20425C14.6751 6.20425 13.621 7.25696 13.621 8.55635C13.621 9.85574 14.6751 10.9084 15.9745 10.9084C17.274 10.9084 18.3281 9.85574 18.3281 8.55635C18.3281 7.25696 17.274 6.20425 15.9745 6.20425Z" fill="white"/>
</svg>
