<svg width="16" height="16" viewBox="0 0 16 16" fill="none" xmlns="http://www.w3.org/2000/svg">
<path fill-rule="evenodd" clip-rule="evenodd" d="M16.0008 8.18324C16.0008 7.61597 15.9488 7.07051 15.8524 6.54688H8.16406V9.64142H12.5574C12.3681 10.6414 11.793 11.4887 10.9284 12.056V14.0632H13.5667C15.1103 12.6705 16.0008 10.6196 16.0008 8.18324Z" fill="#196CFA"/>
<path fill-rule="evenodd" clip-rule="evenodd" d="M8.16217 15.9995C10.3662 15.9995 12.2141 15.2832 13.5648 14.0613L10.9265 12.0541C10.1956 12.5341 9.2605 12.8177 8.16217 12.8177C6.03601 12.8177 4.23639 11.4104 3.59446 9.51953H0.867188V11.5923C2.21041 14.2068 4.97108 15.9995 8.16217 15.9995Z" fill="#15803D"/>
<path fill-rule="evenodd" clip-rule="evenodd" d="M3.59554 9.51898C3.43228 9.03898 3.33951 8.52625 3.33951 7.99898C3.33951 7.4717 3.43228 6.95898 3.59554 6.47898V4.40625H0.868273C0.315398 5.48625 0 6.70807 0 7.99898C0 9.28989 0.315398 10.5117 0.868273 11.5917L3.59554 9.51898Z" fill="#FAA81A"/>
<path fill-rule="evenodd" clip-rule="evenodd" d="M8.16217 3.18182C9.36068 3.18182 10.4367 3.58545 11.2828 4.37818L13.6241 2.08364C12.2104 0.792727 10.3625 0 8.16217 0C4.97108 0 2.21041 1.79273 0.867188 4.40727L3.59446 6.48C4.23639 4.58909 6.03601 3.18182 8.16217 3.18182Z" fill="#DD2A2E"/>
</svg>
