<svg width="278" height="250" viewBox="0 0 278 250" fill="none" xmlns="http://www.w3.org/2000/svg">
<ellipse opacity="0.05" cx="145.119" cy="134.421" rx="115.578" ry="115.578" fill="#196CFA"/>
<path fill-rule="evenodd" clip-rule="evenodd" d="M145.628 91.974C148.441 119.402 132.32 130.842 127.751 133.503C127.789 133.787 127.808 134.089 127.808 134.391V173.523L135.321 177.657H174.831C174.906 177.657 175.001 177.657 175.076 177.676C184.175 178.922 184.534 168.162 184.534 166.821C184.477 166.142 184.855 165.462 185.515 165.179C191.216 162.725 188.8 155.023 188.574 154.363C188.271 153.589 188.63 152.701 189.385 152.324C196.785 148.737 192.122 142.281 191.518 141.47C191.028 140.941 190.952 140.129 191.348 139.487C204.751 118.93 162.882 124.008 160.201 124.348C159.994 124.386 159.767 124.405 159.541 124.348C158.653 124.178 158.087 123.329 158.257 122.441C164.505 90.7847 150.102 91.1245 145.59 91.9362L145.628 91.974Z" fill="#196CFA"/>
<path fill-rule="evenodd" clip-rule="evenodd" d="M125.128 173.994V134.39C125.128 133.446 124.75 132.597 124.127 131.993C123.504 131.37 122.655 130.992 121.73 130.992H100.776C99.8324 130.992 98.983 131.37 98.3789 131.993C97.756 132.616 97.3784 133.465 97.3784 134.39V173.994C97.3784 174.938 97.756 175.787 98.3789 176.391C99.0018 177.014 99.8513 177.392 100.776 177.392H121.73C122.674 177.392 123.523 177.014 124.127 176.391C124.637 175.882 124.977 175.221 125.09 174.485C125.09 174.372 125.09 174.239 125.128 174.126C125.128 174.088 125.128 174.032 125.128 173.994Z" fill="#196CFA"/>
<path opacity="0.1" d="M174.976 8.85334C173.895 8.55749 172.818 8.56943 171.586 8.58308C171.278 8.5865 170.97 8.58991 170.662 8.59332C172.187 7.19116 173.711 5.78901 174.77 4.08417C175.072 3.61906 174.451 3.16419 174.147 3.4754C172.315 4.88097 170.639 6.43873 168.962 7.9965C168.94 5.99581 168.918 3.99512 168.896 1.99443C168.885 1.07104 167.5 1.0864 167.51 2.00979C167.532 4.01048 167.556 6.16507 167.578 8.16576C166.178 6.79602 164.778 5.58019 163.379 4.36435C162.758 3.90948 161.997 4.68751 162.618 5.14238C163.709 6.36163 164.801 7.58088 166.046 8.79842C164.506 8.81548 162.967 8.83255 161.429 9.00351C160.813 9.01034 160.824 9.93373 161.439 9.92691C163.288 10.0603 164.982 10.0416 166.675 10.0228C165.303 11.2693 163.933 12.6698 162.717 14.0685C162.108 14.691 163.04 15.4502 163.651 14.9817C165.023 13.7351 166.396 12.6425 167.614 11.3976C167.633 13.0905 167.653 14.9373 167.98 16.6268C167.984 16.9346 168.599 16.9278 168.75 16.6183C169.041 15.0759 169.022 13.383 169.003 11.6901C169.468 11.9928 169.781 12.451 170.247 12.7537C171.179 13.513 172.111 14.2722 173.042 14.8776C173.353 15.182 173.81 14.7152 173.498 14.4108C172.718 13.4959 172.092 12.5793 171.312 11.6645C170.844 11.054 170.223 10.5991 169.756 10.1426C170.526 10.134 171.141 10.1272 171.911 10.1187C173.143 10.105 174.066 10.0948 175.295 9.77332C175.447 9.61771 175.44 9.00212 174.976 8.85334Z" fill="#18181B"/>
<path opacity="0.1" d="M15.7368 86.5186C14.6558 86.2228 13.5781 86.2347 12.3466 86.2484C12.0387 86.2518 11.7308 86.2552 11.4229 86.2586C12.947 84.8565 14.4711 83.4543 15.53 81.7495C15.8328 81.2843 15.2119 80.8295 14.9074 81.1407C12.9197 82.3941 11.2451 84.1057 9.56871 85.6635C9.54653 83.6628 9.52435 81.6621 9.50217 79.6614C9.49194 78.738 8.10641 78.7534 8.11665 79.6768C8.13883 81.6775 8.16271 83.8321 8.18489 85.8327C6.78402 84.463 5.38484 83.2472 3.98567 82.0313C3.36477 81.5765 2.60357 82.3545 3.22447 82.8094C4.31575 84.0286 5.40702 85.2479 6.65225 86.4654C5.11278 86.4825 3.57331 86.4995 2.03555 86.6705C1.41976 86.6773 1.42999 87.6007 2.04578 87.5939C3.89485 87.7273 5.58826 87.7085 7.28168 87.6898C5.90981 88.9363 4.53964 90.3368 3.32342 91.7355C2.71445 92.3579 3.64667 93.1172 4.25734 92.6487C5.62921 91.4021 7.00279 90.3095 8.22072 89.0646C8.23948 90.7575 8.25995 92.6043 8.58661 94.2938C8.59003 94.6016 9.20581 94.5948 9.35635 94.2852C9.64718 92.7428 9.62842 91.05 9.60965 89.3571C10.0749 89.6597 10.3879 90.118 10.8532 90.4207C11.7854 91.18 12.7176 91.9392 13.6481 92.5446C13.9594 92.849 14.4161 92.3821 14.1048 92.0778C13.3248 91.1629 12.6988 90.2463 11.9189 89.3315C11.4502 88.721 10.8293 88.2661 10.3623 87.8095C11.1321 87.801 11.7478 87.7942 12.5176 87.7857C13.7492 87.772 14.6728 87.7618 15.901 87.4403C16.0532 87.2847 16.0464 86.6691 15.7368 86.5186Z" fill="#18181B"/>
<path d="M41.6531 35.5927C39.9495 34.6881 38.3998 33.7818 37.1511 32.2565C35.7468 30.5789 35.1089 28.5851 34.163 26.5946C34.163 26.5946 34.1613 26.4407 34.0074 26.4424L33.8534 26.4441C33.8534 26.4441 33.8534 26.4441 33.7012 26.5997C33.7012 26.5997 33.7012 26.5997 33.7029 26.7536C33.2871 30.914 30.8564 33.8654 27.8064 36.5158C27.6542 36.6714 27.6576 36.9792 27.8133 37.1314C31.2171 38.6329 33.5724 42.7625 34.6876 46.1364C34.8449 46.4425 35.3068 46.4374 35.4573 46.1278C36.0509 44.1203 36.4923 42.2684 37.5494 40.4097C38.6066 38.551 39.9768 37.1505 41.6582 36.0544C41.8105 35.8988 41.8071 35.591 41.6531 35.5927Z" fill="#196CFA"/>
<path d="M276.897 81.7605C275.193 80.8559 273.643 79.9495 272.549 78.4225C271.144 76.7449 270.506 74.7511 269.56 72.7606C269.56 72.7606 269.559 72.6067 269.405 72.6084L269.251 72.6101C269.251 72.6101 269.251 72.6101 269.099 72.7658C269.099 72.7658 269.099 72.7657 269.1 72.9196C268.685 77.08 266.254 80.0314 263.204 82.6818C263.052 82.8375 263.055 83.1452 263.211 83.2974C266.615 84.7989 268.97 88.9286 270.085 92.3024C270.242 92.6085 270.704 92.6034 270.855 92.2939C271.448 90.2864 271.89 88.4344 272.947 86.5757C274.004 84.717 275.374 83.3165 277.056 82.2205C277.056 82.2205 277.052 81.9127 276.897 81.7605Z" fill="#196CFA"/>
<path d="M164.082 43.9159C162.844 43.314 161.913 42.7086 160.978 41.6416C160.04 40.4206 159.563 39.0406 158.778 37.6641C158.778 37.6641 158.778 37.6641 158.624 37.6658L158.47 37.6675C158.47 37.6675 158.47 37.6675 158.472 37.8214C158.197 40.7489 156.525 42.7683 154.39 44.639C154.238 44.7946 154.24 44.9485 154.394 44.9468C156.869 45.9968 158.441 48.9038 159.236 51.2038C159.24 51.5116 159.701 51.5065 159.698 51.1987C159.991 49.8102 160.437 48.4199 161.193 47.1802C161.949 45.9405 162.863 45.0069 164.086 44.2237C164.24 44.222 164.236 43.9142 164.082 43.9159Z" fill="#196CFA"/>
<path d="M124.816 71.3628C122.649 70.3094 120.944 69.2509 119.538 67.4195C117.821 65.2837 117.025 62.9837 115.92 60.5333C115.92 60.5333 115.919 60.3794 115.765 60.3811L115.611 60.3828C115.611 60.3828 115.457 60.3845 115.458 60.5384L115.46 60.6923C114.899 65.6239 112.015 69.3499 108.354 72.4688C108.202 72.6244 108.207 73.0861 108.515 73.0827C112.692 74.8834 115.518 79.7775 116.795 83.9191C116.954 84.3791 117.57 84.3723 117.719 83.9089C118.309 81.5936 119.053 79.2765 120.261 77.1083C121.469 74.9401 123.143 73.2284 125.285 71.9733C124.977 71.9767 125.126 71.5133 124.816 71.3628Z" fill="#196CFA"/>
<path d="M87.8974 32.5996C85.708 29.5455 83.5204 26.6453 80.722 24.2136C79.1689 22.9995 77.6158 21.7854 75.9121 20.8808C74.9833 20.4293 74.0562 20.1318 73.1274 19.6803C72.6639 19.5315 72.2003 19.3827 71.7351 19.0801C71.2715 18.9313 70.9602 18.6269 70.5001 18.7859C70.1922 18.7893 70.04 18.9449 70.1973 19.251C70.3598 20.0188 71.2886 20.4703 71.9095 20.9251C72.6861 21.5322 73.4609 21.9854 74.2375 22.5924C75.7889 23.6527 77.342 24.8668 78.7412 26.0826C81.3856 28.516 83.5698 31.1084 85.6036 34.0103C86.5426 35.3851 88.8381 34.1283 87.8974 32.5996Z" fill="#FAA81A"/>
<path d="M86.8002 94.3501C85.5362 91.4396 82.5942 89.9331 79.6555 88.7343C76.7169 87.5355 73.3181 86.4958 70.2443 86.9916C67.3227 87.3318 64.1103 89.2145 63.0634 91.9966C62.3158 94.0058 61.5785 96.9384 63.4429 98.4569C64.3768 99.3701 66.072 99.5052 66.9854 98.5716C68.5095 97.1694 67.1001 95.0302 65.8566 93.9666C60.7252 89.4059 52.1127 90.271 46.4456 92.9504C42.9219 94.5286 39.872 97.179 38.0639 100.739C36.5551 103.526 34.9163 108.47 36.95 111.372C37.263 111.83 37.8788 111.823 38.1816 111.358C39.8494 109.031 39.8119 105.645 41.0162 103.169C42.2187 100.539 44.1962 98.3624 46.49 96.9518C51.2282 93.8209 59.3704 92.1914 64.3342 95.5226C64.9551 95.9775 66.6605 97.036 65.747 97.9696C64.9858 98.7477 63.7457 97.9918 63.277 97.3813C61.3921 94.016 65.8157 90.273 68.5782 89.4728C71.3407 88.6726 74.5821 89.4062 77.2111 90.4545C80.1464 91.3455 83.552 93.0008 85.2727 95.4444C86.0458 95.7437 87.1166 95.1161 86.8002 94.3501Z" fill="#22C55E"/>
<path d="M221.955 69.9016C222.109 69.8999 222.107 69.746 221.953 69.7477C221.799 69.7495 221.801 69.9033 221.955 69.9016Z" fill="#F77E08"/>
<path d="M223.309 67.27C225.871 62.3162 231.201 57.0239 237.226 58.8041C239.388 59.3958 242.181 61.3658 241.904 64.1394C241.77 65.9879 239.601 64.7806 238.823 64.0196C236.954 62.0394 237.838 58.4895 238.428 56.1742C239.318 53.086 241.287 50.1397 243.883 48.2639C246.02 46.5471 248.936 45.7452 251.55 45.4084C254.472 45.0682 257.099 45.9626 259.877 46.5474C260.956 46.6894 261.712 45.4497 260.934 44.6887C258.909 42.5563 255.365 42.2877 252.597 42.6263C249.675 42.9665 246.605 43.7701 244.161 45.4903C239.27 48.7768 235.652 55.7432 236.179 61.5862C236.516 64.1991 239.957 69.0863 242.851 66.2837C244.223 65.0372 243.736 62.7338 243.103 61.2017C242 58.9051 239.52 57.3934 237.204 56.8034C230.255 55.0334 224.932 60.9413 222.38 66.8185C222.231 67.2819 223.006 67.7351 223.309 67.27Z" fill="#22C55E"/>
<path d="M90.1266 60.9132C87.9372 57.8591 85.1406 55.5813 81.8907 54.0782C80.1887 53.3275 78.4885 52.7306 76.7916 52.4416C75.2488 52.1509 72.9379 52.0226 71.5609 52.8074C71.2547 52.9647 71.2598 53.4264 71.5711 53.7308C72.8112 54.4867 74.6603 54.6201 76.0492 54.9125C77.7477 55.3554 79.1384 55.8018 80.6864 56.5542C83.6267 57.9069 86.4199 59.8769 88.4485 62.3171C89.2285 63.2319 90.9083 61.982 90.1266 60.9132Z" fill="#FAA81A"/>
<path d="M54.9871 71.6149C56.3693 71.2917 57.907 71.1208 59.2925 71.1054C60.0623 71.0969 60.832 71.0884 61.6017 71.0798C62.0636 71.0747 62.5254 71.0696 62.8316 70.9123C63.1378 70.755 63.4457 70.7516 63.7519 70.5942C64.0581 70.4369 64.053 69.9752 63.7434 69.8247C63.4338 69.6743 63.1242 69.5238 62.9685 69.3716C62.6589 69.2211 62.0431 69.2279 61.7335 69.0774C60.9638 69.086 60.194 69.0945 59.2721 69.2586C57.7343 69.4296 56.1982 69.7545 54.6639 70.2332C53.7419 70.3974 54.0652 71.779 54.9871 71.6149Z" fill="#FAA81A"/>
<path d="M218.99 108.259C223.272 105.595 227.866 103.389 232.777 101.95C235.08 101.308 237.536 100.665 239.996 100.33C241.38 100.161 242.609 99.9935 243.993 99.8243C245.071 99.8123 246.149 99.8004 247.067 99.3284C247.373 99.1711 247.368 98.7094 247.059 98.559C245.976 98.1092 244.9 98.2751 243.668 98.2887C242.283 98.3041 241.053 98.4716 239.667 98.487C237.052 98.6699 234.44 99.1606 231.83 99.8052C226.609 101.094 222.016 103.454 217.743 106.888C217.134 107.51 218.072 108.731 218.99 108.259Z" fill="#FAA81A"/>
<path d="M210.445 101.121C214.098 97.2323 218.841 94.5631 223.43 91.8956C225.726 90.6388 228.174 89.2264 230.625 88.1218C232.004 87.4909 233.228 86.8616 234.453 86.2324C235.678 85.6031 237.06 85.28 238.283 84.4968C238.589 84.3395 238.584 83.8778 238.12 83.729C236.885 83.4349 235.505 83.9119 234.275 84.0795C232.737 84.2504 231.357 84.7275 229.978 85.3585C227.221 86.6204 224.465 88.0362 221.865 89.6042C216.816 92.4307 212.384 95.4043 208.894 100.06C208.287 100.837 209.683 101.745 210.445 101.121Z" fill="#FAA81A"/>
<path d="M185.156 28.2895C184.997 27.8295 184.992 27.3678 184.831 26.754C184.828 26.4462 184.672 26.294 184.67 26.1401C184.669 25.9862 184.667 25.8323 184.511 25.6801C184.51 25.5262 184.356 25.5279 184.354 25.374C184.198 25.2218 184.043 25.0696 183.889 25.0713C183.735 25.073 183.583 25.2286 183.43 25.3842C183.432 25.5381 183.278 25.5398 183.28 25.6937C183.281 25.8476 183.283 26.0015 183.285 26.1554C183.288 26.4632 183.292 26.771 183.449 27.0771C183.454 27.5388 183.613 27.9988 183.772 28.4588L183.771 28.3049L183.772 28.4588C183.774 28.6127 183.931 28.9188 184.087 29.071C184.243 29.2232 184.552 29.3736 184.705 29.218C184.858 29.2163 185.165 29.059 185.163 28.9051C185.163 28.9051 185.16 28.5973 185.156 28.2895Z" fill="#18181B"/>
<path d="M191.559 50.3829C191.669 46.3798 192.861 42.8265 194.206 39.1176C194.955 37.2623 195.706 35.5608 196.611 33.8577C197.516 32.1546 198.424 30.7592 198.866 28.9073C198.862 28.5995 198.549 28.1413 198.245 28.4525C197.482 29.0766 197.025 29.5434 196.418 30.3197C195.965 31.0943 195.513 32.0229 195.06 32.7975C194.156 34.6545 193.253 36.5115 192.506 38.5208C191.161 42.2297 190.437 46.3935 190.328 50.3966C190.49 51.1644 191.568 51.1524 191.559 50.3829Z" fill="#FAA81A"/>
<path d="M204.512 24.381C204.662 24.0715 204.814 23.9159 204.965 23.6064C204.965 23.6064 204.967 23.7603 204.813 23.762C204.813 23.762 204.811 23.6081 204.965 23.6064L205.117 23.4508C205.269 23.2952 205.269 23.2952 205.422 23.1396C205.724 22.6745 206.183 22.3615 206.486 21.8964C206.788 21.4313 207.247 21.1184 207.55 20.6533C207.7 20.3438 208.006 20.1865 208.157 19.877C208.155 19.7231 208.309 19.7214 208.307 19.5675C208.46 19.4119 208.458 19.258 208.456 19.1041C208.607 18.7946 208.294 18.3363 207.832 18.3414C207.678 18.3431 207.524 18.3448 207.216 18.3482C207.062 18.3499 207.064 18.5038 206.91 18.5055C206.91 18.5055 206.91 18.5055 206.756 18.5072C206.91 18.5055 206.91 18.5055 206.756 18.5072C206.448 18.5107 206.144 18.8219 205.837 18.9792C205.225 19.2938 204.768 19.7606 204.312 20.2274C203.855 20.6943 203.398 21.1611 203.097 21.7801C202.794 22.2452 202.339 22.8659 202.19 23.3293C201.888 23.7944 202.05 24.5622 202.669 24.8632C203.595 25.0068 204.209 24.8461 204.512 24.381Z" fill="#FAA81A"/>
<path d="M199.443 53.2203C199.891 51.984 200.495 50.8998 200.943 49.6635C201.391 48.4272 201.841 47.3448 202.443 46.1068C203.047 45.0227 203.495 43.7864 204.099 42.7022C204.703 41.6181 205.614 40.5306 205.755 39.2977C205.75 38.836 205.286 38.6872 204.978 38.6906C203.75 39.0121 203.15 40.404 202.39 41.3359C201.478 42.4234 200.876 43.6615 200.274 44.8995C199.672 46.1375 199.224 47.3738 198.777 48.764C198.63 49.3813 198.329 50.0003 198.338 50.7698C198.191 51.3871 198.199 52.1566 198.206 52.7722C198.06 53.5434 199.141 53.8393 199.443 53.2203Z" fill="#FAA81A"/>
<path d="M207.879 36.3499C208.178 35.577 208.633 34.9563 209.088 34.3356C209.694 33.4054 209.99 32.3247 210.597 31.5484C211.204 30.772 211.971 30.4557 212.734 29.8316C213.496 29.2074 214.259 28.5833 215.021 27.8053C217.915 25.0027 221.274 22.5028 224.793 20.4628C225.712 19.9909 226.63 19.5189 227.549 19.047C228.161 18.7324 229.078 18.1065 228.607 17.3422C227.821 15.8117 224.764 17.8465 223.845 18.3185C220.327 20.3584 217.434 23.3149 214.23 25.967C213.313 26.5929 212.552 27.3709 211.791 28.1489C211.03 28.927 210.426 30.0111 209.665 30.7891C208.904 31.5671 207.985 32.0391 207.224 32.8171C206.615 33.4395 206.163 34.368 205.866 35.2948C205.263 36.5329 207.124 37.7436 207.879 36.3499Z" fill="#FAA81A"/>
<path opacity="0.5" d="M134.998 45.3152C135.6 44.0771 135.737 42.5364 135.567 41.1531C135.55 39.6141 135.379 38.0768 135.056 36.6951C135.053 36.3873 134.437 36.3941 134.44 36.7019C134.302 38.0887 134.317 39.4738 134.334 41.0128C134.348 42.244 134.363 43.6291 133.913 44.7115C133.614 45.4844 134.698 46.0881 134.998 45.3152Z" fill="#22C55E"/>
<g opacity="0.5">
<path d="M135.085 25.3049C135.069 23.9198 135.208 22.533 135.04 21.3035C134.871 19.9201 134.396 18.6941 133.612 17.4714C133.455 17.1653 132.841 17.326 133 17.786C133.643 20.2416 133.672 22.8579 133.701 25.4741C133.556 26.2453 135.095 26.2283 135.085 25.3049Z" fill="#22C55E"/>
</g>
<path opacity="0.5" d="M128.163 12.1441C127.842 10.9163 127.366 9.69025 126.738 8.61978C126.425 8.16149 126.265 7.5476 125.952 7.08932C125.639 6.63104 125.321 5.71105 124.705 5.71788C124.397 5.72129 124.089 5.72471 123.938 6.03421C123.637 6.65322 124.106 7.2637 124.421 7.87588C124.734 8.33417 125.048 8.94635 125.208 9.40634C125.835 10.4768 126.309 11.549 126.629 12.6229C126.947 13.5428 128.481 13.0641 128.163 12.1441Z" fill="#22C55E"/>
<path opacity="0.5" d="M135.22 9.91154C135.514 8.67694 135.653 7.29014 135.792 5.90334C135.785 5.28775 135.776 4.51825 135.769 3.90265C135.763 3.28706 135.754 2.51756 135.439 1.90538C135.28 1.44539 134.664 1.45221 134.516 1.91562C134.215 2.53463 134.223 3.30412 134.23 3.91972C134.237 4.53532 134.244 5.15091 134.25 5.76651C134.264 6.9977 134.124 8.2306 133.983 9.4635C133.987 9.7713 134.146 10.2313 134.454 10.2279C134.765 10.5323 135.225 10.3732 135.22 9.91154Z" fill="#22C55E"/>
<path opacity="0.5" d="M141.122 14.3104C141.413 12.768 142.013 11.3761 142.769 10.1363C143.525 8.8966 144.591 7.80736 145.501 6.56593C145.652 6.25643 145.493 5.79643 145.186 5.95375C143.498 6.43422 142.282 7.83296 141.527 9.22658C140.619 10.6219 140.176 12.3199 139.885 13.8623C139.588 14.7891 140.978 15.2355 141.122 14.3104Z" fill="#22C55E"/>
<path d="M242.946 74.7479C243.098 74.5923 243.096 74.4384 243.249 74.2828C243.399 73.9733 243.55 73.6638 243.546 73.356C243.543 73.0482 243.541 72.8943 243.692 72.5848L243.69 72.4309C243.688 72.277 243.687 72.1231 243.685 71.9692C243.682 71.6614 243.678 71.3536 243.521 71.0475C243.517 70.7397 243.362 70.5875 243.206 70.4354C242.891 69.8232 242.27 69.3683 241.499 69.2229C241.809 69.3734 242.118 69.5239 242.429 69.8283C242.118 69.5239 241.809 69.3734 241.501 69.3768C241.191 69.2263 240.883 69.2298 240.731 69.3854C240.423 69.3888 240.271 69.5444 239.965 69.7017C239.658 69.859 239.354 70.1702 239.203 70.4797C239.662 70.1668 239.966 69.8556 240.425 69.5427C240.271 69.5444 240.119 69.7 239.965 69.7017C239.658 69.859 239.352 70.0163 239.2 70.1719C239.048 70.3275 238.896 70.4831 238.743 70.6387C238.745 70.7926 238.591 70.7943 238.593 70.9482C238.594 71.1021 238.442 71.2578 238.444 71.4117C238.596 71.256 238.593 70.9482 238.745 70.7926C238.747 70.9465 238.593 70.9482 238.594 71.1021C238.596 71.256 238.442 71.2578 238.444 71.4117C238.292 71.5673 238.295 71.8751 238.143 72.0307C237.992 72.3402 237.842 72.6497 237.847 73.1114C237.696 73.4209 237.855 73.8809 237.859 74.1887C238.016 74.4948 238.174 74.8008 238.331 75.1069C238.488 75.413 238.8 75.7174 239.109 75.8679C239.265 76.0201 239.573 76.0167 239.728 76.1689C240.192 76.3176 240.808 76.3108 241.268 76.1518C241.42 75.9962 241.728 75.9928 241.88 75.8372C242.493 75.5226 242.795 75.0574 242.946 74.7479Z" fill="#FAA81A"/>
<path d="M236.811 21.4072C236.81 21.2533 236.656 21.255 236.654 21.1011C236.498 20.9489 236.343 20.7967 236.341 20.6428C236.341 20.6428 236.185 20.4907 236.031 20.4924C235.722 20.3419 235.72 20.188 235.257 20.0392C235.103 20.0409 234.793 19.8904 234.639 19.8921C234.485 19.8938 234.177 19.8972 234.177 19.8972L233.717 20.0563C233.411 20.2136 233.259 20.3692 233.108 20.6787C232.956 20.8343 232.956 20.8343 232.958 20.9882C232.959 21.1421 232.805 21.1438 232.807 21.2977C232.657 21.6072 232.508 22.0706 232.513 22.5323C232.518 22.994 232.675 23.3001 232.834 23.7601C233.305 24.5245 234.08 24.9776 234.849 24.9691C235.619 24.9606 236.538 24.4886 236.837 23.7157C236.988 23.4062 237.136 22.9428 237.131 22.4811C237.128 22.1733 236.971 21.8672 236.811 21.4072Z" fill="#FAA81A"/>
<path d="M123.557 41.1312C122.279 36.9896 122.846 32.5197 123.569 28.3559C123.566 28.0481 123.256 27.8976 123.106 28.2071C121.612 32.3794 121.203 37.1554 122.483 41.4509C122.491 42.2204 123.719 41.899 123.557 41.1312Z" fill="#18181B"/>
</svg>
