<svg width="24" height="24" viewBox="0 0 24 24" fill="none" xmlns="http://www.w3.org/2000/svg">
<path fill-rule="evenodd" clip-rule="evenodd" d="M22 12C22 17.5228 17.5228 22 12 22C6.47715 22 2 17.5228 2 12C2 6.47715 6.47715 2 12 2C17.5228 2 22 6.47715 22 12ZM10.7499 10.0019C10.7418 10.4091 10.4092 10.7367 10 10.7367C9.58579 10.7367 9.25 10.4009 9.25 9.98673H10C9.25 9.98673 9.25 9.98623 9.25 9.98572L9.25 9.98468L9.25001 9.98248L9.25005 9.97764L9.25024 9.96619C9.25042 9.95779 9.25073 9.94783 9.25124 9.93643C9.25226 9.91366 9.25409 9.88494 9.25734 9.85111C9.26382 9.78371 9.27608 9.69443 9.29942 9.59034C9.34568 9.38402 9.43855 9.10596 9.62768 8.82478C10.035 8.2192 10.7844 7.75 12 7.75C13.2156 7.75 13.965 8.2192 14.3723 8.82478C14.5615 9.10596 14.6543 9.38402 14.7006 9.59034C14.7239 9.69443 14.7362 9.78371 14.7427 9.85111C14.7459 9.88494 14.7477 9.91366 14.7488 9.93643C14.7493 9.94783 14.7496 9.95779 14.7498 9.96619L14.7499 9.97764L14.75 9.98248L14.75 9.98468L14.75 9.98572C14.75 9.98623 14.75 9.98673 14 9.98673H14.75C14.75 11.0677 14.0353 11.878 13.4914 12.3498C13.2221 12.5833 12.9559 12.7677 12.75 12.8975V13.9513C12.75 14.3655 12.4142 14.7013 12 14.7013C11.5858 14.7013 11.25 14.3655 11.25 13.9513V12.4646C11.25 12.1797 11.4114 11.9194 11.6666 11.7928C11.6668 11.7927 11.667 11.7926 12 12.4646L11.667 11.7926L11.6763 11.7878C11.6863 11.7826 11.7029 11.7738 11.7252 11.7616C11.7698 11.7371 11.8363 11.6992 11.9175 11.6489C12.0815 11.5474 12.2969 11.4002 12.5086 11.2166C12.9601 10.825 13.2443 10.401 13.2499 9.99884L13.2495 9.99458C13.2482 9.98067 13.2448 9.9538 13.2369 9.91851C13.2207 9.84607 13.1885 9.75245 13.1277 9.66195C13.035 9.52417 12.7844 9.25 12 9.25C11.2156 9.25 10.965 9.52417 10.8723 9.66195C10.8115 9.75245 10.7793 9.84607 10.7631 9.91851C10.7552 9.9538 10.7518 9.98067 10.7505 9.99458L10.7499 10.0019ZM12.75 15.9375C12.75 15.5233 12.4142 15.1875 12 15.1875C11.5858 15.1875 11.25 15.5233 11.25 15.9375V16C11.25 16.4142 11.5858 16.75 12 16.75C12.4142 16.75 12.75 16.4142 12.75 16V15.9375Z" fill="white"/>
</svg>
