<svg width="24" height="24" viewBox="0 0 24 24" fill="none" xmlns="http://www.w3.org/2000/svg">
<path fill-rule="evenodd" clip-rule="evenodd" d="M9.45646 19.4557V16.849C9.45644 16.1859 10.0254 15.6472 10.7304 15.6428H13.3127C14.021 15.6428 14.5952 16.1828 14.5952 16.849V19.4638C14.595 20.0267 15.0728 20.4868 15.6711 20.5H17.3927C19.1088 20.5 20.5 19.1916 20.5 17.5776V10.1622C20.4908 9.5272 20.1738 8.93095 19.6392 8.54308L13.7516 4.08251C12.7202 3.30583 11.254 3.30583 10.2225 4.08251L4.36076 8.55117C3.82413 8.93747 3.50661 9.53472 3.5 10.1703V17.5776C3.5 19.1916 4.8912 20.5 6.60734 20.5H8.32886C8.94211 20.5 9.43924 20.0324 9.43924 19.4557" fill="white"/>
</svg>
