<svg width="20" height="20" viewBox="0 0 20 20" fill="none" xmlns="http://www.w3.org/2000/svg">
<path fill-rule="evenodd" clip-rule="evenodd" d="M20 10C20 15.5228 15.5228 20 10 20C4.47715 20 0 15.5228 0 10C0 4.47715 4.47715 0 10 0C15.5228 0 20 4.47715 20 10ZM10 7.17094C10.4142 7.17094 10.75 7.50672 10.75 7.92094V13.7501C10.75 14.1643 10.4142 14.5001 10 14.5001C9.58579 14.5001 9.25 14.1643 9.25 13.7501V7.92094C9.25 7.50672 9.58579 7.17094 10 7.17094ZM10.75 5.5C10.75 5.08579 10.4142 4.75 10 4.75C9.58579 4.75 9.25 5.08579 9.25 5.5V5.56683C9.25 5.98104 9.58579 6.31683 10 6.31683C10.4142 6.31683 10.75 5.98104 10.75 5.56683V5.5Z" fill="#196CFA"/>
</svg>
