<svg width="24" height="24" viewBox="0 0 24 24" fill="none" xmlns="http://www.w3.org/2000/svg">
<path fill-rule="evenodd" clip-rule="evenodd" d="M21.5 9.01429C21.5 12.612 18.5321 15.5286 14.8711 15.5286C13.7514 15.5286 12.6967 15.2558 11.7718 14.7742L9.8993 16.6143H7.68965V18.2429L6.58483 19.3286H5.48V20.4143L4.37518 21.5H2.5V18.7857L9.12894 12.2714C8.56492 11.3133 8.24211 10.2008 8.24211 9.01429C8.24211 5.41655 11.21 2.5 14.8711 2.5C18.5321 2.5 21.5 5.41655 21.5 9.01429ZM15 11C16.1046 11 17 10.1046 17 9C17 7.89543 16.1046 7 15 7C13.8954 7 13 7.89543 13 9C13 10.1046 13.8954 11 15 11Z" fill="white"/>
</svg>
