<svg width="162" height="40" viewBox="0 0 162 40" fill="none" xmlns="http://www.w3.org/2000/svg">
<path d="M20.2566 37.5056C10.4746 37.5056 2.47266 29.5534 2.47266 19.8837C2.47266 10.1624 10.4573 2.26172 20.2566 2.26172C29.9868 2.26172 37.9887 10.2139 37.9887 19.8837C37.9887 29.5706 29.9868 37.5056 20.2566 37.5056Z" stroke="white" stroke-width="4"/>
<path d="M81.7128 23.6962C81.298 23.8507 80.866 23.9538 80.503 23.9538C79.6562 23.9538 78.9822 23.7992 78.4982 23.4385C78.0316 23.0778 77.7032 22.5969 77.6514 22.0817H84.5472C84.7028 20.7763 84.6509 19.6256 84.3917 18.6294C84.0806 17.6333 83.5448 16.8432 82.8189 16.3279C82.0758 15.8127 81.0907 15.4863 79.8636 15.4863C78.8093 15.4863 77.8588 15.744 77.0292 16.2249C76.1824 16.6886 75.5083 17.3756 75.0244 18.2687C74.5578 19.1619 74.2812 20.158 74.2812 21.3088C74.2812 22.4595 74.5405 23.4042 75.0244 24.2458C75.5083 25.0874 76.1824 25.7057 77.0811 26.1351C77.9798 26.5988 79.034 26.8221 80.2438 26.8221C81.298 26.8221 82.1968 26.6675 82.9226 26.3068C83.6139 25.9977 84.1843 25.5167 84.6509 24.95L82.8017 23.0091C82.5078 23.2839 82.1449 23.4901 81.7128 23.6962ZM78.4637 18.3203C78.8785 17.9596 79.3624 17.805 79.9327 17.805C80.503 17.805 80.987 17.9596 81.298 18.2687C81.6091 18.5779 81.7647 19.0588 81.7647 19.7286H77.6514C77.8242 19.1619 78.0835 18.6809 78.4637 18.3203Z" fill="white"/>
<path d="M103.301 26.5308C103.301 24.6415 103.405 23.0786 103.613 21.9278C103.82 20.7771 104.131 19.9355 104.563 19.4202C104.978 18.905 105.617 18.6302 106.361 18.6302C106.827 18.6302 107.259 18.6817 107.518 18.7847L108.089 15.6417C107.881 15.5901 107.674 15.5386 107.449 15.4871C107.242 15.4355 107.035 15.4355 106.758 15.4355C106.015 15.4355 105.289 15.6417 104.65 16.1226C104.01 16.5348 103.492 17.3248 103.077 18.3725L103.232 15.6588H99.9141L99.9659 19.4718V26.5308H103.301Z" fill="white"/>
<path d="M110.403 26.0675C111.095 26.4797 111.924 26.7545 112.927 26.7545C114.447 26.7545 115.657 26.119 116.452 24.9168L116.349 26.5312H119.667V15.6592H117.299L117.04 16.9646C116.781 16.5008 116.349 16.123 115.83 15.8653C115.312 15.6077 114.672 15.4531 113.981 15.4531C112.927 15.4531 111.976 15.7108 111.146 16.2432C110.3 16.7585 109.626 17.4455 109.142 18.3901C108.623 19.2832 108.398 20.3825 108.398 21.5847C108.398 22.5809 108.554 23.5256 108.917 24.2984C109.193 25.0198 109.712 25.6381 110.403 26.0675ZM112.356 19.163C112.823 18.5962 113.41 18.2699 114.205 18.2699C114.845 18.2699 115.363 18.476 115.726 18.9054C116.089 19.3348 116.297 19.9015 116.297 20.6229C116.297 21.6191 116.037 22.4092 115.502 22.9759C114.983 23.5427 114.344 23.8691 113.601 23.8691C113.03 23.8691 112.494 23.663 112.183 23.2336C111.82 22.8214 111.665 22.1859 111.665 21.3958C111.665 20.5199 111.924 19.7813 112.356 19.163Z" fill="white"/>
<path d="M122.725 22.6657C122.725 23.868 123.088 24.8642 123.883 25.6542C124.678 26.3928 125.732 26.7535 127.097 26.7535C128.567 26.7535 129.724 26.4443 130.416 25.8604L129.465 23.3527C129.154 23.5589 128.826 23.7134 128.567 23.8165C128.255 23.9195 127.996 23.9195 127.668 23.9195C127.149 23.9195 126.717 23.765 126.458 23.5073C126.199 23.2497 126.043 22.8203 126.043 22.3051L126.095 18.3891H129.569V15.6582H126.147V13.4082H122.881V15.6582H121.031V18.3204H122.829L122.725 22.6657Z" fill="white"/>
<path d="M133.406 26.066C134.305 26.5297 135.359 26.753 136.569 26.753C137.623 26.753 138.522 26.5984 139.247 26.2377C139.939 25.9286 140.509 25.4476 140.976 24.8809L139.126 22.94C138.815 23.2492 138.435 23.5068 138.02 23.6786C137.606 23.8332 137.174 23.9362 136.811 23.9362C135.964 23.9362 135.29 23.7816 134.806 23.4209C134.339 23.0603 134.011 22.5794 133.959 22.0641H140.907C141.062 20.7588 141.01 19.608 140.751 18.6118C140.44 17.6157 139.904 16.8256 139.178 16.3103C138.452 15.7951 137.45 15.4688 136.223 15.4688C135.169 15.4688 134.218 15.7264 133.389 16.2073C132.542 16.671 131.868 17.358 131.384 18.2512C130.917 19.1443 130.641 20.1405 130.641 21.2912C130.641 22.442 130.9 23.3866 131.384 24.2282C131.816 24.9667 132.507 25.585 133.406 26.066ZM134.823 18.3199C135.238 17.9592 135.722 17.8046 136.292 17.8046C136.862 17.8046 137.346 17.9592 137.657 18.2683C137.969 18.5775 138.124 19.0584 138.124 19.7282H134.011C134.132 19.1615 134.408 18.6805 134.823 18.3199Z" fill="white"/>
<path d="M146.404 26.7367C146.922 26.7367 147.354 26.6852 147.821 26.5306C148.235 26.376 148.616 26.2215 148.823 26.0153L148.028 23.6623C147.821 23.8169 147.51 23.8684 147.181 23.8684C146.542 23.8684 146.231 23.5593 146.231 22.8723V10.6777H142.93V23.1814C142.93 24.3322 143.241 25.2253 143.828 25.8436C144.451 26.4276 145.297 26.7367 146.404 26.7367Z" fill="white"/>
<path d="M49.7254 11.0033C50.0883 11.364 50.2957 11.8449 50.2957 12.3602C50.2957 12.8754 50.0883 13.3564 49.7254 13.717C49.3624 14.0777 48.8267 14.2838 48.2045 14.2838C47.565 14.2838 47.0466 14.0777 46.6836 13.717C46.3207 13.3564 46.1133 12.8754 46.1133 12.3602C46.1133 11.8449 46.2688 11.364 46.6318 11.0033C46.9947 10.6426 47.5305 10.4365 48.1527 10.4365C48.8267 10.4194 49.3624 10.6255 49.7254 11.0033Z" fill="white"/>
<path d="M59.5574 15.4355C58.7105 15.4355 57.9328 15.6417 57.2415 16.071C56.5502 16.4832 55.9799 17.1187 55.5132 17.9088L55.6688 15.5558H52.4023V26.4278H55.6688C55.6688 24.8648 55.7725 23.5595 55.928 22.5118C56.0836 21.4641 56.291 20.6225 56.5675 20.0557C56.8267 19.4889 57.1378 19.008 57.518 18.8019C57.881 18.5443 58.2612 18.4412 58.7278 18.4412C59.2463 18.4412 59.6265 18.6473 59.8339 19.008C60.0932 19.4202 60.1969 19.9527 60.145 20.7256L60.0932 26.4793H63.4115L63.4633 20.5195C63.4633 18.905 63.1522 17.6512 62.5128 16.758C61.8214 15.9165 60.8882 15.4355 59.5574 15.4355Z" fill="white"/>
<path d="M72.2423 23.8165C71.9312 23.9195 71.672 23.9195 71.3436 23.9195C70.8251 23.9195 70.3931 23.765 70.1338 23.5073C69.8746 23.2497 69.719 22.8203 69.719 22.3051L69.7709 18.3891H73.2447V15.6582H69.8227V13.4082H66.5563V15.6582H64.707V18.3204H66.5044L66.4007 22.6142C66.4007 23.8165 66.7637 24.8127 67.5587 25.6027C68.3537 26.3413 69.4079 26.7019 70.7733 26.7019C72.2423 26.7019 73.4003 26.3928 74.0916 25.8088L73.141 23.3012C72.8299 23.5417 72.5188 23.6963 72.2423 23.8165Z" fill="white"/>
<path d="M49.8808 15.6582H46.5625V26.5302H49.8808V15.6582Z" fill="white"/>
<path d="M95.1421 15.917L94.8829 17.2224C94.6236 16.7586 94.1915 16.3808 93.6212 16.1231C93.0509 15.8655 92.4633 15.7109 91.7201 15.7109C90.6659 15.7109 89.6635 15.9686 88.8339 16.501C87.987 17.0163 87.313 17.7033 86.8291 18.5964C86.3625 19.4895 86.0859 20.5372 86.0859 21.688C86.0859 22.6841 86.2933 23.5257 86.6563 24.2471C87.0192 24.9856 87.555 25.5524 88.2808 25.9646C88.9722 26.3768 89.8536 26.6001 90.856 26.6001C92.3769 26.6001 93.5348 26.0333 94.3298 24.8826V25.0887C94.278 26.2394 93.9669 27.081 93.483 27.6478C92.9645 28.1631 92.1176 28.4894 90.9078 28.4894C90.2165 28.4894 89.5943 28.4379 89.0067 28.2833C88.4364 28.1287 87.9006 27.9226 87.434 27.7165L86.639 30.4818C86.9501 30.6879 87.3821 30.8424 87.8488 30.997C88.3154 31.1001 88.7993 31.2031 89.3178 31.3062C89.8363 31.3577 90.3202 31.4092 90.735 31.4092C92.1003 31.4092 93.3101 31.1516 94.3644 30.6707C95.4186 30.2069 96.2136 29.4684 96.7321 28.4722C97.3024 27.4761 97.579 26.2738 97.579 24.7624V15.917H95.1421ZM93.8805 22.2376C93.6212 22.7013 93.3101 23.0792 92.9299 23.2853C92.5151 23.5429 92.0831 23.646 91.5646 23.646C90.9251 23.646 90.4585 23.4399 90.0955 23.0792C89.7326 22.667 89.5771 22.1345 89.5771 21.4132C89.5771 20.5716 89.7844 19.9017 90.2684 19.3693C90.735 18.854 91.3745 18.5277 92.1695 18.5277C92.8089 18.5277 93.3274 18.7338 93.6903 19.0945C94.0533 19.4552 94.2607 19.9876 94.2607 20.6574C94.2434 21.2414 94.0878 21.7738 93.8805 22.2376Z" fill="white"/>
<path d="M28.8804 24.1773C28.1891 27.6811 25.0436 30.4463 21.4142 30.6696C17.6293 30.9272 14.0518 28.952 12.6865 25.225C12.2717 24.1258 12.168 22.975 12.168 21.7727C12.168 20.622 12.168 19.5228 12.168 18.372C12.168 17.3243 12.5309 16.9636 13.5852 16.9636C15.59 16.9636 17.5775 16.9636 19.5304 16.9636C19.5304 16.9636 19.5304 16.9636 19.5304 16.9121C21.4834 16.9121 23.419 16.9121 25.372 16.9121C26.2707 16.9121 27.1694 16.9636 28.0508 16.9636C28.5693 16.9636 29.0532 17.3243 29.0532 17.8568C29.0878 20.038 29.3125 22.1334 28.8804 24.1773Z" fill="white"/>
<path d="M17.0403 15.9165C18.3019 15.968 18.7167 15.8134 18.7686 15.0234C18.8204 13.615 18.8204 12.2581 18.7686 10.8326C18.7686 10.3173 18.3538 9.93945 17.8699 9.93945C17.5588 9.93945 17.2995 9.93945 16.9712 9.93945C16.4008 9.93945 16.0206 10.3517 15.9688 10.9356C15.9688 11.6226 15.9688 12.241 15.9688 12.928C15.9688 13.615 15.9688 14.2848 15.9688 14.9718C16.0379 15.5386 16.4181 15.865 17.0403 15.9165Z" fill="white"/>
<path d="M23.6273 15.9153C24.8371 15.9153 25.3037 15.7092 25.3037 14.9706C25.3037 13.5623 25.3037 12.2054 25.3037 10.7798C25.3037 10.2646 24.8889 9.93824 24.3532 9.88672C24.0939 9.88672 23.7828 9.88672 23.5063 9.88672C22.8668 9.88672 22.5039 10.2474 22.5039 10.8829C22.5039 11.5184 22.5039 12.1882 22.5039 12.8237C22.5039 13.5107 22.5039 14.1806 22.5039 14.9191C22.573 15.5374 22.936 15.9153 23.6273 15.9153Z" fill="white"/>
<path d="M152.609 15.2288C153.56 15.2803 153.923 15.1258 153.923 14.5418C153.974 13.4941 153.923 12.3949 153.923 11.3472C153.923 10.9865 153.612 10.6602 153.231 10.6602C153.024 10.6602 152.817 10.6602 152.54 10.6602C152.073 10.6602 151.797 10.9693 151.797 11.4502C151.797 11.9655 151.797 12.4464 151.797 12.9617C151.797 13.4769 151.797 14.0094 151.797 14.5246C151.883 14.9712 152.194 15.2288 152.609 15.2288Z" fill="white"/>
<path d="M157.777 15.2288C158.728 15.2288 159.039 15.0742 159.091 14.5418C159.091 13.4941 159.091 12.3949 159.091 11.3472C159.091 10.9865 158.78 10.6602 158.399 10.6602C158.192 10.6602 157.985 10.6602 157.76 10.6602C157.293 10.6602 156.965 10.9693 156.965 11.4502C156.965 11.914 156.965 12.4464 156.965 12.9101C156.965 13.4254 156.965 13.9578 156.965 14.4731C156.982 14.9712 157.241 15.2288 157.777 15.2288Z" fill="white"/>
<path d="M161.716 17.5818C161.716 17.3757 161.716 17.1181 161.716 16.8948C161.716 16.4826 161.353 16.1562 160.921 16.1562H158.605C158.709 17.4616 158.865 19.8146 158.605 21.0169C158.346 22.5283 157.084 23.6275 155.546 23.7306C153.922 23.8336 152.712 23.0951 152.124 21.5321C151.969 21.0684 151.917 20.5875 151.917 20.0722C151.917 19.1276 151.969 17.2039 151.969 16.1562H149.67C149.255 16.1562 148.875 16.5169 148.875 16.9463V20.8623C148.927 21.4291 149.031 22.0131 149.238 22.5798C149.601 23.6275 150.292 24.5722 151.191 25.242C151.606 25.6027 152.193 25.929 152.66 26.1351C152.919 26.2382 153.351 26.3928 153.351 26.3928C154.146 26.5989 153.922 27.492 153.818 28.179C153.766 28.6427 153.559 29.0721 153.3 29.4328C152.781 30.1714 151.882 30.5836 150.984 30.5836H100.086V33.5721H150.984C154.25 33.5721 156.929 30.9614 156.929 27.7153V26.513C159.245 25.9462 161.146 24.0569 161.613 21.7039C161.716 21.1886 161.768 20.5531 161.768 19.8661V17.5646L161.716 17.5818Z" fill="white"/>
</svg>
