<svg width="34" height="33" viewBox="0 0 34 33" fill="none" xmlns="http://www.w3.org/2000/svg">
<path d="M0.831144 9.81041L32.8311 9.76987M0.831144 9.81041L0.826752 6.34375C0.825353 5.23918 1.71965 4.34262 2.82422 4.34122L30.8242 4.30575C31.9288 4.30435 32.8253 5.19864 32.8267 6.30321L32.8311 9.76987M0.831144 9.81041L0.85344 27.4104C0.854839 28.515 1.7514 29.4093 2.85597 29.4079L30.856 29.3724C31.9605 29.371 32.8548 28.4744 32.8534 27.3699L32.8311 9.76987" stroke="white" stroke-width="1.2"/>
<path d="M19.5703 22.2422L22.296 24.961" stroke="white" stroke-width="1.2" stroke-linecap="round" stroke-linejoin="round"/>
<path d="M11.4004 18.7526C11.4012 19.3654 11.5227 19.9721 11.7579 20.538C11.9932 21.1039 12.3376 21.6179 12.7715 22.0507C13.2053 22.4835 13.7202 22.8266 14.2867 23.0604C14.8532 23.2942 15.4602 23.4141 16.073 23.4134C16.6859 23.4126 17.2925 23.2911 17.8584 23.0559C18.4243 22.8206 18.9383 22.4762 19.3711 22.0423C19.8039 21.6084 20.147 21.0936 20.3808 20.5271C20.6146 19.9606 20.7345 19.3536 20.7338 18.7408C20.7322 17.5031 20.239 16.3167 19.3628 15.4427C18.4865 14.5686 17.2989 14.0785 16.0612 14.08C14.8235 14.0816 13.6372 14.5748 12.7631 15.451C11.889 16.3273 11.3989 17.5149 11.4004 18.7526Z" stroke="white" stroke-width="1.2" stroke-linecap="round" stroke-linejoin="round"/>
<rect x="2.96094" y="6.20703" width="1.6" height="1.6" rx="0.6" transform="rotate(-0.0725834 2.96094 6.20703)" fill="white"/>
<rect x="5.625" y="6.20312" width="1.6" height="1.6" rx="0.6" transform="rotate(-0.0725834 5.625 6.20312)" fill="white"/>
<rect x="8.29297" y="6.19922" width="1.6" height="1.6" rx="0.6" transform="rotate(-0.0725834 8.29297 6.19922)" fill="white"/>
</svg>
