<svg width="587" height="241" viewBox="0 0 587 241" fill="none" xmlns="http://www.w3.org/2000/svg">
<path d="M585.889 91.0721C512.298 67.8122 443.178 32.3177 391.371 1.00002M586 214.723C453.576 159.882 376.233 67.423 339.511 1.00002M586 139.389C585.963 139.378 585.926 139.366 585.889 139.355C489.05 109.278 410.581 49.4725 361.464 1.00002M457.594 240C352.556 179.911 320.348 74.9131 315.927 1.00002M43.0965 240C22.0783 146.642 122.25 58.6388 218.632 1.00001M189.031 240C143.936 158.661 199.187 64.6166 260.293 1.00002M318.531 240C263.946 173.114 229.342 109.187 286.437 1.00002M1.00001 102.128C45.6928 64.4695 113.849 29.2907 180.546 1.00001M1.00001 47.7321C37.3706 32.3912 86.0211 15.9239 134.255 1.00001M1.00001 7.27565C9.91184 5.18632 19.255 3.09078 28.9301 1.00001M585.889 40.6708C536.706 34.3879 482.409 18.4724 434.248 1.00002" stroke="url(#paint0_linear_1387_157322)"/>
<defs>
<linearGradient id="paint0_linear_1387_157322" x1="570.851" y1="1.00003" x2="-52.3336" y2="280.715" gradientUnits="userSpaceOnUse">
<stop stop-color="#F4F4F5"/>
<stop offset="1" stop-color="#F4F4F5" stop-opacity="0"/>
</linearGradient>
</defs>
</svg>
