<svg width="247" height="31" viewBox="0 0 247 31" fill="none" xmlns="http://www.w3.org/2000/svg">
<path d="M8.57897 3.17122C8.57482 1.97562 9.6438 1.22215 10.6318 0.800781C10.9743 0.800781 11.3168 0.802857 11.6593 0.809084C12.4709 1.20347 13.3551 1.70163 13.6063 2.64192C14.1273 4.14472 12.8175 5.82188 11.2628 5.81358C9.82646 5.94643 8.39216 4.64289 8.57897 3.17122Z" fill="white"/>
<path d="M1.35502 2.00787C2.52779 0.623383 4.99994 0.669048 6.0876 2.13864C6.592 2.78418 6.67087 3.63521 6.6688 4.42605C6.66465 11.8342 6.66465 19.2403 6.6688 26.6464C6.67295 27.4351 6.55879 28.2758 6.05024 28.9109C5.04146 30.1979 2.95538 30.3162 1.69959 29.3323C1.10802 28.8673 0.838176 28.1305 0.667969 27.4227V3.6622C0.79251 3.07893 0.950263 2.46867 1.35502 2.00787Z" fill="white"/>
<path d="M20.2031 1.13634C23.2918 0.517782 26.6503 1.19238 29.1598 3.13316C29.9714 3.76209 30.92 4.53425 30.9075 5.66135C31.0175 7.23265 29.3549 8.51958 27.8562 8.18332C26.8993 8.05047 26.3202 7.20982 25.5481 6.73033C24.1532 5.85232 22.3681 5.60116 20.7947 6.10763C19.0304 6.62032 17.5504 8.08161 17.0938 9.87086C16.5479 11.8158 17.3055 14.0305 18.8996 15.2614C19.6178 15.8426 20.6287 16.1644 20.9836 17.1005C21.6603 18.4933 20.6266 20.2514 19.1321 20.4818C17.9655 20.7433 16.9132 20.0355 16.0123 19.39C13.4364 17.5488 11.7572 14.4644 11.7717 11.2803C11.7053 8.23314 13.1832 5.23376 15.5536 3.33865C16.8966 2.24268 18.5094 1.49336 20.2031 1.13634Z" fill="white"/>
<path d="M38.0038 1.27998C39.4173 0.599151 41.1485 1.31111 42.0182 2.52747C45.7482 7.51121 49.4907 12.4866 53.2248 17.4683C53.696 18.091 54.1444 18.7345 54.6612 19.3198C54.5761 14.5665 54.6384 9.81108 54.6093 5.05566C54.6239 4.06141 54.5865 2.95091 55.2362 2.12686C56.3571 0.626135 58.9392 0.630286 60.0559 2.13516C60.5043 2.72466 60.6537 3.48437 60.6371 4.21086C60.6309 11.756 60.6351 19.3012 60.6351 26.8463C60.6475 27.525 60.5022 28.2204 60.1099 28.785C59.5599 29.6257 58.5096 30.0159 57.534 29.9785C56.5024 29.8394 55.5392 29.2603 54.9269 28.4176C50.7361 22.8942 46.5473 17.3708 42.3482 11.8556C42.342 16.8539 42.3482 21.8522 42.3461 26.8525C42.371 27.8634 41.9663 28.9469 41.08 29.5011C39.8553 30.2567 38.0577 30.1487 37.0759 29.0403C36.4823 28.3968 36.3162 27.4918 36.3204 26.645C36.3287 19.1725 36.3225 11.6979 36.3225 4.22331C36.283 3.03602 36.8518 1.74909 38.0038 1.27998Z" fill="white"/>
<path d="M23.9705 10.5523C24.6222 10.2949 25.3674 10.3447 25.9901 10.652C28.7549 12.0115 30.8638 14.6601 31.4969 17.6823C32.0096 20.0818 31.5945 22.664 30.3449 24.775C28.7093 27.5938 25.6954 29.5345 22.4677 29.9268C19.1133 30.3959 15.5307 29.2419 13.1789 26.7822C12.5251 26.0951 12.3819 25.0012 12.7949 24.1564C13.2931 23.1289 14.5053 22.5374 15.6262 22.7636C16.7657 22.9214 17.376 24.0443 18.3931 24.4678C20.8403 25.7692 24.1822 24.9535 25.6891 22.6079C27.0653 20.6153 26.7477 17.6844 24.9793 16.0321C24.2175 15.1915 22.8932 14.9217 22.4677 13.7779C21.9031 12.5242 22.6856 10.9612 23.9705 10.5523Z" fill="white"/>
<path d="M30.0871 26.3723C31.372 25.3428 33.5203 25.9011 34.0911 27.46C34.7097 28.9171 33.5639 30.5714 32.0611 30.7894H31.3595C30.7597 30.6648 30.1494 30.4365 29.7384 29.9612C28.7483 28.9628 28.9372 27.1652 30.0871 26.3723Z" fill="white"/>
<path d="M143.054 8.36923C144.32 8.08486 145.842 8.03297 146.9 8.90476C147.675 9.56068 147.834 10.6214 147.928 11.5741C147.417 11.5762 146.909 11.5762 146.4 11.572C146.323 10.9991 146.309 10.3515 145.873 9.91355C145.327 9.3199 144.412 9.36764 143.691 9.52539C142.236 9.93015 142.081 12.1636 143.231 12.9918C144.268 13.7453 145.613 13.8408 146.72 14.4655C148.524 15.3809 148.619 18.0005 147.542 19.5012C146.842 20.4186 145.647 20.8151 144.528 20.8068C143.48 20.8358 142.299 20.649 141.576 19.8125C140.844 18.9823 140.8 17.8136 140.715 16.7675C141.228 16.7613 141.74 16.7592 142.255 16.7592C142.263 17.6891 142.311 18.8992 143.297 19.3455C144.163 19.6901 145.313 19.7067 146.016 19.0113C146.913 18.1686 146.888 16.506 145.858 15.7795C144.534 14.8516 142.668 14.8807 141.564 13.6021C140.254 11.956 140.902 8.95043 143.054 8.36923Z" fill="white"/>
<path d="M72.9766 8.42622C73.481 8.42415 73.9854 8.42207 74.4918 8.42622C74.4731 12.4759 74.4856 16.5256 74.4835 20.5753C73.9833 20.5711 73.483 20.5711 72.9828 20.5711C72.9828 16.5235 72.9952 12.4738 72.9766 8.42622Z" fill="white"/>
<path d="M194.77 8.4281C195.425 8.42187 196.081 8.4198 196.739 8.4281C198.078 11.7824 199.349 15.1679 200.766 18.489C200.799 15.1347 200.783 11.7803 200.772 8.42603C201.279 8.42188 201.785 8.42188 202.296 8.42188C202.288 12.4716 202.292 16.5212 202.294 20.5709C201.596 20.5688 200.899 20.5709 200.206 20.5668C198.894 17.3141 197.644 14.0325 196.306 10.7923C196.252 14.0532 196.299 17.3141 196.283 20.5751C195.778 20.5709 195.276 20.5688 194.776 20.5668C194.78 16.5212 194.792 12.4736 194.77 8.4281Z" fill="white"/>
<path d="M239.756 8.42727C240.24 8.42312 240.726 8.42312 241.213 8.42519C241.186 10.8455 241.209 13.2657 241.199 15.686C242.301 14.2911 243.366 12.8672 244.437 11.4474C245.012 11.4412 245.589 11.4391 246.166 11.4391C245.201 12.56 244.312 13.7493 243.347 14.8723C244.437 16.7716 245.518 18.6791 246.616 20.5742C246.041 20.5721 245.469 20.5701 244.898 20.5555C244.09 19.0527 243.225 17.5832 242.405 16.0887C241.981 16.5557 241.587 17.0435 241.199 17.5375C241.203 18.5504 241.199 19.5634 241.203 20.5763C240.717 20.5721 240.234 20.5638 239.75 20.5493C239.765 16.51 239.754 12.4686 239.756 8.42727Z" fill="white"/>
<path d="M118.266 8.42273C118.751 8.42066 119.237 8.42273 119.725 8.42481C119.719 8.97487 119.717 9.527 119.712 10.0771C119.231 10.0771 118.751 10.0771 118.274 10.0771C118.27 9.52493 118.268 8.97279 118.266 8.42273Z" fill="white"/>
<path d="M114.24 8.76172C114.698 8.76172 115.161 8.76379 115.622 8.76172C115.635 9.65427 115.628 10.5447 115.628 11.4352C116.166 11.4414 116.704 11.4435 117.243 11.4435C117.239 11.8234 117.237 12.2032 117.237 12.5851C116.699 12.5831 116.164 12.5831 115.628 12.5872C115.657 14.6442 115.579 16.7054 115.666 18.7583C115.705 19.5595 116.65 19.4681 117.222 19.4287C117.22 19.8106 117.22 20.1946 117.222 20.5786C116.432 20.6824 115.564 20.8132 114.825 20.4313C114.171 20.0493 114.215 19.2045 114.186 18.5486C114.227 16.5622 114.238 14.5757 114.215 12.5872C113.762 12.5831 113.312 12.5831 112.864 12.5831C112.861 12.2032 112.859 11.8254 112.859 11.4456C113.316 11.4435 113.775 11.4373 114.236 11.429C114.18 10.5406 114.165 9.65012 114.24 8.76172Z" fill="white"/>
<path d="M186.154 8.76172C186.63 8.76172 187.107 8.76172 187.584 8.76172C187.595 9.65427 187.591 10.5468 187.584 11.4394C188.12 11.4414 188.658 11.4414 189.197 11.4435C189.193 11.8234 189.191 12.2053 189.193 12.5851C188.66 12.5831 188.126 12.581 187.595 12.5748C187.603 14.6318 187.555 16.6909 187.616 18.7479C187.643 19.5595 188.61 19.4661 189.174 19.437C189.174 19.8127 189.179 20.1863 189.185 20.562C188.369 20.6928 187.447 20.834 186.706 20.3773C186.177 20.0265 186.158 19.3208 186.148 18.752C186.15 16.6929 186.15 14.6339 186.152 12.5748C185.714 12.5789 185.274 12.5831 184.842 12.5872C184.836 12.2053 184.834 11.8254 184.832 11.4456C185.27 11.4414 185.714 11.4394 186.158 11.4373C186.148 10.5447 186.146 9.65219 186.154 8.76172Z" fill="white"/>
<path d="M211.899 8.75977C212.374 8.76184 212.85 8.76184 213.327 8.75977C213.335 9.65231 213.333 10.5469 213.327 11.4395C213.856 11.4416 214.386 11.4416 214.917 11.4436C214.915 11.8235 214.915 12.2054 214.917 12.5873C214.39 12.5853 213.863 12.5811 213.337 12.5707C213.344 14.634 213.306 16.6993 213.352 18.7605C213.377 19.5658 214.35 19.462 214.907 19.4371C214.907 19.8108 214.911 20.1844 214.917 20.5601C214.145 20.6909 213.302 20.8092 212.569 20.4604C212.005 20.1989 211.889 19.5119 211.895 18.9556C211.893 16.828 211.897 14.7025 211.897 12.5749C211.455 12.579 211.011 12.5832 210.575 12.5873C210.571 12.2054 210.566 11.8256 210.566 11.4457C211.009 11.4416 211.457 11.4395 211.905 11.4353C211.891 10.5449 211.891 9.65231 211.899 8.75977Z" fill="white"/>
<path d="M77.7689 12.4853C78.5161 11.2316 80.2763 10.8144 81.5155 11.572C82.1818 11.9892 82.4081 12.8174 82.4143 13.5605C82.4309 15.8978 82.4122 18.235 82.4226 20.5701C81.941 20.5701 81.4595 20.5681 80.98 20.566C80.9758 18.4342 80.9821 16.3046 80.98 14.1749C80.9924 13.5543 80.8575 12.7489 80.1808 12.5227C79.1056 12.1241 77.8187 13.0291 77.8436 14.1832C77.8187 16.3129 77.8415 18.4426 77.8374 20.5722C77.3537 20.5701 76.8722 20.5681 76.3927 20.5681C76.3927 17.5251 76.3948 14.4842 76.3906 11.4433C76.8577 11.4412 77.3226 11.4412 77.7917 11.4412C77.7813 11.79 77.7751 12.1366 77.7689 12.4853Z" fill="white"/>
<path d="M85.0837 11.6479C86.1776 11.0522 87.6223 11.0149 88.6995 11.6666C89.5132 12.2001 89.644 13.2359 89.6751 14.1263C89.1936 14.1284 88.712 14.1284 88.2304 14.1263C88.1806 13.5244 88.1682 12.7667 87.5455 12.4575C86.9331 12.2644 86.1174 12.2748 85.6773 12.8145C85.3743 13.1694 85.366 13.6801 85.4511 14.1159C85.696 14.7885 86.4682 14.9711 87.0722 15.1891C87.8838 15.4797 88.8199 15.6603 89.3991 16.3556C89.9616 17.0489 89.9512 18.0245 89.7789 18.8568C89.5547 19.8532 88.6622 20.6129 87.6617 20.7519C86.5886 20.8931 85.339 20.8101 84.5295 20.0026C83.9005 19.3675 83.8113 18.4334 83.7656 17.5886C84.2472 17.5844 84.7308 17.5824 85.2145 17.5824C85.2726 18.0618 85.2705 18.5766 85.53 19.0042C86.1298 19.9881 87.8506 19.9092 88.3218 18.8423C88.5273 18.2756 88.4816 17.5512 88.0063 17.1299C86.9145 16.2373 85.1875 16.4117 84.3219 15.1995C83.6515 14.0703 83.8632 12.3205 85.0837 11.6479Z" fill="white"/>
<path d="M92.4565 12.5005C93.0834 10.9935 95.2421 10.8026 96.309 11.9317C97.2742 12.9758 97.3946 14.489 97.4382 15.8403C97.3863 17.26 97.214 18.8064 96.2924 19.9522C95.6801 20.7368 94.5405 21.0295 93.6231 20.6517C93.1207 20.4504 92.8052 19.9937 92.4773 19.591C92.5209 20.9216 92.4939 22.2542 92.5001 23.5868C92.0144 23.5868 91.5308 23.5868 91.0471 23.5888C91.0409 19.5392 91.0492 15.4895 91.043 11.4398C91.5038 11.4419 91.9667 11.4419 92.4295 11.4439C92.4358 11.7947 92.4461 12.1476 92.4565 12.5005ZM93.3511 12.6728C92.5458 13.2394 92.4773 14.3375 92.4378 15.2362C92.442 16.4879 92.3071 17.8765 93.0398 18.9725C93.538 19.7467 94.8622 19.8028 95.3625 19.0036C95.9001 18.1277 95.8607 17.0504 95.9001 16.0603C95.8814 15.0536 95.9292 13.9618 95.4019 13.063C94.9909 12.3697 93.9967 12.2514 93.3511 12.6728Z" fill="white"/>
<path d="M100.267 11.6135C101.527 10.9057 103.424 11.0468 104.277 12.3192C104.999 13.4691 104.954 14.8827 104.975 16.1883C103.366 16.1945 101.757 16.1925 100.151 16.1883C100.188 17.1556 100.111 18.2059 100.651 19.0611C101.143 19.8394 102.432 19.9225 102.994 19.1794C103.362 18.7289 103.374 18.1228 103.482 17.5769C103.968 17.5832 104.454 17.5894 104.941 17.6039C104.809 18.2868 104.68 19.0009 104.271 19.5862C103.175 21.2904 100.151 21.2571 99.2353 19.3911C98.5669 18.0377 98.6229 16.4747 98.6914 15.0072C98.7869 13.7556 99.117 12.3151 100.267 11.6135ZM101.124 12.5309C100.296 13.081 100.207 14.1624 100.184 15.0654C101.282 15.0612 102.378 15.0654 103.474 15.0612C103.428 14.2953 103.463 13.4193 102.93 12.8008C102.504 12.2777 101.685 12.2217 101.124 12.5309Z" fill="white"/>
<path d="M106.807 12.6078C107.621 11.0573 109.869 10.7937 111.233 11.7402C112.025 12.3069 112.266 13.3198 112.326 14.2393C111.847 14.2414 111.37 14.2393 110.89 14.2372C110.813 13.5606 110.666 12.7448 109.966 12.4376C109.4 12.2612 108.665 12.3131 108.298 12.8382C107.679 13.7038 107.685 14.8309 107.644 15.8521C107.654 16.9066 107.594 18.0524 108.142 18.9968C108.538 19.7316 109.628 19.933 110.247 19.3663C110.776 18.864 110.807 18.0897 110.873 17.411C111.359 17.4027 111.845 17.4006 112.333 17.4048C112.254 18.2952 112.079 19.2459 111.442 19.9226C110.575 20.9251 109.016 21.0331 107.86 20.5204C106.591 19.9122 106.245 18.3803 106.166 17.0996C106.106 15.5927 106.068 13.9736 106.807 12.6078Z" fill="white"/>
<path d="M123.589 11.3192C124.704 11.0327 126.063 11.2382 126.827 12.164C127.622 13.1333 127.769 14.4452 127.807 15.6532C127.821 16.9319 127.771 18.2914 127.124 19.431C126.071 21.3593 122.744 21.2867 121.825 19.2691C121.09 17.6833 121.135 15.8442 121.378 14.1484C121.557 12.9175 122.285 11.6056 123.589 11.3192ZM123.855 12.4691C122.802 13.1271 122.794 14.5344 122.759 15.6345C122.788 16.8883 122.628 18.3745 123.564 19.3625C124.382 20.0869 125.733 19.5472 125.984 18.5281C126.443 16.936 126.424 15.1945 126.028 13.5921C125.806 12.658 124.76 12.0436 123.855 12.4691Z" fill="white"/>
<path d="M130.607 12.4798C131.354 11.1949 133.185 10.8109 134.413 11.6163C135.115 12.0854 135.254 13.0008 135.258 13.7812C135.273 16.0458 135.26 18.3104 135.265 20.575C134.781 20.5708 134.301 20.5708 133.82 20.5708C133.824 18.5117 133.82 16.4547 133.824 14.3956C133.812 13.8061 133.828 13.0942 133.313 12.6936C132.608 12.1705 131.539 12.4756 131.034 13.1398C130.704 13.5467 130.671 14.0884 130.675 14.5887C130.686 16.5793 130.669 18.5698 130.686 20.5604C130.2 20.5667 129.716 20.5708 129.233 20.5729C129.235 17.5299 129.237 14.4849 129.23 11.4419C129.693 11.4419 130.158 11.4419 130.623 11.444C130.617 11.7886 130.613 12.1331 130.607 12.4798Z" fill="white"/>
<path d="M158.564 12.5191C159.249 11.01 161.433 10.7692 162.506 11.9815C163.664 13.3182 163.614 15.2299 163.531 16.8925C163.384 18.2999 162.95 19.9729 161.557 20.6329C160.476 21.1311 159.201 20.6101 158.653 19.5909C158.684 20.9215 158.666 22.2541 158.672 23.5846C158.186 23.5867 157.705 23.5867 157.223 23.5867C157.219 19.5391 157.238 15.4914 157.215 11.4438C157.676 11.4418 158.134 11.4418 158.599 11.4438C158.585 11.8009 158.572 12.16 158.564 12.5191ZM159.697 12.5772C159.137 12.8242 158.84 13.422 158.734 13.9969C158.523 15.1427 158.512 16.3238 158.672 17.4779C158.774 18.0964 158.923 18.7731 159.417 19.2049C159.998 19.7695 161.121 19.6968 161.545 18.9682C162.043 18.0923 162.045 17.0441 162.074 16.0643C162.066 15.0639 162.08 13.9928 161.584 13.0919C161.223 12.4443 160.339 12.2617 159.697 12.5772Z" fill="white"/>
<path d="M166.233 12.5265C166.762 11.3745 168.201 10.8597 169.344 11.4118C170.648 11.964 171.09 13.4958 171.19 14.789C171.293 16.4828 171.235 18.3343 170.241 19.7831C169.633 20.6923 168.367 21.0846 167.368 20.6196C166.878 20.4017 166.573 19.9471 166.258 19.5403C166.303 20.8895 166.272 22.2387 166.28 23.5879C165.811 23.5858 165.346 23.5858 164.881 23.5858C164.875 19.5382 164.896 15.4906 164.871 11.443C165.332 11.4409 165.793 11.4409 166.258 11.4409C166.245 11.8042 166.237 12.1653 166.233 12.5265ZM167.374 12.5659C166.874 12.7756 166.567 13.2737 166.436 13.7802C166.183 14.7911 166.212 15.8435 166.254 16.8751C166.326 17.6555 166.428 18.5149 166.98 19.1189C167.549 19.7769 168.794 19.7375 169.218 18.9321C169.676 18.1309 169.691 17.1677 169.726 16.269C169.722 15.2104 169.772 14.0687 169.245 13.1118C168.892 12.4622 168.022 12.2567 167.374 12.5659Z" fill="white"/>
<path d="M174.646 11.3279C175.711 11.0456 176.988 11.2075 177.791 12.017C178.684 12.9843 178.852 14.3688 178.891 15.6287C178.904 16.9115 178.866 18.2752 178.219 19.4189C177.164 21.3742 173.795 21.285 172.892 19.2363C172.187 17.6691 172.222 15.8716 172.454 14.2006C172.631 12.9656 173.337 11.6268 174.646 11.3279ZM175.086 12.4135C174.096 12.8286 173.92 14.0595 173.862 15.006C173.851 16.3386 173.683 17.7937 174.36 19.0038C174.808 19.8507 176.122 19.9212 176.701 19.1761C177.31 18.4184 177.341 17.3847 177.384 16.4569C177.378 15.3007 177.453 14.0387 176.834 13.0113C176.485 12.4114 175.722 12.2308 175.086 12.4135Z" fill="white"/>
<path d="M181.507 12.7075C181.866 12.2238 182.138 11.6094 182.725 11.3603C183.147 11.1341 183.633 11.2192 184.089 11.24C184.093 11.7215 184.095 12.201 184.104 12.6826C182.991 12.421 181.723 13.0666 181.528 14.2456C181.397 16.342 181.571 18.453 181.445 20.5494C180.976 20.5847 180.505 20.5723 180.037 20.5743C180.037 17.5293 180.052 14.4863 180.031 11.4434C180.513 11.4413 180.996 11.4413 181.482 11.4434C181.482 11.8502 181.474 12.255 181.486 12.6618L181.152 12.8382C181.285 12.8382 181.441 12.8569 181.507 12.7075Z" fill="white"/>
<path d="M205.505 11.4659C206.74 10.947 208.456 11.1338 209.237 12.3315C209.971 13.4711 209.859 14.8846 209.944 16.1798C208.317 16.2068 206.692 16.1798 205.067 16.1964C205.131 17.1097 205.075 18.0957 205.523 18.9281C205.936 19.7272 207.117 19.9534 207.79 19.3556C208.276 18.9011 208.35 18.2057 208.427 17.5851C208.909 17.5851 209.392 17.5851 209.878 17.5934C209.77 18.5129 209.486 19.476 208.763 20.107C207.95 20.8584 206.723 20.9456 205.696 20.6716C204.722 20.3914 204.079 19.476 203.852 18.5274C203.51 17.1035 203.524 15.6049 203.744 14.1643C203.913 13.0808 204.442 11.9247 205.505 11.4659ZM205.689 12.8857C205.187 13.4939 205.172 14.3159 205.148 15.0631C206.233 15.0631 207.321 15.061 208.411 15.0652C208.388 14.3574 208.415 13.5914 208.018 12.9729C207.547 12.1613 206.225 12.1302 205.689 12.8857Z" fill="white"/>
<path d="M229.036 11.3337C230.284 10.9787 231.867 11.3005 232.563 12.4878C233.387 13.8639 233.333 15.5473 233.26 17.0958C233.173 18.4284 232.708 19.9789 231.38 20.5601C230.078 21.0728 228.308 20.8632 227.51 19.5949C226.616 18.171 226.703 16.3963 226.79 14.7855C226.879 13.3741 227.51 11.699 229.036 11.3337ZM229.482 12.4172C228.955 12.5978 228.658 13.1291 228.496 13.6273C228.2 14.6174 228.237 15.6636 228.252 16.6827C228.287 17.5545 228.351 18.5197 228.932 19.2213C229.499 19.9291 230.711 19.8108 231.197 19.0656C231.826 18.1253 231.778 16.9297 231.797 15.8442C231.772 14.8333 231.77 13.7145 231.141 12.8676C230.765 12.3549 230.057 12.2636 229.482 12.4172Z" fill="white"/>
<path d="M237.396 11.3815C237.826 11.1387 238.335 11.2155 238.808 11.23C238.812 11.7136 238.814 12.1973 238.824 12.6788C238.287 12.6622 237.704 12.573 237.226 12.8802C236.539 13.258 236.153 14.0426 236.178 14.8126C236.174 16.7327 236.178 18.6506 236.182 20.5706C235.692 20.5706 235.207 20.5706 234.723 20.5706C234.721 17.5277 234.727 14.4847 234.719 11.4417C235.207 11.4417 235.694 11.4417 236.188 11.4438C236.176 11.8818 236.168 12.3218 236.168 12.7619C236.52 12.2616 236.811 11.6555 237.396 11.3815Z" fill="white"/>
<path d="M118.266 11.4458C118.747 11.4417 119.231 11.4396 119.714 11.4375C119.721 14.4805 119.712 17.5255 119.719 20.5706C119.235 20.5706 118.751 20.5706 118.27 20.5706C118.27 17.5297 118.276 14.4867 118.266 11.4458Z" fill="white"/>
<path d="M149.328 11.4435C149.812 11.4414 150.297 11.4414 150.783 11.4414C150.785 13.679 150.767 15.9145 150.789 18.15C150.74 18.8267 151.223 19.6093 151.97 19.5594C152.927 19.6902 153.87 18.8994 153.901 17.9321C153.936 15.7713 153.915 13.6064 153.907 11.4435C154.391 11.4414 154.876 11.4414 155.364 11.4414C155.358 14.4844 155.36 17.5253 155.362 20.5662C154.899 20.5682 154.436 20.5703 153.978 20.5765C153.982 20.2382 153.988 19.8999 153.996 19.5636C153.197 20.8173 151.379 21.2138 150.144 20.3876C149.502 19.931 149.332 19.0966 149.341 18.3535C149.326 16.0515 149.353 13.7475 149.328 11.4435Z" fill="white"/>
<path d="M215.336 11.4436C215.84 11.4415 216.347 11.4415 216.855 11.4436C217.383 13.9303 217.796 16.4419 218.366 18.9203C218.852 16.4232 219.39 13.9386 219.898 11.4457C220.461 11.4415 221.025 11.4415 221.594 11.4415C222.126 13.9282 222.584 16.4294 223.145 18.9099C223.624 16.4232 224.075 13.9282 224.558 11.4395C225.065 11.4415 225.573 11.4415 226.084 11.4436C225.328 14.4783 224.633 17.5295 223.904 20.5704C223.371 20.5704 222.84 20.5684 222.31 20.5642C221.793 18.0734 221.256 15.5846 220.708 13.1C220.172 15.5846 219.689 18.0837 219.164 20.5725C218.603 20.5684 218.045 20.5704 217.488 20.5767C216.76 17.5358 216.075 14.4824 215.336 11.4436Z" fill="white"/>
</svg>
