<svg width="500" height="60" viewBox="0 0 500 60" fill="none" xmlns="http://www.w3.org/2000/svg">
<path d="M19.822 4.76237C19.8137 2.37117 21.9517 0.864216 23.9277 0.0214844C24.6127 0.0214844 25.2977 0.0256357 25.9827 0.0380899C27.6059 0.826853 29.3743 1.82319 29.8767 3.70376C30.9187 6.70937 28.2991 10.0637 25.1897 10.0471C22.317 10.3128 19.4484 7.7057 19.822 4.76237Z" fill="#008EFF"/>
<path d="M5.37411 2.43762C7.71964 -0.331359 12.6639 -0.240028 14.8393 2.69915C15.8481 3.99024 16.0058 5.6923 16.0017 7.27398C15.9934 22.0903 15.9934 36.9024 16.0017 51.7146C16.01 53.2921 15.7816 54.9734 14.7645 56.2438C12.747 58.8176 8.57483 59.0542 6.06324 57.0865C4.88009 56.1566 4.34041 54.6828 4 53.2672V5.74627C4.24908 4.57973 4.56459 3.35922 5.37411 2.43762Z" fill="#008EFF"/>
<path d="M43.0704 0.6926C49.2476 -0.544513 55.9646 0.804687 60.9836 4.68623C62.6068 5.9441 64.504 7.48842 64.4791 9.74262C64.6991 12.8852 61.3738 15.4591 58.3765 14.7866C56.4627 14.5209 55.3045 12.8396 53.7602 11.8806C50.9704 10.1246 47.4003 9.62223 44.2535 10.6352C40.7248 11.6606 37.7649 14.5831 36.8516 18.1616C35.7598 22.0515 37.275 26.481 40.4633 28.9428C41.8997 30.1052 43.9214 30.7486 44.6313 32.6209C45.9846 35.4065 43.9172 38.9227 40.9282 39.3835C38.5952 39.9066 36.4904 38.491 34.6887 37.1999C29.5368 33.5176 26.1784 27.3487 26.2074 20.9804C26.0746 14.8862 29.0304 8.88744 33.7713 5.09722C36.4572 2.90529 39.6828 1.40664 43.0704 0.6926Z" fill="#008EFF"/>
<path d="M78.6716 0.979879C81.4987 -0.381776 84.961 1.04215 86.7004 3.47486C94.1604 13.4423 101.645 23.3932 109.114 33.3565C110.056 34.602 110.953 35.8889 111.986 37.0596C111.816 27.5529 111.941 18.0421 111.883 8.53125C111.912 6.54274 111.837 4.32175 113.136 2.67364C115.378 -0.327808 120.543 -0.319506 122.776 2.69025C123.673 3.86924 123.972 5.38865 123.938 6.84164C123.926 21.9319 123.934 37.0222 123.934 52.1125C123.959 53.47 123.668 54.8607 122.884 55.9899C121.784 57.6712 119.683 58.4517 117.732 58.377C115.669 58.0988 113.743 56.9406 112.518 55.2551C104.136 44.2083 95.7587 33.1614 87.3605 22.1312C87.348 32.1277 87.3605 42.1243 87.3563 52.125C87.4061 54.1467 86.5966 56.3137 84.824 57.4221C82.3747 58.9332 78.7795 58.7174 76.8159 56.5005C75.6286 55.2136 75.2965 53.4036 75.3048 51.7098C75.3214 36.7648 75.309 21.8157 75.309 6.86655C75.2301 4.49195 76.3676 1.91809 78.6716 0.979879Z" fill="#008EFF"/>
<path d="M50.605 19.5246C51.9085 19.0098 53.3989 19.1094 54.6443 19.7238C60.1739 22.443 64.3917 27.7401 65.6579 33.7846C66.6833 38.5836 65.853 43.7479 63.3539 47.9699C60.0826 53.6074 54.0548 57.489 47.5994 58.2736C40.8907 59.2118 33.7254 56.9036 29.0219 51.9842C27.7142 50.6101 27.4278 48.4224 28.2539 46.7327C29.2503 44.6778 31.6747 43.4947 33.9164 43.9472C36.1955 44.2627 37.416 46.5086 39.4502 47.3555C44.3447 49.9584 51.0284 48.3269 54.0423 43.6358C56.7947 39.6505 56.1595 33.7887 52.6226 30.4842C51.099 28.8029 48.4504 28.2632 47.5994 25.9758C46.4702 23.4684 48.0353 20.3424 50.605 19.5246Z" fill="#008EFF"/>
<path d="M62.8305 51.1665C65.4002 49.1074 69.6969 50.2241 70.8385 53.3418C72.0757 56.2561 69.7841 59.5648 66.7785 60.0007H65.3753C64.1756 59.7516 62.9551 59.2949 62.1331 58.3443C60.1529 56.3474 60.5307 52.7523 62.8305 51.1665Z" fill="#008EFF"/>
<path d="M288.78 15.1584C291.313 14.5896 294.355 14.4859 296.473 16.2294C298.021 17.5413 298.341 19.6626 298.528 21.5681C297.506 21.5723 296.489 21.5723 295.472 21.564C295.319 20.4182 295.29 19.123 294.418 18.247C293.326 17.0597 291.495 17.1552 290.055 17.4707C287.145 18.2802 286.833 22.7471 289.133 24.4035C291.209 25.9105 293.899 26.1014 296.112 27.351C299.719 29.1818 299.91 34.4208 297.755 37.4223C296.356 39.2572 293.965 40.0501 291.728 40.0335C289.631 40.0916 287.269 39.718 285.824 38.045C284.359 36.3844 284.272 34.0472 284.102 31.9549C285.127 31.9424 286.152 31.9383 287.182 31.9383C287.198 33.7981 287.294 36.2184 289.266 37.1109C290.997 37.8001 293.297 37.8333 294.704 36.4425C296.498 34.7571 296.448 31.4318 294.389 29.9788C291.74 28.1232 288.008 28.1813 285.799 25.624C283.18 22.332 284.475 16.3208 288.78 15.1584Z" fill="#008EFF"/>
<path d="M148.625 15.2704C149.634 15.2663 150.643 15.2621 151.656 15.2704C151.618 23.3698 151.643 31.4691 151.639 39.5685C150.638 39.5602 149.638 39.5602 148.637 39.5602C148.637 31.465 148.662 23.3656 148.625 15.2704Z" fill="#008EFF"/>
<path d="M392.203 15.2742C393.515 15.2617 394.827 15.2576 396.143 15.2742C398.82 21.9828 401.361 28.7537 404.196 35.3959C404.263 28.6873 404.23 21.9787 404.209 15.27C405.222 15.2617 406.235 15.2617 407.256 15.2617C407.239 23.3611 407.248 31.4604 407.252 39.5598C405.857 39.5556 404.462 39.5598 403.076 39.5515C400.452 33.0463 397.953 26.4829 395.275 20.0026C395.167 26.5244 395.263 33.0463 395.229 39.5681C394.221 39.5598 393.216 39.5556 392.216 39.5515C392.224 31.4604 392.249 23.3652 392.203 15.2742Z" fill="#008EFF"/>
<path d="M482.177 15.2745C483.144 15.2662 484.115 15.2662 485.091 15.2703C485.037 20.1108 485.083 24.9513 485.062 29.7919C487.266 27.0021 489.396 24.1543 491.538 21.3147C492.688 21.3023 493.842 21.2981 494.996 21.2981C493.066 23.5399 491.289 25.9186 489.358 28.1645C491.538 31.963 493.701 35.7782 495.897 39.5684C494.747 39.5642 493.601 39.5601 492.46 39.531C490.845 36.5254 489.114 33.5862 487.474 30.5972C486.627 31.5313 485.838 32.5069 485.062 33.4949C485.07 35.5208 485.062 37.5466 485.07 39.5725C484.099 39.5642 483.131 39.5476 482.164 39.5186C482.193 31.44 482.172 23.3572 482.177 15.2745Z" fill="#008EFF"/>
<path d="M239.203 15.2654C240.175 15.2612 241.146 15.2654 242.122 15.2695C242.109 16.3697 242.105 17.4739 242.097 18.574C241.134 18.574 240.175 18.574 239.22 18.574C239.211 17.4698 239.207 16.3655 239.203 15.2654Z" fill="#008EFF"/>
<path d="M231.151 15.9434C232.069 15.9434 232.995 15.9475 233.916 15.9434C233.941 17.7285 233.929 19.5094 233.929 21.2903C235.004 21.3028 236.079 21.307 237.158 21.307C237.15 22.0667 237.146 22.8264 237.146 23.5902C236.071 23.5861 235 23.5861 233.929 23.5944C233.987 27.7084 233.829 31.8307 234.003 35.9364C234.082 37.5389 235.971 37.3562 237.117 37.2773C237.113 38.0412 237.113 38.8092 237.117 39.5772C235.535 39.7848 233.8 40.0463 232.322 39.2825C231.014 38.5186 231.101 36.829 231.043 35.5171C231.126 31.5443 231.147 27.5714 231.101 23.5944C230.196 23.5861 229.296 23.5861 228.399 23.5861C228.395 22.8264 228.391 22.0708 228.391 21.3111C229.304 21.307 230.221 21.2945 231.143 21.2779C231.031 19.5011 231.002 17.7202 231.151 15.9434Z" fill="#008EFF"/>
<path d="M374.973 15.9434C375.923 15.9434 376.878 15.9434 377.833 15.9434C377.854 17.7285 377.845 19.5136 377.833 21.2986C378.904 21.3028 379.979 21.3028 381.059 21.307C381.05 22.0667 381.046 22.8305 381.05 23.5902C379.983 23.5861 378.916 23.5819 377.854 23.5695C377.87 27.6835 377.775 31.8017 377.895 35.9157C377.949 37.5389 379.884 37.3521 381.013 37.2939C381.013 38.0453 381.021 38.7926 381.034 39.544C379.402 39.8055 377.559 40.0878 376.077 39.1745C375.018 38.4729 374.981 37.0615 374.96 35.924C374.964 31.8058 374.964 27.6876 374.968 23.5695C374.092 23.5778 373.212 23.5861 372.349 23.5944C372.336 22.8305 372.332 22.0708 372.328 21.3111C373.204 21.3028 374.092 21.2986 374.981 21.2945C374.96 19.5094 374.956 17.7243 374.973 15.9434Z" fill="#008EFF"/>
<path d="M426.462 15.9375C427.413 15.9417 428.363 15.9417 429.318 15.9375C429.335 17.7226 429.331 19.5118 429.318 21.2969C430.377 21.3011 431.435 21.3011 432.498 21.3052C432.494 22.0649 432.494 22.8288 432.498 23.5927C431.444 23.5885 430.389 23.5802 429.339 23.5594C429.351 27.6859 429.277 31.8166 429.368 35.9389C429.418 37.5496 431.365 37.3421 432.477 37.2922C432.477 38.0395 432.486 38.7867 432.498 39.5381C430.954 39.7997 429.268 40.0363 427.803 39.3389C426.674 38.8158 426.441 37.4417 426.454 36.3291C426.45 32.0739 426.458 27.8229 426.458 23.5677C425.574 23.5761 424.685 23.5844 423.813 23.5927C423.805 22.8288 423.797 22.0691 423.797 21.3094C424.681 21.3011 425.578 21.2969 426.475 21.2886C426.445 19.5077 426.445 17.7226 426.462 15.9375Z" fill="#008EFF"/>
<path d="M158.21 23.3905C159.704 20.8831 163.225 20.0487 165.703 21.5639C167.035 22.3984 167.488 24.0548 167.5 25.541C167.534 30.2154 167.496 34.8899 167.517 39.5602C166.554 39.5602 165.591 39.556 164.632 39.5519C164.624 35.2884 164.636 31.0291 164.632 26.7698C164.657 25.5285 164.387 23.9178 163.034 23.4653C160.883 22.6682 158.309 24.4782 158.359 26.7864C158.309 31.0457 158.355 35.305 158.347 39.5643C157.379 39.5602 156.416 39.556 155.457 39.556C155.457 33.4701 155.461 27.3883 155.453 21.3065C156.387 21.3024 157.317 21.3024 158.255 21.3024C158.235 21.9998 158.222 22.6931 158.21 23.3905Z" fill="#008EFF"/>
<path d="M172.831 21.7178C175.019 20.5263 177.909 20.4516 180.063 21.7551C181.69 22.822 181.952 24.8936 182.014 26.6745C181.051 26.6787 180.088 26.6787 179.125 26.6745C179.025 25.4706 179 23.9554 177.755 23.3368C176.53 22.9507 174.899 22.9715 174.019 24.0509C173.413 24.7607 173.396 25.782 173.566 26.6538C174.056 27.9988 175.6 28.3641 176.808 28.8C178.432 29.3812 180.304 29.7424 181.462 31.1331C182.587 32.5197 182.566 34.4708 182.222 36.1355C181.774 38.1282 179.988 39.6476 177.987 39.9258C175.841 40.2081 173.342 40.042 171.723 38.4271C170.465 37.1568 170.287 35.2887 170.195 33.599C171.158 33.5907 172.126 33.5866 173.093 33.5866C173.209 34.5456 173.205 35.5751 173.724 36.4303C174.924 38.398 178.365 38.2403 179.308 36.1065C179.719 34.9732 179.627 33.5243 178.677 32.6816C176.493 30.8965 173.039 31.2452 171.308 28.8208C169.967 26.5624 170.39 23.0628 172.831 21.7178Z" fill="#008EFF"/>
<path d="M187.585 23.4189C188.839 20.405 193.156 20.0231 195.29 22.2814C197.22 24.3696 197.461 27.3959 197.548 30.0985C197.444 32.938 197.1 36.0308 195.257 38.3224C194.032 39.8916 191.753 40.477 189.918 39.7214C188.913 39.3187 188.282 38.4054 187.626 37.6001C187.714 40.2611 187.66 42.9263 187.672 45.5915C186.701 45.5915 185.733 45.5915 184.766 45.5956C184.754 37.4963 184.77 29.3969 184.758 21.2976C185.679 21.3017 186.605 21.3017 187.531 21.3059C187.543 22.0074 187.564 22.7132 187.585 23.4189ZM189.374 23.7635C187.763 24.8968 187.626 27.0929 187.548 28.8904C187.556 31.3937 187.286 34.171 188.751 36.3629C189.748 37.9114 192.396 38.0235 193.397 36.4252C194.472 34.6733 194.393 32.5188 194.472 30.5385C194.435 28.5251 194.53 26.3415 193.476 24.5439C192.654 23.1574 190.665 22.9208 189.374 23.7635Z" fill="#008EFF"/>
<path d="M203.206 21.6469C205.726 20.2312 209.52 20.5135 211.226 23.0583C212.671 25.3582 212.579 28.1853 212.621 30.7965C209.404 30.809 206.186 30.8048 202.973 30.7965C203.048 32.7311 202.894 34.8317 203.974 36.542C204.958 38.0988 207.536 38.2649 208.661 36.7787C209.395 35.8778 209.42 34.6656 209.636 33.5738C210.608 33.5863 211.579 33.5987 212.555 33.6278C212.289 34.9936 212.032 36.4217 211.214 37.5923C209.022 41.0006 202.973 40.9342 201.142 37.2021C199.806 34.4954 199.918 31.3694 200.055 28.4344C200.246 25.9311 200.906 23.05 203.206 21.6469ZM204.92 23.4818C203.264 24.5819 203.085 26.7448 203.04 28.5506C205.236 28.5423 207.428 28.5506 209.62 28.5423C209.528 27.0105 209.599 25.2586 208.532 24.0215C207.681 22.9753 206.041 22.8632 204.92 23.4818Z" fill="#008EFF"/>
<path d="M216.278 23.6356C217.906 20.5345 222.402 20.0073 225.129 21.9003C226.715 23.0336 227.197 25.0595 227.317 26.8986C226.358 26.9027 225.403 26.8986 224.444 26.8944C224.291 25.5411 223.996 23.9096 222.597 23.2952C221.464 22.9423 219.994 23.0461 219.259 24.0964C218.022 25.8275 218.035 28.0817 217.951 30.1242C217.972 32.2331 217.852 34.5247 218.948 36.4135C219.741 37.8831 221.92 38.2858 223.157 37.1525C224.216 36.1479 224.278 34.5994 224.411 33.2419C225.382 33.2253 226.354 33.2211 227.329 33.2294C227.172 35.0104 226.823 36.9117 225.549 38.2651C223.813 40.2702 220.696 40.4861 218.383 39.4607C215.847 38.2443 215.153 35.1806 214.996 32.6192C214.875 29.6053 214.801 26.3672 216.278 23.6356Z" fill="#008EFF"/>
<path d="M249.842 21.0563C252.071 20.4834 254.79 20.8944 256.318 22.7459C257.908 24.6846 258.203 27.3083 258.278 29.7244C258.307 32.2817 258.207 35.0008 256.912 37.28C254.807 41.1366 248.152 40.9913 246.313 36.9561C244.844 33.7845 244.935 30.1064 245.421 26.7147C245.778 24.2529 247.235 21.6292 249.842 21.0563ZM250.373 23.3562C248.269 24.6722 248.252 27.4868 248.181 29.6871C248.239 32.1945 247.92 35.1669 249.792 37.143C251.428 38.5918 254.13 37.5124 254.633 35.4741C255.55 32.29 255.513 28.807 254.72 25.6021C254.276 23.734 252.183 22.5052 250.373 23.3562Z" fill="#008EFF"/>
<path d="M263.877 23.3775C265.372 20.8078 269.033 20.0398 271.491 21.6505C272.894 22.5887 273.172 24.4195 273.181 25.9804C273.21 30.5096 273.185 35.0387 273.193 39.5679C272.226 39.5596 271.267 39.5596 270.304 39.5596C270.312 35.4414 270.304 31.3274 270.312 27.2092C270.287 26.0302 270.32 24.6063 269.291 23.8051C267.879 22.7589 265.741 23.3692 264.733 24.6976C264.072 25.5113 264.006 26.5948 264.014 27.5953C264.035 31.5765 264.002 35.5577 264.035 39.5388C263.064 39.5513 262.096 39.5596 261.129 39.5637C261.133 33.4778 261.137 27.3877 261.125 21.3018C262.051 21.3018 262.981 21.3018 263.911 21.3059C263.898 21.9951 263.89 22.6842 263.877 23.3775Z" fill="#008EFF"/>
<path d="M319.792 23.4561C321.162 20.438 325.529 19.9565 327.676 22.3809C329.992 25.0544 329.892 28.8778 329.726 32.2031C329.432 35.0177 328.564 38.3637 325.778 39.6839C323.616 40.6802 321.067 39.6382 319.971 37.5999C320.033 40.2609 319.996 42.9261 320.008 45.5871C319.037 45.5913 318.073 45.5913 317.11 45.5913C317.102 37.4961 317.139 29.4009 317.094 21.3057C318.015 21.3015 318.933 21.3015 319.863 21.3057C319.834 22.0197 319.809 22.7379 319.792 23.4561ZM322.059 23.5723C320.938 24.0663 320.344 25.2619 320.133 26.4119C319.709 28.7034 319.688 31.0656 320.008 33.3737C320.211 34.6109 320.51 35.9642 321.498 36.8277C322.661 37.9569 324.907 37.8116 325.754 36.3544C326.75 34.6026 326.754 32.5061 326.812 30.5467C326.796 28.5457 326.825 26.4036 325.832 24.6019C325.11 23.3066 323.342 22.9413 322.059 23.5723Z" fill="#008EFF"/>
<path d="M335.13 23.4729C336.188 21.1689 339.065 20.1394 341.352 21.2436C343.96 22.3479 344.844 25.4116 345.043 27.9979C345.251 31.3855 345.134 35.0885 343.146 37.9862C341.93 39.8045 339.397 40.5891 337.4 39.6592C336.421 39.2233 335.81 38.3141 335.179 37.5005C335.271 40.1989 335.208 42.8973 335.225 45.5957C334.287 45.5915 333.357 45.5915 332.427 45.5915C332.415 37.4963 332.456 29.4011 332.406 21.3059C333.328 21.3017 334.249 21.3017 335.179 21.3017C335.154 22.0282 335.138 22.7506 335.13 23.4729ZM337.413 23.5518C336.412 23.9711 335.798 24.9674 335.536 25.9804C335.03 28.0021 335.088 30.1068 335.171 32.1701C335.316 33.731 335.52 35.4497 336.624 36.6577C337.762 37.9737 340.252 37.8948 341.099 36.2841C342.017 34.6817 342.046 32.7554 342.116 30.9579C342.108 28.8407 342.208 26.5574 341.153 24.6436C340.447 23.3442 338.708 22.9332 337.413 23.5518Z" fill="#008EFF"/>
<path d="M351.965 21.0737C354.094 20.5091 356.647 20.8329 358.254 22.452C360.039 24.3865 360.375 27.1555 360.454 29.6754C360.479 32.2409 360.404 34.9684 359.109 37.2558C357 41.1664 350.263 40.9879 348.457 36.8905C347.045 33.7562 347.116 30.1611 347.581 26.8192C347.934 24.3491 349.345 21.6715 351.965 21.0737ZM352.845 23.2449C350.865 24.0752 350.512 26.5369 350.395 28.43C350.375 31.0951 350.038 34.0053 351.392 36.4255C352.289 38.1193 354.916 38.2604 356.075 36.7701C357.291 35.2548 357.353 33.1875 357.44 31.3318C357.428 29.0195 357.577 26.4954 356.34 24.4405C355.643 23.2407 354.115 22.8796 352.845 23.2449Z" fill="#008EFF"/>
<path d="M365.686 23.8349C366.404 22.8676 366.948 21.6388 368.123 21.1406C368.966 20.6881 369.937 20.8583 370.85 20.8998C370.859 21.863 370.863 22.8219 370.879 23.785C368.654 23.262 366.118 24.5531 365.728 26.911C365.466 31.1039 365.815 35.3259 365.561 39.5188C364.623 39.5894 363.681 39.5645 362.747 39.5686C362.747 33.4785 362.776 27.3926 362.734 21.3067C363.697 21.3025 364.665 21.3025 365.636 21.3067C365.636 22.1203 365.62 22.9299 365.645 23.7435L364.976 24.0964C365.242 24.0964 365.553 24.1338 365.686 23.8349Z" fill="#008EFF"/>
<path d="M413.673 21.3518C416.143 20.3139 419.576 20.6876 421.137 23.0829C422.607 25.362 422.383 28.1891 422.553 30.7796C419.298 30.8336 416.048 30.7796 412.797 30.8128C412.926 32.6394 412.814 34.6113 413.711 36.276C414.537 37.8743 416.899 38.3268 418.244 37.1312C419.215 36.2221 419.365 34.8313 419.518 33.5901C420.481 33.5901 421.449 33.5901 422.42 33.6067C422.204 35.4457 421.636 37.372 420.191 38.634C418.564 40.1368 416.11 40.3112 414.055 39.7632C412.108 39.2028 410.821 37.372 410.369 35.4748C409.684 32.627 409.713 29.6297 410.153 26.7486C410.489 24.5816 411.548 22.2692 413.673 21.3518ZM414.043 24.1913C413.038 25.4077 413.009 27.0516 412.959 28.5461C415.13 28.5461 417.306 28.542 419.485 28.5503C419.439 27.1347 419.493 25.6028 418.701 24.3657C417.758 22.7425 415.114 22.6802 414.043 24.1913Z" fill="#008EFF"/>
<path d="M460.736 21.0853C463.231 20.3754 466.399 21.0189 467.79 23.3935C469.438 26.1458 469.33 29.5126 469.184 32.6096C469.01 35.2747 468.08 38.3758 465.423 39.5382C462.82 40.5636 459.279 40.1443 457.685 37.6078C455.896 34.76 456.07 31.2105 456.245 27.9891C456.423 25.1661 457.685 21.816 460.736 21.0853ZM461.629 23.2523C460.574 23.6135 459.981 24.6763 459.657 25.6726C459.063 27.6528 459.138 29.7451 459.167 31.7834C459.238 33.527 459.366 35.4574 460.529 36.8606C461.662 38.2762 464.087 38.0396 465.058 36.5492C466.316 34.6686 466.22 32.2774 466.258 30.1063C466.208 28.0845 466.204 25.8469 464.946 24.1532C464.194 23.1278 462.779 22.9451 461.629 23.2523Z" fill="#008EFF"/>
<path d="M477.465 21.181C478.324 20.6953 479.341 20.8489 480.288 20.878C480.296 21.8452 480.3 22.8125 480.321 23.7756C479.246 23.7424 478.079 23.5639 477.124 24.1783C475.75 24.9339 474.978 26.5031 475.028 28.0433C475.02 31.8833 475.028 35.7192 475.036 39.5592C474.056 39.5592 473.085 39.5592 472.118 39.5592C472.114 33.4733 472.126 27.3873 472.109 21.3014C473.085 21.3014 474.061 21.3014 475.049 21.3056C475.024 22.1815 475.007 23.0616 475.007 23.9417C475.713 22.9412 476.294 21.729 477.465 21.181Z" fill="#008EFF"/>
<path d="M239.203 21.3096C240.166 21.3013 241.134 21.2971 242.101 21.293C242.113 27.3789 242.097 33.469 242.109 39.5591C241.142 39.5591 240.175 39.5591 239.211 39.5591C239.211 33.4773 239.224 27.3914 239.203 21.3096Z" fill="#008EFF"/>
<path d="M301.328 21.3069C302.295 21.3027 303.267 21.3027 304.238 21.3027C304.242 25.7779 304.205 30.249 304.251 34.72C304.151 36.0734 305.118 37.6384 306.613 37.5388C308.527 37.8003 310.411 36.2187 310.474 34.2841C310.544 29.9625 310.503 25.6326 310.486 21.3069C311.453 21.3027 312.425 21.3027 313.4 21.3027C313.388 27.3887 313.392 33.4704 313.396 39.5522C312.47 39.5564 311.545 39.5605 310.627 39.573C310.636 38.8963 310.648 38.2196 310.665 37.5471C309.066 40.0546 305.43 40.8475 302.96 39.1952C301.677 38.2819 301.336 36.6131 301.353 35.1269C301.324 30.523 301.378 25.9149 301.328 21.3069Z" fill="#008EFF"/>
<path d="M433.344 21.3052C434.353 21.301 435.366 21.301 436.383 21.3052C437.437 26.2785 438.263 31.3017 439.405 36.2585C440.376 31.2644 441.451 26.2951 442.468 21.3093C443.594 21.301 444.723 21.301 445.86 21.301C446.923 26.2744 447.84 31.2768 448.961 36.2377C449.92 31.2644 450.821 26.2744 451.788 21.2969C452.801 21.301 453.818 21.301 454.84 21.3052C453.329 27.3745 451.938 33.477 450.481 39.5588C449.414 39.5588 448.351 39.5547 447.292 39.5464C446.259 34.5647 445.184 29.5872 444.088 24.618C443.016 29.5872 442.049 34.5855 440.999 39.563C439.878 39.5547 438.761 39.5588 437.649 39.5713C436.192 33.4895 434.822 27.3828 433.344 21.3052Z" fill="#008EFF"/>
</svg>
