<?xml version="1.0" encoding="utf-8"?>
<!-- Generator: Adobe Illustrator 24.2.0, SVG Export Plug-In . SVG Version: 6.00 Build 0)  -->
<svg version="1.1" id="Brand_Elements" xmlns="http://www.w3.org/2000/svg" xmlns:xlink="http://www.w3.org/1999/xlink" x="0px"
	 y="0px" viewBox="0 0 600 514.9" style="enable-background:new 0 0 600 514.9;" xml:space="preserve">
<style type="text/css">
	.st0{fill:#00293A;}
</style>
<g>
	<path class="st0" d="M77.5,267.6v-53.1c0-1.6-1.3-2.9-2.9-2.9H51.4c-1.6,0-2.9,1.3-2.9,2.9v54.3c0,3.6-0.7,6.4-2.2,8.4
		c-1.5,2-3.9,3.1-7.4,3.1c-3.4,0-5.9-1.2-7.5-3.5c-1.3-1.9-2.1-4.3-2.4-7.4c-0.2-1.4-1.4-2.5-2.8-2.5H2.9c-1.7,0-3,1.4-2.9,3.1
		c0.8,10.9,4.2,19.4,10.1,25.4c6.5,6.6,16.1,9.9,28.8,9.9c12,0,21.5-3.2,28.4-9.5C74.1,289.4,77.5,280,77.5,267.6z"/>
	<path class="st0" d="M102.5,257.7c0,7.4,1,14.1,2.9,20c2,5.9,4.9,10.9,8.8,15c3.9,4.1,8.7,7.2,14.3,9.4c5.7,2.2,12.2,3.3,19.7,3.3
		c7.6,0,14.3-1.1,20.1-3.4c5.8-2.3,10.6-5.5,14.5-9.7c3.9-4.2,6.8-9.3,8.8-15.3c2-6,3-12.7,3-20.2c0-7.4-1-14.1-2.9-19.9
		c-2-5.8-4.9-10.8-8.8-14.9c-3.9-4.1-8.7-7.2-14.3-9.4c-5.7-2.2-12.2-3.3-19.6-3.3c-7.6,0-14.3,1.1-20.1,3.4
		c-5.8,2.3-10.7,5.5-14.6,9.7c-3.9,4.2-6.9,9.3-8.8,15.2C103.5,243.6,102.5,250.3,102.5,257.7z M148.6,234.3c10.7,0,16,7.7,16,23
		s-5.3,23-16,23c-10.7,0-16-7.7-16-23S137.9,234.3,148.6,234.3z"/>
	<path class="st0" d="M292.1,246.2c1.8-3.3,2.7-7,2.7-11.2c0-3.2-0.5-6.2-1.5-9c-1-2.9-2.7-5.4-5.2-7.5c-2.4-2.1-5.7-3.8-9.8-5.1
		c-4.1-1.2-9.2-1.9-15.3-1.9h-39.8c-1.6,0-2.9,1.3-2.9,2.9v85.6c0,1.6,1.3,2.9,2.9,2.9h38.7c6.6,0,12.2-0.7,16.7-2.2
		c4.5-1.5,8.2-3.4,11-5.9c2.8-2.5,4.8-5.3,6-8.6c1.2-3.2,1.8-6.7,1.8-10.2c0-8.7-3.3-15.2-9.9-19.5c-1.6-1.1-1.8-3.4-0.2-4.6
		C289.3,250.3,290.9,248.4,292.1,246.2z M246.8,235.4c0-1.6,1.3-2.9,2.9-2.9h8.5c3.6,0,6,0.6,7.3,1.8c1.3,1.2,1.9,2.9,1.9,5.1
		c0,2.2-0.6,3.9-1.9,5.1c-1.3,1.2-3.7,1.8-7.3,1.8h-8.5c-1.6,0-2.9-1.3-2.9-2.9V235.4z M267.6,280c-1.5,1.5-4.5,2.2-8.8,2.2h-9.2
		c-1.6,0-2.9-1.3-2.9-2.9v-11c0-1.6,1.3-2.9,2.9-2.9h9.2c4.3,0,7.3,0.7,8.8,2.2c1.5,1.5,2.3,3.5,2.3,6.3
		C269.9,276.5,269.2,278.5,267.6,280z"/>
	<path class="st0" d="M394.2,246.2c1.8-3.3,2.7-7,2.7-11.2c0-3.2-0.5-6.2-1.5-9c-1-2.9-2.7-5.4-5.2-7.5c-2.4-2.1-5.7-3.8-9.8-5.1
		c-4.1-1.2-9.2-1.9-15.3-1.9h-39.8c-1.6,0-2.9,1.3-2.9,2.9v85.6c0,1.6,1.3,2.9,2.9,2.9h38.7c6.6,0,12.2-0.7,16.7-2.2
		c4.5-1.5,8.2-3.4,11-5.9c2.8-2.5,4.8-5.3,6-8.6c1.2-3.2,1.8-6.7,1.8-10.2c0-8.7-3.3-15.2-9.9-19.5c-1.6-1.1-1.8-3.4-0.2-4.6
		C391.4,250.3,393,248.4,394.2,246.2z M348.9,235.4c0-1.6,1.3-2.9,2.9-2.9h8.5c3.6,0,6,0.6,7.3,1.8c1.3,1.2,1.9,2.9,1.9,5.1
		c0,2.2-0.6,3.9-1.9,5.1c-1.3,1.2-3.7,1.8-7.3,1.8h-8.5c-1.6,0-2.9-1.3-2.9-2.9V235.4z M369.8,280c-1.5,1.5-4.5,2.2-8.8,2.2h-9.2
		c-1.6,0-2.9-1.3-2.9-2.9v-11c0-1.6,1.3-2.9,2.9-2.9h9.2c4.3,0,7.3,0.7,8.8,2.2c1.5,1.5,2.3,3.5,2.3,6.3
		C372.1,276.5,371.3,278.5,369.8,280z"/>
	<path class="st0" d="M493.1,300.4l1.6-16.6c0.2-1.7-1.2-3.2-2.9-3.2H456c-1.6,0-2.9-1.3-2.9-2.9v-6.8c0-1.6,1.3-2.9,2.9-2.9h31.1
		c1.6,0,2.9-1.3,2.9-2.9v-16.6c0-1.6-1.3-2.9-2.9-2.9H456c-1.6,0-2.9-1.3-2.9-2.9v-5.9c0-1.6,1.3-2.9,2.9-2.9h33.7
		c1.6,0,2.9-1.3,2.9-2.9v-16.6c0-1.6-1.3-2.9-2.9-2.9h-62.2c-1.6,0-2.9,1.3-2.9,2.9v85.6c0,1.6,1.3,2.9,2.9,2.9h62.9
		C491.8,303,493,301.9,493.1,300.4z"/>
	<path class="st0" d="M599.7,298.8l-15.4-28.6c-0.7-1.2-0.3-2.8,0.8-3.6c3.3-2.5,6-5.6,7.9-9.2c2.3-4.4,3.5-9.6,3.5-15.7
		c0-4.1-0.6-8-1.9-11.7c-1.2-3.7-3.3-6.8-6.2-9.5c-2.9-2.7-6.7-4.8-11.5-6.4c-4.7-1.6-10.6-2.4-17.6-2.4h-36.4
		c-1.6,0-2.9,1.3-2.9,2.9v85.6c0,1.6,1.3,2.9,2.9,2.9h21.6c1.6,0,2.9-1.3,2.9-2.9v-23.6c0-1.6,1.3-2.9,2.9-2.9h5.6
		c1.1,0,2.1,0.6,2.6,1.6l13,26.1c0.5,1,1.5,1.6,2.6,1.6h23.1C599.3,303,600.7,300.7,599.7,298.8z M566.3,250.2
		c-1.8,1.6-4.9,2.4-9.2,2.4h-6.8c-1.6,0-2.9-1.3-2.9-2.9V236c0-1.6,1.3-2.9,2.9-2.9h6.8c4.3,0,7.4,0.8,9.2,2.4
		c1.8,1.6,2.7,4.1,2.7,7.3S568.1,248.5,566.3,250.2z"/>
	<path class="st0" d="M184.4,446h183.4c59.9,0,109.5-44.1,118.3-101.5c0.3-1.9-1.3-3.7-3.2-3.7h-30.6c-1.5,0-2.7,1-3,2.5
		c-7.9,37.9-41.3,66.4-81.5,66.4H222.9c-3.5,0-5.9-3.5-4.7-6.7l8.4-22.6c0.7-1.9,2.6-3.2,4.7-3.2h129.5c22.6,0,42.1-13,51.6-31.8
		c1-2.1-0.6-4.5-2.9-4.5H182.5c-1.7,0-3.1,1.4-3.1,3.1V441C179.4,443.8,181.6,446,184.4,446z"/>
	<path class="st0" d="M418.7,171V73.9c0-2.7-2.2-5-5-5H230.3c-59.9,0-109.5,44.1-118.3,101.5c-0.3,1.9,1.3,3.7,3.2,3.7h30.6
		c1.5,0,2.7-1,3-2.5c7.9-37.9,41.3-66.4,81.5-66.4h144.9c3.5,0,5.9,3.5,4.7,6.7l-8.4,22.6c-0.7,1.9-2.6,3.2-4.7,3.2H237.3
		c-22.6,0-42.1,13-51.6,31.8c-1,2.1,0.6,4.5,2.9,4.5h226.9C417.3,174.1,418.7,172.7,418.7,171z"/>
	<path class="st0" d="M552.2,340.7h-30.1c-1.6,0-2.9,1.2-3,2.7c-8.6,76-73,135.1-151.3,135.1h-216c-2.7,0-5-2.2-5-5V343.9
		c0-1.7-1.4-3.1-3.1-3.1h-30.1c-1.7,0-3.1,1.4-3.1,3.1v97c0,4.4-5.3,6.6-8.5,3.5l-22.6-22.6c-0.9-0.9-1.5-2.2-1.5-3.5v-74.4
		c0-1.7-1.4-3.1-3.1-3.1H44.7c-1.7,0-3.1,1.4-3.1,3.1v85.3c0,3.9,1.6,7.7,4.4,10.5l70.8,70.8c2.8,2.8,6.6,4.4,10.5,4.4h240.5
		c98.1,0,178.5-74.9,187.7-170.6C555.6,342.4,554.1,340.7,552.2,340.7z"/>
	<path class="st0" d="M45.8,174.1h30.1c1.6,0,2.9-1.2,3-2.7c8.6-76,73-135.1,151.3-135.1h216c2.7,0,5,2.2,5,5V171
		c0,1.7,1.4,3.1,3.1,3.1h30.1c1.7,0,3.1-1.4,3.1-3.1V74c0-4.4,5.3-6.6,8.5-3.5l22.6,22.6c0.5,1.2,0.9,2.3,1.5,3.5V171
		c0,1.7,1.4,3.1,3.1,3.1h30.1c1.7,0,3.1-1.4,3.1-3.1V85.7c0-3.9-1.6-7.7-4.4-10.5L481.3,4.4c-2.8-2.8-6.6-4.4-10.5-4.4H230.3
		C132.2,0,51.7,74.9,42.6,170.6C42.4,172.5,44,174.1,45.8,174.1z"/>
</g>
</svg>
