<svg width="24" height="24" viewBox="0 0 24 24" fill="none" xmlns="http://www.w3.org/2000/svg">
<path d="M20.0771 8.85505H14.7911L15.9481 5.96305C16.1136 5.55103 16.1544 5.09949 16.0655 4.66448C15.9766 4.22948 15.7619 3.83014 15.4481 3.51605C15.2716 3.33973 15.0589 3.20394 14.8246 3.11811C14.5904 3.03229 14.3402 2.99847 14.0916 3.01903C13.843 3.03958 13.6018 3.114 13.3848 3.23713C13.1679 3.36026 12.9803 3.52914 12.8351 3.73205L9.74413 8.05705C9.28279 8.70134 8.76976 9.30701 8.21013 9.86805L7.22013 10.858C7.17505 10.9031 7.1393 10.9565 7.11493 11.0154C7.09056 11.0743 7.07806 11.1373 7.07813 11.201V18.642C7.07805 18.771 7.12912 18.8947 7.22013 18.986L8.32913 20.1C8.61163 20.384 8.94764 20.6092 9.31771 20.7624C9.68778 20.9157 10.0846 20.9941 10.4851 20.993H16.5111C16.9869 20.9927 17.4524 20.8545 17.8513 20.5952C18.2503 20.3359 18.5656 19.9667 18.7591 19.532L21.7151 12.881C21.9043 12.4569 22.0014 11.9975 22.0001 11.533V10.779C21.9996 10.2691 21.7969 9.78019 21.4364 9.41951C21.0759 9.05884 20.5871 8.85584 20.0771 8.85505Z" fill="#22C55E"/>
<path d="M3.747 10.207C3.28367 10.207 2.83931 10.3911 2.51168 10.7187C2.18406 11.0463 2 11.4907 2 11.954V18.523C2 18.9864 2.18406 19.4307 2.51168 19.7583C2.83931 20.086 3.28367 20.27 3.747 20.27C4.21033 20.27 4.65469 20.086 4.98232 19.7583C5.30994 19.4307 5.494 18.9864 5.494 18.523V11.954C5.494 11.4907 5.30994 11.0463 4.98232 10.7187C4.65469 10.3911 4.21033 10.207 3.747 10.207Z" fill="#22C55E"/>
</svg>
