<svg width="24" height="24" viewBox="0 0 24 24" fill="none" xmlns="http://www.w3.org/2000/svg">
<path fill-rule="evenodd" clip-rule="evenodd" d="M17.0227 7.39601V8.92935C18.7451 9.46696 20 11.0261 20 12.8884V17.8253C20 20.1308 18.0886 22 15.7322 22H7.2688C4.91136 22 3 20.1308 3 17.8253V12.8884C3 11.0261 4.25595 9.46696 5.97729 8.92935V7.39601C5.98745 4.41479 8.45667 2 11.4848 2C14.5535 2 17.0227 4.41479 17.0227 7.39601ZM11.5054 3.73926C13.5682 3.73926 15.2448 5.37893 15.2448 7.39622V8.71392H7.75586V7.37634C7.76602 5.36899 9.44265 3.73926 11.5054 3.73926ZM12.3896 16.4549C12.3896 16.9419 11.9933 17.3294 11.4954 17.3294C11.0076 17.3294 10.6113 16.9419 10.6113 16.4549V14.2488C10.6113 13.7718 11.0076 13.3843 11.4954 13.3843C11.9933 13.3843 12.3896 13.7718 12.3896 14.2488V16.4549Z" fill="white"/>
</svg>
