<svg width="204" height="204" viewBox="0 0 204 204" fill="none" xmlns="http://www.w3.org/2000/svg">
<rect x="10" y="10" width="184" height="184" rx="92" fill="#22C55E"/>
<g clip-path="url(#clip0_1339_201220)">
<path d="M137.219 104.046C136.759 103.758 136.436 103.295 136.324 102.764C136.211 102.233 136.319 101.679 136.623 101.23C137.26 100.288 137.631 99.1612 137.631 97.9458C137.631 94.699 134.985 92.0533 131.738 92.0533H112.203C111.542 92.0533 110.923 91.7262 110.551 91.1796C110.178 90.6329 110.1 89.9375 110.342 89.3218L113.152 82.1733L113.163 82.146C114.308 79.3536 114.888 76.4132 114.888 73.3975C114.888 69.2859 111.541 65.9395 107.431 65.9395H104.722C103.449 65.9395 102.361 66.8473 102.134 68.1012L102.134 68.1016L100.869 75.0718C100.805 75.4237 100.648 75.752 100.414 76.0225L85.6904 93.055C85.3105 93.4945 84.7583 93.7471 84.1774 93.7471H78.8086V132.465L91.1887 137.135H126.607C129.854 137.135 132.499 134.49 132.499 131.242C132.499 130.24 132.247 129.3 131.803 128.474C131.53 127.966 131.49 127.366 131.691 126.827C131.893 126.287 132.317 125.861 132.856 125.657C135.087 124.811 136.67 122.653 136.67 120.144C136.67 119.051 136.371 118.031 135.851 117.153C135.568 116.673 135.497 116.097 135.656 115.562C135.816 115.028 136.192 114.585 136.692 114.339C137.647 113.871 138.46 113.148 139.041 112.259L139.042 112.257C139.648 111.334 139.999 110.232 139.999 109.044C139.999 106.945 138.894 105.093 137.219 104.046Z" stroke="white" stroke-width="4" stroke-linejoin="round"/>
<path d="M64 137.812H77.8125V89.2734H64V137.812Z" stroke="white" stroke-width="4" stroke-linejoin="round"/>
</g>
<path d="M127.582 44.7773L119.12 57.1731M106.861 33.6786L107.879 53.3119M86.0109 44.1316L96.1095 56.431" stroke="white" stroke-width="3" stroke-linecap="round"/>
<rect x="10" y="10" width="184" height="184" rx="92" stroke="#86EFAC" stroke-width="20"/>
<defs>
<clipPath id="clip0_1339_201220">
<rect width="80" height="80" fill="white" transform="matrix(1 0 0 -1 62 142)"/>
</clipPath>
</defs>
</svg>
