<svg width="204" height="204" viewBox="0 0 204 204" fill="none" xmlns="http://www.w3.org/2000/svg">
<rect x="15" y="15" width="174" height="174" rx="87" fill="#FFCED3"/>
<g clip-path="url(#clip0_1339_201227)">
<path d="M66.7805 99.9543L68.5375 101.053L67.3766 102.77C66.7396 103.712 66.3685 104.839 66.3685 106.054C66.3685 109.301 69.0146 111.947 72.2622 111.947H91.7965H94.7315L93.6579 114.678L90.8485 121.827L90.8431 121.84L90.8375 121.854C89.6922 124.646 89.1121 127.587 89.1121 130.603C89.1121 134.714 92.4587 138.061 96.5695 138.061H99.2776C100.551 138.061 101.639 137.153 101.866 135.899L101.866 135.898L103.131 128.928L103.229 128.391L103.586 127.977L118.31 110.945L118.908 110.253H119.823H125.191V71.5347L112.811 66.8652H77.3934C74.1462 66.8652 71.501 69.5105 71.501 72.7577C71.501 73.7599 71.7533 74.6999 72.1973 75.5264L73.2762 77.5348L71.1445 78.343C68.913 79.189 67.3304 81.3467 67.3304 83.8557C67.3304 84.9493 67.6294 85.9693 68.1485 86.8467L69.2502 88.7086L67.3076 89.6609C66.3532 90.1288 65.5401 90.8521 64.9593 91.7407L64.9577 91.7431C64.3525 92.6662 64.001 93.7682 64.001 94.9562C64.001 97.0553 65.1064 98.9071 66.7805 99.9543Z" stroke="#F59B9B" stroke-width="4"/>
<path d="M140 66.1875H126.188V114.727H140V66.1875Z" stroke="#F59B9B" stroke-width="4"/>
</g>
<rect x="15" y="15" width="174" height="174" rx="87" stroke="#FFEAEF" stroke-width="30"/>
<defs>
<clipPath id="clip0_1339_201227">
<rect width="80" height="80" fill="white" transform="matrix(-1 0 0 1 142 62)"/>
</clipPath>
</defs>
</svg>
