<svg width="1920" height="1080" viewBox="0 0 1920 1080" fill="none" xmlns="http://www.w3.org/2000/svg">
<path d="M0.365018 407.02C241.894 301.913 468.75 141.519 638.782 3.8915e-06M4.48813 1080C439.112 832.182 704.217 456.979 808.99 4.92843e-06M1.06124e-05 625.358C0.121687 625.306 0.243354 625.254 0.365013 625.202C318.196 489.289 575.733 219.039 736.939 4.48949e-06M437.302 1080C746.394 662.019 877.846 407.021 886.394 5.39997e-06M1568.47 1080C1464.99 425.769 1373.94 135 1205.72 7.34533e-06M1242.4 1080C1270.25 392.019 1196.91 103.846 1068.99 6.51234e-06M819.349 1080C902.805 908.654 1046.56 412.788 983.182 5.98962e-06M1780 1080C1639.42 295.962 1549.62 127.841 1330.72 8.10684e-06M1920 211.174C1800.63 141.851 1640.96 67.4385 1482.65 9.03242e-06M1920 28.3585C1890.75 18.9172 1860.09 9.44788 1828.33 1.11383e-05M0.365023 179.265C161.785 150.874 339.99 78.9545 498.059 3.03421e-06" stroke="url(#paint0_linear_1339_201237)"/>
<defs>
<linearGradient id="paint0_linear_1339_201237" x1="49.7212" y1="1.9586e-05" x2="2271.03" y2="724.149" gradientUnits="userSpaceOnUse">
<stop stop-color="#F4F4F5"/>
<stop offset="1" stop-color="#F4F4F5" stop-opacity="0"/>
</linearGradient>
</defs>
</svg>
