<svg width="24" height="24" viewBox="0 0 24 24" fill="none" xmlns="http://www.w3.org/2000/svg">
<path d="M10.6379 3.953C11.174 2.79069 12.826 2.79069 13.3621 3.953L14.7518 6.96595C14.9703 7.43966 15.4193 7.76583 15.9373 7.82725L19.2322 8.21792C20.5033 8.36863 21.0138 9.93971 20.0741 10.8088L17.638 13.0615C17.255 13.4157 17.0835 13.9435 17.1852 14.4551L17.8319 17.7095C18.0813 18.965 16.7449 19.936 15.628 19.3108L12.7327 17.6901C12.2775 17.4353 11.7225 17.4353 11.2673 17.6901L8.37204 19.3108C7.25512 19.936 5.91868 18.965 6.16814 17.7095L6.81479 14.4551C6.91645 13.9435 6.74498 13.4157 6.36198 13.0615L3.92594 10.8088C2.98619 9.93971 3.49666 8.36863 4.76775 8.21792L8.0627 7.82725C8.58074 7.76583 9.02967 7.43966 9.24817 6.96595L10.6379 3.953Z" fill="white"/>
</svg>
