<svg width="80" height="80" viewBox="0 0 80 80" fill="none" xmlns="http://www.w3.org/2000/svg">
<path d="M40.5523 6.48828C59.0336 6.48828 74.0133 21.4695 74.0133 39.9492C74.0133 58.4305 59.0336 73.4117 40.5523 73.4117C22.0711 73.4117 7.08984 58.4305 7.08984 39.9492C7.08984 21.4695 22.0711 6.48828 40.5523 6.48828Z" fill="#FFDA2D"/>
<path d="M7.32422 69.7207C8.84766 69.7207 10.082 70.9551 10.082 72.4785C10.082 74.002 8.84766 75.2379 7.32422 75.2379C5.80078 75.2379 4.56641 74.002 4.56641 72.4785C4.56641 70.9551 5.80078 69.7207 7.32422 69.7207Z" fill="white"/>
<path d="M72.1359 4.76172C73.9547 4.76172 75.4281 6.23516 75.4281 8.05391C75.4281 9.87266 73.9547 11.3461 72.1359 11.3461C70.3172 11.3461 68.8438 9.87266 68.8438 8.05391C68.8438 6.23516 70.3172 4.76172 72.1359 4.76172Z" fill="white"/>
<path d="M51.0234 26.084C53.0437 26.084 54.675 27.7152 54.675 29.7355C54.675 31.7559 53.0437 33.3871 51.0234 33.3871C49.0141 33.3871 47.3828 31.7559 47.3828 29.7355C47.3828 27.7152 49.0141 26.084 51.0234 26.084Z" fill="white"/>
<path d="M30.0719 26.084C32.0922 26.084 33.7234 27.7152 33.7234 29.7355C33.7234 31.7559 32.0922 33.3871 30.0719 33.3871C28.0609 33.3871 26.4297 31.7559 26.4297 29.7355C26.4297 27.7152 28.0609 26.084 30.0719 26.084Z" fill="white"/>
<path d="M70.2016 72.4793C70.9515 72.4793 71.5594 71.8714 71.5594 71.1215C71.5594 70.3716 70.9515 69.7637 70.2016 69.7637C69.4517 69.7637 68.8438 70.3716 68.8438 71.1215C68.8438 71.8714 69.4517 72.4793 70.2016 72.4793Z" fill="black"/>
<path d="M10.0844 10.7703C10.8343 10.7703 11.4422 10.1624 11.4422 9.4125C11.4422 8.6626 10.8343 8.05469 10.0844 8.05469C9.33448 8.05469 8.72656 8.6626 8.72656 9.4125C8.72656 10.1624 9.33448 10.7703 10.0844 10.7703Z" fill="black"/>
<path d="M40.5523 74.1928C31.4053 74.1928 22.8058 70.6309 16.3381 64.1633C9.87047 57.6956 6.30859 49.0961 6.30859 39.9491C6.30859 30.8028 9.87047 22.2039 16.3381 15.7364C22.8059 9.26875 31.4053 5.70703 40.5523 5.70703C49.6992 5.70703 58.2984 9.26891 64.7656 15.7364C71.2328 22.2037 74.7945 30.8027 74.7945 39.9491C74.7945 49.0962 71.2328 57.6956 64.7656 64.1633C58.2984 70.6311 49.6994 74.1928 40.5523 74.1928ZM40.5523 7.26953C22.5317 7.26953 7.87109 21.9295 7.87109 39.9491C7.87109 57.9695 22.5319 72.6303 40.5523 72.6303C58.572 72.6303 73.232 57.9695 73.232 39.9491C73.232 21.9295 58.572 7.26953 40.5523 7.26953Z" fill="black"/>
<path d="M53.468 51.9336H27.6367C27.2053 51.9336 26.8555 51.5839 26.8555 51.1523C26.8555 50.7208 27.2053 50.3711 27.6367 50.3711H53.468C53.8995 50.3711 54.2492 50.7208 54.2492 51.1523C54.2492 51.5839 53.8995 51.9336 53.468 51.9336Z" fill="black"/>
<path d="M51.0234 34.1682C48.5853 34.1682 46.6016 32.1796 46.6016 29.7355C46.6016 27.2912 48.5852 25.3027 51.0234 25.3027C53.4678 25.3027 55.4563 27.2913 55.4563 29.7355C55.4563 32.1798 53.4678 34.1682 51.0234 34.1682ZM51.0234 26.8652C49.4467 26.8652 48.1641 28.1529 48.1641 29.7355C48.1641 31.3182 49.4467 32.6057 51.0234 32.6057C52.6061 32.6057 53.8938 31.3182 53.8938 29.7355C53.8938 28.1529 52.6061 26.8652 51.0234 26.8652Z" fill="black"/>
<path d="M30.0719 34.1682C27.6328 34.1682 25.6484 32.1796 25.6484 29.7355C25.6484 27.2912 27.6328 25.3027 30.0719 25.3027C32.5163 25.3027 34.5047 27.2913 34.5047 29.7355C34.5047 32.1798 32.5163 34.1682 30.0719 34.1682ZM30.0719 26.8652C28.4944 26.8652 27.2109 28.1529 27.2109 29.7355C27.2109 31.3182 28.4944 32.6057 30.0719 32.6057C31.6545 32.6057 32.9422 31.3182 32.9422 29.7355C32.9422 28.1529 31.6545 26.8652 30.0719 26.8652Z" fill="black"/>
<path d="M72.1359 12.1272C69.8898 12.1272 68.0625 10.2998 68.0625 8.05375C68.0625 5.80766 69.8898 3.98047 72.1359 3.98047C74.382 3.98047 76.2092 5.80766 76.2092 8.05375C76.2092 10.2998 74.382 12.1272 72.1359 12.1272ZM72.1359 5.54281C70.7514 5.54281 69.625 6.66922 69.625 8.05359C69.625 9.43812 70.7514 10.5645 72.1359 10.5645C73.5203 10.5645 74.6467 9.43812 74.6467 8.05359C74.6469 6.66922 73.5205 5.54281 72.1359 5.54281Z" fill="black"/>
<path d="M7.32422 76.0191C5.37281 76.0191 3.78516 74.4309 3.78516 72.4785C3.78516 70.5271 5.37281 68.9395 7.32422 68.9395C9.27563 68.9395 10.8633 70.5271 10.8633 72.4785C10.8633 74.4309 9.27563 76.0191 7.32422 76.0191ZM7.32422 70.5018C6.23438 70.5018 5.34766 71.3885 5.34766 72.4784C5.34766 73.569 6.23438 74.4565 7.32422 74.4565C8.41406 74.4565 9.30078 73.569 9.30078 72.4784C9.30078 71.3885 8.41406 70.5018 7.32422 70.5018Z" fill="black"/>
</svg>
