<svg width="24" height="24" viewBox="0 0 24 24" fill="none" xmlns="http://www.w3.org/2000/svg">
<path d="M4.917 14.007C5.6538 13.129 7.03899 10.6705 6.68529 7.86069C6.33159 5.05094 9.48541 3.47045 11.1065 3.03143C16.4124 4.78753 15.5282 7.86069 15.5282 7.86069C15.5282 7.86069 15.6204 9.61679 15.9151 10.4948C16.1579 11.2182 16.2356 12.1631 17.2966 13.568C18.3577 14.9729 17.1493 15.3241 16.4124 15.3241H6.24337C4.82857 15.3241 4.41989 14.8851 4.917 14.007Z" fill="white"/>
<path d="M11.1065 1.71436V3.03143M11.1065 3.03143C9.48541 3.47045 6.33159 5.05094 6.68529 7.86069C7.03899 10.6705 5.6538 13.129 4.917 14.007C4.41989 14.8851 4.82857 15.3241 6.24337 15.3241C7.65816 15.3241 13.6122 15.3241 16.4124 15.3241C17.1493 15.3241 18.3577 14.9729 17.2966 13.568C16.2356 12.1631 16.1579 11.2182 15.9151 10.4948C15.6204 9.61679 15.5282 7.86069 15.5282 7.86069C15.5282 7.86069 16.4124 4.78753 11.1065 3.03143Z" stroke="white" stroke-linecap="round" stroke-linejoin="round"/>
<mask id="path-3-inside-1_117_17979" fill="white">
<path d="M13.057 17.5193C13.3331 17.5193 13.5627 17.7461 13.4999 18.015C13.4725 18.1323 13.4354 18.2475 13.3887 18.3594C13.2776 18.6257 13.1148 18.8677 12.9095 19.0715C12.7042 19.2754 12.4605 19.4371 12.1923 19.5474C11.9241 19.6577 11.6367 19.7145 11.3464 19.7145C11.0561 19.7145 10.7686 19.6577 10.5004 19.5474C10.2322 19.4371 9.98849 19.2754 9.78322 19.0715C9.57794 18.8677 9.41511 18.6257 9.30402 18.3594C9.25737 18.2475 9.22022 18.1323 9.19283 18.015C9.13006 17.7461 9.3596 17.5193 9.63574 17.5193L11.3464 17.5193H13.057Z"/>
</mask>
<path d="M13.057 17.5193C13.3331 17.5193 13.5627 17.7461 13.4999 18.015C13.4725 18.1323 13.4354 18.2475 13.3887 18.3594C13.2776 18.6257 13.1148 18.8677 12.9095 19.0715C12.7042 19.2754 12.4605 19.4371 12.1923 19.5474C11.9241 19.6577 11.6367 19.7145 11.3464 19.7145C11.0561 19.7145 10.7686 19.6577 10.5004 19.5474C10.2322 19.4371 9.98849 19.2754 9.78322 19.0715C9.57794 18.8677 9.41511 18.6257 9.30402 18.3594C9.25737 18.2475 9.22022 18.1323 9.19283 18.015C9.13006 17.7461 9.3596 17.5193 9.63574 17.5193L11.3464 17.5193H13.057Z" fill="white" stroke="white" stroke-width="2" mask="url(#path-3-inside-1_117_17979)"/>
</svg>
