<svg width="530" height="44" viewBox="0 0 530 44" fill="none" xmlns="http://www.w3.org/2000/svg">
<path d="M21.41 30V17.9L18.7 19.55V17.22L21.41 15.6H23.54V30H21.41Z" fill="#3F3F46"/>
<rect x="0.75" y="0.75" width="42.5" height="42.5" rx="21.25" stroke="#FE3F34" stroke-width="1.5"/>
<path d="M71 29.99L71.01 28.13L77.28 22.51C77.7867 22.0633 78.13 21.6367 78.31 21.23C78.4967 20.8233 78.59 20.4167 78.59 20.01C78.59 19.4967 78.4767 19.0367 78.25 18.63C78.0233 18.2167 77.71 17.89 77.31 17.65C76.91 17.41 76.45 17.29 75.93 17.29C75.3967 17.29 74.92 17.4167 74.5 17.67C74.0867 17.9167 73.7633 18.2467 73.53 18.66C73.2967 19.0733 73.1833 19.52 73.19 20H71.05C71.05 19.0667 71.26 18.25 71.68 17.55C72.1067 16.8433 72.69 16.2933 73.43 15.9C74.17 15.5 75.0167 15.3 75.97 15.3C76.8767 15.3 77.69 15.5067 78.41 15.92C79.13 16.3267 79.6967 16.8867 80.11 17.6C80.53 18.3133 80.74 19.1267 80.74 20.04C80.74 20.7 80.6533 21.26 80.48 21.72C80.3067 22.18 80.0467 22.6067 79.7 23C79.3533 23.3933 78.92 23.82 78.4 24.28L73.56 28.6L73.33 28H80.74V29.99H71Z" fill="#3F3F46"/>
<rect x="54.75" y="0.75" width="42.5" height="42.5" rx="21.25" stroke="#FE3F34" stroke-width="1.5"/>
<path d="M129.43 30.27C128.717 30.27 128.047 30.1367 127.42 29.87C126.793 29.5967 126.25 29.21 125.79 28.71C125.337 28.21 125.007 27.62 124.8 26.94L126.82 26.38C127.013 27 127.35 27.4767 127.83 27.81C128.31 28.1367 128.843 28.2967 129.43 28.29C129.957 28.2833 130.42 28.16 130.82 27.92C131.22 27.68 131.533 27.3567 131.76 26.95C131.987 26.5367 132.1 26.0633 132.1 25.53C132.1 24.73 131.85 24.07 131.35 23.55C130.857 23.03 130.21 22.77 129.41 22.77C129.183 22.77 128.95 22.8033 128.71 22.87C128.477 22.9367 128.257 23.0233 128.05 23.13L127.07 21.48L132.15 16.99L132.37 17.59H125.37V15.6H134.03V17.59L129.81 21.65L129.79 20.97C130.697 20.97 131.483 21.1733 132.15 21.58C132.817 21.98 133.33 22.5267 133.69 23.22C134.057 23.9067 134.24 24.6767 134.24 25.53C134.24 26.45 134.023 27.2667 133.59 27.98C133.163 28.6933 132.587 29.2533 131.86 29.66C131.14 30.0667 130.33 30.27 129.43 30.27Z" fill="#3F3F46"/>
<rect x="108.75" y="0.75" width="42.5" height="42.5" rx="21.25" stroke="#FE3F34" stroke-width="1.5"/>
<path d="M185 30V27.49H178.5V25.51L183.18 15.6H185.57L180.89 25.51H185V21.61H187.12V25.51H188.55V27.49H187.12V30H185Z" fill="#3F3F46"/>
<rect x="162.75" y="0.75" width="42.5" height="42.5" rx="21.25" stroke="#FE3F34" stroke-width="1.5"/>
<path d="M237.67 30.3C236.93 30.3 236.24 30.15 235.6 29.85C234.967 29.5433 234.423 29.1233 233.97 28.59C233.517 28.05 233.193 27.43 233 26.73L235.01 26.19C235.123 26.6167 235.317 26.9867 235.59 27.3C235.87 27.6133 236.197 27.8567 236.57 28.03C236.943 28.1967 237.33 28.28 237.73 28.28C238.257 28.28 238.733 28.1533 239.16 27.9C239.593 27.6467 239.933 27.3067 240.18 26.88C240.433 26.4533 240.56 25.9833 240.56 25.47C240.56 24.9433 240.43 24.4667 240.17 24.04C239.917 23.6133 239.573 23.2767 239.14 23.03C238.713 22.7767 238.243 22.65 237.73 22.65C237.143 22.65 236.647 22.7667 236.24 23C235.833 23.2333 235.517 23.5033 235.29 23.81L233.47 23.17L233.91 15.6H241.68V17.57H234.98L235.83 16.78L235.48 22.45L235.07 21.92C235.45 21.54 235.903 21.25 236.43 21.05C236.957 20.85 237.48 20.75 238 20.75C238.893 20.75 239.69 20.9567 240.39 21.37C241.097 21.7833 241.653 22.3467 242.06 23.06C242.467 23.7667 242.67 24.57 242.67 25.47C242.67 26.3633 242.44 27.1767 241.98 27.91C241.52 28.6367 240.91 29.2167 240.15 29.65C239.39 30.0833 238.563 30.3 237.67 30.3Z" fill="#3F3F46"/>
<rect x="216.75" y="0.75" width="42.5" height="42.5" rx="21.25" stroke="#FE3F34" stroke-width="1.5"/>
<path d="M291.85 30.3C290.917 30.3 290.077 30.08 289.33 29.64C288.583 29.1933 287.99 28.5833 287.55 27.81C287.117 27.0367 286.9 26.1567 286.9 25.17V20.58C286.9 19.5333 287.117 18.6133 287.55 17.82C287.99 17.0267 288.597 16.41 289.37 15.97C290.15 15.53 291.047 15.31 292.06 15.31C292.82 15.31 293.533 15.4533 294.2 15.74C294.867 16.0267 295.443 16.4533 295.93 17.02L294.4 18.45C294.127 18.0967 293.783 17.8167 293.37 17.61C292.963 17.3967 292.527 17.29 292.06 17.29C291.46 17.29 290.933 17.4333 290.48 17.72C290.027 18 289.67 18.37 289.41 18.83C289.157 19.29 289.03 19.7833 289.03 20.31V22.95L288.62 22.49C289.033 21.95 289.547 21.5233 290.16 21.21C290.773 20.8967 291.43 20.74 292.13 20.74C293.023 20.74 293.82 20.95 294.52 21.37C295.227 21.7833 295.78 22.3467 296.18 23.06C296.587 23.7733 296.79 24.5767 296.79 25.47C296.79 26.37 296.563 27.1867 296.11 27.92C295.663 28.6467 295.063 29.2267 294.31 29.66C293.563 30.0867 292.743 30.3 291.85 30.3ZM291.85 28.29C292.37 28.29 292.843 28.1633 293.27 27.91C293.697 27.6567 294.037 27.3167 294.29 26.89C294.543 26.4633 294.67 25.99 294.67 25.47C294.67 24.95 294.543 24.4767 294.29 24.05C294.043 23.6233 293.707 23.2833 293.28 23.03C292.853 22.7767 292.38 22.65 291.86 22.65C291.34 22.65 290.863 22.7767 290.43 23.03C290.003 23.2833 289.663 23.6233 289.41 24.05C289.157 24.4767 289.03 24.95 289.03 25.47C289.03 25.9833 289.157 26.4533 289.41 26.88C289.663 27.3067 290.003 27.65 290.43 27.91C290.857 28.1633 291.33 28.29 291.85 28.29Z" fill="#3F3F46"/>
<rect x="270.75" y="0.75" width="42.5" height="42.5" rx="21.25" stroke="#FAA81A" stroke-width="1.5"/>
<path d="M342.65 30L347.71 17.59H341.3V15.6H349.96V17.59L344.91 30H342.65Z" fill="#3F3F46"/>
<rect x="324.75" y="0.75" width="42.5" height="42.5" rx="21.25" stroke="#FAA81A" stroke-width="1.5"/>
<path d="M399.51 30.3C398.57 30.3 397.737 30.1133 397.01 29.74C396.29 29.36 395.723 28.8333 395.31 28.16C394.903 27.4867 394.7 26.7067 394.7 25.82C394.7 24.9933 394.893 24.2367 395.28 23.55C395.667 22.8633 396.243 22.3233 397.01 21.93L396.97 22.65C396.357 22.27 395.883 21.7967 395.55 21.23C395.223 20.6567 395.06 20.0167 395.06 19.31C395.06 18.49 395.25 17.78 395.63 17.18C396.01 16.58 396.533 16.1167 397.2 15.79C397.873 15.4633 398.643 15.3 399.51 15.3C400.377 15.3 401.143 15.4633 401.81 15.79C402.477 16.1167 403 16.58 403.38 17.18C403.76 17.78 403.95 18.49 403.95 19.31C403.95 20.0167 403.793 20.6533 403.48 21.22C403.167 21.7867 402.687 22.2633 402.04 22.65L402.01 21.95C402.77 22.3233 403.347 22.8567 403.74 23.55C404.133 24.2367 404.33 24.9933 404.33 25.82C404.33 26.7067 404.123 27.4867 403.71 28.16C403.297 28.8333 402.727 29.36 402 29.74C401.273 30.1133 400.443 30.3 399.51 30.3ZM399.51 28.31C400.283 28.31 400.91 28.1 401.39 27.68C401.87 27.2533 402.11 26.6333 402.11 25.82C402.11 25.0067 401.87 24.3867 401.39 23.96C400.917 23.5267 400.29 23.31 399.51 23.31C398.73 23.31 398.1 23.5267 397.62 23.96C397.147 24.3867 396.91 25.0067 396.91 25.82C396.91 26.6333 397.15 27.2533 397.63 27.68C398.11 28.1 398.737 28.31 399.51 28.31ZM399.51 21.31C400.17 21.31 400.703 21.1467 401.11 20.82C401.523 20.4867 401.73 19.9833 401.73 19.31C401.73 18.6367 401.523 18.1333 401.11 17.8C400.703 17.46 400.17 17.29 399.51 17.29C398.85 17.29 398.313 17.46 397.9 17.8C397.487 18.1333 397.28 18.6367 397.28 19.31C397.28 19.9833 397.487 20.4867 397.9 20.82C398.313 21.1467 398.85 21.31 399.51 21.31Z" fill="#3F3F46"/>
<rect x="378.75" y="0.75" width="42.5" height="42.5" rx="21.25" stroke="#FAA81A" stroke-width="1.5"/>
<path d="M453.58 15.31C454.507 15.31 455.343 15.5333 456.09 15.98C456.837 16.42 457.43 17.0267 457.87 17.8C458.31 18.5733 458.53 19.4567 458.53 20.45V25.03C458.53 26.0833 458.31 27.0067 457.87 27.8C457.437 28.5867 456.83 29.2 456.05 29.64C455.277 30.08 454.383 30.3 453.37 30.3C452.61 30.3 451.897 30.1567 451.23 29.87C450.563 29.5833 449.983 29.1567 449.49 28.59L451.03 27.16C451.303 27.5133 451.647 27.7967 452.06 28.01C452.473 28.2233 452.91 28.33 453.37 28.33C453.963 28.33 454.487 28.1867 454.94 27.9C455.4 27.6133 455.757 27.24 456.01 26.78C456.263 26.32 456.39 25.8267 456.39 25.3V22.66L456.81 23.12C456.397 23.66 455.883 24.0867 455.27 24.4C454.657 24.7133 454 24.87 453.3 24.87C452.4 24.87 451.6 24.6633 450.9 24.25C450.2 23.8367 449.647 23.2733 449.24 22.56C448.833 21.8467 448.63 21.04 448.63 20.14C448.63 19.24 448.857 18.4267 449.31 17.7C449.763 16.9733 450.363 16.3933 451.11 15.96C451.857 15.5267 452.68 15.31 453.58 15.31ZM453.58 17.33C453.06 17.33 452.583 17.4567 452.15 17.71C451.723 17.9567 451.383 18.2933 451.13 18.72C450.877 19.1467 450.75 19.62 450.75 20.14C450.75 20.66 450.877 21.1367 451.13 21.57C451.383 21.9967 451.723 22.3367 452.15 22.59C452.577 22.8433 453.05 22.97 453.57 22.97C454.09 22.97 454.563 22.8433 454.99 22.59C455.417 22.3367 455.757 21.9967 456.01 21.57C456.263 21.1367 456.39 20.66 456.39 20.14C456.39 19.6267 456.263 19.1567 456.01 18.73C455.763 18.3033 455.427 17.9633 455 17.71C454.573 17.4567 454.1 17.33 453.58 17.33Z" fill="#3F3F46"/>
<rect x="432.75" y="0.75" width="42.5" height="42.5" rx="21.25" stroke="#22C55E" stroke-width="1.5"/>
<path d="M500.91 30V17.9L498.2 19.55V17.22L500.91 15.6H503.04V30H500.91ZM511.858 30.3C510.878 30.3 510.011 30.0867 509.258 29.66C508.504 29.2267 507.911 28.6333 507.478 27.88C507.051 27.1267 506.838 26.26 506.838 25.28V20.32C506.838 19.34 507.051 18.4733 507.478 17.72C507.911 16.9667 508.504 16.3767 509.258 15.95C510.011 15.5167 510.878 15.3 511.858 15.3C512.838 15.3 513.704 15.5167 514.458 15.95C515.211 16.3767 515.801 16.9667 516.227 17.72C516.661 18.4733 516.878 19.34 516.878 20.32V25.28C516.878 26.26 516.661 27.1267 516.227 27.88C515.801 28.6333 515.211 29.2267 514.458 29.66C513.704 30.0867 512.838 30.3 511.858 30.3ZM511.858 28.3C512.391 28.3 512.874 28.1733 513.308 27.92C513.748 27.66 514.098 27.3133 514.358 26.88C514.618 26.44 514.748 25.95 514.748 25.41V20.17C514.748 19.6367 514.618 19.1533 514.358 18.72C514.098 18.28 513.748 17.9333 513.308 17.68C512.874 17.42 512.391 17.29 511.858 17.29C511.324 17.29 510.838 17.42 510.398 17.68C509.964 17.9333 509.618 18.28 509.358 18.72C509.098 19.1533 508.968 19.6367 508.968 20.17V25.41C508.968 25.95 509.098 26.44 509.358 26.88C509.618 27.3133 509.964 27.66 510.398 27.92C510.838 28.1733 511.324 28.3 511.858 28.3Z" fill="#3F3F46"/>
<rect x="486.75" y="0.75" width="42.5" height="42.5" rx="21.25" stroke="#22C55E" stroke-width="1.5"/>
</svg>
