<svg width="136" height="80" viewBox="0 0 136 80" fill="none" xmlns="http://www.w3.org/2000/svg">
<path d="M95.666 8.186C96.218 8.186 96.716 8.318 97.16 8.582C97.604 8.846 97.956 9.206 98.216 9.662C98.48 10.118 98.612 10.636 98.612 11.216V14.09C98.612 14.694 98.482 15.228 98.222 15.692C97.962 16.156 97.602 16.52 97.142 16.784C96.686 17.048 96.162 17.18 95.57 17.18C95.098 17.18 94.656 17.082 94.244 16.886C93.836 16.69 93.49 16.412 93.206 16.052L94.004 15.344C94.18 15.592 94.406 15.792 94.682 15.944C94.958 16.092 95.254 16.166 95.57 16.166C95.954 16.166 96.292 16.074 96.584 15.89C96.88 15.706 97.11 15.466 97.274 15.17C97.442 14.874 97.526 14.554 97.526 14.21V12.476L97.76 12.74C97.512 13.1 97.194 13.388 96.806 13.604C96.418 13.82 95.996 13.928 95.54 13.928C95.004 13.928 94.524 13.802 94.1 13.55C93.676 13.298 93.34 12.958 93.092 12.53C92.844 12.098 92.72 11.614 92.72 11.078C92.72 10.542 92.854 10.056 93.122 9.62C93.39 9.18 93.746 8.832 94.19 8.576C94.638 8.316 95.13 8.186 95.666 8.186ZM95.666 9.218C95.322 9.218 95.008 9.302 94.724 9.47C94.444 9.634 94.22 9.858 94.052 10.142C93.884 10.422 93.8 10.734 93.8 11.078C93.8 11.422 93.882 11.736 94.046 12.02C94.214 12.3 94.438 12.524 94.718 12.692C95.002 12.86 95.316 12.944 95.66 12.944C96.004 12.944 96.318 12.86 96.602 12.692C96.886 12.524 97.11 12.3 97.274 12.02C97.442 11.736 97.526 11.422 97.526 11.078C97.526 10.738 97.442 10.428 97.274 10.148C97.11 9.864 96.886 9.638 96.602 9.47C96.322 9.302 96.01 9.218 95.666 9.218Z" fill="#52525B"/>
<rect x="84.5625" y="0.5625" width="22.875" height="22.875" rx="11.4375" stroke="#22C55E" stroke-width="1.125"/>
<path d="M119.846 17V9.542L118.22 10.526V9.332L119.846 8.36H120.932V17H119.846ZM126.131 17.18C125.571 17.18 125.071 17.054 124.631 16.802C124.195 16.546 123.849 16.2 123.593 15.764C123.341 15.324 123.215 14.824 123.215 14.264V11.096C123.215 10.536 123.341 10.036 123.593 9.596C123.849 9.156 124.195 8.81 124.631 8.558C125.071 8.306 125.571 8.18 126.131 8.18C126.691 8.18 127.191 8.306 127.631 8.558C128.071 8.81 128.417 9.156 128.669 9.596C128.921 10.036 129.047 10.536 129.047 11.096V14.264C129.047 14.824 128.921 15.324 128.669 15.764C128.417 16.2 128.071 16.546 127.631 16.802C127.191 17.054 126.691 17.18 126.131 17.18ZM126.131 16.154C126.471 16.154 126.779 16.072 127.055 15.908C127.331 15.744 127.551 15.524 127.715 15.248C127.879 14.968 127.961 14.66 127.961 14.324V11.03C127.961 10.69 127.879 10.382 127.715 10.106C127.551 9.83 127.331 9.61 127.055 9.446C126.779 9.282 126.471 9.2 126.131 9.2C125.795 9.2 125.487 9.282 125.207 9.446C124.931 9.61 124.711 9.83 124.547 10.106C124.383 10.382 124.301 10.69 124.301 11.03V14.324C124.301 14.66 124.383 14.968 124.547 15.248C124.711 15.524 124.931 15.744 125.207 15.908C125.487 16.072 125.795 16.154 126.131 16.154Z" fill="#52525B"/>
<rect x="112.562" y="0.5625" width="22.875" height="22.875" rx="11.4375" stroke="#22C55E" stroke-width="1.125"/>
<path d="M67.786 45.18C67.238 45.18 66.74 45.048 66.292 44.784C65.848 44.52 65.494 44.16 65.23 43.704C64.97 43.244 64.84 42.726 64.84 42.15V39.276C64.84 38.672 64.97 38.138 65.23 37.674C65.494 37.206 65.854 36.842 66.31 36.582C66.77 36.318 67.294 36.186 67.882 36.186C68.358 36.186 68.8 36.284 69.208 36.48C69.62 36.672 69.966 36.95 70.246 37.314L69.448 38.022C69.276 37.77 69.052 37.57 68.776 37.422C68.5 37.274 68.202 37.2 67.882 37.2C67.502 37.2 67.164 37.292 66.868 37.476C66.576 37.656 66.346 37.896 66.178 38.196C66.01 38.492 65.926 38.812 65.926 39.156V40.89L65.692 40.626C65.944 40.266 66.264 39.978 66.652 39.762C67.04 39.546 67.46 39.438 67.912 39.438C68.448 39.438 68.928 39.564 69.352 39.816C69.78 40.068 70.116 40.41 70.36 40.842C70.608 41.27 70.732 41.752 70.732 42.288C70.732 42.824 70.598 43.31 70.33 43.746C70.062 44.182 69.704 44.53 69.256 44.79C68.812 45.05 68.322 45.18 67.786 45.18ZM67.786 44.148C68.13 44.148 68.444 44.066 68.728 43.902C69.012 43.734 69.236 43.51 69.4 43.23C69.568 42.946 69.652 42.632 69.652 42.288C69.652 41.944 69.568 41.63 69.4 41.346C69.236 41.062 69.012 40.838 68.728 40.674C68.448 40.506 68.136 40.422 67.792 40.422C67.448 40.422 67.134 40.506 66.85 40.674C66.57 40.838 66.346 41.062 66.178 41.346C66.01 41.63 65.926 41.944 65.926 42.288C65.926 42.628 66.008 42.94 66.172 43.224C66.34 43.504 66.564 43.728 66.844 43.896C67.128 44.064 67.442 44.148 67.786 44.148Z" fill="#52525B"/>
<rect x="56.5625" y="28.5625" width="22.875" height="22.875" rx="11.4375" stroke="#FAA81A" stroke-width="1.125"/>
<path d="M93.796 45L96.904 37.386H92.98V36.36H98.05V37.386L94.948 45H93.796Z" fill="#52525B"/>
<rect x="84.5625" y="28.5625" width="22.875" height="22.875" rx="11.4375" stroke="#FAA81A" stroke-width="1.125"/>
<path d="M123.54 45.18C122.988 45.18 122.5 45.07 122.076 44.85C121.652 44.626 121.32 44.316 121.08 43.92C120.84 43.524 120.72 43.062 120.72 42.534C120.72 42.018 120.842 41.552 121.086 41.136C121.334 40.72 121.706 40.4 122.202 40.176L122.184 40.566C121.78 40.37 121.47 40.094 121.254 39.738C121.038 39.378 120.93 38.98 120.93 38.544C120.93 38.056 121.042 37.636 121.266 37.284C121.49 36.932 121.798 36.66 122.19 36.468C122.582 36.276 123.032 36.18 123.54 36.18C124.048 36.18 124.498 36.276 124.89 36.468C125.282 36.66 125.59 36.932 125.814 37.284C126.038 37.636 126.15 38.056 126.15 38.544C126.15 38.98 126.048 39.376 125.844 39.732C125.64 40.084 125.326 40.362 124.902 40.566L124.878 40.182C125.374 40.398 125.746 40.716 125.994 41.136C126.246 41.552 126.372 42.018 126.372 42.534C126.372 43.062 126.25 43.524 126.006 43.92C125.766 44.316 125.432 44.626 125.004 44.85C124.58 45.07 124.092 45.18 123.54 45.18ZM123.54 44.16C124.044 44.16 124.452 44.022 124.764 43.746C125.08 43.466 125.238 43.062 125.238 42.534C125.238 42.002 125.082 41.598 124.77 41.322C124.462 41.042 124.052 40.902 123.54 40.902C123.032 40.902 122.622 41.042 122.31 41.322C122.002 41.598 121.848 42.002 121.848 42.534C121.848 43.062 122.004 43.466 122.316 43.746C122.628 44.022 123.036 44.16 123.54 44.16ZM123.54 39.876C123.98 39.876 124.336 39.766 124.608 39.546C124.88 39.322 125.016 38.988 125.016 38.544C125.016 38.1 124.88 37.768 124.608 37.548C124.336 37.324 123.98 37.212 123.54 37.212C123.104 37.212 122.748 37.324 122.472 37.548C122.2 37.768 122.064 38.1 122.064 38.544C122.064 38.988 122.2 39.322 122.472 39.546C122.748 39.766 123.104 39.876 123.54 39.876Z" fill="#52525B"/>
<rect x="112.562" y="28.5625" width="22.875" height="22.875" rx="11.4375" stroke="#FAA81A" stroke-width="1.125"/>
<path d="M11.846 73V65.542L10.22 66.526V65.332L11.846 64.36H12.932V73H11.846Z" fill="#52525B"/>
<rect x="0.5625" y="56.5625" width="22.875" height="22.875" rx="11.4375" stroke="#FE3F34" stroke-width="1.125"/>
<path d="M37.1 72.994L37.106 72.034L40.94 68.584C41.26 68.296 41.474 68.024 41.582 67.768C41.694 67.508 41.75 67.242 41.75 66.97C41.75 66.638 41.674 66.338 41.522 66.07C41.37 65.802 41.162 65.59 40.898 65.434C40.638 65.278 40.342 65.2 40.01 65.2C39.666 65.2 39.36 65.282 39.092 65.446C38.824 65.606 38.612 65.82 38.456 66.088C38.304 66.356 38.23 66.648 38.234 66.964H37.142C37.142 66.42 37.268 65.94 37.52 65.524C37.772 65.104 38.114 64.776 38.546 64.54C38.982 64.3 39.476 64.18 40.028 64.18C40.564 64.18 41.044 64.304 41.468 64.552C41.892 64.796 42.226 65.13 42.47 65.554C42.718 65.974 42.842 66.45 42.842 66.982C42.842 67.358 42.794 67.684 42.698 67.96C42.606 68.236 42.462 68.492 42.266 68.728C42.07 68.96 41.824 69.208 41.528 69.472L38.342 72.334L38.204 71.974H42.842V72.994H37.1Z" fill="#52525B"/>
<rect x="28.5625" y="56.5625" width="22.875" height="22.875" rx="11.4375" stroke="#FE3F34" stroke-width="1.125"/>
<path d="M67.71 73.168C67.282 73.168 66.884 73.09 66.516 72.934C66.148 72.774 65.83 72.55 65.562 72.262C65.298 71.97 65.104 71.624 64.98 71.224L66.006 70.93C66.138 71.33 66.358 71.634 66.666 71.842C66.974 72.05 67.32 72.152 67.704 72.148C68.056 72.14 68.36 72.06 68.616 71.908C68.876 71.752 69.076 71.54 69.216 71.272C69.36 71.004 69.432 70.694 69.432 70.342C69.432 69.806 69.272 69.372 68.952 69.04C68.632 68.704 68.212 68.536 67.692 68.536C67.548 68.536 67.396 68.556 67.236 68.596C67.08 68.636 66.934 68.692 66.798 68.764L66.282 67.918L69.486 65.02L69.624 65.38H65.322V64.36H70.416V65.386L67.686 68.002L67.674 67.624C68.246 67.584 68.746 67.678 69.174 67.906C69.602 68.134 69.934 68.46 70.17 68.884C70.41 69.308 70.53 69.794 70.53 70.342C70.53 70.894 70.406 71.382 70.158 71.806C69.91 72.23 69.574 72.564 69.15 72.808C68.726 73.048 68.246 73.168 67.71 73.168Z" fill="#52525B"/>
<rect x="56.5625" y="56.5625" width="22.875" height="22.875" rx="11.4375" stroke="#FE3F34" stroke-width="1.125"/>
<path d="M96.572 73V71.41H92.6V70.396L95.45 64.36H96.662L93.812 70.396H96.572V67.966H97.652V70.396H98.552V71.41H97.652V73H96.572Z" fill="#52525B"/>
<rect x="84.5625" y="56.5625" width="22.875" height="22.875" rx="11.4375" stroke="#FE3F34" stroke-width="1.125"/>
<path d="M123.896 73.18C123.452 73.18 123.038 73.088 122.654 72.904C122.274 72.72 121.948 72.468 121.676 72.148C121.408 71.824 121.216 71.452 121.1 71.032L122.126 70.756C122.198 71.04 122.326 71.286 122.51 71.494C122.694 71.698 122.908 71.858 123.152 71.974C123.4 72.086 123.658 72.142 123.926 72.142C124.278 72.142 124.594 72.058 124.874 71.89C125.158 71.718 125.382 71.492 125.546 71.212C125.71 70.928 125.792 70.618 125.792 70.282C125.792 69.934 125.706 69.62 125.534 69.34C125.366 69.056 125.14 68.832 124.856 68.668C124.572 68.504 124.262 68.422 123.926 68.422C123.546 68.422 123.22 68.502 122.948 68.662C122.68 68.818 122.468 69.01 122.312 69.238L121.364 68.878L121.628 64.36H126.266V65.374H122.144L122.618 64.93L122.396 68.548L122.162 68.242C122.402 67.986 122.688 67.788 123.02 67.648C123.356 67.508 123.698 67.438 124.046 67.438C124.582 67.438 125.062 67.564 125.486 67.816C125.91 68.064 126.246 68.404 126.494 68.836C126.742 69.264 126.866 69.746 126.866 70.282C126.866 70.814 126.73 71.3 126.458 71.74C126.186 72.176 125.824 72.526 125.372 72.79C124.924 73.05 124.432 73.18 123.896 73.18Z" fill="#52525B"/>
<rect x="112.562" y="56.5625" width="22.875" height="22.875" rx="11.4375" stroke="#FE3F34" stroke-width="1.125"/>
</svg>
