<svg width="161" height="38" viewBox="0 0 161 38" fill="none" xmlns="http://www.w3.org/2000/svg">
<path d="M51.7809 17.469C51.7809 26.128 44.7415 33.1469 36.0584 33.1469C33.3359 33.1469 30.775 32.4572 28.5421 31.2429C23.6531 28.5844 20.3359 23.4131 20.3359 17.469C20.3359 8.81038 27.3751 1.79102 36.0583 1.79102C44.7415 1.79102 51.7809 8.81038 51.7809 17.469Z" fill="white"/>
<path d="M42.3323 21.9278C40.6687 23.6375 38.6497 24.4929 36.2758 24.4929C34.827 24.4929 33.4809 24.2483 32.2189 23.538L32.2038 32.6416L32.0842 32.6095L32.0102 32.5904L31.9228 32.5432L31.8816 32.4688L31.8437 32.385L31.8857 32.3324L27.7227 27.3825L27.7239 15.6817C27.7239 13.2437 28.5556 11.173 30.2194 9.46943C31.8828 7.76573 33.9017 6.91406 36.2758 6.91406C38.6497 6.91406 40.6686 7.76876 42.3323 9.47875C43.9958 11.1885 44.8278 13.2635 44.8278 15.7034C44.8278 18.1435 43.9958 20.2182 42.3323 21.9278ZM39.1568 12.7399C38.3669 11.9274 37.4066 11.5213 36.2758 11.5213C35.1448 11.5213 34.1845 11.9274 33.3948 12.7399C32.6049 13.5524 32.21 14.5401 32.21 15.7037C32.21 16.8669 32.6048 17.8545 33.3948 18.667C34.1845 19.4797 35.1448 19.886 36.2758 19.886C37.4066 19.886 38.3669 19.4797 39.1568 18.667C39.9466 17.8545 40.3415 16.8669 40.3415 15.7037C40.3415 14.5401 39.9466 13.5523 39.1568 12.7399Z" fill="#147F52"/>
<path d="M42.0067 21.6053C40.343 23.3152 38.3242 24.1704 35.9503 24.1704C34.5014 24.1704 33.1463 23.8152 31.8845 23.1048L31.8832 32.5886C31.8832 32.5886 31.5761 32.5043 31.1764 32.3756C31.0778 32.3439 30.9783 32.3098 30.874 32.2732C30.8245 32.2556 30.8003 32.2452 30.7492 32.2307C30.6185 32.1931 30.4527 32.1205 30.325 32.071C29.8958 31.9043 29.548 31.7455 29.5396 31.7415C29.5312 31.7375 28.3026 31.1533 28.164 31.0668C28.04 30.9896 27.9295 30.929 27.8349 30.8611C27.8046 30.8398 27.7817 30.8243 27.7531 30.8045C27.528 30.6502 27.4022 30.5617 27.4022 30.5617L27.3984 15.3595C27.3984 12.9213 28.2302 10.8506 29.8939 9.14719C31.5575 7.44335 33.5763 6.5918 35.9504 6.5918C38.3244 6.5918 40.3431 7.4465 42.0068 9.15651C43.6703 10.8663 44.5025 12.9413 44.5025 15.381C44.5023 17.8209 43.6702 19.8955 42.0067 21.6053ZM38.8312 12.4174C38.0412 11.6049 37.081 11.1988 35.9501 11.1988C34.8191 11.1988 33.8588 11.6049 33.0692 12.4174C32.2792 13.2299 31.8844 14.2176 31.8844 15.381C31.8844 16.5444 32.2792 17.532 33.0692 18.3444C33.8588 19.1573 34.8191 19.5635 35.9501 19.5635C37.0809 19.5635 38.0412 19.1573 38.8312 18.3444C39.6209 17.532 40.016 16.5444 40.016 15.381C40.016 14.2176 39.6209 13.2299 38.8312 12.4174Z" fill="#20B276"/>
<path d="M55.7227 27.9635V7.72231C55.7227 7.42299 55.8366 7.15979 56.0643 6.93256C56.2917 6.70548 56.5554 6.5918 56.8557 6.5918H62.4894C64.362 6.5918 65.9581 7.25055 67.2772 8.56743C68.5962 9.88433 69.2559 11.4776 69.2559 13.3471C69.2559 15.2064 68.5953 16.797 67.2746 18.1193C65.9534 19.4415 64.3554 20.1023 62.4802 20.1023H59.092C58.3462 20.1023 57.9731 19.7259 57.9731 18.9726V27.9642C57.9731 28.7175 57.598 29.094 56.848 29.094C56.0977 29.094 55.7227 28.7173 55.7227 27.9635ZM57.9731 18.9726C57.9731 18.2298 58.3462 17.8585 59.0925 17.8585H62.4816C63.7251 17.8585 64.7903 17.4186 65.6763 16.5387C66.5626 15.6587 67.0057 14.5973 67.0057 13.355C67.0057 12.1129 66.5626 11.0491 65.6763 10.1638C64.7903 9.27876 63.7251 8.83598 62.4816 8.83598H57.9731V18.9726Z" fill="white"/>
<path d="M82.0602 27.9634C82.0602 28.7174 81.6825 29.0943 80.9273 29.0943C80.1721 29.0943 79.7997 28.7179 79.81 27.9646C78.8063 28.7179 77.6784 29.0943 76.4267 29.0943C74.8747 29.0943 73.5451 28.5451 72.4381 27.4463C71.3308 26.3475 70.7773 25.0241 70.7773 23.4765C70.7773 21.9289 71.3308 20.6033 72.4381 19.4992C73.5451 18.3953 74.8747 17.8432 76.4267 17.8432C77.6784 17.8432 78.8063 18.22 79.81 18.973C79.81 18.0404 79.4786 17.2424 78.8169 16.5788C78.1544 15.9155 77.3579 15.5838 76.4267 15.5838C75.7748 15.5838 75.1204 15.8109 74.4635 16.2647C73.8062 16.7189 73.4004 16.9457 73.2452 16.9457C72.9348 16.9457 72.6633 16.8292 72.4303 16.596C72.1976 16.363 72.0811 16.0909 72.0811 15.78C72.0811 15.5314 72.2 15.2674 72.4381 14.9873C73.3591 13.889 74.6885 13.3398 76.4267 13.3398C77.9788 13.3398 79.3056 13.89 80.4076 14.9897C81.5095 16.0896 82.0604 17.4141 82.0604 18.9633V27.9634H82.0602ZM79.81 23.4689C79.81 22.5383 79.4779 21.742 78.8143 21.0801C78.1507 20.4183 77.352 20.0873 76.419 20.0873C75.4855 20.0873 74.6871 20.4183 74.0234 21.0801C73.3598 21.742 73.028 22.5383 73.028 23.4689C73.028 24.3995 73.3598 25.1958 74.0234 25.8576C74.6871 26.5194 75.4858 26.8503 76.419 26.8503C77.352 26.8503 78.1507 26.5194 78.8143 25.8576C79.4779 25.1958 79.81 24.3995 79.81 23.4689Z" fill="white"/>
<path d="M100.838 21.209C100.838 23.3882 100.068 25.247 98.5259 26.786C96.984 28.3249 95.1218 29.0942 92.9388 29.0942C90.7661 29.0942 88.9088 28.3251 87.3671 26.7867C85.8254 25.2484 85.0547 23.3901 85.0547 21.2115V7.72231C85.0547 6.9688 85.4323 6.5918 86.1878 6.5918C86.9327 6.5918 87.3051 6.96903 87.3051 7.72353V15.7072C88.8571 14.1287 90.7348 13.3393 92.9388 13.3393C95.1218 13.3393 96.984 14.1088 98.5259 15.6476C100.068 17.1866 100.838 19.0404 100.838 21.209ZM98.5879 21.209C98.5879 19.6697 98.0342 18.3475 96.9274 17.2418C95.8202 16.1362 94.4908 15.5834 92.9388 15.5834C91.3971 15.5834 90.0728 16.1362 88.9658 17.2418C87.8586 18.3475 87.3051 19.6697 87.3051 21.209C87.3051 22.7587 87.8586 24.0863 88.9658 25.1919C90.0728 26.2976 91.3971 26.8501 92.9388 26.8501C94.4908 26.8501 95.8202 26.2976 96.9274 25.1919C98.0342 24.0863 98.5879 22.7587 98.5879 21.209Z" fill="white"/>
<path d="M118.889 21.209C118.889 23.3882 118.118 25.247 116.577 26.786C115.035 28.3249 113.173 29.0942 110.99 29.0942C108.817 29.0942 106.96 28.3251 105.418 26.7867C103.876 25.2484 103.105 23.3901 103.105 21.2115V7.72231C103.105 6.9688 103.483 6.5918 104.239 6.5918C104.983 6.5918 105.356 6.96903 105.356 7.72353V15.7072C106.908 14.1287 108.786 13.3393 110.989 13.3393C113.173 13.3393 115.035 14.1088 116.577 15.6476C118.118 17.1866 118.889 19.0404 118.889 21.209ZM116.639 21.209C116.639 19.6697 116.085 18.3475 114.978 17.2418C113.871 16.1362 112.542 15.5834 110.99 15.5834C109.448 15.5834 108.123 16.1362 107.017 17.2418C105.909 18.3475 105.356 19.6697 105.356 21.209C105.356 22.7587 105.909 24.0863 107.017 25.1919C108.123 26.2976 109.448 26.8501 110.99 26.8501C112.542 26.8501 113.871 26.2976 114.978 25.1919C116.085 24.0863 116.639 22.7587 116.639 21.209Z" fill="white"/>
<path d="M126.786 27.9642C126.786 28.7175 126.408 29.094 125.653 29.094C124.421 29.094 123.364 28.6527 122.479 27.7698C121.595 26.8872 121.152 25.8263 121.152 24.5872V7.72231C121.152 6.9688 121.53 6.5918 122.285 6.5918C123.03 6.5918 123.403 6.9688 123.403 7.72254V24.5888C123.403 25.2083 123.625 25.7401 124.07 26.1842C124.515 26.628 125.042 26.8501 125.653 26.8501C126.408 26.8501 126.786 27.2214 126.786 27.9642Z" fill="white"/>
<path d="M140.338 30.2203C140.338 31.7586 139.787 33.0801 138.685 34.1849C137.583 35.2891 136.256 35.8419 134.704 35.8419C133.731 35.8419 132.795 35.5888 131.895 35.0837C130.964 34.5675 130.275 33.8919 129.831 33.0561C129.717 32.829 129.66 32.628 129.66 32.4528C129.66 32.1532 129.781 31.893 130.025 31.6713C130.268 31.4491 130.539 31.3385 130.84 31.3385C131.098 31.3385 131.566 31.715 132.244 32.4683C132.922 33.2212 133.742 33.5979 134.704 33.5979C135.635 33.5979 136.432 33.2675 137.094 32.6076C137.756 31.947 138.087 31.1528 138.087 30.2242V27.9647C137.084 28.718 135.956 29.0945 134.704 29.0945C133.152 29.0945 131.825 28.5445 130.723 27.4448C129.621 26.345 129.07 25.0204 129.07 23.471V14.4553C129.07 13.7117 129.448 13.3398 130.203 13.3398C130.948 13.3398 131.32 13.7117 131.32 14.4553V23.4727C131.32 24.4026 131.652 25.1979 132.314 25.8589C132.976 26.5202 133.773 26.8504 134.704 26.8504C135.635 26.8504 136.432 26.5202 137.094 25.8589C137.756 25.1979 138.087 24.4024 138.087 23.4727V14.4553C138.087 13.7117 138.465 13.3398 139.22 13.3398C139.965 13.3398 140.337 13.7115 140.337 14.4548V30.2203H140.338Z" fill="white"/>
</svg>
