<svg width="24" height="24" viewBox="0 0 24 24" fill="none" xmlns="http://www.w3.org/2000/svg">
<rect x="4" y="4" width="16" height="16" rx="4" fill="#FE3F34"/>
<path d="M7.3645 12.854C6.88705 12.854 6.5 12.4669 6.5 11.9895C6.5 11.5121 6.88705 11.125 7.3645 11.125C7.84195 11.125 8.229 11.5121 8.229 11.9895C8.229 12.4669 7.84195 12.854 7.3645 12.854Z" fill="white"/>
<path d="M10.7415 12.854C10.264 12.854 9.87695 12.4669 9.87695 11.9895C9.87695 11.5121 10.264 11.125 10.7415 11.125C11.2189 11.125 11.606 11.5121 11.606 11.9895C11.606 12.4669 11.2189 12.854 10.7415 12.854Z" fill="white"/>
<path d="M14.1184 12.854C13.641 12.854 13.2539 12.4669 13.2539 11.9895C13.2539 11.5121 13.641 11.125 14.1184 11.125C14.5959 11.125 14.9829 11.5121 14.9829 11.9895C14.9829 12.4669 14.5959 12.854 14.1184 12.854Z" fill="white"/>
<path fill-rule="evenodd" clip-rule="evenodd" d="M17 8.5C17.3624 8.5 17.6562 8.79381 17.6562 9.15625V14.8438C17.6562 15.2062 17.3624 15.5 17 15.5C16.6376 15.5 16.3438 15.2062 16.3438 14.8438V9.15625C16.3438 8.79381 16.6376 8.5 17 8.5Z" fill="white"/>
</svg>
