<svg width="24" height="24" viewBox="0 0 24 24" fill="none" xmlns="http://www.w3.org/2000/svg">
<path fill-rule="evenodd" clip-rule="evenodd" d="M12.2587 2.09808L19.7657 4.50608C20.1224 4.6205 20.3856 4.92564 20.4462 5.2953C21.0126 8.74968 21.2464 10.8058 20.6538 14.1532C20.6358 14.2549 20.6008 14.3553 20.5516 14.4462C18.6547 17.9456 16.5444 19.5888 12.4274 21.753C12.1321 21.9083 11.777 21.9036 11.486 21.7404C7.22614 19.3524 5.3994 17.732 3.62499 14.4297C3.58193 14.3496 3.54979 14.2618 3.53066 14.1729C2.86592 11.0818 2.80885 9.04645 3.45508 5.28434C3.51757 4.92055 3.77941 4.62201 4.13088 4.50926L11.6478 2.09808C11.8464 2.03436 12.06 2.03436 12.2587 2.09808ZM12 8.75011C11.3096 8.75011 10.75 9.30975 10.75 10.0001C10.75 10.5704 11.1325 11.0532 11.6564 11.2025C11.7647 11.2333 11.8798 11.2501 12 11.2501C12.2177 11.2501 12.4202 11.1951 12.5968 11.0989C12.9876 10.8859 13.25 10.4731 13.25 10.0001C13.25 9.30975 12.6904 8.75011 12 8.75011ZM9.25 10.0001C9.25 8.48132 10.4812 7.25011 12 7.25011C13.5188 7.25011 14.75 8.48132 14.75 10.0001C14.75 10.8548 14.3599 11.6176 13.75 12.1214V14.0001C13.75 14.9666 12.9665 15.7501 12 15.7501C11.0335 15.7501 10.25 14.9666 10.25 14.0001V12.1213C9.63942 11.6172 9.25 10.8546 9.25 10.0001ZM12 12.7501C12.0842 12.7501 12.1676 12.7463 12.25 12.7389V14.0001C12.25 14.1382 12.1381 14.2501 12 14.2501C11.8619 14.2501 11.75 14.1382 11.75 14.0001V12.7388C11.8325 12.7463 11.9158 12.7501 12 12.7501Z" fill="white"/>
</svg>
