<svg width="512" height="512" viewBox="0 0 512 512" fill="none" xmlns="http://www.w3.org/2000/svg">
<rect x="0.5" y="0.5" width="511" height="511" fill="white"/>
<path d="M29.0508 29.0508H40.1215V40.1215H29.0508V29.0508ZM40.1215 29.0508H51.1923V40.1215H40.1215V29.0508ZM51.1923 29.0508H62.263V40.1215H51.1923V29.0508ZM62.263 29.0508H73.3338V40.1215H62.263V29.0508ZM73.3338 29.0508H84.4045V40.1215H73.3338V29.0508ZM84.4045 29.0508H95.4753V40.1215H84.4045V29.0508ZM95.4753 29.0508H106.546V40.1215H95.4753V29.0508ZM139.758 29.0508H150.829V40.1215H139.758V29.0508ZM150.829 29.0508H161.9V40.1215H150.829V29.0508ZM161.9 29.0508H172.971V40.1215H161.9V29.0508ZM184.041 29.0508H195.112V40.1215H184.041V29.0508ZM195.112 29.0508H206.183V40.1215H195.112V29.0508ZM228.324 29.0508H239.395V40.1215H228.324V29.0508ZM272.607 29.0508H283.678V40.1215H272.607V29.0508ZM294.749 29.0508H305.819V40.1215H294.749V29.0508ZM305.819 29.0508H316.89V40.1215H305.819V29.0508ZM327.961 29.0508H339.032V40.1215H327.961V29.0508ZM339.032 29.0508H350.102V40.1215H339.032V29.0508ZM350.102 29.0508H361.173V40.1215H350.102V29.0508ZM361.173 29.0508H372.244V40.1215H361.173V29.0508ZM405.456 29.0508H416.527V40.1215H405.456V29.0508ZM416.527 29.0508H427.598V40.1215H416.527V29.0508ZM427.598 29.0508H438.668V40.1215H427.598V29.0508ZM438.668 29.0508H449.739V40.1215H438.668V29.0508ZM449.739 29.0508H460.81V40.1215H449.739V29.0508ZM460.81 29.0508H471.881V40.1215H460.81V29.0508ZM471.881 29.0508H482.951V40.1215H471.881V29.0508ZM29.0508 40.1215H40.1215V51.1923H29.0508V40.1215ZM95.4753 40.1215H106.546V51.1923H95.4753V40.1215ZM128.688 40.1215H139.758V51.1923H128.688V40.1215ZM195.112 40.1215H206.183V51.1923H195.112V40.1215ZM217.254 40.1215H228.324V51.1923H217.254V40.1215ZM228.324 40.1215H239.395V51.1923H228.324V40.1215ZM272.607 40.1215H283.678V51.1923H272.607V40.1215ZM283.678 40.1215H294.749V51.1923H283.678V40.1215ZM294.749 40.1215H305.819V51.1923H294.749V40.1215ZM305.819 40.1215H316.89V51.1923H305.819V40.1215ZM316.89 40.1215H327.961V51.1923H316.89V40.1215ZM339.032 40.1215H350.102V51.1923H339.032V40.1215ZM350.102 40.1215H361.173V51.1923H350.102V40.1215ZM372.244 40.1215H383.315V51.1923H372.244V40.1215ZM383.315 40.1215H394.385V51.1923H383.315V40.1215ZM405.456 40.1215H416.527V51.1923H405.456V40.1215ZM471.881 40.1215H482.951V51.1923H471.881V40.1215ZM29.0508 51.1923H40.1215V62.263H29.0508V51.1923ZM51.1923 51.1923H62.263V62.263H51.1923V51.1923ZM62.263 51.1923H73.3338V62.263H62.263V51.1923ZM73.3338 51.1923H84.4045V62.263H73.3338V51.1923ZM95.4753 51.1923H106.546V62.263H95.4753V51.1923ZM117.617 51.1923H128.688V62.263H117.617V51.1923ZM128.688 51.1923H139.758V62.263H128.688V51.1923ZM161.9 51.1923H172.971V62.263H161.9V51.1923ZM195.112 51.1923H206.183V62.263H195.112V51.1923ZM228.324 51.1923H239.395V62.263H228.324V51.1923ZM250.466 51.1923H261.536V62.263H250.466V51.1923ZM261.536 51.1923H272.607V62.263H261.536V51.1923ZM272.607 51.1923H283.678V62.263H272.607V51.1923ZM316.89 51.1923H327.961V62.263H316.89V51.1923ZM372.244 51.1923H383.315V62.263H372.244V51.1923ZM383.315 51.1923H394.385V62.263H383.315V51.1923ZM405.456 51.1923H416.527V62.263H405.456V51.1923ZM427.598 51.1923H438.668V62.263H427.598V51.1923ZM438.668 51.1923H449.739V62.263H438.668V51.1923ZM449.739 51.1923H460.81V62.263H449.739V51.1923ZM471.881 51.1923H482.951V62.263H471.881V51.1923ZM29.0508 62.263H40.1215V73.3338H29.0508V62.263ZM51.1923 62.263H62.263V73.3338H51.1923V62.263ZM62.263 62.263H73.3338V73.3338H62.263V62.263ZM73.3338 62.263H84.4045V73.3338H73.3338V62.263ZM95.4753 62.263H106.546V73.3338H95.4753V62.263ZM128.688 62.263H139.758V73.3338H128.688V62.263ZM139.758 62.263H150.829V73.3338H139.758V62.263ZM161.9 62.263H172.971V73.3338H161.9V62.263ZM195.112 62.263H206.183V73.3338H195.112V62.263ZM206.183 62.263H217.254V73.3338H206.183V62.263ZM228.324 62.263H239.395V73.3338H228.324V62.263ZM239.395 62.263H250.466V73.3338H239.395V62.263ZM261.536 62.263H272.607V73.3338H261.536V62.263ZM350.102 62.263H361.173V73.3338H350.102V62.263ZM361.173 62.263H372.244V73.3338H361.173V62.263ZM372.244 62.263H383.315V73.3338H372.244V62.263ZM405.456 62.263H416.527V73.3338H405.456V62.263ZM427.598 62.263H438.668V73.3338H427.598V62.263ZM438.668 62.263H449.739V73.3338H438.668V62.263ZM449.739 62.263H460.81V73.3338H449.739V62.263ZM471.881 62.263H482.951V73.3338H471.881V62.263ZM29.0508 73.3338H40.1215V84.4045H29.0508V73.3338ZM51.1923 73.3338H62.263V84.4045H51.1923V73.3338ZM62.263 73.3338H73.3338V84.4045H62.263V73.3338ZM73.3338 73.3338H84.4045V84.4045H73.3338V73.3338ZM95.4753 73.3338H106.546V84.4045H95.4753V73.3338ZM117.617 73.3338H128.688V84.4045H117.617V73.3338ZM172.971 73.3338H184.041V84.4045H172.971V73.3338ZM184.041 73.3338H195.112V84.4045H184.041V73.3338ZM206.183 73.3338H217.254V84.4045H206.183V73.3338ZM283.678 73.3338H294.749V84.4045H283.678V73.3338ZM294.749 73.3338H305.819V84.4045H294.749V73.3338ZM305.819 73.3338H316.89V84.4045H305.819V73.3338ZM327.961 73.3338H339.032V84.4045H327.961V73.3338ZM339.032 73.3338H350.102V84.4045H339.032V73.3338ZM361.173 73.3338H372.244V84.4045H361.173V73.3338ZM383.315 73.3338H394.385V84.4045H383.315V73.3338ZM405.456 73.3338H416.527V84.4045H405.456V73.3338ZM427.598 73.3338H438.668V84.4045H427.598V73.3338ZM438.668 73.3338H449.739V84.4045H438.668V73.3338ZM449.739 73.3338H460.81V84.4045H449.739V73.3338ZM471.881 73.3338H482.951V84.4045H471.881V73.3338ZM29.0508 84.4045H40.1215V95.4753H29.0508V84.4045ZM95.4753 84.4045H106.546V95.4753H95.4753V84.4045ZM117.617 84.4045H128.688V95.4753H117.617V84.4045ZM139.758 84.4045H150.829V95.4753H139.758V84.4045ZM172.971 84.4045H184.041V95.4753H172.971V84.4045ZM195.112 84.4045H206.183V95.4753H195.112V84.4045ZM206.183 84.4045H217.254V95.4753H206.183V84.4045ZM239.395 84.4045H250.466V95.4753H239.395V84.4045ZM272.607 84.4045H283.678V95.4753H272.607V84.4045ZM316.89 84.4045H327.961V95.4753H316.89V84.4045ZM339.032 84.4045H350.102V95.4753H339.032V84.4045ZM361.173 84.4045H372.244V95.4753H361.173V84.4045ZM372.244 84.4045H383.315V95.4753H372.244V84.4045ZM405.456 84.4045H416.527V95.4753H405.456V84.4045ZM471.881 84.4045H482.951V95.4753H471.881V84.4045ZM29.0508 95.4753H40.1215V106.546H29.0508V95.4753ZM40.1215 95.4753H51.1923V106.546H40.1215V95.4753ZM51.1923 95.4753H62.263V106.546H51.1923V95.4753ZM62.263 95.4753H73.3338V106.546H62.263V95.4753ZM73.3338 95.4753H84.4045V106.546H73.3338V95.4753ZM84.4045 95.4753H95.4753V106.546H84.4045V95.4753ZM95.4753 95.4753H106.546V106.546H95.4753V95.4753ZM117.617 95.4753H128.688V106.546H117.617V95.4753ZM139.758 95.4753H150.829V106.546H139.758V95.4753ZM161.9 95.4753H172.971V106.546H161.9V95.4753ZM184.041 95.4753H195.112V106.546H184.041V95.4753ZM206.183 95.4753H217.254V106.546H206.183V95.4753ZM228.324 95.4753H239.395V106.546H228.324V95.4753ZM250.466 95.4753H261.536V106.546H250.466V95.4753ZM272.607 95.4753H283.678V106.546H272.607V95.4753ZM294.749 95.4753H305.819V106.546H294.749V95.4753ZM316.89 95.4753H327.961V106.546H316.89V95.4753ZM339.032 95.4753H350.102V106.546H339.032V95.4753ZM361.173 95.4753H372.244V106.546H361.173V95.4753ZM383.315 95.4753H394.385V106.546H383.315V95.4753ZM405.456 95.4753H416.527V106.546H405.456V95.4753ZM416.527 95.4753H427.598V106.546H416.527V95.4753ZM427.598 95.4753H438.668V106.546H427.598V95.4753ZM438.668 95.4753H449.739V106.546H438.668V95.4753ZM449.739 95.4753H460.81V106.546H449.739V95.4753ZM460.81 95.4753H471.881V106.546H460.81V95.4753ZM471.881 95.4753H482.951V106.546H471.881V95.4753ZM128.688 106.546H139.758V117.617H128.688V106.546ZM150.829 106.546H161.9V117.617H150.829V106.546ZM161.9 106.546H172.971V117.617H161.9V106.546ZM172.971 106.546H184.041V117.617H172.971V106.546ZM184.041 106.546H195.112V117.617H184.041V106.546ZM228.324 106.546H239.395V117.617H228.324V106.546ZM261.536 106.546H272.607V117.617H261.536V106.546ZM283.678 106.546H294.749V117.617H283.678V106.546ZM350.102 106.546H361.173V117.617H350.102V106.546ZM361.173 106.546H372.244V117.617H361.173V106.546ZM372.244 106.546H383.315V117.617H372.244V106.546ZM40.1215 117.617H51.1923V128.688H40.1215V117.617ZM73.3338 117.617H84.4045V128.688H73.3338V117.617ZM95.4753 117.617H106.546V128.688H95.4753V117.617ZM117.617 117.617H128.688V128.688H117.617V117.617ZM128.688 117.617H139.758V128.688H128.688V117.617ZM139.758 117.617H150.829V128.688H139.758V117.617ZM161.9 117.617H172.971V128.688H161.9V117.617ZM184.041 117.617H195.112V128.688H184.041V117.617ZM206.183 117.617H217.254V128.688H206.183V117.617ZM228.324 117.617H239.395V128.688H228.324V117.617ZM250.466 117.617H261.536V128.688H250.466V117.617ZM272.607 117.617H283.678V128.688H272.607V117.617ZM327.961 117.617H339.032V128.688H327.961V117.617ZM339.032 117.617H350.102V128.688H339.032V117.617ZM350.102 117.617H361.173V128.688H350.102V117.617ZM372.244 117.617H383.315V128.688H372.244V117.617ZM383.315 117.617H394.385V128.688H383.315V117.617ZM394.385 117.617H405.456V128.688H394.385V117.617ZM416.527 117.617H427.598V128.688H416.527V117.617ZM427.598 117.617H438.668V128.688H427.598V117.617ZM449.739 117.617H460.81V128.688H449.739V117.617ZM29.0508 128.688H40.1215V139.758H29.0508V128.688ZM51.1923 128.688H62.263V139.758H51.1923V128.688ZM62.263 128.688H73.3338V139.758H62.263V128.688ZM73.3338 128.688H84.4045V139.758H73.3338V128.688ZM84.4045 128.688H95.4753V139.758H84.4045V128.688ZM106.546 128.688H117.617V139.758H106.546V128.688ZM184.041 128.688H195.112V139.758H184.041V128.688ZM195.112 128.688H206.183V139.758H195.112V128.688ZM206.183 128.688H217.254V139.758H206.183V128.688ZM217.254 128.688H228.324V139.758H217.254V128.688ZM228.324 128.688H239.395V139.758H228.324V128.688ZM239.395 128.688H250.466V139.758H239.395V128.688ZM250.466 128.688H261.536V139.758H250.466V128.688ZM261.536 128.688H272.607V139.758H261.536V128.688ZM272.607 128.688H283.678V139.758H272.607V128.688ZM294.749 128.688H305.819V139.758H294.749V128.688ZM316.89 128.688H327.961V139.758H316.89V128.688ZM327.961 128.688H339.032V139.758H327.961V128.688ZM339.032 128.688H350.102V139.758H339.032V128.688ZM350.102 128.688H361.173V139.758H350.102V128.688ZM405.456 128.688H416.527V139.758H405.456V128.688ZM416.527 128.688H427.598V139.758H416.527V128.688ZM427.598 128.688H438.668V139.758H427.598V128.688ZM438.668 128.688H449.739V139.758H438.668V128.688ZM460.81 128.688H471.881V139.758H460.81V128.688ZM471.881 128.688H482.951V139.758H471.881V128.688ZM29.0508 139.758H40.1215V150.829H29.0508V139.758ZM40.1215 139.758H51.1923V150.829H40.1215V139.758ZM95.4753 139.758H106.546V150.829H95.4753V139.758ZM106.546 139.758H117.617V150.829H106.546V139.758ZM139.758 139.758H150.829V150.829H139.758V139.758ZM150.829 139.758H161.9V150.829H150.829V139.758ZM172.971 139.758H184.041V150.829H172.971V139.758ZM228.324 139.758H239.395V150.829H228.324V139.758ZM239.395 139.758H250.466V150.829H239.395V139.758ZM261.536 139.758H272.607V150.829H261.536V139.758ZM272.607 139.758H283.678V150.829H272.607V139.758ZM294.749 139.758H305.819V150.829H294.749V139.758ZM327.961 139.758H339.032V150.829H327.961V139.758ZM361.173 139.758H372.244V150.829H361.173V139.758ZM383.315 139.758H394.385V150.829H383.315V139.758ZM405.456 139.758H416.527V150.829H405.456V139.758ZM471.881 139.758H482.951V150.829H471.881V139.758ZM40.1215 150.829H51.1923V161.9H40.1215V150.829ZM51.1923 150.829H62.263V161.9H51.1923V150.829ZM62.263 150.829H73.3338V161.9H62.263V150.829ZM106.546 150.829H117.617V161.9H106.546V150.829ZM117.617 150.829H128.688V161.9H117.617V150.829ZM128.688 150.829H139.758V161.9H128.688V150.829ZM150.829 150.829H161.9V161.9H150.829V150.829ZM161.9 150.829H172.971V161.9H161.9V150.829ZM172.971 150.829H184.041V161.9H172.971V150.829ZM195.112 150.829H206.183V161.9H195.112V150.829ZM206.183 150.829H217.254V161.9H206.183V150.829ZM228.324 150.829H239.395V161.9H228.324V150.829ZM294.749 150.829H305.819V161.9H294.749V150.829ZM316.89 150.829H327.961V161.9H316.89V150.829ZM350.102 150.829H361.173V161.9H350.102V150.829ZM372.244 150.829H383.315V161.9H372.244V150.829ZM383.315 150.829H394.385V161.9H383.315V150.829ZM405.456 150.829H416.527V161.9H405.456V150.829ZM416.527 150.829H427.598V161.9H416.527V150.829ZM438.668 150.829H449.739V161.9H438.668V150.829ZM29.0508 161.9H40.1215V172.971H29.0508V161.9ZM40.1215 161.9H51.1923V172.971H40.1215V161.9ZM51.1923 161.9H62.263V172.971H51.1923V161.9ZM73.3338 161.9H84.4045V172.971H73.3338V161.9ZM84.4045 161.9H95.4753V172.971H84.4045V161.9ZM95.4753 161.9H106.546V172.971H95.4753V161.9ZM117.617 161.9H128.688V172.971H117.617V161.9ZM128.688 161.9H139.758V172.971H128.688V161.9ZM161.9 161.9H172.971V172.971H161.9V161.9ZM172.971 161.9H184.041V172.971H172.971V161.9ZM195.112 161.9H206.183V172.971H195.112V161.9ZM206.183 161.9H217.254V172.971H206.183V161.9ZM217.254 161.9H228.324V172.971H217.254V161.9ZM228.324 161.9H239.395V172.971H228.324V161.9ZM261.536 161.9H272.607V172.971H261.536V161.9ZM272.607 161.9H283.678V172.971H272.607V161.9ZM283.678 161.9H294.749V172.971H283.678V161.9ZM350.102 161.9H361.173V172.971H350.102V161.9ZM383.315 161.9H394.385V172.971H383.315V161.9ZM460.81 161.9H471.881V172.971H460.81V161.9ZM471.881 161.9H482.951V172.971H471.881V161.9ZM40.1215 172.971H51.1923V184.041H40.1215V172.971ZM106.546 172.971H117.617V184.041H106.546V172.971ZM139.758 172.971H150.829V184.041H139.758V172.971ZM150.829 172.971H161.9V184.041H150.829V172.971ZM239.395 172.971H250.466V184.041H239.395V172.971ZM250.466 172.971H261.536V184.041H250.466V172.971ZM261.536 172.971H272.607V184.041H261.536V172.971ZM294.749 172.971H305.819V184.041H294.749V172.971ZM305.819 172.971H316.89V184.041H305.819V172.971ZM316.89 172.971H327.961V184.041H316.89V172.971ZM339.032 172.971H350.102V184.041H339.032V172.971ZM361.173 172.971H372.244V184.041H361.173V172.971ZM372.244 172.971H383.315V184.041H372.244V172.971ZM383.315 172.971H394.385V184.041H383.315V172.971ZM394.385 172.971H405.456V184.041H394.385V172.971ZM405.456 172.971H416.527V184.041H405.456V172.971ZM416.527 172.971H427.598V184.041H416.527V172.971ZM427.598 172.971H438.668V184.041H427.598V172.971ZM438.668 172.971H449.739V184.041H438.668V172.971ZM449.739 172.971H460.81V184.041H449.739V172.971ZM471.881 172.971H482.951V184.041H471.881V172.971ZM73.3338 184.041H84.4045V195.112H73.3338V184.041ZM84.4045 184.041H95.4753V195.112H84.4045V184.041ZM95.4753 184.041H106.546V195.112H95.4753V184.041ZM106.546 184.041H117.617V195.112H106.546V184.041ZM150.829 184.041H161.9V195.112H150.829V184.041ZM161.9 184.041H172.971V195.112H161.9V184.041ZM184.041 184.041H195.112V195.112H184.041V184.041ZM195.112 184.041H206.183V195.112H195.112V184.041ZM228.324 184.041H239.395V195.112H228.324V184.041ZM239.395 184.041H250.466V195.112H239.395V184.041ZM250.466 184.041H261.536V195.112H250.466V184.041ZM261.536 184.041H272.607V195.112H261.536V184.041ZM283.678 184.041H294.749V195.112H283.678V184.041ZM294.749 184.041H305.819V195.112H294.749V184.041ZM316.89 184.041H327.961V195.112H316.89V184.041ZM339.032 184.041H350.102V195.112H339.032V184.041ZM350.102 184.041H361.173V195.112H350.102V184.041ZM394.385 184.041H405.456V195.112H394.385V184.041ZM405.456 184.041H416.527V195.112H405.456V184.041ZM416.527 184.041H427.598V195.112H416.527V184.041ZM427.598 184.041H438.668V195.112H427.598V184.041ZM449.739 184.041H460.81V195.112H449.739V184.041ZM471.881 184.041H482.951V195.112H471.881V184.041ZM29.0508 195.112H40.1215V206.183H29.0508V195.112ZM40.1215 195.112H51.1923V206.183H40.1215V195.112ZM62.263 195.112H73.3338V206.183H62.263V195.112ZM73.3338 195.112H84.4045V206.183H73.3338V195.112ZM128.688 195.112H139.758V206.183H128.688V195.112ZM139.758 195.112H150.829V206.183H139.758V195.112ZM150.829 195.112H161.9V206.183H150.829V195.112ZM172.971 195.112H184.041V206.183H172.971V195.112ZM195.112 195.112H206.183V206.183H195.112V195.112ZM217.254 195.112H228.324V206.183H217.254V195.112ZM228.324 195.112H239.395V206.183H228.324V195.112ZM239.395 195.112H250.466V206.183H239.395V195.112ZM261.536 195.112H272.607V206.183H261.536V195.112ZM283.678 195.112H294.749V206.183H283.678V195.112ZM316.89 195.112H327.961V206.183H316.89V195.112ZM350.102 195.112H361.173V206.183H350.102V195.112ZM361.173 195.112H372.244V206.183H361.173V195.112ZM372.244 195.112H383.315V206.183H372.244V195.112ZM438.668 195.112H449.739V206.183H438.668V195.112ZM29.0508 206.183H40.1215V217.254H29.0508V206.183ZM84.4045 206.183H95.4753V217.254H84.4045V206.183ZM95.4753 206.183H106.546V217.254H95.4753V206.183ZM106.546 206.183H117.617V217.254H106.546V206.183ZM117.617 206.183H128.688V217.254H117.617V206.183ZM172.971 206.183H184.041V217.254H172.971V206.183ZM184.041 206.183H195.112V217.254H184.041V206.183ZM195.112 206.183H206.183V217.254H195.112V206.183ZM217.254 206.183H228.324V217.254H217.254V206.183ZM228.324 206.183H239.395V217.254H228.324V206.183ZM239.395 206.183H250.466V217.254H239.395V206.183ZM250.466 206.183H261.536V217.254H250.466V206.183ZM261.536 206.183H272.607V217.254H261.536V206.183ZM327.961 206.183H339.032V217.254H327.961V206.183ZM339.032 206.183H350.102V217.254H339.032V206.183ZM350.102 206.183H361.173V217.254H350.102V206.183ZM372.244 206.183H383.315V217.254H372.244V206.183ZM383.315 206.183H394.385V217.254H383.315V206.183ZM416.527 206.183H427.598V217.254H416.527V206.183ZM51.1923 217.254H62.263V228.324H51.1923V217.254ZM62.263 217.254H73.3338V228.324H62.263V217.254ZM73.3338 217.254H84.4045V228.324H73.3338V217.254ZM84.4045 217.254H95.4753V228.324H84.4045V217.254ZM106.546 217.254H117.617V228.324H106.546V217.254ZM117.617 217.254H128.688V228.324H117.617V217.254ZM150.829 217.254H161.9V228.324H150.829V217.254ZM184.041 217.254H195.112V228.324H184.041V217.254ZM195.112 217.254H206.183V228.324H195.112V217.254ZM206.183 217.254H217.254V228.324H206.183V217.254ZM217.254 217.254H228.324V228.324H217.254V217.254ZM239.395 217.254H250.466V228.324H239.395V217.254ZM250.466 217.254H261.536V228.324H250.466V217.254ZM261.536 217.254H272.607V228.324H261.536V217.254ZM283.678 217.254H294.749V228.324H283.678V217.254ZM327.961 217.254H339.032V228.324H327.961V217.254ZM361.173 217.254H372.244V228.324H361.173V217.254ZM394.385 217.254H405.456V228.324H394.385V217.254ZM405.456 217.254H416.527V228.324H405.456V217.254ZM416.527 217.254H427.598V228.324H416.527V217.254ZM427.598 217.254H438.668V228.324H427.598V217.254ZM460.81 217.254H471.881V228.324H460.81V217.254ZM471.881 217.254H482.951V228.324H471.881V217.254ZM29.0508 228.324H40.1215V239.395H29.0508V228.324ZM51.1923 228.324H62.263V239.395H51.1923V228.324ZM62.263 228.324H73.3338V239.395H62.263V228.324ZM73.3338 228.324H84.4045V239.395H73.3338V228.324ZM95.4753 228.324H106.546V239.395H95.4753V228.324ZM106.546 228.324H117.617V239.395H106.546V228.324ZM128.688 228.324H139.758V239.395H128.688V228.324ZM150.829 228.324H161.9V239.395H150.829V228.324ZM172.971 228.324H184.041V239.395H172.971V228.324ZM228.324 228.324H239.395V239.395H228.324V228.324ZM239.395 228.324H250.466V239.395H239.395V228.324ZM250.466 228.324H261.536V239.395H250.466V228.324ZM261.536 228.324H272.607V239.395H261.536V228.324ZM283.678 228.324H294.749V239.395H283.678V228.324ZM294.749 228.324H305.819V239.395H294.749V228.324ZM305.819 228.324H316.89V239.395H305.819V228.324ZM316.89 228.324H327.961V239.395H316.89V228.324ZM327.961 228.324H339.032V239.395H327.961V228.324ZM350.102 228.324H361.173V239.395H350.102V228.324ZM383.315 228.324H394.385V239.395H383.315V228.324ZM394.385 228.324H405.456V239.395H394.385V228.324ZM416.527 228.324H427.598V239.395H416.527V228.324ZM438.668 228.324H449.739V239.395H438.668V228.324ZM449.739 228.324H460.81V239.395H449.739V228.324ZM471.881 228.324H482.951V239.395H471.881V228.324ZM51.1923 239.395H62.263V250.466H51.1923V239.395ZM62.263 239.395H73.3338V250.466H62.263V239.395ZM139.758 239.395H150.829V250.466H139.758V239.395ZM161.9 239.395H172.971V250.466H161.9V239.395ZM184.041 239.395H195.112V250.466H184.041V239.395ZM206.183 239.395H217.254V250.466H206.183V239.395ZM217.254 239.395H228.324V250.466H217.254V239.395ZM239.395 239.395H250.466V250.466H239.395V239.395ZM294.749 239.395H305.819V250.466H294.749V239.395ZM305.819 239.395H316.89V250.466H305.819V239.395ZM327.961 239.395H339.032V250.466H327.961V239.395ZM350.102 239.395H361.173V250.466H350.102V239.395ZM361.173 239.395H372.244V250.466H361.173V239.395ZM383.315 239.395H394.385V250.466H383.315V239.395ZM405.456 239.395H416.527V250.466H405.456V239.395ZM416.527 239.395H427.598V250.466H416.527V239.395ZM438.668 239.395H449.739V250.466H438.668V239.395ZM471.881 239.395H482.951V250.466H471.881V239.395ZM29.0508 250.466H40.1215V261.536H29.0508V250.466ZM51.1923 250.466H62.263V261.536H51.1923V250.466ZM73.3338 250.466H84.4045V261.536H73.3338V250.466ZM84.4045 250.466H95.4753V261.536H84.4045V250.466ZM95.4753 250.466H106.546V261.536H95.4753V250.466ZM106.546 250.466H117.617V261.536H106.546V250.466ZM139.758 250.466H150.829V261.536H139.758V250.466ZM150.829 250.466H161.9V261.536H150.829V250.466ZM161.9 250.466H172.971V261.536H161.9V250.466ZM206.183 250.466H217.254V261.536H206.183V250.466ZM217.254 250.466H228.324V261.536H217.254V250.466ZM228.324 250.466H239.395V261.536H228.324V250.466ZM239.395 250.466H250.466V261.536H239.395V250.466ZM261.536 250.466H272.607V261.536H261.536V250.466ZM272.607 250.466H283.678V261.536H272.607V250.466ZM283.678 250.466H294.749V261.536H283.678V250.466ZM294.749 250.466H305.819V261.536H294.749V250.466ZM305.819 250.466H316.89V261.536H305.819V250.466ZM327.961 250.466H339.032V261.536H327.961V250.466ZM361.173 250.466H372.244V261.536H361.173V250.466ZM394.385 250.466H405.456V261.536H394.385V250.466ZM438.668 250.466H449.739V261.536H438.668V250.466ZM460.81 250.466H471.881V261.536H460.81V250.466ZM40.1215 261.536H51.1923V272.607H40.1215V261.536ZM51.1923 261.536H62.263V272.607H51.1923V261.536ZM73.3338 261.536H84.4045V272.607H73.3338V261.536ZM84.4045 261.536H95.4753V272.607H84.4045V261.536ZM117.617 261.536H128.688V272.607H117.617V261.536ZM150.829 261.536H161.9V272.607H150.829V261.536ZM195.112 261.536H206.183V272.607H195.112V261.536ZM228.324 261.536H239.395V272.607H228.324V261.536ZM239.395 261.536H250.466V272.607H239.395V261.536ZM261.536 261.536H272.607V272.607H261.536V261.536ZM283.678 261.536H294.749V272.607H283.678V261.536ZM294.749 261.536H305.819V272.607H294.749V261.536ZM305.819 261.536H316.89V272.607H305.819V261.536ZM316.89 261.536H327.961V272.607H316.89V261.536ZM327.961 261.536H339.032V272.607H327.961V261.536ZM405.456 261.536H416.527V272.607H405.456V261.536ZM416.527 261.536H427.598V272.607H416.527V261.536ZM427.598 261.536H438.668V272.607H427.598V261.536ZM449.739 261.536H460.81V272.607H449.739V261.536ZM471.881 261.536H482.951V272.607H471.881V261.536ZM62.263 272.607H73.3338V283.678H62.263V272.607ZM73.3338 272.607H84.4045V283.678H73.3338V272.607ZM84.4045 272.607H95.4753V283.678H84.4045V272.607ZM95.4753 272.607H106.546V283.678H95.4753V272.607ZM106.546 272.607H117.617V283.678H106.546V272.607ZM128.688 272.607H139.758V283.678H128.688V272.607ZM172.971 272.607H184.041V283.678H172.971V272.607ZM195.112 272.607H206.183V283.678H195.112V272.607ZM217.254 272.607H228.324V283.678H217.254V272.607ZM228.324 272.607H239.395V283.678H228.324V272.607ZM239.395 272.607H250.466V283.678H239.395V272.607ZM261.536 272.607H272.607V283.678H261.536V272.607ZM272.607 272.607H283.678V283.678H272.607V272.607ZM283.678 272.607H294.749V283.678H283.678V272.607ZM327.961 272.607H339.032V283.678H327.961V272.607ZM350.102 272.607H361.173V283.678H350.102V272.607ZM383.315 272.607H394.385V283.678H383.315V272.607ZM427.598 272.607H438.668V283.678H427.598V272.607ZM438.668 272.607H449.739V283.678H438.668V272.607ZM471.881 272.607H482.951V283.678H471.881V272.607ZM62.263 283.678H73.3338V294.749H62.263V283.678ZM73.3338 283.678H84.4045V294.749H73.3338V283.678ZM117.617 283.678H128.688V294.749H117.617V283.678ZM128.688 283.678H139.758V294.749H128.688V283.678ZM139.758 283.678H150.829V294.749H139.758V283.678ZM184.041 283.678H195.112V294.749H184.041V283.678ZM217.254 283.678H228.324V294.749H217.254V283.678ZM228.324 283.678H239.395V294.749H228.324V283.678ZM239.395 283.678H250.466V294.749H239.395V283.678ZM272.607 283.678H283.678V294.749H272.607V283.678ZM316.89 283.678H327.961V294.749H316.89V283.678ZM327.961 283.678H339.032V294.749H327.961V283.678ZM350.102 283.678H361.173V294.749H350.102V283.678ZM372.244 283.678H383.315V294.749H372.244V283.678ZM383.315 283.678H394.385V294.749H383.315V283.678ZM394.385 283.678H405.456V294.749H394.385V283.678ZM416.527 283.678H427.598V294.749H416.527V283.678ZM438.668 283.678H449.739V294.749H438.668V283.678ZM460.81 283.678H471.881V294.749H460.81V283.678ZM471.881 283.678H482.951V294.749H471.881V283.678ZM40.1215 294.749H51.1923V305.819H40.1215V294.749ZM84.4045 294.749H95.4753V305.819H84.4045V294.749ZM95.4753 294.749H106.546V305.819H95.4753V294.749ZM106.546 294.749H117.617V305.819H106.546V294.749ZM128.688 294.749H139.758V305.819H128.688V294.749ZM184.041 294.749H195.112V305.819H184.041V294.749ZM195.112 294.749H206.183V305.819H195.112V294.749ZM239.395 294.749H250.466V305.819H239.395V294.749ZM250.466 294.749H261.536V305.819H250.466V294.749ZM261.536 294.749H272.607V305.819H261.536V294.749ZM272.607 294.749H283.678V305.819H272.607V294.749ZM294.749 294.749H305.819V305.819H294.749V294.749ZM327.961 294.749H339.032V305.819H327.961V294.749ZM350.102 294.749H361.173V305.819H350.102V294.749ZM372.244 294.749H383.315V305.819H372.244V294.749ZM383.315 294.749H394.385V305.819H383.315V294.749ZM394.385 294.749H405.456V305.819H394.385V294.749ZM29.0508 305.819H40.1215V316.89H29.0508V305.819ZM40.1215 305.819H51.1923V316.89H40.1215V305.819ZM51.1923 305.819H62.263V316.89H51.1923V305.819ZM73.3338 305.819H84.4045V316.89H73.3338V305.819ZM84.4045 305.819H95.4753V316.89H84.4045V305.819ZM106.546 305.819H117.617V316.89H106.546V305.819ZM128.688 305.819H139.758V316.89H128.688V305.819ZM172.971 305.819H184.041V316.89H172.971V305.819ZM184.041 305.819H195.112V316.89H184.041V305.819ZM217.254 305.819H228.324V316.89H217.254V305.819ZM228.324 305.819H239.395V316.89H228.324V305.819ZM261.536 305.819H272.607V316.89H261.536V305.819ZM272.607 305.819H283.678V316.89H272.607V305.819ZM283.678 305.819H294.749V316.89H283.678V305.819ZM316.89 305.819H327.961V316.89H316.89V305.819ZM327.961 305.819H339.032V316.89H327.961V305.819ZM339.032 305.819H350.102V316.89H339.032V305.819ZM383.315 305.819H394.385V316.89H383.315V305.819ZM394.385 305.819H405.456V316.89H394.385V305.819ZM405.456 305.819H416.527V316.89H405.456V305.819ZM416.527 305.819H427.598V316.89H416.527V305.819ZM427.598 305.819H438.668V316.89H427.598V305.819ZM449.739 305.819H460.81V316.89H449.739V305.819ZM471.881 305.819H482.951V316.89H471.881V305.819ZM29.0508 316.89H40.1215V327.961H29.0508V316.89ZM62.263 316.89H73.3338V327.961H62.263V316.89ZM73.3338 316.89H84.4045V327.961H73.3338V316.89ZM95.4753 316.89H106.546V327.961H95.4753V316.89ZM106.546 316.89H117.617V327.961H106.546V316.89ZM117.617 316.89H128.688V327.961H117.617V316.89ZM128.688 316.89H139.758V327.961H128.688V316.89ZM184.041 316.89H195.112V327.961H184.041V316.89ZM195.112 316.89H206.183V327.961H195.112V316.89ZM206.183 316.89H217.254V327.961H206.183V316.89ZM228.324 316.89H239.395V327.961H228.324V316.89ZM261.536 316.89H272.607V327.961H261.536V316.89ZM272.607 316.89H283.678V327.961H272.607V316.89ZM283.678 316.89H294.749V327.961H283.678V316.89ZM294.749 316.89H305.819V327.961H294.749V316.89ZM305.819 316.89H316.89V327.961H305.819V316.89ZM316.89 316.89H327.961V327.961H316.89V316.89ZM327.961 316.89H339.032V327.961H327.961V316.89ZM339.032 316.89H350.102V327.961H339.032V316.89ZM383.315 316.89H394.385V327.961H383.315V316.89ZM416.527 316.89H427.598V327.961H416.527V316.89ZM471.881 316.89H482.951V327.961H471.881V316.89ZM62.263 327.961H73.3338V339.032H62.263V327.961ZM73.3338 327.961H84.4045V339.032H73.3338V327.961ZM117.617 327.961H128.688V339.032H117.617V327.961ZM128.688 327.961H139.758V339.032H128.688V327.961ZM150.829 327.961H161.9V339.032H150.829V327.961ZM195.112 327.961H206.183V339.032H195.112V327.961ZM250.466 327.961H261.536V339.032H250.466V327.961ZM283.678 327.961H294.749V339.032H283.678V327.961ZM316.89 327.961H327.961V339.032H316.89V327.961ZM350.102 327.961H361.173V339.032H350.102V327.961ZM361.173 327.961H372.244V339.032H361.173V327.961ZM372.244 327.961H383.315V339.032H372.244V327.961ZM383.315 327.961H394.385V339.032H383.315V327.961ZM405.456 327.961H416.527V339.032H405.456V327.961ZM416.527 327.961H427.598V339.032H416.527V327.961ZM438.668 327.961H449.739V339.032H438.668V327.961ZM29.0508 339.032H40.1215V350.102H29.0508V339.032ZM40.1215 339.032H51.1923V350.102H40.1215V339.032ZM51.1923 339.032H62.263V350.102H51.1923V339.032ZM73.3338 339.032H84.4045V350.102H73.3338V339.032ZM84.4045 339.032H95.4753V350.102H84.4045V339.032ZM95.4753 339.032H106.546V350.102H95.4753V339.032ZM106.546 339.032H117.617V350.102H106.546V339.032ZM117.617 339.032H128.688V350.102H117.617V339.032ZM172.971 339.032H184.041V350.102H172.971V339.032ZM195.112 339.032H206.183V350.102H195.112V339.032ZM206.183 339.032H217.254V350.102H206.183V339.032ZM250.466 339.032H261.536V350.102H250.466V339.032ZM261.536 339.032H272.607V350.102H261.536V339.032ZM283.678 339.032H294.749V350.102H283.678V339.032ZM294.749 339.032H305.819V350.102H294.749V339.032ZM327.961 339.032H339.032V350.102H327.961V339.032ZM339.032 339.032H350.102V350.102H339.032V339.032ZM350.102 339.032H361.173V350.102H350.102V339.032ZM394.385 339.032H405.456V350.102H394.385V339.032ZM416.527 339.032H427.598V350.102H416.527V339.032ZM29.0508 350.102H40.1215V361.173H29.0508V350.102ZM40.1215 350.102H51.1923V361.173H40.1215V350.102ZM51.1923 350.102H62.263V361.173H51.1923V350.102ZM73.3338 350.102H84.4045V361.173H73.3338V350.102ZM84.4045 350.102H95.4753V361.173H84.4045V350.102ZM117.617 350.102H128.688V361.173H117.617V350.102ZM128.688 350.102H139.758V361.173H128.688V350.102ZM150.829 350.102H161.9V361.173H150.829V350.102ZM172.971 350.102H184.041V361.173H172.971V350.102ZM184.041 350.102H195.112V361.173H184.041V350.102ZM195.112 350.102H206.183V361.173H195.112V350.102ZM239.395 350.102H250.466V361.173H239.395V350.102ZM250.466 350.102H261.536V361.173H250.466V350.102ZM261.536 350.102H272.607V361.173H261.536V350.102ZM305.819 350.102H316.89V361.173H305.819V350.102ZM350.102 350.102H361.173V361.173H350.102V350.102ZM361.173 350.102H372.244V361.173H361.173V350.102ZM394.385 350.102H405.456V361.173H394.385V350.102ZM405.456 350.102H416.527V361.173H405.456V350.102ZM416.527 350.102H427.598V361.173H416.527V350.102ZM427.598 350.102H438.668V361.173H427.598V350.102ZM438.668 350.102H449.739V361.173H438.668V350.102ZM449.739 350.102H460.81V361.173H449.739V350.102ZM471.881 350.102H482.951V361.173H471.881V350.102ZM51.1923 361.173H62.263V372.244H51.1923V361.173ZM62.263 361.173H73.3338V372.244H62.263V361.173ZM73.3338 361.173H84.4045V372.244H73.3338V361.173ZM95.4753 361.173H106.546V372.244H95.4753V361.173ZM106.546 361.173H117.617V372.244H106.546V361.173ZM128.688 361.173H139.758V372.244H128.688V361.173ZM139.758 361.173H150.829V372.244H139.758V361.173ZM161.9 361.173H172.971V372.244H161.9V361.173ZM217.254 361.173H228.324V372.244H217.254V361.173ZM228.324 361.173H239.395V372.244H228.324V361.173ZM239.395 361.173H250.466V372.244H239.395V361.173ZM250.466 361.173H261.536V372.244H250.466V361.173ZM261.536 361.173H272.607V372.244H261.536V361.173ZM272.607 361.173H283.678V372.244H272.607V361.173ZM316.89 361.173H327.961V372.244H316.89V361.173ZM327.961 361.173H339.032V372.244H327.961V361.173ZM350.102 361.173H361.173V372.244H350.102V361.173ZM361.173 361.173H372.244V372.244H361.173V361.173ZM383.315 361.173H394.385V372.244H383.315V361.173ZM394.385 361.173H405.456V372.244H394.385V361.173ZM449.739 361.173H460.81V372.244H449.739V361.173ZM471.881 361.173H482.951V372.244H471.881V361.173ZM51.1923 372.244H62.263V383.315H51.1923V372.244ZM62.263 372.244H73.3338V383.315H62.263V372.244ZM73.3338 372.244H84.4045V383.315H73.3338V372.244ZM84.4045 372.244H95.4753V383.315H84.4045V372.244ZM128.688 372.244H139.758V383.315H128.688V372.244ZM139.758 372.244H150.829V383.315H139.758V372.244ZM172.971 372.244H184.041V383.315H172.971V372.244ZM184.041 372.244H195.112V383.315H184.041V372.244ZM195.112 372.244H206.183V383.315H195.112V372.244ZM217.254 372.244H228.324V383.315H217.254V372.244ZM228.324 372.244H239.395V383.315H228.324V372.244ZM294.749 372.244H305.819V383.315H294.749V372.244ZM327.961 372.244H339.032V383.315H327.961V372.244ZM339.032 372.244H350.102V383.315H339.032V372.244ZM350.102 372.244H361.173V383.315H350.102V372.244ZM361.173 372.244H372.244V383.315H361.173V372.244ZM394.385 372.244H405.456V383.315H394.385V372.244ZM438.668 372.244H449.739V383.315H438.668V372.244ZM471.881 372.244H482.951V383.315H471.881V372.244ZM29.0508 383.315H40.1215V394.385H29.0508V383.315ZM40.1215 383.315H51.1923V394.385H40.1215V383.315ZM51.1923 383.315H62.263V394.385H51.1923V383.315ZM73.3338 383.315H84.4045V394.385H73.3338V383.315ZM95.4753 383.315H106.546V394.385H95.4753V383.315ZM128.688 383.315H139.758V394.385H128.688V383.315ZM139.758 383.315H150.829V394.385H139.758V383.315ZM150.829 383.315H161.9V394.385H150.829V383.315ZM161.9 383.315H172.971V394.385H161.9V383.315ZM184.041 383.315H195.112V394.385H184.041V383.315ZM217.254 383.315H228.324V394.385H217.254V383.315ZM228.324 383.315H239.395V394.385H228.324V383.315ZM272.607 383.315H283.678V394.385H272.607V383.315ZM283.678 383.315H294.749V394.385H283.678V383.315ZM350.102 383.315H361.173V394.385H350.102V383.315ZM372.244 383.315H383.315V394.385H372.244V383.315ZM383.315 383.315H394.385V394.385H383.315V383.315ZM394.385 383.315H405.456V394.385H394.385V383.315ZM405.456 383.315H416.527V394.385H405.456V383.315ZM416.527 383.315H427.598V394.385H416.527V383.315ZM427.598 383.315H438.668V394.385H427.598V383.315ZM438.668 383.315H449.739V394.385H438.668V383.315ZM460.81 383.315H471.881V394.385H460.81V383.315ZM471.881 383.315H482.951V394.385H471.881V383.315ZM117.617 394.385H128.688V405.456H117.617V394.385ZM128.688 394.385H139.758V405.456H128.688V394.385ZM150.829 394.385H161.9V405.456H150.829V394.385ZM206.183 394.385H217.254V405.456H206.183V394.385ZM217.254 394.385H228.324V405.456H217.254V394.385ZM239.395 394.385H250.466V405.456H239.395V394.385ZM305.819 394.385H316.89V405.456H305.819V394.385ZM316.89 394.385H327.961V405.456H316.89V394.385ZM327.961 394.385H339.032V405.456H327.961V394.385ZM350.102 394.385H361.173V405.456H350.102V394.385ZM361.173 394.385H372.244V405.456H361.173V394.385ZM372.244 394.385H383.315V405.456H372.244V394.385ZM383.315 394.385H394.385V405.456H383.315V394.385ZM427.598 394.385H438.668V405.456H427.598V394.385ZM460.81 394.385H471.881V405.456H460.81V394.385ZM471.881 394.385H482.951V405.456H471.881V394.385ZM29.0508 405.456H40.1215V416.527H29.0508V405.456ZM40.1215 405.456H51.1923V416.527H40.1215V405.456ZM51.1923 405.456H62.263V416.527H51.1923V405.456ZM62.263 405.456H73.3338V416.527H62.263V405.456ZM73.3338 405.456H84.4045V416.527H73.3338V405.456ZM84.4045 405.456H95.4753V416.527H84.4045V405.456ZM95.4753 405.456H106.546V416.527H95.4753V405.456ZM128.688 405.456H139.758V416.527H128.688V405.456ZM139.758 405.456H150.829V416.527H139.758V405.456ZM161.9 405.456H172.971V416.527H161.9V405.456ZM172.971 405.456H184.041V416.527H172.971V405.456ZM184.041 405.456H195.112V416.527H184.041V405.456ZM206.183 405.456H217.254V416.527H206.183V405.456ZM217.254 405.456H228.324V416.527H217.254V405.456ZM228.324 405.456H239.395V416.527H228.324V405.456ZM272.607 405.456H283.678V416.527H272.607V405.456ZM283.678 405.456H294.749V416.527H283.678V405.456ZM294.749 405.456H305.819V416.527H294.749V405.456ZM327.961 405.456H339.032V416.527H327.961V405.456ZM361.173 405.456H372.244V416.527H361.173V405.456ZM372.244 405.456H383.315V416.527H372.244V405.456ZM383.315 405.456H394.385V416.527H383.315V405.456ZM405.456 405.456H416.527V416.527H405.456V405.456ZM427.598 405.456H438.668V416.527H427.598V405.456ZM438.668 405.456H449.739V416.527H438.668V405.456ZM471.881 405.456H482.951V416.527H471.881V405.456ZM29.0508 416.527H40.1215V427.598H29.0508V416.527ZM95.4753 416.527H106.546V427.598H95.4753V416.527ZM128.688 416.527H139.758V427.598H128.688V416.527ZM161.9 416.527H172.971V427.598H161.9V416.527ZM172.971 416.527H184.041V427.598H172.971V416.527ZM195.112 416.527H206.183V427.598H195.112V416.527ZM228.324 416.527H239.395V427.598H228.324V416.527ZM250.466 416.527H261.536V427.598H250.466V416.527ZM261.536 416.527H272.607V427.598H261.536V416.527ZM283.678 416.527H294.749V427.598H283.678V416.527ZM294.749 416.527H305.819V427.598H294.749V416.527ZM316.89 416.527H327.961V427.598H316.89V416.527ZM327.961 416.527H339.032V427.598H327.961V416.527ZM383.315 416.527H394.385V427.598H383.315V416.527ZM427.598 416.527H438.668V427.598H427.598V416.527ZM438.668 416.527H449.739V427.598H438.668V416.527ZM29.0508 427.598H40.1215V438.668H29.0508V427.598ZM51.1923 427.598H62.263V438.668H51.1923V427.598ZM62.263 427.598H73.3338V438.668H62.263V427.598ZM73.3338 427.598H84.4045V438.668H73.3338V427.598ZM95.4753 427.598H106.546V438.668H95.4753V427.598ZM117.617 427.598H128.688V438.668H117.617V427.598ZM128.688 427.598H139.758V438.668H128.688V427.598ZM150.829 427.598H161.9V438.668H150.829V427.598ZM161.9 427.598H172.971V438.668H161.9V427.598ZM184.041 427.598H195.112V438.668H184.041V427.598ZM195.112 427.598H206.183V438.668H195.112V427.598ZM206.183 427.598H217.254V438.668H206.183V427.598ZM250.466 427.598H261.536V438.668H250.466V427.598ZM283.678 427.598H294.749V438.668H283.678V427.598ZM305.819 427.598H316.89V438.668H305.819V427.598ZM316.89 427.598H327.961V438.668H316.89V427.598ZM372.244 427.598H383.315V438.668H372.244V427.598ZM383.315 427.598H394.385V438.668H383.315V427.598ZM394.385 427.598H405.456V438.668H394.385V427.598ZM405.456 427.598H416.527V438.668H405.456V427.598ZM416.527 427.598H427.598V438.668H416.527V427.598ZM427.598 427.598H438.668V438.668H427.598V427.598ZM460.81 427.598H471.881V438.668H460.81V427.598ZM471.881 427.598H482.951V438.668H471.881V427.598ZM29.0508 438.668H40.1215V449.739H29.0508V438.668ZM51.1923 438.668H62.263V449.739H51.1923V438.668ZM62.263 438.668H73.3338V449.739H62.263V438.668ZM73.3338 438.668H84.4045V449.739H73.3338V438.668ZM95.4753 438.668H106.546V449.739H95.4753V438.668ZM172.971 438.668H184.041V449.739H172.971V438.668ZM206.183 438.668H217.254V449.739H206.183V438.668ZM217.254 438.668H228.324V449.739H217.254V438.668ZM239.395 438.668H250.466V449.739H239.395V438.668ZM250.466 438.668H261.536V449.739H250.466V438.668ZM283.678 438.668H294.749V449.739H283.678V438.668ZM305.819 438.668H316.89V449.739H305.819V438.668ZM327.961 438.668H339.032V449.739H327.961V438.668ZM339.032 438.668H350.102V449.739H339.032V438.668ZM361.173 438.668H372.244V449.739H361.173V438.668ZM383.315 438.668H394.385V449.739H383.315V438.668ZM416.527 438.668H427.598V449.739H416.527V438.668ZM438.668 438.668H449.739V449.739H438.668V438.668ZM449.739 438.668H460.81V449.739H449.739V438.668ZM29.0508 449.739H40.1215V460.81H29.0508V449.739ZM51.1923 449.739H62.263V460.81H51.1923V449.739ZM62.263 449.739H73.3338V460.81H62.263V449.739ZM73.3338 449.739H84.4045V460.81H73.3338V449.739ZM95.4753 449.739H106.546V460.81H95.4753V449.739ZM139.758 449.739H150.829V460.81H139.758V449.739ZM150.829 449.739H161.9V460.81H150.829V449.739ZM161.9 449.739H172.971V460.81H161.9V449.739ZM184.041 449.739H195.112V460.81H184.041V449.739ZM195.112 449.739H206.183V460.81H195.112V449.739ZM206.183 449.739H217.254V460.81H206.183V449.739ZM217.254 449.739H228.324V460.81H217.254V449.739ZM250.466 449.739H261.536V460.81H250.466V449.739ZM261.536 449.739H272.607V460.81H261.536V449.739ZM283.678 449.739H294.749V460.81H283.678V449.739ZM294.749 449.739H305.819V460.81H294.749V449.739ZM305.819 449.739H316.89V460.81H305.819V449.739ZM327.961 449.739H339.032V460.81H327.961V449.739ZM350.102 449.739H361.173V460.81H350.102V449.739ZM383.315 449.739H394.385V460.81H383.315V449.739ZM394.385 449.739H405.456V460.81H394.385V449.739ZM449.739 449.739H460.81V460.81H449.739V449.739ZM471.881 449.739H482.951V460.81H471.881V449.739ZM29.0508 460.81H40.1215V471.881H29.0508V460.81ZM95.4753 460.81H106.546V471.881H95.4753V460.81ZM117.617 460.81H128.688V471.881H117.617V460.81ZM128.688 460.81H139.758V471.881H128.688V460.81ZM139.758 460.81H150.829V471.881H139.758V460.81ZM150.829 460.81H161.9V471.881H150.829V460.81ZM184.041 460.81H195.112V471.881H184.041V460.81ZM195.112 460.81H206.183V471.881H195.112V460.81ZM228.324 460.81H239.395V471.881H228.324V460.81ZM250.466 460.81H261.536V471.881H250.466V460.81ZM283.678 460.81H294.749V471.881H283.678V460.81ZM294.749 460.81H305.819V471.881H294.749V460.81ZM350.102 460.81H361.173V471.881H350.102V460.81ZM372.244 460.81H383.315V471.881H372.244V460.81ZM383.315 460.81H394.385V471.881H383.315V460.81ZM405.456 460.81H416.527V471.881H405.456V460.81ZM416.527 460.81H427.598V471.881H416.527V460.81ZM438.668 460.81H449.739V471.881H438.668V460.81ZM460.81 460.81H471.881V471.881H460.81V460.81ZM471.881 460.81H482.951V471.881H471.881V460.81ZM29.0508 471.881H40.1215V482.951H29.0508V471.881ZM40.1215 471.881H51.1923V482.951H40.1215V471.881ZM51.1923 471.881H62.263V482.951H51.1923V471.881ZM62.263 471.881H73.3338V482.951H62.263V471.881ZM73.3338 471.881H84.4045V482.951H73.3338V471.881ZM84.4045 471.881H95.4753V482.951H84.4045V471.881ZM95.4753 471.881H106.546V482.951H95.4753V471.881ZM139.758 471.881H150.829V482.951H139.758V471.881ZM172.971 471.881H184.041V482.951H172.971V471.881ZM217.254 471.881H228.324V482.951H217.254V471.881ZM228.324 471.881H239.395V482.951H228.324V471.881ZM239.395 471.881H250.466V482.951H239.395V471.881ZM250.466 471.881H261.536V482.951H250.466V471.881ZM261.536 471.881H272.607V482.951H261.536V471.881ZM327.961 471.881H339.032V482.951H327.961V471.881ZM350.102 471.881H361.173V482.951H350.102V471.881ZM361.173 471.881H372.244V482.951H361.173V471.881ZM383.315 471.881H394.385V482.951H383.315V471.881ZM394.385 471.881H405.456V482.951H394.385V471.881ZM416.527 471.881H427.598V482.951H416.527V471.881ZM427.598 471.881H438.668V482.951H427.598V471.881ZM438.668 471.881H449.739V482.951H438.668V471.881ZM460.81 471.881H471.881V482.951H460.81V471.881Z" fill="#18181B"/>
<rect x="0.5" y="0.5" width="511" height="511" stroke="#D4D4D8"/>
</svg>
