<svg width="32" height="32" viewBox="0 0 32 32" fill="none" xmlns="http://www.w3.org/2000/svg">
<path fill-rule="evenodd" clip-rule="evenodd" d="M29.3327 15.9998C29.3327 23.3636 23.3631 29.3332 15.9993 29.3332C8.63555 29.3332 2.66602 23.3636 2.66602 15.9998C2.66602 8.63604 8.63555 2.6665 15.9993 2.6665C23.3631 2.6665 29.3327 8.63604 29.3327 15.9998ZM14.0826 13.3262C14.0768 13.7355 13.7433 14.0655 13.3327 14.0655C12.9185 14.0655 12.5827 13.7297 12.5827 13.3155H13.3327C12.5827 13.3155 12.5827 13.315 12.5827 13.3145L12.5827 13.3134L12.5827 13.3111L12.5827 13.306L12.5829 13.2935C12.5831 13.2842 12.5835 13.2728 12.5841 13.2596C12.5853 13.2332 12.5874 13.1992 12.5913 13.1586C12.5991 13.0776 12.614 12.969 12.6425 12.8417C12.6992 12.5889 12.8129 12.2489 13.0437 11.9057C13.5344 11.1763 14.4504 10.5832 15.9993 10.5832C17.5483 10.5832 18.4643 11.1763 18.955 11.9057C19.1858 12.2489 19.2995 12.5889 19.3562 12.8417C19.3847 12.969 19.3996 13.0776 19.4074 13.1586C19.4113 13.1992 19.4134 13.2332 19.4146 13.2596C19.4152 13.2728 19.4156 13.2842 19.4158 13.2935L19.416 13.306L19.416 13.3111L19.416 13.3134L19.416 13.3145C19.416 13.315 19.416 13.3155 18.666 13.3155H19.416C19.416 14.6442 18.5347 15.6611 17.8241 16.2774C17.4525 16.5996 17.0845 16.85 16.811 17.0194C16.7899 17.0325 16.7694 17.0451 16.7493 17.0572V18.6016C16.7493 19.0158 16.4136 19.3516 15.9993 19.3516C15.5851 19.3516 15.2493 19.0158 15.2493 18.6016V16.6193C15.2493 16.3347 15.4104 16.0747 15.6652 15.9479L15.6657 15.9476L15.666 15.9475L15.6675 15.9467L15.6831 15.9387C15.698 15.9309 15.7218 15.9183 15.7532 15.9011C15.816 15.8667 15.9086 15.8139 16.0211 15.7443C16.2475 15.604 16.5462 15.4001 16.8413 15.1441C17.4612 14.6065 17.912 13.9747 17.916 13.3243C17.9158 13.3202 17.9153 13.3127 17.9142 13.302C17.9116 13.2746 17.9056 13.2283 17.8925 13.1698C17.8659 13.0509 17.8129 12.8953 17.7104 12.7429C17.5344 12.4812 17.117 12.0832 15.9993 12.0832C14.8817 12.0832 14.4643 12.4812 14.2883 12.7429C14.1858 12.8953 14.1328 13.0509 14.1062 13.1698C14.0931 13.2283 14.0871 13.2746 14.0845 13.302L14.0834 13.314L14.0826 13.3262ZM16.7493 21.2498C16.7493 20.8356 16.4136 20.4998 15.9993 20.4998C15.5851 20.4998 15.2493 20.8356 15.2493 21.2498V21.3332C15.2493 21.7474 15.5851 22.0832 15.9993 22.0832C16.4136 22.0832 16.7493 21.7474 16.7493 21.3332V21.2498Z" fill="#196CFA"/>
</svg>
