<svg width="18" height="18" viewBox="0 0 18 18" fill="none" xmlns="http://www.w3.org/2000/svg">
<rect x="0.666016" y="0.666016" width="16.6667" height="16.6667" rx="8.33333" fill="#18181B"/>
<path d="M8.59688 12.9125C8.44325 12.9119 8.29324 12.8658 8.16576 12.7801C8.03828 12.6943 7.93903 12.5728 7.88052 12.4307C7.82202 12.2887 7.80687 12.1325 7.83699 11.9818C7.86712 11.8312 7.94116 11.6928 8.0498 11.5842C8.15843 11.4755 8.29679 11.4015 8.44744 11.3714C8.59809 11.3412 8.75429 11.3564 8.89634 11.4149C9.0384 11.4734 9.15996 11.5726 9.24569 11.7001C9.33143 11.8276 9.37751 11.9776 9.37813 12.1312C9.37813 12.3384 9.29582 12.5372 9.14931 12.6837C9.0028 12.8302 8.80408 12.9125 8.59688 12.9125ZM9.29688 9.34375V10.0812C9.29688 10.247 9.23103 10.406 9.11382 10.5232C8.99661 10.6404 8.83764 10.7062 8.67188 10.7062C8.50612 10.7062 8.34715 10.6404 8.22994 10.5232C8.11273 10.406 8.04688 10.247 8.04688 10.0812V8.8C8.04736 8.63438 8.11336 8.47569 8.23047 8.35858C8.34758 8.24148 8.50627 8.17547 8.67188 8.175C8.86163 8.17499 9.04781 8.12342 9.21051 8.02579C9.37322 7.92815 9.50633 7.78814 9.59561 7.62071C9.68489 7.45328 9.72699 7.26473 9.7174 7.07522C9.70781 6.88572 9.6469 6.70238 9.54117 6.54482C9.43545 6.38725 9.28889 6.26139 9.11716 6.18067C8.94544 6.09996 8.755 6.06744 8.56622 6.08659C8.37744 6.10574 8.19742 6.17583 8.04539 6.28938C7.89337 6.40293 7.77507 6.55566 7.70313 6.73125C7.64014 6.88458 7.51883 7.0066 7.36587 7.07048C7.21291 7.13436 7.04084 7.13486 6.88751 7.07187C6.73418 7.00888 6.61215 6.88756 6.54827 6.7346C6.48439 6.58165 6.48389 6.40957 6.54688 6.25625C6.69519 5.8958 6.93271 5.57897 7.23711 5.33554C7.54152 5.09211 7.90282 4.93007 8.28705 4.86465C8.67129 4.79923 9.06586 4.83257 9.43367 4.96154C9.80148 5.09051 10.1305 5.31088 10.3897 5.60193C10.6489 5.89299 10.8299 6.24518 10.9157 6.62541C11.0014 7.00563 10.989 7.40141 10.8798 7.77555C10.7705 8.14969 10.5679 8.4899 10.291 8.76422C10.0141 9.03854 9.67202 9.23797 9.29688 9.34375Z" fill="white"/>
</svg>
