<svg width="110" height="113" viewBox="0 0 110 113" fill="none" xmlns="http://www.w3.org/2000/svg">
<g filter="url(#filter0_d_1339_201088)">
<path d="M55.7637 8.26758C81.5363 8.26758 102.428 29.159 102.428 54.9295C102.428 80.7021 81.5363 101.594 55.7637 101.594C29.991 101.594 9.09961 80.7021 9.09961 54.9295C9.09961 29.159 29.991 8.26758 55.7637 8.26758Z" fill="#FE3F34"/>
<path d="M10.0713 95.8652C12.166 95.8652 13.8633 97.5625 13.8633 99.6572C13.8633 101.752 12.166 103.451 10.0713 103.451C7.97656 103.451 6.2793 101.752 6.2793 99.6572C6.2793 97.5625 7.97656 95.8652 10.0713 95.8652Z" fill="white"/>
<path d="M99.183 6.54688C101.684 6.54688 103.71 8.57285 103.71 11.0736C103.71 13.5744 101.684 15.6004 99.183 15.6004C96.6822 15.6004 94.6562 13.5744 94.6562 11.0736C94.6562 8.57285 96.6822 6.54688 99.183 6.54688Z" fill="white"/>
<path d="M96.5232 99.6578C97.5544 99.6578 98.3902 98.8219 98.3902 97.7908C98.3902 96.7597 97.5544 95.9238 96.5232 95.9238C95.4921 95.9238 94.6562 96.7597 94.6562 97.7908C94.6562 98.8219 95.4921 99.6578 96.5232 99.6578Z" fill="black"/>
<path d="M13.867 14.8082C14.8981 14.8082 15.734 13.9723 15.734 12.9412C15.734 11.9101 14.8981 11.0742 13.867 11.0742C12.8359 11.0742 12 11.9101 12 12.9412C12 13.9723 12.8359 14.8082 13.867 14.8082Z" fill="black"/>
<path d="M55.7639 102.668C43.012 102.668 31.024 97.7021 22.0074 88.6855C12.9911 79.6692 8.02539 67.6809 8.02539 54.9293C8.02539 42.1785 12.9909 30.1909 22.0074 21.175C31.024 12.1588 43.0123 7.19336 55.7639 7.19336C68.5155 7.19336 80.5038 12.1588 89.5203 21.175C98.5367 30.1911 103.502 42.1787 103.502 54.9293C103.502 67.6811 98.5367 79.6692 89.5203 88.6855C80.5038 97.7019 68.5155 102.668 55.7639 102.668ZM55.7639 9.34158C30.6254 9.34158 10.174 29.7921 10.174 54.9291C10.174 80.0675 30.6254 100.519 55.7639 100.519C80.9021 100.519 101.354 80.0675 101.354 54.9291C101.354 29.7919 80.9023 9.34158 55.7639 9.34158Z" fill="black"/>
<path d="M45.1485 41.2901C44.9119 41.2901 44.6741 41.2125 44.4754 41.0527C40.7985 38.0924 37.5518 38.0814 34.258 41.0177C33.815 41.413 33.1361 41.3739 32.7412 40.9309C32.3464 40.4881 32.3853 39.809 32.828 39.4143C36.9331 35.7538 41.3049 35.7422 45.8224 39.3793C46.2846 39.7512 46.3576 40.4275 45.9855 40.8896C45.7737 41.153 45.4624 41.2901 45.1485 41.2901Z" fill="black"/>
<path d="M77.9763 41.2902C77.7396 41.2902 77.5017 41.2126 77.303 41.0526C73.6281 38.0922 70.3814 38.0813 67.0857 41.018C66.6431 41.4128 65.9638 41.374 65.5691 40.9307C65.1744 40.4877 65.2135 39.8088 65.6563 39.4142C69.7633 35.7539 74.1349 35.742 78.6507 39.3796C79.1126 39.7517 79.1855 40.428 78.8133 40.8899C78.6013 41.1533 78.2902 41.2902 77.9763 41.2902Z" fill="black"/>
<path d="M30.9053 73.1813C30.7002 73.1813 30.4928 73.1227 30.3096 73C29.8163 72.6704 29.6835 72.0033 30.0133 71.5098C35.4435 63.3834 44.2877 58.5483 54.2782 58.2445C59.3111 58.0946 64.3978 59.1473 68.9881 61.2972C73.8956 63.5958 78.096 67.014 81.472 71.4568C81.831 71.929 81.7391 72.603 81.2669 72.962C80.7944 73.3216 80.1207 73.2288 79.7617 72.7568C73.5598 64.5964 64.2953 60.0913 54.3435 60.3919C45.0558 60.6742 36.8389 65.1616 31.7995 72.7037C31.5924 73.0137 31.2521 73.1813 30.9053 73.1813Z" fill="black"/>
<path d="M99.183 16.6744C96.0946 16.6744 93.582 14.1618 93.582 11.0734C93.582 7.98504 96.0946 5.47266 99.183 5.47266C102.271 5.47266 104.784 7.98504 104.784 11.0734C104.784 14.1618 102.271 16.6744 99.183 16.6744ZM99.183 7.62088C97.2793 7.62088 95.7305 9.16969 95.7305 11.0732C95.7305 12.9769 97.2793 14.5257 99.183 14.5257C101.087 14.5257 102.635 12.9769 102.635 11.0732C102.636 9.16969 101.087 7.62088 99.183 7.62088Z" fill="black"/>
<path d="M10.0713 104.526C7.38811 104.526 5.20508 102.342 5.20508 99.6572C5.20508 96.974 7.38811 94.791 10.0713 94.791C12.7545 94.791 14.9375 96.974 14.9375 99.6572C14.9375 102.342 12.7545 104.526 10.0713 104.526ZM10.0713 96.9392C8.57275 96.9392 7.35352 98.1585 7.35352 99.657C7.35352 101.157 8.57275 102.377 10.0713 102.377C11.5698 102.377 12.7891 101.157 12.7891 99.657C12.7891 98.1585 11.5698 96.9392 10.0713 96.9392Z" fill="black"/>
</g>
<defs>
<filter id="filter0_d_1339_201088" x="-4" y="0" width="118" height="118" filterUnits="userSpaceOnUse" color-interpolation-filters="sRGB">
<feFlood flood-opacity="0" result="BackgroundImageFix"/>
<feColorMatrix in="SourceAlpha" type="matrix" values="0 0 0 0 0 0 0 0 0 0 0 0 0 0 0 0 0 0 127 0" result="hardAlpha"/>
<feOffset dy="4"/>
<feGaussianBlur stdDeviation="2"/>
<feComposite in2="hardAlpha" operator="out"/>
<feColorMatrix type="matrix" values="0 0 0 0 0 0 0 0 0 0 0 0 0 0 0 0 0 0 0.25 0"/>
<feBlend mode="normal" in2="BackgroundImageFix" result="effect1_dropShadow_1339_201088"/>
<feBlend mode="normal" in="SourceGraphic" in2="effect1_dropShadow_1339_201088" result="shape"/>
</filter>
</defs>
</svg>
