<svg width="110" height="110" viewBox="0 0 110 110" fill="none" xmlns="http://www.w3.org/2000/svg">
<path d="M55.7609 8.92188C81.1726 8.92188 101.77 29.5211 101.77 54.9307C101.77 80.3424 81.1726 100.942 55.7609 100.942C30.3492 100.942 9.75 80.3424 9.75 54.9307C9.75 29.5211 30.3492 8.92188 55.7609 8.92188Z" fill="#FFDA2D"/>
<path d="M10.0713 95.8652C12.166 95.8652 13.8633 97.5625 13.8633 99.6572C13.8633 101.752 12.166 103.451 10.0713 103.451C7.97656 103.451 6.2793 101.752 6.2793 99.6572C6.2793 97.5625 7.97656 95.8652 10.0713 95.8652Z" fill="white"/>
<path d="M99.1869 6.54688C101.688 6.54688 103.714 8.57285 103.714 11.0736C103.714 13.5744 101.688 15.6004 99.1869 15.6004C96.6861 15.6004 94.6602 13.5744 94.6602 11.0736C94.6602 8.57285 96.6861 6.54688 99.1869 6.54688Z" fill="white"/>
<path d="M70.1582 35.8652C72.9361 35.8652 75.1791 38.1082 75.1791 40.8861C75.1791 43.6641 72.9361 45.907 70.1582 45.907C67.3953 45.907 65.1523 43.6641 65.1523 40.8861C65.1523 38.1082 67.3953 35.8652 70.1582 35.8652Z" fill="white"/>
<path d="M41.3498 35.8652C44.1277 35.8652 46.3707 38.1082 46.3707 40.8861C46.3707 43.6641 44.1277 45.907 41.3498 45.907C38.5848 45.907 36.3418 43.6641 36.3418 40.8861C36.3418 38.1082 38.5848 35.8652 41.3498 35.8652Z" fill="white"/>
<path d="M96.5271 99.6578C97.5583 99.6578 98.3941 98.8219 98.3941 97.7908C98.3941 96.7597 97.5583 95.9238 96.5271 95.9238C95.496 95.9238 94.6602 96.7597 94.6602 97.7908C94.6602 98.8219 95.496 99.6578 96.5271 99.6578Z" fill="black"/>
<path d="M13.867 14.8082C14.8981 14.8082 15.734 13.9723 15.734 12.9412C15.734 11.9101 14.8981 11.0742 13.867 11.0742C12.8359 11.0742 12 11.9101 12 12.9412C12 13.9723 12.8359 14.8082 13.867 14.8082Z" fill="black"/>
<path d="M55.7609 102.016C43.1838 102.016 31.3594 97.118 22.4664 88.225C13.5734 79.332 8.67578 67.5076 8.67578 54.9304C8.67578 42.3544 13.5734 30.5309 22.4664 21.638C31.3596 12.745 43.1838 7.84766 55.7609 7.84766C68.3379 7.84766 80.1618 12.7452 89.0542 21.638C97.9466 30.5306 102.844 42.3541 102.844 54.9304C102.844 67.5078 97.9466 79.332 89.0542 88.225C80.1618 97.1182 68.3381 102.016 55.7609 102.016ZM55.7609 9.99609C30.9826 9.99609 10.8242 30.1536 10.8242 54.9304C10.8242 79.7086 30.9828 99.8672 55.7609 99.8672C80.538 99.8672 100.695 79.7086 100.695 54.9304C100.695 30.1536 80.538 9.99609 55.7609 9.99609Z" fill="black"/>
<path d="M73.518 71.4082H38C37.4068 71.4082 36.9258 70.9274 36.9258 70.334C36.9258 69.7406 37.4068 69.2598 38 69.2598H73.518C74.1114 69.2598 74.5922 69.7406 74.5922 70.334C74.5922 70.9274 74.1114 71.4082 73.518 71.4082Z" fill="black"/>
<path d="M70.1582 46.981C66.8058 46.981 64.0781 44.2467 64.0781 40.8861C64.0781 37.5251 66.8056 34.791 70.1582 34.791C73.5192 34.791 76.2533 37.5253 76.2533 40.8861C76.2533 44.2469 73.5192 46.981 70.1582 46.981ZM70.1582 36.9395C67.9902 36.9395 66.2266 38.71 66.2266 40.8861C66.2266 43.0623 67.9902 44.8326 70.1582 44.8326C72.3344 44.8326 74.1049 43.0623 74.1049 40.8861C74.1049 38.71 72.3344 36.9395 70.1582 36.9395Z" fill="black"/>
<path d="M41.3498 46.981C37.9961 46.981 35.2676 44.2467 35.2676 40.8861C35.2676 37.5251 37.9961 34.791 41.3498 34.791C44.7108 34.791 47.4449 37.5253 47.4449 40.8861C47.4449 44.2469 44.7108 46.981 41.3498 46.981ZM41.3498 36.9395C39.1807 36.9395 37.416 38.71 37.416 40.8861C37.416 43.0623 39.1807 44.8326 41.3498 44.8326C43.526 44.8326 45.2965 43.0623 45.2965 40.8861C45.2965 38.71 43.526 36.9395 41.3498 36.9395Z" fill="black"/>
<path d="M99.1869 16.6744C96.0985 16.6744 93.5859 14.1618 93.5859 11.0734C93.5859 7.98504 96.0985 5.47266 99.1869 5.47266C102.275 5.47266 104.788 7.98504 104.788 11.0734C104.788 14.1618 102.275 16.6744 99.1869 16.6744ZM99.1869 7.62088C97.2832 7.62088 95.7344 9.16969 95.7344 11.0732C95.7344 12.9769 97.2832 14.5257 99.1869 14.5257C101.09 14.5257 102.639 12.9769 102.639 11.0732C102.639 9.16969 101.091 7.62088 99.1869 7.62088Z" fill="black"/>
<path d="M10.0713 104.526C7.38811 104.526 5.20508 102.342 5.20508 99.6572C5.20508 96.974 7.38811 94.791 10.0713 94.791C12.7545 94.791 14.9375 96.974 14.9375 99.6572C14.9375 102.342 12.7545 104.526 10.0713 104.526ZM10.0713 96.9392C8.57275 96.9392 7.35352 98.1585 7.35352 99.657C7.35352 101.157 8.57275 102.377 10.0713 102.377C11.5698 102.377 12.7891 101.157 12.7891 99.657C12.7891 98.1585 11.5698 96.9392 10.0713 96.9392Z" fill="black"/>
</svg>
