<svg width="24" height="24" viewBox="0 0 24 24" fill="none" xmlns="http://www.w3.org/2000/svg">
<path d="M3.51038 14.5382L3.71443 14.3672C3.88387 14.2252 4.12646 14.2114 4.31098 14.3332L11.7246 19.2255C11.8917 19.3358 12.1083 19.3358 12.2754 19.2255L19.689 14.3332C19.8735 14.2114 20.1161 14.2252 20.2856 14.3672L20.4896 14.5382C20.7449 14.7522 20.7236 15.1513 20.4469 15.3368L12.2784 20.8131C12.11 20.926 11.89 20.926 11.7216 20.8131L3.5531 15.3368C3.27642 15.1513 3.25507 14.7522 3.51038 14.5382Z" fill="white"/>
<path d="M3.51038 11.5212L3.71448 11.3501C3.8839 11.2081 4.12644 11.1943 4.31096 11.316L11.7349 16.2133C11.901 16.3228 12.1162 16.3235 12.2829 16.215L19.7061 11.3858C19.8825 11.2711 20.1119 11.279 20.2799 11.4057L20.4389 11.5257C20.7135 11.7328 20.7019 12.1487 20.4163 12.3402L12.2784 17.796C12.11 17.909 11.89 17.909 11.7216 17.796L3.5531 12.3197C3.27642 12.1342 3.25507 11.7351 3.51038 11.5212Z" fill="white"/>
<path d="M11.7216 3.0847L3.61952 8.51655C3.32409 8.71461 3.32409 9.1491 3.61952 9.34716L5.00006 10.2727L11.7216 14.779C11.8901 14.8919 12.11 14.8919 12.2785 14.779L20.3806 9.34716C20.676 9.1491 20.676 8.71461 20.3806 8.51655L12.2785 3.0847C12.11 2.97177 11.8901 2.97177 11.7216 3.0847Z" fill="white"/>
</svg>
