<svg width="110" height="110" viewBox="0 0 110 110" fill="none" xmlns="http://www.w3.org/2000/svg">
<path d="M53.7148 2.13558C54.2978 1.16685 55.7022 1.16685 56.2852 2.13558L72.7761 29.5378C72.9856 29.8858 73.3272 30.134 73.7229 30.2257L104.88 37.4417C105.981 37.6968 106.415 39.0325 105.674 39.8863L84.7091 64.0378C84.4429 64.3446 84.3124 64.7462 84.3475 65.1508L87.1127 97.0128C87.2104 98.1392 86.0742 98.9647 85.0332 98.5236L55.5851 86.0479C55.2111 85.8895 54.7889 85.8895 54.4149 86.0479L24.9668 98.5236C23.9258 98.9647 22.7896 98.1392 22.8873 97.0128L25.6525 65.1508C25.6876 64.7462 25.5571 64.3446 25.2909 64.0378L4.3258 39.8863C3.58463 39.0325 4.01863 37.6968 5.1201 37.4417L36.2771 30.2257C36.6728 30.134 37.0144 29.8858 37.2239 29.5378L53.7148 2.13558Z" fill="#FAA81A"/>
</svg>
