<svg width="160" height="160" viewBox="0 0 160 160" fill="none" xmlns="http://www.w3.org/2000/svg">
<g clip-path="url(#clip0_1339_201122)">
<path d="M79.7531 15.707C115.956 15.707 145.303 45.057 145.303 81.257C145.303 117.46 115.956 146.81 79.7531 146.81C43.55 146.81 14.2031 117.46 14.2031 81.257C14.2031 45.057 43.55 15.707 79.7531 15.707Z" fill="#22C55E"/>
<path d="M16.0156 138.086C19.0625 138.086 21.5313 140.555 21.5313 143.602C21.5313 146.648 19.0625 149.12 16.0156 149.12C12.9688 149.12 10.5 146.648 10.5 143.602C10.5 140.555 12.9688 138.086 16.0156 138.086Z" fill="white"/>
<path d="M142.92 10.8828C146.558 10.8828 149.505 13.8297 149.505 17.4672C149.505 21.1047 146.558 24.0516 142.92 24.0516C139.283 24.0516 136.336 21.1047 136.336 17.4672C136.336 13.8297 139.283 10.8828 142.92 10.8828Z" fill="white"/>
<path d="M49.4219 82.4316H108.628C106.141 96.5223 93.8281 107.219 79.0281 107.219C64.2187 107.219 51.9125 96.5223 49.4219 82.4316Z" fill="white"/>
<path d="M134.509 135.369C136.009 135.369 137.225 136.585 137.225 138.085C137.225 139.585 136.009 140.8 134.509 140.8C133.013 140.8 131.797 139.585 131.797 138.085C131.797 136.585 133.013 135.369 134.509 135.369Z" fill="black"/>
<path d="M33.1901 162.337C33.6851 164.062 32.6889 165.861 30.9647 166.356C29.2405 166.85 27.442 165.853 26.9469 164.128C26.453 162.406 27.4491 160.607 29.1733 160.112C30.8976 159.618 32.6961 160.615 33.1901 162.337Z" fill="black"/>
<path d="M21.5359 29.482C23.0357 29.482 24.2516 28.2662 24.2516 26.7664C24.2516 25.2666 23.0357 24.0508 21.5359 24.0508C20.0361 24.0508 18.8203 25.2666 18.8203 26.7664C18.8203 28.2662 20.0361 29.482 21.5359 29.482Z" fill="black"/>
<path d="M79.7531 148.373C61.8266 148.373 44.9728 141.391 32.2972 128.715C19.6213 116.038 12.6406 99.1839 12.6406 81.257C12.6406 44.2511 42.7472 14.1445 79.7531 14.1445C116.759 14.1445 146.866 44.2511 146.866 81.257C146.866 99.1839 139.885 116.038 127.209 128.715C114.533 141.391 97.68 148.373 79.7531 148.373ZM79.7531 17.2695C44.4703 17.2695 15.7656 45.9739 15.7656 81.257C15.7656 116.542 44.4703 145.248 79.7531 145.248C115.036 145.248 143.741 116.542 143.741 81.257C143.741 45.9739 115.036 17.2695 79.7531 17.2695Z" fill="black"/>
<path d="M64.8493 60.3195C64.5046 60.3195 64.158 60.2064 63.869 59.9733C58.7318 55.8286 54.1937 55.813 49.5874 59.923C48.9437 60.4977 47.9559 60.4417 47.3812 59.7977C46.8065 59.1536 46.8627 58.1661 47.5065 57.5914C53.2174 52.4942 59.5537 52.4773 65.8312 57.5411C66.5027 58.083 66.608 59.0667 66.0662 59.7383C65.7577 60.1208 65.3055 60.3195 64.8493 60.3195Z" fill="black"/>
<path d="M110.959 60.3193C110.614 60.3193 110.267 60.2062 109.978 59.9731C104.841 55.8277 100.303 55.8127 95.6968 59.9227C95.053 60.4974 94.0652 60.4415 93.4905 59.7974C92.9159 59.1534 92.9721 58.1659 93.6159 57.5912C99.3268 52.4946 105.664 52.4771 111.941 57.5409C112.612 58.0827 112.717 59.0665 112.176 59.7381C111.867 60.1206 111.415 60.3193 110.959 60.3193Z" fill="black"/>
<path d="M79.0282 108.781C63.6526 108.781 50.5541 97.8138 47.8832 82.7035C47.8029 82.2485 47.9279 81.7816 48.2248 81.4276C48.5216 81.0735 48.9601 80.8691 49.4219 80.8691H108.628C109.09 80.8691 109.529 81.0735 109.825 81.4273C110.122 81.7813 110.247 82.2485 110.167 82.7032C107.499 97.8138 94.4038 108.781 79.0282 108.781ZM51.3466 83.9938C54.4451 96.6535 65.801 105.656 79.0282 105.656C92.2544 105.656 103.609 96.6532 106.704 83.9938H51.3466Z" fill="black"/>
<path d="M142.92 25.6138C138.428 25.6138 134.773 21.9591 134.773 17.4669C134.773 12.9747 138.428 9.32031 142.92 9.32031C147.413 9.32031 151.067 12.9747 151.067 17.4669C151.067 21.9591 147.413 25.6138 142.92 25.6138ZM142.92 12.445C140.151 12.445 137.898 14.6978 137.898 17.4666C137.898 20.2356 140.151 22.4884 142.92 22.4884C145.689 22.4884 147.942 20.2356 147.942 17.4666C147.942 14.6978 145.689 12.445 142.92 12.445Z" fill="black"/>
<path d="M16.0156 150.682C12.1128 150.682 8.9375 147.506 8.9375 143.601C8.9375 139.698 12.1128 136.523 16.0156 136.523C19.9184 136.523 23.0938 139.698 23.0938 143.601C23.0938 147.506 19.9184 150.682 16.0156 150.682ZM16.0156 139.648C13.8359 139.648 12.0625 141.422 12.0625 143.601C12.0625 145.782 13.8359 147.557 16.0156 147.557C18.1953 147.557 19.9688 145.782 19.9688 143.601C19.9688 141.422 18.1953 139.648 16.0156 139.648Z" fill="black"/>
</g>
<defs>
<clipPath id="clip0_1339_201122">
<rect width="160" height="160" fill="white"/>
</clipPath>
</defs>
</svg>
