<svg width="22" height="19" viewBox="0 0 22 19" fill="none" xmlns="http://www.w3.org/2000/svg">
<path d="M1 2.69495H4.38983" stroke="white" stroke-width="1.5" stroke-miterlimit="10" stroke-linecap="round" stroke-linejoin="round"/>
<path d="M12.8652 2.69495H21.0008" stroke="white" stroke-width="1.5" stroke-miterlimit="10" stroke-linecap="round" stroke-linejoin="round"/>
<path d="M1 9.47461H12.8644" stroke="white" stroke-width="1.5" stroke-miterlimit="10" stroke-linecap="round" stroke-linejoin="round"/>
<path d="M17.9492 9.47461H21.0001" stroke="white" stroke-width="1.5" stroke-miterlimit="10" stroke-linecap="round" stroke-linejoin="round"/>
<path d="M1 16.2543H4.38983" stroke="white" stroke-width="1.5" stroke-miterlimit="10" stroke-linecap="round" stroke-linejoin="round"/>
<path d="M9.47461 16.2543H21" stroke="white" stroke-width="1.5" stroke-miterlimit="10" stroke-linecap="round" stroke-linejoin="round"/>
<path d="M7.78046 4.38983H6.08554C5.14948 4.38983 4.39062 3.63097 4.39062 2.69492C4.39062 1.75886 5.14948 1 6.08554 1H7.78046C8.71651 1 9.47537 1.75886 9.47537 2.69492C9.47537 3.63097 8.71651 4.38983 7.78046 4.38983Z" stroke="white" stroke-width="1.5" stroke-miterlimit="10" stroke-linecap="round" stroke-linejoin="round"/>
<path d="M7.78046 17.9492H6.08554C5.14948 17.9492 4.39062 17.1903 4.39062 16.2542C4.39062 15.3182 5.14948 14.5593 6.08554 14.5593H7.78046C8.71651 14.5593 9.47537 15.3182 9.47537 16.2542C9.47537 17.1903 8.71651 17.9492 7.78046 17.9492Z" stroke="white" stroke-width="1.5" stroke-miterlimit="10" stroke-linecap="round" stroke-linejoin="round"/>
<path d="M16.2551 11.1695H14.5601C13.6241 11.1695 12.8652 10.4106 12.8652 9.47458C12.8652 8.53852 13.6241 7.77966 14.5601 7.77966H16.2551C17.1911 7.77966 17.95 8.53852 17.95 9.47458C17.95 10.4106 17.1911 11.1695 16.2551 11.1695Z" stroke="white" stroke-width="1.5" stroke-miterlimit="10" stroke-linecap="round" stroke-linejoin="round"/>
</svg>
