<svg width="80" height="80" viewBox="0 0 80 80" fill="none" xmlns="http://www.w3.org/2000/svg">
<path d="M39.8766 7.85352C57.9781 7.85352 72.6516 22.5285 72.6516 40.6285C72.6516 58.7301 57.9781 73.4051 39.8766 73.4051C21.775 73.4051 7.10156 58.7301 7.10156 40.6285C7.10156 22.5285 21.775 7.85352 39.8766 7.85352Z" fill="#22C55E"/>
<path d="M8.00781 69.043C9.53125 69.043 10.7656 70.2773 10.7656 71.8008C10.7656 73.3242 9.53125 74.5602 8.00781 74.5602C6.48438 74.5602 5.25 73.3242 5.25 71.8008C5.25 70.2773 6.48438 69.043 8.00781 69.043Z" fill="white"/>
<path d="M71.4602 5.44141C73.2789 5.44141 74.7523 6.91484 74.7523 8.73359C74.7523 10.5523 73.2789 12.0258 71.4602 12.0258C69.6414 12.0258 68.168 10.5523 68.168 8.73359C68.168 6.91484 69.6414 5.44141 71.4602 5.44141Z" fill="white"/>
<path d="M24.7109 41.2148H54.3141C53.0703 48.2602 46.9141 53.6086 39.5141 53.6086C32.1094 53.6086 25.9562 48.2602 24.7109 41.2148Z" fill="white"/>
<path d="M67.2547 67.6836C68.0047 67.6836 68.6125 68.2914 68.6125 69.0414C68.6125 69.7914 68.0047 70.3992 67.2547 70.3992C66.5063 70.3992 65.8984 69.7914 65.8984 69.0414C65.8984 68.2914 66.5063 67.6836 67.2547 67.6836Z" fill="black"/>
<path d="M10.768 14.741C11.5179 14.741 12.1258 14.1331 12.1258 13.3832C12.1258 12.6333 11.5179 12.0254 10.768 12.0254C10.0181 12.0254 9.41016 12.6333 9.41016 13.3832C9.41016 14.1331 10.0181 14.741 10.768 14.741Z" fill="black"/>
<path d="M39.8766 74.1863C30.9133 74.1863 22.4864 70.6956 16.1486 64.3573C9.81063 58.0191 6.32031 49.592 6.32031 40.6285C6.32031 22.1255 21.3736 7.07227 39.8766 7.07227C58.3795 7.07227 73.4328 22.1255 73.4328 40.6285C73.4328 49.592 69.9423 58.0191 63.6047 64.3573C57.2667 70.6956 48.84 74.1863 39.8766 74.1863ZM39.8766 8.63477C22.2352 8.63477 7.88281 22.987 7.88281 40.6285C7.88281 58.2709 22.2352 72.624 39.8766 72.624C57.518 72.624 71.8703 58.271 71.8703 40.6285C71.8705 22.987 57.518 8.63477 39.8766 8.63477Z" fill="black"/>
<path d="M32.4246 30.1607C32.2523 30.1607 32.079 30.1042 31.9345 29.9876C29.3659 27.9153 27.0968 27.9075 24.7937 29.9625C24.4718 30.2498 23.9779 30.2218 23.6906 29.8998C23.4032 29.5778 23.4314 29.084 23.7532 28.7967C26.6087 26.2481 29.7768 26.2397 32.9156 28.7715C33.2514 29.0425 33.304 29.5343 33.0331 29.8701C32.8789 30.0614 32.6528 30.1607 32.4246 30.1607Z" fill="black"/>
<path d="M55.4793 30.1606C55.307 30.1606 55.1337 30.1041 54.9892 29.9875C52.4206 27.9148 50.1514 27.9073 47.8484 29.9623C47.5265 30.2497 47.0326 30.2217 46.7453 29.8997C46.4579 29.5777 46.4861 29.0839 46.8079 28.7966C49.6634 26.2483 52.8318 26.2395 55.9703 28.7714C56.306 29.0423 56.3586 29.5342 56.0878 29.87C55.9334 30.0613 55.7075 30.1606 55.4793 30.1606Z" fill="black"/>
<path d="M39.5141 54.3897C31.8263 54.3897 25.2771 48.9059 23.9416 41.3508C23.9014 41.1233 23.9639 40.8898 24.1124 40.7128C24.2608 40.5358 24.48 40.4336 24.711 40.4336H54.3141C54.5452 40.4336 54.7643 40.5358 54.9125 40.7127C55.061 40.8897 55.1236 41.1233 55.0835 41.3506C53.7497 48.9059 47.2019 54.3897 39.5141 54.3897ZM25.6733 41.9959C27.2225 48.3258 32.9005 52.827 39.5141 52.827C46.1272 52.827 51.8043 48.3256 53.3519 41.9959H25.6733Z" fill="black"/>
<path d="M71.4602 12.8069C69.2141 12.8069 67.3867 10.9795 67.3867 8.73344C67.3867 6.48734 69.2141 4.66016 71.4602 4.66016C73.7063 4.66016 75.5334 6.48734 75.5334 8.73344C75.5334 10.9795 73.7063 12.8069 71.4602 12.8069ZM71.4602 6.2225C70.0756 6.2225 68.9492 7.34891 68.9492 8.73328C68.9492 10.1178 70.0756 11.2442 71.4602 11.2442C72.8445 11.2442 73.9709 10.1178 73.9709 8.73328C73.9711 7.34891 72.8447 6.2225 71.4602 6.2225Z" fill="black"/>
<path d="M8.00781 75.3412C6.05641 75.3412 4.46875 73.753 4.46875 71.8006C4.46875 69.8492 6.05641 68.2617 8.00781 68.2617C9.95922 68.2617 11.5469 69.8492 11.5469 71.8006C11.5469 73.753 9.95922 75.3412 8.00781 75.3412ZM8.00781 69.8241C6.91797 69.8241 6.03125 70.7108 6.03125 71.8005C6.03125 72.8911 6.91797 73.7786 8.00781 73.7786C9.09766 73.7786 9.98438 72.8911 9.98438 71.8005C9.98438 70.7108 9.09766 69.8241 8.00781 69.8241Z" fill="black"/>
</svg>
