<svg width="24" height="24" viewBox="0 0 24 24" fill="none" xmlns="http://www.w3.org/2000/svg">
<g clip-path="url(#clip0_1287_140927)">
<path d="M10.7148 2.13558C11.2978 1.16685 12.7022 1.16685 13.2852 2.13558L15.6222 6.01892C15.8317 6.36694 16.1733 6.61514 16.569 6.70679L20.9845 7.72942C22.0859 7.98452 22.5199 9.32023 21.7788 10.174L18.8077 13.5967C18.5414 13.9034 18.4109 14.305 18.446 14.7097L18.8379 19.2251C18.9357 20.3514 17.7995 21.177 16.7584 20.7359L12.5851 18.9679C12.2111 18.8094 11.7889 18.8094 11.4149 18.9679L7.2416 20.7359C6.20055 21.177 5.06433 20.3514 5.16208 19.2251L5.55396 14.7097C5.58907 14.305 5.45859 13.9034 5.19232 13.5967L2.22123 10.174C1.48007 9.32023 1.91406 7.98452 3.01553 7.72942L7.43099 6.70679C7.8267 6.61514 8.16832 6.36694 8.37776 6.01892L10.7148 2.13558Z" fill="#FAA81A"/>
</g>
<defs>
<clipPath id="clip0_1287_140927">
<rect width="24" height="24" fill="white"/>
</clipPath>
</defs>
</svg>
