<svg width="18" height="17" viewBox="0 0 18 17" fill="none" xmlns="http://www.w3.org/2000/svg">
<path d="M8.03609 1.60168C8.47333 0.875137 9.52666 0.875138 9.9639 1.60169L11.7167 4.51419C11.8738 4.7752 12.13 4.96135 12.4267 5.03009L15.7383 5.79706C16.5644 5.98839 16.8899 6.99016 16.3341 7.63052L14.1057 10.1975C13.906 10.4276 13.8082 10.7288 13.8345 11.0323L14.1284 14.4188C14.2017 15.2636 13.3496 15.8827 12.5688 15.5519L9.43884 14.2259C9.15834 14.1071 8.84164 14.1071 8.56114 14.2259L5.43119 15.5519C4.6504 15.8827 3.79824 15.2636 3.87156 14.4188L4.16546 11.0323C4.1918 10.7288 4.09394 10.4276 3.89424 10.1975L1.66592 7.63052C1.11005 6.99016 1.43555 5.98839 2.26165 5.79706L5.57324 5.03009C5.87002 4.96135 6.12623 4.7752 6.28331 4.51419L8.03609 1.60168Z" stroke="#FAA81A" stroke-linejoin="round"/>
</svg>
