<svg width="22" height="20" viewBox="0 0 22 20" fill="none" xmlns="http://www.w3.org/2000/svg">
<path d="M9.71479 1.13558C10.2978 0.166853 11.7022 0.166852 12.2852 1.13558L14.6222 5.01892C14.8317 5.36694 15.1733 5.61514 15.569 5.70679L19.9845 6.72942C21.0859 6.98452 21.5199 8.32023 20.7788 9.17404L17.8077 12.5967C17.5414 12.9034 17.4109 13.305 17.446 13.7097L17.8379 18.2251C17.9357 19.3514 16.7995 20.177 15.7584 19.7359L11.5851 17.9679C11.2111 17.8094 10.7889 17.8094 10.4149 17.9679L6.2416 19.7359C5.20055 20.177 4.06433 19.3514 4.16208 18.2251L4.55396 13.7097C4.58907 13.305 4.45859 12.9034 4.19232 12.5967L1.22123 9.17404C0.480066 8.32023 0.914063 6.98452 2.01553 6.72942L6.43099 5.70679C6.8267 5.61514 7.16832 5.36694 7.37776 5.01892L9.71479 1.13558Z" fill="#D4D4D8"/>
</svg>
