<svg width="18" height="18" viewBox="0 0 18 18" fill="none" xmlns="http://www.w3.org/2000/svg">
<path fill-rule="evenodd" clip-rule="evenodd" d="M9 18C13.9706 18 18 13.9706 18 9C18 4.02944 13.9706 0 9 0C4.02944 0 0 4.02944 0 9C0 10.1971 0.233736 11.3397 0.658062 12.3845L0.658069 12.3845C0.739276 12.5845 0.77988 12.6845 0.797995 12.7653C0.815716 12.8443 0.822196 12.9028 0.822207 12.9839C0.822217 13.0667 0.807181 13.1569 0.777108 13.3374L0.184127 16.8952C0.12203 17.2678 0.0909822 17.4541 0.14876 17.5888C0.19933 17.7067 0.293283 17.8007 0.411184 17.8512C0.545893 17.909 0.732183 17.878 1.10476 17.8159L4.66265 17.2229C4.84309 17.1928 4.9333 17.1778 5.01613 17.1778C5.09715 17.1778 5.15566 17.1843 5.23472 17.202C5.31554 17.2201 5.41552 17.2607 5.61549 17.3419C6.6603 17.7663 7.80286 18 9 18ZM4.5 7.5C3.67157 7.5 3 8.17157 3 9C3 9.82843 3.67157 10.5 4.5 10.5C5.32843 10.5 6 9.82843 6 9C6 8.17157 5.32843 7.5 4.5 7.5ZM9 7.5C8.17157 7.5 7.5 8.17157 7.5 9C7.5 9.82843 8.17157 10.5 9 10.5C9.82843 10.5 10.5 9.82843 10.5 9C10.5 8.17157 9.82843 7.5 9 7.5ZM13.5 7.5C12.6716 7.5 12 8.17157 12 9C12 9.82843 12.6716 10.5 13.5 10.5C14.3284 10.5 15 9.82843 15 9C15 8.17157 14.3284 7.5 13.5 7.5Z" fill="#52525B"/>
</svg>
