<svg width="25" height="24" viewBox="0 0 25 24" fill="none" xmlns="http://www.w3.org/2000/svg">
<path d="M19.194 9.67188C19.194 9.67188 18.6817 15.861 18.3845 18.4681C18.2429 19.7133 17.4532 20.4429 16.1597 20.4659C13.6981 20.5091 11.2336 20.5119 8.77296 20.4613C7.52848 20.4365 6.75197 19.6977 6.61327 18.4745C6.31418 15.8445 5.80469 9.67188 5.80469 9.67188" stroke="#FE3F34" stroke-width="1.5" stroke-linecap="round" stroke-linejoin="round"/>
<path d="M20.5 6.70557H4.5" stroke="#FE3F34" stroke-width="1.5" stroke-linecap="round" stroke-linejoin="round"/>
<path d="M17.4162 6.70623C16.6756 6.70623 16.0377 6.19621 15.8924 5.48954L15.6632 4.37209C15.5216 3.85655 15.0423 3.5 14.4961 3.5H10.5022C9.9559 3.5 9.47659 3.85655 9.33507 4.37209L9.1058 5.48954C8.9605 6.19621 8.32268 6.70623 7.58203 6.70623" stroke="#FE3F34" stroke-width="1.5" stroke-linecap="round" stroke-linejoin="round"/>
</svg>
