<svg width="80" height="80" viewBox="0 0 80 80" fill="none" xmlns="http://www.w3.org/2000/svg">
<path d="M40.5547 6.01172C59.2984 6.01172 74.4922 21.2055 74.4922 39.9477C74.4922 58.6914 59.2984 73.8851 40.5547 73.8851C21.8109 73.8851 6.61719 58.6914 6.61719 39.9477C6.61719 21.2055 21.8109 6.01172 40.5547 6.01172Z" fill="#FE3F34"/>
<path d="M7.32422 69.7207C8.84766 69.7207 10.082 70.9551 10.082 72.4785C10.082 74.002 8.84766 75.2379 7.32422 75.2379C5.80078 75.2379 4.56641 74.002 4.56641 72.4785C4.56641 70.9551 5.80078 69.7207 7.32422 69.7207Z" fill="white"/>
<path d="M72.132 4.76172C73.9508 4.76172 75.4242 6.23516 75.4242 8.05391C75.4242 9.87266 73.9508 11.3461 72.132 11.3461C70.3133 11.3461 68.8398 9.87266 68.8398 8.05391C68.8398 6.23516 70.3133 4.76172 72.132 4.76172Z" fill="white"/>
<path d="M70.1977 72.4773C70.9476 72.4773 71.5555 71.8694 71.5555 71.1195C71.5555 70.3696 70.9476 69.7617 70.1977 69.7617C69.4478 69.7617 68.8398 70.3696 68.8398 71.1195C68.8398 71.8694 69.4478 72.4773 70.1977 72.4773Z" fill="black"/>
<path d="M10.0844 10.7703C10.8343 10.7703 11.4422 10.1624 11.4422 9.4125C11.4422 8.6626 10.8343 8.05469 10.0844 8.05469C9.33448 8.05469 8.72656 8.6626 8.72656 9.4125C8.72656 10.1624 9.33448 10.7703 10.0844 10.7703Z" fill="black"/>
<path d="M40.5548 74.6662C31.2808 74.6662 22.5622 71.055 16.0047 64.4975C9.44734 57.9402 5.83594 49.2214 5.83594 39.9475C5.83594 30.6742 9.44719 21.9559 16.0047 15.3989C22.5622 8.84172 31.2809 5.23047 40.5548 5.23047C49.8288 5.23047 58.5475 8.84172 65.105 15.3989C71.6623 21.9561 75.2736 30.6744 75.2736 39.9475C75.2736 49.2216 71.6623 57.9402 65.105 64.4975C58.5475 71.0548 49.8288 74.6662 40.5548 74.6662ZM40.5548 6.79281C22.2723 6.79281 7.39859 21.6659 7.39859 39.9473C7.39859 58.2298 22.2723 73.1036 40.5548 73.1036C58.8372 73.1036 73.7111 58.2298 73.7111 39.9473C73.7111 21.6658 58.8373 6.79281 40.5548 6.79281Z" fill="black"/>
<path d="M32.8349 30.0293C32.6629 30.0293 32.4899 29.9729 32.3454 29.8567C29.6713 27.7037 27.3101 27.6957 24.9146 29.8312C24.5924 30.1187 24.0986 30.0903 23.8115 29.7681C23.5243 29.4461 23.5526 28.9522 23.8746 28.6651C26.8601 26.0029 30.0396 25.9945 33.3251 28.6396C33.6611 28.9101 33.7143 29.402 33.4436 29.7381C33.2896 29.9296 33.0632 30.0293 32.8349 30.0293Z" fill="black"/>
<path d="M56.7097 30.0294C56.5375 30.0294 56.3645 29.973 56.22 29.8566C53.5474 27.7036 51.1861 27.6956 48.7892 29.8314C48.4674 30.1186 47.9733 30.0903 47.6863 29.768C47.3992 29.4458 47.4277 28.9521 47.7497 28.665C50.7366 26.003 53.9159 25.9944 57.2002 28.6399C57.5361 28.9105 57.5891 29.4024 57.3184 29.7383C57.1642 29.9299 56.938 30.0294 56.7097 30.0294Z" fill="black"/>
<path d="M22.4759 53.2229C22.3267 53.2229 22.1759 53.1803 22.0426 53.0911C21.6839 52.8514 21.5873 52.3662 21.8271 52.0073C25.7764 46.0972 32.2085 42.5808 39.4743 42.3598C43.1346 42.2508 46.834 43.0164 50.1725 44.58C53.7415 46.2517 56.7964 48.7376 59.2517 51.9687C59.5128 52.3122 59.4459 52.8023 59.1025 53.0634C58.7589 53.325 58.2689 53.2575 58.0078 52.9142C53.4973 46.9794 46.7595 43.703 39.5218 43.9215C32.7671 44.1269 26.7912 47.3905 23.1262 52.8756C22.9756 53.1011 22.7281 53.2229 22.4759 53.2229Z" fill="black"/>
<path d="M72.132 12.1272C69.8859 12.1272 68.0586 10.2998 68.0586 8.05375C68.0586 5.80766 69.8859 3.98047 72.132 3.98047C74.3781 3.98047 76.2053 5.80766 76.2053 8.05375C76.2053 10.2998 74.3781 12.1272 72.132 12.1272ZM72.132 5.54281C70.7475 5.54281 69.6211 6.66922 69.6211 8.05359C69.6211 9.43812 70.7475 10.5645 72.132 10.5645C73.5164 10.5645 74.6428 9.43812 74.6428 8.05359C74.643 6.66922 73.5166 5.54281 72.132 5.54281Z" fill="black"/>
<path d="M7.32422 76.0191C5.37281 76.0191 3.78516 74.4309 3.78516 72.4785C3.78516 70.5271 5.37281 68.9395 7.32422 68.9395C9.27563 68.9395 10.8633 70.5271 10.8633 72.4785C10.8633 74.4309 9.27563 76.0191 7.32422 76.0191ZM7.32422 70.5018C6.23438 70.5018 5.34766 71.3885 5.34766 72.4784C5.34766 73.569 6.23438 74.4565 7.32422 74.4565C8.41406 74.4565 9.30078 73.569 9.30078 72.4784C9.30078 71.3885 8.41406 70.5018 7.32422 70.5018Z" fill="black"/>
</svg>
