<svg width="180" height="180" viewBox="0 0 180 180" fill="none" xmlns="http://www.w3.org/2000/svg">
<path d="M89.9992 18.812L167.444 84.1546L89.9992 129.137L12.5543 84.1546L89.9992 18.812Z" fill="#FAA81A" stroke="#18181B" stroke-width="0.88"/>
<path d="M154.159 12.6406V140.545H25.8384V38.1483H50.4297C54.6972 38.1483 58.1568 34.6888 58.1568 30.4212V5.79352H147.312C151.093 5.79352 154.159 8.85907 154.159 12.6406Z" fill="white" stroke="#18181B" stroke-width="0.88"/>
<path d="M26.4598 37.2683L57.2768 6.41662V30.4212C57.2768 34.2028 54.2112 37.2683 50.4297 37.2683H26.4598Z" fill="#E4E4E7" stroke="#18181B" stroke-width="0.88"/>
<path d="M167.765 84.9851V161.612C167.765 164.95 166.475 167.94 164.397 170.176L164.396 170.177C162.097 172.664 158.824 174.207 155.171 174.207H24.8273C21.1746 174.207 17.9015 172.665 15.6028 170.177L15.6019 170.176C13.5232 167.94 12.233 164.95 12.233 161.612V84.9851L89.7782 130.026L89.9992 130.154L90.2202 130.026L167.765 84.9851Z" fill="#FDD82C" stroke="#18181B" stroke-width="0.88"/>
<path d="M24.8269 174.207C21.3341 174.207 18.1883 172.797 15.9098 170.498L81.5419 111.026C86.3412 106.677 93.6564 106.677 98.4556 111.026L164.088 170.498C161.809 172.797 158.664 174.207 155.171 174.207H24.8269Z" fill="#FAA81A" stroke="#18181B" stroke-width="0.88"/>
<path d="M47.1313 76.4431C46.7952 76.3035 46.516 76.0722 46.2911 75.7503C46.0662 75.4285 45.9551 75.0847 45.9551 74.7202C45.9551 74.2446 46.1153 73.8323 46.4385 73.4807C46.7616 73.1304 47.1752 72.9559 47.6793 72.9559C47.9585 72.9559 48.2247 73.0128 48.4781 73.124C51.0553 74.273 53.8135 74.8469 56.7553 74.8469C61.6591 74.8469 64.1096 73.2364 64.1096 70.0142C64.1096 69.1741 63.7943 68.4735 63.1635 67.9126C62.5328 67.3529 61.7573 66.9109 60.8319 66.589C59.9064 66.2672 58.5906 65.882 56.882 65.4335C54.6123 64.8454 52.7769 64.278 51.3759 63.7313C49.9748 63.1846 48.7702 62.3651 47.762 61.273C46.7538 60.1808 46.2498 58.7241 46.2498 56.903C46.2498 55.3054 46.6685 53.8552 47.5113 52.5524C48.3514 51.2495 49.5896 50.2142 51.2285 49.4426C52.8674 48.6723 54.8372 48.2871 57.1327 48.2871C60.2166 48.2871 63.0033 48.7498 65.4978 49.674C66.2811 49.9544 66.674 50.5141 66.674 51.3555C66.674 51.804 66.5189 52.2099 66.2113 52.5744C65.9037 52.9388 65.4978 53.1198 64.9912 53.1198C64.8231 53.1198 64.6008 53.0642 64.319 52.9518C62.1347 52.1957 59.878 51.817 57.5541 51.817C55.3413 51.817 53.5395 52.237 52.154 53.0784C50.7684 53.9186 50.073 55.0948 50.073 56.6083C50.073 57.6164 50.4039 58.4359 51.0605 59.0666C51.7197 59.6974 52.5469 60.1872 53.5395 60.5375C54.5348 60.8878 55.8867 61.2587 57.5954 61.6517C59.8081 62.1842 61.5944 62.7167 62.9542 63.2479C64.3139 63.7804 65.4746 64.6076 66.4413 65.7269C67.4081 66.8488 67.8915 68.3611 67.8915 70.2662C67.8915 71.8353 67.4443 73.2429 66.5473 74.4902C65.6503 75.7361 64.3888 76.7107 62.7655 77.4099C61.1395 78.1105 59.2628 78.4607 57.1327 78.4607C53.5757 78.4607 50.241 77.7886 47.1313 76.4431Z" fill="#F95250"/>
<path d="M57.1333 79.255C53.4833 79.255 50.0142 78.5557 46.8191 77.174C46.3486 76.9763 45.9531 76.6506 45.6403 76.2059C45.3224 75.751 45.1621 75.2508 45.1621 74.7208C45.1621 74.0423 45.3948 73.4438 45.8549 72.9436C46.5761 72.1604 47.7781 71.9536 48.7966 72.3969C51.2628 73.4968 53.9408 74.0539 56.7559 74.0539C63.3167 74.0539 63.3167 71.0139 63.3167 70.0148C63.3167 69.3983 63.0996 68.9188 62.6368 68.5065C62.0836 68.0166 61.3909 67.6237 60.5714 67.3393C59.6666 67.0252 58.3586 66.6427 56.681 66.2019C54.3932 65.6099 52.5113 65.027 51.087 64.4712C49.5799 63.8832 48.2641 62.9887 47.1784 61.8126C46.0358 60.5743 45.4568 58.9225 45.4568 56.9036C45.4568 55.1548 45.9247 53.547 46.845 52.1213C47.7626 50.7009 49.1224 49.557 50.8905 48.7246C52.6302 47.9077 54.7293 47.4941 57.1333 47.4941C60.2948 47.4941 63.203 47.9762 65.775 48.9301C66.8633 49.3205 67.4682 50.1826 67.4682 51.3562C67.4682 51.9934 67.2511 52.5763 66.8194 53.0868C66.3618 53.6284 65.7311 53.914 64.9918 53.914C64.7152 53.914 64.4102 53.8429 64.025 53.6904C61.9673 52.9783 59.7804 52.6112 57.5547 52.6112C55.497 52.6112 53.8193 52.9976 52.5656 53.7576C51.423 54.4517 50.8672 55.3836 50.8672 56.6089C50.8672 57.3973 51.1102 58.0139 51.6117 58.4947C52.183 59.0414 52.9223 59.4783 53.8038 59.7898C54.7629 60.1271 56.0993 60.4929 57.7744 60.8781C60.0156 61.4183 61.8536 61.9664 63.2443 62.5092C64.7152 63.0857 65.9922 63.993 67.0417 65.208C68.1326 66.4746 68.6858 68.1756 68.6858 70.2669C68.6858 71.9988 68.1843 73.577 67.1916 74.9548C66.2145 76.3145 64.8289 77.386 63.0815 78.1395C61.3624 78.8801 59.3616 79.255 57.1333 79.255ZM47.6799 73.7502C47.3982 73.7502 47.1939 73.8342 47.0233 74.0203C46.8372 74.2219 46.7493 74.4455 46.7493 74.7208C46.7493 74.9225 46.8139 75.1099 46.9432 75.296C47.0802 75.4951 47.243 75.6295 47.4369 75.7109C47.4395 75.7122 47.4447 75.7135 47.4473 75.7148C50.4407 77.0099 53.7004 77.6678 57.1333 77.6678C59.1445 77.6678 60.9333 77.3356 62.4507 76.6816C63.9345 76.0431 65.0952 75.15 65.9043 74.0268C66.7082 72.9087 67.0986 71.6796 67.0986 70.2669C67.0986 68.5672 66.6746 67.214 65.8397 66.2459C64.9608 65.2287 63.8932 64.4687 62.6653 63.9878C61.3443 63.4708 59.5736 62.9448 57.4099 62.4239C55.6857 62.0271 54.2924 61.6445 53.2765 61.2878C52.1778 60.9 51.2498 60.3456 50.5131 59.6411C49.6936 58.8553 49.28 57.8355 49.28 56.6089C49.28 54.8072 50.1072 53.3906 51.7436 52.4005C53.248 51.4867 55.2023 51.024 57.5547 51.024C59.9562 51.024 62.3215 51.4195 64.5782 52.2015C64.8858 52.3242 64.9866 52.3268 64.9918 52.3268C65.2658 52.3268 65.4493 52.248 65.6044 52.0632C65.7931 51.8396 65.881 51.616 65.881 51.3562C65.881 50.8521 65.6975 50.5897 65.2296 50.4217C62.8281 49.5324 60.1061 49.0813 57.1333 49.0813C54.9645 49.0813 53.0929 49.4458 51.5678 50.1619C50.0736 50.865 48.9337 51.815 48.1788 52.9834C47.4162 54.1648 47.044 55.4457 47.044 56.9036C47.044 58.5335 47.4705 59.7859 48.3469 60.7346C49.2671 61.7324 50.3838 62.4924 51.666 62.9926C53.0309 63.5251 54.8533 64.0874 57.0816 64.6651C58.8007 65.1162 60.15 65.5117 61.0936 65.84C62.1095 66.1929 62.9832 66.6905 63.6915 67.3186C64.4955 68.0347 64.9039 68.942 64.9039 70.0148C64.9039 72.5817 63.4899 75.6411 56.7559 75.6411C53.7159 75.6411 50.8207 75.0388 48.1556 73.8497C48.0056 73.7838 47.8479 73.7502 47.6799 73.7502Z" fill="#F95250"/>
<path d="M74.3208 77.9998C73.9563 77.6353 73.7754 77.1868 73.7754 76.6543V51.5667C73.7754 50.8093 74.0416 50.1579 74.5742 49.6124C75.1067 49.0657 75.7503 48.793 76.5078 48.793H77.8933C78.4543 48.793 78.9661 48.961 79.4262 49.297C79.889 49.6331 80.2328 50.0532 80.4577 50.5572L89.9964 74.3433L99.5351 50.5572C99.76 50.0532 100.104 49.6331 100.567 49.297C101.029 48.961 101.538 48.793 102.099 48.793H103.488C104.242 48.793 104.886 49.0657 105.419 49.6124C105.951 50.1579 106.217 50.8093 106.217 51.5667V76.6543C106.217 77.1868 106.036 77.6353 105.672 77.9998C105.307 78.363 104.858 78.5465 104.328 78.5465C103.795 78.5465 103.34 78.363 102.96 77.9998C102.583 77.6353 102.394 77.1868 102.394 76.6543V52.7855L92.6874 76.781C92.4625 77.3135 92.1032 77.7413 91.6146 78.0631C91.1234 78.385 90.5858 78.5465 89.9964 78.5465C89.4096 78.5465 88.8693 78.385 88.3782 78.0631C87.887 77.7413 87.5303 77.3135 87.308 76.781L77.5986 52.7855V76.6543C77.5986 77.1868 77.4099 77.6353 77.0325 77.9998C76.6551 78.363 76.1976 78.5465 75.665 78.5465C75.1325 78.5465 74.6853 78.363 74.3208 77.9998Z" fill="#F95250"/>
<path d="M104.328 79.3408C103.589 79.3408 102.945 79.0835 102.413 78.5743C101.88 78.0612 101.601 77.3981 101.601 76.6549V56.8666L93.4247 77.0789C93.1352 77.7665 92.6751 78.3171 92.0521 78.7268C90.8061 79.5437 89.1853 79.5424 87.9445 78.7281C87.3189 78.3197 86.8588 77.7678 86.577 77.0879L78.3929 56.8653V76.6549C78.3929 77.3981 78.1137 78.0612 77.5838 78.5717C76.5317 79.5902 74.7919 79.5889 73.7605 78.5627C73.2435 78.047 72.9824 77.4046 72.9824 76.6549V51.5673C72.9824 50.5992 73.3262 49.7552 74.0061 49.0586C74.6911 48.3554 75.5338 48 76.5084 48H77.894C78.6255 48 79.2976 48.221 79.8948 48.6566C80.4686 49.0728 80.9029 49.604 81.1847 50.2347L89.997 72.21L98.799 50.2619C99.0911 49.604 99.5254 49.0728 100.099 48.6553C100.699 48.2197 101.371 48 102.1 48H103.488C104.463 48 105.303 48.3554 105.988 49.0586C106.668 49.7552 107.012 50.5992 107.012 51.5673V76.6549C107.012 77.4046 106.751 78.0457 106.234 78.5614C105.722 79.0719 105.062 79.3408 104.328 79.3408ZM102.395 51.9926C102.444 51.9926 102.496 51.9964 102.547 52.0068C102.92 52.0792 103.188 52.4062 103.188 52.7862V76.6549C103.188 76.9742 103.289 77.2133 103.511 77.4291C103.966 77.8621 104.675 77.8712 105.112 77.4382C105.324 77.2249 105.424 76.9768 105.424 76.6549V51.5673C105.424 51.0206 105.236 50.563 104.851 50.1675C104.465 49.772 104.034 49.5872 103.488 49.5872H102.1C101.71 49.5872 101.361 49.7035 101.035 49.9401C100.683 50.196 100.43 50.5036 100.262 50.881L90.7337 74.6399C90.4907 75.2422 89.5033 75.2422 89.2603 74.6399L79.7216 50.8539C79.5639 50.5036 79.3105 50.196 78.959 49.9401C78.6359 49.7022 78.2869 49.5872 77.894 49.5872H76.5084C75.9629 49.5872 75.5287 49.772 75.1435 50.1675C74.7583 50.563 74.5696 51.0206 74.5696 51.5673V76.6549C74.5696 76.9768 74.6704 77.2249 74.8824 77.4395C75.3193 77.8699 76.0276 77.866 76.4825 77.4278C76.7048 77.2133 76.8057 76.9742 76.8057 76.6549V52.7862C76.8057 52.4062 77.0745 52.0792 77.4467 52.0068C77.8371 51.9305 78.1938 52.1373 78.336 52.4889L88.0453 76.4843C88.203 76.863 88.4563 77.1642 88.8131 77.3994C89.542 77.8751 90.452 77.8751 91.1809 77.3994C91.5377 77.1629 91.7936 76.8604 91.9565 76.4727L101.658 52.4889C101.782 52.1839 102.077 51.9926 102.395 51.9926Z" fill="#F95250"/>
<path d="M113.614 76.4431C113.278 76.3035 112.998 76.0722 112.774 75.7503C112.549 75.4285 112.438 75.0847 112.438 74.7202C112.438 74.2446 112.598 73.8323 112.921 73.4807C113.244 73.1304 113.658 72.9559 114.162 72.9559C114.441 72.9559 114.707 73.0128 114.96 73.124C117.538 74.273 120.296 74.8469 123.238 74.8469C128.141 74.8469 130.592 73.2364 130.592 70.0142C130.592 69.1741 130.277 68.4735 129.646 67.9126C129.015 67.3529 128.24 66.9109 127.314 66.589C126.389 66.2672 125.073 65.882 123.364 65.4335C121.095 64.8454 119.259 64.278 117.858 63.7313C116.457 63.1846 115.253 62.3651 114.244 61.273C113.236 60.1808 112.732 58.7241 112.732 56.903C112.732 55.3054 113.151 53.8552 113.994 52.5524C114.834 51.2495 116.072 50.2142 117.711 49.4426C119.35 48.6723 121.32 48.2871 123.615 48.2871C126.699 48.2871 129.486 48.7498 131.98 49.674C132.764 49.9544 133.156 50.5141 133.156 51.3555C133.156 51.804 133.001 52.2099 132.694 52.5744C132.386 52.9388 131.98 53.1198 131.474 53.1198C131.306 53.1198 131.083 53.0642 130.801 52.9518C128.617 52.1957 126.36 51.817 124.036 51.817C121.824 51.817 120.022 52.237 118.636 53.0784C117.251 53.9186 116.555 55.0948 116.555 56.6083C116.555 57.6164 116.886 58.4359 117.543 59.0666C118.202 59.6974 119.029 60.1872 120.022 60.5375C121.017 60.8878 122.369 61.2587 124.078 61.6517C126.291 62.1842 128.077 62.7167 129.437 63.2479C130.796 63.7804 131.957 64.6076 132.924 65.7269C133.891 66.8488 134.374 68.3611 134.374 70.2662C134.374 71.8353 133.927 73.2429 133.03 74.4902C132.133 75.7361 130.871 76.7107 129.248 77.4099C127.622 78.1105 125.745 78.4607 123.615 78.4607C120.058 78.4607 116.723 77.7886 113.614 76.4431Z" fill="#F95250"/>
<path d="M123.616 79.255C119.966 79.255 116.497 78.5557 113.302 77.174C112.831 76.9763 112.436 76.6506 112.123 76.2059C111.805 75.751 111.645 75.2508 111.645 74.7208C111.645 74.0423 111.877 73.4438 112.337 72.9436C113.061 72.1604 114.263 71.9536 115.279 72.3969C117.745 73.4968 120.423 74.0539 123.238 74.0539C129.799 74.0539 129.799 71.0139 129.799 70.0148C129.799 69.3983 129.582 68.9188 129.119 68.5065C128.566 68.0166 127.873 67.6237 127.054 67.3393C126.149 67.0252 124.841 66.6427 123.163 66.2019C120.876 65.6099 118.994 65.027 117.569 64.4712C116.062 63.8832 114.747 62.9887 113.661 61.8126C112.518 60.5743 111.939 58.9225 111.939 56.9036C111.939 55.1548 112.407 53.547 113.327 52.1213C114.245 50.7009 115.605 49.557 117.373 48.7246C119.113 47.9077 121.212 47.4941 123.616 47.4941C126.777 47.4941 129.685 47.9762 132.257 48.9301C133.346 49.3205 133.951 50.1826 133.951 51.3562C133.951 51.9934 133.734 52.5763 133.302 53.0868C132.844 53.6284 132.214 53.914 131.474 53.914C131.198 53.914 130.893 53.8429 130.507 53.6904C128.45 52.9783 126.263 52.6112 124.037 52.6112C121.979 52.6112 120.302 52.9976 119.048 53.7576C117.905 54.4517 117.35 55.3836 117.35 56.6089C117.35 57.3973 117.593 58.0139 118.094 58.4947C118.665 59.0414 119.405 59.4783 120.286 59.7898C121.245 60.1271 122.582 60.4929 124.257 60.8781C126.498 61.4183 128.336 61.9664 129.727 62.5092C131.198 63.0857 132.475 63.993 133.524 65.208C134.615 66.4746 135.168 68.1756 135.168 70.2669C135.168 71.9988 134.667 73.577 133.674 74.9548C132.697 76.3145 131.311 77.386 129.564 78.1395C127.845 78.8801 125.844 79.255 123.616 79.255ZM114.162 73.7502C113.881 73.7502 113.676 73.8342 113.506 74.0203C113.32 74.2219 113.232 74.4455 113.232 74.7208C113.232 74.9225 113.296 75.1099 113.426 75.296C113.563 75.4951 113.725 75.6295 113.919 75.7109C113.922 75.7122 113.927 75.7135 113.93 75.7148C116.923 77.0099 120.183 77.6678 123.616 77.6678C125.627 77.6678 127.416 77.3356 128.933 76.6816C130.417 76.0431 131.578 75.15 132.387 74.0268C133.191 72.9087 133.581 71.6796 133.581 70.2669C133.581 68.5672 133.157 67.214 132.322 66.2459C131.443 65.2287 130.376 64.4687 129.148 63.9878C127.827 63.4708 126.056 62.9448 123.892 62.4239C122.168 62.0271 120.775 61.6445 119.759 61.2878C118.66 60.9 117.732 60.3456 116.996 59.6411C116.176 58.8553 115.762 57.8355 115.762 56.6089C115.762 54.8072 116.59 53.3906 118.226 52.4005C119.73 51.4867 121.685 51.024 124.037 51.024C126.439 51.024 128.804 51.4195 131.061 52.2015C131.368 52.3242 131.469 52.3268 131.474 52.3268C131.748 52.3268 131.932 52.248 132.087 52.0632C132.276 51.8396 132.363 51.616 132.363 51.3562C132.363 50.8521 132.18 50.5897 131.712 50.4217C129.311 49.5324 126.589 49.0813 123.616 49.0813C121.447 49.0813 119.575 49.4458 118.05 50.1619C116.556 50.865 115.416 51.815 114.661 52.9834C113.899 54.1648 113.526 55.4457 113.526 56.9036C113.526 58.5335 113.953 59.7859 114.829 60.7346C115.75 61.7324 116.866 62.4924 118.148 62.9926C119.513 63.5251 121.336 64.0874 123.564 64.6651C125.283 65.1162 126.632 65.5117 127.576 65.84C128.592 66.1929 129.466 66.6905 130.174 67.3186C130.978 68.0347 131.386 68.942 131.386 70.0148C131.386 72.5817 129.972 75.6411 123.238 75.6411C120.198 75.6411 117.303 75.0388 114.638 73.8497C114.488 73.7838 114.33 73.7502 114.162 73.7502Z" fill="#F95250"/>
</svg>
