<svg width="161" height="56" viewBox="0 0 161 56" fill="none" xmlns="http://www.w3.org/2000/svg">
<path d="M92.6759 24.6918H89.6848C89.6233 24.447 89.5775 24.1631 89.547 23.8408C89.4861 23.2135 89.4861 22.5817 89.547 21.9544C89.5775 21.6328 89.6233 21.3491 89.6848 21.1029H97.1392V44.7076C96.766 44.7725 96.3897 44.8183 96.0119 44.8449C95.6366 44.8736 95.2603 44.8889 94.8839 44.8905C94.5233 44.8882 94.1629 44.873 93.8034 44.8449C93.4257 44.8181 93.0496 44.772 92.6766 44.7069V24.6909V24.6913L92.6759 24.6918ZM118.626 30.628C118.626 29.7688 118.511 28.9485 118.282 28.1656C118.051 27.3839 117.713 26.7016 117.269 26.1184C116.824 25.5361 116.257 25.0679 115.566 24.7153C114.876 24.3625 114.056 24.1859 113.105 24.1859C111.234 24.1859 109.799 24.7542 108.803 25.8887C107.806 27.0234 107.2 28.6031 106.985 30.628H118.627H118.626ZM106.939 34.0326C107.001 36.6093 107.668 38.4961 108.941 39.6918C110.213 40.888 112.093 41.487 114.577 41.487C116.755 41.487 118.825 41.103 120.789 40.3362C121.033 40.7963 121.233 41.3562 121.386 42.0157C121.537 42.6579 121.629 43.3123 121.662 43.971C120.651 44.4016 119.538 44.7222 118.327 44.9375C117.114 45.1516 115.773 45.2596 114.301 45.2596C112.153 45.2596 110.312 44.9596 108.779 44.362C107.245 43.7632 105.98 42.9196 104.983 41.8312C103.986 40.7425 103.257 39.454 102.797 37.966C102.338 36.4787 102.107 34.845 102.107 33.0659C102.107 31.3175 102.329 29.6838 102.774 28.1651C103.218 26.6476 103.902 25.3283 104.821 24.2087C105.742 23.0886 106.9 22.1994 108.296 21.5399C109.691 20.8804 111.339 20.5501 113.242 20.5501C114.867 20.5501 116.294 20.8266 117.521 21.3786C118.748 21.9306 119.775 22.69 120.604 23.6562C121.432 24.6227 122.061 25.773 122.49 27.1067C122.919 28.4416 123.135 29.8907 123.135 31.4555C123.135 31.8851 123.119 32.3373 123.088 32.8125C123.063 33.2192 123.032 33.6257 122.997 34.0317H106.938L106.939 34.0324L106.939 34.0326ZM128.153 21.1029C128.473 21.0447 128.795 20.9988 129.119 20.9651C129.425 20.9351 129.748 20.9195 130.085 20.9195C130.423 20.9195 130.76 20.9351 131.098 20.9651C131.435 20.9963 131.742 21.0424 132.018 21.1029C132.109 21.5632 132.201 22.1697 132.293 22.9204C132.385 23.6721 132.432 24.3081 132.432 24.8298C133.076 23.7873 133.927 22.8817 134.985 22.1147C136.043 21.3484 137.401 20.9644 139.057 20.9644C139.302 20.9644 139.555 20.9725 139.816 20.9879C140.039 20.9999 140.262 21.0225 140.483 21.0563C140.544 21.3328 140.591 21.6246 140.621 21.9309C140.652 22.2373 140.667 22.5597 140.667 22.8969C140.667 23.2653 140.644 23.649 140.598 24.0469C140.554 24.4316 140.501 24.815 140.438 25.197C140.189 25.1358 139.934 25.105 139.678 25.1051H139.056C138.228 25.1051 137.438 25.2203 136.687 25.45C135.935 25.6804 135.26 26.0869 134.662 26.6692C134.065 27.2524 133.589 28.0501 133.237 29.0625C132.883 30.0748 132.707 31.3785 132.707 32.9733V44.7069C132.334 44.7717 131.958 44.818 131.58 44.8446C131.166 44.8753 130.79 44.8902 130.453 44.8902C130.077 44.8887 129.701 44.8735 129.325 44.8446C128.932 44.816 128.541 44.7702 128.152 44.7071V21.1031L128.153 21.1029ZM95.86 8.49902C95.86 9.04975 95.7606 9.59596 95.5665 10.1113C95.0509 10.3055 94.5045 10.405 93.9537 10.4051H93.9469C93.396 10.4052 92.8497 10.3057 92.3341 10.1116C92.1397 9.59611 92.0401 9.04971 92.0401 8.49878V8.49158C92.0401 7.92398 92.1443 7.38038 92.3329 6.87878C92.8486 6.68435 93.3951 6.58491 93.9462 6.58526H93.9524C94.5203 6.58526 95.0637 6.68942 95.5652 6.87878C95.7596 7.39427 95.859 7.94068 95.8588 8.49158V8.49878H95.8595L95.86 8.49902ZM101.482 7.22222H97.024L100.176 4.06982C99.6805 3.3737 99.0719 2.76532 98.3757 2.26982L95.223 5.42222V0.963742C94.8038 0.893227 94.3795 0.857664 93.9544 0.857422H93.9462C93.5137 0.857422 93.0901 0.894382 92.6773 0.963742V5.42222L89.524 2.26958C89.1767 2.51675 88.8508 2.7926 88.5496 3.09422L88.5481 3.09566C88.247 3.39706 87.9714 3.72299 87.7242 4.07006L90.8776 7.22222H86.4184C86.4184 7.22222 86.3123 8.05982 86.3123 8.49278V8.49806C86.3123 8.93102 86.349 9.35534 86.4186 9.76838H90.8778L87.724 12.9203C88.22 13.6163 88.8286 14.2248 89.5247 14.7208L92.6776 11.5686V16.0273C93.0899 16.0965 93.5128 16.1329 93.9448 16.1334H93.9556C94.3802 16.133 94.804 16.0976 95.2228 16.0273V11.5686L98.3759 14.7215C98.7232 14.4741 99.0494 14.1983 99.351 13.8969H99.3517C99.6528 13.5951 99.9283 13.269 100.175 12.9217L97.0233 9.76862H101.482C101.552 9.35582 101.588 8.93294 101.588 8.50094V8.4899C101.588 8.0651 101.553 7.6415 101.482 7.2227L101.482 7.22222ZM20.668 44.0637L33.0913 24.7379H22.1401C22.0484 24.1859 22.0026 23.5729 22.0026 22.8978C22.0026 22.2539 22.0492 21.6551 22.1411 21.1026H39.8555L40.0859 21.7019L27.5706 41.0728H39.3032C39.3952 41.6865 39.4415 42.3148 39.4415 42.9587C39.4415 43.5731 39.3954 44.1556 39.3035 44.7076H20.8984L20.668 44.0629V44.0637ZM56.511 33.6181C56.0509 33.5574 55.468 33.4967 54.7626 33.4345C54.057 33.3738 53.4589 33.3426 52.9689 33.3426C51.0666 33.3426 49.6173 33.6954 48.621 34.401C47.6233 35.1071 47.1258 36.1801 47.1258 37.6218C47.1258 38.542 47.2938 39.2629 47.6315 39.7842C47.9685 40.3065 48.3906 40.7044 48.8968 40.9806C49.4032 41.2566 49.9624 41.4256 50.5756 41.487C51.1888 41.5482 51.772 41.5787 52.324 41.5787C53.0296 41.5787 53.758 41.5403 54.5097 41.4635C55.2609 41.3874 55.9281 41.272 56.5112 41.1186V33.6181H56.511ZM56.511 29.1556C56.511 27.345 56.0509 26.0874 55.131 25.3818C54.2104 24.6762 52.8762 24.3234 51.1278 24.3234C50.0533 24.3234 49.0494 24.4084 48.1141 24.5769C47.1886 24.743 46.2741 24.9656 45.3757 25.2433C44.7925 24.231 44.5021 23.0202 44.5021 21.6083C45.5437 21.2713 46.6938 21.0107 47.9521 20.8266C49.2097 20.6423 50.4212 20.5501 51.5874 20.5501C54.6546 20.5501 56.9857 21.2485 58.581 22.6441C60.1756 24.0409 60.9738 26.2722 60.9738 29.3392V44.1093C59.8996 44.3545 58.5964 44.6075 57.0628 44.8684C55.5121 45.1302 53.9422 45.2611 52.3696 45.2596C50.8667 45.2596 49.5088 45.1221 48.2977 44.8458C47.0857 44.5691 46.0581 44.1253 45.2147 43.5109C44.3704 42.898 43.7195 42.1156 43.2587 41.1649C42.7988 40.2138 42.5687 39.0637 42.5687 37.7137C42.5687 36.3952 42.837 35.2369 43.3739 34.2395C43.9014 33.254 44.6495 32.4038 45.5598 31.755C46.48 31.0965 47.5381 30.6049 48.7345 30.2833C49.9312 29.961 51.1883 29.7997 52.5073 29.7997C53.4889 29.7997 54.2941 29.8233 54.9232 29.8693C55.5515 29.9149 56.0809 29.9687 56.5105 30.0301V29.1558L56.511 29.1556ZM70.4982 40.8417C71.0791 41.0562 71.6805 41.2105 72.2929 41.302C72.9064 41.3944 73.7032 41.4402 74.6857 41.4402C75.7897 41.4402 76.8016 41.2643 77.7217 40.9115C78.6424 40.5594 79.432 40.0144 80.0915 39.2778C80.751 38.542 81.2723 37.6146 81.6558 36.4938C82.0391 35.3749 82.2313 34.0487 82.2313 32.5141C82.2313 30.0604 81.7782 28.1125 80.8739 26.6706C79.9684 25.2292 78.4883 24.5082 76.4339 24.5082C75.6671 24.5082 74.9303 24.646 74.2259 24.9225C73.5193 25.1985 72.891 25.6127 72.3388 26.1647C71.7868 26.7167 71.3421 27.4151 71.0049 28.2585C70.6665 29.1028 70.4985 30.1065 70.4985 31.2724V40.8424V40.8419L70.4982 40.8417ZM65.943 21.1024C66.255 21.0409 66.5694 20.9951 66.8862 20.9646C67.2152 20.9342 67.5454 20.919 67.8757 20.919C68.1815 20.919 68.5033 20.9349 68.8415 20.9646C69.1785 20.9958 69.5005 21.0421 69.8077 21.1026C69.838 21.165 69.8769 21.3558 69.9229 21.6781C69.9685 22.0005 70.0146 22.3453 70.0609 22.713C70.107 23.0814 70.1529 23.4349 70.1989 23.7714C70.245 24.1093 70.2681 24.3241 70.2681 24.4161C70.5741 23.9257 70.9425 23.4498 71.3721 22.9897C71.8017 22.5294 72.316 22.1154 72.9141 21.7477C73.5121 21.3793 74.1865 21.0882 74.9384 20.8732C75.6897 20.6586 76.5256 20.5504 77.446 20.5504C78.826 20.5504 80.1069 20.7808 81.2884 21.2411C82.4687 21.7019 83.4803 22.414 84.3244 23.3805C85.1675 24.3469 85.8268 25.5741 86.3027 27.0613C86.7779 28.5503 87.0155 30.3061 87.0155 32.3303C87.0155 36.3791 85.9187 39.5471 83.7251 41.8319C81.5315 44.1174 78.4266 45.2596 74.4083 45.2596C73.7332 45.2596 73.0434 45.2135 72.3378 45.1216C71.6317 45.0292 71.0188 44.9063 70.497 44.7537V55.5666C70.1084 55.6299 69.7171 55.6759 69.3244 55.7046C68.9099 55.7346 68.5338 55.7502 68.1964 55.7502C67.8203 55.7486 67.4443 55.7334 67.0693 55.7046C66.6915 55.6779 66.3154 55.6318 65.9423 55.5666V21.1026L65.943 21.1024Z" fill="white"/>
</svg>
