<svg width="24" height="24" viewBox="0 0 24 24" fill="none" xmlns="http://www.w3.org/2000/svg">
<rect x="5.70117" y="2" width="2.7" height="2.7" fill="#3F3F46"/>
<rect x="15.6016" y="2" width="2.7" height="2.7" fill="#3F3F46"/>
<path fill-rule="evenodd" clip-rule="evenodd" d="M5 4.0498C3.48122 4.0498 2.25 5.28102 2.25 6.7998V18.9998C2.25 20.5186 3.48122 21.7498 5 21.7498H19C20.5188 21.7498 21.75 20.5186 21.75 18.9998V6.7998C21.75 5.28102 20.5188 4.0498 19 4.0498H5ZM3.75 6.7998C3.75 6.10945 4.30964 5.5498 5 5.5498H19C19.6904 5.5498 20.25 6.10945 20.25 6.7998V8.55H3.75V6.7998ZM3.75 10.05V18.9998C3.75 19.6902 4.30964 20.2498 5 20.2498H19C19.6904 20.2498 20.25 19.6902 20.25 18.9998V10.05H3.75Z" fill="#3F3F46"/>
</svg>
