<svg width="24" height="24" viewBox="0 0 24 24" fill="none" xmlns="http://www.w3.org/2000/svg">
<path d="M15.0489 11.2042C15.4047 10.3016 16.6821 10.3016 17.038 11.2042V11.2042C17.2598 11.7667 17.909 12.0311 18.4637 11.7903V11.7903C19.3492 11.4058 20.2596 12.3018 19.8707 13.1854V13.1854C19.6272 13.7384 19.8941 14.3828 20.4572 14.6018V14.6018C21.3592 14.9526 21.3592 16.2289 20.4572 16.5797V16.5797C19.8941 16.7987 19.6272 17.4431 19.8707 17.9961V17.9961C20.2596 18.8797 19.3492 19.7757 18.4637 19.3912V19.3912C17.909 19.1503 17.2598 19.4148 17.038 19.9773V19.9773C16.6821 20.8799 15.4047 20.8799 15.0489 19.9773V19.9773C14.8271 19.4148 14.1778 19.1503 13.6232 19.3912V19.3912C12.7377 19.7757 11.8272 18.8797 12.2162 17.9961V17.9961C12.4596 17.4431 12.1928 16.7987 11.6297 16.5797V16.5797C10.7277 16.2289 10.7277 14.9526 11.6297 14.6018V14.6018C12.1928 14.3828 12.4596 13.7384 12.2162 13.1854V13.1854C11.8272 12.3018 12.7377 11.4058 13.6232 11.7903V11.7903C14.1778 12.0311 14.8271 11.7667 15.0489 11.2042V11.2042Z" stroke="#52525B" stroke-width="1.5" stroke-miterlimit="16" stroke-linejoin="round"/>
<ellipse cx="16.0438" cy="15.591" rx="1.73913" ry="1.72727" stroke="#52525B"/>
<path d="M13.0766 11.7048L12.6418 11.2729C10.207 13.3457 7.85916 12.1366 6.9896 11.2729C3.16351 12.6548 2.7867 17.3184 3.07655 19.4775H12.5652" stroke="#52525B" stroke-width="1.5" stroke-linecap="round" stroke-linejoin="round"/>
<ellipse cx="9.95678" cy="5.95455" rx="3.47826" ry="3.45455" stroke="#52525B" stroke-width="1.5"/>
</svg>
