<svg width="14" height="14" viewBox="0 0 14 14" fill="none" xmlns="http://www.w3.org/2000/svg">
<path d="M11.7871 5.04199C11.7871 5.04199 11.4029 9.68386 11.18 11.6392C11.0738 12.5731 10.4815 13.1203 9.51136 13.1375C7.66515 13.1699 5.81682 13.172 3.97132 13.1341C3.03796 13.1155 2.45558 12.5613 2.35156 11.644C2.12724 9.67146 1.74512 5.04199 1.74512 5.04199" stroke="#18181B" stroke-width="0.797872" stroke-linecap="round" stroke-linejoin="round"/>
<path d="M12.7656 2.81629H0.765625" stroke="#18181B" stroke-width="0.797872" stroke-linecap="round" stroke-linejoin="round"/>
<path d="M10.4538 2.81678C9.89827 2.81678 9.41991 2.43427 9.31093 1.90426L9.13898 1.06618C9.03283 0.679525 8.67336 0.412109 8.26364 0.412109H5.26824C4.85852 0.412109 4.49905 0.679525 4.3929 1.06618L4.22095 1.90426C4.11197 2.43427 3.63361 2.81678 3.07812 2.81678" stroke="#18181B" stroke-width="0.797872" stroke-linecap="round" stroke-linejoin="round"/>
</svg>
