<svg width="24" height="24" viewBox="0 0 24 24" fill="none" xmlns="http://www.w3.org/2000/svg">
<path d="M18.695 9.67285C18.695 9.67285 18.1827 15.862 17.8854 18.4691C17.7439 19.7143 16.9542 20.4439 15.6607 20.4669C13.199 20.5101 10.7346 20.5128 8.27394 20.4623C7.02945 20.4375 6.25295 19.6986 6.11425 18.4755C5.81516 15.8455 5.30566 9.67285 5.30566 9.67285" stroke="white" stroke-width="1.5" stroke-linecap="round" stroke-linejoin="round"/>
<path d="M20 6.70606H4" stroke="white" stroke-width="1.5" stroke-linecap="round" stroke-linejoin="round"/>
<path d="M16.9172 6.70623C16.1765 6.70623 15.5387 6.19621 15.3934 5.48954L15.1641 4.37209C15.0226 3.85655 14.5433 3.5 13.997 3.5H10.0032C9.45687 3.5 8.97757 3.85655 8.83604 4.37209L8.60677 5.48954C8.46147 6.19621 7.82366 6.70623 7.08301 6.70623" stroke="white" stroke-width="1.5" stroke-linecap="round" stroke-linejoin="round"/>
</svg>
