<svg width="24" height="24" viewBox="0 0 24 24" fill="none" xmlns="http://www.w3.org/2000/svg">
<path d="M10.281 4.38379C10.8923 2.82222 13.1021 2.82222 13.7135 4.38379V4.38379C14.0949 5.35795 15.2097 5.81972 16.1682 5.40055V5.40055C17.7045 4.72869 19.2667 6.29171 18.5951 7.82818V7.82818C18.1761 8.78679 18.6377 9.90188 19.6119 10.2834V10.2834C21.1735 10.8951 21.1735 13.1049 19.6119 13.7166V13.7166C18.6377 14.0981 18.1761 15.2132 18.5951 16.1718V16.1718C19.2667 17.7083 17.7045 19.2713 16.1682 18.5994V18.5994C15.2097 18.1803 14.0949 18.642 13.7135 19.6162V19.6162C13.1021 21.1778 10.8923 21.1778 10.281 19.6162V19.6162C9.89961 18.642 8.7848 18.1803 7.82628 18.5994V18.5994C6.28993 19.2713 4.72775 17.7083 5.39935 16.1718V16.1718C5.81837 15.2132 5.35674 14.0981 4.38261 13.7166V13.7166C2.82101 13.1049 2.82101 10.8951 4.38261 10.2834V10.2834C5.35674 9.90188 5.81837 8.78679 5.39935 7.82818V7.82818C4.72775 6.29171 6.28993 4.72869 7.82628 5.40055V5.40055C8.7848 5.81972 9.89961 5.35795 10.281 4.38379V4.38379Z" stroke="#52525B" stroke-width="1.5" stroke-miterlimit="16" stroke-linejoin="round"/>
<ellipse cx="11.9993" cy="12" rx="2.99931" ry="3" stroke="#52525B" stroke-width="1.5"/>
</svg>
