<svg width="24" height="24" viewBox="0 0 24 24" fill="none" xmlns="http://www.w3.org/2000/svg">
<path d="M8.36562 11.0257C7.71433 12.1388 7.0021 13.3726 6.16617 14.7299L9.87323 18.4341C11.0267 17.7668 12.0609 17.1531 12.9881 16.582M8.36562 11.0257H3.6948C4.31264 9.37563 6.53688 6.38524 10.4911 7.62453M8.36562 11.0257C9.12367 9.73016 9.79917 8.598 10.4911 7.62453M10.4911 7.62453C12.7196 4.48906 15.1184 3 20.9944 3C20.9944 8.63441 21.3518 10.6978 16.3587 14.3504M12.9881 16.582L12.9624 20.9036C14.6087 19.8274 17.5928 17.0102 16.3587 14.3504M12.9881 16.582C14.3204 15.7614 15.4317 15.0285 16.3587 14.3504M4.93049 16.582L7.40186 19.0515C6.78401 19.8746 5.05405 21.3974 3.07696 20.9036C2.87101 20.2069 2.95339 18.3673 4.93049 16.582Z" stroke="#52525B" stroke-width="1.5" stroke-linejoin="round"/>
<ellipse cx="15.5959" cy="8.8842" rx="1.677" ry="1.6757" stroke="#52525B" stroke-width="1.5"/>
</svg>
