<svg width="24" height="24" viewBox="0 0 24 24" fill="none" xmlns="http://www.w3.org/2000/svg">
<path d="M9.60608 19.0171V16.5637C9.60606 15.9397 10.1416 15.4327 10.8051 15.4285H13.2354C13.9021 15.4285 14.4425 15.9367 14.4425 16.5637V16.5637V19.0247C14.4424 19.5546 14.892 19.9876 15.4552 20H17.0754C18.6906 20 20 18.7685 20 17.2495V17.2495V10.2703C19.9914 9.67266 19.693 9.11148 19.1899 8.74643L13.6486 4.54824C12.6778 3.81725 11.2979 3.81725 10.3271 4.54824L4.81013 8.75405C4.30506 9.11762 4.00622 9.67973 4 10.2779V17.2495C4 18.7685 5.30937 20 6.92456 20H8.54481C9.12198 20 9.58987 19.56 9.58987 19.0171V19.0171" stroke="#52525B" stroke-width="1.5" stroke-linecap="round" stroke-linejoin="round"/>
</svg>
