<svg width="24" height="24" viewBox="0 0 24 24" fill="none" xmlns="http://www.w3.org/2000/svg">
<path d="M21 10.0817V16.6802C21 18.1923 21 18.9484 20.7057 19.526C20.4469 20.034 20.0338 20.4471 19.5258 20.7059C18.9482 21.0002 18.1921 21.0002 16.68 21.0002H7.32C5.80786 21.0002 5.05179 21.0002 4.47423 20.7059C3.96619 20.4471 3.55314 20.034 3.29428 19.526C3 18.9484 3 18.1923 3 16.6802V10.0817C3 9.79613 3 9.65337 3.03975 9.52409C3.07494 9.40965 3.13261 9.30339 3.20938 9.21151C3.29611 9.10773 3.41581 9.02992 3.65522 8.87431L9.3 5.2052L4.85748 8.09284C4.23841 8.49523 3.92888 8.69643 3.82168 8.95157C3.72799 9.17455 3.72799 9.42585 3.82168 9.64883C3.92888 9.90397 4.23841 10.1052 4.85748 10.5076L10.4304 14.13C10.9986 14.4993 11.2826 14.6839 11.5887 14.7557C11.8592 14.8192 12.1408 14.8192 12.4113 14.7557C12.7174 14.6839 13.0015 14.4993 13.5696 14.13L19.1425 10.5076C19.7616 10.1052 20.0711 9.90397 20.1783 9.64883C20.272 9.42585 20.272 9.17455 20.1783 8.95157C20.0711 8.69643 19.7616 8.49523 19.1425 8.09284L14.7 5.2052L20.3448 8.87431C20.5842 9.02992 20.7039 9.10773 20.7906 9.21151C20.8674 9.30339 20.9251 9.40965 20.9602 9.52409C21 9.65337 21 9.79613 21 10.0817Z" stroke="#3F3F46" stroke-width="1.5" stroke-linecap="round" stroke-linejoin="round"/>
<path d="M11.9996 3L11.9998 10.5M11.9998 10.5L15 8M11.9998 10.5L9 8" stroke="#3F3F46" stroke-width="1.3" stroke-linecap="round" stroke-linejoin="round"/>
</svg>
