<svg width="24" height="24" viewBox="0 0 24 24" fill="none" xmlns="http://www.w3.org/2000/svg">
<path d="M11.1065 1.71436V3.03143M11.1065 3.03143C9.48541 3.47045 6.33159 5.05094 6.68529 7.86069C7.03899 10.6705 5.6538 13.129 4.917 14.007C4.41989 14.8851 4.82857 15.3241 6.24337 15.3241C7.65816 15.3241 13.6122 15.3241 16.4124 15.3241C17.1493 15.3241 18.3577 14.9729 17.2966 13.568C16.2356 12.1631 16.1579 11.2182 15.9151 10.4948C15.6204 9.61679 15.5282 7.86069 15.5282 7.86069C15.5282 7.86069 16.4124 4.78753 11.1065 3.03143Z" stroke="#52525B" stroke-width="1.5" stroke-linecap="round" stroke-linejoin="round"/>
<path d="M13.3882 18.3594C13.4349 18.2475 13.472 18.1323 13.4994 18.015C13.5622 17.7461 13.3326 17.5193 13.0565 17.5193H11.3459L9.63525 17.5193C9.35911 17.5193 9.12957 17.7461 9.19234 18.015C9.21973 18.1323 9.25688 18.2475 9.30353 18.3594C9.41462 18.6257 9.57745 18.8677 9.78273 19.0715C9.988 19.2754 10.2317 19.4371 10.4999 19.5474C10.7681 19.6577 11.0556 19.7145 11.3459 19.7145C11.6362 19.7145 11.9236 19.6577 12.1918 19.5474C12.46 19.4371 12.7037 19.2754 12.909 19.0715C13.1143 18.8677 13.2771 18.6257 13.3882 18.3594Z" stroke="#52525B" stroke-width="1.5"/>
</svg>
