<svg width="24" height="24" viewBox="0 0 24 24" fill="none" xmlns="http://www.w3.org/2000/svg">
<path d="M19.7657 4.50598L12.2587 2.09797C12.06 2.03426 11.8464 2.03426 11.6478 2.09798L4.13088 4.50916C3.77941 4.6219 3.51757 4.92045 3.45508 5.28423C2.80885 9.04634 2.86592 11.0817 3.53066 14.1728C3.54979 14.2617 3.58193 14.3495 3.62499 14.4296C5.3994 17.7319 7.22614 19.3523 11.486 21.7403C11.777 21.9035 12.1321 21.9082 12.4274 21.7529C16.5444 19.5887 18.6547 17.9455 20.5516 14.4461C20.6008 14.3552 20.6358 14.2548 20.6538 14.1531C21.2464 10.8057 21.0126 8.74957 20.4462 5.29519C20.3856 4.92553 20.1224 4.62039 19.7657 4.50598Z" stroke="#52525B" stroke-width="1.5" stroke-linejoin="round"/>
<path d="M14 10C14 10.7584 13.5779 11.4182 12.9558 11.7573C12.6718 11.9121 12.3462 12 12 12C11.8096 12 11.6254 11.9734 11.4509 11.9237C10.6133 11.6851 10 10.9142 10 10C10 8.89543 10.8954 8 12 8C13.1046 8 14 8.89543 14 10Z" stroke="#52525B" stroke-width="1.5" stroke-linejoin="round"/>
<path d="M11 12L11 14C11 14.5523 11.4477 15 12 15V15C12.5523 15 13 14.5523 13 14L13 12" stroke="#52525B" stroke-width="1.5" stroke-linejoin="round"/>
</svg>
