<svg width="24" height="24" viewBox="0 0 24 24" fill="none" xmlns="http://www.w3.org/2000/svg">
<mask id="path-1-inside-1_117_17983" fill="white">
<rect x="2" y="18" width="4" height="4" rx="1"/>
</mask>
<rect x="2" y="18" width="4" height="4" rx="1" stroke="#52525B" stroke-width="3" mask="url(#path-1-inside-1_117_17983)"/>
<mask id="path-2-inside-2_117_17983" fill="white">
<rect x="7" y="16" width="4" height="6" rx="1"/>
</mask>
<rect x="7" y="16" width="4" height="6" rx="1" stroke="#52525B" stroke-width="3" mask="url(#path-2-inside-2_117_17983)"/>
<mask id="path-3-inside-3_117_17983" fill="white">
<rect x="12" y="14" width="4" height="8" rx="1"/>
</mask>
<rect x="12" y="14" width="4" height="8" rx="1" stroke="#52525B" stroke-width="3" mask="url(#path-3-inside-3_117_17983)"/>
<mask id="path-4-inside-4_117_17983" fill="white">
<rect x="17" y="11" width="4" height="11" rx="1"/>
</mask>
<rect x="17" y="11" width="4" height="11" rx="1" stroke="#52525B" stroke-width="3" mask="url(#path-4-inside-4_117_17983)"/>
<path d="M2.57129 13.2857C5.71415 13.7143 13.3713 12.5143 18.857 4.28571L19.7141 3M19.7141 3L16.2856 4.28571M19.7141 3L20.1427 6.42857" stroke="#52525B" stroke-width="1.5" stroke-linecap="round" stroke-linejoin="round"/>
</svg>
