<svg width="24" height="24" viewBox="0 0 24 24" fill="none" xmlns="http://www.w3.org/2000/svg">
<g clip-path="url(#clip0_6181_61311)">
<path d="M6.01562 5.46094V5.46094C6.00112 5.46094 5.99386 5.46094 5.98773 5.46096C3.78818 5.4677 2.00677 7.24912 2.00002 9.44867C2 9.4548 2 9.46206 2 9.47656V13.4609C2 17.2322 2 19.1178 3.17157 20.2894C4.34315 21.4609 6.22876 21.4609 10 21.4609H14C17.7712 21.4609 19.6569 21.4609 20.8284 20.2894C22 19.1178 22 17.2322 22 13.4609V9.52344C22 9.46541 22 9.43639 21.9997 9.41185C21.9731 7.24112 20.2198 5.48788 18.0491 5.46124C18.0245 5.46094 17.9955 5.46094 17.9375 5.46094V5.46094" stroke="black" stroke-width="1.5"/>
<path d="M4 6.96094L9.17158 12.1325C10.5049 13.4658 11.1716 14.1325 12 14.1325C12.8284 14.1325 13.4951 13.4658 14.8284 12.1325L20 6.96094" stroke="black" stroke-width="1.5" stroke-linecap="round"/>
<path d="M18.6719 8.38666V5.53906C18.6719 3.88221 17.3287 2.53906 15.6719 2.53906H8.32812C6.67127 2.53906 5.32812 3.88221 5.32812 5.53906V8.02118" stroke="black" stroke-width="1.5"/>
<path d="M10.6562 5.46094H13.8438" stroke="black" stroke-width="1.5" stroke-linecap="round"/>
<path d="M9.5 8.05469H15" stroke="black" stroke-width="1.5" stroke-linecap="round"/>
<path d="M9.5 13.4609L3.25 19.7109" stroke="black" stroke-width="1.5"/>
<path d="M14.5 13.4609L20.75 19.7109" stroke="black" stroke-width="1.5"/>
</g>
<defs>
<clipPath id="clip0_6181_61311">
<rect width="24" height="24" fill="white"/>
</clipPath>
</defs>
</svg>
