<svg width="24" height="24" viewBox="0 0 24 24" fill="none" xmlns="http://www.w3.org/2000/svg">
<path d="M21.4219 1.44531H2.57812C1.15655 1.44531 0 2.60186 0 4.02344V16.3984C0 17.82 1.15655 18.9766 2.57812 18.9766H8.64909C8.7232 18.9766 8.79366 19.0121 8.83767 19.0718L11.0527 22.0748C11.2746 22.3757 11.6164 22.5493 11.9903 22.5511H11.996C12.3678 22.5511 12.7089 22.3808 12.9325 22.0834L15.1977 19.0701C15.2417 19.0115 15.3118 18.9765 15.3851 18.9765H21.4219C22.8435 18.9765 24 17.82 24 16.3984V4.02339C24 2.60181 22.8435 1.44531 21.4219 1.44531ZM22.5938 16.3984C22.5938 16.5092 22.578 16.6162 22.5492 16.7177L15.3255 10.3855L22.5938 4.35372V16.3984ZM21.4219 2.85156C21.6362 2.85156 21.8372 2.90969 22.0102 3.01061L12.7504 10.6951C12.3167 11.055 11.6873 11.055 11.2536 10.6951L1.99214 3.00925C2.16464 2.90917 2.36475 2.85156 2.57812 2.85156H21.4219ZM1.45083 16.7177C1.422 16.6162 1.40625 16.5091 1.40625 16.3984V4.35044L8.67647 10.3838L1.45083 16.7177ZM14.0737 18.2251L11.9976 20.9868L9.96937 18.2371C9.6615 17.8195 9.16786 17.5703 8.64905 17.5703H2.61155L9.77227 11.2932L10.3555 11.7772C10.8326 12.1731 11.4172 12.371 12.002 12.371C12.5866 12.371 13.1714 12.173 13.6484 11.7772L14.2296 11.2949L21.3884 17.5703H15.3851C14.8722 17.5703 14.382 17.815 14.0737 18.2251Z" fill="black"/>
</svg>
