<svg width="40" height="40" viewBox="0 0 40 40" fill="none" xmlns="http://www.w3.org/2000/svg">
<path d="M18.7148 2.13558C19.2978 1.16685 20.7022 1.16685 21.2852 2.13558L26.2555 10.3945C26.465 10.7425 26.8066 10.9907 27.2023 11.0824L36.5929 13.2573C37.6944 13.5124 38.1284 14.8481 37.3872 15.7019L31.0684 22.9811C30.8021 23.2878 30.6717 23.6894 30.7068 24.0941L31.5402 33.6972C31.638 34.8236 30.5017 35.6491 29.4607 35.208L20.5851 31.4479C20.2111 31.2894 19.7889 31.2894 19.4149 31.4479L10.5393 35.208C9.49827 35.6491 8.36204 34.8236 8.4598 33.6972L9.29322 24.0941C9.32834 23.6894 9.19785 23.2878 8.93159 22.9811L2.61278 15.7019C1.87162 14.8481 2.30561 13.5124 3.40708 13.2573L12.7977 11.0824C13.1934 10.9907 13.535 10.7425 13.7445 10.3945L18.7148 2.13558Z" stroke="#D4D4D8" stroke-width="1.5" stroke-linejoin="round"/>
</svg>
